/* XPM */
static char *box_in[] = {
/* columns rows colors chars-per-pixel */
"72 72 118 2 ",
"   c #78583D",
".  c #7A6338",
"X  c #303F4F",
"o  c #2C3E50",
"O  c #2D3E50",
"+  c #2C3F50",
"@  c #2D3F50",
"#  c #2C3E51",
"$  c #2D3E51",
"%  c #2C3F51",
"&  c #2D3F51",
"*  c #2D3F52",
"=  c #33414E",
"-  c #3F454B",
";  c #38424D",
":  c #2D4052",
">  c #2E4153",
",  c #2E4154",
"<  c #2F4255",
"1  c #2F4256",
"2  c #304357",
"3  c #304457",
"4  c #304458",
"5  c #314459",
"6  c #314559",
"7  c #32455A",
"8  c #32465A",
"9  c #32475A",
"0  c #32475B",
"q  c #32475C",
"w  c #33485C",
"e  c #34485D",
"r  c #34495E",
"t  c #474749",
"y  c #494848",
"u  c #504B47",
"i  c #544C46",
"p  c #5E4F43",
"a  c #5C4E45",
"s  c #675242",
"d  c #6B5340",
"f  c #875E3A",
"g  c #9A722E",
"h  c #896A32",
"j  c #976335",
"k  c #B16C2F",
"l  c #BD702C",
"z  c #A56832",
"x  c #C67329",
"c  c #CF7728",
"v  c #D17727",
"b  c #D77926",
"n  c #D87A25",
"m  c #DC7B24",
"M  c #DD7B24",
"N  c #E17D23",
"B  c #E27C23",
"V  c #E77F21",
"C  c #E47D23",
"Z  c #E47E23",
"A  c #E67E22",
"S  c #E67F22",
"D  c #E77F22",
"F  c #E9851E",
"G  c #E9841F",
"H  c #EC8C1A",
"J  c #ED8E1A",
"K  c #EA881C",
"L  c #EB881C",
"P  c #EB891D",
"I  c #E8891E",
"U  c #E8881F",
"Y  c #EE9117",
"T  c #E19419",
"R  c #E29518",
"E  c #EE9218",
"W  c #E9901D",
"Q  c #EA931D",
"!  c #E9951C",
"~  c #EA9A1A",
"^  c #EA9B1A",
"/  c #EB9A1B",
"(  c #F09615",
")  c #F09516",
"_  c #F39B12",
"`  c #F29A13",
"'  c #F39C12",
"]  c #F39C13",
"[  c #F49C13",
"{  c #F29A14",
"}  c #ECA417",
"|  c #EDA717",
" . c #EDAB16",
".. c #EEAE15",
"X. c #EBA318",
"o. c #ECA218",
"O. c #ECA418",
"+. c #EEB612",
"@. c #EFB613",
"#. c #EEB114",
"$. c #EEB414",
"%. c #EFBB11",
"&. c #F0BC11",
"*. c #E78020",
"=. c #E78021",
"-. c #E78320",
";. c #E68122",
":. c #E78620",
">. c #E88120",
",. c #E88220",
"<. c #F0C10F",
"1. c #F1C30F",
"2. c #F1C40E",
"3. c #F1C50E",
"4. c #F1C40F",
"5. c #F1C110",
"6. c #F0C210",
"7. c None",
/* pixels */
"7.7.7.7.7.7.7.7.7.7.7.7.7.7.7.7.7.7.7.7.7.7.7.7.7.7.7.r r r r r r r r r r r r r r r r r r 7.7.7.7.7.7.7.7.7.7.7.7.7.7.7.7.7.7.7.7.7.7.7.7.7.7.7.",
"7.7.7.7.7.7.7.7.7.7.7.7.7.7.7.7.7.7.7.7.7.7.7.7.7.7.7.r r r r r r r r r r r r r r r r r r 7.7.7.7.7.7.7.7.7.7.7.7.7.7.7.7.7.7.7.7.7.7.7.7.7.7.7.",
"7.7.7.7.7.7.7.7.7.7.7.7.7.7.7.7.7.7.7.7.7.7.7.7.7.7.7.r r r r r r r r r r r r r r r r r r 7.7.7.7.7.7.7.7.7.7.7.7.7.7.7.7.7.7.7.7.7.7.7.7.7.7.7.",
"7.7.7.7.7.7.7.7.7.7.7.7.7.7.7.7.7.7.7.7.7.7.7.7.7.7.7.r r r r r r r r r r r r r r r r r r 7.7.7.7.7.7.7.7.7.7.7.7.7.7.7.7.7.7.7.7.7.7.7.7.7.7.7.",
"7.7.7.7.7.7.7.7.7.7.7.7.7.7.7.7.7.7.7.7.7.7.7.7.7.7.7.r r r r r r r r r r r r r r r r r r 7.7.7.7.7.7.7.7.7.7.7.7.7.7.7.7.7.7.7.7.7.7.7.7.7.7.7.",
"7.7.7.7.7.7.7.7.7.7.7.7.7.7.7.7.7.7.7.7.7.7.7.7.7.7.7.r r r r r r r r r r r r r r r r r r 7.7.7.7.7.7.7.7.7.7.7.7.7.7.7.7.7.7.7.7.7.7.7.7.7.7.7.",
"7.7.7.7.7.7.7.7.7.7.7.7.7.7.7.7.7.7.7.7.7.7.7.7.7.7.7.r r r r r r r r r r r r r r r r r r 7.7.7.7.7.7.7.7.7.7.7.7.7.7.7.7.7.7.7.7.7.7.7.7.7.7.7.",
"7.7.7.7.7.7.7.7.7.7.7.7.7.7.7.7.7.7.7.7.7.7.7.7.7.7.7.r r r r r r r r r r r r r r r r r r 7.7.7.7.7.7.7.7.7.7.7.7.7.7.7.7.7.7.7.7.7.7.7.7.7.7.7.",
"7.7.7.7.7.7.7.7.7.7.7.7.7.7.7.7.7.7.7.7.7.7.7.7.7.7.7.r r r r r r r r r r r r r r r r r r 7.7.7.7.7.7.7.7.7.7.7.7.7.7.7.7.7.7.7.7.7.7.7.7.7.7.7.",
"7.7.7.7.7.7.7.7.7.7.7.7.7.7.7.7.7.7.7.7.7.7.7.7.7.7.7.r r r r r r r r r r r r r r r r r r 7.7.7.7.7.7.7.7.7.7.7.7.7.7.7.7.7.7.7.7.7.7.7.7.7.7.7.",
"7.7.7.7.7.7.7.7.7.7.7.7.7.7.7.7.7.7.7.7.7.7.7.7.7.7.7.r r r r r r r r r r r r r r r r r r 7.7.7.7.7.7.7.7.7.7.7.7.7.7.7.7.7.7.7.7.7.7.7.7.7.7.7.",
"7.7.7.7.7.7.7.7.7.7.7.7.7.7.7.7.7.7.7.7.7.7.7.7.7.7.7.r r r r r r r r r r r r r r r r r r 7.7.7.7.7.7.7.7.7.7.7.7.7.7.7.7.7.7.7.7.7.7.7.7.7.7.7.",
"7.7.7.7.7.7.7.7.7.7.7.7.7.7.7.7.7.7.7.7.7.7.7.7.7.7.7.r r r r r r r r r r r r r r r r r r 7.7.7.7.7.7.7.7.7.7.7.7.7.7.7.7.7.7.7.7.7.7.7.7.7.7.7.",
"7.7.7.7.7.7.7.7.7.7.7.7.7.7.7.7.7.7.7.7.7.7.7.7.7.7.7.r r r r r r r r r r r r r r r r r r 7.7.7.7.7.7.7.7.7.7.7.7.7.7.7.7.7.7.7.7.7.7.7.7.7.7.7.",
"7.7.7.7.7.7.7.7.7.7.7.7.7.7.7.7.7.7.7.7.7.7.7.7.7.7.7.r r r r r r r r r r r r r r r r r r 7.7.7.7.7.7.7.7.7.7.7.7.7.7.7.7.7.7.7.7.7.7.7.7.7.7.7.",
"7.7.7.7.7.7.7.7.7.7.7.7.7.7.7.7.7.7.7.7.7.7.7.7.7.7.7.r r r r r r r r r r r r r r r r r r 7.7.7.7.7.7.7.7.7.7.7.7.7.7.7.7.7.7.7.7.7.7.7.7.7.7.7.",
"7.7.7.7.7.7.7.7.7.7.7.7.7.7.7.7.7.7.7.7.7.7.7.7.7.7.7.r r r r r r r r r r r r r r r r r r 7.7.7.7.7.7.7.7.7.7.7.7.7.7.7.7.7.7.7.7.7.7.7.7.7.7.7.",
"7.7.7.7.7.7.7.7.7.7.7.7.7.7.7.7.7.7.7.7.7.7.7.7.7.7.7.r r r r r r r r r r r r r r r r r r 7.7.7.7.7.7.7.7.7.7.7.7.7.7.7.7.7.7.7.7.7.7.7.7.7.7.7.",
"7.7.7.7.7.7.7.7.7.' ' ' ' ' ' ' ' ' ' ' ' ' ' ' ' ' ' r r r r r r r r r r r r r r r r r r ' ' ' ' ' ' ' ' ' ' ' ' ' ' ' ' ' ' ' 7.7.7.7.7.7.7.7.",
"7.7.7.7.7.7.7.7.7.' ' ' ' ' ' ' ' ' ' ' ' ' ' ' ' ' ' r r r r r r r r r r r r r r r r r r ' ' ' ' ' ' ' ' ' ' ' ' ' ' ' ' ' ' ' 7.7.7.7.7.7.7.7.",
"7.7.7.7.7.7.7.7.7.' ' ' ' ' ' ' ' ' T T T T T T T T T r r r r r r r r r r r r r r r r r r T T T T T T T T R ' ' ' ' ' ' ' ' ' ' 7.7.7.7.7.7.7.7.",
"7.7.7.7.7.7.7.7.7.' ' ' ' ' ' ' ' ' 2 r r r r r r r r r r r r r r r r r r r r r r r r r r r r r r r r r r 1 ' ' ' ' ' ' ' ' ' ' 7.7.7.7.7.7.7.7.",
"7.7.7.7.7.7.7.7.7.' ' ' ' ' ' ' ' ' * 1 r r r r r r r r r r r r r r r r r r r r r r r r r r r r r r r r 7 o ' ' ' ' ' ' ' ' ' ' 7.7.7.7.7.7.7.7.",
"7.7.7.7.7.7.7.7.' ' ' ' ' ' ' ' ' ' * * 7 r r r r r r r r r r r r r r r r r r r r r r r r r r r r r r 7 o o ' ' ' ' ' ' ' ' ' ' ' 7.7.7.7.7.7.7.",
"7.7.7.7.7.7.7.7.' ' ' ' ' ' ' ' ' ' g o o 4 r r r r r r r r r r r r r r r r r r r r r r r r r r r r 7 o * g ' ' ' ' ' ' ' ' ' ' ' 7.7.7.7.7.7.7.",
"7.7.7.7.7.7.7.7.' ' ' ' ' ' ' ' ' ' ' h o o 4 r r r r r r r r r r r r r r r r r r r r r r r r r r 4 * o h ' ' ' ' ' ' ' ' ' ' ' ' 7.7.7.7.7.7.7.",
"7.7.7.7.7.7.7.7.' ' ' ' ' ' ' ' ' ' ' ' . o 1 7 r r r r r r r r r r r r r r r r r r r r r r r r r o * . ' ' ' ' ' ' ' ' ' ' ' ' ' 7.7.7.7.7.7.7.",
"7.7.7.7.7.7.7.7.' L A A A A A A A A A A n   o * q r r r r r r r r r r r r r r r r r r r r r r 1 o o s A A A A A A A A A A A =.>.' 7.7.7.7.7.7.7.",
"7.7.7.7.7.7.7.' ' F A A A A A A A A A A A A a o 1 4 r r r r r r r r r r r r r r r r r r r r 4 1 o a A A A A A A A A A A A A A >.' ' 7.7.7.7.7.7.",
"7.7.7.7.7.7.7.' ' >.A A A A A A A A A A A A n u o 1 r r r r r r r r r r r r r r r r r r r r 1 o u n A A A A A A A A A A A A A =.' ' 7.7.7.7.7.7.",
"7.7.7.7.7.7.7.' ' A A A A A A A A A A A A A A b t o 1 7 r r r r r r r r r r r r r r r r 7 1 o t b A A A A A A A A A A A A A A A ' ' 7.7.7.7.7.7.",
"7.7.7.7.7.7.7.' ' A A A A A A A A A A A A A A A c - o 1 r r r r r r r r r r r r r r r r 1 o - c A A A A A A A A A A A A A A A A ) ' 7.7.7.7.7.7.",
"7.7.7.7.7.7.7.' J A A A A A A A A A A V C V V V D x X * * r r r r r r r r r r r r r r 2 o - x A A A A A A A A A A A A A A A A A E ' 7.7.7.7.7.7.",
"7.7.7.7.7.7.[ ' J A A A A A A A A A A V V V C C D D x X * * r r r r r r r r r r r r 2 o X l A A A A A A A A A A A A A A A A A A E [ ' 7.7.7.7.7.",
"7.7.7.7.7.7.[ ' L D A A A A A A A A V C V C V V D D D k X * * r r r r r r r r r r 2 o o k A A A A A A A A A A A A A A A A A A A :.[ ' 7.7.7.7.7.",
"7.7.7.7.7.7.[ [ L D A A A A A A A A V C V V C V D C D D z * $ * r r r r r r r r 2 o o z A A A A A A A A A A A A A A A A A A A A >.' ' 7.7.7.7.7.",
"7.7.7.7.7.7.[ [ D D D D A A A A A A A A V C V V C D C D V j X X q r r r r r r r o o j A A A A A A A A A A A A A A A A A A A A A A ' ' 7.7.7.7.7.",
"7.7.7.7.7.7.[ [ D D D D A A A A A A A A V C V C D C D C C C f X : q r r r r 6 : o f A A A A A A A A A A A A A A A A A A A A A A A ' ' 7.7.7.7.7.",
"7.7.7.7.7.[ [ [ V C C D A A A A A A A A V V C D C D C D C C C f o o 4 q q 4 : o   A A A A A A A A A A A A A A A A A A A A A A A A ) ' ' 7.7.7.7.",
"7.7.7.7.7.[ [ Y V V D C A A A A A A A A C V D C D C D C C C C C   o 1 q q o o   A A A A A A A A A A A A A A A A A A A A A A A A A E ' ' 7.7.7.7.",
"7.7.7.7.7.' ' ) A A A A A A A A A A A A A A A A D C D C V V C V b p o : o o a A V A A A A A A A A A A A A A A A A A A A A A A A =.E ' ' 7.7.7.7.",
"7.7.7.7.7.' ' L A A A A A A A A A A A A A A A A C D C V V C V V A n i o o i n V A A A A A A A A A A A A A A A A A A A A A A A A =.L ' ' 7.7.7.7.",
"7.7.7.7.7.' ' L A A A A A A A A A A A A A A A A D C D C V V C C A V b y y b A A A A A A A A A A A A A A A A A A A A A A A A A A A >.' ' 7.7.7.7.",
"7.7.7.7.[ ' ' F A A A A A A A A A A A A A A A A C D C D C V V V A V V c c A A A A A A A A A A A A A A A A A A A A A A A A A A A A >.' ' ' 7.7.7.",
"7.7.7.7.' ' ' >.A A A A A A A A A A A A A A A A D C D C D C C D A A A A A A A A A A A A A A A A A A A A A A A A A A A A A A A A A A ' ' [ 7.7.7.",
"7.7.7.7.' ' ' D A A A A A A A A A A A A A A A A C D C D D D D D A A A A A A A A A A A A A A A A A A A A A A A A A A A A A A A A A A E ' [ 7.7.7.",
"7.7.7.7.' ' ) D A A A A A A A A A A A A A A A A D C D C C D D D A A A A A A A A A A A A A A A A A A A A A A A A A A A A A A A A =.A ' [ [ 7.7.7.",
"7.7.7.7.' ' L D A A A A A A A A A A A A A A A A C D C D C D D D A A A A A A A A A A A A A A A A A A A A A A A A A A A A A A A A =.>.L [ [ 7.7.7.",
"7.7.7.7.4.4.4.4.4.4.4.4.4.4.4.4.4.4.4.4.4.4.4.4.4.4.4.4.o.;.D D A A A A A A C D C D D D Q 4.4.4.2.2.2.6.4.4.4.4.4.4.4.4.4.4.4.4.4.4.4.4.4.3.7.7.",
"7.7.7.7.4.4.4.4.4.4.4.4.4.4.4.4.4.4.4.4.4.4.4.4.4.4.4.4.@.>.D D A A A A A D D D D D D >.@.4.4.4.2.2.6.2.4.4.4.4.4.4.4.4.4.4.4.4.4.4.4.4.4.3.7.7.",
"7.7.7.7.4.4.3.6.4.4.4.4.4.4.4.4.4.4.4.4.4.4.4.4.4.4.4.4.6.O.D D A A A A A A D D D A >./ 6.4.4.4.3.6.2.6.4.4.4.4.4.4.4.4.4.4.4.4.4.4.4.4.4.3.7.7.",
"7.7.7.7.4.6.3.3.4.4.4.4.4.4.4.4.4.4.4.4.4.4.4.4.4.4.4.4.6.6.o.;.A A A A A A D D A A / 4.4.4.4.4.3.2.6.2.4.4.4.4.4.4.4.4.4.4.4.4.4.4.4.4.4.3.7.7.",
"7.7.7.7.2.6.6.3.4.4.4.4.4.4.4.4.4.4.4.4.4.4.4.4.4.4.4.4.4.4.4...>.A A A >.;.;.D >.O.6.6.4.4.4.4.6.3.3.6.3.3.4.4.4.4.4.4.4.4.4.4.4.4.4.4.4.3.7.7.",
"7.7.7.7.6.2.3.3.4.4.4.4.4.4.4.4.4.4.4.4.4.4.4.4.4.4.4.4.4.4.4.4.6.O.Q :.>.:.Q O.6.6.6.6.4.4.4.4.6.3.3.6.3.6.4.4.4.4.4.4.4.4.4.4.4.4.4.4.4.4.7.7.",
"7.7.7.7.2.3.6.6.4.4.4.4.4.4.4.4.4.4.4.4.4.4.4.4.4.4.4.4.4.4.4.4.3.6.6.3.3.6.3.6.6.3.6.3.4.4.4.4.3.3.3.3.3.3.6.6.4.4.4.4.4.4.4.4.4.4.4.4.4.3.7.7.",
"7.7.7.7.6.3.3.3.4.4.4.4.4.4.4.4.4.4.4.4.4.4.4.4.4.4.4.4.4.4.4.4.3.3.3.6.3.6.3.3.3.3.6.3.4.4.4.4.3.6.6.3.6.3.3.3.4.4.4.4.4.4.4.4.4.4.4.4.4.3.7.7.",
"7.7.7.7.4.4.4.4.4.4.4.4.4.4.4.4.4.4.4.4.4.4.4.4.4.4.4.4.4.4.4.4.6.3.3.6.3.3.3.6.4.4.4.4.4.4.4.4.4.4.4.4.4.4.4.4.4.4.4.4.4.4.4.4.4.4.4.4.4.4.7.7.",
"7.7.7.7.4.4.4.4.4.4.4.4.4.4.4.4.4.4.4.4.4.4.4.4.4.4.4.4.4.4.4.4.6.3.3.6.3.6.4.4.4.4.4.4.4.4.4.4.4.4.4.4.4.4.4.4.4.4.4.4.4.4.4.4.4.4.4.4.4.4.7.7.",
"7.7.7.7.4.4.4.4.4.4.4.4.4.4.4.4.4.4.4.4.4.4.4.4.4.4.4.4.4.4.4.4.3.3.3.3.4.4.4.4.4.4.4.4.4.4.4.4.4.4.4.4.4.4.4.4.4.4.4.4.4.4.4.4.4.4.6.3.4.4.7.7.",
"7.7.7.7.4.4.4.4.4.4.4.4.4.4.4.4.4.4.4.4.4.4.4.4.4.4.4.4.4.4.4.4.3.6.6.3.4.4.4.4.4.4.4.4.4.4.4.4.4.4.4.4.4.4.4.4.4.4.4.4.4.4.4.4.4.4.4.3.4.4.7.7.",
"7.7.7.7.4.4.4.4.4.4.4.4.4.4.4.4.4.4.4.4.4.4.4.4.4.4.4.4.4.4.4.4.4.4.4.4.4.4.4.4.4.4.4.4.4.4.4.4.4.4.4.4.4.4.4.4.4.4.4.4.4.4.4.4.3.3.6.6.2.3.7.7.",
"7.7.7.7.4.4.4.4.4.4.4.4.4.4.4.4.4.4.4.4.4.4.4.4.4.4.4.4.4.4.4.4.4.4.4.4.4.4.4.4.4.4.4.4.4.4.4.4.4.4.4.4.4.4.4.4.4.4.4.4.4.4.4.4.6.3.3.3.6.3.7.7.",
"7.7.7.7.4.4.4.4.4.4.4.4.4.4.4.4.4.4.4.4.4.4.4.4.4.4.4.4.4.4.4.4.4.4.4.4.4.4.4.4.4.4.4.4.4.4.4.4.4.4.4.4.4.4.4.4.4.4.4.4.4.4.4.4.6.3.3.3.3.3.7.7.",
"7.7.7.7.4.4.4.4.4.4.4.4.4.4.4.4.4.4.4.4.4.4.4.4.4.4.4.4.4.4.4.4.4.4.4.4.4.4.4.4.4.4.4.4.4.4.4.4.4.4.4.4.4.4.4.4.4.4.4.4.4.4.4.4.3.3.6.6.3.3.7.7.",
"7.7.7.7.6.4.4.4.6.3.3.3.6.3.4.4.4.4.4.4.3.6.3.3.3.6.3.3.6.4.4.4.4.4.4.4.4.4.4.4.4.4.4.4.4.4.4.4.4.4.4.4.4.4.4.4.4.4.4.4.4.4.4.4.4.4.4.4.4.3.7.7.",
"7.7.7.7.6.4.4.4.3.3.6.3.6.3.4.4.4.4.4.4.3.6.3.6.3.3.6.3.4.4.4.4.4.4.4.4.4.4.4.4.4.4.4.4.4.4.4.4.4.4.4.4.4.4.4.4.4.4.4.4.4.4.4.4.4.4.4.4.4.4.7.7.",
"7.7.7.7.4.4.4.4.3.6.3.6.3.3.3.4.4.4.4.4.3.3.6.3.6.6.3.3.4.4.4.4.4.4.4.4.4.4.4.4.4.4.4.4.4.4.4.4.4.4.4.4.4.4.4.4.4.4.4.4.4.4.4.4.4.4.4.4.6.%.7.7.",
"7.7.7.&.4.4.4.4.3.6.3.2.3.6.6.4.4.4.4.4.6.3.3.3.3.3.3.6.4.4.4.4.4.4.4.4.4.4.4.4.4.4.4.4.4.4.4.4.4.4.4.4.4.4.4.4.4.4.4.4.4.4.4.4.4.4.4.4.2.+.7.7.",
"7.7.7.#.4.6.6.4.2.6.3.3.2.3.6.2.4.4.3.3.2.2.2.6.3.3.3.3.4.3.3.6.4.4.4.4.4.4.3.3.4.4.4.4.4.4.4.4.4.4.4.4.4.4.4.4.4.4.4.4.4.4.4.4.6.2.6.6.6.+.7.7.",
"7.7.7.7.[ [ [ [ ' ' [ [ ' [ [ ' [ [ [ [ ' ' ' ' ' ' ' [ [ [ [ [ ' ' ' ' ' ' ' ' ' ' ' ' ' ' ' ' ' ' ' ' ' ' ' ' ' ' ' ' ' ' ' ' ' ' ' ' ' ' 7.7.",
"7.7.7.7.' ' [ [ ' ' ' ' ' ' ' ' [ [ [ [ ' ' ' ' ' ' [ [ [ [ [ [ ' ' ' ' ' ' ' ' ' ' ' ' ' ' ' ' ' ' ' ' ' ' ' ' ' ' ' ' ' ' ' ' ' ' ' ' ' ' 7.7.",
"7.7.7.7.' [ [ [ ' ' ' ' ' ' ' ' [ [ [ [ ' ' ' ' ' ' [ [ [ [ [ [ ' ' ' ' ' ' ' ' ' ' ' ' ' ' ' ' ' ' ' ' ' ' ' ' ' ' ' ' ' ' ' ' ' ' ' ' ' ' 7.7."
};
