/* XPM */
static char *box_full[] = {
/* columns rows colors chars-per-pixel */
"72 72 65 1 ",
"  c #F39B12",
". c #F39C12",
"X c #F49D13",
"o c #F39D15",
"O c #F39E18",
"+ c #F3A01C",
"@ c #DFBE2D",
"# c #F3A120",
"$ c #F2A325",
"% c #F2A52A",
"& c #E3BF26",
"* c #F2A831",
"= c #F2AB39",
"- c #F2AC3C",
"; c #F1C40F",
": c #E5C023",
"> c #F0C92A",
", c #F0CC38",
"< c #BAB16A",
"1 c #B2AF76",
"2 c #F1AE43",
"3 c #F1B149",
"4 c #F1B14A",
"5 c #F1B34F",
"6 c #F1B555",
"7 c #F1B75A",
"8 c #F1B75B",
"9 c #F1BA62",
"0 c #F0BD69",
"q c #F0BE6D",
"w c #F0C174",
"e c #F0C379",
"r c #F0C57F",
"t c #9FA896",
"y c #9CA79A",
"u c #ABAC82",
"i c #95A5A6",
"p c #EFC886",
"a c #EFC98A",
"s c #EFC98B",
"d c #EFCC92",
"f c #EFCF9A",
"g c #EFD09D",
"h c #EEE09F",
"j c #EED3A4",
"k c #EED5A9",
"l c #EED7AF",
"z c #EEDAB6",
"x c #EEDBB9",
"c c #EEDCBC",
"v c #EDDFC3",
"b c #EDE1CA",
"n c #EDE3CE",
"m c #EDE5D5",
"M c #EDE7D9",
"N c #ECECDB",
"B c #EDE9E0",
"V c #ECECE7",
"C c #ECEDE8",
"Z c #ECEEEC",
"A c #ECEFEE",
"S c #ECF0EF",
"D c #ECF0F0",
"F c #ECF0F1",
"G c None",
/* pixels */
"GGGGGGGGGGGGGGGGGGGGGGGGGGGGGGGGGGGGGGGGGGGGGGGGGGGGGGGGGGGGGGGGGGGGGGGG",
"GGGGGGGGGGGGGGGGGGGGGGGGGGGGGGGGGGGGGGGGGGGGGGGGGGGGGGGGGGGGGGGGGGGGGGGG",
"GGGGGGGGGGGGGGGGGGGGGGGGGGGGGGGGGGGGGGGGGGGGGGGGGGGGGGGGGGGGGGGGGGGGGGGG",
"GGGGGGGGGGGGGGGGGGGGGGGGGGGGGGGGGGGGGGGGGGGGGGGGGGGGGGGGGGGGGGGGGGGGGGGG",
"GGGGGGGGGGGGGGGGGGGGGGGGGGGGGGGGGGGGGGGGGGGGGGGGGGGGGGGGGGGGGGGGGGGGGGGG",
"GGGGGGGGGGGGGGGGGGGGGGGGGGGGGGGGGGGGGGGGGGGGGGGGGGGGGGGGGGGGGGGGGGGGGGGG",
"GGGGGGGGGGGGGGGGGGGGGGGGGGGGGGGGGGGGGGGGGGGGGGGGGGGGGGGGGGGGGGGGGGGGGGGG",
"GGGGGGGGGGGGGGGGGGGGGGGGGGGGGGGGGGGGGGGGGGGGGGGGGGGGGGGGGGGGGGGGGGGGGGGG",
"GGGGGGGGGGGGGGGGGGGGGGGGGGGGGGGGGGGGGGGGGGGGGGGGGGGGGGGGGGGGGGGGGGGGGGGG",
"GGGGGGGGGGGGGGGGGGGGGGGGGGGGGGGGGGGGGGGGGGGGGGGGGGGGGGGGGGGGGGGGGGGGGGGG",
"GGGGGGGGGGGGGGGGGGGGGGGGGGGGGGGGGGGGGGGGGGGGGGGGGGGGGGGGGGGGGGGGGGGGGGGG",
"GGGGGGGGGGGGGGGGGGGGGGGGGGGGGGGGGGGGGGGGGGGGGGGGGGGGGGGGGGGGGGGGGGGGGGGG",
"GGGGGGGGGGGGGGGGGGGGGGGGGGGGGGGGGGGGGGGGGGGGGGGGGGGGGGGGGGGGGGGGGGGGGGGG",
"GGGGGGGGGGGGGGGGGGGGGGGGGGGGGGGGGGGGGGGGGGGGGGGGGGGGGGGGGGGGGGGGGGGGGGGG",
"GGGGGGGGGGGGGGGGGGGGGGGGGGGGGGGGGGGGGGGGGGGGGGGGGGGGGGGGGGGGGGGGGGGGGGGG",
"GGGGGGGGGGGGGGGGGGGGGGGGGGGGGGGGGGGGGGGGGGGGGGGGGGGGGGGGGGGGGGGGGGGGGGGG",
"GGGGGGGGGGGGGGGGGGGGGGGGGGGGGGGGGGGGGGGGGGGGGGGGGGGGGGGGGGGGGGGGGGGGGGGG",
"GGGGGGGGGGGGGGGGGGGGGGGGGGGGGGGGGGGGGGGGGGGGGGGGGGGGGGGGGGGGGGGGGGGGGGGG",
"GGGGGGGGGX..XXX.XXX...XX    +...XX..+.  XX..+.  ..XX    +...XXXGGGGGGGGG",
"GGGGGGGGG...XX..XX...XXXO   ....XX....  XX....O .XXXO   ....XXXGGGGGGGGG",
"GGGGGGGG....   O    .XX O      OXXX     XXX +   ..XX      XX....GGGGGGGG",
"GGGGGGGG+ .%DDDFDFFFAFFAFFDDDFFFAFFAFFDDAFFAFFDDFAFFDADDFFFF%..XGGGGGGGG",
"GGGGGGGG   8DDFFDDFFFFFFFFFFDDFFFFFFFFFFFFFFFFFFFFFFDDDDFFFF8...GGGGGGGG",
"GGGGGGGG   dFDFFDDFFFFFFFFFDDDFFFFFFFFFFFFFFFFFFFFFFDDDDFFFFp...GGGGGGGG",
"GGGGGGGGXXXzFFFFDDDDFFFFFFFFFFFFFFFFFFFFFFFFFFFFFFFFFFFFFFFFx   GGGGGGGG",
"GGGGGGGGXXXVFFFFDDDDFFFFFFFFFFFFFFFFFFFFFFFFFFFFFFFFFFFFFFFFA   XGGGGGGG",
"GGGGGGGX  =FFFFFFFDFFFFFFFFFFFFFFFFFFFFFFFFFFFFFFFFFFFFFFFFFS=  XGGGGGGG",
"GGGGGGGX X0FFFFFFFFFFFFFFFFFFFFFFFFFFFFFFFFFFFFFFFFFFFFFFFFFSw  XGGGGGGG",
"GGGGGGGX  gDDDFFFFFFFFFFFFFFFFFFFFFFFFFFFFFFFFFFFFFFFFFFDDDDDgO XGGGGGGG",
"GGGGGGGX  bDDDFDFFFFFFFFFFFFFFFFFFFFFFFFFFFFFFFFFFFFFFFFDDDDDbO XGGGGGGG",
"GGGGGGGX +SDDDDDFFFFFFFFFFFFFFFFFFFFFFFFFFFFFFFFFFFFFFFFFFDDDS+ XXGGGGGG",
"GGGGGGXX 3DDDDDDFFFFFFFFFFFFFFFFFFFFFFFFFFFFFFFFFFFFFFFFFFDDDS3OXXGGGGGG",
"GGGGGG...rFFFFFFFFFFFFFFFFFFFFFFFFFFFFFFFFFFFFFFFFFFFFFFFFFFFFr ..GGGGGG",
"GGGGGG...zFFFFFFFFFFFFFFFFFFFFFFFFFFFFFFFFFFFFFFFFFFFFFFFFFFFFl ..GGGGGG",
"GGGGGG...MFFFFFFFFFFFFFFFFFFFFFFFFFFFFFFFFFFFFFFFFFFFFFFFFFFFFNXXXGGGGGG",
"GGGGGG.X%SFFFFFFFFFFFFFFFFFFFFFFFFFFFFFFFFFFFFFFFFFFFFFFFFFFFFF*XXXGGGGG",
"GGGGGXXX7DDDFFFFFFFFFFFFFFFFFFFFFFFFFFFFFFFFFFFFFFFFFFFFFFFFFFF9  XGGGGG",
"GGGGGXXXaSDDFFFFFFFFFFFFFFFFFFFFFFFFFFFFFFFFFFFFFFFFFFFFFFFFFFFd X GGGGG",
"GGGGGXXXxDDDFFFFFFFFFFFFFFFFFFFFFFFFFFFFFFFFFFFFFFFFFFFFFFFFFFFvXXXGGGGG",
"GGGGG  XADDDFFFFFFFFFFFFFFFFFFFFFFFFFFFFFFFFFFFFFFFFFFFFFFFFFFFAXXXGGGGG",
"GGGGGXX=FFFFFFFFFFFFFFFFFFFFFFFFFFFFFFFFFFFFFFFFFFFFFFFFFFFFFFFF2XX GGGG",
"GGGGXXX9FFFFFFFFFFFFFFFFFFFFFFFFFFFFFFFFFFFFFFFFFFFFFFFFFFFFFFFFq. XGGGG",
"GGGG  XfFFFFFFFFFFFFFFFFFFFFFFFFFFFFFFFFFFFFFFFFFFFFFFFFFFFFFFFFj...GGGG",
"GGGG  XbFFFFFFFFFFFFFFFFFFFFFFFFFFFFFFFFFFFFFFFFFFFFFFFFFFFFFFFFm...GGGG",
"GGGG  +SFFFFFFFFFFFFFFFFFFFFFFFFFFFFFFFFFFFFFFFFFFFFFFFFFFFFFFFFF%..GGGG",
"GGGG  3DFFFFFFFFFFFFFFFFFFFFFFFFFFFFFFFFFFFFFFFFFFFFFFFFFFFFFFFFF6..XGGG",
"GGGX..rSFFFFFFFFFFFFFFFFFFFFFFFFFFFFFFFFFFFFFFFFFFFFFFFFFFFFFFFFFpXXXGGG",
"GGG...lDFFFFFFFFFFFFFFFFFFFFFFDDFFFFFFFFFFFFFFFFFFFFFFFFFFFFFFFFAzXXXGGG",
"GGG;;;;;;;;;;;;;;;;;;;;;;;;,DDDDFFFFFFFDDDSS,;;;;;;;;;;;;;;;;;;;;;;;;GGG",
"GGG;;;;;;;;;;;;;;;;;;;;;;;;;hDDDFFFFFFFDDDDg;;;;;;;;;;;;;;;;;;;;;;;;;GGG",
"GGG;;;;;;;;;;;;;;;;;;;;;;;;;>NFFFFFFFFDDDDN>;;;;;;;;;;;;;;;;;;;;;;;;;GGG",
"GGG;;;;;;;;;;;;;;;;;;;;;;;;;;@tiiiiiiiiiit@;;;;;;;;;;;;;;;;;;;;;;;;;;GGG",
"GGG;;;;;;;;;;;;;;;;;;;;;;;;;;;:<iiiiiiii1:;;;;;;;;;;;;;;;;;;;;;;;;;;;GGG",
"GGG;;;;;;;;;;;;;;;;;;;;;;;;;;;;;@<uitu<@;;;;;;;;;;;;;;;;;;;;;;;;;;;;;GGG",
"GGG;;;;;;;;;;;;;;;;;;;;;;;;;;;;;;;;;;;;;;;;;;;;;;;;;;;;;;;;;;;;;;;;;;GGG",
"GGG;;;;;;;;;;;;;;;;;;;;;;;;;;;;;;;;;;;;;;;;;;;;;;;;;;;;;;;;;;;;;;;;;;GGG",
"GGG;;;;;;;;;;;;;;;;;;;;;;;;;;;;;;;;;;;;;;;;;;;;;;;;;;;;;;;;;;;;;;;;;;GGG",
"GGG;;;;;;;;;;;;;;;;;;;;;;;;;;;;;;;;;;;;;;;;;;;;;;;;;;;;;;;;;;;;;;;;;;GGG",
"GGG;;;;;;;;;;;;;;;;;;;;;;;;;;;;;;;;;;;;;;;;;;;;;;;;;;;;;;;;;;;;;;;;;;GGG",
"GGG;;;;;;;;;;;;;;;;;;;;;;;;;;;;;;;;;;;;;;;;;;;;;;;;;;;;;;;;;;;;;;;;;;GGG",
"GGG;;;;;;;;;;;;;;;;;;;;;;;;;;;;;;;;;;;;;;;;;;;;;;;;;;;;;;;;;;;;;;;;;;GGG",
"GGG;;;;;;;;;;;;;;;;;;;;;;;;;;;;;;;;;;;;;;;;;;;;;;;;;;;;;;;;;;;;;;;;;;GGG",
"GGG;;;;;;;;;;;;;;;;;;;;;;;;;;;;;;;;;;;;;;;;;;;;;;;;;;;;;;;;;;;;;;;;;;GGG",
"GGG;;;;;;;;;;;;;;;;;;;;;;;;;;;;;;;;;;;;;;;;;;;;;;;;;;;;;;;;;;;;;;;;;;GGG",
"GGG;;;;;;;;;;;;;;;;;;;;;;;;;;;;;;;;;;;;;;;;;;;;;;;;;;;;;;;;;;;;;;;;;;GGG",
"GGG;;;;;;;;;;;;;;;;;;;;;;;;;;;;;;;;;;;;;;;;;;;;;;;;;;;;;;;;;;;;;;;;;;GGG",
"GGG;;;;;;;;;;;;;;;;;;;;;;;;;;;;;;;;;;;;;;;;;;;;;;;;;;;;;;;;;;;;;;;;;;GGG",
"GGG;;;;;;;;;;;;;;;;;;;;;;;;;;;;;;;;;;;;;;;;;;;;;;;;;;;;;;;;;;;;;;;;;;GGG",
"GGG;;;;;;;;;;;;;;;;;;;;;;;;;;;;;;;;;;;;;;;;;;;;;;;;;;;;;;;;;;;;;;;;;;GGG",
"GGGXXXXX.......X....................................................XGGG",
"GGGX..X.......XX..................................................X.XGGG",
"GGG...........XX..................................................XXXGGG"
};
