/* XPM */
static const char *bubble[] = {
/* columns rows colors chars-per-pixel */
"72 72 55 1 ",
"  c #27AE60",
". c #27AF60",
"X c #27AF61",
"o c #28AE61",
"O c #27B061",
"+ c #28B161",
"@ c #28B162",
"# c #29B163",
"$ c #28B262",
"% c #28B463",
"& c #29B564",
"* c #29B664",
"= c #29B665",
"- c #29B765",
"; c #29B866",
": c #29B966",
"> c #2AB966",
", c #2ABA67",
"< c #2ABB67",
"1 c #2ABC68",
"2 c #2BBD69",
"3 c #2BBE69",
"4 c #3BB46F",
"5 c #2BC06A",
"6 c #2BC16B",
"7 c #2CC16B",
"8 c #2CC26B",
"9 c #2CC36C",
"0 c #2CC46C",
"q c #2CC46D",
"w c #2CC56D",
"e c #2DC66E",
"r c #2DC76E",
"t c #2DC86F",
"y c #2DC96F",
"u c #2DCA70",
"i c #2ECA70",
"p c #2ECB70",
"a c #2ECB71",
"s c #2ECC71",
"d c #2FCC72",
"f c #41CF7E",
"g c #75C899",
"h c #75CA9A",
"j c #79DAA3",
"k c #B2DCC6",
"l c #B2DFC7",
"z c #B4E5CB",
"x c #BBE0CD",
"c c #BDE7D1",
"v c #D9E9E2",
"b c #D9EBE3",
"n c #DAECE4",
"m c #ECF0F1",
"M c None",
/* pixels */
"MMMMMMMMMMMMMMMMMMMMMMMMMMMMMMMMMMMMMMMMMMMMMMMMMMMMMMMMMMMMMMMMMMMMMMMM",
"MMMMMMMMMMMMMMMMMMMMMMMMMMMMMMMMMMMMMMMMMMMMMMMMMMMMMMMMMMMMMMMMMMMMMMMM",
"MMMMMMMMMMMMMMMMMMMMMMMMMMMMMMMMMMMMMMMMMMMMMMMMMMMMMMMMMMMMMMMMMMMMMMMM",
"MMMMMMMMMMMMMMMMMMMMMMMMMMMMMMMMMMMMMMMMMMMMMMMMMMMMMMMMMMMMMMMMMMMMMMMM",
"MMMMMMMMMMMMMMMMMMMMMMMMMMMMMMMMMMMMMMMMMMMMMMMMMMMMMMMMMMMMMMMMMMMMMMMM",
"MMMMMMMMMMMMMMMMMMMMMMMMMMMMMMMMMMMMMMMMMMMMMMMMMMMMMMMMMMMMMMMMMMMMMMMM",
"MMMMMMMMMMMMsssssssssssssssssssssssssssssssssssssssssssssssMMMMMMMMMMMMM",
"MMMMMMMMMsssssssssssssssssssssssssssssssssssssssssssssssssssssMMMMMMMMMM",
"MMMMMMMMssssssssssssssssssssssssssssssssssssssssssssssssssssssssMMMMMMMM",
"MMMMMMsssssssssssssssssssssssssssssssssssssssssssssssssssssssssssMMMMMMM",
"MMMMMMssssssssssssssssssssssssssssssssssssssssssssssssssssssssssssMMMMMM",
"MMMMMssssssssssssssssssssssssssssssssssssssssssssssssssssssssssssssMMMMM",
"MMMMsssssssssssssssssssssssssssssssssssssssssssssssssssssssssssssssMMMMM",
"MMMMssssssssssssssssssssssssssssssssssssssssssssssssssssssssssssssssMMMM",
"MMMMssssssssssssssssssssssssssssssssssssssssssssssssssssssssssssssssMMMM",
"MMMsssssssssssssssssssssssssssssssssssssssssssssssssssssssssssssssssMMMM",
"MMMssssssssssssssssssssssssssssssssssssssssssssssssssssssssssssssssssMMM",
"MMMssssssssssssssssssssssssssssssssssssssssssssssssssssssssssssssssssMMM",
"MMMssssssssssssssssssssssssssssssssssssssssssssssssssssssssssssssssseMMM",
"MMMssssssssssssssssssssssssssssssssssssssssssssssssssssssssssssssssssMMM",
"MMMssssssssssssssssssssssssssssssssssssssssssssssssssssssssssssssssssMMM",
"MMMsssssssssssssssssssssssssssssssssssssssssssssssssssssssssssssssss8MMM",
"MMMssssssssssssssssssssssssssssssssssssssssssssssssssssssssssssssssseMMM",
"MMMssssssssssssssssssssssssssssssssssssssssssssssssssssssssssssssssseMMM",
"MMMssssssssssssjznnzjdsssssssssssjznnzjdsssssssssssjznnzjdsssssssssseMMM",
"MMMssssssssssfcmmmmmmcfssssssssfcmmmmmmcfssssssssfcmmmmmmcfssssssssseMMM",
"MMMsssssssssscmmmmmmmmcsssssssscmmmmmmmmcsssssssdcmmmmmmmmcdsssssssseMMM",
"MMMsssssssssjmmmmmmmmmmjssssssjmmmmmmmmmmjssssssjmmmmmmmmmmjsssssssseMMM",
"MMMssssssssszmmmmmmmmmmzsssssszmmmmmmmmmmzsssssszmmmmmmmmmmzsssssssseMMM",
"MMMsssssssssnmmmmmmmmmmnssssssnmmmmmmmmmmnssssssnmmmmmmmmmmnsssssssseMMM",
"MMMsssssssssnmmmmmmmmmmnssssssnmmmmmmmmmmnssssssnmmmmmmmmmmnsssssssseMMM",
"MMMssssssssslmmmmmmmmmmlsssssslmmmmmmmmmmlsssssslmmmmmmmmmmlsssssssseMMM",
"MMMsssssssssgmmmmmmmmmmhssssddhmmmmmmmmmmhsssssshmmmmmmmmmmhddddssss8MMM",
"MMMsssssssssocmmmmmmmmx#ssssdd#lmmmmmmmmxOssssss#xmmmmmmmmxoddsdsssseMMM",
"MMMsssssssss#4lmmmmmmx4#ssssss>4lmmmmmmx4>ssssss#4xmmmmmml4=sssssssseMMM",
"MMMsssssssdd8# hlvnlhO.8ssssss8OoglvvlgoO8ssssss8  hlvvlg o3sssssssseMMM",
"MMMssssssssss#OO....  #ssssssssO....oooo#ssssssss#OO    .##sssssssss8MMM",
"MMMsssssssssss#O..  o#ssssssssss#...ooo#ysssssssssO.    .#sssssssssssMMM",
"MMMssssssssssss8# .#8ssssssssssss3>###3dsssssssssss8>OO>8yssssssssss8MMM",
"MMMssssssssssssssssssssssssssssssssssssssssssssssssssssssssssssssssssMMM",
"MMMsssssssssssssssssssssssssssssssssssssssssssssssssssssssssssssssss8MMM",
"MMMsssssssssssssssssssssssssssssssssssssssssssssssssssssssssssssssssyMMM",
"MMMsssssssssssssssssssssssssssssssssssssssssssssssssssssssssssssssss8MMM",
"MMMyssssssssssssssssssssssssssssssssssssssssssssssssssssssssssssssss3MMM",
"MMM8ssssssssssssssssssssssssssssssssssssssssssssssssssssssssssssssss#MMM",
"MMM3ssssssssssssssssssssssssssssssssssssssssssssssssssssssssssssssss#MMM",
"MMM>sssssssssssssssssssssssssssssssssssssssssssssssssssssssssssssssyOMMM",
"MMMM8ssssssssssssssssssssssssssssssssssssssssssssssssssssssssssssss>MMMM",
"MMMMOsssssssssssssssssssssssssssssssssssssssssssssssssssssssssssss8.MMMM",
"MMMM >ssssssssssssssssssssssssssssssssssssssssssssssssssssssssssssOOMMMM",
"MMMM  8sssssssssssssssssssssssssssssssssssssssssssssssssssssssssy# MMMMM",
"MMMMM O#sssssssssssssssssssssssssssssssssssssssssssssssssssssss3#  MMMMM",
"MMMMMM  O8ssssssssssssssssssssssssssssssssssssssssssssssssssss>   MMMMMM",
"MMMMMMMo OO>38sssssssssssssssssssssssssssssssssssssssssese83##   MMMMMMM",
"MMMMMMMM       8ssssssssssssssss3               .......         MMMMMMMM",
"MMMMMMMMM      8ssssssssssssssy#                .......       MMMMMMMMMM",
"MMMMMMMMMMMMM  8sssssssssssssy#                            MMMMMMMMMMMMM",
"MMMMMMMMMMMMMMMsssssssssssss8 .  MMMMMMMMMMMMMMMMMMMMMMMMMMMMMMMMMMMMMMM",
"MMMMMMMMMMMMMMM8sssssssssss3   MMMMMMMMMMMMMMMMMMMMMMMMMMMMMMMMMMMMMMMMM",
"MMMMMMMMMMMMMMMsssssssssss>   MMMMMMMMMMMMMMMMMMMMMMMMMMMMMMMMMMMMMMMMMM",
"MMMMMMMMMMMMMMM8ssssssss8#OO MMMMMMMMMMMMMMMMMMMMMMMMMMMMMMMMMMMMMMMMMMM",
"MMMMMMMMMMMMMMMssssssss8OO  MMMMMMMMMMMMMMMMMMMMMMMMMMMMMMMMMMMMMMMMMMMM",
"MMMMMMMMMMMMMMM8ssssss8.  MMMMMMMMMMMMMMMMMMMMMMMMMMMMMMMMMMMMMMMMMMMMMM",
"MMMMMMMMMMMMMMMssssss3   MMMMMMMMMMMMMMMMMMMMMMMMMMMMMMMMMMMMMMMMMMMMMMM",
"MMMMMMMMMMMMMMM8ssss#OO MMMMMMMMMMMMMMMMMMMMMMMMMMMMMMMMMMMMMMMMMMMMMMMM",
"MMMMMMMMMMMMMMMyssy#  OMMMMMMMMMMMMMMMMMMMMMMMMMMMMMMMMMMMMMMMMMMMMMMMMM",
"MMMMMMMMMMMMMMMys8O   MMMMMMMMMMMMMMMMMMMMMMMMMMMMMMMMMMMMMMMMMMMMMMMMMM",
"MMMMMMMMMMMMMMMy3   MMMMMMMMMMMMMMMMMMMMMMMMMMMMMMMMMMMMMMMMMMMMMMMMMMMM",
"MMMMMMMMMMMMMMM#   MMMMMMMMMMMMMMMMMMMMMMMMMMMMMMMMMMMMMMMMMMMMMMMMMMMMM",
"MMMMMMMMMMMMMMM   MMMMMMMMMMMMMMMMMMMMMMMMMMMMMMMMMMMMMMMMMMMMMMMMMMMMMM",
"MMMMMMMMMMMMMMM  MMMMMMMMMMMMMMMMMMMMMMMMMMMMMMMMMMMMMMMMMMMMMMMMMMMMMMM",
"MMMMMMMMMMMMMMMMMMMMMMMMMMMMMMMMMMMMMMMMMMMMMMMMMMMMMMMMMMMMMMMMMMMMMMMM"
};
