/* XPM */
static char *calendar[] = {
/* columns rows colors chars-per-pixel */
"72 72 31 1 ",
"  c #BF3B2D",
". c #C0392B",
"X c #C23A2C",
"o c #C43B2D",
"O c #C53C2D",
"+ c #CE4031",
"@ c #D64434",
"# c #DC4737",
"$ c #DE4838",
"% c #E24A3A",
"& c #E64B3B",
"* c #E74C3C",
"= c #B0625A",
"- c #E75B4C",
"; c #E86D60",
": c #E97165",
"> c #9E8F8D",
", c #95A5A6",
"< c #AEB8BB",
"1 c #E98980",
"2 c #B7BEC1",
"3 c #BCC3C6",
"4 c #BDC3C7",
"5 c #BEC3C7",
"6 c #C2C8CB",
"7 c #D0D5D8",
"8 c #DEE3E4",
"9 c #E0E5E6",
"0 c #E7ECED",
"q c #ECF0F1",
"w c None",
/* pixels */
"wwwwwwwwwwwwwwwwwwwwwwwwwwwwwwwwwwwwwwwwwwwwwwwwwwwwwwwwwwwwwwwwwwwwwwww",
"wwwwwwwwwwwwwwwwwwwwwwwwwwwwwwwwwwwwwwwwwwwwwwwwwwwwwwwwwwwwwwwwwwwwwwww",
"wwwwwwwwwwwwwwwwwwwwwwwwwwwwwwwwwwwwwwwwwwwwwwwwwwwwwwwwwwwwwwwwwwwwwwww",
"wwwwwwwwwwwwwwww<22<wwwwwwwwwwwwwwwwwwwwwwwwwwwwwwww<22<wwwwwwwwwwwwwwww",
"wwwwwwwwwwwwwww<4444<wwwwwwwwwwwwwwwwwwwwwwwwwwwwww<6665<wwwwwwwwwwwwwww",
"wwwwwwwwwwwwwww244442wwwwwwwwwwwwwwwwwwwwwwwwwwwwww<55252wwwwwwwwwwwwwww",
"wwwwwwwwwwwwwww444446wwwwwwwwwwwwwwwwwwwwwwwwwwwwww622664wwwwwwwwwwwwwww",
"wwwwwwwwwwwwwww444446wwwwwwwwwwwwwwwwwwwwwwwwwwwwww665524wwwwwwwwwwwwwww",
"wwwwwwwwwwwwwww426552wwwwwwwwwwwwwwwwwwwwwwwwwwwwww444444wwwwwwwwwwwwwww",
"wwwwwwwwwwww1:-456266&&&********&&&&***************444444-:1wwwwwwwwwwww",
"wwwwwwwwwww;***452556&&&********&&&&***************444444&&&;wwwwwwwwwww",
"wwwwwwwwww;****455552&-&********&&-&***************444444&&&&:wwwwwwwwww",
"wwwwwwwww1*****,,,,,,&**********&&*****************,,,,,,*&&&&1wwwwwwwww",
"wwwwwwwww:****$,,,,,,&****************************$,,,,,,*&&&&:wwwwwwwww",
"wwwwwwwww-****O,,,,,,O****************************O,,,,,,O&&**-wwwwwwwww",
"wwwwwwwww****#O>,,,,>o&**************************#O>,,,,> *****wwwwwwwww",
"wwwwwwwww****@.=,,,,=.@**************************@ =,,,,=.O****wwwwwwwww",
"wwwwwwwww****#  =>>= .#**************************#  =>>=..%&***wwwwwwwww",
"wwwwwwwww*****O .....O**************************&*O ..oo.o&&***wwwwwwwww",
"wwwwwwwww*****#O.....#**************************&&#...oOo%&&***wwwwwwwww",
"wwwwwwwww*******OOOO%&&&************************&&&&OOOO&******wwwwwwwww",
"wwwwwwwww***********&&&&************************&&&-***********wwwwwwwww",
"wwwwwwwww***********&&&&************************&&&&***********wwwwwwwww",
"wwwwwwwww***********&-&&************************&&&&***********wwwwwwwww",
"wwwwwwwww******************************************************wwwwwwwww",
"wwwwwwwww******************************************************wwwwwwwww",
"wwwwwwwww******************************************************wwwwwwwww",
"wwwwwwwwwqqqqqqqqqqqqqqqqqqqqqqqqqqqqqqqqqqqqqqqqqqqqqqqqqqqqqqwwwwwwwww",
"wwwwwwwwwqqqqqqqqqqqqqqqqqqqqqqqqqqqqqqqqqqqqqqqqqqqqqqqqqqqqqqwwwwwwwww",
"wwwwwwwwwqqqqqqqqqqqqqqqqqqqqqqqqqqqqqqqqqqqqqqqqqqqqqqqqqqqqqqwwwwwwwww",
"wwwwwwwwwqqqqqqqqqqqqqqqqqqqqqqqqqqqqqqqqqqqqqqqqqqqqqqqqqqqqqqwwwwwwwww",
"wwwwwwwwwqqqqqqqqqqqqqqqqqqqqqqqqqqqqqqqqqqqqqqqqqqqqqqqqqqqqqqwwwwwwwww",
"wwwwwwwwwqqqqqqqqqqqqqqqqqqqqqqqqqqqqqqqqqqqqqqqqqqqqqqqqqqqqqqwwwwwwwww",
"wwwwwwwwwqqqqqq544444qqq444444qqq625652qqq555562qqq526555qqqqqqwwwwwwwww",
"wwwwwwwwwqqqqqq544444qqq444444qqq556566qqq565655qqq262255qqqqqqwwwwwwwww",
"wwwwwwwwwqqqqqq544444qqq444444qqq652225qqq225226qqq626662qqqqqqwwwwwwwww",
"wwwwwwwwwqqqqqq544444qqq444444qqq556665qqq556662qqq555526qqqqqqwwwwwwwww",
"wwwwwwwwwqqqqqq544444qqq444444qqq622522qqq262255qqq255626qqqqqqwwwwwwwww",
"wwwwwwwwwqqqqqq544444qqq444444qqq265256qqq556226qqq552652qqqqqqwwwwwwwww",
"wwwwwwwwwqqqqqqqqqqqqqqqqqqqqqqqqqqqqqqqqqqqqqqqqqqqqqqqqqqqqqqwwwwwwwww",
"wwwwwwwwwqqqqqqqqqqqqqqqqqqqqqqqqqqqqqqqqqqqqqqqqqqqqqqqqqqqqqqwwwwwwwww",
"wwwwwwwwwqqqqqqqqqqqqqqqqqqqqqqqqqqqqqqqqqqqqqqqqqqqqqqqqqqqqqqwwwwwwwww",
"wwwwwwwwwqqqqqq544444qqq444444qqq265526qqq652626qqq444446qqqqqqwwwwwwwww",
"wwwwwwwwwqqqqqq544444qqq444444qqq562625qqq626262qqq444442qqqqqqwwwwwwwww",
"wwwwwwwwwqqqqqq444444qqq444444qqq652652qqq526566qqq444446qqqqqqwwwwwwwww",
"wwwwwwwwwqqqqqq444444qqq444444qqq562625qqq626226qqq455445qqqqqqwwwwwwwww",
"wwwwwwwwwqqqqqq444444qqq444444qqq655552qqq556262qqq455555qqqqqqwwwwwwwww",
"wwwwwwwwwqqqqqq444444qqq444444qqq226266qqq262626qqq455555qqqqqqwwwwwwwww",
"wwwwwwwwwqqqqqqqqqqqqqqqqqqqqqqqqqqqqqqqqqqqqqqqqqqqqqqqqqqqqqqwwwwwwwww",
"wwwwwwwwwqqqqqqqqqqqqqqqqqqqqqqqqqqqqqqqqqqqqqqqqqqqqqqqqqqqqqqwwwwwwwww",
"wwwwwwwwwqqqqqqqqqqqqqqqqqqqqqqqqqqqqqqqqqqqqqqqqqqqqqqqqqqqqqqwwwwwwwww",
"wwwwwwwwwqqqqqq544444qqq444444qqq444444qqq444444qqq444444qqqqqqwwwwwwwww",
"wwwwwwwwwqqqqqq544444qqq444444qqq444444qqq444444qqq444445qqqqqqwwwwwwwww",
"wwwwwwwwwqqqqqq544444qqq444444qqq444444qqq444444qqq444445qqqqqqwwwwwwwww",
"wwwwwwwwwqqqqqq544444qqq444444qqq444444qqq444444qqq444445qqqqqqwwwwwwwww",
"wwwwwwwwwqqqqqq544444qqq444444qqq444444qqq444444qqq444445qqqqqqwwwwwwwww",
"wwwwwwwwwqqqqqq544444qqq444444qqq444444qqq444444qqq444445qqqqqqwwwwwwwww",
"wwwwwwwww0qqqqqqqqqqqqqqqqqqqqqqqqqqqqqqqqqqqqqqqqqqqqqqqqqqqqqwwwwwwwww",
"wwwwwwwww8qqqqqqqqqqqqqqqqqqqqqqqqqqqqqqqqqqqqqqqqqqqqqqqqqqqq8wwwwwwwww",
"wwwwwwwww7qqqqqqqqqqqqqqqqqqqqqqqqqqqqqqqqqqqqqqqqqqqqqqqqqqqq7wwwwwwwww",
"wwwwwwwww59qqqqqqqqqqqqqqqqqqqqqqqqqqqqqqqqqqqqqqqqqqqqqqqqqq95wwwwwwwww",
"wwwwwwwww558qqqqqqqqqqqqqqqqqqqqqqqqqqqqqqqqqqqqqqqqqqqqqqqq965wwwwwwwww",
"wwwwwwwwww55780qqqqqqqqqqqqqqqqqqqqqqqqqqqqqqqqqqqqqqqqqq08755wwwwwwwwww",
"wwwwwwwwww5555554444444444444444444444444444444444445555555555wwwwwwwwww",
"wwwwwwwwwww55555555555555555555555555555555555555555555555555wwwwwwwwwww",
"wwwwwwwwwwwww5555544555545555545555545555545555545555545555wwwwwwwwwwwww",
"wwwwwwwwwwwwwwwwwwwwwwwwwwwwwwwwwwwwwwwwwwwwwwwwwwwwwwwwwwwwwwwwwwwwwwww",
"wwwwwwwwwwwwwwwwwwwwwwwwwwwwwwwwwwwwwwwwwwwwwwwwwwwwwwwwwwwwwwwwwwwwwwww",
"wwwwwwwwwwwwwwwwwwwwwwwwwwwwwwwwwwwwwwwwwwwwwwwwwwwwwwwwwwwwwwwwwwwwwwww",
"wwwwwwwwwwwwwwwwwwwwwwwwwwwwwwwwwwwwwwwwwwwwwwwwwwwwwwwwwwwwwwwwwwwwwwww",
"wwwwwwwwwwwwwwwwwwwwwwwwwwwwwwwwwwwwwwwwwwwwwwwwwwwwwwwwwwwwwwwwwwwwwwww",
"wwwwwwwwwwwwwwwwwwwwwwwwwwwwwwwwwwwwwwwwwwwwwwwwwwwwwwwwwwwwwwwwwwwwwwww"
};
