/* XPM */
static const char *cat[] = {
/* columns rows colors chars-per-pixel */
"72 72 156 2 ",
"   c #2C3E50",
".  c #304253",
"X  c #3F5060",
"o  c #5C6A78",
"O  c #C0392B",
"+  c #C03A2B",
"@  c #C4462D",
"#  c #CC5D27",
"$  c #D66126",
"%  c #DF7123",
"&  c #E67E21",
"*  c #E67F21",
"=  c #E77F21",
"-  c #E67D22",
";  c #E67E22",
":  c #E67F22",
">  c #E67E23",
",  c #DD8A1B",
"<  c #DE8E1A",
"1  c #E8831F",
"2  c #EB8B1B",
"3  c #ED8E19",
"4  c #EC8D1A",
"5  c #EC8C1B",
"6  c #E88A1F",
"7  c #E88B1F",
"8  c #E88F1D",
"9  c #E98F1E",
"0  c #EE9117",
"q  c #EF9317",
"w  c #EB931B",
"e  c #EE9118",
"r  c #E8901D",
"t  c #E9901D",
"y  c #EA931D",
"u  c #E9961C",
"i  c #EA981A",
"p  c #EB991B",
"a  c #EA9B1A",
"s  c #EA9A1B",
"d  c #EB9F19",
"f  c #EB9C1A",
"g  c #F19615",
"h  c #F09715",
"j  c #F19715",
"k  c #F29A12",
"l  c #F39B12",
"z  c #F39B13",
"x  c #F39C11",
"c  c #F29C12",
"v  c #F39C12",
"b  c #F39D12",
"n  c #F39C13",
"m  c #F29E12",
"M  c #F39E12",
"N  c #F49C12",
"B  c #F49D12",
"V  c #F29815",
"C  c #F1BD0F",
"Z  c #F2BD0F",
"A  c #F1BF0F",
"S  c #F2BF0F",
"D  c #EEA316",
"F  c #EDAA16",
"G  c #EDAF14",
"H  c #EDAC16",
"J  c #EBA018",
"K  c #EBA118",
"L  c #ECA219",
"P  c #ECA518",
"I  c #F3A011",
"U  c #F3A111",
"Y  c #F3A211",
"T  c #F2A311",
"R  c #F3A311",
"E  c #F3A112",
"W  c #F2A312",
"Q  c #F3A312",
"!  c #F2A711",
"~  c #F2A412",
"^  c #F0A613",
"/  c #F2AA11",
"(  c #F3AB11",
")  c #F2AD10",
"_  c #F2AC11",
"`  c #F2AD11",
"'  c #F2AF10",
"]  c #F3AE11",
"[  c #EFB613",
"{  c #EEB114",
"}  c #EEB015",
"|  c #EFB314",
" . c #EEB414",
".. c #EFB812",
"X. c #EFB912",
"o. c #EFB913",
"O. c #EFBA12",
"+. c #F2B010",
"@. c #F2B011",
"#. c #F2B111",
"$. c #F2B310",
"%. c #F2B311",
"&. c #F2B410",
"*. c #F1B710",
"=. c #F2B610",
"-. c #F2B710",
";. c #F1B810",
":. c #F2B910",
">. c #F1BB10",
",. c #F0BB11",
"<. c #F2BA10",
"1. c #F0BB12",
"2. c #F1BD10",
"3. c #F0BD11",
"4. c #F1BE10",
"5. c #F1BF10",
"6. c #F0BE11",
"7. c #E78120",
"8. c #E68021",
"9. c #E78021",
"0. c #E78220",
"q. c #E68221",
"w. c #E68321",
"e. c #E78321",
"r. c #E78620",
"t. c #E88521",
"y. c #E88620",
"u. c #F1C00F",
"i. c #F0C10F",
"p. c #F1C10F",
"a. c #F1C20F",
"s. c #F1C30F",
"d. c #F2C20F",
"f. c #F1C40F",
"g. c #F0C210",
"h. c #F1C210",
"j. c #F1C61C",
"k. c #F0CE42",
"l. c #F0CF44",
"z. c #EFDA7D",
"x. c #657480",
"c. c #75818E",
"v. c #99A3AB",
"b. c #A0AAB2",
"n. c #A2ACB4",
"m. c #DEB2A0",
"M. c #EEE09B",
"N. c #EEE3AC",
"B. c #C5CCD0",
"V. c #C9CFD4",
"C. c #EDECD9",
"Z. c #EDECDA",
"A. c #D8DEE0",
"S. c #EBEFF0",
"D. c #ECF0F1",
"F. c None",
/* pixels */
"F.F.F.F.F.F.F.F.F.F.F.F.F.F.F.F.F.F.F.F.F.F.F.F.F.F.F.F.F.F.F.F.F.F.F.F.F.F.F.F.F.F.F.F.F.F.F.F.F.F.F.F.F.F.F.F.F.F.F.F.F.F.F.F.F.F.F.F.F.F.F.F.",
"F.F.F.F.F.F.F.F.F.F.F.F.F.F.F.F.F.F.F.F.F.F.F.F.F.F.F.F.F.F.F.F.F.F.F.F.F.F.F.F.F.F.F.F.F.F.F.F.F.F.F.F.F.F.F.F.F.F.F.F.F.F.F.F.F.F.F.F.F.F.F.F.",
"F.F.F.F.F.F.F.F.F.F.F.F.F.F.F.F.F.F.F.F.F.F.F.F.F.F.F.F.F.F.F.F.F.F.F.F.F.F.F.F.F.F.F.F.F.F.F.F.F.F.F.F.F.F.F.F.F.F.F.F.F.F.F.F.F.F.F.F.F.F.F.F.",
"F.F.F.F.F.F.F.F.F.F.F.F.F.F.F.F.F.F.F.F.F.F.F.F.F.F.F.F.F.F.F.F.F.F.F.F.F.F.F.F.F.F.F.F.F.F.F.F.F.F.F.F.F.F.F.F.F.F.F.F.F.F.F.F.F.F.F.F.F.F.F.F.",
"F.F.F.F.F.F.F.F.F.F.F.F.F.F.F.F.F.F.F.F.F.F.F.F.F.F.F.F.F.F.F.F.F.F.F.F.F.F.F.F.F.F.F.F.F.F.F.F.F.F.F.F.F.F.F.F.F.F.F.F.F.F.F.F.F.F.F.F.F.F.F.F.",
"F.F.F.F.F.F.F.F.F.F.F.F.F.F.F.F.F.F.F.F.F.F.F.F.F.F.F.F.F.F.F.F.F.F.F.F.F.F.F.F.F.F.F.F.F.F.F.F.F.F.F.F.F.F.F.F.F.F.F.F.F.F.F.F.F.F.F.F.F.F.F.F.",
"F.F.F.v F.F.F.F.F.F.F.F.F.F.F.F.F.F.F.F.F.F.F.F.F.F.F.F.F.F.F.F.F.F.F.F.F.F.F.F.F.F.F.F.F.F.F.F.F.F.F.F.F.F.F.F.F.F.F.F.F.F.F.F.F.F.F.F.v F.F.F.",
"F.F.F.v v v v v F.F.F.F.F.F.F.F.F.F.F.F.F.F.F.F.F.F.F.F.F.F.F.F.F.F.F.F.F.F.F.F.F.F.F.F.F.F.F.F.F.F.F.F.F.F.F.F.F.F.F.F.F.F.F.F.F.v v v v F.F.F.",
"F.F.F.F.v v v v v v v F.F.F.F.F.F.F.F.F.F.F.F.F.F.F.F.F.F.F.F.F.F.F.F.F.F.F.F.F.F.F.F.F.F.F.F.F.F.F.F.F.F.F.F.F.F.F.F.F.F.F.v v v v v v F.F.F.F.",
"F.F.F.F.v v v v v v v v v v F.F.F.F.F.F.F.F.F.F.F.F.F.F.F.F.F.F.F.F.F.F.F.F.F.F.F.F.F.F.F.F.F.F.F.F.F.F.F.F.F.F.F.F.F.v v v v v v v v v F.F.F.F.",
"F.F.F.F.v v v v v v v v v v v v v F.F.F.F.F.F.F.F.F.F.F.F.F.F.F.F.F.F.F.F.F.F.F.F.F.F.F.F.F.F.F.F.F.F.F.F.F.F.F.v v v v v v v v v v v v F.F.F.F.",
"F.F.F.F.v v v v v v v v v v v v v v v v F.F.F.F.F.F.F.F.F.F.F.F.F.F.F.F.F.F.F.F.F.F.F.F.F.F.F.F.F.F.F.F.F.v v v v v v v v v v v v v v v F.F.F.F.",
"F.F.F.F.v v v v v Z @.Y v v v v v v v v v v v F.F.F.F.F.F.F.F.v v v v v v v v v v F.F.F.F.F.F.F.F.F.v v v v v v v v v v Y @.Z v v v v v F.F.F.F.",
"F.F.F.F.F.v v v v =.f.f.4.@.Y v v v v v v v v v v v v v v v v v v v v v v v v v v v v v v v v v v v v v v v v v v Y @.Z h.h.4.v v v v F.F.F.F.F.",
"F.F.F.F.F.v v v v / f.f.f.f.f.4.@.Y v v v v v v v v v v v v v v v v v v v v v v v v v v v v v v v v v v v v Y @.Z f.f.f.f.f./ v v v v F.F.F.F.F.",
"F.F.F.F.F.v v v v Y f.f.f.f.f.f.h.h.h./ Y v v v v v v v Y Y / =.4.4.4.f.f.Z 4.@.@.@.Y v v v v v v v v Y @.Z f.f.f.f.f.f.f.f.Y v v v v F.F.F.F.F.",
"F.F.F.F.F.v v v v v f.f.f.f.f.f.f.f.f.f.f.4./ Y v Y / @.f.f.f.f.f.f.f.f.f.f.f.f.f.f.f.Z 4./ Y v Y @.Z f.f.f.f.f.f.f.f.f.f.f.v v v v v F.F.F.F.F.",
"F.F.F.F.F.F.v v v v Z f.f.f.f.f.f.f.f.f.f.f.f.f.h.f.f.f.f.f.f.f.f.f.f.f.f.f.f.f.f.f.f.f.f.f.f.f.f.f.f.f.f.f.f.f.f.f.f.f.f.4.v v v v F.F.F.F.F.F.",
"F.F.F.F.F.F.v v v v / f.f.f.f.f.f.f.f.f.f.f.f.f.f.f.f.f.f.f.f.f.f.f.f.f.f.f.f.f.f.f.f.f.f.f.f.f.f.f.f.f.f.f.f.f.f.f.f.f.f.@.v v v v F.F.F.F.F.F.",
"F.F.F.F.F.F.v v v v / f.f.f.f.f.f.f.f.f.f.f.f.f.f.f.f.f.f.f.f.f.f.f.f.f.f.f.f.f.f.f.f.f.f.f.f.f.f.f.f.f.f.f.f.f.f.f.f.f.f.Y v v v v F.F.F.F.F.F.",
"F.F.F.F.F.F.v v v v v f.f.f.f.f.f.f.f.f.f.f.f.f.f.f.f.f.f.f.f.f.f.f.f.f.f.f.f.f.f.f.f.f.f.f.f.f.f.f.f.f.f.f.f.f.f.f.f.f.f.v v v v v F.F.F.F.F.F.",
"F.F.F.F.F.F.F.v v v v Z f.f.f.f.f.f.f.f.f.f.f.f.f.f.f.f.f.f.f.f.f.f.f.f.f.f.f.f.f.f.f.f.f.f.f.f.f.f.f.f.f.f.f.f.f.f.f.f.Z v v v v F.F.F.F.F.F.F.",
"F.F.F.F.F.F.F.v v v v =.f.f.f.f.f.f.f.f.f.f.f.f.f.f.f.f.f.f.f.f.f.f.f.f.f.f.f.f.f.f.f.f.f.f.f.f.f.f.f.f.f.f.f.f.f.f.f.f.@.v v v v F.F.F.F.F.F.F.",
"F.F.F.F.F.F.F.v v v v / f.f.f.f.f.f.f.f.f.f.f.f.f.f.f.f.f.f.f.f.f.f.f.f.f.f.f.f.f.f.f.f.f.f.f.f.f.f.f.f.f.f.f.f.f.f.f.f./ v v v v F.F.F.F.F.F.F.",
"F.F.F.F.F.F.F.v v v v Y f.f.f.f.f.f.f.f.k.z.N.C.C.N.z.k.f.f.f.f.f.f.f.f.f.f.f.f.f.f.f.f.l.z.N.C.C.N.z.l.f.f.h.h.f.f.f.f.Y v v v v F.F.F.F.F.F.F.",
"F.F.F.F.F.F.F.v v v v v f.f.f.f.f.f.j.M.D.D.D.D.D.D.D.D.M.j.f.f.f.f.f.f.f.f.f.f.f.f.j.M.D.D.D.D.D.D.D.D.M.j.f.h.f.f.f.Z v v v v v F.F.F.F.F.F.F.",
"F.F.F.F.F.F.F.F.v v v v @.f.f.f.h.k.C.S.D.D.D.D.D.D.D.D.D.C.l.h.f.f.f.f.f.f.f.f.f.l.C.D.D.D.D.D.D.D.D.D.D.C.k.h.f.f.f.4.v v v v F.F.F.F.F.F.F.F.",
"F.F.F.F.F.F.F.F.v v v v 4.f.f.f.j.C.D.D.S.n.v.V.V.v.n.S.D.D.C.j.f.f.f.f.f.f.f.f.j.C.D.D.D.n.v.V.V.v.n.D.D.D.C.j.f.f.f.Z v v v v F.F.F.F.F.F.F.F.",
"F.F.F.F.F.F.F.F.v v v Y f.f.f.f.M.D.D.A.o c.D.D.D.D.c.o A.D.D.M.f.f.f.f.f.f.f.f.M.D.D.A.o c.D.D.D.D.c.o A.S.S.M.f.f.f.f.Y v v v F.F.F.F.F.F.F.F.",
"F.F.F.F.F.F.F.F.v v v 4.f.f.f.k.D.D.D.o   B.D.D.D.D.B.  o S.D.D.k.f.f.f.f.f.f.k.D.D.D.o   B.D.D.D.D.B.. o S.D.D.k.f.f.f.4.v v v F.F.F.F.F.F.F.F.",
"F.F.F.F.F.F.F.F.v v Y f.f.f.f.z.D.D.n.    B.D.D.D.D.B.    n.S.D.z.f.f.f.f.f.f.z.D.D.v.    B.D.D.D.D.B.    n.D.S.z.f.f.f.f.Y v v F.F.F.F.F.F.F.F.",
"F.F.F.F.F.F.F.v v v / f.f.f.f.N.D.D.x.    c.D.D.D.D.c.    x.S.D.N.f.f.f.f.f.f.N.D.D.x.    c.D.D.D.D.c.    x.D.S.N.f.f.f.f./ v v v F.F.F.F.F.F.F.",
"F.F.F.F.F.F.F.v v v 4.f.f.f.h.C.D.D.. .   . c.B.B.c..     X D.D.C.h.f.f.f.f.f.C.D.D.X     . c.B.B.c..     X D.D.C.h.f.f.f.h.v v v F.F.F.F.F.F.F.",
"F.F.F.F.F.F.F.v v Y f.f.f.f.h.C.D.D.X .                   X D.D.C.f.f.f.f.f.h.C.D.D.X                     X D.D.C.h.f.f.f.f.Y v v F.F.F.F.F.F.F.",
"F.F.F.F.F.F.F.v v @.f.f.f.f.f.N.D.D.o .                   o D.D.N.f.f.f.f.f.h.N.D.D.x.                    x.D.D.N.f.f.f.f.f.@.v v F.F.F.F.F.F.F.",
"- - F.F.F.F.v v v @.f.f.f.f.f.z.D.D.b.                . . n.D.D.z.h.f.f.f.f.f.z.S.S.n.                    n.D.D.z.h.f.f.f.f.@.v v v F.F.F.F.- 9.",
"- - - 9.9.F.v v v Z f.f.f.f.f.k.D.D.D.o                 o S.D.D.k.f.f.f.f.f.f.l.D.D.S.o                 o S.D.D.k.f.f.f.f.f.Z v v v F.- 9.- - - ",
"F.9.- - - - 9.9 v O.f.f.f.f.f.f.M.D.D.A.o .           o A.D.D.M.f.f.f.f.f.f.f.f.M.S.D.A.o             o A.D.D.M.f.f.f.f.f.f.O.v 3 9.9.- - - 9.F.",
"F.F.F.F.- - - - w.r F i.f.f.f.f.j.C.D.D.D.b.x.X X x.v.D.D.D.C.i.f.f.f.f.f.f.f.f.j.C.D.D.S.n.x.X X x.n.S.D.D.C.j.f.f.h.f.i.F 8 - - - w.- F.F.F.F.",
"F.F.F.F.F.F.9 w.- - - w.f [ f.h.f.l.C.D.D.D.D.D.D.D.D.D.D.m.@ O + + + + + + + + + @ m.D.S.S.D.D.D.D.S.S.D.C.k.h.f.f.[ f w.- w.- 9.9 F.F.F.F.F.F.",
"F.F.F.F.F.F.v v j t 1 - - - 9 P h.f.j.N.S.S.D.D.D.D.D.S.M.# O O + O O O O O O O O O # M.D.D.D.D.D.D.D.D.M.j.h.4.P 8 w.- - w.t v v v F.F.F.F.F.F.",
"F.F.F.F.F.F.v v v 4.f.F t - - - 9.u  .h.k.z.N.C.C.N.M.k.f.8 O O + O O O O O O O O + , f.k.z.N.C.C.N.z.k.O.[ f 9.- - - t F h.4.v v v F.F.F.F.F.F.",
"F.F.F.F.F.F.v v v @.f.f.f.O.P w.9.w.w.y.d 4.f.f.f.f.f.f.f.f.< O O O O O O O + + + , f.f.f.f.f.f.h.h.4.f w.w.w.- w.f O.h.h.i.@.v v v F.F.F.F.F.F.",
"F.F.F.F.F.F.t v v D O.O.O.O.[ O.P y.- - - 1 t F h.f.f.f.f.f.f.< + O O O O + + + , f.f.f.f.f.f.f.F t w.- - - y.P O.O.O.O.O.O.Y j v t F.F.F.F.F.F.",
"- - - - - 9.- - - - w.- - - - - - - - - - - - w.9.d o.f.f.f.f.f., O O O O O + , f.f.f.f.f.[ f w.w.w.- - - - - - w.- - - w.- w.- - - - - - - - - ",
"- - w.- - - 9.9.- w.- - - w.- - - w.- - - - - - 9.P } f.f.f.f.f.f.$ O O O O $ i.f.f.f.f.f.[ f w.- - - - - - w.- - - - w.- - - - - w.- 9.- - w.- ",
"F.F.F.F.F.F.F.v v v @.f.h.h.h.i.[ t w.- - - t F h.f.f.f.f.f.f.f.f.- $ O O $ - i.f.f.f.f.f.f.f.i.F 9 w.- - w.t F i.h.f.f.h.@.v v v F.F.F.F.F.F.F.",
"F.F.F.F.F.F.F.F.v v Y f.f.O.P w.- - - w.P 4.f.f.f.f.f.f.f.f.f.f.f.- - - % - - A f.f.f.f.f.f.f.f.h.h.O.P w.w.w.- w.P O.f.f.Y v v F.F.F.F.F.F.F.F.",
"F.F.F.F.F.F.F.F.v v v P 9 - - - 9.t 9.- w.4.f.f.f.f.f.f.f.f.f.f.4.- > 9.9.- - 4.f.f.f.f.f.f.f.f.f.f.O.w.- 9.f w.- w.w.9 D v v v F.F.F.F.F.F.F.F.",
"F.F.F.F.F.F.F.F.q 9 w.- - - y.P h.h.u w.9.P f.f.f.f.f.f.f.f.f.f. .- - y y - -  .f.f.f.f.f.f.f.f.f.f.[ - - t h.O.P y.- w.- w.9 t F.F.F.F.F.F.F.F.",
"F.F.F.F.F.F.F.- - 9.- - t @.f.f.h.h.P w.w.u h.f.f.f.f.f.f.f.f.f.u > > P P > - f f.f.f.f.f.f.f.f.h.h.f - - P f.f.h.f.4.t & - & & w.F.F.F.F.F.F.F.",
"F.F.F.F.- - - - - 9.q v Y f.f.f.h.h. .- - w.} f.f.f.f.f.f.f.f.} w.- w. . .- - - [ f.f.f.f.f.h.h.h.[ - - w.[ f.f.h.h.4.v v j & & - - - - F.F.F.F.",
"F.w.- - - - w.- F.F.v v v / h.f.f.f.f.f - - w.@.f.f.h.h.h.h.} 9.> 9.u f.h.f w.w.w.} h.h.h.h.h.h.[ w.- - f h.f.f.f.f.Y v v v F.F.w.- - - - - 9.F.",
"- - w.- - F.F.F.F.F.F.v v v / f.f.f.f.h.9.- w.w.f } 4.4. .f w.- - 9.h.f.h.h.9.9.w.w.f  .O.4. .f w.- w.9.h.h.f.f.f./ v v v F.F.F.F.F.F.- - w.- - ",
"- - F.F.F.F.F.F.F.F.F.F.v v v / f.f.f.f.o.9.- - 9.- - w.- - - - y.o.h.h.f.f. .9.- w.- - w.- - - - - 9.[ h.f.f.f./ Y v v F.F.F.F.F.F.F.F.F.F.- - ",
"F.F.F.F.F.F.F.F.F.F.F.F.v v v Y @.f.f.f.h.h.f - w.- - - - - w.u h.f.f.f.f.h.h.4.f - - - - - - - - f h.h.h.f.f.@.v v v v F.F.F.F.F.F.F.F.F.F.F.F.",
"F.F.F.F.F.F.F.F.F.F.F.F.F.v v v v / h.f.f.f.f.@.P t y.y.t P @.f.h.h.f.f.f.f.f.f.f.@.P t y.y.f P 4.f.f.f.f.f./ v v v v F.F.F.F.F.F.F.F.F.F.F.F.F.",
"F.F.F.F.F.F.F.F.F.F.F.F.F.F.v v v v Y Z f.f.f.f.f.f.h.f.f.h.h.f.h.h.f.f.f.f.f.f.f.f.h.h.f.f.f.f.h.f.f.f.Z Y v v v v F.F.F.F.F.F.F.F.F.F.F.F.F.F.",
"F.F.F.F.F.F.F.F.F.F.F.F.F.F.F.v v v v v @.h.h.f.f.f.f.f.f.f.f.f.f.f.f.f.f.f.f.f.f.f.f.f.f.f.f.f.h.h.h.@.v v v v v F.F.F.F.F.F.F.F.F.F.F.F.F.F.F.",
"F.F.F.F.F.F.F.F.F.F.F.F.F.F.F.F.F.v v v Y Y 4.f.f.f.f.f.f.f.f.f.f.f.f.f.f.f.f.f.f.f.f.f.f.f.f.f.h.4.Y v v v v F.F.F.F.F.F.F.F.F.F.F.F.F.F.F.F.F.",
"F.F.F.F.F.F.F.F.F.F.F.F.F.F.F.F.F.F.v v v v v Y 4.h.h.h.f.f.f.f.f.f.f.f.f.f.f.f.f.f.f.f.f.f.f.@.Y v v v v v F.F.F.F.F.F.F.F.F.F.F.F.F.F.F.F.F.F.",
"F.F.F.F.F.F.F.F.F.F.F.F.F.F.F.F.F.F.F.F.v v v v v v / 4.f.f.f.f.f.f.f.f.f.f.f.f.f.f.f.f.@./ Y v v v v v F.F.F.F.F.F.F.F.F.F.F.F.F.F.F.F.F.F.F.F.",
"F.F.F.F.F.F.F.F.F.F.F.F.F.F.F.F.F.F.F.F.F.F.v v v v v v v Y / @.4.4.4.h.h.4.4.4.@.@.Y v Y v v v v v F.F.F.F.F.F.F.F.F.F.F.F.F.F.F.F.F.F.F.F.F.F.",
"F.F.F.F.F.F.F.F.F.F.F.F.F.F.F.F.F.F.F.F.F.F.F.F.v v v v v v v v v v v v v v v v v v v v v v v v F.F.F.F.F.F.F.F.F.F.F.F.F.F.F.F.F.F.F.F.F.F.F.F.",
"F.F.F.F.F.F.F.F.F.F.F.F.F.F.F.F.F.F.F.F.F.F.F.F.F.F.F.v v v v v v v v v v v v v v v v v v F.F.F.F.F.F.F.F.F.F.F.F.F.F.F.F.F.F.F.F.F.F.F.F.F.F.F.",
"F.F.F.F.F.F.F.F.F.F.F.F.F.F.F.F.F.F.F.F.F.F.F.F.F.F.F.F.F.F.F.v v v v v v v v v v F.F.F.F.F.F.F.F.F.F.F.F.F.F.F.F.F.F.F.F.F.F.F.F.F.F.F.F.F.F.F.",
"F.F.F.F.F.F.F.F.F.F.F.F.F.F.F.F.F.F.F.F.F.F.F.F.F.F.F.F.F.F.F.F.F.F.F.F.F.F.F.F.F.F.F.F.F.F.F.F.F.F.F.F.F.F.F.F.F.F.F.F.F.F.F.F.F.F.F.F.F.F.F.F.",
"F.F.F.F.F.F.F.F.F.F.F.F.F.F.F.F.F.F.F.F.F.F.F.F.F.F.F.F.F.F.F.F.F.F.F.F.F.F.F.F.F.F.F.F.F.F.F.F.F.F.F.F.F.F.F.F.F.F.F.F.F.F.F.F.F.F.F.F.F.F.F.F.",
"F.F.F.F.F.F.F.F.F.F.F.F.F.F.F.F.F.F.F.F.F.F.F.F.F.F.F.F.F.F.F.F.F.F.F.F.F.F.F.F.F.F.F.F.F.F.F.F.F.F.F.F.F.F.F.F.F.F.F.F.F.F.F.F.F.F.F.F.F.F.F.F.",
"F.F.F.F.F.F.F.F.F.F.F.F.F.F.F.F.F.F.F.F.F.F.F.F.F.F.F.F.F.F.F.F.F.F.F.F.F.F.F.F.F.F.F.F.F.F.F.F.F.F.F.F.F.F.F.F.F.F.F.F.F.F.F.F.F.F.F.F.F.F.F.F.",
"F.F.F.F.F.F.F.F.F.F.F.F.F.F.F.F.F.F.F.F.F.F.F.F.F.F.F.F.F.F.F.F.F.F.F.F.F.F.F.F.F.F.F.F.F.F.F.F.F.F.F.F.F.F.F.F.F.F.F.F.F.F.F.F.F.F.F.F.F.F.F.F.",
"F.F.F.F.F.F.F.F.F.F.F.F.F.F.F.F.F.F.F.F.F.F.F.F.F.F.F.F.F.F.F.F.F.F.F.F.F.F.F.F.F.F.F.F.F.F.F.F.F.F.F.F.F.F.F.F.F.F.F.F.F.F.F.F.F.F.F.F.F.F.F.F."
};
