/* XPM */
static const char *cloud_up[] = {
/* columns rows colors chars-per-pixel */
"72 72 71 1 ",
"  c #2980B9",
". c #2C82B9",
"X c #3887BA",
"o c #4A8FBC",
"O c #649BBF",
"+ c #94A5A5",
"@ c #95A5A5",
"# c #96A5A5",
"$ c #95A4A6",
"% c #95A5A6",
"& c #94A5A7",
"* c #95A5A7",
"= c #96A4A6",
"- c #94A6A6",
"; c #95A6A6",
": c #96A6A7",
"> c #97A6A7",
", c #9AA9AA",
"< c #9BAAAB",
"1 c #9EACAE",
"2 c #A0ADAF",
"3 c #A1AEB0",
"4 c #A2AFB0",
"5 c #A4B1B3",
"6 c #A5B1B3",
"7 c #A7B2B5",
"8 c #A7B3B5",
"9 c #A8B3B5",
"0 c #A9B4B7",
"q c #AAB5B8",
"w c #ABB5B8",
"e c #ABB6B8",
"r c #AEB8BB",
"t c #B0B9BC",
"y c #B0BABD",
"u c #B1BABD",
"i c #B3BBBE",
"p c #B3BBBF",
"a c #82A8C1",
"s c #9CB4C4",
"d c #AEBCC6",
"f c #B4BCC0",
"g c #B5BDC0",
"h c #B6BEC1",
"j c #B6BEC2",
"k c #B7BEC2",
"l c #B8BFC3",
"z c #B9C0C3",
"x c #B9C0C4",
"c c #B9C1C4",
"v c #BAC0C4",
"b c #BAC1C4",
"n c #BBC1C4",
"m c #BAC1C5",
"M c #BBC1C5",
"N c #BBC1C6",
"B c #BAC1C7",
"V c #BBC2C6",
"C c #BCC2C6",
"Z c #BCC3C6",
"A c #BDC3C6",
"S c #BDC2C7",
"D c #BCC3C7",
"F c #BDC3C7",
"G c #BEC2C7",
"H c #BCC4C7",
"J c #BDC4C7",
"K c #BCC3C8",
"L c #BDC3C8",
"P c #BCC4C8",
"I c None",
/* pixels */
"IIIIIIIIIIIIIIIIIIIIIIIIIIIIIIIIIIIIIIIIIIIIIIIIIIIIIIIIIIIIIIIIIIIIIIII",
"IIIIIIIIIIIIIIIIIIIIIIIIIIIIIIIIIIIIIIIIIIIIIIIIIIIIIIIIIIIIIIIIIIIIIIII",
"IIIIIIIIIIIIIIIIIIIIIIIIIIIIIIIIIIIIIIIIIIIIIIIIIIIIIIIIIIIIIIIIIIIIIIII",
"IIIIIIIIIIIIIIIIIIIIIIIIIIIIIIIIIIIIIIIIIIIIIIIIIIIIIIIIIIIIIIIIIIIIIIII",
"IIIIIIIIIIIIIIIIIIIIIIIIIIIIIIIIIIIIIIIIIIIIIIIIIIIIIIIIIIIIIIIIIIIIIIII",
"IIIIIIIIIIIIIIIIIIIIIIIIIIIIIIIIIIIIIIIIIIIIIIIIIIIIIIIIIIIIIIIIIIIIIIII",
"IIIIIIIIIIIIIIIIIIIIIIIIIIIIIIIIIIIIIIIIIIIIIIIIIIIIIIIIIIIIIIIIIIIIIIII",
"IIIIIIIIIIIIIIIIIIIIIIIIIIIIIIIIIIIIIIIIIIIIIIIIIIIIIIIIIIIIIIIIIIIIIIII",
"IIIIIIIIIIIIIIIIIIIIIIIIIIIIIIIIIIIIIIIIIIIIIIIIIIIIIIIIIIIIIIIIIIIIIIII",
"IIIIIIIIIIIIIIIIIIIIIIIIIIIIIIIIIIIIIIIIIIIIIIIIIIIIIIIIIIIIIIIIIIIIIIII",
"IIIIIIIIIIIIIIIIIIIIIIIIIIIIIIIIIIIIIIIIIIIIIIIIIIIIIIIIIIIIIIIIIIIIIIII",
"IIIIIIIIIIIIIIIIIIIIIIIIIIIIIIIIIIIIIIIIIIIIIIIIIIIIIIIIIIIIIIIIIIIIIIII",
"IIIIIIIIIIIIIIIIIIIIIIIIFFLFFFFFIIIIIIIIIIIIIIIIIIIIIIIIIIIIIIIIIIIIIIII",
"IIIIIIIIIIIIIIIIIIIIIFFFFFFFFFFFFFFLIIIIIIIIIIIIIIIIIIIIIIIIIIIIIIIIIIII",
"IIIIIIIIIIIIIIIIIIIFFFFFFFFFFFFFFFFFFFIIIIIIIIIIIIIIIIIIIIIIIIIIIIIIIIII",
"IIIIIIIIIIIIIIIIIFFFFFFFFFFFFFFFFFFFFFFFIIIIIIIIIIIIIIIIIIIIIIIIIIIIIIII",
"IIIIIIIIIIIIIIIIFFFFFFFFFFFFFFFFFFFFFFFFFIIIIIIIIIIIIIIIIIIIIIIIIIIIIIII",
"IIIIIIIIIIIIIIIFFFFFFFFFFFFFFFFFFFFFFFFFFFIIIIIIIIIIIIIIIIIIIIIIIIIIIIII",
"IIIIIIIIIIIIIIFFFFFFFFFFFFFFFFFFFFFFFFFFFFFIIIIIIIIIIIIIIIIIIIIIIIIIIIII",
"IIIIIIIIIIIIIFFFFFFFFFFFFFFFFFFFFFFFFFFFFFFFIIIIIIIIIIIIIIIIIIIIIIIIIIII",
"IIIIIIIIIIIIFFFFFFFFFFFFFFFFFFFFFFFFFFFFFFFFIIIIIIIIIIIIIIIIIIIIIIIIIIII",
"IIIIIIIIIIIIFFFFFFFFFFFFFFFFFFFFFFFFFFFFFFFFLIIIIFFFFFFIIIIIIIIIIIIIIIII",
"IIIIIIIIIIIFFFFFFFFFFFFFFFFFFFFFFFFFFFFFFFFFFFIFFFFFFFFFFFIIIIIIIIIIIIII",
"IIIIIIIIIIIFFFFFFFFFFFFFFFFFFFFFFFFFFFFFFFFFFFFFFFFFFFFFFFFIIIIIIIIIIIII",
"IIIIIIIIIILFFFFFFFFFFFFFFFFFFFFFFFFFFFFFFFFFFFFFFFFFFFFFFFFFIIIIIIIIIIII",
"IIIIIIIIIIFFFFFFFFFFFFFFFFFFFFFFFFFFFFFFFFFFFFFFFFFFFFFFFFFFFIIIIIIIIIII",
"IIIIIIIIIIFFFFFFFFFFFFFFFFFFFFFFFFFFFFFFFFFFFFFFFFFFFFFFFFFFFFIIIIIIIIII",
"IIIIIIIIIFFFFFFFFFFFFFFFFFFFFFFFFFFaaFFFFFFFFFFFFFFFFFFFFFFFFFIIIIIIIIII",
"IIIIIIIIIFFFFFFFFFFFFFFFFFFFFFFFFFs..sFFFFFFFFFFFFFFFFFFFFFFFFIIIIIIIIII",
"IIIIIIIIIFFFFFFFFFFFFFFFFFFFFFFFFdX .XdFFFFFFFFFFFFFFFFFFFFFFFFIIIIIIIII",
"IIIIIIIIIFFFFFFFFFFFFFFFFFFFFFFFlo    oFFFFFFFFFFFFFFFFFFFFFFFFIIIIIIIII",
"IIIIIIIIIFFFFFFFFFFFFFFFFFFFFFFFO      OFFFFFFFFFFFFFFFFFFFFFFFIIIIIIIII",
"IIIIIIIIFFFFFFFFFFFFFFFFFFFFLLLa        aLLFFFFFFFFFFFFFFFFFFFxIIIIIIIII",
"IIIIIIIFFFFFFFFFFFFFFFFFFFFFFLs.        .sLFFFFFFFFFFFFFFFFFFFiIIIIIIIII",
"IIIIIFFFFFFFFFFFFFFFFFFFFFFFFdX          XdLFFFFFFFFFFFFFFFFFFFIIIIIIIII",
"IIIIFFFFFFFFFFFFFFFFFFFFFFFFFo            olFFFFFFFFFFFFFFFFFFFFFIIIIIII",
"IIIIFFFFFFFFFFFFFFFFFFFFFFFFO              OFFFFFFFFFFFFFFFFFFFFFFFIIIII",
"IIIFFFFFFFFFFFFFFFFFFFFFFFFa                aFFFFFFFFFFFFFFFFFFFFFFIIIII",
"IIFFFFFFFFFFFFFFFFFFFFFFFFs.                .sFFFFFFFFFFFFFFFFFFFFFFIIII",
"IIFFFFFFFFFFFFFFFFFFFFFFFdX                  XdFFFFFFFFFFFFFFFFFFFFFFIII",
"IFFFFFFFFFFFFFFFFFFFFFFFko                    oFFFFFFFFFFFFFFFFFFFFFFFII",
"IFFFFFFFFFFFFFFFFFFFFFFFO                      OFFFFFFFFFFFFFFFFFFFFFFII",
"IFFFFFFFFFFFFFFFFFFFFFFFFFFFGL.           LLFFFFFFFFFFFFFFFFFFFFFFFFFFFI",
"FFFFFFFFFFFFFFFFFFFFFFFFFFFFGG.           LLFFFFFFFFFFFFFFFFFFFFFFFFFFFI",
"FFFFFFFFFFFFFFFFFFFFFFFFFFFFFF            FFFFFFFFFFFFFFFFFFFFFFFFFFFFFI",
"kFFFFFFFFFFFFFFFFFFFFFFFFFFFFF            FFFFFFFFFFFFFFFFFFFFFFFFFFFFFL",
"FFFFFFFFFFFFFFFFFFFFFFFFFFFFFF            FFFFFFFFFFFFFFFFFFFFFFFFFFFFFx",
"kFFFFFFFFFFFFFFFFFFFFFFFFFFFFF            FFFFFFFFFFFFFFFFFFFFFFFFFFFFFx",
"lFFFFFFFFFFFFFFFFFFFFFFFFFFFFF            FFFFFFFFFFFFFFFFFFFFFFFFFFFFFF",
"rFFFFFFFFFFFFFFFFFFFFFFFFFFFFF            FFFFFFFFFFFFFFFFFFFFFFFFFFFFFl",
"9FFFFFFFFFFFFFFFFFFFFFFFFFFFFF            FFFFFFFFFFFFFFFFFFFFFFFFFFFFFl",
"1FFFFFFFFFFFFFFFFFFFFFFFFFFFFF            FFFFFFFFFFFFFFFFFFFFFFFFFFFFF9",
"+lFFFFFFFFFFFFFFFFFFFFFFFFFFFF            FFFFFFFFFFFFFFFFFFFFFFFFFFFFL3",
"I4FFFFFFFFFFFFFFFFFFFFFFFFFFFF            FFFFFFFFFFFFFFFFFFFFFFFFFFFFF=",
"I+kFFFFFFFFFFFFFFFFFFFFFFFFFFF            FFFFFFFFFFFFFFFFFFFFFFFFFFFF9=",
"I+4LFFFFFFFFFFFFFFFFFFFFFFFFFF            FFFFFFFFFFFFFFFFFFFFFFFFFFFl>I",
"II=qFFFFFFFFFFFFFFFFFFFFFFFFFF .          FFFFFFFFFFFFFFFFFFFFFFFFFFF4+I",
"II=-rFFFFFFFFFFFFFFFFFFFFFFFFFFFFFFFFFFFFFFFFFFFFFFFFFFFFFFFFFFFFFFFq+II",
"III=-iFFFFFFFFFFFFFFFFFFFFFFFFFFFFFFFFFFFFFFFFFFFFFFFFFFFFFFFFFFFFLq+>II",
"III-=+rLFFFFFFFFFFFFFFFFFFFFFFFFFFFFFFFFFFFFFFFFFFFFFFFFFFFFFFFFFFq++III",
"IIII===3lFFFFFFFFFFFFFFFFFFFGLLLFFFFFFFFFFFFFFFFFFFFFFFFFFFFFFFFF7+++III",
"IIIII=-=+4lFFFFFFFFFFFFFFFFFGGLLFFFFFFFFFFFFFFFFFFFFFLFFFFFFFFF7-=++IIII",
"IIIIII+=++=19ilkLFFLFFLLLLFFlGFLFFLFFLFFLFFLFFLLLLFFLLLLFkklq1++=-+IIIII",
"IIIIIIII=+=++++++>++>++>++++>++>++>++>++>++>++>+++++=++==+=++++++IIIIIII",
"IIIIIIIIII-=-=+=-=-=-=-=-=-=-=-=-=-=-=-=-=-=-=-=-=-=-=-=-=-=-=-IIIIIIIII",
"IIIIIIIIIIIII-;==-=-=-=-=-=-=-=-=-=-=-=-=-=-=-=-=-=-=-=-=-=-=IIIIIIIIIII",
"IIIIIIIIIIIIIIIIIIIIIIIIIIIIIIIIIIIIIIIIIIIIIIIIIIIIIIIIIIIIIIIIIIIIIIII",
"IIIIIIIIIIIIIIIIIIIIIIIIIIIIIIIIIIIIIIIIIIIIIIIIIIIIIIIIIIIIIIIIIIIIIIII",
"IIIIIIIIIIIIIIIIIIIIIIIIIIIIIIIIIIIIIIIIIIIIIIIIIIIIIIIIIIIIIIIIIIIIIIII",
"IIIIIIIIIIIIIIIIIIIIIIIIIIIIIIIIIIIIIIIIIIIIIIIIIIIIIIIIIIIIIIIIIIIIIIII",
"IIIIIIIIIIIIIIIIIIIIIIIIIIIIIIIIIIIIIIIIIIIIIIIIIIIIIIIIIIIIIIIIIIIIIIII",
"IIIIIIIIIIIIIIIIIIIIIIIIIIIIIIIIIIIIIIIIIIIIIIIIIIIIIIIIIIIIIIIIIIIIIIII"
};
