/* XPM */
static const char *cone[] = {
/* columns rows colors chars-per-pixel */
"72 72 82 1 ",
"  c #D35400",
". c #D35502",
"X c #D35604",
"o c #D25B0C",
"O c #D25B0D",
"+ c #D15F13",
"@ c #D1631A",
"# c #D0641C",
"$ c #D06A26",
"% c #D06B28",
"& c #D06D28",
"* c #CF7538",
"= c #D07435",
"- c #D07436",
"; c #D07A3D",
": c #E67E22",
"> c #E67F24",
", c #D17C41",
"< c #D17C42",
"1 c #D07E45",
"2 c #ED8F19",
"3 c #ED981C",
"4 c #F39B12",
"5 c #F39C12",
"6 c #F19814",
"7 c #DB8037",
"8 c #D6823A",
"9 c #E88320",
"0 c #E68128",
"q c #E6842D",
"w c #E6852D",
"e c #E6852E",
"r c #E78A37",
"t c #E78B3A",
"y c #D1834C",
"u c #D3844D",
"i c #D48955",
"p c #D38C5A",
"a c #D68F5B",
"s c #D4905F",
"d c #E79348",
"f c #E79449",
"g c #E79751",
"h c #E79A54",
"j c #E79C58",
"k c #E7A05F",
"l c #E8A05E",
"z c #D49464",
"x c #D5976A",
"c c #E7A363",
"v c #E8A468",
"b c #E9A56A",
"n c #E8A66E",
"m c #E7AB76",
"M c #E8AD79",
"N c #BDC3C7",
"B c #BEC3C7",
"V c #BEC4C8",
"C c #C0C6C9",
"Z c #C0C6CA",
"A c #C2C8CC",
"S c #C3C9CC",
"D c #C6CBCF",
"F c #C7CCCF",
"G c #C8CED1",
"H c #C9CED1",
"J c #CAD0D4",
"K c #CCD0D4",
"L c #CCD2D5",
"P c #CED3D6",
"I c #CFD5D6",
"U c #CFD6D7",
"Y c #D0D4D9",
"T c #E2E6E8",
"R c #EBEFF1",
"E c #ECEFF1",
"W c #ECF0F0",
"Q c #ECF0F1",
"! c #EDF0F1",
"~ c #ECF1F1",
"^ c #EDF1F1",
"/ c None",
/* pixels */
"////////////////////////////////////////////////////////////////////////",
"////////////////////////////////////////////////////////////////////////",
"////////////////////////////////////////////////////////////////////////",
"////////////////////////////////////////////////////////////////////////",
"////////////////////////////////////////////////////////////////////////",
"////////////////////////////////////////////////////////////////////////",
"//////////////////////////////z     7::::g//////////////////////////////",
"//////////////////////////////;     7::::0//////////////////////////////",
"//////////////////////////////+     7:::::M/////////////////////////////",
"/////////////////////////////x      7:::::l/////////////////////////////",
"/////////////////////////////u      7:::::r/////////////////////////////",
"/////////////////////////////$      7:::::://///////////////////////////",
"/////////////////////////////       7::::::b////////////////////////////",
"////////////////////////////p       7::::::f////////////////////////////",
"////////////////////////////=       7:::::::////////////////////////////",
"////////////////////////////ZNNNNNNNTQQQQQQQ////////////////////////////",
"////////////////////////////NNNNNNNNTQQQQQQQQ///////////////////////////",
"///////////////////////////PNNNNNNNNTQQQQQQQQ///////////////////////////",
"///////////////////////////SNNNNNNVVTQQQQQQQQ///////////////////////////",
"///////////////////////////NNNNNNNVVTQQQQQQQQQ//////////////////////////",
"//////////////////////////PNNNNNNNNNTQQQQQQQQQ//////////////////////////",
"//////////////////////////FNNNNNNNNNTQQQQQQQQQ//////////////////////////",
"//////////////////////////NNNNNNNNNNTQQQQQQQQQ//////////////////////////",
"/////////////////////////UNNNNNNNNNNTQQQQQQQQQQ/////////////////////////",
"/////////////////////////HNNNNNNNNNNTQQQQQQQQQQ/////////////////////////",
"/////////////////////////ZNNNNNNNNNNTQQQQQQQQQQ/////////////////////////",
"/////////////////////////NNNNNNNNNNNTQQQQQQQQQQQ////////////////////////",
"////////////////////////<           7::::::::::0////////////////////////",
"////////////////////////@           7:::::::::::////////////////////////",
"////////////////////////            7:::::::::::c///////////////////////",
"///////////////////////u            7:::::::::::t///////////////////////",
"///////////////////////%            7::::::::::::///////////////////////",
"///////////////////////             7::::::::::::v//////////////////////",
"//////////////////////i             7::::::::::::f//////////////////////",
"//////////////////////=             7::::::::::::0//////////////////////",
"//////////////////////O             7:::::::::::::b/////////////////////",
"/////////////////////p              7:::::::::::::j/////////////////////",
"/////////////////////<              7:::::::::::::0/////////////////////",
"/////////////////////@              7:::::::::::::://///////////////////",
"/////////////////////NNNNNNNNNNNNNNNTQQQQQQQQQQQRQQR////////////////////",
"////////////////////UNNNNNNNNNNNNNNNTQQQQQQQQQQQQQQQ////////////////////",
"////////////////////PNNNNNNNNNNNNNNNTQQQQQQQQQQQQQQQ////////////////////",
"////////////////////NNNNNNNNNNNNNNNNTQQQQQQQQQQQQQQQ////////////////////",
"////////////////////NNNNNNNNNNNNNNNNTQQQQQQQQQQQQQQQQ///////////////////",
"///////////////////PNNNNNNNNNNNNNNNNTQQQQQQQQQQQQQQQQ///////////////////",
"///////////////////ZNNNNNNNNNNNNNNNNTQQQQQQQQQQQQQQQQ///////////////////",
"///////////////////NNNNNNNNNNNNNNNNNTQQQQQQQQQQQQQQQQQ//////////////////",
"//////////////////PNNNNNNNNNNNNNNNNNTQQQQQQQQQQQQQQQQQ//////////////////",
"//////////////////DNNNNNNNNNNNNNBBBCT!RWQ!RRQQQQQQQQQQ//////////////////",
"//////////////////VNNNNNNNNNNNNNBBBCTR!WQRRWQQQRQQQQQQ//////////////////",
"/////////////////YVVNNNNNNNNNNNNBBCCTRWWQQWWQQRRQQQQQQQ/////////////////",
"/////////////////*                ..;>::>>>>>>::::::::://///////////////",
"/////////////////O                  e>>:::::::::::::::0m////////////////",
"////////////////z                   ;:::::::::::::::::0j////////////////",
"////////////////1                   e>:::::::::::::::::0////////////////",
"////////////////#                   ;:::::::::::::::::::////////////////",
"////////////////                    ;>::::::::::::::::::c///////////////",
"///////////55558                    >>::::::::::::::::::95555///////////",
"//////////55555%                    ;::::::::::::::::::::55555//////////",
"/////////555553                     r::::::::::::::::::::255555/////////",
"////////55555555555555555555555555555555555555555555555555555555////////",
"///////5555555555555555555555555555555555555555555555555555555555///////",
"//////555555555555555555555555555555555555555555555555555555555555//////",
"//////:::::::::0:::::::::::::::::::::::::::::::::::::::::::::::::://////",
"//////:::::::::::::::::::::::::::::::::::::::::::::::::::::::::::://////",
"//////:::::::::::::::::::::::::::::::::::::::::::::::::::::::::::://////",
"////////////////////////////////////////////////////////////////////////",
"////////////////////////////////////////////////////////////////////////",
"////////////////////////////////////////////////////////////////////////",
"////////////////////////////////////////////////////////////////////////",
"////////////////////////////////////////////////////////////////////////",
"////////////////////////////////////////////////////////////////////////"
};
