/* XPM */
static const char *database[] = {
/* columns rows colors chars-per-pixel */
"72 72 178 2 ",
"   c #7F8C8D",
".  c #808D8D",
"X  c #808D8E",
"o  c #808E8E",
"O  c #808E8F",
"+  c #818E8F",
"@  c #828F8F",
"#  c #818F90",
"$  c #828F90",
"%  c #828F91",
"&  c #829091",
"*  c #839091",
"=  c #839192",
"-  c #849192",
";  c #849293",
":  c #859293",
">  c #859394",
",  c #869294",
"<  c #879596",
"1  c #889496",
"2  c #889597",
"3  c #889697",
"4  c #889798",
"5  c #899798",
"6  c #8A9799",
"7  c #8B999A",
"8  c #8B9A9B",
"9  c #8C989A",
"0  c #8D999A",
"q  c #8D999B",
"w  c #8E999B",
"e  c #8C9A9C",
"r  c #8D9C9D",
"t  c #8F9E9F",
"y  c #909D9E",
"u  c #929D9F",
"i  c #909FA0",
"p  c #939EA0",
"a  c #90A0A0",
"s  c #90A0A1",
"d  c #91A0A1",
"f  c #91A1A2",
"g  c #93A0A2",
"h  c #92A1A2",
"j  c #92A2A3",
"k  c #93A2A3",
"l  c #94A2A2",
"z  c #93A2A4",
"x  c #93A3A4",
"c  c #97A1A4",
"v  c #95A3A4",
"b  c #96A2A4",
"n  c #94A4A5",
"m  c #95A5A6",
"M  c #96A6A7",
"N  c #97A6A7",
"B  c #97A6A8",
"V  c #97A7A8",
"C  c #99A6A8",
"Z  c #98A7A8",
"A  c #98A7A9",
"S  c #98A8A9",
"D  c #99A8A9",
"F  c #9AA8AA",
"G  c #9BA9AB",
"H  c #9DA9AA",
"J  c #9EA9AB",
"K  c #9FA9AC",
"L  c #9CAAAC",
"P  c #9DABAD",
"I  c #9FABAE",
"U  c #9FACAE",
"Y  c #9FADAE",
"T  c #9FADAF",
"R  c #A0ACAE",
"E  c #A0ADAF",
"W  c #A1ADAF",
"Q  c #A1AEB0",
"!  c #A2AFB1",
"~  c #A5AEB1",
"^  c #A6AFB1",
"/  c #A2B0B1",
"(  c #A3B0B2",
")  c #A4B0B2",
"_  c #A4B1B3",
"`  c #A7B1B3",
"'  c #A6B2B4",
"]  c #A6B3B4",
"[  c #A7B2B5",
"{  c #A7B3B5",
"}  c #A8B5B6",
"|  c #A9B4B7",
" . c #A9B5B7",
".. c #ACB4B7",
"X. c #ABB5B8",
"o. c #A9B6B8",
"O. c #ABB6B8",
"+. c #AAB7B8",
"@. c #ACB6B9",
"#. c #ADB7BA",
"$. c #AEB8BB",
"%. c #AFB9BB",
"&. c #AFBABD",
"*. c #B1B8BB",
"=. c #B0B8BC",
"-. c #B0B9BC",
";. c #B0BABD",
":. c #B1BABD",
">. c #B2BABE",
",. c #B2BBBE",
"<. c #B0BCBD",
"1. c #B2BDBF",
"2. c #B4BCBF",
"3. c #B4BCC0",
"4. c #B5BDC0",
"5. c #B6BEC1",
"6. c #B7BEC2",
"7. c #B8BEC2",
"8. c #B8BFC2",
"9. c #B8BFC3",
"0. c #B7C2C3",
"q. c #B8C0C3",
"w. c #B9C0C4",
"e. c #BAC0C4",
"r. c #B8C2C4",
"t. c #BBC2C6",
"y. c #BCC2C6",
"u. c #BCC3C6",
"i. c #BDC3C6",
"p. c #BDC2C7",
"a. c #BDC3C7",
"s. c #BEC3C7",
"d. c #BCC4C6",
"f. c #BDC4C7",
"g. c #BDC2C8",
"h. c #BDC3C8",
"j. c #BEC3C8",
"k. c #BEC4C8",
"l. c #BFC5C9",
"z. c #C1C7CA",
"x. c #C1C7CB",
"c. c #C3CBCD",
"v. c #C4CACD",
"b. c #C3CDCE",
"n. c #C6CCCF",
"m. c #C8CED1",
"M. c #CAD0D3",
"N. c #CAD2D3",
"B. c #CCD2D5",
"V. c #CDD2D5",
"C. c #CCD4D5",
"Z. c #CED6D7",
"A. c #D1D6D9",
"S. c #D5DADC",
"D. c #D4DBDC",
"F. c #D8DDDF",
"G. c #D9DEE0",
"H. c #DBE1E2",
"J. c #DCE0E2",
"K. c #DCE1E2",
"L. c #DDE2E3",
"P. c #DDE2E4",
"I. c #DFE3E5",
"U. c #E0E4E6",
"Y. c #E1E5E7",
"T. c #E1E6E8",
"R. c #E2E7E8",
"E. c #E4E8E9",
"W. c #E4EAEB",
"Q. c #E5EAEB",
"!. c #E6EAEB",
"~. c #E6EAEC",
"^. c #E7EBEC",
"/. c #E8ECED",
"(. c #EAEEEF",
"). c #EBEFF0",
"_. c #ECF0F1",
"`. c None",
/* pixels */
"`.`.`.`.`.`.`.`.`.`.`.`.`.`.`.`.`.`.`.`.`.`.`.`.`.`.`.`.`.`.`.`.`.`.`.`.`.`.`.`.`.`.`.`.`.`.`.`.`.`.`.`.`.`.`.`.`.`.`.`.`.`.`.`.`.`.`.`.`.`.`.`.",
"`.`.`.`.`.`.`.`.`.`.`.`.`.`.`.`.`.`.`.`.`.`.`.`.`.`.`.`.`.`.`.`.`.`.`.`.`.`.`.`.`.`.`.`.`.`.`.`.`.`.`.`.`.`.`.`.`.`.`.`.`.`.`.`.`.`.`.`.`.`.`.`.",
"`.`.`.`.`.`.`.`.`.`.`.`.`.`.`.`.`.`.`.`.`.`.`.`.`.`.`.`.`.`.`.`.`.`.`.`.`.`.`.`.`.`.`.`.`.`.`.`.`.`.`.`.`.`.`.`.`.`.`.`.`.`.`.`.`.`.`.`.`.`.`.`.",
"`.`.`.`.`.`.`.`.`.`.`.`.`.`.`.`.`.`.`.`.`.`.`.`.`.`.`.`.`.`.a.a.k.k.a.a.a.a.a.a.a.a.`.`.`.`.`.`.`.`.`.`.`.`.`.`.`.`.`.`.`.`.`.`.`.`.`.`.`.`.`.`.",
"`.`.`.`.`.`.`.`.`.`.`.`.`.`.`.`.`.`.`.`.`.`.`.a.a.a.a.a.a.a.a.a.a.a.a.a.a.a.a.a.a.a.a.a.a.a.a.a.a.`.`.`.`.`.`.`.`.`.`.`.`.`.`.`.`.`.`.`.`.`.`.`.",
"`.`.`.`.`.`.`.`.`.`.`.`.`.`.`.`.`.`.`.`.a.a.a.a.a.a.a.a.a.a.a.a.a.a.a.a.a.a.a.a.a.a.a.a.a.a.a.a.a.a.a.a.`.`.`.`.`.`.`.`.`.`.`.`.`.`.`.`.`.`.`.`.",
"`.`.`.`.`.`.`.`.`.`.`.`.`.`.`.`.`.a.a.a.a.a.a.a.a.a.a.a.a.a.a.a.a.a.a.a.a.a.a.a.a.a.a.a.a.a.a.a.a.a.a.a.a.a.a.`.`.`.`.`.`.`.`.`.`.`.`.`.`.`.`.`.",
"`.`.`.`.`.`.`.`.`.`.`.`.`.`.`.a.a.a.a.a.a.a.a.a.a.a.a.a.a.a.a.a.a.a.a.a.a.a.a.a.a.a.a.a.a.a.a.a.a.a.a.a.a.a.a.a.a.`.`.`.`.`.`.`.`.`.`.`.`.`.`.`.",
"`.`.`.`.`.`.`.`.`.`.`.`.`.k.a.a.a.a.a.a.a.a.a.a.a.a.a.a.a.a.a.a.a.a.a.a.a.a.a.a.a.a.a.a.a.a.a.a.a.a.a.a.a.a.a.a.a.a.k.`.`.`.`.`.`.`.`.`.`.`.`.`.",
"`.`.`.`.`.`.`.`.`.`.`.`.a.a.a.a.a.a.a.a.a.a.a.a.a.a.a.a.a.a.a.a.a.a.a.a.a.a.a.a.a.a.a.a.a.a.a.a.a.a.a.a.a.a.a.a.a.a.a.a.`.`.`.`.`.`.`.`.`.`.`.`.",
"`.`.`.`.`.`.`.`.`.`.`.a.a.a.a.a.a.a.a.a.a.a.a.a.a.a.a.a.a.a.a.a.a.a.a.a.a.a.a.a.a.a.a.a.a.a.a.a.a.a.a.a.a.a.a.a.a.a.a.a.a.`.`.`.`.`.`.`.`.`.`.`.",
"`.`.`.`.`.`.`.`.`.`.a.a.a.a.a.a.a.a.a.a.a.a.a.a.a.a.a.a.a.a.a.a.a.a.a.a.a.a.a.a.a.a.a.a.a.a.a.a.a.a.a.a.a.a.a.a.a.a.a.a.a.a.`.`.`.`.`.`.`.`.`.`.",
"`.`.`.`.`.`.`.`.`.`.a.a.a.a.a.a.a.a.a.a.a.a.a.a.a.a.a.a.a.a.a.a.a.a.a.a.a.a.a.a.a.a.a.a.a.a.a.a.a.a.a.a.a.a.a.a.a.a.a.a.a.a.`.`.`.`.`.`.`.`.`.`.",
"`.`.`.`.`.`.`.`.`.k.a.a.a.a.a.a.a.a.a.a.a.a.a.a.a.a.a.a.a.a.a.a.a.a.a.a.a.a.a.a.a.a.a.a.a.a.a.a.a.a.a.a.a.a.a.a.a.a.a.a.a.a.k.`.`.`.`.`.`.`.`.`.",
"`.`.`.`.`.`.`.`.`.a.a.a.a.a.a.a.a.a.a.a.a.a.a.a.a.a.a.a.a.a.a.a.a.a.a.a.a.a.a.a.a.a.a.a.a.a.a.a.a.a.a.a.a.a.a.a.a.a.a.a.a.a.a.`.`.`.`.`.`.`.`.`.",
"`.`.`.`.`.`.`.`.`.a.a.a.a.a.a.a.a.a.a.a.a.a.a.a.a.a.a.a.a.a.a.a.a.a.a.a.a.a.a.a.a.a.a.a.a.a.a.a.a.a.a.a.a.a.a.a.a.a.a.a.a.a.a.`.`.`.`.`.`.`.`.`.",
"`.`.`.`.`.`.`.`.`.%.k.a.a.a.a.a.a.a.a.a.a.a.a.a.a.a.a.a.a.a.a.a.a.a.a.a.a.a.a.a.a.a.a.a.a.a.a.a.a.a.a.a.a.a.a.a.a.a.a.a.a.a.a.`.`.`.`.`.`.`.`.`.",
"`.`.`.`.`.`.`.`.`.^ k.a.a.a.a.a.a.a.a.a.a.a.a.a.a.a.a.a.a.a.a.a.a.a.a.a.a.a.a.a.a.a.a.a.a.a.a.a.a.a.a.a.a.a.a.a.a.a.a.a.a.a.a.`.`.`.`.`.`.`.`.`.",
"`.`.`.`.`.`.`.`.`.V #.a.a.a.a.a.a.a.a.a.a.a.a.a.a.a.a.a.a.a.a.a.a.a.a.a.a.a.a.a.a.a.a.a.a.a.a.a.a.a.a.a.a.a.a.a.a.a.a.a.a.a.a.`.`.`.`.`.`.`.`.`.",
"`.`.`.`.`.`.`.`.`.x Z 4.a.a.a.a.a.a.a.a.a.a.a.a.a.a.a.a.a.a.a.a.a.a.a.a.a.a.a.a.a.a.a.a.a.a.a.a.a.a.a.a.a.a.a.a.a.a.a.a.a.a.a.`.`.`.`.`.`.`.`.`.",
"`.`.`.`.`.`.`.`.`.x V T 1.a.a.a.a.a.a.a.a.a.a.a.a.a.a.a.a.a.a.a.a.a.a.a.a.a.a.a.a.a.a.a.a.a.a.a.a.a.a.a.a.a.a.a.a.a.a.a.a.a.a.`.`.`.`.`.`.`.`.`.",
"`.`.`.`.`.`.`.`.`.V x V N #.a.k.a.a.a.a.a.a.a.a.a.a.a.a.a.a.a.a.a.a.a.a.a.a.a.a.a.a.a.a.a.a.a.a.a.a.a.a.a.a.a.a.a.a.a.a.a.a.a.`.`.`.`.`.`.`.`.`.",
"`.`.`.`.`.`.`.`.`.x V x x x T 1.a.a.a.a.a.a.a.a.a.a.a.a.a.a.a.a.a.a.a.a.a.a.a.a.a.a.a.a.a.a.a.a.a.a.a.a.a.a.a.a.a.a.a.a.a.a.a.`.`.`.`.`.`.`.`.`.",
"`.`.`.`.`.`.`.`.`.V x Z x Z x V T 1.a.a.a.a.a.a.a.a.a.a.a.a.a.a.a.a.a.a.a.a.a.a.a.a.a.a.a.a.a.a.a.a.a.a.a.a.a.a.a.a.a.a.a.a.a.`.`.`.`.`.`.`.`.`.",
"`.`.`.`.`.`.`.`.`.x x V V x V x x V Z [ 1.a.a.a.a.a.a.a.k.a.a.a.a.a.a.a.a.a.a.a.a.a.a.a.a.a.a.a.a.a.a.a.a.a.a.a.a.a.a.a.a.a.a.`.`.`.`.`.`.`.`.`.",
"`.`.`.`.`.`.`.`.`.x V x x V x V x x V x x T ^ #.4.a.a.a.k.k.a.a.a.a.a.k.a.a.a.a.a.a.a.a.a.a.a.a.a.a.a.a.a.a.a.a.a.a.a.a.a.a.a.`.`.`.`.`.`.`.`.`.",
"`.`.`.`.`.`.`.`.`.2 x V V x V x x V x V x V x V V V Z T ^ [ #.#.%.4.a.a.a.a.a.a.a.a.a.a.a.a.a.a.a.a.a.a.a.a.a.a.a.a.a.a.a.a.T `.`.`.`.`.`.`.`.`.",
"`.`.`.`.`.`.`.`.`.* x x x V x V V x V x V x V x x x V x x x x V x x x x a.a.a.a.a.a.a.a.a.a.a.a.a.a.a.a.a.a.a.a.a.a.a.a.a.1.T `.`.`.`.`.`.`.`.`.",
"`.`.`.`.`.`.`.`.`.0 O x x x Z x x V x V x V x V V x V x V x V x V x V x a.a.a.a.a.a.a.a.a.a.a.a.a.a.a.a.a.a.a.a.a.a.a.a.1.Z { `.`.`.`.`.`.`.`.`.",
"`.`.`.`.`.`.`.`.`.^   O x x x x V x V x V x V x x V x V x V x V x V x V a.a.a.a.a.a.a.a.a.a.a.a.a.a.a.a.a.a.a.a.a.a.a.a.Z x B.`.`.`.`.`.`.`.`.`.",
"`.`.`.`.`.`.`.`.`.a.0   O 0 x x x V x V x V x V V x V x V x V x V x V x a.a.a.a.a.a.a.a.a.a.a.a.a.a.a.a.a.a.a.a.a.a.%.x x 1.^.`.`.`.`.`.`.`.`.`.",
"`.`.`.`.`.`.`.`.`.%.a.* O O * x V x V x V x V x x V x V x V x V x V x x a.a.a.a.a.a.a.a.a.a.a.a.a.a.a.a.a.a.a.a.1.T x x E !.J.`.`.`.`.`.`.`.`.`.",
"`.`.`.`.`.`.`.`.`.^ a.7.9 O     # i x V V x x x V x V x V x V x V x V x k.k.a.a.a.a.a.a.a.a.k.k.k.7.k.k.k.k.%.T x V V o.!._.B.`.`.`.`.`.`.`.`.`.",
"`.`.`.`.`.`.`.`.`.x *.a.7.x     O O # * 0 x Z x x V x V x V x V x V x V k.k.a.a.a.a.a.a.a.a.7.k.k.k.7.#./ V V V V x r./._.J.k.`.`.`.`.`.`.`.`.`.",
"`.`.`.`.`.`.`.`.`.x Z 7.z.a.#.0 O O     O O # 9 i x V V V x V x V x x x a.a.a.a.k.k.k.k.a.a.r.1.^ T V V V x V n o.H._._.!.x.k.`.`.`.`.`.`.`.`.`.",
"`.`.`.`.`.`.`.`.`.V N Z 1.a.a.a.{ 9 O         O     * * < 4 0 0 i x x x a.7.1.1.#.o.[ ^ T T V x V x V x x V o.D./._._.I.x.k.k.`.`.`.`.`.`.`.`.`.",
"`.`.`.`.`.`.`.`.`.V x V T #.a.a.p.p.7.R * #   O                         x x V x x V x V x V x V V x V / l./._._._.).G.k.k.a.a.`.`.`.`.`.`.`.`.`.",
"`.`.`.`.`.`.`.`.`.x V x x V T %.z.p.z.7.k.4.^ i *                       x V x V V x V x V x V T 3.B.!._._._._._.Y.b.a.a.a.a.a.`.`.`.`.`.`.`.`.`.",
"`.`.`.`.`.`.`.`.`.V x V V x V x ^ *.7.x.a.a.a.a.a.r.3.[ T i 0 9 < * *   x T ^ [ #.%.r.b.B.J.).).)._._._._._.I.N.k.a.a.a.a.a.a.`.`.`.`.`.`.`.`.`.",
"`.`.`.`.`.`.`.`.`.x V x x V x V x x Z ` 4.a.a.a.a.a.a.k.k.k.k.a.k.k.a.a.)._.).)._._.)._._._.).).)._._.I.D.l.k.k.a.a.a.a.a.a.a.`.`.`.`.`.`.`.`.`.",
"`.`.`.`.`.`.`.`.`.x x x Z x V x V x V x V Z ^ #.4.k.k.7.a.a.a.a.k.k.k.k.).).)._._.).).).).)._.!.F.B.x.a.a.a.a.a.a.a.a.a.a.a.7.`.`.`.`.`.`.`.`.`.",
"`.`.`.`.`.`.`.`.`.2 x Z x V x V x V x V x V V x V Z T T ^ [ #.%.%.4.4.r.).R.R.J.G.G.A.B.n.x.k.k.a.a.a.a.a.a.a.a.a.a.a.a.a.a.^ `.`.`.`.`.`.`.`.`.",
"`.`.`.`.`.`.`.`.`.# i x V x V x V x V x x V x V V x V x x x V x x V V V a.a.a.a.7.k.k.k.k.k.7.k.a.a.a.a.a.a.a.a.a.a.a.a.a.1.V `.`.`.`.`.`.`.`.`.",
"`.`.`.`.`.`.`.`.`.0 # x x V x V x V x V V x V x x V x V x V x V V x V x a.a.a.a.k.k.k.k.k.k.k.k.a.a.a.a.a.a.a.a.a.a.a.a.4.T [ `.`.`.`.`.`.`.`.`.",
"`.`.`.`.`.`.`.`.`.^   # i V x V x V x V x V x V V x V x V x V x x V x V k.a.a.a.k.k.k.k.7.k.k.k.a.a.a.a.a.a.a.a.a.a.a.r.Z x B.`.`.`.`.`.`.`.`.`.",
"`.`.`.`.`.`.`.`.`.a.i     9 V V V x V x V x V x x V x V x V x V V x V x a.a.a.a.k.k.k.k.k.k.k.7.a.a.a.a.a.a.a.a.a.a.#.V x 1.!.`.`.`.`.`.`.`.`.`.",
"`.`.`.`.`.`.`.`.`.%.a.*     * i x V x V x V x V V x V x V x V x x V x V a.a.a.a.7.k.k.k.k.k.k.k.a.a.a.a.a.a.a.a.1.T V x T !.J.`.`.`.`.`.`.`.`.`.",
"`.`.`.`.`.`.`.`.`.T k.4.9       # i V x V x V x x V x V x V x V V x V x a.a.a.a.k.k.k.7.k.7.k.k.a.a.a.a.a.a.1.E x x x [ !._.B.`.`.`.`.`.`.`.`.`.",
"`.`.`.`.`.`.`.`.`.x 1.a.7.i # O X X X # y i x N x N x Z N x N x x V x V a.a.a.a.a.a.a.a.a.k.a.k.a.a.7.#.[ V x m m m r.(._.J.l.`.`.`.`.`.`.`.`.`.",
"`.`.`.`.`.`.`.`.`.V V 4.k.k.*.9 X X X   O # # 2 i x V x x x x Z V x V x a.a.a.k.a.a.a.a.a.k.r.4.[ T x x m m m m o.J._._.!.l.l.`.`.`.`.`.`.`.`.`.",
"`.`.`.`.`.`.`.`.`.V x T 1.a.k.a.#.w O X X X X   X O # * * 9 9 9 i i x x a.4.4.1.#.#.[ [ T T V x V x x Z x V [ F._._._.I.b.a.a.`.`.`.`.`.`.`.`.`.",
"`.`.`.`.`.`.`.`.`.x V x N #.a.a.g.9.7.R , X X   X O O #   O O O         V x x V x x x V x x V x x x x [ b.!._._._._.H.a.a.a.a.`.`.`.`.`.`.`.`.`.",
"`.`.`.`.`.`.`.`.`.V x V x Z T *.9.x.9.k.x.7.^ i # X O O X   O O         x V x x V x V x V V x ^ r.B.!._._._._._.J.b.a.a.a.a.a.`.`.`.`.`.`.`.`.`.",
"`.`.`.`.`.`.`.`.`.x V x N x V x T #.k.k.9.9.k.k.p.7.*.` R i y 9 < * # # x T T [ o.%.r.b.B.J.^._._._._.)._.^.J.B.k.a.a.a.a.a.a.`.`.`.`.`.`.`.`.`.",
"`.`.`.`.`.`.`.`.`.x x V x V x V x V V ^ 7.k.k.9.p.x.a.a.7.p.p.7.a.a.k.k._._._._._._._._._._.).)._._._.Y.F.k.a.a.a.a.a.a.a.a.a.`.`.`.`.`.`.`.`.`.",
"`.`.`.`.`.`.`.`.`.x V x V x V x V V V V V Z T #.7.7.a.a.x.p.p.z.a.a.k.k._._._._._._._._._._.).R.F.B.b.a.a.a.a.a.a.a.a.a.a.a.a.`.`.`.`.`.`.`.`.`.",
"`.`.`.`.`.`.`.`.`.9 x x N x N x V x V x V x V x V V V T T ^ o.#.%.4.4.k.).R.I.J.G.F.B.B.n.b.k.k.a.a.a.a.a.a.a.a.a.a.a.a.a.a.E `.`.`.`.`.`.`.`.`.",
"`.`.`.`.`.`.`.`.`.O x x x N x Z x V x V x V x V x x V V V V x V V x V x k.k.k.k.a.a.k.a.a.k.a.a.a.a.a.a.a.a.a.a.a.a.a.a.a.4.Z `.`.`.`.`.`.`.`.`.",
"`.`.`.`.`.`.`.`.`.O O x V x Z x V x V x V x V x V x V x V x V x x V x V 7.k.k.k.a.a.a.a.a.a.a.a.a.a.a.a.a.a.a.a.a.a.a.k.4.T x `.`.`.`.`.`.`.`.`.",
"`.`.`.`.`.`.`.`.`.`.O O x V x V x V x V x V x V x V x V x V x V V x V x k.k.k.k.a.a.a.a.a.a.a.a.a.a.a.a.a.a.a.a.a.a.a.4.T x 0 `.`.`.`.`.`.`.`.`.",
"`.`.`.`.`.`.`.`.`.`.O   O 0 x x V x V x V x V x V x V x V x V x V x V x k.k.7.k.a.a.a.a.a.a.a.a.a.a.a.a.a.a.a.a.a.a.%.x x x `.`.`.`.`.`.`.`.`.`.",
"`.`.`.`.`.`.`.`.`.`.`.O     * x V V x V x V x V x V x V x V x V x V x V k.k.k.k.a.a.a.a.a.a.a.a.a.a.a.a.a.a.a.a.1.E x x x `.`.`.`.`.`.`.`.`.`.`.",
"`.`.`.`.`.`.`.`.`.`.`.`.O       * i x V V x V x V x V x V x V x V x V x k.k.k.k.a.a.a.a.a.a.a.a.a.a.a.a.a.a.%.^ x N x x `.`.`.`.`.`.`.`.`.`.`.`.",
"`.`.`.`.`.`.`.`.`.`.`.`.`.O           < i i x V x V x V x V x V x V x x k.k.k.7.a.a.a.a.a.a.a.a.a.a.r.#.^ T x x Z x x `.`.`.`.`.`.`.`.`.`.`.`.`.",
"`.`.`.`.`.`.`.`.`.`.`.`.`.`.`.O             * 9 0 x V V x V x V V x V x k.k.k.a.a.a.a.a.a.a.a.1.[ T Z x V x V x x `.`.`.`.`.`.`.`.`.`.`.`.`.`.`.",
"`.`.`.`.`.`.`.`.`.`.`.`.`.`.`.`.`.# O             * * * < 4 0 0 0 x x x a.r.4.1.#.#.[ ^ [ T x x x x x x x V x `.`.`.`.`.`.`.`.`.`.`.`.`.`.`.`.`.",
"`.`.`.`.`.`.`.`.`.`.`.`.`.`.`.`.`.`.`.`.*     O                         x x V x V x x x V x x x x x x Z x `.`.`.`.`.`.`.`.`.`.`.`.`.`.`.`.`.`.`.",
"`.`.`.`.`.`.`.`.`.`.`.`.`.`.`.`.`.`.`.`.`.`.`.* *                       x V x V x V x V x x x T T x `.`.`.`.`.`.`.`.`.`.`.`.`.`.`.`.`.`.`.`.`.`.",
"`.`.`.`.`.`.`.`.`.`.`.`.`.`.`.`.`.`.`.`.`.`.`.`.`.`.`.`.4 4 4 < * * * # x T T T T ^ ^ T Z `.`.`.`.`.`.`.`.`.`.`.`.`.`.`.`.`.`.`.`.`.`.`.`.`.`.`.",
"`.`.`.`.`.`.`.`.`.`.`.`.`.`.`.`.`.`.`.`.`.`.`.`.`.`.`.`.`.`.`.`.`.`.`.`.`.`.`.`.`.`.`.`.`.`.`.`.`.`.`.`.`.`.`.`.`.`.`.`.`.`.`.`.`.`.`.`.`.`.`.`.",
"`.`.`.`.`.`.`.`.`.`.`.`.`.`.`.`.`.`.`.`.`.`.`.`.`.`.`.`.`.`.`.`.`.`.`.`.`.`.`.`.`.`.`.`.`.`.`.`.`.`.`.`.`.`.`.`.`.`.`.`.`.`.`.`.`.`.`.`.`.`.`.`.",
"`.`.`.`.`.`.`.`.`.`.`.`.`.`.`.`.`.`.`.`.`.`.`.`.`.`.`.`.`.`.`.`.`.`.`.`.`.`.`.`.`.`.`.`.`.`.`.`.`.`.`.`.`.`.`.`.`.`.`.`.`.`.`.`.`.`.`.`.`.`.`.`."
};
