/* XPM */
static const char *device_computer[] = {
/* columns rows colors chars-per-pixel */
"72 72 36 1 ",
"  c #2C3E50",
". c #2C3E51",
"X c #2C3F51",
"o c #2D4052",
"O c #2D4053",
"+ c #2E4052",
"@ c #2E4154",
"# c #2E4254",
"$ c #2F4255",
"% c #2F4256",
"& c #2F4356",
"* c #304357",
"= c #314458",
"- c #314558",
"; c #314559",
": c #32455A",
"> c #32465A",
", c #33475B",
"< c #32475C",
"1 c #33475C",
"2 c #34485D",
"3 c #34495D",
"4 c #34495E",
"5 c #7F8C8D",
"6 c #859293",
"7 c #859394",
"8 c #869595",
"9 c #95A5A5",
"0 c #95A5A6",
"q c #95A5A7",
"w c #96A4A6",
"e c #95A6A6",
"r c #96A6A6",
"t c #BCC3C6",
"y c #BDC3C7",
"u c None",
/* pixels */
"uuuuuuuuuuuuuuuuuuuuuuuuuuuuuuuuuuuuuuuuuuuuuuuuuuuuuuuuuuuuuuuuuuuuuuuu",
"uuuuuuuuuuuuuuuuuuuuuuuuuuuuuuuuuuuuuuuuuuuuuuuuuuuuuuuuuuuuuuuuuuuuuuuu",
"uuuuuuuuuuuuuuuuuuuuuuuuuuuuuuuuuuuuuuuuuuuuuuuuuuuuuuuuuuuuuuuuuuuuuuuu",
"uuuuuuuuuuuuuuuuuuuuuuuuuuuuuuuuuuuuuuuuuuuuuuuuuuuuuuuuuuuuuuuuuuuuuuuu",
"uuuuuuuuuuuuuuuuuuuuuuuuuuuuuuuuuuuuuuuuuuuuuuuuuuuuuuuuuuuuuuuuuuuuuuuu",
"uuuuuuuuuuuuuuuuuuuuuuuuuuuuuuuuuuuuuuuuuuuuuuuuuuuuuuuuuuuuuuuuuuuuuuuu",
"uuuuuuuuuuuuuuuuuuuuuuuuuuuuuuuuuuuuuuuuuuuuuuuuuuuuuuuuuuuuuuuuuuuuuuuu",
"uuuuuuuuuuuuuuuuuuuuuuuuuuuuuuuuuuuuuuuuuuuuuuuuuuuuuuuuuuuuuuuuuuuuuuuu",
"uuuuuuuuuuuuuuuuuuuuuuuuuuuuuuuuuuuuuuuuuuuuuuuuuuuuuuuuuuuuuuuuuuuuuuuu",
"uuyyyyyyyyyyyyyyyyyyyyyyyyyyyyyyyyyyyyyyyyyyyyyyyyyyyyyyyyyyyyyyyyyyyyuu",
"uyyyyyyyyyyyyyyyyyyyyyyyyyyyyyyyyyyyyyyyyyyyyyyyyyyyyyyyyyyyyyyyyyyyyyyu",
"yyyyyyyyyyyyyyyyyyyyyyyyyyyyyyyyyyyyyyyyyyyyyyyyyyyyyyyyyyyyyyyyyyyyyyyy",
"yyy444444444444444444444444444444444444444444444444444444444444444442yyy",
"yyy444444444444444444444444444444444444444444444444444444444444444442yyy",
"yyy444444444444444444444444444444444444444444444444444444444444444222yyy",
"yyy44444444444444444444444444444444444444444444444444444444444444442$yyy",
"yyy4444444444444444444444444444444444444444444444444444444444444242  yyy",
"yyy44444444444444444444444444444444444444444444444444444444444442*   yyy",
"yyy444444444444444444444444444444444444444444444444444444444422$     yyy",
"yyy44444444444444444444444444444444444444444444444444444444442       yyy",
"yyy444444444444444444444444444444444444444444444444444444422$        yyy",
"yyy4444444444444444444444444444444444444444444444444444444$          yyy",
"yyy44444444444444444444444444444444444444444444444444444;            yyy",
"yyy4444444444444444444444444444444444444444444444444444$             yyy",
"yyy44444444444444444444444444444444444444444444444444$$              yyy",
"yyy4444444444444444444444444444444444444444444444442$                yyy",
"yyy44444444444444444444444444444444444444444444444$                  yyy",
"yyy444444444444444444444444444444444444444444444;                    yyy",
"yyy44444444444444444444444444444444444444444444$                     yyy",
"yyy444444444444444444444444444444444444444444$                       yyy",
"yyy44444444444444444444444444444444444444442$                        yyy",
"yyy444444444444444444444444444444444444442$                          yyy",
"ttt4444444444444444444444444444444444444;                            yyy",
"ttt44444444444444444444444444444444444;$                             yyy",
"ttt4444444444444444444444444444444444;                               yyy",
"ytt44444444444444444444444444444444;                                 yyy",
"yyy4444444444444444444444444444444$                                  yyy",
"yyy44444444444444444444444444444;                                    yyy",
"yyy4444444444444444444444444224.                                     yyy",
"yyy444444444444444444444444422                                       yyy",
"yyy4444444444444444444444444                                         yyy",
"yyy44444444444444444444444.                                          yyy",
"yyy4444444444444444444442                                            yyy",
"yyy44444444444444444442                                              yyy",
"yyy444444444444444442;                                               yyy",
"yyy4444444444444444;                                                 yyy",
"yyy444444444444442                                                   yyy",
"yyy4444444444442;                                                    yyy",
"yyy444444444442                                                      yyy",
"yyy4444444444.                                                       yyy",
"yyy444444442                                                         yyy",
"yyy4444444                                                           yyy",
"yyy44444.             ..                    .                       $yyy",
"yyy4444..       ..     .                    ..                       yyy",
"yyyyyyyyyyyyyyyyyyyyttyyyyyyyyyyyyyyyyyyyyyyyyyytttttyyyyyyyyyyyyyyyttyy",
"yyyyyyyyyyyyyyyyyyyyyyyyyyyyyyyyyyyyyyyyyyyyyyyytttttyyyyyyyyyyyyyyyytyy",
"yyyyyyyyyyyyyyyyyyyyyyyyyyyyttttyyyyyyyytttyyyyyyyyyyyyyyyyyyyyyyyyyyyyy",
"tyyyyyyyyyyyyyyyyyyyyyyyyyyyytttyyyyyyyyttyyyyyyyyyyyyyyyyyyyyyyyyyyyyyt",
"uyyyyyyyyyyyyyyyyyttyyyyyyyyyyttyyyyyyyyttttyyyyyyyyyyyyyyyyyyyyyyttyyyu",
"uuyyyyyyyyyyyyyyyyytyyyyyyyyyyttyyyyyyyyttttyyyyyyyyyyyyyyyyyyyyytttytuu",
"uuuuuuuuuuuuuuuuuuuuuuuuuu85555555556555555568uuuuuuuuuuuuuuuuuuuuuuuuuu",
"uuuuuuuuuuuuuuuuuuuuuuuuuu85555555555555555558uuuuuuuuuuuuuuuuuuuuuuuuuu",
"uuuuuuuuuuuuuuuuuuuuuuuuuu85555555555555555556uuuuuuuuuuuuuuuuuuuuuuuuuu",
"uuuuuuuuuuuuuuuuuuuuuuuuuuwwqqwwwwwwwwwwwwwwwwuuuuuuuuuuuuuuuuuuuuuuuuuu",
"uuuuuuuuuuuuuuuuuuuuuuuuuuwwweweqqqqqqwrwqeeqquuuuuuuuuuuuuuuuuuuuuuuuuu",
"uuuuuuuuuuuuuuuuuuuuuuuuuqwwwwewqqqqr8rwrqeeeweuuuuuuuuuuuuuuuuuuuuuuuuu",
"uuuuuuuuuuuuuuuuuuuuuuuuuqrrweweqqeewrwreeeewrwuuuuuuuuuuuuuuuuuuuuuuuuu",
"uuuuuuuuuuuuuuuuuuuuuuuuqqrrewewqqqerwrweeeerwrruuuuuuuuuuuuuuuuuuuuuuuu",
"uuuuuuuuuuuuuuuuuuuuuuuuqqqqweeeeeeewrwreeqqqqwruuuuuuuuuuuuuuuuuuuuuuuu",
"uuuuuuuuuuuuuuuuuuuuuuuqqqqqeweeeeeerwrwqeqqr8rwwuuuuuuuuuuuuuuuuuuuuuuu",
"uuuuuuuuuuuuuuuuuuuuuuqqqqeqeeeeeeqrwr8rqqqqwrwrewuuuuuuuuuuuuuuuuuuuuuu",
"uuuuuuuuuuuuuuuuuuuuuqqqqqeeeeeeeeqwrwqqqqqqrwrwwewuuuuuuuuuuuuuuuuuuuuu"
};
