/* XPM */
static const char *device_laptop[] = {
/* columns rows colors chars-per-pixel */
"72 72 32 1 ",
"  c #2C3E50",
". c #2C3E51",
"X c #2C3F51",
"o c #2D3F51",
"O c #2D3F52",
"+ c #2D4052",
"@ c #2E4053",
"# c #2E4153",
"$ c #2E4154",
"% c #2F4255",
"& c #2F4256",
"* c #2F4356",
"= c #304356",
"- c #304357",
"; c #304457",
": c #304458",
"> c #314458",
", c #314559",
"< c #32465A",
"1 c #32465B",
"2 c #32475B",
"3 c #33475C",
"4 c #33485C",
"5 c #33485D",
"6 c #34485D",
"7 c #34495D",
"8 c #34495E",
"9 c #7F8B8D",
"0 c #7F8C8D",
"q c #95A5A6",
"w c #BDC3C7",
"e c None",
/* pixels */
"eeeeeeeeeeeeeeeeeeeeeeeeeeeeeeeeeeeeeeeeeeeeeeeeeeeeeeeeeeeeeeeeeeeeeeee",
"eeeeeeeeeeeeeeeeeeeeeeeeeeeeeeeeeeeeeeeeeeeeeeeeeeeeeeeeeeeeeeeeeeeeeeee",
"eeeeeeeeeeeeeeeeeeeeeeeeeeeeeeeeeeeeeeeeeeeeeeeeeeeeeeeeeeeeeeeeeeeeeeee",
"eeeeeeeeeeeeeeeeeeeeeeeeeeeeeeeeeeeeeeeeeeeeeeeeeeeeeeeeeeeeeeeeeeeeeeee",
"eeeeeeeeeeeeeeeeeeeeeeeeeeeeeeeeeeeeeeeeeeeeeeeeeeeeeeeeeeeeeeeeeeeeeeee",
"eeeeeeeeeeeeeeeeeeeeeeeeeeeeeeeeeeeeeeeeeeeeeeeeeeeeeeeeeeeeeeeeeeeeeeee",
"eeeeeeeeeeeeeeeeeeeeeeeeeeeeeeeeeeeeeeeeeeeeeeeeeeeeeeeeeeeeeeeeeeeeeeee",
"eeeeeeeeeeeeeeeeeeeeeeeeeeeeeeeeeeeeeeeeeeeeeeeeeeeeeeeeeeeeeeeeeeeeeeee",
"eeeeeeeeeeeeeeeeeeeeeeeeeeeeeeeeeeeeeeeeeeeeeeeeeeeeeeeeeeeeeeeeeeeeeeee",
"eeeeeeeeeeeeeeeeeeeeeeeeeeeeeeeeeeeeeeeeeeeeeeeeeeeeeeeeeeeeeeeeeeeeeeee",
"eeeeeeeeeeeeeeeeeeeeeeeeeeeeeeeeeeeeeeeeeeeeeeeeeeeeeeeeeeeeeeeeeeeeeeee",
"eeeeeeeeeeeeeeeeeeeeeeeeeeeeeeeeeeeeeeeeeeeeeeeeeeeeeeeeeeeeeeeeeeeeeeee",
"eeeeeeeeeeeeeeeeeeeeeeeeeeeeeeeeeeeeeeeeeeeeeeeeeeeeeeeeeeeeeeeeeeeeeeee",
"eeeeeeeeeeeeeeeeeeeeeeeeeeeeeeeeeeeeeeeeeeeeeeeeeeeeeeeeeeeeeeeeeeeeeeee",
"eeeeeeeeeeeeeeeeeeeeeeeeeeeeeeeeeeeeeeeeeeeeeeeeeeeeeeeeeeeeeeeeeeeeeeee",
"eeeeeeeeeee00000000000000000000000000000000000000000000000000eeeeeeeeeee",
"eeeeeeeeee0000000000000000000000000000000000999900000000000000eeeeeeeeee",
"eeeeeeeee00000000000000000000000000000000000999q000000000000000eeeeeeeee",
"eeeeeeeee00088888888888888888888888888888888**88888888888888000eeeeeeeee",
"eeeeeeeee000888888888888888888888888888888888:88888888888888000eeeeeeeee",
"eeeeeeeee000888888888888888888888888888888888888888888888888000eeeeeeeee",
"eeeeeeeee000888888888888888888888888888888888888888888888888000eeeeeeeee",
"eeeeeeeee000888888888888888888888888888888888888888888888888000eeeeeeeee",
"eeeeeeeee000888888888888888888888888888888888888888888888888000eeeeeeeee",
"eeeeeeeee000888888888888888888888888888888888888888888888888000eeeeeeeee",
"eeeeeeeee000888888888888888888888888888888888888888888888833000eeeeeeeee",
"eeeeeeeee0008888888888888888888888888888888888888888888883* 000eeeeeeeee",
"eeeeeeeee00088888888888888888888888888888888888888888888*   000eeeeeeeee",
"eeeeeeeee000888888888888888888888888888888888888888838=     000eeeeeeeee",
"eeeeeeeee00088888888888888888888888888888888888888883*      000eeeeeeeee",
"eeeeeeeee000888888888888888888888888888888888888833*        000eeeeeeeee",
"eeeeeeeee0008888888888888888888888888888888888883*          000eeeeeeeee",
"eeeeeeeee000888888888888888888888888888888888883            000eeeeeeeee",
"eeeeeeeee0008888888888888888888888888888888883              000eeeeeeeee",
"eeeeeeeee00088888888888888888888888888888883*               000eeeeeeeee",
"eeeeeeeee000888888888888888888888888888888*                 000eeeeeeeee",
"eeeeeeeee0008888888888888888888888888888:*                  000eeeeeeeee",
"eeeeeeeee000888888888888888888888888882                     000eeeeeeeee",
"eeeeeeeee0008888888888888888888888888*                      000eeeeeeeee",
"eeeeeeeee00088888888888888888888888*                        000eeeeeeeee",
"eeeeeeeee000888888888888888888888*                          000eeeeeeeee",
"eeeeeeeee00088888888888888888833*                           000eeeeeeeee",
"eeeeeeeee000888888888888888883*                             000eeeeeeeee",
"eeeeeeeee0008888888888888888**                              000eeeeeeeee",
"eeeeeeeee000888888888888383                                 000eeeeeeeee",
"eeeeeeeee0008888888888883*                                  000eeeeeeeee",
"eeeeeeeee00088888888883*                                    000eeeeeeeee",
"eeeeeeeee000888888888=                                      000eeeeeeeee",
"eeeeeeeee00088888883                                        000eeeeeeeee",
"eeeeeeeee000888883*                                         000eeeeeeeee",
"eeeeeeeee0008888=                                           000eeeeeeeee",
"eeeeeeeee000000000000000000000000000000000000000000000000000000eeeeeeeee",
"eeeeeeeee000000000000000000000000000000000000000000000000000000eeeeeeeee",
"eeeeeeeee000000000000000000000000000000000000000000000000000000eeeeeeeee",
"eeeeeeeewwwwwwwwwwwwwwwwwwwwwwwwwwwwwwwwwwwwwwwwwwwwwwwwwwwwwwwwweeeeeee",
"eeeeewwwwwwwwwwwwwwwwwwwwwwwwwwwwwwwwwwwwwwwwwwwwwwwwwwwwwwwwwwwwwwweeee",
"eewwwwwwwwwwwwwwwwwwwwwwwwwwwwwwwwwwwwwwwwwwwwwwwwwwwwwwwwwwwwwwwwwwwwwe",
"qqqqqqqqqqqqqqqqqqqqqqqqqqqqqq000000000000qqqqqqqqqqqqqqqqqqqqqqqqqqqqqq",
"qqqqqqqqqqqqqqqqqqqqqqqqqqqqqq000000000000qqqqqqqqqqqqqqqqqqqqqqqqqqqqqq",
"qqqqqqqqqqqqqqqqqqqqqqqqqqqqqq000000000000qqqqqqqqqqqqqqqqqqqqqqqqqqqqqq",
"eeeeeeeeeeeeeeeeeeeeeeeeeeeeeeeeeeeeeeeeeeeeeeeeeeeeeeeeeeeeeeeeeeeeeeee",
"eeeeeeeeeeeeeeeeeeeeeeeeeeeeeeeeeeeeeeeeeeeeeeeeeeeeeeeeeeeeeeeeeeeeeeee",
"eeeeeeeeeeeeeeeeeeeeeeeeeeeeeeeeeeeeeeeeeeeeeeeeeeeeeeeeeeeeeeeeeeeeeeee",
"eeeeeeeeeeeeeeeeeeeeeeeeeeeeeeeeeeeeeeeeeeeeeeeeeeeeeeeeeeeeeeeeeeeeeeee",
"eeeeeeeeeeeeeeeeeeeeeeeeeeeeeeeeeeeeeeeeeeeeeeeeeeeeeeeeeeeeeeeeeeeeeeee",
"eeeeeeeeeeeeeeeeeeeeeeeeeeeeeeeeeeeeeeeeeeeeeeeeeeeeeeeeeeeeeeeeeeeeeeee",
"eeeeeeeeeeeeeeeeeeeeeeeeeeeeeeeeeeeeeeeeeeeeeeeeeeeeeeeeeeeeeeeeeeeeeeee",
"eeeeeeeeeeeeeeeeeeeeeeeeeeeeeeeeeeeeeeeeeeeeeeeeeeeeeeeeeeeeeeeeeeeeeeee",
"eeeeeeeeeeeeeeeeeeeeeeeeeeeeeeeeeeeeeeeeeeeeeeeeeeeeeeeeeeeeeeeeeeeeeeee",
"eeeeeeeeeeeeeeeeeeeeeeeeeeeeeeeeeeeeeeeeeeeeeeeeeeeeeeeeeeeeeeeeeeeeeeee",
"eeeeeeeeeeeeeeeeeeeeeeeeeeeeeeeeeeeeeeeeeeeeeeeeeeeeeeeeeeeeeeeeeeeeeeee",
"eeeeeeeeeeeeeeeeeeeeeeeeeeeeeeeeeeeeeeeeeeeeeeeeeeeeeeeeeeeeeeeeeeeeeeee"
};
