/* XPM */
static char *file_font[] = {
/* columns rows colors chars-per-pixel */
"72 72 98 2 ",
"   c #34495E",
".  c #35495E",
"X  c #354A5F",
"o  c #364A5F",
"O  c #374C60",
"+  c #394D62",
"@  c #394E62",
"#  c #3B4F63",
"$  c #3E5265",
"%  c #405467",
"&  c #415468",
"*  c #425569",
"=  c #43566A",
"-  c #44576A",
";  c #45586B",
":  c #46596C",
">  c #485B6D",
",  c #495C6E",
"<  c #4B5D6F",
"1  c #4B5E70",
"2  c #4C5E70",
"3  c #4F6173",
"4  c #536475",
"5  c #596A7A",
"6  c #5B6C7C",
"7  c #617180",
"8  c #627281",
"9  c #647483",
"0  c #657584",
"q  c #667584",
"w  c #677685",
"e  c #687786",
"r  c #697886",
"t  c #6A7987",
"y  c #6A7988",
"u  c #6C7B89",
"i  c #6D7C8A",
"p  c #6F7E8B",
"a  c #707E8C",
"s  c #72808D",
"d  c #73818F",
"f  c #768390",
"g  c #7D8E94",
"h  c #7F8C97",
"j  c #818E99",
"k  c #84909B",
"l  c #85919C",
"z  c #87939E",
"x  c #89959F",
"c  c #8A96A0",
"v  c #8C97A2",
"b  c #8D98A2",
"n  c #919CA5",
"m  c #929DA6",
"M  c #939EA7",
"N  c #959FA8",
"B  c #95A5A6",
"V  c #96A5A7",
"C  c #96A6A6",
"Z  c #96A1A9",
"A  c #98A2AB",
"S  c #9AA4AC",
"D  c #9BA4AD",
"F  c #9CA5AD",
"G  c #9DA7AF",
"H  c #99A8A9",
"J  c #9FA8B0",
"K  c #A0A9B1",
"L  c #A1AAB1",
"P  c #A2ABB2",
"I  c #A1AEB0",
"U  c #A2AFB1",
"Y  c #A3ACB3",
"T  c #A5AEB5",
"R  c #A6AFB6",
"E  c #A7AFB6",
"W  c #A5B1B3",
"Q  c #ADB7BA",
"!  c #B1BABD",
"~  c #B2B9BF",
"^  c #B3BBBF",
"/  c #B3BAC0",
"(  c #B4BBC0",
")  c #B5BCC1",
"_  c #B7BDC2",
"`  c #B7BEC2",
"'  c #B8BEC3",
"]  c #B8BFC3",
"[  c #B9BFC4",
"{  c #B9C0C4",
"}  c #BAC0C5",
"|  c #BBC2C6",
" . c #BCC3C6",
".. c #BCC3C7",
"X. c #BDC3C7",
"o. c #BEC3C7",
"O. c #BEC3C8",
"+. c None",
/* pixels */
"+.+.+.+.+.+.+.+.+.+.+.+.+.+.+.+.+.+.+.+.+.+.+.+.+.+.+.+.+.+.+.+.+.+.+.+.+.+.+.+.+.+.+.+.+.+.+.+.+.+.+.+.+.+.+.+.+.+.+.+.+.+.+.+.+.+.+.+.+.+.+.+.",
"+.+.+.+.+.+.+.+.+.+.+.+.+.+.+.+.+.+.+.+.+.+.+.+.+.+.+.+.+.+.+.+.+.+.+.+.+.+.+.+.+.+.+.+.+.+.+.+.+.+.+.+.+.+.+.+.+.+.+.+.+.+.+.+.+.+.+.+.+.+.+.+.",
"+.+.+.+.+.+.+.+.+.+.+.+.+.+.+.+.+.+.+.+.+.+.+.+.+.+.+.+.+.+.+.+.+.+.+.+.+.+.+.+.+.+.+.+.+.+.+.+.+.+.+.+.+.+.+.+.+.+.+.+.+.+.+.+.+.+.+.+.+.+.+.+.",
"+.+.+.+.+.+.+.+.+.+.+.+.+.X.X.X.X.X.X.X.X.X.X.X.X.X.X.X.X.X.X.X.X.X.X.X.X.X.X.X.X.X.X.X.X.U +.+.+.+.+.+.+.+.+.+.+.+.+.+.+.+.+.+.+.+.+.+.+.+.+.+.",
"+.+.+.+.+.+.+.+.+.+.+.X.X.X.X.X.X.X.X.X.X.X.X.X.X.X.X.X.X.X.X.X.X.X.X.X.X.X.X.X.X.X.X.X.X.B U +.+.+.+.+.+.+.+.+.+.+.+.+.+.+.+.+.+.+.+.+.+.+.+.+.",
"+.+.+.+.+.+.+.+.+.+.X.X.X.X.X.X.X.X.X.X.X.X.X.X.X.X.X.X.X.X.X.X.X.X.X.X.X.X.X.X.X.X.X.X.X.B B U +.+.+.+.+.+.+.+.+.+.+.+.+.+.+.+.+.+.+.+.+.+.+.+.",
"+.+.+.+.+.+.+.+.+.+.X.X.X.X.X.X.X.X.X.X.X.X.X.X.X.X.X.X.X.X.X.X.X.X.X.X.X.X.X.X.X.X.X.X.X.B B B U +.+.+.+.+.+.+.+.+.+.+.+.+.+.+.+.+.+.+.+.+.+.+.",
"+.+.+.+.+.+.+.+.+.X.X.X.X.X.X.X.X.X.X.X.X.X.X.X.X.X.X.X.X.X.X.X.X.X.X.X.X.X.X.X.X.X.X.X.X.B B B B U +.+.+.+.+.+.+.+.+.+.+.+.+.+.+.+.+.+.+.+.+.+.",
"+.+.+.+.+.+.+.+.+.O.X.X.X.X.X.X.X.X.X.X.X.X.X.X.X.X.X.X.X.X.X.X.X.X.X.X.X.X.X.X.X.X.X.X.X.B B B B B U +.+.+.+.+.+.+.+.+.+.+.+.+.+.+.+.+.+.+.+.+.",
"+.+.+.+.+.+.+.+.+.X.X.X.X.X.X.X.X.X.X.X.X.X.X.X.X.X.X.X.X.X.X.X.X.X.X.X.X.X.X.X.X.X.X.X.X.B B B B B B U +.+.+.+.+.+.+.+.+.+.+.+.+.+.+.+.+.+.+.+.",
"+.+.+.+.+.+.+.+.+.X.X.X.X.X.X.X.X.X.X.X.X.X.X.X.X.X.X.X.X.X.X.X.X.X.X.X.X.X.X.X.X.X.X.X.X.B B B B B B B U +.+.+.+.+.+.+.+.+.+.+.+.+.+.+.+.+.+.+.",
"+.+.+.+.+.+.+.+.+.X.X.X.X.X.X.X.X.X.X.X.X.X.X.X.X.X.X.X.X.X.X.X.X.X.X.X.X.X.X.X.X.X.X.X.X.B B B B B B B B U +.+.+.+.+.+.+.+.+.+.+.+.+.+.+.+.+.+.",
"+.+.+.+.+.+.+.+.+.X.X.X.X.X.X.X.X.X.X.X.X.X.X.X.X.X.X.X.X.X.X.X.X.X.X.X.X.X.X.X.X.X.X.X.X.B B B B B B B B B U +.+.+.+.+.+.+.+.+.+.+.+.+.+.+.+.+.",
"+.+.+.+.+.+.+.+.+.X.X.X.X.X.X.X.X.X.X.X.X.X.X.X.X.X.X.X.X.X.X.X.X.X.X.X.X.X.X.X.X.X.X.X.X.B B B B B B B B B B U +.+.+.+.+.+.+.+.+.+.+.+.+.+.+.+.",
"+.+.+.+.+.+.+.+.+.X.X.X.X.X.X.X.X.X.X.X.X.X.X.X.X.X.X.X.X.X.X.X.X.X.X.X.X.X.X.X.X.X.X.X.X.B B B B B B B B B B B U +.+.+.+.+.+.+.+.+.+.+.+.+.+.+.",
"+.+.+.+.+.+.+.+.+.X.X.X.X.X.X.X.X.X.X.X.X.X.X.X.X.X.X.X.X.X.X.X.X.X.X.X.X.X.X.X.X.X.X.X.X.H B B B B B B B B B B B U +.+.+.+.+.+.+.+.+.+.+.+.+.+.",
"+.+.+.+.+.+.+.+.+.X.X.X.X.X.X.X.X.X.X.X.X.X.X.X.X.X.X.X.X.X.X.X.X.X.X.X.X.X.X.X.X.X.X.X.X.U B B B B B B B B B B B B U +.+.+.+.+.+.+.+.+.+.+.+.+.",
"+.+.+.+.+.+.+.+.+.X.X.X.X.X.X.X.X.X.X.X.X.X.X.X.X.X.X.X.X.X.X.X.X.X.X.X.X.X.X.X.X.X.X.X.X.Q B B B B B B B B B B B B B U +.+.+.+.+.+.+.+.+.+.+.+.",
"+.+.+.+.+.+.+.+.+.X.X.X.X.X.X.X.X.X.X.X.X.X.X.X.X.X.X.X.X.X.X.X.X.X.X.X.X.X.X.X.X.X.X.X.X.U g B B B B B B B B B B B B B U +.+.+.+.+.+.+.+.+.+.+.",
"+.+.+.+.+.+.+.+.+.X.X.X.X.X.X.X.X.X.X.X.X.X.X.X.X.X.X.X.X.X.X.X.X.X.X.X.X.X.X.X.X.X.O.O.' 2 $ g B B B B B B B B B B B B B U +.+.+.+.+.+.+.+.+.+.",
"+.+.+.+.+.+.+.+.+.X.X.X.X.X.X.X.X.X.X.X.X.X.X.X.X.X.X.X.X.X.X.X.X.X.X.X.X.X.X.X.X.X.X.X.f       Q U H B B B B B B B B B B B U +.+.+.+.+.+.+.+.+.",
"+.+.+.+.+.+.+.+.+.X.X.X.X.X.X.X.X.X.X.X.X.X.X.X.X.X.X.X.X.X.X.X.X.X.X.X.X.X.X.X.X.X.' U O       X.X.X.X.X.X.X.X.X.X.X.X.X.X.X.+.+.+.+.+.+.+.+.+.",
"+.+.+.+.+.+.+.+.+.X.X.X.X.X.X.X.X.X.X.X.X.X.X.X.X.X.X.X.X.X.X.X.X.X.X.X.X.X.X.X.O.O.' 2         X.X.X.X.X.X.X.X.X.X.X.X.X.X.X.+.+.+.+.+.+.+.+.+.",
"+.+.+.+.+.+.+.+.+.X.X.X.X.X.X.X.X.X.X.X.X.X.X.X.X.X.X.X.X.X.X.X.X.X.X.X.X.X.X.O.O.O.a O         X.X.X.X.X.X.X.X.X.X.X.X.X.X.X.+.+.+.+.+.+.+.+.+.",
"+.+.+.+.+.+.+.+.+.X.X.X.X.X.X.X.X.X.X.X.X.X.X.X.X.X.X.X.X.X.X.X.X.X.X.X.X.X.X.X.O.J             X.X.X.X.X.X.X.X.X.X.X.X.X.X.X.+.+.+.+.+.+.+.+.+.",
"+.+.+.+.+.+.+.+.+.X.X.X.X.X.X.X.X.X.X.X.X.X.X.X.X.X.X.X.X.X.X.X.X.X.X.X.X.X.X.X.' <             X.X.X.X.X.X.X.X.X.X.X.X.X.X.X.+.+.+.+.+.+.+.+.+.",
"+.+.+.+.+.+.+.+.+.X.X.X.X.X.X.X.X.X.X.X.X.X.X.X.X.X.X.X.X.X.X.X.X.X.X.X.O.O.X.X.s               X.X.X.X.X.X.X.X.X.X.X.X.X.X.X.+.+.+.+.+.+.+.+.+.",
"+.+.+.+.+.+.+.+.+.X.X.X.X.X.X.X.X.X.X.X.X.X.X.X.X.X.X.X.X.X.X.X.X.X.X.X.O.O.O.H                 X.X.X.X.X.X.X.X.X.X.X.X.X.X.X.+.+.+.+.+.+.+.+.+.",
"+.+.+.+.+.+.+.+.+.X.X.X.X.X.X.X.X.X.X.X.X.X.X.X.X.X.X.X.X.X.X.X.X.X.X.X.O.X._ :                 X.X.X.X.X.X.X.X.X.X.X.X.X.X.X.+.+.+.+.+.+.+.+.+.",
"+.+.+.+.+.+.+.+.+.X.X.X.X.X.X.X.X.X.X.X.X.X.X.X.X.X.X.X.X.X.X.X.X.X.X.X.X.X.a                   X.X.X.X.X.X.X.X.X.X.X.X.X.X.X.+.+.+.+.+.+.+.+.+.",
"+.+.+.+.+.+.+.+.+.X.X.X.X.X.X.X.X.X.X.X.X.X.X.X.X.X.X.X.X.X.X.X.X.X.O.O.O.H       w             X.X.X.X.X.X.X.X.X.X.X.X.X.X.X.+.+.+.+.+.+.+.+.+.",
"+.+.+.+.+.+.+.+.+.X.X.X.X.X.X.X.X.X.X.X.X.X.X.X.X.X.X.X.X.X.X.X.X.X.O.O.' :     < '             X.X.X.X.X.X.X.X.X.X.X.X.X.X.X.+.+.+.+.+.+.+.+.+.",
"+.+.+.+.+.+.+.+.+...o...o...o...o...o...o...o...o...o...o.o.o.O.X.X.O.O.y     + U O.O           O.X.X.X.X.X.X.X.X.X.X.X.X.X.X.+.+.+.+.+.+.+.+.+.",
"+.+.+.+.+.+.+.+.+.o...o...o...o...o...o...o...o...o...o.o.o.o...X.X.O.H O     c X.X.            O.X.X.X.X.X.X.X.X.X.X.X.X.X.X.+.+.+.+.+.+.+.+.+.",
"+.+.+.+.+.+.+.+.+.o.o...o...o...o...o...o...o...o...o.o.o.o...O.X.X._ ;     w X.X.X.            X.X.X.X.X.X.X.X.X.X.X.X.X.X.X.+.+.+.+.+.+.+.+.+.",
"+.+.+.+.+.+.+.+.+.o...o...o...o...o...o...o...o...o.o.o.o.o.O...X.X.y     2 _ X.X.X.            X.X.X.X.X.X.X.X.X.X.X.X.X.X.X.+.+.+.+.+.+.+.+.+.",
"+.+.+.+.+.+.+.+.+.o.o.o.o...o...o...o...o...o...o...o.....O...O.O.Z     + U O.O.X.X.            X.X.X.X.X.X.X.X.X.X.X.X.X.X.X.+.+.+.+.+.+.+.+.+.",
"+.+.+.+.+.+.+.+.+.o.o.o...o...o...o...o...o...o...o...o.....O..._ ;     z O.O.O.X.X.            X.X.X.X.X.X.X.X.X.X.X.X.X.X.X.+.+.+.+.+.+.+.+.+.",
"+.+.+.+.+.+.+.+.+...o.o.o...o...o...o...o...o...o...o...........e     w X.X.O.X.X.X.            X.X.X.X.X.X.X.X.X.X.X.X.X.X.X.+.+.+.+.+.+.+.+.+.",
"+.+.+.+.+.+.+.+.+.o.o.o...o...o...o...o...o...o...o...o.......Z     2 _ X.X.X.X.X.X.            X.X.X.X.X.X.X.X.X.X.X.X.X.X.X.+.+.+.+.+.+.+.+.+.",
"+.+.+.+.+.+.+.+.+.o.o.o.o.o.o...o...o...o...o...X.X.X.X.X.X._ $   + W O.X.X.X.X.X.X.            X.X.X.X.X.X.X.X.X.X.X.X.X.X.X.+.+.+.+.+.+.+.+.+.",
"+.+.+.+.+.+.+.+.+.o.o.o.o.o...o...o...o...o...o.X.X.X.X.X.X.w     z O.O.X.X.X.X.X.X.            X.X.X.X.X.X.X.X.X.X.X.X.X.X.X.+.+.+.+.+.+.+.+.+.",
"+.+.+.+.+.+.+.+.+.o.o.o.o...o...o...o...o...o...X.X.X.X.X.Z O                                   X.X.X.X.X.X.X.X.X.X.X.X.X.X.X.+.+.+.+.+.+.+.+.+.",
"+.+.+.+.+.+.+.+.+.o.o.o...o...o...o...o...o...o.X.X.X.X./ $                                     X.X.X.X.X.X.X.X.X.X.X.X.X.X.X.+.+.+.+.+.+.+.+.+.",
"+.+.+.+.+.+.+.+.+.o.o.o.o...o...o...o...o...o...X.X.X.O.w                                       X.X.X.X.X.X.X.X.X.X.X.X.X.X.X.+.+.+.+.+.+.+.+.+.",
"+.+.+.+.+.+.+.+.+.o.o.o...o...o...o...o...o...o.X.X.X.m     y X.X.O.X.X.X.X.X.X.X.X.            X.X.X.X.X.X.X.X.X.X.X.X.X.X.X.+.+.+.+.+.+.+.+.+.",
"+.+.+.+.+.+.+.+.+.o.o...o...o...o...o...o...o...O.X._ $   3 } } X.X.X.X.X.X.X.X.X.X.            X.X.X.X.X.X.X.X.X.X.X.X.X.X.X.+.+.+.+.+.+.+.+.+.",
"+.+.+.+.+.+.+.+.+.o...o...o...o...o...o...o...o.O.} w   @ J X.X.X.X.X.X.X.X.X.X.X.X.            X.X.X.X.X.X.X.X.X.X.X.X.X.X.X.+.+.+.+.+.+.+.+.+.",
"+.+.+.+.+.+.+.+.+.o.o.o.o...o...X.X.X.X.X.X.X.X.X.b O O l O.O.X.X.X.X.X.X.X.X.X.X.X.            X.X.X.X.X.X.X.X.X.X.X.X.X.X.X.+.+.+.+.+.+.+.+.+.",
"+.+.+.+.+.+.+.+.+.o.o.o...o...o.X.X.X.X.X.X.X.O.~ $   w X.X.X.X.X.X.X.X.X.X.X.X.X.X.            X.X.X.X.X.X.X.X.X.X.X.X.X.X.X.+.+.+.+.+.+.+.+.+.",
"+.+.+.+.+.+.+.+.+.o.o.o.o...o...X.X.X.X.X.X.X.O.7 O : _ X.X.X.X.X.X.X.X.X.X.X.X.X.U             _ X.X.X.X.X.X.X.X.X.X.X.X.X.X.+.+.+.+.+.+.+.+.+.",
"+.+.+.+.+.+.+.+.+.o.o.o...o...o.X.X.X.X.X.X.X.h   O H O.X.X.X.X.X.X.X.X.X.X.X.X.O.c             _ X.X.X.X.X.X.X.X.X.X.X.X.X.X.+.+.+.+.+.+.+.+.+.",
"+.+.+.+.+.+.+.+.+...o...o...o...X.X.X.X.O.O.n     5 O.O.X.X.X.X.X.X.X.X.O.X.X.X.O.y             U O.X.X.X.X.X.X.X.X.X.X.X.X.X.+.+.+.+.+.+.+.+.+.",
"+.+.+.+.+.+.+.+.+.o...o...o...o.X.X.X.X.O.J O   O j O.O.X.X.X.X.X.X.X.X.O.O.X.X._ +             j O.X.X.X.X.X.X.X.X.X.X.X.X.X.+.+.+.+.+.+.+.+.+.",
"+.+.+.+.+.+.+.+.+.o.o...o...o...O.X.O.O.W $     O y O.O.X.O.X.X.X.X.X.X.O.O.X.O.w               w O.X.X.X.X.X.X.X.X.X.X.X.X.X.+.+.+.+.+.+.+.+.+.",
"+.+.+.+.+.+.+.+.+.o...o...o...o.O.O.c 5 O O       O e m } O.X.X.X.X.X.X.U n g 4                   2 c X.X.X.X.X.X.X.X.X.X.X.X.+.+.+.+.+.+.+.+.+.",
"+.+.+.+.+.+.+.+.+.o.o.o.o...o...X.X.                    _ X.X.X.X.X.X.X.                              X.X.X.X.X.X.X.X.X.X.X.X.+.+.+.+.+.+.+.+.+.",
"+.+.+.+.+.+.+.+.+.o.o.o...o...o.X.X.X.X.X.X.X.X.X.X.X.X.O.X.X.X.X.X.X.X.X.X.X.X.X.X.X.X.X.X.X.X.X.X.X.X.X.X.X.X.X.X.X.X.X.X.X.+.+.+.+.+.+.+.+.+.",
"+.+.+.+.+.+.+.+.+.o.o.o.o...o...X.X.X.X.X.X.X.X.X.X.X.X.O.X.X.X.X.X.X.X.X.X.X.X.X.X.X.X.X.X.X.X.X.X.X.X.X.X.X.X.X.X.X.X.X.X.X.+.+.+.+.+.+.+.+.+.",
"+.+.+.+.+.+.+.+.+.o.o.o...o...o.X.X.X.X.X.X.X.X.X.X.X.X.X.X.X.X.X.X.X.X.X.X.X.X.X.X.X.X.X.X.X.X.X.X.X.X.X.X.X.X.X.X.X.X.X.X.X.+.+.+.+.+.+.+.+.+.",
"+.+.+.+.+.+.+.+.+...o...o...o...X.X.X.X.X.X.X.X.X.X.X.X.X.X.X.X.X.X.X.X.X.X.X.X.X.X.X.X.X.X.X.X.X.X.X.X.X.X.X.X.X.X.X.X.X.X.X.+.+.+.+.+.+.+.+.+.",
"+.+.+.+.+.+.+.+.+.o...o...o...o.X.X.X.X.X.X.X.X.X.X.X.X.X.X.X.X.X.X.X.X.X.X.X.X.X.X.X.X.X.X.X.X.X.X.X.X.X.X.X.X.X.X.X.X.X.X.X.+.+.+.+.+.+.+.+.+.",
"+.+.+.+.+.+.+.+.+.o.o...o...o...X.X.X.X.X.X.X.X.X.X.X.X.X.X.X.X.X.X.X.X.X.X.X.X.X.X.X.X.X.X.X.X.X.X.X.X.X.X.X.X.X.X.X.X.X.X.X.+.+.+.+.+.+.+.+.+.",
"+.+.+.+.+.+.+.+.+.X...o...o...o.X.X.X.X.X.X.X.X.X.X.X.X.X.X.X.X.X.X.X.X.X.X.X.X.X.X.X.X.X.X.X.X.X.X.X.X.X.X.X.X.X.X.X.X.X.X.X.+.+.+.+.+.+.+.+.+.",
"+.+.+.+.+.+.+.+.+.^ X.X.X.X.X.X.X.X.X.X.X.X.X.X.X.X.X.X.X.X.X.X.X.X.X.X.X.X.X.X.X.X.X.X.X.X.X.X.X.X.X.X.X.X.X.X.X.X.X.X.X.X.^ +.+.+.+.+.+.+.+.+.",
"+.+.+.+.+.+.+.+.+.W X.X.X.X.X.X.X.X.X.X.X.X.X.X.X.X.X.X.X.X.X.X.X.X.X.X.X.X.X.X.X.X.X.X.X.X.X.X.X.X.X.X.X.X.X.X.X.X.X.X.X.X.W +.+.+.+.+.+.+.+.+.",
"+.+.+.+.+.+.+.+.+.B ^ X.X.X.X.X.X.X.X.X.X.X.X.X.X.X.X.X.X.X.X.X.X.X.X.X.X.X.X.X.X.X.X.X.X.X.X.X.X.X.X.X.X.X.X.X.X.X.X.X.X.^ B +.+.+.+.+.+.+.+.+.",
"+.+.+.+.+.+.+.+.+.B H ^ X.X.X.X.X.X.X.X.X.X.X.X.X.X.X.X.X.X.X.X.X.X.X.X.X.X.X.X.X.X.X.X.X.X.X.X.X.X.X.X.X.X.X.X.X.X.X.X.^ C B +.+.+.+.+.+.+.+.+.",
"+.+.+.+.+.+.+.+.+.+.B B W ~ X.X.X.X.X.X.X.X.X.X.X.X.X.X.X.X.X.X.X.X.X.X.X.X.X.X.X.X.X.X.X.X.X.X.X.X.X.X.X.X.X.X.O.X.~ W B B +.+.+.+.+.+.+.+.+.+.",
"+.+.+.+.+.+.+.+.+.+.C B B B B B B B B B B B B B B B B B B B B B B B B B B B B B B B B B B B B B B B B B B B B B B B B B B B +.+.+.+.+.+.+.+.+.+.",
"+.+.+.+.+.+.+.+.+.+.+.B B B B B B B B B B B B B B B B B B B B B B B B B B B B B B B B B B B B B B B B B B B B B B B B B C +.+.+.+.+.+.+.+.+.+.+.",
"+.+.+.+.+.+.+.+.+.+.+.+.+.B C C B B B B B B B B B B B B B B B B B B B B B B B B B B B B B B B B B B B B B B B B B B B +.+.+.+.+.+.+.+.+.+.+.+.+."
};
