/* XPM */
static char *file_note[] = {
/* columns rows colors chars-per-pixel */
"72 72 31 1 ",
"  c #95A4A6",
". c #95A5A6",
"X c #96A5A7",
"o c #94A6A6",
"O c #96A6A6",
"+ c #97A7A8",
"@ c #98A7A8",
"# c #99A8A9",
"$ c #9DABAC",
"% c #9FACAE",
"& c #9FADAE",
"* c #A1AEB0",
"= c #A2AFB1",
"- c #A5B1B3",
"; c #AAB5B7",
": c #ADB7BA",
"> c #AFB8BB",
", c #AFB9BB",
"< c #B1BABD",
"1 c #B3BBBF",
"2 c #B6BEC2",
"3 c #B9C0C4",
"4 c #BCC2C6",
"5 c #BCC3C6",
"6 c #BDC3C7",
"7 c #BEC2C7",
"8 c #BEC3C7",
"9 c #BCC2C8",
"0 c #BDC3C8",
"q c #BEC3C8",
"w c None",
/* pixels */
"wwwwwwwwwwwwwwwwwwwwwwwwwwwwwwwwwwwwwwwwwwwwwwwwwwwwwwwwwwwwwwwwwwwwwwww",
"wwwwwwwwwwwwwwwwwwwwwwwwwwwwwwwwwwwwwwwwwwwwwwwwwwwwwwwwwwwwwwwwwwwwwwww",
"wwwwwwwwwwwwwwwwwwwwwwwwwwwwwwwwwwwwwwwwwwwwwwwwwwwwwwwwwwwwwwwwwwwwwwww",
"wwwwwwwwwwwww66666666666666666666666666666666-wwwwwwwwwwwwwwwwwwwwwwwwww",
"wwwwwwwwwww6666666666666666666666666666666666 -wwwwwwwwwwwwwwwwwwwwwwwww",
"wwwwwwwwww66666666666666666666666666666666666  =wwwwwwwwwwwwwwwwwwwwwwww",
"wwwwwwwwww66666666666666666666666666666666666o o-wwwwwwwwwwwwwwwwwwwwwww",
"wwwwwwwww666666666666666666666666666666666666 o  -wwwwwwwwwwwwwwwwwwwwww",
"wwwwwwwwwq66666666666666666666666666666666666o o  -wwwwwwwwwwwwwwwwwwwww",
"wwwwwwwww66666666<=@&;66666666666666666666666 o o  -wwwwwwwwwwwwwwwwwwww",
"wwwwwwwww6666666-  o  &6666666666666666666666o o o  -wwwwwwwwwwwwwwwwwww",
"wwwwwwwww666666<o o    ;666666666666666666666 o o    =wwwwwwwwwwwwwwwwww",
"wwwwwwwwwoOo     owww  &666666666666666666666  o o oo -wwwwwwwwwwwwwwwww",
"wwwwwwwww      owwwwwwwo666666666666666666666oo o o  o -wwwwwwwwwwwwwwww",
"wwwwwwwwwO oo o wwwwwww-666666666666666666666   Oo oo   =wwwwwwwwwwwwwww",
"wwwwwwwww6666666wwwwwww<666666666666666666666&    o  o   =wwwwwwwwwwwwww",
"wwwwwwwww6666666wwwwwww6666666666666666666666&     o oOoO =wwwwwwwwwwwww",
"wwwwwwwww666666668wwwq66666666666666666666666,o oO O O  o O=wwwwwwwwwwww",
"wwwwwwwww6666666666666666666666666666666666666& Oo o o  OoOo-wwwwwwwwwww",
"wwwwwwwww66666666666666666666666666666666666666&   O OoO     -wwwwwwwwww",
"wwwwwwwww666666666666666666666666666666666666666,*@  o oo     =wwwwwwwww",
"wwwwwwwww666666666666666666666666666666666666666666666666666666wwwwwwwww",
"wwwwwwwww666666666666666666666666666666666666666666666666666666wwwwwwwww",
"wwwwwwwww666666666666666666666666666666666666666666666666666666wwwwwwwww",
"wwwwwwwww66666666,- &;66666666666666666666666666666666666666666wwwwwwwww",
"wwwwwwwww6666666-   o &6666666666666666666666666666666666666666wwwwwwwww",
"wwwwwwwww866666< o o   ;666666666666666666666666666666666666666wwwwwwwww",
"wwwwwwwwwo  o  oo www  &666666666666666666666666666666666666666wwwwwwwww",
"wwwwwwwww O  oo wwwwwww+666666666666666666666666666666666666666wwwwwwwww",
"wwwwwwwwwoo  O  wwwwwww&666666666666666666666666666666666666666wwwwwwwww",
"wwwwwwwww666666qwwwwwww6666666666666666666666666666666666666666wwwwwwwww",
"wwwwwwwww8666666wwwwwww6666666666666666666666666666666666666666wwwwwwwww",
"wwwwwwwww666666666www666666666666666666666666666666666666666666wwwwwwwww",
"wwwwwwwww666666666666666666666666666666666666666666666666666666wwwwwwwww",
"wwwwwwwww666666666666666666666666666666666666666666666666666666wwwwwwwww",
"wwwwwwwww666666666666666666666666666666666666666666666666666666wwwwwwwww",
"wwwwwwwww666666666666666666666666666666666666666666666666666666wwwwwwwww",
"wwwwwwwww666666666666666666666666666666666666666666666666666666wwwwwwwww",
"wwwwwwwww666666666666666666666666666666666666666666666666666666wwwwwwwww",
"wwwwwwwww66666666:=@&;66666666666666666666666666666666666666666wwwwwwwww",
"wwwwwwwww6666666-  o o*6666666666666666666666666666666666666666wwwwwwwww",
"wwwwwwwww666666<  o o  ;666666666666666666666666666666666666666wwwwwwwww",
"wwwwwwwww o oO O  wwwo &666666666666666666666666666666666666666wwwwwwwww",
"wwwwwwwwwo o o owwwwwwwo666666666666666666666666666666666666666wwwwwwwww",
"wwwwwwwww       wwwwwww-666666666666666666666666666666666666666wwwwwwwww",
"wwwwwwwww666666qwwwwwww2666666666666666666666666666666666666666wwwwwwwww",
"wwwwwwwww6666666wwwwwww6666666666666666666666666666666666666666wwwwwwwww",
"wwwwwwwww666666666wwwq66666666666666666666666666666666666666666wwwwwwwww",
"wwwwwwwww666666666666666666666666666666666666666666666666666666wwwwwwwww",
"wwwwwwwww666666666666666666666666666666666666666666666666666666wwwwwwwww",
"wwwwwwwww666666666666666666666666666666666666666666666666666666wwwwwwwww",
"wwwwwwwww666666666666666666666666666666666666666666666666666666wwwwwwwww",
"wwwwwwwww666666666666666666666666666666666666666666666666666666wwwwwwwww",
"wwwwwwwww666666666666666666666666666666666666666666666666666666wwwwwwwww",
"wwwwwwwww66666666,=o&;66666666666666666666666666666666666666666wwwwwwwww",
"wwwwwwwww6666666-     &6666666666666666666666666666666666666666wwwwwwwww",
"wwwwwwwww666666<   o o ;666666666666666666666666666666666666666wwwwwwwww",
"wwwwwwwww Oo  o   wwwo &666666666666666666666666666666666666666wwwwwwwww",
"wwwwwwwww o  O owwwwwwwo666666666666666666666666666666666666666wwwwwwwww",
"wwwwwwwww  o o  wwwwwww-666666666666666666666666666666666666666wwwwwwwww",
"wwwwwwwww6666666wwwwwww2666666666666666666666666666666666666666wwwwwwwww",
"wwwwwwwww6666666wwwwwww6666666666666666666666666666666666666666wwwwwwwww",
"wwwwwwwww666666666wwwq66666666666666666666666666666666666666666wwwwwwwww",
"wwwwwwwww666666666666666666666666666666666666666666666666666666wwwwwwwww",
"wwwwwwwww<6666666666666666666666666666666666666666666666666666<wwwwwwwww",
"wwwwwwwww-6666666666666666666666666666666666666666666666666666-wwwwwwwww",
"wwwwwwwww <86666666666666666666666666666666666666666666666666< wwwwwwwww",
"wwwwwwwww &<666666666666666666666666666666666666666666666666<& wwwwwwwww",
"wwwwwwwwwwo -,66668666666666686666686666666666666666686686<-  wwwwwwwwww",
"wwwwwwwwww@ o   o o o  Oo  O oo  O oo  Oo  Oo  Oo  O oo o   o@wwwwwwwwww",
"wwwwwwwwwwwo o o o  OoOoO  o  O  o  O  oOoOoOoOoO  o  O O   @wwwwwwwwwww",
"wwwwwwwwwwwww   o oO    o  OoOo  OoOo  O        o  OoOo o owwwwwwwwwwwww"
};
