/* XPM */
static char *file_pdf[] = {
/* columns rows colors chars-per-pixel */
"72 72 147 2 ",
"   c #C0392B",
".  c #C43B2D",
"X  c #CA3E2F",
"o  c #CC3F30",
"O  c #CD4031",
"+  c #CF4132",
"@  c #D84435",
"#  c #DB4637",
"$  c #DD4738",
"%  c #E34A3A",
"&  c #E74C3C",
"*  c #E74D3C",
"=  c #E74D3D",
"-  c #E74E3E",
";  c #E74F3F",
":  c #E74F40",
">  c #E75141",
",  c #E75142",
"<  c #E75242",
"1  c #E75243",
"2  c #E75344",
"3  c #E75445",
"4  c #E75546",
"5  c #E75647",
"6  c #E75748",
"7  c #E75849",
"8  c #E75B4C",
"9  c #E75B4D",
"0  c #E85D4F",
"q  c #E85E50",
"w  c #E86153",
"e  c #E86254",
"r  c #E86356",
"t  c #E86659",
"y  c #E8675A",
"u  c #E8685B",
"i  c #E8695C",
"p  c #E86A5D",
"a  c #E86D61",
"s  c #E86F62",
"d  c #E87164",
"f  c #E87266",
"g  c #E87367",
"h  c #E87468",
"j  c #E87569",
"k  c #E8766B",
"l  c #E8786D",
"z  c #E87A6E",
"x  c #E87C71",
"c  c #E97E73",
"v  c #E97F74",
"b  c #E98177",
"n  c #E98278",
"m  c #E9847A",
"M  c #E9857A",
"N  c #E9867C",
"B  c #E9877D",
"V  c #E9887F",
"C  c #E9897F",
"Z  c #E98C83",
"A  c #E98D84",
"S  c #E99087",
"D  c #E99188",
"F  c #E99189",
"G  c #E99289",
"H  c #E9938B",
"J  c #E9958D",
"K  c #E9968E",
"L  c #E9978F",
"P  c #E99990",
"I  c #E99991",
"U  c #E99A92",
"Y  c #E99A93",
"T  c #E99C95",
"R  c #E99E96",
"E  c #EA9E97",
"W  c #EA9F98",
"Q  c #EAA098",
"!  c #EAA099",
"~  c #EAA29A",
"^  c #EAA59F",
"/  c #EAA7A0",
"(  c #EAA8A2",
")  c #EAAAA4",
"_  c #EAABA5",
"`  c #EAACA6",
"'  c #EAADA7",
"]  c #EAAEA8",
"[  c #EAAEA9",
"{  c #EAB0AB",
"}  c #EAB1AB",
"|  c #EAB2AC",
" . c #EAB2AD",
".. c #EAB3AE",
"X. c #EAB4AE",
"o. c #EAB5B0",
"O. c #EAB7B2",
"+. c #EAB7B3",
"@. c #EAB8B3",
"#. c #EAB9B4",
"$. c #EAB9B5",
"%. c #EABAB5",
"&. c #EABDB8",
"*. c #EABDB9",
"=. c #EABEBA",
"-. c #EBBFBB",
";. c #EBC0BC",
":. c #EBC1BD",
">. c #EBC2BE",
",. c #EBC4C0",
"<. c #EBC4C1",
"1. c #EBC5C1",
"2. c #EBC6C2",
"3. c #EBC6C3",
"4. c #EBCBC8",
"5. c #EBCDCA",
"6. c #EBCECB",
"7. c #EBD0CE",
"8. c #EBD1CF",
"9. c #EBD2D0",
"0. c #EBD4D2",
"q. c #EBD6D5",
"w. c #EBD8D7",
"e. c #EBD9D8",
"r. c #EBDAD9",
"t. c #EBDBDA",
"y. c #EBDCDB",
"u. c #EBDDDC",
"i. c #ECE1E1",
"p. c #ECE2E1",
"a. c #ECE2E2",
"s. c #ECE3E3",
"d. c #ECE4E4",
"f. c #ECE5E5",
"g. c #ECE7E7",
"h. c #ECE8E8",
"j. c #ECE9E9",
"k. c #ECEAEA",
"l. c #ECEAEB",
"z. c #ECEBEB",
"x. c #ECECED",
"c. c #ECEDED",
"v. c #ECEDEE",
"b. c #ECEEEF",
"n. c #ECEFF0",
"m. c #ECF0F1",
"M. c None",
/* pixels */
"M.M.M.M.M.M.M.M.M.M.M.M.M.M.M.M.M.M.M.M.M.M.M.M.M.M.M.M.M.M.M.M.M.M.M.M.M.M.M.M.M.M.M.M.M.M.M.M.M.M.M.M.M.M.M.M.M.M.M.M.M.M.M.M.M.M.M.M.M.M.M.M.",
"M.M.M.M.M.M.M.M.M.M.M.M.M.M.M.M.M.M.M.M.M.M.M.M.M.M.M.M.M.M.M.M.M.M.M.M.M.M.M.M.M.M.M.M.M.M.M.M.M.M.M.M.M.M.M.M.M.M.M.M.M.M.M.M.M.M.M.M.M.M.M.M.",
"M.M.M.M.M.M.M.M.M.M.M.M.M.M.M.M.M.M.M.M.M.M.M.M.M.M.M.M.M.M.M.M.M.M.M.M.M.M.M.M.M.M.M.M.M.M.M.M.M.M.M.M.M.M.M.M.M.M.M.M.M.M.M.M.M.M.M.M.M.M.M.M.",
"M.M.M.M.M.M.M.M.M.M.M.M.M.& & & & & & & & & & & & & & & & & & & & & & & & & & & - - - & - o M.M.M.M.M.M.M.M.M.M.M.M.M.M.M.M.M.M.M.M.M.M.M.M.M.M.",
"M.M.M.M.M.M.M.M.M.M.M.& & & & & & & & & & & & & & & & & & & & & & & & & & & & & & & & & -   + M.M.M.M.M.M.M.M.M.M.M.M.M.M.M.M.M.M.M.M.M.M.M.M.M.",
"M.M.M.M.M.M.M.M.M.M.& & & & & & & & & & & & & & & & & & & & & & & & & & & & & & & & & & -     X M.M.M.M.M.M.M.M.M.M.M.M.M.M.M.M.M.M.M.M.M.M.M.M.",
"M.M.M.M.M.M.M.M.M.M.& & & & & & & & & & & & & & & & & & & & & & & & & & & & & & & & & & -       + M.M.M.M.M.M.M.M.M.M.M.M.M.M.M.M.M.M.M.M.M.M.M.",
"M.M.M.M.M.M.M.M.M.& & & & & & & & & & & & & & & & & & & & & & & & & & & & & & & & & & & &         o M.M.M.M.M.M.M.M.M.M.M.M.M.M.M.M.M.M.M.M.M.M.",
"M.M.M.M.M.M.M.M.M.& & & & & & & & & & & & & & & & & & & & & & & & & & & & & & & & & & & -           O M.M.M.M.M.M.M.M.M.M.M.M.M.M.M.M.M.M.M.M.M.",
"M.M.M.M.M.M.M.M.M.& & & & & & & & & & & & & & & & & & & & & & & & & & & & & & & & & & & -             O M.M.M.M.M.M.M.M.M.M.M.M.M.M.M.M.M.M.M.M.",
"M.M.M.M.M.M.M.M.M.& & & & & & & & & & & & & & & & & & & & & & & & & & & & & & & & & & & -               O M.M.M.M.M.M.M.M.M.M.M.M.M.M.M.M.M.M.M.",
"M.M.M.M.M.M.M.M.M.& & & & & & & & & & & & & & & & & & & & & & & & & & & & & & & & & & & -                 O M.M.M.M.M.M.M.M.M.M.M.M.M.M.M.M.M.M.",
"M.M.M.M.M.M.M.M.M.& & & & & & & & & & & & & & & & & & & & & & & & & & & & & & & & & & & &                   O M.M.M.M.M.M.M.M.M.M.M.M.M.M.M.M.M.",
"M.M.M.M.M.M.M.M.M.& & & & & & & & & & & & & & & & & & & & & & & & & & & & & & & & & & & &                     O M.M.M.M.M.M.M.M.M.M.M.M.M.M.M.M.",
"M.M.M.M.M.M.M.M.M.& & & & & & & & & & & & & & & & & & & & & & & & & & & & & & & & & & & &                       + M.M.M.M.M.M.M.M.M.M.M.M.M.M.M.",
"M.M.M.M.M.M.M.M.M.& & & & & & & & & & & & & & & & & & & & & & & & & & & & & & & & & & & &                         O M.M.M.M.M.M.M.M.M.M.M.M.M.M.",
"M.M.M.M.M.M.M.M.M.& & & & & & & & & & & & & & & & & & & & & & & & & & & & & & & & & & & - o                         o M.M.M.M.M.M.M.M.M.M.M.M.M.",
"M.M.M.M.M.M.M.M.M.& & & & & & & & & & & & & & & & & & & & & & & & & & & & & & & & & & & - @                           o M.M.M.M.M.M.M.M.M.M.M.M.",
"M.M.M.M.M.M.M.M.M.& & & & & & & & & & & & & & & & & & & & & & & & & & & & & & & & & & & % - o                           + M.M.M.M.M.M.M.M.M.M.M.",
"M.M.M.M.M.M.M.M.M.& & & & & & & & & & & & & & & & & & & & & & & & & & & & & & & & & & & & % - o                           + M.M.M.M.M.M.M.M.M.M.",
"M.M.M.M.M.M.M.M.M.& & & & & & & & & & & & & & & & & & & & & & & & & & & & & & & & & & & & & & & @ o X       .   . . . .     o M.M.M.M.M.M.M.M.M.",
"M.M.M.M.M.M.M.M.M.& & & & & & & & & & & & & & & & & & & & & & & & & & & & & & & & & & & & & & & - - % - & % & & % % % & - - - M.M.M.M.M.M.M.M.M.",
"M.M.M.M.M.M.M.M.M.& & & & & & & & & & & & & & & & & & & & & & & & & & & & & & & & & & & & & & & - % - % & & & & % & & & - - - M.M.M.M.M.M.M.M.M.",
"M.M.M.M.M.M.M.M.M.& & & & & & & & & & & & & & & & & & & & & & & & & & & & & & & & & & & & & & & - - % - & & & & & & % - % - - M.M.M.M.M.M.M.M.M.",
"M.M.M.M.M.M.M.M.M.& & & & & & & & & & & & & & & & & & & & & & & & & & & & & & & & & & & & & & & & & & & & & & & & & & & & & & M.M.M.M.M.M.M.M.M.",
"M.M.M.M.M.M.M.M.M.& & & & & & & & & & & & & & & & & & & & & & & & & & & & & & & & & & & & & & & & & & & & & & & & & & & & & & M.M.M.M.M.M.M.M.M.",
"M.M.M.M.M.M.M.M.M.& & & & & & & & & & & & & & & & & & & & & & & & & & & & & & & & & & & & & & & & & & & & & & & & & & & & & & M.M.M.M.M.M.M.M.M.",
"M.M.M.M.M.M.M.M.M.& & & & & & & & & & & & & & & & & & & & & & & & & & & & & & & & & & & & & & & & & & & & & & & & & & & & & & M.M.M.M.M.M.M.M.M.",
"M.M.M.M.M.M.M.M.M.& & & & & & & & & & & & & & & & & & & & & & & & & & & & & & & & & & & & & & & & & & & & & & & & & & & & & & M.M.M.M.M.M.M.M.M.",
"M.M.M.M.M.M.M.M.M.& & & & & & & & & & & & & & & & & & & & & & & & & & & & & & & & & & & & & & & & & & & & & & & & & & & & & & M.M.M.M.M.M.M.M.M.",
"M.M.M.M.M.M.M.M.M.& & & & & & & & & & & & & & & & & & & & & & & & & & & & & & & & & & & & & & & & & & & & & & & & & & & & & & M.M.M.M.M.M.M.M.M.",
"M.M.M.M.M.M.M.M.M.& & & & & & & & & & & & & & & & & & & & & & & & & & & & & & & & & & & & & & & & & & & & & & & & & & & & & & M.M.M.M.M.M.M.M.M.",
"M.M.M.M.M.M.M.M.M.& & & & & & & & & & & & & & & & & & & & & & & & & & & & & & & & & & & & & & & & & & & & & & & & & & & & & & M.M.M.M.M.M.M.M.M.",
"M.M.M.M.M.M.M.M.M.& & & & & & & & & & & & & & & & & & & & & & & & & & & & & & & & & & & & & & & & & & & & & & ; 5.b.f.a & & & M.M.M.M.M.M.M.M.M.",
"M.M.M.M.M.M.M.M.M.& & & & & & & & & & & & & & & & & & & & & & & & & & & & & & & & & & & & & & & & & & & & & & #.n.b.j & & & & M.M.M.M.M.M.M.M.M.",
"M.M.M.M.M.M.M.M.M.& & & & & & & & & & & & & & & & & & & & & & & & & & & & & & & & & & & & & & & & & & & & & E m.n.M & A & & & M.M.M.M.M.M.M.M.M.",
"M.M.M.M.M.M.M.M.M.& & & & & & & & & & & & & & & & & & & & & & & & & & & & & & & & & & & & & & & & & & & & c n.m.S j 0.n.& & & M.M.M.M.M.M.M.M.M.",
"M.M.M.M.M.M.M.M.M.& & & & & & & & & & & & & & & & & & & & & & & & & & & & & & & & & & & & & & & & & & & j b.b.] +.n.n.-.& & & M.M.M.M.M.M.M.M.M.",
"M.M.M.M.M.M.M.M.M.& & & & & & & & & & & & & & & & & & & & & & & & & & & & & & & & & & & & & & & & & & f b.b.b.b.m.e.f & & & & M.M.M.M.M.M.M.M.M.",
"M.M.M.M.M.M.M.M.M.& & & & & & & & & & & & & & & & & & & & & & & & & & & & & & & & & & & & & & & & & a f.b.b.m.m.-.5 & & & & & M.M.M.M.M.M.M.M.M.",
"M.M.M.M.M.M.M.M.M.& & & & & & & & & & & & & & & & & & & & & & & & & & & & & & & & & & & & & & & & a f.m.b.b.b.E - - & & & & & M.M.M.M.M.M.M.M.M.",
"M.M.M.M.M.M.M.M.M.& & & & & & & & & & & & & & & & & & & & & & & & & & & & & & & & & & & & & & & r f.m.m.b.b.E & - - & & & & & M.M.M.M.M.M.M.M.M.",
"M.M.M.M.M.M.M.M.M.& & & & & & & & & & & & & & & & & & & & & & & & & & & & & & & & & & & & & & s f.b.m.m.m. .& & - & & & & & & M.M.M.M.M.M.M.M.M.",
"M.M.M.M.M.M.M.M.M.& & & & & & & & & & & & & & & & & & & & & & & & & & & & & & & & & & & & & c b.n.b.m.m.4.; & & % & & & & & & M.M.M.M.M.M.M.M.M.",
"M.M.M.M.M.M.M.M.M.& & & & & & & & & & & & & & & & & & & & & & & & & & & & & & & & & & & & A b.m.m.m.m.m.s & & & & & & & & & & M.M.M.M.M.M.M.M.M.",
"M.M.M.M.M.M.M.M.M.& & & & & & & & & & & & & & & & & & & & & & & & & & & & & & & & & & & E m.m.m.m.m.m.#.& & & & & & & & & & & M.M.M.M.M.M.M.M.M.",
"M.M.M.M.M.M.M.M.M.& & & & & & & & & & & & & & & & & & & & & & & & & & & & & & & & & :  .m.m.m.m.m.n.m.a & & & & & & & & & & & M.M.M.M.M.M.M.M.M.",
"M.M.M.M.M.M.M.M.M.& & & & & & & & & & & & & & & & & & & & & & & & & & & & & & & & r 0.n.m.m.m.m.m.n.0.& & & & & & & & & & & & M.M.M.M.M.M.M.M.M.",
"M.M.M.M.M.M.M.M.M.& & & ] 7 & & - % & & & & & & & & & & & & & & & & & & & & & & A b.m.n.#.b.m.m.m.m.] & & & & & & & & & & & & M.M.M.M.M.M.M.M.M.",
"M.M.M.M.M.M.M.M.M.& & & n.f.F 5 - - & & & & & & & & & & & & & & & & & & & & a 2.b.b.b.A E m.m.m.m.m.z & & & & & & & & & & & & M.M.M.M.M.M.M.M.M.",
"M.M.M.M.M.M.M.M.M.& & & e.b.m.0.z - - - & & & & & & & & & & & & & & & & 5 ] b.m.n.0.t 7 b.b.m.m.m.m.5 & & & & & & & & & & & & M.M.M.M.M.M.M.M.M.",
"M.M.M.M.M.M.M.M.M.& & & 7 ] n.m.b.#.f - & & & & & & & & & & & & & & 7 L f.b.m.m.] 5 & E m.b.m.m.m.m.; & & & & & & & & & & & & M.M.M.M.M.M.M.M.M.",
"M.M.M.M.M.M.M.M.M.& & & & & r #.b.m.m.w.E r & & & & & & & & & 5 M >.n.m.b.m.>.f & & ; f.m.m.m.m.m.m.& & & & & & & & & & & & & M.M.M.M.M.M.M.M.M.",
"M.M.M.M.M.M.M.M.M.& & & & & & & f 5.m.m.b.b.f.>.E F F A E #.0.b.m.m.m.m.4.f & & & & S b.m.m.m.m.m.b.& & & & & & & & & & & & & M.M.M.M.M.M.M.M.M.",
"M.M.M.M.M.M.M.M.M.& & & W  .+.#.-.>.m.m.b.b.m.m.m.m.m.b.n.m.m.m.n.w.] f & & & & & ; e.m.m.m.m.m.m.m.5 & & & & & & & & & & & & M.M.M.M.M.M.M.M.M.",
"M.M.M.M.M.M.M.M.M.& & & b.m.m.m.m.m.m.m.m.m.m.m.m.m.m.b.e.0.>.F r & & & & & & & & M m.m.m.m.m.m.m.m.a & & & & & & & & & & & & M.M.M.M.M.M.M.M.M.",
"M.M.M.M.M.M.M.M.M.& & & >.+. .] ] E E F 2.b.m.m.b.b.! 5 & & & & & & & & & & & & & #.m.m.m.m.m.m.m.m.j & & & & & & & & & & & & M.M.M.M.M.M.M.M.M.",
"M.M.M.M.M.M.M.M.M.& & & & & & & & & & & & 5 M #.h.m.m.e.j & & & & & & & & & & & & w.m.m.m.m.m.m.m.m.F & & & & & & & & & & & & M.M.M.M.M.M.M.M.M.",
"M.M.M.M.M.M.M.M.M.& & & & & & & & & & & & & & & 5 [ m.m.b.M & & & & & & & & & & 5 b.m.m.m.m.m.m.m.m.-.& & & & & & & & & & & & M.M.M.M.M.M.M.M.M.",
"M.M.M.M.M.M.M.M.M.& & & & & & & & & & & & & & & & & b f.m.m.Q & & & & & & & & & f m.m.m.m.m.m.m.m.m.b.5 & & & & & & & & & & & M.M.M.M.M.M.M.M.M.",
"M.M.M.M.M.M.M.M.M.& & & & & & & & & & & & & & & & & & 7 2.m.m.] & & & & & & & & F m.m.m.m.m.m.m.m.m.m.M & & & & & & & & & & & M.M.M.M.M.M.M.M.M.",
"M.M.M.M.M.M.M.M.M.& & & & & & & & & & & & & & & & & & & & #.m.m.C & & & & & & &  .m.m.m.m.m.m.m.m.m.m. .& & & & & & & & & & & M.M.M.M.M.M.M.M.M.",
"M.M.M.M.M.M.M.M.M.& & & & & & & & & & & & & & & & & & & & ; 9.n.h.r & & & & & & 5.n.m.m.m.m.m.m.m.m.m.b.7 & & & & & & & - - & M.M.M.M.M.M.M.M.M.",
"M.M.M.M.M.M.M.M.M.- & & & & & & & & & & & & & & & & & & & & a b.n.-.& & & & & & b.m.m.m.m.m.m.m.m.m.n.b.] & & & & & & & % - - M.M.M.M.M.M.M.M.M.",
"M.M.M.M.M.M.M.M.M.@ - - - - & & & & & & & & & & & & & & & & & [ b.b.r & & & & ; m.m.m.m.b.n.m.m.m.m.m.m.b.r & & & & & & & & @ M.M.M.M.M.M.M.M.M.",
"M.M.M.M.M.M.M.M.M.+ - - - % & & & & & & & & & & & & & & & & & q b.b.! & & & & 7 m.m.m.m.b.b.m.m.m.m.m.m.n. .& & & % & & & & O M.M.M.M.M.M.M.M.M.",
"M.M.M.M.M.M.M.M.M.  % - % & & & & & & & & & & & & & & & & & & & & & & & & & & & & & & & & & & & & & & & & & & & % - - - & %   M.M.M.M.M.M.M.M.M.",
"M.M.M.M.M.M.M.M.M.    % - % & & & & & & & & & & & & & & & & & & & & & % & & & & & & & & & & & & & & & & & & & & - % - - % X   M.M.M.M.M.M.M.M.M.",
"M.M.M.M.M.M.M.M.M.M.    o @ % - & & % & & & % & - % % - & - - % % % & % % % % % & & - - - % - % & & & & & - & & - & @ +     M.M.M.M.M.M.M.M.M.M.",
"M.M.M.M.M.M.M.M.M.M.              .       .     .   .   X           . . . . .     X                     X                   M.M.M.M.M.M.M.M.M.M.",
"M.M.M.M.M.M.M.M.M.M.M.                                                  .                                                 M.M.M.M.M.M.M.M.M.M.M.",
"M.M.M.M.M.M.M.M.M.M.M.M.M.    X                                                                                       M.M.M.M.M.M.M.M.M.M.M.M.M."
};
