/* XPM */
static char *flask[] = {
/* columns rows colors chars-per-pixel */
"72 72 55 1 ",
"  c #27AE60",
". c #28AE61",
"X c #28B162",
"o c #33B068",
"O c #39B06C",
"+ c #31B86A",
"@ c #2FCA71",
"# c #2ECC71",
"$ c #32CD74",
"% c #3CCB79",
"& c #3FCF7D",
"* c #42C97B",
"= c #41D07E",
"- c #59B582",
"; c #6AB78E",
": c #72B893",
"> c #52CA87",
", c #59C98B",
"< c #5BCD8C",
"1 c #5ED591",
"2 c #63C88F",
"3 c #67D797",
"4 c #69D799",
"5 c #8BBCA5",
"6 c #84C7A5",
"7 c #81D5A6",
"8 c #A7C0B8",
"9 c #AEC4BE",
"0 c #B1C1BF",
"q c #A1E2BE",
"w c #BCC3C7",
"e c #BDC3C7",
"r c #BEC4C8",
"t c #B3E5CB",
"y c #C0C6CA",
"u c #C1C7CB",
"i c #C3CACD",
"p c #C4C9CD",
"a c #C6CBCF",
"s c #C8CED1",
"d c #CACFD3",
"f c #CDD2D5",
"g c #CED4D6",
"h c #D0D6DA",
"j c #C2E4D2",
"k c #CAEADA",
"l c #CEE8DB",
"z c #D9ECE4",
"x c #E0EEE9",
"c c #EBEFF1",
"v c #EBF0F0",
"b c #ECF0F0",
"n c #ECF0F1",
"m c #ECF1F1",
"M c None",
/* pixels */
"MMMMMMMMMMMMMMMMMMMMMMMMMMMMMMMMMMMMMMMMMMMMMMMMMMMMMMMMMMMMMMMMMMMMMMMM",
"MMMMMMMMMMMMMMMMMMMMMMMMMMMMMMMMMMMMMMMMMMMMMMMMMMMMMMMMMMMMMMMMMMMMMMMM",
"MMMMMMMMMMMMMMMMMMMMMMMMMMMMMMMMMMMMMMMMMMMMMMMMMMMMMMMMMMMMMMMMMMMMMMMM",
"MMMMMMMMMMMMMMMMMMMMMMMMMMMMMMMMMMMMMMMMMMMMMMMMMMMMMMMMMMMMMMMMMMMMMMMM",
"MMMMMMMMMMMMMMMMMMMMMMMMMMMMMMMMMMMMMMMMMMMMMMMMMMMMMMMMMMMMMMMMMMMMMMMM",
"MMMMMMMMMMMMMMMMMMMMMMMMMMMMMMMMMMMMMMMMMMMMMMMMMMMMMMMMMMMMMMMMMMMMMMMM",
"MMMMMMMMMMMMMMMMMMMMMMMMMMMeeeeeeeeennnnnnnnnMMMMMMMMMMMMMMMMMMMMMMMMMMM",
"MMMMMMMMMMMMMMMMMMMMMMMMMMMeeeeeeeeennnnnnnnnMMMMMMMMMMMMMMMMMMMMMMMMMMM",
"MMMMMMMMMMMMMMMMMMMMMMMMMMMeeeeeeeeennnnnnnnnMMMMMMMMMMMMMMMMMMMMMMMMMMM",
"MMMMMMMMMMMMMMMMMMMMMMMMMMMeeeeeeeeennnnnnnnnMMMMMMMMMMMMMMMMMMMMMMMMMMM",
"MMMMMMMMMMMMMMMMMMMMMMMMMMMeeeeeeeeennnnnnnnnMMMMMMMMMMMMMMMMMMMMMMMMMMM",
"MMMMMMMMMMMMMMMMMMMMMMMMMMMeeeeeeeeennnnnnnnnMMMMMMMMMMMMMMMMMMMMMMMMMMM",
"MMMMMMMMMMMMMMMMMMMMMMMMMMMeeeeeeeeennnnnnnnnMMMMMMMMMMMMMMMMMMMMMMMMMMM",
"MMMMMMMMMMMMMMMMMMMMMMMMMMMeeeeeeeeennnnnnnnnMMMMMMMMMMMMMMMMMMMMMMMMMMM",
"MMMMMMMMMMMMMMMMMMMMMMMMMMMeeeeeeeeennnnnnnnnMMMMMMMMMMMMMMMMMMMMMMMMMMM",
"MMMMMMMMMMMMMMMMMMMMMMMMMMMeeeeeeeeennnnnnnnnMMMMMMMMMMMMMMMMMMMMMMMMMMM",
"MMMMMMMMMMMMMMMMMMMMMMMMMMMeeeeeeeeennnnnnnnnMMMMMMMMMMMMMMMMMMMMMMMMMMM",
"MMMMMMMMMMMMMMMMMMMMMMMMMMMeeeeeeeeennnnnnnnnMMMMMMMMMMMMMMMMMMMMMMMMMMM",
"MMMMMMMMMMMMMMMMMMMMMMMMMMMeeeeeeeeennnnnnnnnMMMMMMMMMMMMMMMMMMMMMMMMMMM",
"MMMMMMMMMMMMMMMMMMMMMMMMMMMeeeeeeeeennnnnnnnnMMMMMMMMMMMMMMMMMMMMMMMMMMM",
"MMMMMMMMMMMMMMMMMMMMMMMMMMMeeeeeeeeennnnnnnnnMMMMMMMMMMMMMMMMMMMMMMMMMMM",
"MMMMMMMMMMMMMMMMMMMMMMMMMMMeeeeeeeeennnnnnnnnMMMMMMMMMMMMMMMMMMMMMMMMMMM",
"MMMMMMMMMMMMMMMMMMMMMMMMMMMeeeeeeeeennnnnnnnnMMMMMMMMMMMMMMMMMMMMMMMMMMM",
"MMMMMMMMMMMMMMMMMMMMMMMMMMMeeeeeeeeennnnnnnnnMMMMMMMMMMMMMMMMMMMMMMMMMMM",
"MMMMMMMMMMMMMMMMMMMMMMMMMMMeeeeeeeeennnnnnnnnMMMMMMMMMMMMMMMMMMMMMMMMMMM",
"MMMMMMMMMMMMMMMMMMMMMMMMMMMeeeeeeeeennnnnnnnnMMMMMMMMMMMMMMMMMMMMMMMMMMM",
"MMMMMMMMMMMMMMMMMMMMMMMMMMMeeeeeeeeennnnnnnnnMMMMMMMMMMMMMMMMMMMMMMMMMMM",
"MMMMMMMMMMMMMMMMMMMMMMMMMMMeeeeeeeeennnnnnnnnMMMMMMMMMMMMMMMMMMMMMMMMMMM",
"MMMMMMMMMMMMMMMMMMMMMMMMMMMeeeeeeeeennnnnnnnnMMMMMMMMMMMMMMMMMMMMMMMMMMM",
"MMMMMMMMMMMMMMMMMMMMMMMMMMMeeeeeeeeennnnnnnnnMMMMMMMMMMMMMMMMMMMMMMMMMMM",
"MMMMMMMMMMMMMMMMMMMMMMMMMMheeeeeeeeennnnnnnnnMMMMMMMMMMMMMMMMMMMMMMMMMMM",
"MMMMMMMMMMMMMMMMMMMMMMMMMMueeeeeeeeennnnnnnnnnMMMMMMMMMMMMMMMMMMMMMMMMMM",
"MMMMMMMMMMMMMMMMMMMMMMMMMfeeeeeeeeeennnnnnnnnnnMMMMMMMMMMMMMMMMMMMMMMMMM",
"MMMMMMMMMMMMMMMMMMMMMMMMMeeeeeeeeeeennnnnnnnnnnMMMMMMMMMMMMMMMMMMMMMMMMM",
"MMMMMMMMMMMMMMMMMMMMMMMMieeeeeeeeeeennnnnnnnnnnnMMMMMMMMMMMMMMMMMMMMMMMM",
"MMMMMMMMMMMMMMMMMMMMMMMfeeeeeeeeeeeennnnnnnnnnnnnMMMMMMMMMMMMMMMMMMMMMMM",
"MMMMMMMMMMMMMMMMMMMMMMMreeeeeeeeeeeennnnnnnnnnnnnMMMMMMMMMMMMMMMMMMMMMMM",
"MMMMMMMMMMMMMMMMMMMMMMireeeeeeeeeeeennnnnnnnnnnnnnMMMMMMMMMMMMMMMMMMMMMM",
"MMMMMMMMMMMMMMMMMMMMMfeeeeeeeeeeeeeennnnnnnnnnnnnnMMMMMMMMMMMMMMMMMMMMMM",
"MMMMMMMMMMMMMMMMMMMMMieeeeeeee6>%%,6nnnnnnnnnnnnnnnMMMMMMMMMMMMMMMMMMMMM",
"MMMMMMMMMMMMMMMMMMMMseeeeeee9>######1znnnnnnnnnnnnnnMMMMMMMMMMMMMMMMMMMM",
"MMMMMMMMMMMMMMMMMMMheeeeeeee>@#######1vnnnnnnnnnnnnnMMMMMMMMMMMMMMMMMMMM",
"MMMMMMMMMMMMMMMMMMMueeeeeee6@#########qnnnk4==4knnnnnMMMMMMMMMMMMMMMMMMM",
"MMMMMMMMMMMMMMMMMMfeeeeeeee,@#########3nnt$####$tnnnnnMMMMMMMMMMMMMMMMMM",
"MMMMMMMMMMMMMMMMMMeeeeeeeee%@@@@######=nz=######&xnnnnMMMMMMMMMMMMMMMMMM",
"MMMMMMMMMMMMMMMMMiee;                   ..         2nnnMMMMMMMMMMMMMMMMM",
"MMMMMMMMMMMMMMMMfee8.                   .          XjnncMMMMMMMMMMMMMMMM",
"MMMMMMMMMMMMMMMMreeO                    .           +nnnMMMMMMMMMMMMMMMM",
"MMMMMMMMMMMMMMMiee5                 ################@4nnnMMMMMMMMMMMMMMM",
"MMMMMMMMMMMMMMfre0o                 ################@$znnMMMMMMMMMMMMMMM",
"MMMMMMMMMMMMMMury-                  ##################*cnnMMMMMMMMMMMMMM",
"MMMMMMMMMMMMMsee6                   ###################7nnbMMMMMMMMMMMMM",
"MMMMMMMMMMMMhee0o                   ####################zbbMMMMMMMMMMMMM",
"MMMMMMMMMMMMuee-                    ####################*bbbMMMMMMMMMMMM",
"MMMMMMMMMMMsee5.                    #####################7bbbMMMMMMMMMMM",
"MMMMMMMMMMMee0o                     ######################lbbMMMMMMMMMMM",
"MMMMMMMMMMiee-                      ######################*cccMMMMMMMMMM",
"MMMMMMMMMfee5.                      #######################7cccMMMMMMMMM",
"MMMMMMMMMre0o                       #######################@lnnMMMMMMMMM",
"MMMMMMMMare-                        ########################*nncMMMMMMMM",
"MMMMMMMfee5                         ########################$7ccMMMMMMMM",
"MMMMMMMue0o                         ##########################lcnMMMMMMM",
"MMMMMMsee-                          ########################@@*nnnMMMMMM",
"MMMMMMfee:                          #########################$,nnnMMMMMM",
"MMMMMMMfee:.                        #########################,nnnMMMMMMM",
"MMMMMMMMfee:         .           .  ########################,nnnMMMMMMMM",
"MMMMMMMMMieeeeeeeeeeeeeeeeeeeeeeeeeeeeeeeeeeeeeeeeeeeeeeeeeerefMMMMMMMMM",
"MMMMMMMMMMieeeeeeeeeeeeeeeeeeeeeeeeeeeeeeeeeeeeeeeeeeeeeeeeerfMMMMMMMMMM",
"MMMMMMMMMMMieeeeeeeeeeeeeeeeeeeeeeeeeeeeeeeeeeeeeeeeeeeeeeeefMMMMMMMMMMM",
"MMMMMMMMMMMMMMMMMMMMMMMMMMMMMMMMMMMMMMMMMMMMMMMMMMMMMMMMMMMMMMMMMMMMMMMM",
"MMMMMMMMMMMMMMMMMMMMMMMMMMMMMMMMMMMMMMMMMMMMMMMMMMMMMMMMMMMMMMMMMMMMMMMM",
"MMMMMMMMMMMMMMMMMMMMMMMMMMMMMMMMMMMMMMMMMMMMMMMMMMMMMMMMMMMMMMMMMMMMMMMM"
};
