/* XPM */
static char *floppy[] = {
/* columns rows colors chars-per-pixel */
"72 72 17 1 ",
"  c #2980B9",
". c #2D82BA",
"X c #2B85C0",
"o c #308FCE",
"O c #3497DB",
"+ c #3498DA",
"@ c #3498DB",
"# c #3598DB",
"$ c #3498DC",
"% c #389ADB",
"& c #73ABCE",
"* c #7AB9E3",
"= c #BDC3C7",
"- c #C4D9E6",
"; c #C6DEED",
": c #ECF0F1",
"> c None",
/* pixels */
">>>>>>>>>>>>>>>>>>>>>>>>>>>>>>>>>>>>>>>>>>>>>>>>>>>>>>>>>>>>>>>>>>>>>>>>",
">>>>>>>>>>>>>>>>>>>>>>>>>>>>>>>>>>>>>>>>>>>>>>>>>>>>>>>>>>>>>>>>>>>>>>>>",
">>>>>>>>>>>>>>>>>>>>>>>>>>>>>>>>>>>>>>>>>>>>>>>>>>>>>>>>>>>>>>>>>>>>>>>>",
">>>>>>>>>>>>>>>>>>>>>>>>>>>>>>>>>>>>>>>>>>>>>>>>>>>>>>>>>>>>>>>>>>>>>>>>",
">>>>>>>>>>>>>>>>>>>>>>>>>>>>>>>>>>>>>>>>>>>>>>>>>>>>>>>>>>>>>>>>>>>>>>>>",
">>>>>>>>>>>>>>>>>>>>>>>>>>>>>>>>>>>>>>>>>>>>>>>>>>>>>>>>>>>>>>>>>>>>>>>>",
">>>>>>>>>>>>>>>>>>>>>>>>>>>>>>>>>>>>>>>>>>>>>>>>>>>>>>>>>>>>>>>>>>>>>>>>",
">>>>>>>>>>>>>>>>>>>>>>>>>>>>>>>>>>>>>>>>>>>>>>>>>>>>>>>>>>>>>>>>>>>>>>>>",
">>>>>>>>>>>>>>>>>>>>>>>>>>>>>>>>>>>>>>>>>>>>>>>>>>>>>>>>>>>>>>>>>>>>>>>>",
">>>>>>>>>>>>>@@@@@@@@::::::::::::::::::::::::::::::@@##>>>>>>>>>>>>>>>>>",
">>>>>>>>>>>@@@@@@@@@@::::::::::::::::::::::::::::::@@@+O>>>>>>>>>>>>>>>>",
">>>>>>>>>>@@@@@@@@@@@::::::::::::::::::::::::::::::@@@$+@>>>>>>>>>>>>>>>",
">>>>>>>>>>@@@@@@@@@@@::::::::::::::::::         :::@$$$$##>>>>>>>>>>>>>>",
">>>>>>>>>@@@@@@@@@@@@::::::::::::::::::         :::@$$$$###>>>>>>>>>>>>>",
">>>>>>>>>@@@@@@@@@@@@::::::::::::::::::         :::@O$####@#>>>>>>>>>>>>",
">>>>>>>>>@@@@@@@@@@@@::::::::::::::::::@@@@@@@@@:::@O#####@@@>>>>>>>>>>>",
">>>>>>>>>@@@@@@@@@@@@::::::::::::::::::@@@@@@@@@:::@@@@@@@@@@#>>>>>>>>>>",
">>>>>>>>>@@@@@@@@@@@@::::::::::::::::::@@@@@@@@@:::@@@@@@@@@@@#>>>>>>>>>",
">>>>>>>>>@@@@@@@@@@@@::::::::::::::::::@@@@@@@@@:::@@@@@@@@@@@#>>>>>>>>>",
">>>>>>>>>@@@@@@@@@@@@::::::::::::::::::@@@@@@@@@:::@@@@@@@@@@@@>>>>>>>>>",
">>>>>>>>>@@@@@@@@@@@@::::::::::::::::::@@@@@@@@@:::@@@@@@@@@@@@>>>>>>>>>",
">>>>>>>>>@@@@@@@@@@@@::::::::::::::::::@@@@@@@@@:::@@@@@@@@@@@@>>>>>>>>>",
">>>>>>>>>@@@@@@@@@@@@::::::::::::::::::@@@@@@@@@:::@@@@@@@@@@@@>>>>>>>>>",
">>>>>>>>>@@@@@@@@@@@@::::::::::::::::::@@@@@@@@@:::@@@@@@@@@@@@>>>>>>>>>",
">>>>>>>>>@@@@@@@@@@@@-::::::::::::::::::::::::::::-@@@@@@@@@@@@>>>>>>>>>",
">>>>>>>>>@@@@@@@@@@@@&::::::::::::::::::::::::::::&@@@@@@@@@@@@>>>>>>>>>",
">>>>>>>>>@@@@@@@@@@@@ &-::::::::::::::::::::::::-& @@@@@@@@@@@@>>>>>>>>>",
">>>>>>>>>@@@@@@@@@@@@X                            X@@@@@@@@@@@@>>>>>>>>>",
">>>>>>>>>@@@@@@@@@@@@o                            o@@@@@@@@@@@@>>>>>>>>>",
">>>>>>>>>@@@@@@@@@@@@@oX                        Xo@@@@@@@@@@@@@>>>>>>>>>",
">>>>>>>>>@@@@@@@@@@@@@@@@@@@@@@@@@@@@@@@@@@@@@@@@@@@@@@@@@@@@@@>>>>>>>>>",
">>>>>>>>>@@@@@@@@@@@@@@@@@@@@@@@@@@@@@@@@@@@@@@@@@@@@@@@@@@@@@@>>>>>>>>>",
">>>>>>>>>@@@@@@@@@@@@@@@@@@@@@@@@@@@@@@@@@@@@@@@@@@@@@@@@@@@@@@>>>>>>>>>",
">>>>>>>>>@@@@@@@@@@@@@@@@@@@@@@@@@@@@@@@@@@@@@@@@@@@@@@@@@@@@@@>>>>>>>>>",
">>>>>>>>>@@@@@@@@@@@@@@@@@@@@@@@@@@@@@@@@@@@@@@@@@@@@@@@@@@@@@@>>>>>>>>>",
">>>>>>>>>@@@@@@@@@@@@@@@@@@@@@@@@@@@@@@@@@@@@@@@@@@@@@@@@@@@@@@>>>>>>>>>",
">>>>>>>>>@@@@@@%*;::::::::::::::::::::::::::::::::::::;*%@@@@@@>>>>>>>>>",
">>>>>>>>>@@@@@@*::::::::::::::::::::::::::::::::::::::::*@@@@@@>>>>>>>>>",
">>>>>>>>>@@@@@@;::::::::::::::::::::::::::::::::::::::::;@@@@@@>>>>>>>>>",
">>>>>>>>>@@@@@@::::::::::::::::::::::::::::::::::::::::::@@@@@@>>>>>>>>>",
">>>>>>>>>@@@@@@::::::::::::::::::::::::::::::::::::::::::@@@@@@>>>>>>>>>",
">>>>>>>>>@@@@@@::::::::::::::::::::::::::::::::::::::::::@@@@@@>>>>>>>>>",
">>>>>>>>>@@@@@@::::::==============================::::::@@@@@@>>>>>>>>>",
">>>>>>>>>@@@@@@::::::==============================::::::@@@@@@>>>>>>>>>",
">>>>>>>>>@@@@@@::::::==============================::::::@@@@@@>>>>>>>>>",
">>>>>>>>>@@@@@@::::::::::::::::::::::::::::::::::::::::::@@@@@@>>>>>>>>>",
">>>>>>>>>@@@@@@::::::::::::::::::::::::::::::::::::::::::@@@@@@>>>>>>>>>",
">>>>>>>>>@@@@@@::::::::::::::::::::::::::::::::::::::::::@@@@@@>>>>>>>>>",
">>>>>>>>>@@@@@@::::::==============================::::::@@@@@@>>>>>>>>>",
">>>>>>>>>@@@@@@::::::==============================::::::@@@@@@>>>>>>>>>",
">>>>>>>>>@@@@@@::::::==============================::::::@@@@@@>>>>>>>>>",
">>>>>>>>>@@@@@@::::::::::::::::::::::::::::::::::::::::::@@@@@@>>>>>>>>>",
">>>>>>>>>@@@@@@::::::::::::::::::::::::::::::::::::::::::@@@@@@>>>>>>>>>",
">>>>>>>>>@@@@@@::::::::::::::::::::::::::::::::::::::::::@@@@@@>>>>>>>>>",
">>>>>>>>>@@@@@@::::::::::::::::::::::::::::::::::::::::::@@@@@@>>>>>>>>>",
">>>>>>>>>@@@@@@::::::::::::::::::::::::::::::::::::::::::@@@@@@>>>>>>>>>",
">>>>>>>>>@@@@@@::::::::::::::::::::::::::::::::::::::::::@@@@@@>>>>>>>>>",
">>>>>>>>>@@@@@@::::::::::::::::::::::::::::::::::::::::::@@@@@@>>>>>>>>>",
">>>>>>>>>@@@@@@::::::::::::::::::::::::::::::::::::::::::@@@@@@>>>>>>>>>",
">>>>>>>>>>@@@@@::::::::::::::::::::::::::::::::::::::::::@@@@@>>>>>>>>>>",
">>>>>>>>>>@@@@@==========================================@@@@@>>>>>>>>>>",
">>>>>>>>>>>@@@@==========================================@@@@>>>>>>>>>>>",
">>>>>>>>>>>>>@@==========================================@%>>>>>>>>>>>>>",
">>>>>>>>>>>>>>>>>>>>>>>>>>>>>>>>>>>>>>>>>>>>>>>>>>>>>>>>>>>>>>>>>>>>>>>>",
">>>>>>>>>>>>>>>>>>>>>>>>>>>>>>>>>>>>>>>>>>>>>>>>>>>>>>>>>>>>>>>>>>>>>>>>",
">>>>>>>>>>>>>>>>>>>>>>>>>>>>>>>>>>>>>>>>>>>>>>>>>>>>>>>>>>>>>>>>>>>>>>>>",
">>>>>>>>>>>>>>>>>>>>>>>>>>>>>>>>>>>>>>>>>>>>>>>>>>>>>>>>>>>>>>>>>>>>>>>>",
">>>>>>>>>>>>>>>>>>>>>>>>>>>>>>>>>>>>>>>>>>>>>>>>>>>>>>>>>>>>>>>>>>>>>>>>",
">>>>>>>>>>>>>>>>>>>>>>>>>>>>>>>>>>>>>>>>>>>>>>>>>>>>>>>>>>>>>>>>>>>>>>>>",
">>>>>>>>>>>>>>>>>>>>>>>>>>>>>>>>>>>>>>>>>>>>>>>>>>>>>>>>>>>>>>>>>>>>>>>>",
">>>>>>>>>>>>>>>>>>>>>>>>>>>>>>>>>>>>>>>>>>>>>>>>>>>>>>>>>>>>>>>>>>>>>>>>",
">>>>>>>>>>>>>>>>>>>>>>>>>>>>>>>>>>>>>>>>>>>>>>>>>>>>>>>>>>>>>>>>>>>>>>>>"
};
