/* XPM */
static const char *folder_house[] = {
/* columns rows colors chars-per-pixel */
"72 72 66 1 ",
"  c #2980B9",
". c #2981B9",
"X c #2A80B9",
"o c #2A81B9",
"O c #2980BA",
"+ c #2981BA",
"@ c #2981BB",
"# c #2A80BA",
"$ c #2A81BB",
"% c #2982BB",
"& c #2A82BB",
"* c #2A82BC",
"= c #2B83BD",
"- c #2A83BE",
"; c #2B84BF",
": c #3887BA",
"> c #649ABF",
", c #2B85C0",
"< c #2B86C1",
"1 c #2C85C1",
"2 c #2C86C1",
"3 c #2C87C2",
"4 c #2C87C3",
"5 c #2D87C4",
"6 c #2C88C4",
"7 c #2D88C5",
"8 c #2D89C5",
"9 c #2D89C6",
"0 c #2E89C7",
"q c #2D8AC6",
"w c #2E8BC8",
"e c #2E8BC9",
"r c #2E8CC9",
"t c #2F8DCA",
"y c #2E8DCB",
"u c #308ECD",
"i c #308FCE",
"p c #308FCF",
"a c #3090CF",
"s c #3191D1",
"d c #3191D2",
"f c #3192D2",
"g c #3192D3",
"h c #3292D3",
"j c #3293D3",
"k c #3293D4",
"l c #3293D5",
"z c #3294D5",
"x c #3294D6",
"c c #3295D6",
"v c #3395D7",
"b c #3396D8",
"n c #3396D9",
"m c #3397D9",
"M c #3397DA",
"N c #3497DA",
"B c #3498DA",
"V c #3498DB",
"C c #5199CA",
"Z c #429CDA",
"A c #5DA5D5",
"S c #91AFC3",
"D c #98B2C3",
"F c #AEBDC5",
"G c #BDC3C7",
"H c None",
/* pixels */
"HHHHHHHHHHHHHHHHHHHHHHHHHHHHHHHHHHHHHHHHHHHHHHHHHHHHHHHHHHHHHHHHHHHHHHHH",
"HHHHHHHHHHHHHHHHHHHHHHHHHHHHHHHHHHHHHHHHHHHHHHHHHHHHHHHHHHHHHHHHHHHHHHHH",
"HHHHHHHHHHHHHHHHHHHHHHHHHHHHHHHHHHHHHHHHHHHHHHHHHHHHHHHHHHHHHHHHHHHHHHHH",
"HHHHHHH                        HHHHHHHHHHHHHHHHHHHHHHHHHHHHHHHHHHHHHHHHH",
"HHHHH                           HHHHHHHHHHHHHHHHHHHHHHHHHHHHHHHHHHHHHHHH",
"HHHH                              HHHHHHHHHHHHHHHHHHHHHHHHHHHHHHHHHHHHHH",
"HHHH                               HHHHHHHHHHHHHHHHHHHHHHHHHHHHHHHHHHHHH",
"HHH                                  HHHHHHHHHHHHHHHHHHHHHHHHHHHHHHHHHHH",
"HHH                                   HHHHHHHHHHHHHHHHHHHHHHHHHHHHHHHHHH",
"HHH                                                              HHHHHHH",
"HHH                                                                HHHHH",
"HHH                                                                 HHHH",
"HHH   >SFGGGGGGGGGGGGGGGGGGGGGGGGGGGGGGGGGGGGGGGGGGGGGGGGGGGGGGFS>  HHHH",
"HHH :DGGGGGGGGGGGGGGGGGGGGGGGGGGGGGGGGGGGGGGGGGGGGGGGGGGGGGGGGGGGGD: HHH",
"HHH DGGGGGGGGGGGGGGGGGGGGGGGGGGGGGGGGGGGGGGGGGGGGGGGGGGGGGGGGGGGGGGD HHH",
"HHHCAZVVVVVVVVVVVVVVVVVVVVVVVVVVVVVVVVVVVVVVVVVVVVVVVVVVVVVVVVVVVVZACHHH",
"HHlVVVVVVVVVVVVVVVVVVVVVVVVVVVVVVVVVVVVVVVVVVVVVVVVVVVVVVVVVVVVVVVVVVlHH",
"HlVVVVVVVVVVVVVVVVVVVVVVVVVVVVVVVVVVVVVVVVVVVVVVVVVVVVVVVVVVVVVVVVVVVVlH",
"pVVVVVVVVVVVVVVVVVVVVVVVVVVVVVVVVVVVVVVVVVVVVVVVVVVVVVVVVVVVVVVVVVVVVVVa",
"lVVVVVVVVVVVVVVVVVVVVVVVVVVVVVVVVVVVVVVVVVVVVVVVVVVVVVVVVVVVVVVVVVVVVVVl",
"lVVVVVVVVVVVVVVVVVVVVVVVVVVVVVVVVVVVVVVVVVVVVVVVVVVVVVVVVVVVVVVVVVVVVVVc",
"VVVVVVVVVVVVVVVVVVVVVVVVVVVVVVVVVVVVVVVVVVVVVVVVVVVVVVVVVVVVVVVVVVVVVVVV",
"VVVVVVVVVVVVVVVVVVVVVVVVVVVVVVVVVVVVVVVVVVVVVVVVVVVVVVVVVVVVVVVVVVVVVVVV",
"VVVVVVVVVVVVVVVVVVVVVVVVVVVVVVVVVVVVVVVVVVVVVVVVVVVVVVVVVVVVVVVVVVVVVVVV",
"VVVVVVVVVVVVVVVVVVVVVVVVVVVVVVVVVVVVVVVVVVVVVVVVVVVVVVVVVVVVVVVVVVVVVVVV",
"VVVVVVVVVVVVVVVVVVVVVVVVVVVVVVVVVVV6tVVVVVVVVVVVVVVVVVVVVVVVVVVVVVVVVVVV",
"VVVVVVVVVVVVVVVVVVVVVVVVVVVVVVVVVV6  3VVVVVVVVVVVVVVVVVVVVVVVVVVVVVVVVVV",
"VVVVVVVVVVVVVVVVVVVVVVVVVVVVVVVVV3    3NVVVVV      VVVVVVVVVVVVVVVVVVVVV",
"VVVVVVVVVVVVVVVVVVVVVVVVVVVVVVNl3       lVVVV      VVVVVVVVVVVVVVVVVVVVV",
"VVVVVVVVVVVVVVVVVVVVVVVVVVVVVVl          lVVV      VVVVVVVVVVVVVVVVVVVVV",
"VVVVVVVVVVVVVVVVVVVVVVVVVVVVVa            aVV      VVVVVVVVVVVVVVVVVVVVV",
"VVVVVVVVVVVVVVVVVVVVVVVVVVVVpoo            tV      VVVVVVVVVVVVVVVVVVVVV",
"VVVVVVVVVVVVVVVVVVVVVVVVVVV6                3      NVVVVVVVVVVVVVVVVVVVV",
"VVVVVVVVVVVVVVVVVVVVVVVVVc6                        VVVVVVVVVVVVVVVVVVVVV",
"VVVVVVVVVVVVVVVVVVVVVVVVl3                         VVVVVVVVVVVVVVVVVVVVV",
"VVVVVVVVVVVVVVVVVVVVVVVl--                         VVVVVVVVVVVVVVVVVVVVV",
"VVVVVVVVVVVVVVVVVVVVVVg                            VVVVVVVVVVVVVVVVVVVVV",
"VVVVVVVVVVVVVVVVVVVVVt                             NVVVVVVVVVVVVVVVVVVVV",
"VVVVVVVVVVVVVVVVVVVV6                              tVNNVVVVVVVVVVVVVVVVV",
"VVVVVVVVVVVVVVVVVVV6                                tNNVVVVVVVVVVVVVVVVV",
"VVVVVVVVVVVVVVVVVl6-                                 ,NNVVVVVVVVVVVVVVVV",
"VVVVVVVVVVVVVVVVV                                     -NVVVVVVVVVVVVVVVV",
"VVVVVVVVVVVVVVVVl                                     -gVVVVVVVVVVVVVVVV",
"VVVVVVVVVVVVVVVVVl                                 - -gVVVVVVVVVVVVVVVVV",
"VVVVVVVVVVVVVVVVVVl6V                              N3gNVVVVVVVVVVVVVVVVV",
"VVVVVVVVVVVVVVVVVVVVV                              NVVVVVVVVVVVVVVVVVVVV",
"VVVVVVVVVVVVVVVVVVVVV                              NVVVVVVVVVVVVVVVVVVVV",
"VVVVVVVVVVVVVVVVVVVVV                             -VVVVVVVVVVVVVVVVVVVVV",
"VVVVVVVVVVVVVVVVVVVVV            VVVVVV            NVVVVVVVVVVVVVVVVVVVV",
"VVVVVVVVVVVVVVVVVVVVV            VVVVVV            NVVVVVVVVVVVVVVVVVVVV",
"VVVVVVVVVVVVVVVVVVVVV            VVVVVV            NVVVVVVVVVVVVVVVVVVVV",
"VVVVVVVVVVVVVVVVVVVVV            VVVVVV           -VVVVVVVVVVVVVVVVVVVVV",
"VVVVVVVVVVVVVVVVVVVVV            VVVVVV            bNVVVVVVVVVVVVVVVVVVV",
"VVVVVVVVVVVVVVVVVVVVV            VVVVVV           -VVVVVVVVVVVVVVVVVVVVV",
"VVVVVVVVVVVVVVVVVVVVV            VVVVVV            NVVVVVVVVVVVVVVVVVVVV",
"VVVVVVVVVVVVVVVVVVVVV            VVVVVV            bVVVVVVVVVVVVVVVVVVVV",
"VVVVVVVVVVVVVVVVVVVVV            VVVVVV          --VVVVVVVVVVVVVVVVVVVVV",
"VVVVVVVVVVVVVVVVVVVVVVVVVVVVVVVVVVVVVVVVVVVVVVVVVVgVVVVVVVVVVVVVVVVVVVVV",
"VVVVVVVVVVVVVVVVVVVVVVVVVVVVVVVVVVVVVVVVVVVVVVVVVVVVVVVVVVVVVVVVVVVVVVVV",
"VVVVVVVVVVVVVVVVVVVVVVVVVVVVVVVVVVVVVVVVVVVVVVVVVVVVVVVVVVVVVVVVVVVVVVVV",
"lVVVVVVVVVVVVVVVVVVVVVVVVVVVVVVVVVVVVVVVVVVVVVVVVVVVVVVVVVVVVVVVVVVVVVVl",
"lVVVVVVVVVVVVVVVVVVVVVVVVVVVVVVVVVVVVVVVVVVVVVVVVVVVVVVVVVVVVVVVVVVVVVVl",
"6VVVVVVVVVVVVVVVVVVVVVVVVVVVVVVVVVVVVVVVVVVVVVVVVVVVVVVVVVVVVVVVVVVVVVVt",
" aVVVVVVVVVVVVVVVVVVVVVVVVVVVVVVVVVVVVVVVVVVVVVVVVVVVVVVVVVVVVVVVVVVVVl ",
"  lVVVVVVVVVVVVVVVVVVVVVVVVVVVVVVVVVVVVVVVVVVVVVVVVVVVVVVVVVVVVVVVVVVl  ",
"H  tllVVVVVVVVVVVVVVVVVVVVVVVVVVVVVVVVVVVVVVVVVVVVVVVVVVVVVVVVVVVVll6  H",
"H                                                                      H",
"HH                                                                    HH",
"HHHH                                                                HHHH",
"HHHHHHHHHHHHHHHHHHHHHHHHHHHHHHHHHHHHHHHHHHHHHHHHHHHHHHHHHHHHHHHHHHHHHHHH",
"HHHHHHHHHHHHHHHHHHHHHHHHHHHHHHHHHHHHHHHHHHHHHHHHHHHHHHHHHHHHHHHHHHHHHHHH",
"HHHHHHHHHHHHHHHHHHHHHHHHHHHHHHHHHHHHHHHHHHHHHHHHHHHHHHHHHHHHHHHHHHHHHHHH"
};
