/* XPM */
static char *folder_document[] = {
/* columns rows colors chars-per-pixel */
"72 72 43 1 ",
"  c #2980B9",
". c #2981B9",
"X c #2A80B9",
"o c #2A81B9",
"O c #2980BA",
"+ c #2981BA",
"@ c #2A80BA",
"# c #2A81BA",
"$ c #2982BB",
"% c #2A82BC",
"& c #2A82BE",
"* c #2A83BE",
"= c #3887BA",
"- c #649ABF",
"; c #2C85C1",
": c #2C87C3",
"> c #2C87C4",
", c #2E89C7",
"< c #2F8CCB",
"1 c #2F8DCC",
"2 c #308ECE",
"3 c #308FCE",
"4 c #3090D0",
"5 c #3190D0",
"6 c #3091D1",
"7 c #3191D1",
"8 c #3191D2",
"9 c #3192D2",
"0 c #3293D3",
"q c #3293D4",
"w c #3294D5",
"e c #3295D7",
"r c #3396D6",
"t c #3396D8",
"y c #3498DB",
"u c #5199CA",
"i c #429CDA",
"p c #5DA5D5",
"a c #91AFC3",
"s c #98B2C3",
"d c #AEBDC5",
"f c #BDC3C7",
"g c None",
/* pixels */
"gggggggggggggggggggggggggggggggggggggggggggggggggggggggggggggggggggggggg",
"gggggggggggggggggggggggggggggggggggggggggggggggggggggggggggggggggggggggg",
"gggggggggggggggggggggggggggggggggggggggggggggggggggggggggggggggggggggggg",
"ggggggg                        ggggggggggggggggggggggggggggggggggggggggg",
"ggggg                           gggggggggggggggggggggggggggggggggggggggg",
"gggg                              gggggggggggggggggggggggggggggggggggggg",
"gggg                               ggggggggggggggggggggggggggggggggggggg",
"ggg                                  ggggggggggggggggggggggggggggggggggg",
"ggg                                   gggggggggggggggggggggggggggggggggg",
"ggg                                                              ggggggg",
"ggg                                                                ggggg",
"ggg                                                                 gggg",
"ggg   -adffffffffffffffffffffffffffffffffffffffffffffffffffffffda-  gggg",
"ggg =sffffffffffffffffffffffffffffffffffffffffffffffffffffffffffffs= ggg",
"ggg sffffffffffffffffffffffffffffffffffffffffffffffffffffffffffffffs ggg",
"gggupiyyyyyyyyyyyyyyyyyyyyyyyyyyyyyyyyyyyyyyyyyyyyyyyyyyyyyyyyyyyyipuggg",
"ggqyyyyyyyyyyyyyyyyyyyyyyyyyyyyyyyyyyyyyyyyyyyyyyyyyyyyyyyyyyyyyyyyyytgg",
"gqyyyyyyyyyyyyyyyyyyyyyyyyyyyyyyyyyyyyyyyyyyyyyyyyyyyyyyyyyyyyyyyyyyytqg",
"3yyyyyyyyyyyyyyyyyyyyyyyyyyyyyyyyyyyyyyyyyyyyyyyyyyyyyyyyyyyyyyyyyyyyyy4",
"qyyyyyyyyyyyyyyyyyyyyyyyyyyyyyyyyyyyyyyyyyyyyyyyyyyyyyyyyyyyyyyyyyyyyyyq",
"tyyyyyyyyyyyyyyyyyyyyyyyyyyyyyyyyyyytyytyttytyyyyyyyyyyyyyyyyyyyyyyyyyyt",
"yyyyyyyyyyyyyyyyyyyyyq,         $     $ X;,2ttyyyyyyyyyyyyyyyyyyyyyyyyyy",
"yyyyyyyyyyyyyyyyyyyyt>XX                    >qytyyyyyyyyyyyyyyyyyyyyyyyy",
"yyyyyyyyyyyyyyyyyyyyyXXX                     >ttyyyyyyyyyyyyyyyyyyyyyyyy",
"yyyyyyyyyyyyyyyyyyyyy   yyyyyyyyyyyyyyy   2   &eyyyyyyyyyyyyyyyyyyyyyyyy",
"yyyyyyyyyyyyyyyyyyyyy   yyyyyyyyyyyyyyy   tq   >tyyyyyyyyyyyyyyyyyyyyyyy",
"yyyyyyyyyyyyyyyyyyyyy   yyyyyyyyyyyyyyy   yyq X  tyyyyyyyyyyyyyyyyyyyyyy",
"yyyyyyyyyyyyyyyyyyyyy   yyyyyyyyyyyyyyy   yytqX  >tyyyyyyyyyyyyyyyyyyyyy",
"yyyyyyyyyyyyyyyyyyyyy   yyyyyyyyyyyyyyy   tyyy2$  Xtyyyyyyyyyyyyyyyyyyyy",
"yyyyyyyyyyyyyyyyyyyyy   yyyyyyyyyyyyyyy   yyyyyq   >ttyyyyyyyyyyyyyyyyyy",
"yyyyyyyyyyyyyyyyyyyyy   yyyyyyyyyyyyyyy   yyyyyy2   >tyyyyyyyyyyyyyyyyyy",
"yyyyyyyyyyyyyyyyyyyyy   yyyyyyyyyyyyyyy  $yyyyytt1  X4yyyyyyyyyyyyyyyyyy",
"yyyyyyyyyyyyyyyyyyyyy   yyyyyyyyyyyyyyy   tyyyyyyy2  ;eyyyyyyyyyyyyyyyyy",
"yyyyyyyyyyyyyyyyyyyyy   yyyyyyyyyyyyyyyX             ;yyyyyyyyyyyyyyyyyy",
"yyyyyyyyyyyyyyyyyyyyy   yyyyyyyyyyyyyyy,              yyyyyyyyyyyyyyyyyy",
"yyyyyyyyyyyyyyyyyyyyy   yyyyyyyyyyyyytte,             yyyyyyyyyyyyyyyyyy",
"yyyyyyyyyyyyyyyyyyyyy   yyyyyyyyyyyyyyyyyyyyyyyytyy   yyyyyyyyyyyyyyyyyy",
"yyyyyyyyyyyyyyyyyyyyy   yyyyyyyyyyyyyyyyyyyyyyyyyyy   yyyyyyyyyyyyyyyyyy",
"yyyyyyyyyyyyyyyyyyyyy   yyyyyyyyyyyyyyyyyyyyyyeyyyy   yyyyyyyyyyyyyyyyyy",
"yyyyyyyyyyyyyyyyyyyyy   yye;                   ;yyy   yyyyyyyyyyyyyyyyyy",
"yyyyyyyyyyyyyyyyyyyyy   yyy                     yyy   yyyyyyyyyyyyyyyyyy",
"yyyyyyyyyyyyyyyyyyyyy   yyy;                   ;yyy  $yyyyyyyyyyyyyyyyyy",
"yyyyyyyyyyyyyyyyyyyyy   yyyyeyyyyyyyyyyyyyyyyyyyyyy   yyyyyyyyyyyyyyyyyy",
"yyyyyyyyyyyyyyyyyyyyy   yyyyyyyyyyyyyyyyyyyyyyytyyy   yyyyyyyyyyyyyyyyyy",
"yyyyyyyyyyyyyyyyyyyyy   yyyyyyyyyyyyyyyyyyyyyyttyyy   tyyyyyyyyyyyyyyyyy",
"yyyyyyyyyyyyyyyyyyyyy   yyy;                   ;yyy   yyyyyyyyyyyyyyyyyy",
"yyyyyyyyyyyyyyyyyyyyy   yye                     yyy   yyyyyyyyyyyyyyyyyy",
"yyyyyyyyyyyyyyyyyyyyy   yyy;                   >yyy  $yyyyyyyyyyyyyyyyyy",
"yyyyyyyyyyyyyyyyyyyyy   yyyyyyyyyyyyyyyyyyyyyyyyyyy   yyyyyyyyyyyyyyyyyy",
"yyyyyyyyyyyyyyyyyyyyy   yyyyyyyyyyyyyyyyyyyyyyyyyyy   yyyyyyyyyyyyyyyyyy",
"yyyyyyyyyyyyyyyyyyyyy   yyyyyyyyyyyyyyyyyyyyyyetyyy   yyyyyyyyyyyyyyyyyy",
"yyyyyyyyyyyyyyyyyyyyy   yyt;                   ;yyy   yyyyyyyyyyyyyyyyyy",
"yyyyyyyyyyyyyyyyyyyyt   yyy                     yyy   yyyyyyyyyyyyyyyyyy",
"yyyyyyyyyyyyyyyyyyyyy   yye;                   ;yyy   yyyyyyyyyyyyyyyyyy",
"yyyyyyyyyyyyyyyyyyyyy   yyyyyyyyyyyyyyyyyyyyyyyyyyy   yyyyyyyyyyyyyyyyyy",
"yyyyyyyyyyyyyyyyyyyyy   yyyyyyyyyyyyyyyyyyyyyyyyyyy   yyyyyyyyyyyyyyyyyy",
"yyyyyyyyyyyyyyyyyyyyy   yyyyyyyyyyyyyyyyyyyyyyyyyyt   yyyyyyyyyyyyyyyyyy",
"yyyyyyyyyyyyyyyyyyyyy                                 yyyyyyyyyyyyyyyyyy",
"yyyyyyyyyyyyyyyyyyyyy,                               ,yyyyyyyyyyyyyyyyyy",
"yyyyyyyyyyyyyyyyyyyyye>                             >eyyyyyyyyyyyyyyyyyy",
"eyyyyyyyyyyyyyyyyyyyyyyyyyyyyyyyyyyyyyyyyyyyyyyyyyyyyyyyyyyyyyyyyyyyyytt",
"qyyyyyyyyyyyyyyyyyyyyyyyyyyyyyyyyyyyyyyyyyyyyyyyyyyyyyyyyyyyyyyyyyyyyyt4",
"1eyyyyyyyyyyyyyyyyyyyyyyyyyyyyyyyyyyyyyyyyyyyyyyyyyyyyyyyyyyyyyyyyyyyyy1",
" qyyyyyyyyyyyyyyyyyyyyyyyyyyyyyyyyyyyyyyyyyyyyyyyyyyyyyyyyyyyyyyyyyyyyq ",
" $qttttyyyyyyyyyyyyyyyyyyyyyyyyyyyyyyyyyyyyyyyyyyyyyyyyyyyyyyyyyyytyyq X",
"g X1qtyyyyyyyyyyyyyyyyyyyyyyyyyyyyyyyyyyyyyyyyyyyyyyyyyyyyyyyyyyyytq1XXg",
"g                                                                     Xg",
"gg                                                                    gg",
"gggg                                                                gggg",
"gggggggggggggggggggggggggggggggggggggggggggggggggggggggggggggggggggggggg",
"gggggggggggggggggggggggggggggggggggggggggggggggggggggggggggggggggggggggg",
"gggggggggggggggggggggggggggggggggggggggggggggggggggggggggggggggggggggggg"
};
