/* XPM */
static const char *folder_music[] = {
/* columns rows colors chars-per-pixel */
"72 72 67 1 ",
"  c #2980B9",
". c #2981B9",
"X c #2A80B9",
"o c #2A81B9",
"O c #2980BA",
"+ c #2981BA",
"@ c #2A80BA",
"# c #2A81BA",
"$ c #2A81BB",
"% c #2982BB",
"& c #2A82BC",
"* c #2A82BD",
"= c #2A83BD",
"- c #2B83BD",
"; c #2A82BE",
": c #3887BA",
"> c #649ABF",
", c #2B84C0",
"< c #2B85C0",
"1 c #2C85C0",
"2 c #2C85C1",
"3 c #2C86C1",
"4 c #2C86C2",
"5 c #2C87C2",
"6 c #2C87C3",
"7 c #2C87C4",
"8 c #2D89C5",
"9 c #2D89C6",
"0 c #2E89C7",
"q c #2D8BC7",
"w c #2E8AC8",
"e c #2F8BC9",
"r c #2E8BCA",
"t c #2E8CCA",
"y c #2F8DCA",
"u c #2F8DCB",
"i c #2F8ECD",
"p c #2F8FCD",
"a c #308ECD",
"s c #308ECE",
"d c #308FCE",
"f c #3090CF",
"g c #3090D0",
"h c #3191D1",
"j c #3192D2",
"k c #3192D3",
"l c #3293D3",
"z c #3293D4",
"x c #3294D5",
"c c #3294D6",
"v c #3395D6",
"b c #3295D7",
"n c #3395D7",
"m c #3296D8",
"M c #3396D8",
"N c #3397D9",
"B c #3497DA",
"V c #3398DA",
"C c #3498DB",
"Z c #5199CA",
"A c #429CDA",
"S c #5DA5D5",
"D c #91AFC3",
"F c #98B2C3",
"G c #AEBDC5",
"H c #BDC3C7",
"J c None",
/* pixels */
"JJJJJJJJJJJJJJJJJJJJJJJJJJJJJJJJJJJJJJJJJJJJJJJJJJJJJJJJJJJJJJJJJJJJJJJJ",
"JJJJJJJJJJJJJJJJJJJJJJJJJJJJJJJJJJJJJJJJJJJJJJJJJJJJJJJJJJJJJJJJJJJJJJJJ",
"JJJJJJJJJJJJJJJJJJJJJJJJJJJJJJJJJJJJJJJJJJJJJJJJJJJJJJJJJJJJJJJJJJJJJJJJ",
"JJJJJJJ                        JJJJJJJJJJJJJJJJJJJJJJJJJJJJJJJJJJJJJJJJJ",
"JJJJJ                           JJJJJJJJJJJJJJJJJJJJJJJJJJJJJJJJJJJJJJJJ",
"JJJJ                              JJJJJJJJJJJJJJJJJJJJJJJJJJJJJJJJJJJJJJ",
"JJJJ                               JJJJJJJJJJJJJJJJJJJJJJJJJJJJJJJJJJJJJ",
"JJJ                                  JJJJJJJJJJJJJJJJJJJJJJJJJJJJJJJJJJJ",
"JJJ                                   JJJJJJJJJJJJJJJJJJJJJJJJJJJJJJJJJJ",
"JJJ                                                              JJJJJJJ",
"JJJ                                                                JJJJJ",
"JJJ                                                                 JJJJ",
"JJJ   >DGHHHHHHHHHHHHHHHHHHHHHHHHHHHHHHHHHHHHHHHHHHHHHHHHHHHHHHGD>  JJJJ",
"JJJ :FHHHHHHHHHHHHHHHHHHHHHHHHHHHHHHHHHHHHHHHHHHHHHHHHHHHHHHHHHHHHF: JJJ",
"JJJ FHHHHHHHHHHHHHHHHHHHHHHHHHHHHHHHHHHHHHHHHHHHHHHHHHHHHHHHHHHHHHHF JJJ",
"JJJZSACCCCCCCCCCCCCCCCCCCCCCCCCCCCCCCCCCCCCCCCCCCCCCCCCCCCCCCCCCCCASZJJJ",
"JJzCCCCCCCCCCCCCCCCCCCCCCCCCCCCCCCCCCCCCCCCCCCCCCCCCCCCCCCCCCCCCCCCCCzJJ",
"JzCCCCCCCCCCCCCCCCCCCCCCCCCCCCCCCCCCCCCCCCCCCCCCCCCCCCCCCCCCCCCCCCCCCCzJ",
"dCCCCCCCCCCCCCCCCCCCCCCCCCCCCCCCCCCCCCCCCCCCCCCCCCCCCCCCCCCCCCCCCCCCCCCf",
"zCCCCCCCCCCCCCCCCCCCCCCCCCCCCCCCCCCCCCCCCCCCCCCCCCCCCCCCCCCCCCCCCCCCCCCz",
"MCCCCCCCCCCCCCCCCCCCCCCCCCCCCCCCCCCCCCCCCCCCMCCMCCCCCCCCCCCCCCCCCCCCCCCC",
"CCCCCCCCCCCCCCCCCCCCCCCCCCCCCCCCCCCCCCCCCCCCMMg7 9zCCCCCCCCCCCCCCCCCCCCC",
"CCCCCCCCCCCCCCCCCCCCCCCCCCCCCCCCCCCCCCCCCCzd7     7CCCCCCCCCCCCCCCCCCCCC",
"CCCCCCCCCCCCCCCCCCCCCCCCCCCCCCCCCCCCCCCze          CCCCCCCCCCCCCCCCCCCCC",
"CCCCCCCCCCCCCCCCCCCCCCCCCCCCCCCCCCCCf9             CCCCCCCCCCCCCCCCCCCCC",
"CCCCCCCCCCCCCCCCCCCCCCCCCCCCCCCCMe9                CCCCCCCCCCCCCCCCCCCCC",
"CCCCCCCCCCCCCCCCCCCCCCCCCCCCCMe7                   CCCCCCCCCCCCCCCCCCCCC",
"CCCCCCCCCCCCCCCCCCCCCCCCCCCz                       CCCCCCCCCCCCCCCCCCCCC",
"CCCCCCCCCCCCCCCCCCCCCCCCCCC7                       CCCCCCCCCCCCCCCCCCCCC",
"CCCCCCCCCCCCCCCCCCCCCCCCCCC                        CCCCCCCCCCCCCCCCCCCCC",
"CCCCCCCCCCCCCCCCCCCCCCCCCCC                        CCCCCCCCCCCCCCCCCCCCC",
"CCCCCCCCCCCCCCCCCCCCCCCCCCC                        CCCCCCCCCCCCCCCCCCCCC",
"CCCCCCCCCCCCCCCCCCCCCCCCCCC                        CCCCCCCCCCCCCCCCCCCCC",
"CCCCCCCCCCCCCCCCCCCCCCCCCCC                   9e   CCCCCCCCCCCCCCCCCCCCC",
"CCCCCCCCCCCCCCCCCCCCCCCCCCC                9eCCC   CCCCCCCCCCCCCCCCCCCCC",
"CCCCCCCCCCCCCCCCCCCCCCCCCCC             9fCCCCCC   CCCCCCCCCCCCCCCCCCCCC",
"CCCCCCCCCCCCCCCCCCCCCCCCCCC          ezCCCCCCCCC   CCCCCCCCCCCCCCCCCCCCC",
"CCCCCCCCCCCCCCCCCCCCCCCCCCC      7fzCCCCCCCCCCCC   CCCCCCCCCCCCCCCCCCCCC",
"CCCCCCCCCCCCCCCCCCCCCCCCCCC   9ezCCCCCCCCCCCCCCC   CCCCCCCCCCCCCCCCCCCCC",
"CCCCCCCCCCCCCCCCCCCCCCCCCCC   CCCCCCCCCCCCCCCCCC   CCCCCCCCCCCCCCCCCCCCC",
"CCCCCCCCCCCCCCCCCCCCCCCCCCC   CCCCCCCCCCCCCCCCCC   CCCCCCCCCCCCCCCCCCCCC",
"CCCCCCCCCCCCCCCCCCCCCCCCCCC   CCCCCCCCCCCCCCCCCC   CCCCCCCCCCCCCCCCCCCCC",
"CCCCCCCCCCCCCCCCCCCCCCCCCCC   CCCCCCCCCCCCCCCCCC   CCCCCCCCCCCCCCCCCCCCC",
"CCCCCCCCCCCCCCCCCCCCCCCCCCC   CCCCCCCCCCCCCCCCCC   CCCCCCCCCCCCCCCCCCCCC",
"CCCCCCCCCCCCCCCCCCCCCCCCCCC   CCCCCCCCCCCCCCCCCC   CCCCCCCCCCCCCCCCCCCCC",
"CCCCCCCCCCCCCCCCCCCCCCCCCCC   CCCCCCCCCj97  7eez   CCCCCCCCCCCCCCCCCCCCC",
"CCCCCCCCCCCCCCCCCCCCCCCCCCC   CCCCCCCC7            CCCCCCCCCCCCCCCCCCCCC",
"CCCCCCCCCCCCCCCCCCCCCCCCCCC   CCCCCCz              CCCCCCCCCCCCCCCCCCCCC",
"CCCCCCCCCCCCCCCCCCCCCCCCCCC   CCCCCC9              CCCCCCCCCCCCCCCCCCCCC",
"CCCCCCCCCCCCCCCCCCCCCCCCCCC   CCCCCC               CCCCCCCCCCCCCCCCCCCCC",
"CCCCCCCCCCCCCCCCCCCCCCCCCCC   CCCCCCe             9CCCCCCCCCCCCCCCCCCCCC",
"CCCCCCCCCCCCCCCCCCz97  79fz   CCCCCCz             zCCCCCCCCCCCCCCCCCCCCC",
"CCCCCCCCCCCCCCCCC9            CCCCCCCC7         7zCCCCCCCCCCCCCCCCCCCCCC",
"CCCCCCCCCCCCCCCz              CCCCCCCCCje7   9ezCCCCCCCCCCCCCCCCCCCCCCCC",
"CCCCCCCCCCCCCCC9              CCCCCCCCCCCCCCCCCCCCCCCCCCCCCCCCCCCCCCCCCC",
"CCCCCCCCCCCCCCC               CCCCCCCCCCCCCCCCCCCCCCCCCCCCCCCCCCCCCCCCCC",
"CCCCCCCCCCCCCCC9             eCCCCCCCCCCCCCCCCCCCCCCCCCCCCCCCCCCCCCCCCCC",
"CCCCCCCCCCCCCCCz             zCCCCCCCCCCCCCCCCCCCCCCCCCCCCCCCCCCCCCCCCCC",
"CCCCCCCCCCCCCCCCz9         7mCCCCCCCCCCCCCCCCCCCCCCCCCCCCCCCCCCCCCCCCCCC",
"CCCCCCCCCCCCCCCCCCje7   7ejCCCCCCCCCCCCCCCCCCCCCCCCCCCCCCCCCCCCCCCCCCCCC",
"CCCCCCCCCCCCCCCCCCCCCCCCCCCCCCCCCCCCCCCCCCCCCCCCCCCCCCCCCCCCCCCCCCCCCCCz",
"fCCCCCCCCCCCCCCCCCCCCCCCCCCCCCCCCCCCCCCCCCCCCCCCCCCCCCCCCCCCCCCCCCCCCCCz",
"9CCCCCCCCCCCCCCCCCCCCCCCCCCCCCCCCCCCCCCCCCCCCCCCCCCCCCCCCCCCCCCCCCCCCCC9",
" zCCCCCCCCCCCCCCCCCCCCCCCCCCCCCCCCCCCCCCCCCCCCCCCCCCCCCCCCCCCCCCCCCCCCz ",
"  zCCCCCCCCCCCCCCCCCCCCCCCCCCCCCCCCCCCCCCCCCCCCCCCCCCCCCCCCCCCCCCCCCCz  ",
"J  ezzCCCCCCCCCCCCCCCCCCCCCCCCCCCCCCCCCCCCCCCCCCCCCCCCCCCCCCCCCCCCzze  J",
"J                                                                      J",
"JJ                                                                    JJ",
"JJJJ                                                                JJJJ",
"JJJJJJJJJJJJJJJJJJJJJJJJJJJJJJJJJJJJJJJJJJJJJJJJJJJJJJJJJJJJJJJJJJJJJJJJ",
"JJJJJJJJJJJJJJJJJJJJJJJJJJJJJJJJJJJJJJJJJJJJJJJJJJJJJJJJJJJJJJJJJJJJJJJJ",
"JJJJJJJJJJJJJJJJJJJJJJJJJJJJJJJJJJJJJJJJJJJJJJJJJJJJJJJJJJJJJJJJJJJJJJJJ"
};
