/* XPM */
static const char *headphone[] = {
/* columns rows colors chars-per-pixel */
"72 72 59 1 ",
"  c #2D3D4F",
". c #2C3E4F",
"X c #2C3D50",
"o c #2C3E50",
"O c #2D3E50",
"+ c #2C3F50",
"@ c #2C3E51",
"# c #2C3F51",
"$ c #2D3F51",
"% c #2D3F52",
"& c #2D4052",
"* c #2D4053",
"= c #2D4153",
"- c #2E4053",
"; c #2E4153",
": c #2E4154",
"> c #2F4154",
", c #2E4155",
"< c #2F4155",
"1 c #2E4255",
"2 c #2F4255",
"3 c #2E4256",
"4 c #2F4256",
"5 c #2F4357",
"6 c #304354",
"7 c #304255",
"8 c #304355",
"9 c #304256",
"0 c #304356",
"q c #304257",
"w c #304458",
"e c #314458",
"r c #314558",
"t c #32455A",
"y c #32465B",
"u c #32475B",
"i c #32475C",
"p c #33485C",
"a c #33485D",
"s c #33495D",
"d c #33495E",
"f c #34485D",
"g c #34495D",
"h c #354A5D",
"j c #34485E",
"k c #34495E",
"l c #35495E",
"z c #34495F",
"x c #344A5E",
"c c #51616B",
"v c #E67E22",
"b c #E8831F",
"n c #EA891C",
"m c #F29C12",
"M c #F39C12",
"N c #F1C40F",
"B c #768487",
"V c #7F8C8D",
"C c None",
/* pixels */
"CCCCCCCCCCCCCCCCCCCCCCCCCCCCkzkkkkkkkkkkkkkkCCCCCCCCCCCCCCCCCCCCCCCCCCCC",
"CCCCCCCCCCCCCCCCCCCCCCCCkkkkkkkkkkkkkkkkkkkkkkkkCCCCCCCCCCCCCCCCCCCCCCCC",
"CCCCCCCCCCCCCCCCCCCCCCkkkkkkkkkkkkkkkkkkkkkkkkkkkkCCCCCCCCCCCCCCCCCCCCCC",
"CCCCCCCCCCCCCCCCCCCCkkkkkkkkkkkkkkkkkkkkkkkkkkkkkkkkCCCCCCCCCCCCCCCCCCCC",
"CCCCCCCCCCCCCCCCCCkkkkkkkkkkkkwkwwwwwwwwwkkkkkkkkkkkkkCCCCCCCCCCCCCCCCCC",
"CCCCCCCCCCCCCCCCCkkkkkkzkkw-%%.%-%-.%%%-..%---kkkkkkkkkCCCCCCCCCCCCCCCCC",
"CCCCCCCCCCCCCCCCkkkkkkk--.......%.-..%%.....--.-wkkkkkkkCCCCCCCCCCCCCCCC",
"CCCCCCCCCCCCCCCkkkkkk6%..%%..%%%-------%-%%%....%%-kkkkkkCCCCCCCCCCCCCCC",
"CCCCCCCCCCCCCkkkkkk--%%..---CCCCCCCCCCCCCCCC----%..%wzkkkkkCCCCCCCCCCCCC",
"CCCCCCCCCCCCkkkkkk%%%..%-CCCCCCCCCCCCCCCCCCCCCC-%.%.%-wkkkkkCCCCCCCCCCCC",
"CCCCCCCCCCCkkkkk--.%.%-CCCCCCCCCCCCCCCCCCCCCCCCCC-%.%..wkkkkkCCCCCCCCCCC",
"CCCCCCCCCCCkkkk6.%.-%CCCCCCCCCCCCCCCCCCCCCCCCCCCCCC%.%.%6kkkkCCCCCCCCCCC",
"CCCCCCCCCCkkkk-%.%.-CCCCCCCCCCCCCCCCCCCCCCCCCCCCCCCC-%%.%-kkkkCCCCCCCCCC",
"CCCCCCCCCkkkk%...-CCCCCCCCCCCCCCCCCCCCCCCCCCCCCCCCCCCC%...%kkkkCCCCCCCCC",
"CCCCCCCCkkkk%.%.-CCCCCCCCCCCCCCCCCCCCCCCCCCCCCCCCCCCCCC-.%%-kkkkCCCCCCCC",
"CCCCCCCCkkk-%%.%CCCCCCCCCCCCCCCCCCCCCCCCCCCCCCCCCCCCCCCC%..--kkkCCCCCCCC",
"CCCCCCCkkk-.%.-CCCCCCCCCCCCCCCCCCCCCCCCCCCCCCCCCCCCCCCCCC%.%.-kkkCCCCCCC",
"CCCCCCkkzw-%.%CCCCCCCCCCCCCCCCCCCCCCCCCCCCCCCCCCCCCCCCCCCC%..%wkkkCCCCCC",
"CCCCCCkkw-...-CCCCCCCCCCCCCCCCCCCCCCCCCCCCCCCCCCCCCCCCCCCC6%.%%kzkCCCCCC",
"CCCCCkkk%.%%%CCCCCCCCCCCCCCCCCCCCCCCCCCCCCCCCCCCCCCCCCCCCCC-...-zzzCCCCC",
"CCCCCkkw.%.%CCCCCCCCCCCCCCCCCCCCCCCCCCCCCCCCCCCCCCCCCCCCCCCC%..%6kkCCCCC",
"CCCCkkw%.%.-CCCCCCCCCCCCCCCCCCCCCCCCCCCCCCCCCCCCCCCCCCCCCCCC-%..%kkwCCCC",
"CCCCkk6%..%CCCCCCCCCCCCCCCCCCCCCCCCCCCCCCCCCCCCCCCCCCCCCCCCCC%%..-kkCCCC",
"CCCCkw%%%%6CCCCCCCCCCCCCCCCCCCCCCCCCCCCCCCCCCCCCCCCCCCCCCCCCC-%.%.kkCCCC",
"CCCCk-%.%-CCCCCCCCCCCCCCCCCCCCCCCCCCCCCCCCCCCCCCCCCCCCCCCCCCCC%.%.-kCCCC",
"CCCCC%%..-CCCCCCCCCCCCCCCCCCCCCCCCCCCCCCCCCCCCCCCCCCCCCCCCCCCC-%..%CCCCC",
"CCCCCC%%-CCCCCCCCCCCCCCCCCCCCCCCCCCCCCCCCCCCCCCCCCCCCCCCCCCCCCC%.%CCCCCC",
"CCCCCC%.%CCCCCCCCCCCCCCCCCCCCCCCCCCCCCCCCCCCCCCCCCCCCCCCCCCCCCC%.%CCCCCC",
"CCCCCC.%%CCCCCCCCCCCCCCCCCCCCCCCCCCCCCCCCCCCCCCCCCCCCCCCCCCCCCC%..CCCCCC",
"CCCCCC.%%CCCCCCCCCCCCCCCCCCCCCCCCCCCCCCCCCCCCCCCCCCCCCCCCCCCCCC.%.CCCCCC",
"CCCCCC...CCCCCCCCCCCCCCCCCCCCCCCCCCCCCCCCCCCCCCCCCCCCCCCCCCCCCC%%.CCCCCC",
"CCCC%%%..%%CCCCCCCCCCCCCCCCCCCCCCCCCCCCCCCCCCCCCCCCCCCCCCCCCC%....%%CCCC",
"CCCC.%.%.%%CCCCCCCCCCCCCCCCCCCCCCCCCCCCCCCCCCCCCCCCCCCCCCCCCC%..%...CCCC",
"CCC...cBc..%CCCCCCNNNNNNkkzCCCCCCCCCCCCCCCCCCzkkNNNNNNCCCCCC%.%cBc%.%CCC",
"CCC%%.BVB...CCCCCCNNNNNNkkkkkCCCCCCCCCCCCCCkkkkkNNNNNNCCCCCC...BVB.%.CCC",
"CCC.%.cBc.%.CCCCCCNNNNNNkkkkkCCCCCCCCCCCCCCkkkkkNNNNNNCCCCCC.%.cBc...CCC",
"CCCC....%%.CCCCCCMNNNNNNkkkkkkCCCCCCCCCCCCkkkkkkNNNNNNMCCCCCC..%..%.CCCC",
"CCCC%%%...%.CCCCMMNNNNNNkkkkkkCCCCCCCCCCCCkkkkkkNNNNNNMMCCCC.%..%..%CCCC",
"CCCCCC.%%...CCCMMMNNNNNNkkkkkkCCCCCCCCCCCCkkkkkkNNNNNNMMMCCC..%.%%CCCCCC",
"CCCCCCCC..%.%CCMMMNNNNNNkkkkkkCCCCCCCCCCCCkkkkkkNNNNNNMMMCC.%.%.CCCCCCCC",
"CCCCCCCCC%...CCMMMNNNNNNkkkkkkCCCCCCCCCCCCkkkkkkNNNNNNMMMCC%...CCCCCCCCC",
"CCCCCCCCC%.%.%CMMMNNNNNNkkkkkkCCCCCCCCCCCCkkkkkkNNNNNNMMMC...%%CCCCCCCCC",
"CCCCCCCCCC.%..CMMMNNNNNNkkkkkkCCCCCCCCCCCCkkkkkkNNNNNNMMMC%%..CCCCCCCCCC",
"CCCCCCCCCC..%.%MMMNNNNNNkkkkkkCCCCCCCCCCCCkkkkkkNNNNNNMMM%..%%CCCCCCCCCC",
"CCCCCCCCCCC..%%MMMNNNNNNkkkkkkCCCCCCCCCCCCkkkkkkNNNNNNMMM....CCCCCCCCCCC",
"CCCCCCCCCCC%...MMMNNNNNNkkkkkkCCCCCCCCCCCCkkkkkkNNNNNNMMM.%%.CCCCCCCCCCC",
"CCCCCCCCCCCC%..MMMNNNNNNkkkkkkCCCCCCCCCCCCkkkkkkNNNNNNMMM%..CCCCCCCCCCCC",
"CCCCCCCCCCCCC.%MMMNNNNNNkkkkkkCCCCCCCCCCCCkkkkkkNNNNNNMMM.%CCCCCCCCCCCCC",
"CCCCCCCCCCCCC%.MMMNNNNNNkkkkkkCCCCCCCCCCCCkkkkkkNNNNNNMMM.%CCCCCCCCCCCCC",
"CCCCCCCCCCCCCC.MMMNNNNNNkkkkkkCCCCCCCCCCCCkkkkkkNNNNNNMMM%CCCCCCCCCCCCCC",
"CCCCCCCCCCCCCC.MMMNNNNNNkkkkkkCCCCCCCCCCCCdkkkdkNNNNNNMMM.CCCCCCCCCCCCCC",
"CCCCCCCCCCCCCCCvvvMMMMMM.%...%CCCCCCCCCCCCX..%XXMMMMMMvvvCCCCCCCCCCCCCCC",
"CCCCCCCCCCCCCCCvvvMMMMMM.%.XX&CCCCCCCCCCCC%.XXXXMMMMMMvvvCCCCCCCCCCCCCCC",
"CCCCCCCCCCCCCCCvvvMMMMMM...&..CCCCCCCCCCCC%.XXXXMMMMMMvvvCCCCCCCCCCCCCCC",
"CCCCCCCCCCCCCCCvvvMMMMMM%XXXX.CCCCCCCCCCCC...X.%MMMMMMvvvCCCCCCCCCCCCCCC",
"CCCCCCCCCCCCCCCvvvMMMMMM..XXX&CCCCCCCCCCCC.%.%..MMMMMMvvvCCCCCCCCCCCCCCC",
"CCCCCCCCCCCCCCCvvvMMMMMM%.....CCCCCCCCCCCC%%..%.MMMMMMvvvCCCCCCCCCCCCCCC",
"CCCCCCCCCCCCCCCvvvMMMMMM..%%%%CCCCCCCCCCCC...%..MMMMMMvvvCCCCCCCCCCCCCCC",
"CCCCCCCCCCCCCCCvvvMMMMMM.%....CCCCCCCCCCCC%...%%MMMMMMvvvCCCCCCCCCCCCCCC",
"CCCCCCCCCCCCCCCvvvMMMMMM..%..%CCCCCCCCCCCC..%...MMMMMMvvvCCCCCCCCCCCCCCC",
"CCCCCCCCCCCCCCCvvvMMMMMM%XXX%.CCCCCCCCCCCC%%.%%.MMMMMMvvvCCCCCCCCCCCCCCC",
"CCCCCCCCCCCCCCCvvvMMMMMM..XX..CCCCCCCCCCCC......MMMMMMvvvCCCCCCCCCCCCCCC",
"CCCCCCCCCCCCCCCvvvMMMMmmXXXX.%CCCCCCCCCCCC%.%..%MMMMMMvvvCCCCCCCCCCCCCCC",
"CCCCCCCCCCCCCCCbvvMMMMmm&XXX.%CCCCCCCCCCCC..%..%MMMMMMvvbCCCCCCCCCCCCCCC",
"CCCCCCCCCCCCCCCnvvMMMMMM%..%.%CCCCCCCCCCCC-.%...mMMMMMvvnCCCCCCCCCCCCCCC",
"CCCCCCCCCCCCCCCCnbMMMMMM%..%.%CCCCCCCCCCCC-...%.MMMMMMnnCCCCCCCCCCCCCCCC",
"CCCCCCCCCCCCCCCCCCMMMMMM....%-CCCCCCCCCCCC--.%.%MMMMMMCCCCCCCCCCCCCCCCCC",
"CCCCCCCCCCCCCCCCCCMMMMMM.%%.-CCCCCCCCCCCCCC-.%..MMMMMMCCCCCCCCCCCCCCCCCC",
"CCCCCCCCCCCCCCCCCCMMMMMM.---CCCCCCCCCCCCCCCC---.MMMMMMCCCCCCCCCCCCCCCCCC",
"CCCCCCCCCCCCCCCCCCCCCCCCCCCCCCCCCCCCCCCCCCCCCCCCCCCCCCCCCCCCCCCCCCCCCCCC",
"CCCCCCCCCCCCCCCCCCCCCCCCCCCCCCCCCCCCCCCCCCCCCCCCCCCCCCCCCCCCCCCCCCCCCCCC",
"CCCCCCCCCCCCCCCCCCCCCCCCCCCCCCCCCCCCCCCCCCCCCCCCCCCCCCCCCCCCCCCCCCCCCCCC"
};
