/* XPM */
static char *institution[] = {
/* columns rows colors chars-per-pixel */
"72 72 19 1 ",
"  c #16A085",
". c #17A085",
"X c #15A086",
"o c #16A086",
"O c #17A287",
"+ c #17A488",
"@ c #17A88B",
"# c #18AB8F",
"$ c #18AE91",
"% c #19B193",
"& c #19B395",
"* c #1ABC9B",
"= c #19BB9C",
"- c #19BC9C",
"; c #1ABC9C",
": c #1BBC9C",
"> c #1ABC9D",
", c #1BBC9D",
"< c None",
/* pixels */
"<<<<<<<<<<<<<<<<<<<<<<<<<<<<<<<<<<<<<<<<<<<<<<<<<<<<<<<<<<<<<<<<<<<<<<<<",
"<<<<<<<<<<<<<<<<<<<<<<<<<<<<<<<<<<<<<<<<<<<<<<<<<<<<<<<<<<<<<<<<<<<<<<<<",
"<<<<<<<<<<<<<<<<<<<<<<<<<<<<<<<<<<<<<<<<<<<<<<<<<<<<<<<<<<<<<<<<<<<<<<<<",
"<<<<<<<<<<<<<<<<<<<<<<<<<<<<<<<<<<<;;<<<<<<<<<<<<<<<<<<<<<<<<<<<<<<<<<<<",
"<<<<<<<<<<<<<<<<<<<<<<<<<<<<<<<<;;;;;;;;<<<<<<<<<<<<<<<<<<<<<<<<<<<<<<<<",
"<<<<<<<<<<<<<<<<<<<<<<<<<<<<<<;;;;;;;;;;;;<<<<<<<<<<<<<<<<<<<<<<<<<<<<<<",
"<<<<<<<<<<<<<<<<<<<<<<<<<<<<;;;;;;;;;;;;;;;;<<<<<<<<<<<<<<<<<<<<<<<<<<<<",
"<<<<<<<<<<<<<<<<<<<<<<<<<;;;;;;;;;;;;;;;;;;;;;;<<<<<<<<<<<<<<<<<<<<<<<<<",
"<<<<<<<<<<<<<<<<<<<<<<<;;;;;;;;;;;;;;;;;;;;;;;;;;<<<<<<<<<<<<<<<<<<<<<<<",
"<<<<<<<<<<<<<<<<<<<<;;;;;;;;;;;;;;;;;;;;;;;;;;;;;;;;<<<<<<<<<<<<<<<<<<<<",
"<<<<<<<<<<<<<<<<<<-;;;;;;;;;;;;;;;;;;;;;;;;;;;;;;;;;;;<<<<<<<<<<<<<<<<<<",
"<<<<<<<<<<<<<<<<;;;;;;;;;;;;;;;;;;;;;;;;;;;;;;;;;;;;;;;;<<<<<<<<<<<<<<<<",
"<<<<<<<<<<<<<;;;;;;;;;;;;;;;;;;;;;;;;;;;;;;;;;;;;;;;;;;;;;;<<<<<<<<<<<<<",
"<<<<<<<<<<<;;;;;;;;;;;;;;;;;;;;;;;;;;;;;;;;;;;;;;;;;;;;;;;;;;<<<<<<<<<<<",
"<<<<<<<<;;;;;;;;;;;;;;;;;;;;;;;;;;;;;;;;;;;;;;;;;;;;;;;;;;;;;;;;<<<<<<<<",
"<<<<<<;;;;;;;;;;;;;;;;;;;;;;;;;;;;;;;;;;;;;;;;;;;;;;;;;;;;;;;;;;;;<<<<<<",
"<<<<;;;;;;;;;;;;;;;;;;;;;;;;;;;;;;;;;;**>*>*****;;;;;;;;;;;;;;;;;;;;<<<<",
"<;;;;;;;;;;;;;;;;;;;;;;;**;;;;;;;;;;;;*-*>*>****;;;;;;;;;;;;;;;;;;;;;;;<",
";;;;;;;;;;;;;;;;;;;;;;;;-*--;;;;;;;;;;-->*******;;;;;;**;;;;;;;;;;;;;;;;",
";;;;;;;;;;;*;;;;;;;;;;;;----;;;;;;;;;;--*>****--;;;;;;*-;;;;;;;;;;;;;;;;",
";;;;;;;;*;;***;;----;**;----****;**;---->-;;----;;;;;;--****;**;;;;;;;;;",
"<<<<<<<ooooooooo... oooo  ..oooooooo....+ooo......oooo..ooooooooo<<<<<<<",
"<<<<<<<<oo..oooo.   ..o.. ..oooo..o...oooooooooo.oooo...ooooooo.<<<<<<<<",
"<<<<<<<<<.....oo  ............oo.......oooooooo#oooo....ooooo#%<<<<<<<<<",
"<<<<<<<<<oooo#;;--<<<<<<oooo&-;;-<<<<<<o...#-**><<<<<<oo..#--**<<<<<<<<<",
"<<<<<<<<<oooo#;;--<<<<<<oooo#-;;;<<<<<<ooo.#****<<<<<<.o..#-***<<<<<<<<<",
"<<<<<<<<<.ooo&**;;<<<<<<..oo&-**;<<<<<<oooo#****<<<<<<oo..#-***<<<<<<<<<",
"<<<<<<<<<oooo&**;;<<<<<<...o&***;<<<<<<oooo#****<<<<<<oo..#->**<<<<<<<<<",
"<<<<<<<<<oooo#**;;<<<<<<..  #-**;<<<<<<oooo#;;;;<<<<<<oo  &**>*<<<<<<<<<",
"<<<<<<<<<oooo$**;;<<<<<<..  #-*-;<<<<<<ooo.#;;;;<<<<<<oo  &*>*><<<<<<<<<",
"<<<<<<<<<oooo#**;;<<<<<<..  #---;<<<<<<oooo$;;;;<<<<<<    #**>*<<<<<<<<<",
"<<<<<<<<<ooo.#**;;<<<<<<..  #---;<<<<<<oooo$;;;;<<<<<<    **>*><<<<<<<<<",
"<<<<<<<<<...o#;;**<<<<<<..oo#;;;;<<<<<<o.. #--**<<<<<<oooo-***;<<<<<<<<<",
"<<<<<<<<<..oo#;;**<<<<<<..oo#;;;;<<<<<<o.. #--**<<<<<<oooo#***;<<<<<<<<<",
"<<<<<<<<<oooo#;;**<<<<<<..oo&-;;;<<<<<<ooo+#---*<<<<<<..o.#*;;;<<<<<<<<<",
"<<<<<<<<<ooo+#;;>*<<<<<<..oo#;;;;<<<<<<oooo#--**<<<<<<..oo#*;;;<<<<<<<<<",
"<<<<<<<<<ooo.#*;*><<<<<<.   &-;;;<<<<<<ooo.#>*>*<<<<<<o.oo#;;;;<<<<<<<<<",
"<<<<<<<<<oooo$;;>*<<<<<<    #-;;;<<<<<<ooo.#*>*><<<<<<oooo#;;;;<<<<<<<<<",
"<<<<<<<<<.ooo$;;*><<<<<<    &-**;<<<<<<oooo&>*>*<<<<<<+ooo&;;;;<<<<<<<<<",
"<<<<<<<<<oooo$;;>*<<<<<<    &***;<<<<<<oooo&*>*><<<<<<+ooo%;;;;<<<<<<<<<",
"<<<<<<<<<oooo#;;*><<<<<<    #-**;<<<<<<oooo$>*>*<<<<<<ooo.#--**<<<<<<<<<",
"<<<<<<<<<oooo$;;>*<<<<<<    #-*-;<<<<<<oooo$*>*><<<<<<.o..#-***<<<<<<<<<",
"<<<<<<<<<oooo$;;*><<<<<<    #---;<<<<<<o..o$>***<<<<<<oo..#-***<<<<<<<<<",
"<<<<<<<<<oooo$;;>*<<<<<<   .#---;<<<<<<o.oo$*>**<<<<<<oo..#->**<<<<<<<<<",
"<<<<<<<<<oooo&*>*><<<<<<....#;;;;<<<<<<o..o#--**<<<<<<oo  &**>*<<<<<<<<<",
"<<<<<<<<<oooo%>*>*<<<<<<....#;;;;<<<<<<o..X#--**<<<<<<oo  &*>*><<<<<<<<<",
"<<<<<<<<<o  o#*>*><<<<<<oooo&-;;;<<<<<<o...#--**<<<<<<    &**>*<<<<<<<<<",
"<<<<<<<<<    &>*>*<<<<<<oooo#;;;;<<<<<<o...#--**<<<<<<    %*>*><<<<<<<<<",
"<<<<<<<<<oooo#**;;<<<<<<oooo&-;;*<<<<<<ooo+#;;;;<<<<<<oooo#****<<<<<<<<<",
"<<<<<<<<<ooo.#**;;<<<<<<oooo#-;;*<<<<<<oooo#;;;;<<<<<<oooo#;***<<<<<<<<<",
"<<<<<<<<<oooo#**;;<<<<<<..oo&-***<<<<<<oo.o#;;;;<<<<<<ooo.#;*>*<<<<<<<<<",
"<<<<<<<<<oooo-**;;<<<<<<...o&****<<<<<<o..o#;;;;<<<<<<.ooo#;>**<<<<<<<<<",
"<<<<<<<<<.ooo#**;;<<<<<<..  #-***<<<<<<o...#;;;;<<<<<<oooo&;*>*<<<<<<<<<",
"<<<<<<<<<.oo.#**;;<<<<<<..  #-*-*<<<<<<o..+#;;;;<<<<<<oooo#;>*><<<<<<<<<",
"<<<<<<<<<oooo#**;;<<<<<<..  #---*<<<<<<   +#*;--<<<<<<oooo&;*>*<<<<<<<<<",
"<<<<<<<<<oooo&**;;<<<<<<..  #---><<<<<<   +#**--<<<<<<oooo%*>*><<<<<<<<<",
"<<<<<<<<<oo..#-*--<<<<<< ...&;;;*<<<<<<oooo#*;--<<<<<<oooo#----<<<<<<<<<",
"<<<<<<<<<ooo...+..oooo.. ...ooooo+oooooooooooo..oooooooo..  o+%<<<<<<<<<",
"<<<<<<<<oooo......oooooo  ..ooooooooooooooooo...oooooooo....oooo<<<<<<<<",
"<<<<<<<+oooo ......ooooo  ..ooo+oooo.oooooo+....ooooooo+....ooooo<<<<<<<",
"<<<<>>>*****----;;;;;;;;---->*>*>*>******>*>*>*>*****>*>*>*>****;;;;<<<<",
"<<***>*>****----;;;;;;;;----*>*>*>*>****>*>*>*>*****>*>*>*>*****;;;;;;<<",
"<>*>>*>*>*****-*;;;;;;;;;;-*>*>*>*>******>*>*>*>*>***>*>*>*>****;;;;;;;<",
"<*>**>*>*>******;;;;;;;;;;***>*>*>******>*>*>*>*>***>*>*>*>*>***;;;;;;;<",
">*;;;;;;;;;;;;**;;;;;;;;;;**;;;;;;;;;;**;;;;;;;;;;**;;;;;;;;;;**;;---*;;",
"*>;;;;;;**;;;;*-;;;;**;;;;*-;;;;**;;;;*-;;;;**;;;;*-;;;;**;;;;*-;;--**;;",
"+oooooooooooo.....ooooooo.....ooooooo.....ooooooo.....ooooooo...o.....oo",
"oooooooooooooo.....ooooooo.....ooooooo.....ooooooo.....ooooooo..oo....oo",
"oooooooooooooooo..oooooooooo.ooooooooooo..oooooooooo.ooooooooooooooo.ooo",
"<<<<<<<<<<<<<<<<<<<<<<<<<<<<<<<<<<<<<<<<<<<<<<<<<<<<<<<<<<<<<<<<<<<<<<<<",
"<<<<<<<<<<<<<<<<<<<<<<<<<<<<<<<<<<<<<<<<<<<<<<<<<<<<<<<<<<<<<<<<<<<<<<<<",
"<<<<<<<<<<<<<<<<<<<<<<<<<<<<<<<<<<<<<<<<<<<<<<<<<<<<<<<<<<<<<<<<<<<<<<<<"
};
