/* XPM */
static const char *life_buoy[] = {
/* columns rows colors chars-per-pixel */
"72 72 247 2 ",
"   c #C0392B",
".  c #C1392B",
"X  c #C03A2B",
"o  c #C13A2B",
"O  c #C1392C",
"+  c #C23A2C",
"@  c #C33B2C",
"#  c #C23B2D",
"$  c #C33B2D",
"%  c #C63B2D",
"&  c #C33C2E",
"*  c #C63C2D",
"=  c #C43D2F",
"-  c #C63C2E",
";  c #C73D2E",
":  c #C73D2F",
">  c #C43E2F",
",  c #CA3D2F",
"<  c #C93E2F",
"1  c #CA3E2F",
"2  c #C43D30",
"3  c #C43E30",
"4  c #C53F31",
"5  c #C63F32",
"6  c #CB3E30",
"7  c #CC3F30",
"8  c #C54032",
"9  c #C64033",
"0  c #C74134",
"q  c #C74235",
"w  c #C74335",
"e  c #C74336",
"r  c #C74437",
"t  c #CE4031",
"y  c #C74638",
"u  c #C8473A",
"i  c #C7493D",
"p  c #C8483B",
"a  c #C9483B",
"s  c #C9493C",
"d  c #C94A3D",
"f  c #D24133",
"g  c #D24233",
"h  c #D44233",
"j  c #D44334",
"k  c #D54335",
"l  c #D64435",
"z  c #D84535",
"x  c #DA4636",
"c  c #DC4737",
"v  c #DD4737",
"b  c #DE4738",
"n  c #DF4939",
"m  c #E04838",
"M  c #E1493A",
"N  c #E14A3A",
"B  c #E34B3A",
"V  c #E54B3B",
"C  c #E64B3C",
"Z  c #E74B3C",
"A  c #E64C3C",
"S  c #E74C3C",
"D  c #E74D3D",
"F  c #E74F3F",
"G  c #C84F43",
"H  c #CA5347",
"J  c #CB5347",
"K  c #C9564B",
"L  c #CC564A",
"P  c #C8574D",
"I  c #CC584C",
"U  c #CD594E",
"Y  c #CC5B4F",
"T  c #CC5B50",
"R  c #CB5C50",
"E  c #E74F40",
"W  c #E75040",
"Q  c #E75041",
"!  c #E75142",
"~  c #E75242",
"^  c #E75344",
"/  c #E75445",
"(  c #E75546",
")  c #E75748",
"_  c #E75849",
"`  c #E7594B",
"'  c #E75A4B",
"]  c #E85F51",
"[  c #C9635B",
"{  c #CE6358",
"}  c #CF685F",
"|  c #CF695F",
" . c #D3685E",
".. c #E86052",
"X. c #E86356",
"o. c #E86457",
"O. c #E86558",
"+. c #E86658",
"@. c #E8675A",
"#. c #E8685B",
"$. c #E8695C",
"%. c #E86A5D",
"&. c #E86B5E",
"*. c #E86B5F",
"=. c #E86C5F",
"-. c #CF6A60",
";. c #CF6B61",
":. c #CC6F66",
">. c #D16A60",
",. c #D16A61",
"<. c #D06B63",
"1. c #D06C61",
"2. c #D06C62",
"3. c #D16D63",
"4. c #D16D64",
"5. c #D16F64",
"6. c #CF7067",
"7. c #C97169",
"8. c #C97269",
"9. c #CC7068",
"0. c #D27165",
"q. c #D1796F",
"w. c #D07A72",
"e. c #E86E61",
"r. c #E86F62",
"t. c #E86F63",
"y. c #E87064",
"u. c #E87367",
"i. c #E87468",
"p. c #E87569",
"a. c #E8756A",
"s. c #E8766A",
"d. c #E8766B",
"f. c #E8796E",
"g. c #E87B70",
"h. c #E87C71",
"j. c #E87D72",
"k. c #C6827D",
"l. c #E98378",
"z. c #E9847A",
"x. c #E9857A",
"c. c #E9857B",
"v. c #E9867C",
"b. c #E9877D",
"n. c #E9887F",
"m. c #BFB9BC",
"M. c #CE8884",
"N. c #C59491",
"B. c #C49A99",
"V. c #C29E9C",
"C. c #CF9F9B",
"Z. c #D09B96",
"A. c #E98A80",
"S. c #E98D84",
"D. c #E98E85",
"F. c #E99087",
"G. c #E99188",
"H. c #E99289",
"J. c #E9938B",
"K. c #E9948B",
"L. c #E9958C",
"P. c #EAA099",
"I. c #EAA29A",
"U. c #C3A5A5",
"Y. c #C0ADAF",
"T. c #D8BBBB",
"R. c #DFBBB8",
"E. c #EAA7A1",
"W. c #EAA8A2",
"Q. c #EAABA4",
"!. c #EAADA7",
"~. c #EAAFA9",
"^. c #EAB2AD",
"/. c #EAB6B1",
"(. c #EABEBA",
"). c #EBC0BC",
"_. c #BEC0C4",
"`. c #BDC3C7",
"'. c #BEC5C9",
"]. c #BFC5C9",
"[. c #C0C6CA",
"{. c #C1C6CA",
"}. c #C1C7CB",
"|. c #C2C8CB",
" X c #C3C8CC",
".X c #C3C9CC",
"XX c #C4CACD",
"oX c #C4CACE",
"OX c #C6CCCF",
"+X c #C7CCCF",
"@X c #C7CCD0",
"#X c #C9CED1",
"$X c #C9CFD1",
"%X c #C9CFD2",
"&X c #CACFD3",
"*X c #CAD0D2",
"=X c #CBD1D4",
"-X c #CCD1D4",
";X c #CED3D6",
":X c #CED3D7",
">X c #CED4D6",
",X c #CFD4D7",
"<X c #CFD5D7",
"1X c #D2D2D3",
"2X c #D0D4D8",
"3X c #D0D5D8",
"4X c #D2D8DB",
"5X c #D4D9DB",
"6X c #D7DCDE",
"7X c #D8DCDF",
"8X c #EBC6C2",
"9X c #EBCBC9",
"0X c #EBCDCA",
"qX c #EBD0CE",
"wX c #EBD1CF",
"eX c #EBD4D2",
"rX c #EBD8D6",
"tX c #EBDBDA",
"yX c #D8DDE0",
"uX c #DADEE1",
"iX c #DADFE1",
"pX c #DAE0E1",
"aX c #DDE1E4",
"sX c #DFE4E6",
"dX c #E1E5E7",
"fX c #ECE0E0",
"gX c #ECE1E0",
"hX c #ECE1E1",
"jX c #ECE4E4",
"kX c #ECE5E5",
"lX c #ECE7E7",
"zX c #E2E7E8",
"xX c #E4E9E9",
"cX c #E6EAEB",
"vX c #ECE8E8",
"bX c #ECE9E9",
"nX c #ECEAEB",
"mX c #E8EBEC",
"MX c #E8ECEE",
"NX c #EAEDEE",
"BX c #EBEEEF",
"VX c #ECEEEF",
"CX c #EAEEF0",
"ZX c #ECEFF0",
"AX c #EBF0F1",
"SX c #ECF0F1",
"DX c None",
/* pixels */
"DXDXDXDXDXDXDXDXDXDXDXDXDXDXDXDXDXDXDXDXDXDXDXDXDXDXDXDXDXDXDXSXSXSXSXSXSXSXSXSXSXDXDXDXDXDXDXDXDXDXDXDXDXDXDXDXDXDXDXDXDXDXDXDXDXDXDXDXDXDXDXDX",
"DXDXDXDXDXDXDXDXDXDXDXDXDXDXDXDXDXDXDXDXDXDXDXDXDXDXSXSXSXSXSXSXSXSXSXSXSXSXSXSXSXSXSXSXSXSXDXDXDXDXDXDXDXDXDXDXDXDXDXDXDXDXDXDXDXDXDXDXDXDXDXDX",
"DXDXDXDXDXDXDXDXDXDXDXDXDXDXDXDXDXDXDXDXDXDXDXSXSXSXSXSXSXSXSXSXSXSXSXSXSXSXSXSXSXSXSXSXSXSXSXSXZXDXDXDXDXDXDXDXDXDXDXDXDXDXDXDXDXDXDXDXDXDXDXDX",
"DXDXDXDXDXDXDXDXDXDXDXDXDXDXDXDXDXDXDXDXL.X.s.SXSXSXSXSXSXSXSXSXSXSXSXSXSXSXSXSXSXSXSXSXSXSXSXSXZXd.X.P.DXDXDXDXDXDXDXDXDXDXDXDXDXDXDXDXDXDXDXDX",
"DXDXDXDXDXDXDXDXDXDXDXDXDXDXDXDXDXDXDX*.S S S rXSXSXSXSXSXSXSXSXSXSXSXSXSXSXSXSXSXSXSXSXZXZXZXZXtXS S S *.DXDXDXDXDXDXDXDXDXDXDXDXDXDXDXDXDXDXDX",
"DXDXDXDXDXDXDXDXDXDXDXDXDXDXDXDXDXy.S S S S S L.SXSXSXSXSXSXSXSXSXSXSXSXSXSXSXSXSXSXSXSXZXZXZXVXL.S S S S S y.DXDXDXDXDXDXDXDXDXDXDXDXDXDXDXDXDX",
"DXDXDXDXDXDXDXDXDXDXDXDXDXDXDXv.S S S S S S S ! NXSXSXSXSXSXSXSXSXSXSXSXSXSXSXSXSXSXZXZXZXZXSXNX_ S S S S S S S D.DXDXDXDXDXDXDXDXDXDXDXDXDXDXDX",
"DXDXDXDXDXDXDXDXDXDXDXDXDXDXs.S S S S S S S S S ^.CXSXSXSXSXSXSXSXSXSXSXSXSXSXSXSXSXZXZXZXZXSX^.S S S S S S S S S d.DXDXDXDXDXDXDXDXDXDXDXDXDXDX",
"DXDXDXDXDXDXDXDXDXDXDXDXDX+.S S S S S S S S S S r.SXSXSXSXSXSXSXSXSXSXSXSXSXSXSXSXSXSXSXSXSXSXr.S S S S S S S S S S *.DXDXDXDXDXDXDXDXDXDXDXDXDX",
"DXDXDXDXDXDXDXDXDXDXDXDX_ S S S S S S S S S S S S wXSXSXSXSXSXSXSXSXSXSXSXSXSXSXSXSXSXSXSXSXwXS S S S S S S S S S S S ' DXDXDXDXDXDXDXDXDXDXDXDX",
"DXDXDXDXDXDXDXDXDXDXD.! S S S S S S S S S S S S S D.SXSXSXSXSXSXSXSXSXSXSXSXSXSXSXSXSXSXNXSXD.S S S S S S S S S S S S S S L.DXDXDXDXDXDXDXDXDXDX",
"DXDXDXDXDXDXDXDXDXDXS S S S S S S S S S S S S S S ! lXSXSXSXSXCXSXSXSXSXSXSXSXSXSXSXSXSXNXNX! S S S S S S S S S S S S S S Q DXDXDXDXDXDXDXDXDXDX",
"DXDXDXDXDXDXDXDXDX_ S S S S S S S S S S S S S S S S !.CXSXSXSXzX6X+XXX[.'.XX#X3XzXCXSXSXSX!.S S S S S S S S S S S S S S S S ' DXDXDXDXDXDXDXDXDX",
"DXDXDXDXDXDXDXDX+.S S S S S S S S S S S S S S S S S *.SXNX6X'.'.`.`.`.`.`.`.`.`.'.[.7XCXSX+.S S S S S S S S S S S S S S S S S +.DXDXDXDXDXDXDXDX",
"DXDXDXDXDXDXDXs.S S S S S S S S S S S S S S S S S S S R.'.`.`.`.`.`.`.`.`.`.`.`.'.`.`.[.(.S S S S S S S S S S S S S S S S S S S s.DXDXDXDXDXDXDX",
"DXDXDXDXDXDXv.S S S S S S S S S S S S S S S S S S S z G `.`.`.`.`.`.`.`.`.`.`.`.`.`.`.`.G f S S S S S S S S S S S S S S S S S S S v.DXDXDXDXDXDX",
"DXDXDXDXDXDXS S S S S S S S S S S S S S S S S S S f X % m.m.`.`.`.`.`.`.`.`.`.`.`.`._.m.X   f S S S S S S S S S S S S S S S S S S S DXDXDXDXDXDX",
"DXDXDXDXDX*.S S S S S S S S S S S S S S S S S S f   X X [ `.`.`.`.`.`.`.`.`.`.`.`._._.[   X % f S S S S S S S S S S S S S S S S S S *.DXDXDXDXDX",
"DXDXDXDXDXS S S S S S S S S S S S S S S S S S m X       % _.`.`.`.`.`.`.`.`.`.`.`.`._.2       X S S S S S S S S S S S S S S S S S S S DXDXDXDXDX",
"DXDXDXDX*.S S S S S S S S S S S S S S S S S S %           k.`.`.`.`.`.`.`.`.`.`.`.`.k.          % S S S S S S S S S S S S S S S S S S *.DXDXDXDX",
"DXDXDXF.S S S S S S S S S S S S S S S S S S z .         X i `.'.`.`.`.`.'.`.`.'.`.`.y X         . f S S S S S S S S S S S S S S S S S S F.DXDXDX",
"DXDXDXX.S S S S S S S S S S S S S S S S S S % .         X X U.@X#X*XDXDXDXDX#X#XXXU.X X         % % S S S S S S S S S S S S S S S S S S X.DXDXDX",
"DXDXDXy.S S S S S S S S S S S S S S S S S b . .       % % J DXDXDXDXDXDXDXDXDXDXDXDXH % X X     X   b S S S S S S S S S S S S S S S S S y.DXDXDX",
"DXDXSXSXwXD.! S S S S S S S S S S S S S S f   .       p DXDXDXDXDXDXDXDXDXDXDXDXDXDXDXDXy       X X f S S S S S S S S S S S S S S Q D.wXSXSXDXDX",
"DXDXSXSXSXSXNX!.*.S S S S S S S S S S S S 6 X       T DXDXDXDXDXDXDXDXDXDXDXDXDXDXDXDXDXDXT X   X X % S S S S S S S S S S S S *.!.NXNXSXSXSXDXDX",
"DXDXSXSXSXSXNXNXSX9Xn.Q S S S S S S S S S % X X   9.DXDXDXDXDXDXDXDXDXDXDXDXDXDXDXDXDXDXDXDX:.% X % % S S S S S S S S S ! n.9XZXSXSXZXSXSXSXDXDX",
"DXSXSXSXSXSXSXSXSXSXSXjX!.X.S S S S S S S X X X T DXDXDXDXDXDXDXDXDXDXDXDXDXDXDXDXDXDXDXDXDXDXY X X % S S S S S S S X.E.jXSXSXSXSXSXSXSXSXSXSXDX",
"DXSXSXSXSXSXSXSXSXSXSXSXSXSX8Xl.S S S S S % X y DXDXDXDXDXDXDXDXDXDXDXDXDXDXDXDXDXDXDXDXDXDXDXDXy X % S S S S S v.8XCXSXSXSXSXSXSXSXSXSXSXSXSXDX",
"DXSXSXSXSXSXSXSXSXSXSXSXSXSXSXSXjXI.X.S S % % M.DXDXDXDXDXDXDXDXDXDXDXDXDXDXDXDXDXDXDXDXDXDXDXDXM.% % S S X.I.jXSXSXSXSXSXSXSXSXSXSXSXSXSXSXSXDX",
"DXSXSXSXSXSXSXSXSXSXSXSXSXSXSXSXSXSXNX).j.% J DXDXDXDXDXDXDXDXDXDXDXDXDXDXDXDXDXDXDXDXDXDXDXDXDXDXH 2 j.).NXZXZXSXSXSXSXSXSXSXSXSXSXSXSXSXSXSXDX",
"DXSXSXSXSXSXSXSXSXSXSXSXSXSXSXSXSXSXSXSXSXT.DXDXDXDXDXDXDXDXDXDXDXDXDXDXDXDXDXDXDXDXDXDXDXDXDXDXDXDXT.SXSXSXSXSXSXSXSXSXSXSXSXSXSXSXSXSXSXSXSXDX",
"NXSXSXSXSXSXSXSXSXSXSXSXSXSXSXSXSXSXSXSXSXNXDXDXDXDXDXDXDXDXDXDXDXDXDXDXDXDXDXDXDXDXDXDXDXDXDXDXDXDXmXSXSXSXSXSXSXSXSXSXSXSXSXSXSXSXSXSXSXSXZXNX",
"pXSXSXSXSXSXSXSXSXSXSXSXSXSXSXSXSXSXSXSXSXDXDXDXDXDXDXDXDXDXDXDXDXDXDXDXDXDXDXDXDXDXDXDXDXDXDXDXDXDXDXSXSXSXSXSXSXSXSXSXSXSXSXSXSXSXSXSXSXSXSXaX",
"3XSXSXSXSXSXSXSXSXSXSXSXSXSXSXSXSXSXSXSXSXDXDXDXDXDXDXDXDXDXDXDXDXDXDXDXDXDXDXDXDXDXDXDXDXDXDXDXDXDXDXSXSXSXSXSXSXSXSXSXSXSXSXSXSXSXSXSXSXSXSX*X",
"XXZXSXSXSXSXSXSXSXSXSXSXSXSXSXSXSXSXSXSXSXDXDXDXDXDXDXDXDXDXDXDXDXDXDXDXDXDXDXDXDXDXDXDXDXDXDXDXDXDXDXSXSXSXSXSXSXSXSXSXSXSXSXSXSXSXSXSXSXSXSXXX",
"[.xXSXSXSXSXSXSXSXSXSXSXSXSXSXSXSXSXSXSXSXDXDXDXDXDXDXDXDXDXDXDXDXDXDXDXDXDXDXDXDXDXDXDXDXDXDXDXDXDXDXSXSXSXSXSXSXSXSXSXSXSXSXSXSXSXSXSXSXSXmX`.",
"[.pXZXSXSXSXSXSXSXSXSXSXSXSXSXSXSXSXSXSXSXDXDXDXDXDXDXDXDXDXDXDXDXDXDXDXDXDXDXDXDXDXDXDXDXDXDXDXDXDXDXSXSXSXSXSXSXSXSXSXSXSXSXSXSXSXSXSXSXCXuX[.",
"XX*XSXSXSXSXSXSXSXSXSXSXSXSXSXSXSXSXSXSXSXDXDXDXDXDXDXDXDXDXDXDXDXDXDXDXDXDXDXDXDXDXDXDXDXDXDXDXDXDXDXSXSXSXSXSXSXSXSXSXSXSXSXSXSXSXSXSXSXCX3XXX",
"XX[.ZXZXSXSXSXSXSXSXSXSXSXSXSXSXSXSXSXSXSXDXDXDXDXDXDXDXDXDXDXDXDXDXDXDXDXDXDXDXDXDXDXDXDXDXDXDXDXDXDXSXSXSXSXSXSXSXSXSXSXSXSXSXSXSXSXSXSXNX[.+X",
"*X`.aXSXSXSXSXSXSXSXSXSXSXSXSXSXSXSXSXSXSXDXDXDXDXDXDXDXDXDXDXDXDXDXDXDXDXDXDXDXDXDXDXDXDXDXDXDXDXDXDXSXSXSXSXSXSXSXSXSXSXSXSXSXSXSXSXSXSXaX'.#X",
"*X[.XXSXSXSXSXSXSXSXSXSXSXSXSXSXSXSXSXSXSXNXDXDXDXDXDXDXDXDXDXDXDXDXDXDXDXDXDXDXDXDXDXDXDXDXDXDXDXDXSXSXSXSXSXZXSXSXSXSXSXSXSXSXSXSXSXSXSX#X`.*X",
"*X`.`.xXSXSXSXSXSXSXSXSXSXSXSXSXSXSXSXSXSXjXDXDXDXDXDXDXDXDXDXDXDXDXDXDXDXDXDXDXDXDXDXDXDXDXDXDXDXDXgXSXSXSXSXZXSXSXSXSXSXSXSXSXSXSXSXSXzX`.'.3X",
"3X`.`.3XSXSXSXSXSXSXSXSXSXSXSXSXSXNXSX8Xv.Q d.DXDXDXDXDXDXDXDXDXDXDXDXDXDXDXDXDXDXDXDXDXDXDXDXDXDXd.Q l.8XSXZXZXSXSXSXSXSXSXSXSXSXSXCXCX*X'.`.*X",
"DX[.`.`.NXSXSXSXSXSXSXSXSXSXSXSXjX!.X.S S S Q DXDXDXDXDXDXDXDXDXDXDXDXDXDXDXDXDXDXDXDXDXDXDXDXDXDXQ S S S X.!.jXSXSXSXSXSXSXSXSXSXSXSXNX[.'.`.DX",
"DXXX`.`.3XSXSXSXSXSXSXSXZXZX9XD.Q S S S S S S y.DXDXDXDXDXDXDXDXDXDXDXDXDXDXDXDXDXDXDXDXDXDXDXDXs.S S S S S S F D.9XSXSXSXCXSXSXSXSXSX3X`.`.XXDX",
"DX#X`.`.`.aXSXSXSXSXSXbX^.*.S S S S S S S S S S n.DXDXDXDXDXDXDXDXDXDXDXDXDXDXDXDXDXDXDXDXDXDXv.S S S S S S S S S S *.^.NXNXSXSXSXSXzX`.`.`.*XDX",
"DXDX`.`.`.XXSXSXZXrXL.Q S S S S S S S S S S S S S L.DXDXDXDXDXDXDXDXDXDXDXDXDXDXDXDXDXDXDXDXF.S S S S S S S S S S S S S Q L.eXSXNXCXXX`.`.`.DXDX",
"DXDX[.`.`.`.3X/.y.S S S S S S S S S S S S S S S S S v.DXDXDXDXDXDXDXDXDXDXDXDXDXDXDXDXDXDXv.S S S S S S S S S S S S S S S S S y.^.3X`.`.'.'.DXDX",
"DXDX#X'.V.P X b S S S S S S S S S S S S S S S S S S S i.DXDXDXDXDXDXDXDXDXDXDXDXDXDXDXDXi.S S S S S S S S S S S S S S S S S S S b X P V.'.@XDXDX",
"DXDXC.u     X % b S S S S S S S S S S S S S S S S S S S E j.DXDXDXDXDXDXDXDXDXDXDXDXj.! S S S S S S S S S S S S S S S S S S S S %       y C.DXDX",
"DXDXDX2         2 S S S S S S S S S S S S S S S S S S S S S tXSXDXDXDXDXDXDXDXDXSXtXS S S S S S S S S S S S S S S S S S S S S %         2 DXDXDX",
"DXDXDX:.          2 S S S S S S S S S S S S S S S S S S S j.SXSXSXSXSXSXSXSXSXSXSXSXj.S S S S S S S S S S S S S S S S S S S % X       % :.DXDXDX",
"DXDXDXDX9 %       X 6 S S S S S S S S S S S S S S S S S S (.SXSXSXSXSXSXSXSXSXSXSXSX(.S S S S S S S S S S S S S S S S S S t X X       2 DXDXDXDX",
"DXDXDXDX:.X   X   X % % S S S S S S S S S S S S S S S S ] CXSXSXSXSXSXSXSXSXSXSXSXSXNX] S S S S S S S S S S S S S S S S % % X X   X   :.DXDXDXDX",
"DXDXDXDXDXt X X         % n S S S S S S S S S S S S S S P.CXSXSXSXSXSXSXSXSXSXSXSXSXSXI.S S S S S S S S S S S S S S n %     X X X X 9 DXDXDXDXDX",
"DXDXDXDXDX2.X X         X % b S S S S S S S S S S S S E jXNXSXSXSXSXSXSXSXSXSXSXSXCXNXjX! S S S S S S S S S S S S z %           X % 0.DXDXDXDXDX",
"DXDXDXDXDXDXH %               f S S S S S S S S S S S v.SXSXSXSXSXSXSXSXSXSXSXSXSXSXSXSXl.S S S S S S S S S S S f %             % T DXDXDXDXDXDX",
"DXDXDXDXDXDXDXp             X X % b S S S S S S S S S 8XSXSXSXSXSXSXSXSXSXSXSXSXSXSXSXSX8XS S S S S S S S S z % X X             p DXDXDXDXDXDXDX",
"DXDXDXDXDXDXDXDX2 X                 6 n S S S S S S +.CXSXSXSXSXSXSXSXSXSXSXSXSXSXSXSXSXSXX.S S S S S S S %     X         X   2 DXDXDXDXDXDXDXDX",
"DXDXDXDXDXDXDXDXDX%             X X X % 7 S S S S S E.SXSXSXSXSXSXSXSXSXSXSXSXSXSXSXSXSXSXE.S S S S n f X %               X 2 DXDXDXDXDXDXDXDXDX",
"DXDXDXDXDXDXDXDXDX:.  X                   X 6 f S Q jXSXSXSXSXSXSXSXSXSXSXSXSXSXSXSXSXSXCXjX! S z 6 X X                   . q.DXDXDXDXDXDXDXDXDX",
"DXDXDXDXDXDXDXDXDXDX{ %                   X %   %  .6XNXSXSXSXSXSXSXSXCXSXSXSXSXSXCXSXSXmX6X} % % X   X               X . :.DXDXDXDXDXDXDXDXDXDX",
"DXDXDXDXDXDXDXDXDXDXDX9.% X                       N.'.`.XX*X3XyXaXzXmXmXNXmXzXzXyX6X:XXX`.`.N.                      % % w.DXDXDXDXDXDXDXDXDXDXDX",
"DXDXDXDXDXDXDXDXDXDXDXDXDX2                   % 9 `.`.`.`.'.'.`.`.'.`.`.`.`.`._.`.`.`.`.`.`.'.9                     9 DXDXDXDXDXDXDXDXDXDXDXDXDX",
"DXDXDXDXDXDXDXDXDXDXDXDXDXDXu %                 7.'.`.`.`.`.`.`.`.`.`.`.`.`.`.`.`.`.`.`.`.`.`.9.X X             % y DXDXDXDXDXDXDXDXDXDXDXDXDXDX",
"DXDXDXDXDXDXDXDXDXDXDXDXDXDXDXY               X m.`.`.`.`.`.`.`.`.`.`.`.`.`.`.`.`.`.`.`.`.`.`.m.% X             T DXDXDXDXDXDXDXDXDXDXDXDXDXDXDX",
"DXDXDXDXDXDXDXDXDXDXDXDXDXDXDXDX2.9         % H `.`.`.`.`.`.`.`.`.`.`.`.`.`.`.`.`.`.`.`.`.`.`.`.P       X % 9 :.DXDXDXDXDXDXDXDXDXDXDXDXDXDXDXDX",
"DXDXDXDXDXDXDXDXDXDXDXDXDXDXDXDXDXDX| 2   X X B.`.`.`.`.`.`.`.`.`.`.`.`.`.`.`.`.`.`.`.`.`.`.`.`.B.      2 2.DXDXDXDXDXDXDXDXDXDXDXDXDXDXDXDXDXDX",
"DXDXDXDXDXDXDXDXDXDXDXDXDXDXDXDXDXDXDXDX| 2 u `.`.`.`.`.`.`.`.`.`.`.`.`.`.`.`.`.`.`.`.`.`.`.`.`.'.9 2 | DXDXDXDXDXDXDXDXDXDXDXDXDXDXDXDXDXDXDXDX",
"DXDXDXDXDXDXDXDXDXDXDXDXDXDXDXDXDXDXDXDXDXDXZ.#X'.`.`.`.`.`.`.`.`.`.`.`.`.`.`.`.`.`.`.`.`.`.'.[.*XZ.DXDXDXDXDXDXDXDXDXDXDXDXDXDXDXDXDXDXDXDXDXDX",
"DXDXDXDXDXDXDXDXDXDXDXDXDXDXDXDXDXDXDXDXDXDXDXDXDXDX*XXX`.'.`.`.`.`.`.`.`.`.`.`.`.[.'.`.XX*XDXDXDXDXDXDXDXDXDXDXDXDXDXDXDXDXDXDXDXDXDXDXDXDXDXDX",
"DXDXDXDXDXDXDXDXDXDXDXDXDXDXDXDXDXDXDXDXDXDXDXDXDXDXDXDXDX:X:X#X*XXXXX'.'.XX@X#X*X*X3XDXDXDXDXDXDXDXDXDXDXDXDXDXDXDXDXDXDXDXDXDXDXDXDXDXDXDXDXDX"
};
