/* XPM */
static char *light_bulb[] = {
/* columns rows colors chars-per-pixel */
"72 72 63 1 ",
"  c #E67E22",
". c #E67F22",
"X c #E8831F",
"o c #E9851E",
"O c #E8841F",
"+ c #E9861E",
"@ c #EC8D1A",
"# c #ED8D1A",
"$ c #E88B1E",
"% c #E88A1F",
"& c #E98F1D",
"* c #EE9019",
"= c #F19715",
"- c #F29913",
"; c #F39B12",
": c #F39B13",
"> c #F29C11",
", c #F39C11",
"< c #F29C12",
"1 c #F39C12",
"2 c #F39D12",
"3 c #F29C13",
"4 c #F49C12",
"5 c #F49C13",
"6 c #F29914",
"7 c #F1B40F",
"8 c #F1B50F",
"9 c #F2B60F",
"0 c #F2B90F",
"q c #F1BB0F",
"w c #F2BB0F",
"e c #F1BC0F",
"r c #F1BF0F",
"t c #F2BE0F",
"y c #ECA717",
"u c #EBA119",
"i c #ECA118",
"p c #EFB812",
"a c #F0B311",
"s c #F1B410",
"d c #F0B510",
"f c #F2B410",
"g c #F2B610",
"h c #F2B710",
"j c #F1B810",
"k c #F1B910",
"l c #F2B910",
"z c #F2BA10",
"x c #F1BC10",
"c c #F1BD10",
"v c #F0BD11",
"b c #F1C10F",
"n c #F2C00F",
"m c #F1C20F",
"M c #F1C30F",
"N c #F2C20F",
"B c #F1C40F",
"V c #7F8C8D",
"C c #808C8C",
"Z c #808C8D",
"A c #95A5A6",
"S c #BDC3C7",
"D c None",
/* pixels */
"DDDDDDDDDDDDDDDDDDDDDDDDDDDDDDDDDDDDDDDDDDDDDDDDDDDDDDDDDDDDDDDDDDDDDDDD",
"DDDDDDDDDDDDDDDDDDDDDDDDDDDDDDDDDDDDDDDDDDDDDDDDDDDDDDDDDDDDDDDDDDDDDDDD",
"DDDDDDDDDDDDDDDDDDDDDDDDDDDDDDDDDDDDDDDDDDDDDDDDDDDDDDDDDDDDDDDDDDDDDDDD",
"DDDDDDDDDDDDDDDDDDDDDDDDDDDDDDDDDDDDDDDDDDDDDDDDDDDDDDDDDDDDDDDDDDDDDDDD",
"DDDDDDDDDDDDDDDDDDDDDDDDDDDDDDDDDDDDDDDDDDDDDDDDDDDDDDDDDDDDDDDDDDDDDDDD",
"DDDDDDDDDDDDDDDDDDDDDDDDDDDDDDDDDDDDDDDDDDDDDDDDDDDDDDDDDDDDDDDDDDDDDDDD",
"DDDDDDDDDDDDDDDDDDDDDDDDDDDDDDDD1111BeekeDDDDDDDDDDDDDDDDDDDDDDDDDDDDDDD",
"DDDDDDDDDDDDDDDDDDDDDDDDDDDD11111111BBBBBBefDDDDDDDDDDDDDDDDDDDDDDDDDDDD",
"DDDDDDDDDDDDDDDDDDDDDDDDDD>111111111BBBBBBBBBkDDDDDDDDDDDDDDDDDDDDDDDDDD",
"DDDDDDDDDDDDDDDDDDDDDDDDD11111111111BBBBBBBBBBBfDDDDDDDDDDDDDDDDDDDDDDDD",
"DDDDDDDDDDDDDDDDDDDDDDD1111111111111BBBBBBBBBBBBkDDDDDDDDDDDDDDDDDDDDDDD",
"DDDDDDDDDDDDDDDDDDDDDD11111111111111BBBBBBBBBBBBBkDDDDDDDDDDDDDDDDDDDDDD",
"DDDDDDDDDDDDDDDDDDDDD111111111111111BBBBBBBBBBBBBBBDDDDDDDDDDDDDDDDDDDDD",
"DDDDDDDDDDDDDDDDDDDD1111111111111111BBBBBBBBBBBBBBBeDDDDDDDDDDDDDDDDDDDD",
"DDDDDDDDDDDDDDDDDDD11111111111111111BBBBBBBBBBBBBBBBfDDDDDDDDDDDDDDDDDDD",
"DDDDDDDDDDDDDDDDDDD11111111111111111BBBBBBBBBBBBBBBBBDDDDDDDDDDDDDDDDDDD",
"DDDDDDDDDDDDDDDDDD111111111111111111BBBBBBBBBBBBBBBBBBDDDDDDDDDDDDDDDDDD",
"DDDDDDDDDDDDDDDDDD111111111111111111BBBBBBBBBBBBBBBBBBfDDDDDDDDDDDDDDDDD",
"DDDDDDDDDDDDDDDDD1111111111111111111BBBBBBBBBBBBBBBBBBeDDDDDDDDDDDDDDDDD",
"DDDDDDDDDDDDDDDDD111111111111111111iBBBBBBBBBBBBBBBBBBBfDDDDDDDDDDDDDDDD",
"DDDDDDDDDDDDDDDD11111111111111111111BBBBBBBBBBBBBBBBBBBeDDDDDDDDDDDDDDDD",
"DDDDDDDDDDDDDDDD11111111111111111111BBBBBBBBBBBBBBBBBBBBDDDDDDDDDDDDDDDD",
"DDDDDDDDDDDDDDDD11111111111111111111BBBBBBBBBBMMBBBBBBBBDDDDDDDDDDDDDDDD",
"DDDDDDDDDDDDDDD111111111111111111111BBBBBBBBBBMMBBBBBBBBkDDDDDDDDDDDDDDD",
"DDDDDDDDDDDDDDD11111111111##1111##11MMuuMMMMuuMMBBBBBBBBkDDDDDDDDDDDDDDD",
"DDDDDDDDDDDDDDD1111111111#..#>1#..#1M3 XuMMu XuMBBBBBBBBkDDDDDDDDDDDDDDD",
"DDDDDDDDDDDDDDD111111111#....O#....#u    uu    uBBBBBBBBBDDDDDDDDDDDDDDD",
"DDDDDDDDDDDDDDD111111111X.##....##..  uu    uu %BBBBBBBBBDDDDDDDDDDDDDDD",
"DDDDDDDDDDDDDDD111111111#X11#..#11#. uMMuX uBB%uBBBBBBBBBDDDDDDDDDDDDDDD",
"DDDDDDDDDDDDDDD111111111=.111##1111#uMMMBuuMBkXfBBBBBBBBkDDDDDDDDDDDDDDD",
"DDDDDDDDDDDDDDD1111111111X#111111111BBMMBBBBBy#BBBBBBBBBkDDDDDDDDDDDDDDD",
"DDDDDDDDDDDDDDDD111111111#O11111113uBBMMBBBBB&iBBBBBBBBBkDDDDDDDDDDDDDDD",
"DDDDDDDDDDDDDDDD111111111=.111111111MMMMBBBBB pBBBBBBBBBDDDDDDDDDDDDDDDD",
"DDDDDDDDDDDDDDDD1111111111X#11111111MMBBBBBBy%BBBBBBBBBkDDDDDDDDDDDDDDDD",
"DDDDDDDDDDDDDDDDD111111111#X11111111BBBBBBBB&uBBBBBBBBBfDDDDDDDDDDDDDDDD",
"DDDDDDDDDDDDDDDDD111111111=.=1111111BBBBBBBpXpBBBBBBBBBDDDDDDDDDDDDDDDDD",
"DDDDDDDDDDDDDDDDDD111111111X=3111111BBBBBBBy%BBBBBBBBBkDDDDDDDDDDDDDDDDD",
"DDDDDDDDDDDDDDDDDD111111111#X1111111BBBBBBB&uBBBBBBBBkDDDDDDDDDDDDDDDDDD",
"DDDDDDDDDDDDDDDDDDD11111111=.1111111BBBBBBpXpBBBBBBBBDDDDDDDDDDDDDDDDDDD",
"DDDDDDDDDDDDDDDDDDD111111111X#11111iBBBBBBy%BBBBBBBBkDDDDDDDDDDDDDDDDDDD",
"DDDDDDDDDDDDDDDDDDDD11111111#X111111BBBBBB&uBBBBBBBBDDDDDDDDDDDDDDDDDDDD",
"DDDDDDDDDDDDDDDDDDDD11111111=.111111BBBBBpXkBBBBBBBfDDDDDDDDDDDDDDDDDDDD",
"DDDDDDDDDDDDDDDDDDDDD11111111X*11111BBBBBy%MBBBBBBBDDDDDDDDDDDDDDDDDDDDD",
"DDDDDDDDDDDDDDDDDDDDDD1111111#X11111BBBBB&uMBBBBBBDDDDDDDDDDDDDDDDDDDDDD",
"DDDDDDDDDDDDDDDDDDDDDDD111111=.31111BBBBM.pBBBBBBfDDDDDDDDDDDDDDDDDDDDDD",
"DDDDDDDDDDDDDDDDDDDDDDD1111111X*1111BBBBu%MMBBBBkDDDDDDDDDDDDDDDDDDDDDDD",
"DDDDDDDDDDDDDDDDDDDDDDDD111111#X1111BBBB&uMMBBBBDDDDDDDDDDDDDDDDDDDDDDDD",
"DDDDDDDDDDDDDDDDDDDDDDDDD11111=.1111BBBkXpMMBBBDDDDDDDDDDDDDDDDDDDDDDDDD",
"DDDDDDDDDDDDDDDDDDDDDDDDD111111X*111BBBy%BBBBBkDDDDDDDDDDDDDDDDDDDDDDDDD",
"DDDDDDDDDDDDDDDDDDDDDDDDDD11111#%113BBB&uBBBBBDDDDDDDDDDDDDDDDDDDDDDDDDD",
"DDDDDDDDDDDDDDDDDDDDDDDDDDD1111=.333BBpXfBBBBfDDDDDDDDDDDDDDDDDDDDDDDDDD",
"DDDDDDDDDDDDDDDDDDDDDDDDDDDAAAAAAAAASSSSSSSSSDDDDDDDDDDDDDDDDDDDDDDDDDDD",
"DDDDDDDDDDDDDDDDDDDDDDDDDDDAAAAAAAAASSSSSSSSSDDDDDDDDDDDDDDDDDDDDDDDDDDD",
"DDDDDDDDDDDDDDDDDDDDDDDDDDDAAAAAAAAASSSSSSSSSDDDDDDDDDDDDDDDDDDDDDDDDDDD",
"DDDDDDDDDDDDDDDDDDDDDDDDDDDVVVVVVVZZAAAAAAAAADDDDDDDDDDDDDDDDDDDDDDDDDDD",
"DDDDDDDDDDDDDDDDDDDDDDDDDDDVVVVVVVVVAAAAAAAAADDDDDDDDDDDDDDDDDDDDDDDDDDD",
"DDDDDDDDDDDDDDDDDDDDDDDDDDDVVVVVVVVVAAAAAAAAADDDDDDDDDDDDDDDDDDDDDDDDDDD",
"DDDDDDDDDDDDDDDDDDDDDDDDDDDAAAAAAAAASSSSSSSSSDDDDDDDDDDDDDDDDDDDDDDDDDDD",
"DDDDDDDDDDDDDDDDDDDDDDDDDDDAAAAAAAAASSSSSSSSSDDDDDDDDDDDDDDDDDDDDDDDDDDD",
"DDDDDDDDDDDDDDDDDDDDDDDDDDDAAAAAAAAASSSSSSSSSDDDDDDDDDDDDDDDDDDDDDDDDDDD",
"DDDDDDDDDDDDDDDDDDDDDDDDDDDVVVVVVVVVAAAAAAAAADDDDDDDDDDDDDDDDDDDDDDDDDDD",
"DDDDDDDDDDDDDDDDDDDDDDDDDDDVVVVVVVVVAAAAAAAAADDDDDDDDDDDDDDDDDDDDDDDDDDD",
"DDDDDDDDDDDDDDDDDDDDDDDDDDDVVVVVVVVVAAAAAAAAADDDDDDDDDDDDDDDDDDDDDDDDDDD",
"DDDDDDDDDDDDDDDDDDDDDDDDDDDAAAAAAAAASSSSSSSSSDDDDDDDDDDDDDDDDDDDDDDDDDDD",
"DDDDDDDDDDDDDDDDDDDDDDDDDDDAAAAAAAAASSSSSSSSSDDDDDDDDDDDDDDDDDDDDDDDDDDD",
"DDDDDDDDDDDDDDDDDDDDDDDDDDDAAAAAAAAASSSSSSSSSDDDDDDDDDDDDDDDDDDDDDDDDDDD",
"DDDDDDDDDDDDDDDDDDDDDDDDDDDDDDDDVVVVVVVVDDDDDDDDDDDDDDDDDDDDDDDDDDDDDDDD",
"DDDDDDDDDDDDDDDDDDDDDDDDDDDDDDDDDZVZVVZDDDDDDDDDDDDDDDDDDDDDDDDDDDDDDDDD",
"DDDDDDDDDDDDDDDDDDDDDDDDDDDDDDDDDDZZZZDDDDDDDDDDDDDDDDDDDDDDDDDDDDDDDDDD",
"DDDDDDDDDDDDDDDDDDDDDDDDDDDDDDDDDDDDDDDDDDDDDDDDDDDDDDDDDDDDDDDDDDDDDDDD",
"DDDDDDDDDDDDDDDDDDDDDDDDDDDDDDDDDDDDDDDDDDDDDDDDDDDDDDDDDDDDDDDDDDDDDDDD",
"DDDDDDDDDDDDDDDDDDDDDDDDDDDDDDDDDDDDDDDDDDDDDDDDDDDDDDDDDDDDDDDDDDDDDDDD"
};
