/* XPM */
static char *lock[] = {
/* columns rows colors chars-per-pixel */
"72 72 70 1 ",
"  c #E67E22",
". c #F39C11",
"X c #F39C12",
"o c #F49D13",
"O c #F3A012",
"+ c #F2A611",
"@ c #F2A811",
"# c #F2B410",
"$ c #DFBB23",
"% c #CCB238",
"& c #F1C00F",
"* c #F1C40F",
"= c #F2C40F",
"- c #F1C410",
"; c #F1C510",
": c #BEAB48",
"> c #9E9B6A",
", c #90947A",
"< c #7F8C8D",
"1 c #818D8B",
"2 c #879085",
"3 c #95A5A6",
"4 c #96A5A7",
"5 c #96A6A7",
"6 c #98A7A8",
"7 c #98A7A9",
"8 c #99A7A9",
"9 c #98A8A9",
"0 c #99A8A9",
"q c #99A8AA",
"w c #9AA8AA",
"e c #9AA9AA",
"r c #9BAAAB",
"t c #9CAAAC",
"y c #9DACAD",
"u c #9EACAD",
"i c #9FADAF",
"p c #A0ADAF",
"a c #A1AEAF",
"s c #A1AFB0",
"d c #A2AFB0",
"f c #A2AEB1",
"g c #A2AFB1",
"h c #A3AFB2",
"j c #A3B0B2",
"k c #A5B1B3",
"l c #A6B1B4",
"z c #A7B2B5",
"x c #A8B3B5",
"c c #AAB4B7",
"v c #AAB5B7",
"b c #ABB5B8",
"n c #AFB9BC",
"m c #B0B9BC",
"M c #B1BABD",
"N c #B4BCC0",
"B c #B6BEC1",
"V c #B7BFC2",
"C c #B9C0C4",
"Z c #BBC1C5",
"A c #BBC2C5",
"S c #BCC2C5",
"D c #BCC2C6",
"F c #BDC3C6",
"G c #BDC3C7",
"H c #BDC4C6",
"J c #BDC4C7",
"K c #BCC3C8",
"L c #BDC3C8",
"P c None",
/* pixels */
"PPPPPPPPPPPPPPPPPPPPPPPPPPPPPPPPPPPPPPPPPPPPPPPPPPPPPPPPPPPPPPPPPPPPPPPP",
"PPPPPPPPPPPPPPPPPPPPPPPPPPPPPPPPPPPPPPPPPPPPPPPPPPPPPPPPPPPPPPPPPPPPPPPP",
"PPPPPPPPPPPPPPPPPPPPPPPPPPPPPPPPPPPPPPPPPPPPPPPPPPPPPPPPPPPPPPPPPPPPPPPP",
"PPPPPPPPPPPPPPPPPPPPPPPPPPPPPPPPJFJJJJFJPPPPPPPPPPPPPPPPPPPPPPPPPPPPPPPP",
"PPPPPPPPPPPPPPPPPPPPPPPPPPPPLGJJGGGGJJJJLLLGPPPPPPPPPPPPPPPPPPPPPPPPPPPP",
"PPPPPPPPPPPPPPPPPPPPPPPPPPJGGGJFGGGGJJLVLLLGJJPPPPPPPPPPPPPPPPPPPPPPPPPP",
"PPPPPPPPPPPPPPPPPPPPPPPPLGGGGGGFGGLGLLLLLLVJJJJJPPPPPPPPPPPPPPPPPPPPPPPP",
"PPPPPPPPPPPPPPPPPPPPPPPLLGGGGGGFMcxhhxcNVLLJJJJJGPPPPPPPPPPPPPPPPPPPPPPP",
"PPPPPPPPPPPPPPPPPPPPPPLLJJFFFn944444333399MJFFFJGGPPPPPPPPPPPPPPPPPPPPPP",
"PPPPPPPPPPPPPPPPPPPPPJLVJFFn9334444433334499nFJJGGGPPPPPPPPPPPPPPPPPPPPP",
"PPPPPPPPPPPPPPPPPPPPJJJJJFk433444444333344443kCFGGGGPPPPPPPPPPPPPPPPPPPP",
"PPPPPPPPPPPPPPPPPPPFJJJJN7333344344433334444333BGGGGGPPPPPPPPPPPPPPPPPPP",
"PPPPPPPPPPPPPPPPPPJJFFFC944444499kPPPkk933333343FGGGGGPPPPPPPPPPPPPPPPPP",
"PPPPPPPPPPPPPPPPPPJJFFF9444444dPPPPPPPPPPd9333449GGGGGPPPPPPPPPPPPPPPPPP",
"PPPPPPPPPPPPPPPPPJJJFJk34444aPPPPPPPPPPPPPP934444xGGGGLPPPPPPPPPPPPPPPPP",
"PPPPPPPPPPPPPPPPPJJFFC444449PPPPPPPPPPPPPPPPd44444VGGGGPPPPPPPPPPPPPPPPP",
"PPPPPPPPPPPPPPPPFJLLLx44449PPPPPPPPPPPPPPPPPP94444xFJJJJPPPPPPPPPPPPPPPP",
"PPPPPPPPPPPPPPPPJJLLLw4449PPPPPPPPPPPPPPPPPPPP44444FJJJJPPPPPPPPPPPPPPPP",
"PPPPPPPPPPPPPPPPJJJVd4449kPPPPPPPPPPPPPPPPPPPPk4444xFJFFPPPPPPPPPPPPPPPP",
"PPPPPPPPPPPPPPPPJJJc44449PPPPPPPPPPPPPPPPPPPPPP94444vFFFPPPPPPPPPPPPPPPP",
"PPPPPPPPPPPPPPPFMv9344449PPPPPPPPPPPPPPPPPPPPPP9443339vMFPPPPPPPPPPPPPPP",
"PPPPPPPPPPPPPPP933334433xPPPPPPPPPPPPPPPPPPPPPPk343333339PPPPPPPPPPPPPPP",
"PPPPPPPPPPPPPPP933333333PPPPPPPPPPPPPPPPPPPPPPPk333333339PPPPPPPPPPPPPPP",
"PPPPPPPPPPPPPPP433333333PPPPPPPPPPPPPPPPPPPPPPPP333333337PPPPPPPPPPPPPPP",
"PPPPPPPPPPPPPPP433333333PPPPPPPPPPPPPPPPPPPPPPPP333333334PPPPPPPPPPPPPPP",
"PPPPPPPPPPPPPPP433333333PPPPPPPPPPPPPPPPPPPPPPPP333333334PPPPPPPPPPPPPPP",
"PPPPPPPPPPPPPPP433333333PPPPPPPPPPPPPPPPPPPPPPPP333333434PPPPPPPPPPPPPPP",
"PPPPPPPPPPPPP;*433333333************************333333444*;PPPPPPPPPPPPP",
"PPPPPPPPPPP****433333333************************333344444****PPPPPPPPPPP",
"PPPPPPPPPP*****433333333************************333344444*****PPPPPPPPPP",
"PPPPPPPPPP*****,1<<<<<<,************************,<<<<<<<,*****PPPPPPPPPP",
"PPPPPPPPP;*****%11<<<<1%************************%<<<<<<1%*****;PPPPPPPPP",
"PPPPPPPPP-**----$:>2>:$-****----********-********$:>2>:$******-PPPPPPPPP",
"PPPPPPPPP****---****----*****---********--**********---********PPPPPPPPP",
"PPPPPPPPP*****--****----******--********----********----*******PPPPPPPPP",
"PPPPPPPPP*****--******--******--********----********----*******PPPPPPPPP",
"PPPPPPPPP***#@XX....XXXX....XXXX....ooo.XXXXXXXX..XXXXXX..+#***PPPPPPPPP",
"PPPPPPPPP**+XXXX....XXXX....XXXXX...oo.oXXXXXXXX..XXXXXX..o.+**PPPPPPPPP",
"PPPPPPPPP*+oXXXXXX..XXXXXX..XXXXXX....o.XXXXXXXX...XXXXX...oo+*PPPPPPPPP",
"PPPPPPPPP#ooXXXXXXX.XXXXXXX.XXXXXX.....oXXXXXXXX....XXXX..oooo#PPPPPPPPP",
"PPPPPPPPP@oooo..XXXXXXXXXXXXXXXXXXXXXXXXXXXXXXXXXXXXXXXX..XXXX@PPPPPPPPP",
"PPPPPPPPPooo....XXXXXXXXXXXXXXXXXXXXXXXXXXXXXXXXXXXXXXXX..XXXXOPPPPPPPPP",
"PPPPPPPPPo.....                                          ..XoooPPPPPPPPP",
"PPPPPPPPP..o...                                          ..XoooPPPPPPPPP",
"PPPPPPPPPoooXXX                                          ...o..PPPPPPPPP",
"PPPPPPPPPoooXXXXXXXXXXXXXXXXXXXXXXXXXXXXXXXXXXXXXXXXXXXX....o.oPPPPPPPPP",
"PPPPPPPPPoXXXXXXXXXXXXXXXXXXXXXXXXXXXXXXXXXXXXXXXXXXXXXX....oooPPPPPPPPP",
"PPPPPPPPPXXXXXXXXXXXXXXXXXXXXXXXXXXXXXXXXXXXXXXXXXXXXXXXX..ooooPPPPPPPPP",
"PPPPPPPPPoo....                                          XXXXXXPPPPPPPPP",
"PPPPPPPPPo.o...                                          XXXXXoPPPPPPPPP",
"PPPPPPPPPoo....                                          XXXoooPPPPPPPPP",
"PPPPPPPPPooo....XXXXXXXXXXXXXXXXXXXXXXXXXXXXXXXXXXXXXXXXXXXXoooPPPPPPPPP",
"PPPPPPPPPXXX.XXXXXXXXXXXXXXXXXXXXXXXXXXXXXXXXXXXXXXXXXXX....o..PPPPPPPPP",
"PPPPPPPPPXXX.XXXXXXXXXXXXXXXXXXXXXXXXXXXXXXXXXXXXXXXXXXX......oPPPPPPPPP",
"PPPPPPPPPoXXXXX                                          ...oooPPPPPPPPP",
"PPPPPPPPPoXXXXX                                          X.ooooPPPPPPPPP",
"PPPPPPPPPo.....                                          XXXXXXPPPPPPPPP",
"PPPPPPPPPo.o....XXXXXXXXXXXXXXXXXXXXXXXXXXXXXXXXXXXXXXXXXXXXXXoPPPPPPPPP",
"PPPPPPPPPoooXX.XXXXXXXXXXXXXXXXXXXXXXXXXXXXXXXXXXXXXXXXXXXXXoooPPPPPPPPP",
"PPPPPPPPPoooXXXXXXXXXXXXXXXXXXXXXXXXXXXXXXXXXXXXXXXXXXXXXXXXoooPPPPPPPPP",
"PPPPPPPPPXXXXXX                                          ...o..PPPPPPPPP",
"PPPPPPPPPXXXXXX                                          .....oPPPPPPPPP",
"PPPPPPPPPoXXXXX                                          ...oooPPPPPPPPP",
"PPPPPPPPPoXXXXXXXXXXXXXXXXXXXXXXXXXXXXXXXXXXXXXXXXXXXXXX...ooooPPPPPPPPP",
"PPPPPPPPPooo.o...XXXXXXXXXXXXXXXXXXXXXXXXXXXXXXXXXXXXXXXXXXXXXoPPPPPPPPP",
"PPPPPPPPPooo.....XXXXXXXXXXXXXXXXXXXXXXXXXXXXXXXXXXXXXXXXXXXXXoPPPPPPPPP",
"PPPPPPPPPooo....XXXXXXXXXXXXXXXXXXXXXXXXXXXXXXXXXXXXXXXX.X..XXXPPPPPPPPP",
"PPPPPPPPPo.o....XXXXXXXXXXXXXXXXXXXXXXXXXXXXXXXXXXXXXXXX....XXoPPPPPPPPP",
"PPPPPPPPPPoo..ooXXXXXXXXXXXXXXXXXXXXXXXXXXXXXXXXXXXXXXXX....ooPPPPPPPPPP",
"PPPPPPPPPPoo...oXXXXXXXXXXXXXXXXXXXXXXXXXXXXXXXXXXXXXXXX.o..ooPPPPPPPPPP",
"PPPPPPPPPPPo..ooXXXXXXXXXXXXXXXXXXXXXXXXXXXXXXXXXXXXXXXXoooooPPPPPPPPPPP",
"PPPPPPPPPPPPPoooXXXXXXXXXXXXXXXXXXXXXXXXXXXXXXXXXXXXXXXXoooPPPPPPPPPPPPP"
};
