/* XPM */
static char *microphone[] = {
/* columns rows colors chars-per-pixel */
"72 72 19 1 ",
"  c #7F8C8D",
". c #95A5A5",
"X c #95A4A6",
"o c #94A5A6",
"O c #95A5A6",
"+ c #95A5A7",
"@ c #96A5A7",
"# c #95A6A6",
"$ c #96A6A7",
"% c #98A7A8",
"& c #9BAAAB",
"* c #9EABAE",
"= c #A2AFB0",
"- c #A2AFB1",
"; c #A4B0B3",
": c #A5B1B3",
"> c #BCC3C6",
", c #BDC3C7",
"< c None",
/* pixels */
"<<<<<<<<<<<<<<<<<<<<<<<<<<<<<<<<::*O>,<<<<<<<<<<<<<<<<<<<<<<<<<<<<<<<<<<",
"<<<<<<<<<<<<<<<<<<<<<<<<<<<<<<=OOOOO>,,,,<<<<<<<<<<<<<<<<<<<<<<<<<<<<<<<",
"<<<<<<<<<<<<<<<<<<<<<<<<<<<<<*OOOOOO,,,,,,,<<<<<<<<<<<<<<<<<<<<<<<<<<<<<",
"<<<<<<<<<<<<<<<<<<<<<<<<<<<:OOOOOOOO,,,,,,,,<<<<<<<<<<<<<<<<<<<<<<<<<<<<",
"<<<<<<<<<<<<<<<<<<<<<<<<<<<OOOOOOOOO,,,,,,,,,<<<<<<<<<<<<<<<<<<<<<<<<<<<",
"<<<<<<<<<<<<<<<<<<<<<<<<<<*OOOOOOOOO,,,,,,,,,,<<<<<<<<<<<<<<<<<<<<<<<<<<",
"<<<<<<<<<<<<<<<<<<<<<<<<<:OOOOOOOOOO,,,,,,,,,,,<<<<<<<<<<<<<<<<<<<<<<<<<",
"<<<<<<<<<<<<<<<<<<<<<<<<<OOOOOOOOOOO,,,,,,,,,,,<<<<<<<<<<<<<<<<<<<<<<<<<",
"<<<<<<<<<<<<<<<<<<<<<<<<:OOOOOOOOOOO,,,,,,,,,,,<<<<<<<<<<<<<<<<<<<<<<<<<",
"<<<<<<<<<<<<<<<<<<<<<<<<=OOOOOOOOOOO,,,,,,,,,,,<<<<<<<<<<<<<<<<<<<<<<<<<",
"<<<<<<<<<<<<<<<<<<<<<<<<*OOOOOOOOOOO,,,,,,,,,,,,<<<<<<<<<<<<<<<<<<<<<<<<",
"<<<<<<<<<<<<<<<<<<<<<<<<%OOOOOOOOOOO,,,,,,,,,,,><<<<<<<<<<<<<<<<<<<<<<<<",
"<<<<<<<<<<<<<<<<<<<<<<<<OOOOOOOOOOOO,,,,,,,,,,,,<<<<<<<<<<<<<<<<<<<<<<<<",
"<<<<<<<<<<<<<<<<<<<<<<<<OOOOOOOOOOOO,,,,,,,,,,,,<<<<<<<<<<<<<<<<<<<<<<<<",
"<<<<<<<<<<<<<<<<<<<<<<<<OOOOOOOOOOOO,,,,,,,,,,,,<<<<<<<<<<<<<<<<<<<<<<<<",
"<<<<<<<<<<<<<<<<<<<<<<<<      OOOOOO,,,,,,OOOOOO<<<<<<<<<<<<<<<<<<<<<<<<",
"<<<<<<<<<<<<<<<<<<<<<<<<      OOOOOO,,,,,,OOOOOO<<<<<<<<<<<<<<<<<<<<<<<<",
"<<<<<<<<<<<<<<<<<<<<<<<<      OOOOOO,,,,,,OOOOOO<<<<<<<<<<<<<<<<<<<<<<<<",
"<<<<<<<<<<<<<<<<<<<<<<<<OOOOOOOOOOOO,,,,,,,,,,,,<<<<<<<<<<<<<<<<<<<<<<<<",
"<<<<<<<<<<<<<<<<<<<<<<<<OOOOOOOOOOOO,,,,,,,,,,,,<<<<<<<<<<<<<<<<<<<<<<<<",
"<<<<<<<<<<<<<<<<<<<<<<<<OOOOOOOOOOOO,,,,,,,,,,,,<<<<<<<<<<<<<<<<<<<<<<<<",
"<<<<<<<<<<<<<<<<<<<<<<<<      OOOOOO,,,,,,OOOOOO<<<<<<<<<<<<<<<<<<<<<<<<",
"<<<<<<<<<<<<<<<<<<<<<<<<      OOOOOO,,,,,,OOOOOO<<<<<<<<<<<<<<<<<<<<<<<<",
"<<<<<<<<<<<<<<<<<<<<<<<<      OOOOOO,,,,,,OOOOOO<<<<<<<<<<<<<<<<<<<<<<<<",
"<<<<<<<<<<<<<<<<<<<<<<<<OOOOOOOOOOOO,,,,,,,,,,,,<<<<<<<<<<<<<<<<<<<<<<<<",
"<<<<<<<<<<<<<<<<<<<<<<<<OOOOOOOOOOOO,,,,,,,,,,,,<<<<<<<<<<<<<<<<<<<<<<<<",
"<<<<<<<<<<<<<<<<<<<<<<<<OOOOOOOOOOOO,,,,,,,,,,,,<<<<<<<<<<<<<<<<<<<<<<<<",
"<<<<<<<<<<<<<<<<<<<<<<<<      OOOOOO,,,,,,OOOOOO<<<<<<<<<<<<<<<<<<<<<<<<",
"<<<<<<<<<<<<<<<<<<<<<<<<      OOOOOO,,,,,,OOOOOO<<<<<<<<<<<<<<<<<<<<<<<<",
"<<<<<<<<<<<<<<<<<<<<<<<<      OOOOOO,,,,,,OOOOOO<<<<<<<<<<<<<<<<<<<<<<<<",
"<<<<<<<<<<<<<<OO<<<<<<<<OOOOOOOOOOOO,,,,,,,,,,,,<<<<<<<<OO<<<<<<<<<<<<<<",
"<<<<<<<<<<<<<OOOO<<<<<<<OOOOOOOOOOOO,,,,,,,,,,,,<<<<<<<OOOO<<<<<<<<<<<<<",
"<<<<<<<<<<<<OOOOOO<<<<<<OOOOOOOOOOOO,,,,,,,,,,,,<<<<<<OOOOOO<<<<<<<<<<<<",
"<<<<<<<<<<<<OOOOOO<<<<<<OOOOOOOOOOOO,,,,,,,,,,,,<<<<<<OOOOOO<<<<<<<<<<<<",
"<<<<<<<<<<<<OOOOOO<<<<<<OOOOOOOOOOOO,,,,,,,,,,,,<<<<<<OOOOOO<<<<<<<<<<<<",
"<<<<<<<<<<<<OOOOOO<<<<<<OOOOOOOOOOOO,,,,,,,,,,,,<<<<<<OOOOOO<<<<<<<<<<<<",
"<<<<<<<<<<<<OOOOOO<<<<<<*OOOOOOOOOOO,,,,,,,,,,,><<<<<<OOOOOO<<<<<<<<<<<<",
"<<<<<<<<<<<<OOOOOO<<<<<<*OOOOOOOOOOO,,,,,,,,,,,,<<<<<<OOOOOO<<<<<<<<<<<<",
"<<<<<<<<<<<<OOOOOO<<<<<<*OOOOOOOOOOO,,,,,,,,,,,<<<<<<<OOOOOO<<<<<<<<<<<<",
"<<<<<<<<<<<<OOOOOO<<<<<<:OOOOOOOOOOO,,,,,,,,,,,<<<<<<<OOOOOO<<<<<<<<<<<<",
"<<<<<<<<<<<<OOOOOOO<<<<<<OOOOOOOOOOO,,,,,,,,,,,<<<<<<OOOOOOO<<<<<<<<<<<<",
"<<<<<<<<<<<<<OOOOOO<<<<<<=OOOOOOOOOO,,,,,,,,,,,<<<<<<OOOOOO<<<<<<<<<<<<<",
"<<<<<<<<<<<<<OOOOOO<<<<<<<*OOOOOOOOO,,,,,,,,,,<<<<<<<OOOOOO<<<<<<<<<<<<<",
"<<<<<<<<<<<<<OOOOOOO<<<<<<<OOOOOOOOO,,,,,,,,,<<<<<<<@OOOOOO<<<<<<<<<<<<<",
"<<<<<<<<<<<<<<OOOOOO<<<<<<<:OOOOOOOO>,,,,,,,<<<<<<<<OOOOOO<<<<<<<<<<<<<<",
"<<<<<<<<<<<<<<OOOOOOO<<<<<<<<*O@OOOO,,,,,,,<<<<<<<<OOOOOOO<<<<<<<<<<<<<<",
"<<<<<<<<<<<<<<<OOOOOO<<<<<<<<<=@OOOO,,,,,<<<<<<<<<<OOOOOO<<<<<<<<<<<<<<<",
"<<<<<<<<<<<<<<<OOOOOOO<<<<<<<<<<::*O>,<<<<<<<<<<<<OOOOOOO<<<<<<<<<<<<<<<",
"<<<<<<<<<<<<<<<<OOOOOOO<<<<<<<<<<<<<<<<<<<<<<<<<<OOOOOOO<<<<<<<<<<<<<<<<",
"<<<<<<<<<<<<<<<<OOOOOOOO<<<<<<<<<<<<<<<<<<<<<<<<OOOOOOOO<<<<<<<<<<<<<<<<",
"<<<<<<<<<<<<<<<<<OOOOOOOO<<<<<<<<<<<<<<<<<<<<<<OOOOOOOO<<<<<<<<<<<<<<<<<",
"<<<<<<<<<<<<<<<<<<OOOOOOOOO<<<<<<<<<<<<<<<<<<OOOOOOOOO<<<<<<<<<<<<<<<<<<",
"<<<<<<<<<<<<<<<<<<<OOOOOOOOOO<<<<<<<<<<<<<<@OOOOOOOOO<<<<<<<<<<<<<<<<<<<",
"<<<<<<<<<<<<<<<<<<<<OOOOOOOOOOOO<<<<<<<<OOOOOOOOOOOO<<<<<<<<<<<<<<<<<<<<",
"<<<<<<<<<<<<<<<<<<<<<OOOOOOOOOOOOOOOOOOOOOOOOOOOOOO<<<<<<<<<<<<<<<<<<<<<",
"<<<<<<<<<<<<<<<<<<<<<<OOOOOOOOOOOOOOOOOOOOOOOOOOOO<<<<<<<<<<<<<<<<<<<<<<",
"<<<<<<<<<<<<<<<<<<<<<<<<OOOOOOOOOOOOOOOOOOOOOOOO<<<<<<<<<<<<<<<<<<<<<<<<",
"<<<<<<<<<<<<<<<<<<<<<<<<<@OOOOOOOOOOOOOOOOOOOOO<<<<<<<<<<<<<<<<<<<<<<<<<",
"<<<<<<<<<<<<<<<<<<<<<<<<<<<<OOOOOOOOOOOOOOOO<<<<<<<<<<<<<<<<<<<<<<<<<<<<",
"<<<<<<<<<<<<<<<<<<<<<<<<<<<<<<<<OOOOOOOO<<<<<<<<<<<<<<<<<<<<<<<<<<<<<<<<",
"<<<<<<<<<<<<<<<<<<<<<<<<<<<<<<<<<OOOOOO<<<<<<<<<<<<<<<<<<<<<<<<<<<<<<<<<",
"<<<<<<<<<<<<<<<<<<<<<<<<<<<<<<<<<OOOOOO<<<<<<<<<<<<<<<<<<<<<<<<<<<<<<<<<",
"<<<<<<<<<<<<<<<<<<<<<<<<<<<<<<<<<OOOOOO<<<<<<<<<<<<<<<<<<<<<<<<<<<<<<<<<",
"<<<<<<<<<<<<<<<<<<<<<<<<<<<<<<<<<OOOOOO<<<<<<<<<<<<<<<<<<<<<<<<<<<<<<<<<",
"<<<<<<<<<<<<<<<<<<<<<<<<<<<<<<<<<OOOOOO<<<<<<<<<<<<<<<<<<<<<<<<<<<<<<<<<",
"<<<<<<<<<<<<<<<<<<<<<<<<<<<<<<<<<OOOOOO<<<<<<<<<<<<<<<<<<<<<<<<<<<<<<<<<",
"<<<<<<<<<<<<<<OOOOOOOOOOOOOOOOOOOOOOOOOOOOOOOOOOOOOOOOOOOO<<<<<<<<<<<<<<",
"<<<<<<<<<<<<<OOOOOOOOOOOOOOOOOOOOOOOOOOOOOOOOOOOOOOOOOOOOOO<<<<<<<<<<<<<",
"<<<<<<<<<<<<OOOOOOOOOOOOOOOOOOOOOOOOOOOOOOOOOOOOOOOOOOOOOOOO<<<<<<<<<<<<",
"<<<<<<<<<<<<OOOOOOOOOOOOOOOOOOOOOOOOOOOOOOOOOOOOOOOOOOOOOOOO<<<<<<<<<<<<",
"<<<<<<<<<<<<<OOOOOOOOOOOOOOOOOOOOOOOOOOOOOOOOOOOOOOOOOOOOOO<<<<<<<<<<<<<",
"<<<<<<<<<<<<<<OOOOOOOOOOOOOOOOOOOOOOOOOOOOOOOOOOOOOOOOOOOO<<<<<<<<<<<<<<"
};
