/* XPM */
static const char *paperclip[] = {
/* columns rows colors chars-per-pixel */
"72 72 14 1 ",
"  c #94A5A5",
". c #95A5A5",
"X c #95A4A6",
"o c #94A5A6",
"O c #95A5A6",
"+ c #94A5A7",
"@ c #95A5A7",
"# c #96A4A6",
"$ c #96A5A6",
"% c #96A5A7",
"& c #94A6A6",
"* c #95A6A6",
"= c #96A6A6",
"- c None",
/* pixels */
"------------------------------------------------------------------------",
"------------------------------------------------------------------------",
"------------------------------------------------------------------------",
"------------------------------------------------------------------------",
"------------------------------------------------------------------------",
"------------------------------------------------------------------------",
"---------------------------------------------------OOOOOO---------------",
"-------------------------------------------------OOOOOOOOOO-------------",
"-----------------------------------------------OOOOOOOOOOOOOO-----------",
"----------------------------------------------OOOOOOOOOOOOOOOO----------",
"---------------------------------------------OOOOOOOOOOOOOOOOOO---------",
"--------------------------------------------OOOOOOOOOOOOOOOOOOOO--------",
"-------------------------------------------OOOOOOOO*----OOOOOOOO--------",
"------------------------------------------OOOOOOOO--------OOOOOOO-------",
"-----------------------------------------OOOOOOOO----------OOOOOO-------",
"----------------------------------------OOOOOOOO-----------OOOOOOO------",
"---------------------------------------OOOOOOOO-------------OOOOOO------",
"--------------------------------------OOOOOOOO--------------OOOOOO------",
"-------------------------------------OOOOOOOO---------------OOOOOO------",
"------------------------------------OOOOOOOO----------------OOOOOO------",
"-----------------------------------OOOOOOOO----------------*OOOOO*------",
"----------------------------------OOOOOOOO-----------------OOOOOO-------",
"---------------------------------OOOOOOOO----O------------OOOOOOO-------",
"--------------------------------OOOOOOOO----=O=----------OOOOOOO--------",
"-------------------------------OOOOOOOO----=OOO=--------OOOOOOOO--------",
"------------------------------OOOOOOOO----=OOOOOO------OOOOOOOO---------",
"-----------------------------OOOOOOOO----=OOOOOOOO----OOOOOOOO----------",
"----------------------------OOOOOOOO----=OOOOOOOO----OOOOOOOO-----------",
"---------------------------OOOOOOOO----OOOOOOOOO----OOOOOOOO------------",
"--------------------------OOOOOOOO----=OOOOOOO=----OOOOOOOO-------------",
"-------------------------OOOOOOOO----=OOOOOOO=----OOOOOOOO--------------",
"------------------------OOOOOOOO----=OOOOOOO=----OOOOOOOO---------------",
"-----------------------OOOOOOOO----=OOOOOOO=----OOOOOOOO----------------",
"----------------------OOOOOOOO----=OOOOOOOO----OOOOOOOO-----------------",
"---------------------OOOOOOOO----=OOOOOOOO----OOOOOOOO------------------",
"--------------------OOOOOOOO----=OOOOOOOO----OOOOOOOO-----O-------------",
"-------------------OOOOOOOO----=OOOOOOO=----OOOOOOOO-----OOO------------",
"------------------OOOOOOOO----=OOOOOOO=----OOOOOOOO-----OOOOO-----------",
"-----------------OOOOOOOO----=OOOOOOO=----OOOOOOOO-----OOOOOOO----------",
"----------------OOOOOOOO----=OOOOOOO=----OOOOOOOO-----OOOOOOOO----------",
"---------------OOOOOOOO----OOOOOOOO=----OOOOOOOO-----OOOOOOOO-----------",
"--------------OOOOOOOO-----OOOOOOO=----OOOOOOOO-----OOOOOOOO------------",
"-------------OOOOOOOO-----OOOOOOO=----OOOOOOOO-----OOOOOOOO-------------",
"------------OOOOOOOO------OOOOOO=----OOOOOOOO-----OOOOOOOO--------------",
"------------OOOOOOO------OOOOOOO----OOOOOOOO-----OOOOOOOO---------------",
"-----------=OOOOOO-------OOOOOO----OOOOOOOO-----OOOOOOOO----------------",
"-----------OOOOOOO-------OOOOOOO--OOOOOOOO-----OOOOOOOO-----------------",
"-----------OOOOOO---------OOOOOOOOOOOOOOO-----OOOOOOOO------------------",
"----------OOOOOOO---------OOOOOOOOOOOOOO-----OOOOOOOO-------------------",
"----------OOOOOO-----------OOOOOOOOOOOO-----OOOOOOOO--------------------",
"----------OOOOOO-----------OOOOOOOOOOO-----OOOOOOOO---------------------",
"----------OOOOOO------------OOOOOOOOO-----OOOOOOOO----------------------",
"----------OOOOOO--------------OOOOOO-----OOOOOOOO-----------------------",
"----------OOOOOO------------------------OOOOOOOO------------------------",
"----------OOOOOO-----------------------OOOOOOOO-------------------------",
"----------OOOOOOO---------------------OOOOOOOO--------------------------",
"-----------OOOOOO--------------------OOOOOOOO---------------------------",
"-----------OOOOOOO------------------OOOOOOOO----------------------------",
"-----------OOOOOOO-----------------OOOOOOOO-----------------------------",
"------------OOOOOOO---------------OOOOOOOO------------------------------",
"------------OOOOOOOOO-----------OOOOOOOOO-------------------------------",
"-------------OOOOOOOOO--------OOOOOOOOOO--------------------------------",
"--------------OOOOOOOOOOOOOOOOOOOOOOOOO---------------------------------",
"---------------OOOOOOOOOOOOOOOOOOOOOOO----------------------------------",
"----------------OOOOOOOOOOOOOOOOOOOOO-----------------------------------",
"-----------------OOOOOOOOOOOOOOOOOO*------------------------------------",
"-------------------OOOOOOOOOOOOOOO--------------------------------------",
"---------------------&*OOOOOOOOO----------------------------------------",
"------------------------------------------------------------------------",
"------------------------------------------------------------------------",
"------------------------------------------------------------------------",
"------------------------------------------------------------------------"
};
