/* XPM */
static const char *phone[] = {
/* columns rows colors chars-per-pixel */
"72 72 84 1 ",
"  c #C0392B",
". c #C1392B",
"X c #C03A2B",
"o c #C13A2B",
"O c #C23A2B",
"+ c #C33A2B",
"@ c #C1392C",
"# c #C23A2C",
"$ c #C33A2C",
"% c #C33B2C",
"& c #C33A2D",
"* c #C33B2D",
"= c #C43B2C",
"- c #C43B2D",
"; c #C53B2D",
": c #C43C2D",
"> c #C53C2D",
", c #C63C2D",
"< c #C53C2E",
"1 c #C63C2E",
"2 c #C73C2E",
"3 c #C73D2E",
"4 c #C83D2E",
"5 c #C83D2F",
"6 c #C93D2F",
"7 c #CA3D2F",
"8 c #C93E2F",
"9 c #CA3E2F",
"0 c #CB3F2F",
"q c #CC3E2F",
"w c #C93D30",
"e c #CA3E30",
"r c #CB3E30",
"t c #CB3F30",
"y c #CC3F30",
"u c #CD3F30",
"i c #CD3F31",
"p c #CE3F31",
"a c #D03F32",
"s c #CF4031",
"d c #CF4032",
"f c #CF4132",
"g c #D04132",
"h c #D14132",
"j c #D14133",
"k c #D24133",
"l c #D14232",
"z c #D34332",
"x c #D34233",
"c c #D24134",
"v c #D34334",
"b c #D44334",
"n c #D64334",
"m c #D64435",
"M c #D84435",
"N c #D84436",
"B c #D84536",
"V c #D94536",
"C c #DA4536",
"Z c #DA4537",
"A c #DA4636",
"S c #DB4637",
"D c #DC4637",
"F c #DC4737",
"G c #DE4738",
"H c #DE4838",
"J c #DF4838",
"K c #DE4839",
"L c #DF4939",
"P c #E04939",
"I c #E14939",
"U c #E24939",
"Y c #E1493A",
"T c #E14A3A",
"R c #E24A3A",
"E c #E34B3A",
"W c #E34A3B",
"Q c #E44B3B",
"! c #E54B3B",
"~ c #E64C3B",
"^ c #E74B3C",
"/ c #E64C3C",
"( c #E74C3C",
") c None",
/* pixels */
"))))))))))))))))))))))))))))))))))))))))))))))))))))))))))))))))))))))))",
"))))))))))))))))))))))))))))))))))))))))))))))))))))))))))))))))))))))))",
"))))))))))))))))))))))))))))))))))))))))))))))))))))))))))))))))))))))))",
"))))))))))))))(((())))))))))))))))))))))))))))))))))))))))))))))))))))))",
"))))))))))((((((((()))))))))))))))))))))))))))))))))))))))))))))))))))))",
")))))))))((((((((((())))))))))))))))))))))))))))))))))))))))))))))))))))",
"))))))))(((((((((((())))))))))))))))))))))))))))))))))))))))))))))))))))",
")))))))(((((((((((((()))))))))))))))))))))))))))))))))))))))))))))))))))",
")))))))(((((((((((((()))))))))))))))))))))))))))))))))))))))))))))))))))",
"))))))(((((((((((((((())))))))))))))))))))))))))))))))))))))))))))))))))",
")))))((((((((((((((((())))))))))))))))))))))))))))))))))))))))))))))))))",
")))))(((((((((((((((((()))))))))))))))))))))))))))))))))))))))))))))))))",
"))))(((((((((((((((((((())))))))))))))))))))))))))))))))))))))))))))))))",
"))))(((((((((((((((((((())))))))))))))))))))))))))))))))))))))))))))))))",
"))))((((((((((((((((((((()))))))))))))))))))))))))))))))))))))))))))))))",
")))h((((((((((((((((((((()))))))))))))))))))))))))))))))))))))))))))))))",
")))i(((((((((((((((((((((())))))))))))))))))))))))))))))))))))))))))))))",
")))#i(((((((((((((((((((((()))))))))))))))))))))))))))))))))))))))))))))",
")))##(((((((((((((((((((((()))))))))))))))))))))))))))))))))))))))))))))",
")))#XM((((((((((((((((((((()))))))))))))))))))))))))))))))))))))))))))))",
")))#X9(((((((((((((((((((())))))))))))))))))))))))))))))))))))))))))))))",
")))9XX((((((((((((((((((()))))))))))))))))))))))))))))))))))))))))))))))",
")))i Xh((((((((((((((((())))))))))))))))))))))))))))))))))))))))))))))))",
")))i X#(((((((((((((((()))))))))))))))))))))))))))))))))))))))))))))))))",
"))))## h(((((((((((((())))))))))))))))))))))))))))))))))))))))))))))))))",
"))))#X #((((((((((((()))))))))))))))))))))))))))))))))))))))))))))))))))",
"))))i#  M((((((((((())))))))))))))))))))))))))))))))))))))))))))))))))))",
")))))X  9(((((((((()))))))))))))))))))))))))))))))))))))))))))))))))))))",
")))))i   M((((((((()))))))))))))))))))))))))))))))))))))))))))))))))))))",
")))))f X 9((((((((()))))))))))))))))))))))))))))))))))))))))))))))))))))",
"))))))#X  M(((((((()))))))))))))))))))))))))))))))))))))))))))))))))))))",
"))))))iX  #((((((((())))))))))))))))))))))))))))))))))))))))))))))))))))",
")))))))#   9(((((((())))))))))))))))))))))))))))))))))))))))))))))))))))",
")))))))9    h(((((((()))))))))))))))))))))))))))))))))))))))))))))))))))",
"))))))))  XX#M(((((((())))))))))))))))))))))))))))))))))))))))))))))))))",
"))))))))# ####(((((((())))))))))))))))))))))))))))))))))))))))))))))))))",
"))))))))9##X  i(((((((()))))))))))))))))))))))))))))))))))))))))))))))))",
")))))))))#     i(((((((())))))))))))))))))))))))))))))))))))))))))))))))",
")))))))))a      h((((((())))))))))))))))))))))))))))))))))))))))))))))))",
"))))))))))#     #M((((((()))))))))))))))))))))))))))))))))))))))))))))))",
")))))))))))###  ##M((((((())))))))))))))))))))))))))))))))))))))))))))))",
")))))))))))h X  X##G((((((()))))))))))))))))))))))))))))))))))))))))))))",
"))))))))))))9## X  #L((((((())))))))))))))))))))))))))))))))))))))))))))",
")))))))))))))#XXX   #G((((((()))))))))))))))))))))))))))))))))))))))))))",
"))))))))))))))XX    # M((((((())))))))))))))))))))))))))))))))))))))))))",
"))))))))))))))a#    XX#M((((((()))))))))))))))))))))((()))))))))))))))))",
")))))))))))))))f      # h((((((()))))))))))))))))))((((())))))))))))))))",
"))))))))))))))))i       #h((((((()))))))))))))))))(((((((())))))))))))))",
")))))))))))))))))i#X      i((((((()))))))))))))))(((((((((()))))))))))))",
"))))))))))))))))))9X      ##P((((((())))))))))))((((((((((((()))))))))))",
")))))))))))))))))))# X       h(((((((()))))))))(((((((((((((((()))))))))",
"))))))))))))))))))))##       ##(((((((()))))))((((((((((((((((((()))))))",
")))))))))))))))))))))9 X       #G(((((((())))(((((((((((((((((((((()))))",
"))))))))))))))))))))))#X        X9G(((((((((((((((((((((((((((((((G#))))",
")))))))))))))))))))))))i          XiG(((((((((((((((((((((((((((((#X#)))",
"))))))))))))))))))))))))9#         X 9G(((((((((((((((((((((((((M####)))",
")))))))))))))))))))))))))iXX           #h((((((((((((((((((((((h    #)))",
"))))))))))))))))))))))))))h#   #       X  #N(((((((((((((((((h#X    i)))",
"))))))))))))))))))))))))))))####            #iG((((((((((((i# #X    i)))",
")))))))))))))))))))))))))))))9##            XXXXihGGG(Ghh9X    X   #))))",
"))))))))))))))))))))))))))))))h#  X#            X                  #))))",
"))))))))))))))))))))))))))))))))# X#                             X 9))))",
")))))))))))))))))))))))))))))))))h##                            #X#)))))",
"))))))))))))))))))))))))))))))))))))i                           ##))))))",
"))))))))))))))))))))))))))))))))))))))9#XXX                   #X#)))))))",
"))))))))))))))))))))))))))))))))))))))))9#   X                #f))))))))",
"))))))))))))))))))))))))))))))))))))))))))i#####          X# #))))))))))",
")))))))))))))))))))))))))))))))))))))))))))))h##         X#i))))))))))))",
"))))))))))))))))))))))))))))))))))))))))))))))))hf##X##iih))))))))))))))",
"))))))))))))))))))))))))))))))))))))))))))))))))))))))))))))))))))))))))",
"))))))))))))))))))))))))))))))))))))))))))))))))))))))))))))))))))))))))",
"))))))))))))))))))))))))))))))))))))))))))))))))))))))))))))))))))))))))"
};
