/* XPM */
static const char *post_it[] = {
/* columns rows colors chars-per-pixel */
"72 72 12 1 ",
"  c #F39C12",
". c #F3A012",
"X c #F2A611",
"o c #F2A811",
"O c #F2A911",
"+ c #F2B410",
"@ c #F1C00F",
"# c #F1C40F",
"$ c #F2C40F",
"% c #F1C410",
"& c #F1C510",
"* c None",
/* pixels */
"************************************************************************",
"************************************************************************",
"************************************************************************",
"************************************************************************",
"************************************************************************",
"************************************************************************",
"**********&&################################################&&**********",
"********########################################################********",
"*******##########################################################*******",
"*******##########################################################*******",
"******&##########################################################&******",
"******&##########################################################&******",
"******############################################################******",
"******############################################################******",
"******############################################################******",
"******############################################################******",
"******############################################################******",
"******############################################################******",
"******#########                                          #########******",
"******#########                                          #########******",
"******#########                                          #########******",
"******#########                                          #########******",
"******#########                                          #########******",
"******#########                                          #########******",
"******############################################################******",
"******############################################################******",
"******############################################################******",
"******############################################################******",
"******############################################################******",
"******############################################################******",
"******#########                                          #########******",
"******#########                                          #########******",
"******#########                                          #########******",
"******#########                                          #########******",
"******#########                                          #########******",
"******#########                                          #########******",
"******############################################################******",
"******############################################################******",
"******############################################################******",
"******############################################################******",
"******############################################################******",
"******############################################################******",
"******#########                           ########################******",
"******#########                           ########################******",
"******#########                           ########################******",
"******#########                           ########################******",
"******#########                           ########################******",
"******#########                           ########################******",
"******#############################################+OX           O******",
"******############################################X             O*******",
"******###########################################X             X********",
"******##########################################+             O*********",
"******##########################################X            O**********",
"******##########################################            O***********",
"******##########################################           O************",
"******##########################################          O*************",
"******##########################################         O**************",
"******##########################################        O***************",
"******##########################################       O****************",
"******##########################################      O*****************",
"******&#########################################     O******************",
"******&#########################################    O*******************",
"*******#########################################   O********************",
"*******########################################&  O*********************",
"********######################################## O**********************",
"**********&&####################################O***********************",
"************************************************************************",
"************************************************************************",
"************************************************************************",
"************************************************************************",
"************************************************************************",
"************************************************************************"
};
