/* XPM */
static char *shield_ok[] = {
/* columns rows colors chars-per-pixel */
"72 72 183 2 ",
"   c #27AE60",
".  c #28AE61",
"X  c #29AE61",
"o  c #2CAF63",
"O  c #2EAF65",
"+  c #32AF67",
"@  c #2BBD69",
"#  c #2BBF6A",
"$  c #37B06B",
"%  c #39B16D",
"&  c #3AB16D",
"*  c #3DB16F",
"=  c #40B271",
"-  c #41B272",
";  c #48B377",
":  c #4BB379",
">  c #4CB379",
",  c #53B47E",
"<  c #2ECA71",
"1  c #2ECB71",
"2  c #2ECC71",
"3  c #30C971",
"4  c #31C972",
"5  c #32C972",
"6  c #33C972",
"7  c #36C874",
"8  c #38C975",
"9  c #38C976",
"0  c #3DC979",
"q  c #40C97A",
"w  c #40C97B",
"e  c #43CA7C",
"r  c #44CA7D",
"t  c #48CA7F",
"y  c #57B581",
"u  c #5BB584",
"i  c #5CB584",
"p  c #5ABF86",
"a  c #60B687",
"s  c #74B995",
"d  c #7BBA99",
"f  c #7DBA9B",
"g  c #5ECE8E",
"h  c #73C798",
"j  c #73C898",
"k  c #75C899",
"l  c #76C89A",
"z  c #77C99B",
"x  c #67D095",
"c  c #6CD198",
"v  c #71D29B",
"b  c #72D29C",
"n  c #74D39D",
"m  c #7ECBA0",
"M  c #79D4A1",
"N  c #7FD3A4",
"B  c #81BB9E",
"V  c #82BB9E",
"C  c #83BB9F",
"Z  c #95A5A5",
"A  c #96A5A5",
"S  c #95A4A6",
"D  c #94A5A6",
"F  c #95A5A6",
"G  c #94A5A7",
"H  c #95A5A7",
"J  c #96A4A6",
"K  c #96A5A7",
"L  c #95A6A6",
"P  c #96A6A7",
"I  c #97A6A7",
"U  c #98A7A8",
"Y  c #98A7A9",
"T  c #9AAAAB",
"R  c #9BABAC",
"E  c #9CABAC",
"W  c #9CACAD",
"Q  c #9EADAE",
"!  c #9FADAE",
"~  c #86BBA1",
"^  c #8BBCA5",
"/  c #94BDAB",
"(  c #99BEAE",
")  c #A0AEAF",
"_  c #A4B1B2",
"`  c #A6B3B4",
"'  c #A1BFB4",
"]  c #AAB6B8",
"[  c #AAB7B8",
"{  c #ACB9BA",
"}  c #ADBABB",
"|  c #AFBABC",
" . c #AFBCBC",
".. c #B0BCBD",
"X. c #B1BCBE",
"o. c #B2BEBF",
"O. c #8ACFA9",
"+. c #81D5A6",
"@. c #8BD0AA",
"#. c #81DCA9",
"$. c #91D1AE",
"%. c #92D2AE",
"&. c #8DDEB1",
"*. c #93D2B0",
"=. c #94D2B0",
"-. c #95D3B1",
";. c #92D9B2",
":. c #9BDBB8",
">. c #B0C1BE",
",. c #B2C1BF",
"<. c #B3BFC0",
"1. c #B4BEC0",
"2. c #B4BFC0",
"3. c #B5C2C1",
"4. c #B5C1C2",
"5. c #B6C0C2",
"6. c #B7C0C2",
"7. c #B8C2C4",
"8. c #B9C2C4",
"9. c #B9C3C5",
"0. c #BAC3C5",
"q. c #BBC3C5",
"w. c #BBC3C6",
"e. c #BCC3C6",
"r. c #BDC3C7",
"t. c #BBC4C6",
"y. c #BAC5C6",
"u. c #BEC4C8",
"i. c #BFC4C8",
"p. c #BFC5C9",
"a. c #BEC6C9",
"s. c #BFC7C9",
"d. c #BFC9CA",
"f. c #AADFC3",
"g. c #C0C6CA",
"h. c #C1C7CA",
"j. c #C0C8CA",
"k. c #C0C8CB",
"l. c #C1C8CB",
"z. c #C2C8CB",
"x. c #C2C8CC",
"c. c #C2C9CC",
"v. c #C3C9CC",
"b. c #C3C9CD",
"n. c #C1CBCC",
"m. c #C3CACD",
"M. c #C4CDCE",
"N. c #C4CECF",
"B. c #C6CECF",
"V. c #C5CFD0",
"C. c #C9D2D3",
"Z. c #CBD3D4",
"A. c #CDD5D6",
"S. c #D2D9DA",
"D. c #D5DCDD",
"F. c #CCE7DA",
"G. c #D0E9DD",
"H. c #D8DFE0",
"J. c #D9E0E1",
"K. c #DBE1E2",
"L. c #DEE4E5",
"P. c #DFE5E6",
"I. c #D7EAE2",
"U. c #E1E6E7",
"Y. c #E1E7E8",
"T. c #E3E8E9",
"R. c #E4EAEB",
"E. c #E6EAEB",
"W. c #E2EDEA",
"Q. c #E3EDEB",
"!. c #E4EDEB",
"~. c #E7ECED",
"^. c #E4EEEC",
"/. c #E6EEED",
"(. c #E8ECED",
"). c #E9EDEE",
"_. c #E8EFEE",
"`. c #E9EFEF",
"'. c #EAEEEF",
"]. c #EBEFF0",
"[. c #EBF0F0",
"{. c #ECF0F1",
"}. c None",
/* pixels */
"}.}.}.}.}.}.}.}.}.}.}.}.}.}.}.}.}.}.}.}.}.}.}.}.}.}.}.}.}.}.}.}.}.}.}.}.}.}.}.}.}.}.}.}.}.}.}.}.}.}.}.}.}.}.}.}.}.}.}.}.}.}.}.}.}.}.}.}.}.}.}.}.",
"}.}.}.}.}.}.}.}.}.}.}.}.}.}.}.}.}.}.}.}.}.}.}.}.}.}.}.}.}.}.}.}.}.}.}.}.}.}.}.}.}.}.}.}.}.}.}.}.}.}.}.}.}.}.}.}.}.}.}.}.}.}.}.}.}.}.}.}.}.}.}.}.",
"}.}.}.}.}.}.}.}.}.}.}.}.}.}.}.}.}.}.}.}.}.}.}.}.}.}.}.}.}.}.}.}.}.}.}.}.}.}.}.}.}.}.}.}.}.}.}.}.}.}.}.}.}.}.}.}.}.}.}.}.}.}.}.}.}.}.}.}.}.}.}.}.",
"}.}.}.}.}.}.}.}.}.}.}.}.}.}.}.}.}.}.}.}.}.}.}.}.}.}.}.}.}.}.}.}.}.}.}.}.}.}.}.}.}.}.}.}.}.}.}.}.}.}.}.}.}.}.}.}.}.}.}.}.}.}.}.}.}.}.}.}.}.}.}.}.",
"}.}.}.}.}.}.}.}.}.}.}.}.}.}.}.}.}.}.}.}.}.}.}.}.}.}.}.}.}.}.}.}.}.}.}.}.}.}.}.}.}.}.}.}.}.}.}.}.}.}.}.}.}.}.}.}.}.}.}.}.}.}.}.}.}.}.}.}.}.}.}.}.",
"}.}.}.}.}.}.}.}.}.}.}.}.}.}.}.}.}.}.}.}.}.}.}.}.}.}.}.}.}.}.}.}.}.}.}.}.}.}.}.}.}.}.}.}.}.}.}.}.}.}.}.}.}.}.}.}.}.}.}.}.}.}.}.}.}.}.}.}.}.}.}.}.",
"}.}.}.}.}.}.}.}.}.r.r.r.r.r.r.r.r.r.r.r.r.r.r.r.r.r.r.r.r.r.r.r.r.r.r.r.{.{.{.{.{.{.{.{.{.{.{.{.{.{.{.{.{.{.{.{.{.{.{.{.{.{.{.}.}.}.}.}.}.}.}.}.",
"}.}.}.}.}.}.}.}.}.r.r.r.r.r.r.r.r.r.r.r.r.r.r.r.r.r.r.r.r.r.r.r.r.r.r.r.{.{.{.{.{.{.{.{.{.{.{.{.{.{.{.{.{.{.{.{.{.{.{.{.{.{.{.}.}.}.}.}.}.}.}.}.",
"}.}.}.}.}.}.}.}.}.r.r.r.r.r.r.r.r.r.r.r.r.r.r.r.r.r.r.r.r.r.r.r.r.r.r.r.{.{.{.{.{.{.{.{.{.{.{.{.{.{.{.{.{.{.{.{.{.{.{.{.{.{.{.}.}.}.}.}.}.}.}.}.",
"}.}.}.}.}.}.}.}.}.r.r.r.r.r.r.r.r.r.r.r.r.r.r.r.r.r.r.r.r.r.r.r.r.r.r.r.{.{.{.{.{.{.{.{.{.{.{.{.{.{.{.{.{.{.{.{.{.{.{.{.{.{.{.}.}.}.}.}.}.}.}.}.",
"}.}.}.}.}.}.}.}.}.r.r.r.r.r.r.r.r.r.r.r.r.r.r.r.r.r.r.r.r.r.r.r.r.r.r.r.{.{.{.{.{.{.{.{.{.{.{.{.{.{.{.{.{.{.{.{.{.{.{.{.{.{.{.}.}.}.}.}.}.}.}.}.",
"}.}.}.}.}.}.}.}.}.r.r.r.r.r.r.r.r.r.r.r.r.r.r.r.r.r.r.r.r.r.r.r.r.r.r.r.{.{.{.{.{.{.{.{.{.{.{.{.{.{.{.{.{.{.{.{.{.{.{.{.{.{.{.}.}.}.}.}.}.}.}.}.",
"}.}.}.}.}.}.}.}.}.r.r.r.r.r.r.                                          2 2 2 2 2 2 2 2 2 2 2 2 2 2 2 2 2 2 2 2 2 {.{.{.{.{.{.}.}.}.}.}.}.}.}.}.",
"}.}.}.}.}.}.}.}.}.r.r.r.r.r.r.                                          2 2 2 2 2 2 2 2 2 2 2 2 2 2 2 2 2 2 2 2 2 {.{.{.{.{.{.}.}.}.}.}.}.}.}.}.",
"}.}.}.}.}.}.}.}.}.r.r.r.r.r.r.                                          2 2 2 2 2 2 2 2 2 2 2 2 2 2 2 2 2 2 2 2 2 {.{.{.{.{.{.}.}.}.}.}.}.}.}.}.",
"}.}.}.}.}.}.}.}.}.r.r.r.r.r.r.                                          2 2 2 2 2 2 2 2 2 2 2 2 2 2 2 2 2 2 2 2 2 {.{.{.{.{.{.}.}.}.}.}.}.}.}.}.",
"}.}.}.}.}.}.}.}.}.r.r.r.r.r.r.                                          2 2 2 2 2 2 2 2 2 2 2 2 2 2 2 2 2 2 2 2 2 {.{.{.{.{.{.}.}.}.}.}.}.}.}.}.",
"}.}.}.}.}.}.}.}.}.r.r.r.r.r.r.                                          2 2 2 2 2 2 2 2 2 2 2 2 2 2 2 2 2 2 2 2 2 {.{.{.{.{.{.}.}.}.}.}.}.}.}.}.",
"}.}.}.}.}.}.}.}.}.r.r.r.r.r.r.                                          2 2 2 2 2 2 2 2 2 2 2 2 2 2 2 2 2 2 2 2 2 {.{.{.{.{.{.}.}.}.}.}.}.}.}.}.",
"}.}.}.}.}.}.}.}.}.r.r.r.r.r.r.                                          2 2 2 2 2 2 2 2 2 2 2 2 2 2 2 2 2 2 2 2 2 {.{.{.{.{.{.}.}.}.}.}.}.}.}.}.",
"}.}.}.}.}.}.}.}.}.r.r.r.r.r.r.                                          2 2 2 2 2 2 2 2 2 2 2 2 2 2 2 2 2 2 2 2 2 {.{.{.{.{.{.}.}.}.}.}.}.}.}.}.",
"}.}.}.}.}.}.}.}.}.r.r.r.r.r.r.                                          2 2 2 2 2 2 2 2 2 2 2 2 2 2 2 2 2 2 2 2 2 {.{.{.{.{.{.}.}.}.}.}.}.}.}.}.",
"}.}.}.}.}.}.}.}.}.r.r.r.r.r.r.                                          2 2 2 2 2 2 2 2 2 2 2 2 2 2 2 2 2 2 2 2 2 {.{.{.{.{.{.}.}.}.}.}.}.}.}.}.",
"}.}.}.}.}.}.}.}.}.r.r.r.r.r.r.                                          2 2 2 2 2 2 2 2 2 2 2 2 2 2 2 2 2 2 2 2 2 {.{.{.{.{.{.}.}.}.}.}.}.}.}.}.",
"}.}.}.}.}.}.}.}.}.r.r.r.r.r.r.                                          2 2 2 2 2 2 2 2 2 2 2 &.&.2 2 2 2 2 2 2 2 {.{.{.{.{.{.}.}.}.}.}.}.}.}.}.",
"}.}.}.}.}.}.}.}.}.r.r.r.r.r.r.                                          2 2 2 2 2 2 2 2 2 2 &.{.{.&.2 2 2 2 2 2 2 {.{.{.{.{.{.}.}.}.}.}.}.}.}.}.",
"}.}.}.}.}.}.}.}.}.r.r.r.r.r.r.                                          2 2 2 2 2 2 2 2 2 &.{.{.{.{.&.2 2 2 2 2 2 {.{.{.{.{.{.}.}.}.}.}.}.}.}.}.",
"}.}.}.}.}.}.}.}.}.r.r.r.r.r.r.                                          2 2 2 2 2 2 2 2 &.{.{.{.{.{.{.&.2 2 2 2 2 {.{.{.{.{.{.}.}.}.}.}.}.}.}.}.",
"}.}.}.}.}.}.}.}.}.r.r.r.r.r.r.                                          2 2 2 2 2 2 2 &.{.{.{.{.{.{.{.{.&.2 2 2 2 {.{.{.{.{.{.}.}.}.}.}.}.}.}.}.",
"}.}.}.}.}.}.}.}.}.r.r.r.r.r.r.                                          2 2 2 2 2 2 &.{.{.{.{.{.{.{.{.{.#.2 2 2 2 {.{.{.{.{.{.}.}.}.}.}.}.}.}.}.",
"}.}.}.}.}.}.}.}.}.r.r.r.r.r.r.                                          2 2 2 2 2 &.{.{.{.{.{.{.{.{.{.N 2 2 2 2 2 {.{.{.{.{.{.}.}.}.}.}.}.}.}.}.",
"}.}.}.}.}.}.}.}.}.r.r.r.r.r.r.                                          2 2 2 2 &.{.{.{.{.{.{.{.{.{.m   @ 2 2 2 2 {.{.{.{.{.{.}.}.}.}.}.}.}.}.}.",
"}.}.}.}.}.}.}.}.}.r.r.r.r.r.r.                      X g j X             2 2 2 &.{.{.{.{.{.{.[.[.{.z X X 3 1 1 1 1 !.[.{.{.{.{.}.}.}.}.}.}.}.}.}.",
"}.}.}.}.}.}.}.}.}.r.r.r.r.r.r.                      p W.{.j             2 2 &.{.{.{.{.{.{.{.[.[.+.X X @ 2 2 1 1 2 [.[.[.{.{.{.}.}.}.}.}.}.}.}.}.",
"}.}.}.}.}.}.}.}.}.r.r.r.r.r.r.                    p T.{.{.{.j X         2 &.{.{.{.{.{.{.{.{.{.B X X @ 2 2 2 2 2 2 [.[.[.{.{.{.}.}.}.}.}.}.}.}.}.",
"}.}.}.}.}.}.}.}.}.r.r.r.r.r.r.X                 p T.{.{.{.{.{.j         &.{.{.{.{.{.{.{.{.{.+.X   @ 2 2 2 2 2 2 2 [.[.[.{.{.{.}.}.}.}.}.}.}.}.}.",
"}.}.}.}.}.}.}.}.}.r.r.r.r.r.r.+               p T.{.{.{.{.{.{.{.j     O.{.{.{.{.{.{.{.{.[.j     3 < 2 2 2 2 2 2 2 {.{.{.{.{.[.}.}.}.}.}.}.}.}.}.",
"}.}.}.}.}.}.}.}.}.B.r.r.r.r.r.%               @.{.{.{.{.{.{.{.{.{.h O.{.{.{.{.{.].].{.{.z     @ < < 2 2 2 2 2 2 3 {.{.{.{.{.U.}.}.}.}.}.}.}.}.}.",
"}.}.}.}.}.}.}.}.}.h.r.r.r.r.h.:                 %.{.{.{.{.{.{.{.{.{.{.{.{.{.{.{.].].'.z X X < < < < < 2 2 2 2 2 9 {.{.{.{.{.D.}.}.}.}.}.}.}.}.}.",
"}.}.}.}.}.}.}.}.}.B.r.r.r.r.r.y                 X %.{.{.{.{.{.{.{.{.{.{.{.{.{.{.'.'.+.    3 2 2 < < 2 2 2 2 2 2 r {.{.{.{.{.A.}.}.}.}.}.}.}.}.}.",
"}.}.}.}.}.}.}.}.}.B.r.r.r.r.r.B                     %.].{.{.{.{.{.{.{.{.{.{.{.{.{.m     3 < < < 2 2 2 2 2 2 2 2 b {.{.{.{.{.B.}.}.}.}.}.}.}.}.}.",
"}.}.}.}.}.}.}.}.}.1.r.r.r.r.r.} X                   X -.{.{.{.{.{.{.{.{.{.{.{.{.m     @ 2 2 < < 2 2 2 2 2 2 2 2 F.{.{.{.{.{...}.}.}.}.}.}.}.}.}.",
"}.}.}.}.}.}.}.}.}.K u.r.r.r.r.r.:                       -.{.{.{.{.{.{.{.{.{.].m     3 < 2 2 2 2 2 2 2 2 2 2 2 9 {.{.{.{.'.T.K }.}.}.}.}.}.}.}.}.",
"}.}.}.}.}.}.}.}.}.K h.r.r.r.r.r.B                         -.{.{.{.{.{.{.{.{.m     @ < < 2 2 2 2 2 2 2 2 2 2 2 c {.{.{.{.{.A.K }.}.}.}.}.}.}.}.}.",
"}.}.}.}.}.}.}.}.}.}...r.r.r.r.r.r.%                         -.].{.{.].].].+.    @ < 2 2 2 2 2 2 2 2 2 2 2 2 3 T.{.{.{.{.{.} }.}.}.}.}.}.}.}.}.}.",
"}.}.}.}.}.}.}.}.}.}.Y B.r.r.r.r.r.B                           -.{.{.].'.z X X @ < < 2 2 2 2 2 2 2 2 2 2 2 2 N [.{.{.{.{.U.K }.}.}.}.}.}.}.}.}.}.",
"}.}.}.}.}.}.}.}.}.}.K ..r.r.r.r.r.r.%                           -.{.{.+.X X @ 2 2 2 2 2 2 2 2 2 2 2 2 2 2 3 '.{.{.{.{.{.3.K }.}.}.}.}.}.}.}.}.}.",
"}.}.}.}.}.}.}.}.}.}.}.K B.r.r.r.r.r.>.X                           -.z X X @ 3 2 2 2 2 2 2 2 2 2 2 2 2 2 2 f.{.{.{.{.{.J.K }.}.}.}.}.}.}.}.}.}.}.",
"}.}.}.}.}.}.}.}.}.}.}.K } r.r.r.r.r.r.f                                 3 2 2 2 2 2 2 2 2 2 2 2 2 2 2 2 b {.{.{.{.{.[.} K }.}.}.}.}.}.}.}.}.}.}.",
"}.}.}.}.}.}.}.}.}.}.}.}.K B.r.r.r.r.r.r.y                               < 2 2 2 2 2 2 2 2 2 2 2 2 2 < g {.{.{.{.{.{.S.K }.}.}.}.}.}.}.}.}.}.}.}.",
"}.}.}.}.}.}.}.}.}.}.}.}.K R h.r.r.r.r.r.r.,   X                         < < 2 2 2 2 2 2 2 2 2 2 2 2 3 W.{.{.{.{.{.Y.R K }.}.}.}.}.}.}.}.}.}.}.}.",
"}.}.}.}.}.}.}.}.}.}.}.}.}.K ] u.r.r.r.r.r.r., X                         < < 2 2 2 2 2 2 2 2 2 2 2 0 W.[.{.{.{.{.[.` K }.}.}.}.}.}.}.}.}.}.}.}.}.",
"}.}.}.}.}.}.}.}.}.}.}.}.}.K K 3.r.r.r.r.r.r.r.y                         2 2 2 2 2 2 2 2 < 2 2 2 r W.{.{.{.{.{.{.3.K K }.}.}.}.}.}.}.}.}.}.}.}.}.",
"}.}.}.}.}.}.}.}.}.}.}.}.}.}.K K B.r.r.r.r.r.r.r.s X                     2 2 2 2 2 2 2 2 < < 2 g {.{.{.{.{.{.[.N.K K }.}.}.}.}.}.}.}.}.}.}.}.}.}.",
"}.}.}.}.}.}.}.}.}.}.}.}.}.}.}.K K d.r.r.r.r.r.r.r.( $                   2 2 2 2 2 2 2 2 < < :.{.{.{.{.{.{.{.N.K K }.}.}.}.}.}.}.}.}.}.}.}.}.}.}.",
"}.}.}.}.}.}.}.}.}.}.}.}.}.}.}.}.K L r.r.r.r.r.r.r.r.,.y                 2 2 2 2 2 2 2 2 r G.{.{.{.{.{.{.{.d.L K }.}.}.}.}.}.}.}.}.}.}.}.}.}.}.}.",
"}.}.}.}.}.}.}.}.}.}.}.}.}.}.}.}.K K K r.r.r.r.r.r.r.r.r./ = X X         3 < < < 2 2 3 ;.{.{.{.{.{.{.{.{.3.K K K }.}.}.}.}.}.}.}.}.}.}.}.}.}.}.}.",
"}.}.}.}.}.}.}.}.}.}.}.}.}.}.}.}.}.K K K ,.r.r.r.r.r.r.r.g.g.s +         < < < < 2 c '.[.{.{.{.{.{.{.T.,.L K K }.}.}.}.}.}.}.}.}.}.}.}.}.}.}.}.}.",
"}.}.}.}.}.}.}.}.}.}.}.}.}.}.}.}.}.}.}.K K ) B.r.r.r.r.r.r.r.r.,.s %     < < < x I.{.{.{.{.{.{.{.{.J.! L K }.}.}.}.}.}.}.}.}.}.}.}.}.}.}.}.}.}.}.",
"}.}.}.}.}.}.}.}.}.}.}.}.}.}.}.}.}.}.}.}.K K K s.r.r.r.r.r.r.r.r.r.r.O.; 2 +.[.[.{.{.{.{.{.{.{.'.B.U K K }.}.}.}.}.}.}.}.}.}.}.}.}.}.}.}.}.}.}.}.",
"}.}.}.}.}.}.}.}.}.}.}.}.}.}.}.}.}.}.}.}.}.K K K { B.r.r.r.r.r.r.r.r.r.r.{.{.{.{.{.{.{.{.[.[.J.[ K K K }.}.}.}.}.}.}.}.}.}.}.}.}.}.}.}.}.}.}.}.}.",
"}.}.}.}.}.}.}.}.}.}.}.}.}.}.}.}.}.}.}.}.}.}.K K A A r.g.r.r.r.r.r.r.r.r.{.{.{.{.{.{.{.{.T.r.R K K K }.}.}.}.}.}.}.}.}.}.}.}.}.}.}.}.}.}.}.}.}.}.",
"}.}.}.}.}.}.}.}.}.}.}.}.}.}.}.}.}.}.}.}.}.}.}.K Z K K T h.g.r.r.r.r.r.r.{.{.{.{.[.{.W.N.R K K K K }.}.}.}.}.}.}.}.}.}.}.}.}.}.}.}.}.}.}.}.}.}.}.",
"}.}.}.}.}.}.}.}.}.}.}.}.}.}.}.}.}.}.}.}.}.}.}.}.}.K K K A ) h.g.r.r.r.g.{.{.{.{.'.A.) K K K K }.}.}.}.}.}.}.}.}.}.}.}.}.}.}.}.}.}.}.}.}.}.}.}.}.",
"}.}.}.}.}.}.}.}.}.}.}.}.}.}.}.}.}.}.}.}.}.}.}.}.}.}.}.K K K K R r.B.r.r.'.].Y.d.R K K K K }.}.}.}.}.}.}.}.}.}.}.}.}.}.}.}.}.}.}.}.}.}.}.}.}.}.}.",
"}.}.}.}.}.}.}.}.}.}.}.}.}.}.}.}.}.}.}.}.}.}.}.}.}.}.}.}.K K K K K K ..B.J...L K K K K K }.}.}.}.}.}.}.}.}.}.}.}.}.}.}.}.}.}.}.}.}.}.}.}.}.}.}.}.",
"}.}.}.}.}.}.}.}.}.}.}.}.}.}.}.}.}.}.}.}.}.}.}.}.}.}.}.}.}.}.K K K K K K K K K K K K }.}.}.}.}.}.}.}.}.}.}.}.}.}.}.}.}.}.}.}.}.}.}.}.}.}.}.}.}.}.",
"}.}.}.}.}.}.}.}.}.}.}.}.}.}.}.}.}.}.}.}.}.}.}.}.}.}.}.}.}.}.}.}.}.K K K K K K }.}.}.}.}.}.}.}.}.}.}.}.}.}.}.}.}.}.}.}.}.}.}.}.}.}.}.}.}.}.}.}.}.",
"}.}.}.}.}.}.}.}.}.}.}.}.}.}.}.}.}.}.}.}.}.}.}.}.}.}.}.}.}.}.}.}.}.}.}.K K }.}.}.}.}.}.}.}.}.}.}.}.}.}.}.}.}.}.}.}.}.}.}.}.}.}.}.}.}.}.}.}.}.}.}.",
"}.}.}.}.}.}.}.}.}.}.}.}.}.}.}.}.}.}.}.}.}.}.}.}.}.}.}.}.}.}.}.}.}.}.}.}.}.}.}.}.}.}.}.}.}.}.}.}.}.}.}.}.}.}.}.}.}.}.}.}.}.}.}.}.}.}.}.}.}.}.}.}.",
"}.}.}.}.}.}.}.}.}.}.}.}.}.}.}.}.}.}.}.}.}.}.}.}.}.}.}.}.}.}.}.}.}.}.}.}.}.}.}.}.}.}.}.}.}.}.}.}.}.}.}.}.}.}.}.}.}.}.}.}.}.}.}.}.}.}.}.}.}.}.}.}.",
"}.}.}.}.}.}.}.}.}.}.}.}.}.}.}.}.}.}.}.}.}.}.}.}.}.}.}.}.}.}.}.}.}.}.}.}.}.}.}.}.}.}.}.}.}.}.}.}.}.}.}.}.}.}.}.}.}.}.}.}.}.}.}.}.}.}.}.}.}.}.}.}."
};
