/* XPM */
static const char *shield[] = {
/* columns rows colors chars-per-pixel */
"72 72 158 2 ",
"   c #2980B9",
".  c #2B81B9",
"X  c #2B81BA",
"o  c #2F83BB",
"O  c #3285BB",
"+  c #3688BD",
"@  c #3D8BBE",
"#  c #3F8DBF",
"$  c #7F8C8C",
"%  c #7F8C8D",
"&  c #7F8D8D",
"*  c #7F8C8E",
"=  c #418DBF",
"-  c #3498DB",
";  c #448FC0",
":  c #4791C0",
">  c #4891C0",
",  c #5095C2",
"<  c #5396C2",
"1  c #5497C2",
"2  c #5B9AC3",
"3  c #5E9CC3",
"4  c #5F9CC3",
"5  c #629EC3",
"6  c #639EC4",
"7  c #67A0C3",
"8  c #76A6C2",
"9  c #7BA7C1",
"0  c #7DA8C0",
"q  c #7FA8C0",
"w  c #808B8D",
"e  c #808C8C",
"r  c #808C8D",
"t  c #808C8E",
"y  c #808D8E",
"u  c #818E8F",
"i  c #838F91",
"p  c #849091",
"a  c #849092",
"s  c #849192",
"d  c #859293",
"f  c #859394",
"g  c #879394",
"h  c #899596",
"j  c #8B9798",
"k  c #8E999B",
"l  c #8D9A9B",
"z  c #8F9A9C",
"x  c #909B9D",
"c  c #909C9E",
"v  c #919D9F",
"b  c #929D9E",
"n  c #919E9F",
"m  c #939EA0",
"M  c #959FA1",
"N  c #93A0A1",
"B  c #94A0A2",
"V  c #95A1A3",
"C  c #96A0A2",
"Z  c #96A2A3",
"A  c #95A5A6",
"S  c #94A5A7",
"D  c #95A5A7",
"F  c #97A4A6",
"G  c #95A6A7",
"H  c #96A6A7",
"J  c #99A3A6",
"K  c #98A4A6",
"L  c #9AA4A6",
"P  c #94A6A8",
"I  c #97A6A8",
"U  c #97A7A8",
"Y  c #94A7AB",
"T  c #93A7AD",
"R  c #99A6A8",
"E  c #98A7A8",
"W  c #98A7A9",
"Q  c #9AA6A8",
"!  c #9AA7A9",
"~  c #9BA7A9",
"^  c #9DA6A9",
"/  c #9DA7A9",
"(  c #93A8AD",
")  c #99A8A9",
"_  c #9AA8A9",
"`  c #9BA8A9",
"'  c #99A8AA",
"]  c #9AA8AA",
"[  c #9BA8AA",
"{  c #9AA9AA",
"}  c #9BA9AA",
"|  c #9BA9AB",
" . c #9CA9AA",
".. c #9FA8AB",
"X. c #8EA9B5",
"o. c #80A9BF",
"O. c #82A9BE",
"+. c #84A9BD",
"@. c #8BAAB8",
"#. c #89AABA",
"$. c #A0AAAC",
"%. c #A1AAAC",
"&. c #A1ABAD",
"*. c #A2ABAD",
"=. c #A4ADB0",
"-. c #A5AEB1",
";. c #A7AFB3",
":. c #AAB2B5",
">. c #ADB5B8",
",. c #AFB6BA",
"<. c #B0B7BA",
"1. c #B1B8BC",
"2. c #B3BABE",
"3. c #B4BBBF",
"4. c #B5BCBF",
"5. c #B5BCC0",
"6. c #B7BDC1",
"7. c #B8BEC2",
"8. c #B8BFC3",
"9. c #B9C0C4",
"0. c #BAC0C4",
"q. c #BBC1C5",
"w. c #BDC3C7",
"e. c #BEC4C7",
"r. c #BEC4C8",
"t. c #C0C5C9",
"y. c #C1C6CA",
"u. c #C1C7CB",
"i. c #C6CBCF",
"p. c #C8CED1",
"a. c #CACFD2",
"s. c #CDD2D5",
"d. c #CED3D6",
"f. c #CFD4D7",
"g. c #D0D5D8",
"h. c #D1D6D9",
"j. c #D2D7DA",
"k. c #D4D9DB",
"l. c #DADFE1",
"z. c #DBE0E2",
"x. c #DCE0E3",
"c. c #DDE2E3",
"v. c #DDE2E4",
"b. c #DEE3E5",
"n. c #E0E5E7",
"m. c #E1E5E7",
"M. c #E2E6E8",
"N. c #E4E8EA",
"B. c #E5E9EB",
"V. c #E6EAEC",
"C. c #E6EBEC",
"Z. c #E7EBEC",
"A. c #E9EDEE",
"S. c #EAEEEF",
"D. c #EBEFF0",
"F. c #EBEFF1",
"G. c #ECF0F1",
"H. c None",
/* pixels */
"H.H.H.H.H.H.H.H.H.H.H.H.H.H.H.H.H.H.H.H.H.H.H.H.H.H.H.H.H.H.H.H.H.H.H.H.H.H.H.H.H.H.H.H.H.H.H.H.H.H.H.H.H.H.H.H.H.H.H.H.H.H.H.H.H.H.H.H.H.H.H.H.",
"H.H.H.H.H.H.H.H.H.H.H.H.H.H.H.H.H.H.H.H.H.H.H.H.H.H.H.H.H.H.H.H.H.H.H.H.H.H.H.H.H.H.H.H.H.H.H.H.H.H.H.H.H.H.H.H.H.H.H.H.H.H.H.H.H.H.H.H.H.H.H.H.",
"H.H.H.H.H.H.H.H.H.H.H.H.H.H.H.H.H.H.H.H.H.H.H.H.H.H.H.H.H.H.H.H.H.H.H.H.H.H.H.H.H.H.H.H.H.H.H.H.H.H.H.H.H.H.H.H.H.H.H.H.H.H.H.H.H.H.H.H.H.H.H.H.",
"H.H.H.H.H.H.H.H.H.H.H.H.H.H.H.H.H.H.H.H.H.H.H.H.H.H.H.H.H.H.H.H.H.H.H.H.H.H.H.H.H.H.H.H.H.H.H.H.H.H.H.H.H.H.H.H.H.H.H.H.H.H.H.H.H.H.H.H.H.H.H.H.",
"H.H.H.H.H.H.H.H.H.H.H.H.H.H.H.H.H.H.H.H.H.H.H.H.H.H.H.H.H.H.H.H.H.H.H.H.H.H.H.H.H.H.H.H.H.H.H.H.H.H.H.H.H.H.H.H.H.H.H.H.H.H.H.H.H.H.H.H.H.H.H.H.",
"H.H.H.H.H.H.H.H.H.H.H.H.H.H.H.H.H.H.H.H.H.H.H.H.H.H.H.H.H.H.H.H.H.H.H.H.H.H.H.H.H.H.H.H.H.H.H.H.H.H.H.H.H.H.H.H.H.H.H.H.H.H.H.H.H.H.H.H.H.H.H.H.",
"H.H.H.H.H.H.H.H.H.A A A A A A A A A A A A A A A A A A A A A A A A A A A w.w.w.w.w.w.w.w.w.w.w.w.w.w.w.w.w.w.w.w.w.w.w.w.w.w.w.H.H.H.H.H.H.H.H.H.",
"H.H.H.H.H.H.H.H.H.A A A A A A A A A A A A A A A A A A A A A A A A A A A w.w.w.w.w.w.w.w.w.w.w.w.w.w.w.w.w.w.w.w.w.w.w.w.w.w.w.H.H.H.H.H.H.H.H.H.",
"H.H.H.H.H.H.H.H.H.A A A A A A A A A A A A A A A A A A A A A A A A A A A w.w.w.w.w.w.w.w.w.w.w.w.w.w.w.w.w.w.w.w.w.w.w.w.w.w.w.H.H.H.H.H.H.H.H.H.",
"H.H.H.H.H.H.H.H.H.A A A A A A A A A A A A A A A A A A A A A A A A A A A w.w.w.w.w.w.w.w.w.w.w.w.w.w.w.w.w.w.w.w.w.w.w.w.w.w.w.H.H.H.H.H.H.H.H.H.",
"H.H.H.H.H.H.H.H.H.A A A A A A A A A A A A A A A A A A A A A A A A A A A w.w.w.w.w.w.w.w.w.w.w.w.w.w.w.w.w.w.w.w.w.w.w.w.w.w.w.H.H.H.H.H.H.H.H.H.",
"H.H.H.H.H.H.H.H.H.A A A A A A A A A A A A A A A A A A A A A A A A A A A w.w.w.w.w.w.w.w.w.w.w.w.w.w.w.w.w.w.w.w.w.w.w.w.w.w.w.H.H.H.H.H.H.H.H.H.",
"H.H.H.H.H.H.H.H.H.A A A A A A w.w.w.w.w.w.w.w.w.w.w.w.w.w.w.w.w.w.w.w.w.- - - - - - - - - - - - - - - - - - - - - w.w.w.w.w.w.H.H.H.H.H.H.H.H.H.",
"H.H.H.H.H.H.H.H.H.A A A A A A w.w.w.w.w.w.w.w.w.w.w.w.w.w.w.w.w.w.w.w.w.- - - - - - - - - - - - - - - - - - - - - w.w.w.w.w.w.H.H.H.H.H.H.H.H.H.",
"H.H.H.H.H.H.H.H.H.A A A A A A w.w.w.w.w.w.w.w.w.w.w.w.w.w.w.w.w.w.w.w.w.- - - - - - - - - - - - - - - - - - - - - w.w.w.w.w.w.H.H.H.H.H.H.H.H.H.",
"H.H.H.H.H.H.H.H.H.A A A A A A w.w.w.w.w.w.w.w.w.w.w.w.w.w.w.w.w.w.w.w.w.- - - - - - - - - - - - - - - - - - - - - w.w.w.w.w.w.H.H.H.H.H.H.H.H.H.",
"H.H.H.H.H.H.H.H.H.A A A A A A w.w.w.w.w.w.w.w.w.w.w.w.w.w.w.w.w.w.w.w.w.- - - - - - - - - - - - - - - - - - - - - w.w.w.w.w.w.H.H.H.H.H.H.H.H.H.",
"H.H.H.H.H.H.H.H.H.A A A A A A w.w.w.w.w.w.w.w.w.w.w.w.w.w.w.w.w.w.w.w.w.- - - - - - - - - - - - - - - - - - - - - w.w.w.w.w.w.H.H.H.H.H.H.H.H.H.",
"H.H.H.H.H.H.H.H.H.A A A A A A w.w.w.w.w.w.w.w.w.w.w.w.w.w.w.w.w.w.w.w.w.- - - - - - - - - - - - - - - - - - - - - w.w.w.w.w.w.H.H.H.H.H.H.H.H.H.",
"H.H.H.H.H.H.H.H.H.A A A A A A w.w.w.w.w.w.w.w.w.w.w.w.w.w.w.w.w.w.w.w.w.- - - - - - - - - - - - - - - - - - - - - w.w.w.w.w.w.H.H.H.H.H.H.H.H.H.",
"H.H.H.H.H.H.H.H.H.A A A A A A w.w.w.w.w.w.w.w.w.w.w.w.w.w.w.w.w.w.w.w.w.- - - - - - - - - - - - - - - - - - - - - w.w.w.w.w.w.H.H.H.H.H.H.H.H.H.",
"H.H.H.H.H.H.H.H.H.A A A A A A w.w.w.w.w.w.w.w.w.w.w.w.w.w.w.w.w.w.w.w.w.- - - - - - - - - - - - - - - - - - - - - w.w.w.w.w.w.H.H.H.H.H.H.H.H.H.",
"H.H.H.H.H.H.H.H.H.A A A A A A w.w.w.w.w.w.w.w.w.w.w.w.w.w.w.w.w.w.w.w.w.- - - - - - - - - - - - - - - - - - - - - w.w.w.w.w.w.H.H.H.H.H.H.H.H.H.",
"H.H.H.H.H.H.H.H.H.A A A A A A w.w.w.w.w.w.w.w.w.w.w.w.w.w.w.w.w.w.w.w.w.- - - - - - - - - - - - - - - - - - - - - w.w.w.w.w.w.H.H.H.H.H.H.H.H.H.",
"H.H.H.H.H.H.H.H.H.A A A A A A w.w.w.w.w.w.w.w.w.w.w.w.w.w.w.w.w.w.w.w.w.- - - - - - - - - - - - - - - - - - - - - w.w.w.w.w.w.H.H.H.H.H.H.H.H.H.",
"H.H.H.H.H.H.H.H.H.A A A A A A w.w.w.w.w.w.w.w.w.w.w.w.w.w.w.w.w.w.w.w.w.- - - - - - - - - - - - - - - - - - - - - w.w.w.w.w.w.H.H.H.H.H.H.H.H.H.",
"H.H.H.H.H.H.H.H.H.A A A A A A w.w.w.w.w.w.w.w.w.w.w.w.w.w.w.w.w.w.w.w.w.- - - - - - - - - - - - - - - - - - - - - w.w.w.w.w.w.H.H.H.H.H.H.H.H.H.",
"H.H.H.H.H.H.H.H.H.A A A A A A w.w.w.w.w.w.w.w.w.w.w.w.w.w.w.w.w.w.w.w.w.- - - - - - - - - - - - - - - - - - - - - w.w.w.w.w.w.H.H.H.H.H.H.H.H.H.",
"H.H.H.H.H.H.H.H.H.A A A A A A w.w.w.w.w.w.w.w.w.w.w.w.w.w.w.w.w.w.w.w.w.- - - - - - - - - - - - - - - - - - - - - w.w.w.w.w.w.H.H.H.H.H.H.H.H.H.",
"H.H.H.H.H.H.H.H.H.A A A A A A w.w.w.w.w.w.w.w.w.w.w.w.w.w.w.w.w.w.w.w.w.- - - - - - - - - - - - - - - - - - - - - w.w.w.w.w.w.H.H.H.H.H.H.H.H.H.",
"H.H.H.H.H.H.H.H.H.A A A A A A w.w.w.w.w.w.w.w.w.w.w.w.w.w.w.w.w.w.w.w.w.- - - - - - - - - - - - - - - - - - - - - w.w.w.w.w.w.H.H.H.H.H.H.H.H.H.",
"H.H.H.H.H.H.H.H.H.A A A A A A w.w.w.w.w.w.w.w.w.w.w.w.w.w.w.w.w.w.w.w.w.- - - - - - - - - - - - - - - - - - - - - w.w.w.w.w.w.H.H.H.H.H.H.H.H.H.",
"H.H.H.H.H.H.H.H.H.A A A A A A w.w.w.w.w.w.w.w.w.w.w.w.w.w.w.w.w.w.w.w.w.- - - - - - - - - - - - - - - - - - - - - w.w.w.w.w.w.H.H.H.H.H.H.H.H.H.",
"H.H.H.H.H.H.H.H.H.A A A A A A w.w.w.w.w.w.w.w.w.w.w.w.w.w.w.w.w.w.w.w.w.- - - - - - - - - - - - - - - - - - - - - w.w.w.w.w.w.H.H.H.H.H.H.H.H.H.",
"H.H.H.H.H.H.H.H.H.A A A A A A w.w.w.w.w.w.w.w.w.w.w.w.w.w.w.w.w.w.w.w.w.- - - - - - - - - - - - - - - - - - - - - w.w.w.w.w.w.H.H.H.H.H.H.H.H.H.",
"H.H.H.H.H.H.H.H.H.A A A A A A w.w.w.w.w.w.w.w.w.w.w.w.w.w.w.w.w.w.w.w.w.- - - - - - - - - - - - - - - - - - - - - w.w.w.w.w.w.H.H.H.H.H.H.H.H.H.",
"H.H.H.H.H.H.H.H.H.I A A A A A O                                         G.G.G.G.G.G.G.G.G.G.G.G.G.G.G.G.G.G.G.G.S.w.w.w.w.w.w.H.H.H.H.H.H.H.H.H.",
"H.H.H.H.H.H.H.H.H. .A A A A A ;                                         G.G.G.G.G.G.G.G.G.G.G.G.G.G.G.G.G.G.G.G.B.w.w.w.w.w.2.H.H.H.H.H.H.H.H.H.",
"H.H.H.H.H.H.H.H.H. .A A A A A <                                         G.G.G.G.G.G.G.G.G.G.G.G.G.G.G.G.G.G.G.G.n.w.w.w.w.w.>.H.H.H.H.H.H.H.H.H.",
"H.H.H.H.H.H.H.H.H. .A A A A A 6                                         G.G.G.G.G.G.G.G.G.G.G.G.G.G.G.G.G.G.G.G.z.w.w.w.w.w.;.H.H.H.H.H.H.H.H.H.",
"H.H.H.H.H.H.H.H.H. .A A A A A 0                                         G.G.G.G.G.G.G.G.G.G.G.G.G.G.G.G.G.G.G.G.g.w.w.w.w.w.&.H.H.H.H.H.H.H.H.H.",
"H.H.H.H.H.H.H.H.H.A A A A A A I                                         G.G.G.G.G.G.G.G.G.G.G.G.G.G.G.G.G.G.G.G.u.w.w.w.w.w.b H.H.H.H.H.H.H.H.H.",
"H.H.H.H.H.H.H.H.H.t E A A A A A >                                       G.G.G.G.G.G.G.G.G.G.G.G.G.G.G.G.G.G.G.M.w.w.w.w.w.6.t H.H.H.H.H.H.H.H.H.",
"H.H.H.H.H.H.H.H.H.t  .A A A A A o.                                      G.G.G.G.G.G.G.G.G.G.G.G.G.G.G.G.G.G.G.g.w.w.w.w.w.;.$ H.H.H.H.H.H.H.H.H.",
"H.H.H.H.H.H.H.H.H.H.b A A A A A I ;                                     G.G.G.G.G.G.G.G.G.G.G.G.G.G.G.G.G.G.B.w.w.w.w.w.w.b H.H.H.H.H.H.H.H.H.H.",
"H.H.H.H.H.H.H.H.H.H.i Y A A A A A +.                                    G.G.G.G.G.G.G.G.G.G.G.G.G.G.G.G.G.G.f.w.w.w.w.w.2.t H.H.H.H.H.H.H.H.H.H.",
"H.H.H.H.H.H.H.H.H.H.$ A A A A A A I >                                   G.G.G.G.G.G.G.G.G.G.G.G.G.G.G.G.F.M.w.w.w.w.w.w.M $ H.H.H.H.H.H.H.H.H.H.",
"H.H.H.H.H.H.H.H.H.H.H.$  .A A A A A #.O                                 G.G.G.G.G.G.G.G.G.G.G.G.G.G.G.G.F.i.w.w.w.w.w.2.$ H.H.H.H.H.H.H.H.H.H.H.",
"H.H.H.H.H.H.H.H.H.H.H.t M A A A A A A q                                 G.G.G.G.G.G.G.G.G.G.G.G.G.G.G.G.g.w.w.w.w.w.w.z $ H.H.H.H.H.H.H.H.H.H.H.",
"H.H.H.H.H.H.H.H.H.H.H.H.$  .A A A A A A 7                               G.G.G.G.G.G.G.G.G.G.G.G.G.G.G.z.w.w.w.w.w.w.:.$ H.H.H.H.H.H.H.H.H.H.H.H.",
"H.H.H.H.H.H.H.H.H.H.H.H.$ g I I A A A A A 3                             G.G.G.G.G.G.G.G.G.G.G.G.G.G.z.u.w.w.w.w.w.6.i $ H.H.H.H.H.H.H.H.H.H.H.H.",
"H.H.H.H.H.H.H.H.H.H.H.H.H.$ z I A A A A A I 3                           G.G.G.G.G.G.G.G.G.G.G.G.G.z.w.w.w.w.w.w.w.j $ H.H.H.H.H.H.H.H.H.H.H.H.H.",
"H.H.H.H.H.H.H.H.H.H.H.H.H.t $ A A A A A A A I 3                         G.G.G.G.G.G.G.G.G.G.G.G.z.u.w.w.w.w.w.w.A $ t H.H.H.H.H.H.H.H.H.H.H.H.H.",
"H.H.H.H.H.H.H.H.H.H.H.H.H.H.$ $  .A A A A A A A 8                       G.G.G.G.G.G.G.G.G.G.G.k.w.w.w.w.w.w.w.&.t $ H.H.H.H.H.H.H.H.H.H.H.H.H.H.",
"H.H.H.H.H.H.H.H.H.H.H.H.H.H.H.t $ Y A A A A A A A #.#                   G.G.G.G.G.G.G.G.G.B.a.w.w.w.w.w.w.w.&.$ t H.H.H.H.H.H.H.H.H.H.H.H.H.H.H.",
"H.H.H.H.H.H.H.H.H.H.H.H.H.H.H.H.$ $ I A A A A A A A I 3                 G.G.G.G.G.G.G.G.z.u.w.w.w.w.w.w.w.^ $ $ H.H.H.H.H.H.H.H.H.H.H.H.H.H.H.H.",
"H.H.H.H.H.H.H.H.H.H.H.H.H.H.H.H.i $ $ I A A A A A A A A +.:             G.G.G.G.G.G.B.a.w.w.w.w.w.w.w.w.^ $ $ t H.H.H.H.H.H.H.H.H.H.H.H.H.H.H.H.",
"H.H.H.H.H.H.H.H.H.H.H.H.H.H.H.H.H.$ $ * M I S I A A A A A I 0 +         G.G.G.G.F.g.w.w.w.w.w.w.w.w.8.M $ $ $ H.H.H.H.H.H.H.H.H.H.H.H.H.H.H.H.H.",
"H.H.H.H.H.H.H.H.H.H.H.H.H.H.H.H.H.H.H.$ $ h ^ I A A A A A A A Y 9 #     G.G.S.k.w.w.w.w.w.w.w.w.w.>.g $ $ H.H.H.H.H.H.H.H.H.H.H.H.H.H.H.H.H.H.H.",
"H.H.H.H.H.H.H.H.H.H.H.H.H.H.H.H.H.H.H.H.$ * * ^ A A A A A A A A A I +.> n.s.w.w.w.w.w.w.w.w.w.w.^ i $ t H.H.H.H.H.H.H.H.H.H.H.H.H.H.H.H.H.H.H.H.",
"H.H.H.H.H.H.H.H.H.H.H.H.H.H.H.H.H.H.H.H.H.t $ $ b  .A A A A A A A A A A w.w.w.w.w.w.w.w.w.w.6.z * $ i H.H.H.H.H.H.H.H.H.H.H.H.H.H.H.H.H.H.H.H.H.",
"H.H.H.H.H.H.H.H.H.H.H.H.H.H.H.H.H.H.H.H.H.H.$ $ $ t A U A A A A A A A A w.w.w.w.w.w.w.w.6.J $ $ $ * H.H.H.H.H.H.H.H.H.H.H.H.H.H.H.H.H.H.H.H.H.H.",
"H.H.H.H.H.H.H.H.H.H.H.H.H.H.H.H.H.H.H.H.H.H.H.t $ $ t g  .A A A A A A A w.w.w.w.w.w.w.&.i $ $ $ t H.H.H.H.H.H.H.H.H.H.H.H.H.H.H.H.H.H.H.H.H.H.H.",
"H.H.H.H.H.H.H.H.H.H.H.H.H.H.H.H.H.H.H.H.H.H.H.H.H.$ $ $ $ h  .J A A A A w.w.w.w.8.;.g * $ * t H.H.H.H.H.H.H.H.H.H.H.H.H.H.H.H.H.H.H.H.H.H.H.H.H.",
"H.H.H.H.H.H.H.H.H.H.H.H.H.H.H.H.H.H.H.H.H.H.H.H.H.H.H.t $ $ $ g I I I A w.w.6.^ g $ $ $ t H.H.H.H.H.H.H.H.H.H.H.H.H.H.H.H.H.H.H.H.H.H.H.H.H.H.H.",
"H.H.H.H.H.H.H.H.H.H.H.H.H.H.H.H.H.H.H.H.H.H.H.H.H.H.H.H.t t $ $ $ i A ^ >.M i * $ $ $ $ H.H.H.H.H.H.H.H.H.H.H.H.H.H.H.H.H.H.H.H.H.H.H.H.H.H.H.H.",
"H.H.H.H.H.H.H.H.H.H.H.H.H.H.H.H.H.H.H.H.H.H.H.H.H.H.H.H.H.H.$ t * $ $ $ $ * $ $ t t H.H.H.H.H.H.H.H.H.H.H.H.H.H.H.H.H.H.H.H.H.H.H.H.H.H.H.H.H.H.",
"H.H.H.H.H.H.H.H.H.H.H.H.H.H.H.H.H.H.H.H.H.H.H.H.H.H.H.H.H.H.H.H.H.$ $ $ $ $ * H.H.H.H.H.H.H.H.H.H.H.H.H.H.H.H.H.H.H.H.H.H.H.H.H.H.H.H.H.H.H.H.H.",
"H.H.H.H.H.H.H.H.H.H.H.H.H.H.H.H.H.H.H.H.H.H.H.H.H.H.H.H.H.H.H.H.H.H.H.t t H.H.H.H.H.H.H.H.H.H.H.H.H.H.H.H.H.H.H.H.H.H.H.H.H.H.H.H.H.H.H.H.H.H.H.",
"H.H.H.H.H.H.H.H.H.H.H.H.H.H.H.H.H.H.H.H.H.H.H.H.H.H.H.H.H.H.H.H.H.H.H.H.H.H.H.H.H.H.H.H.H.H.H.H.H.H.H.H.H.H.H.H.H.H.H.H.H.H.H.H.H.H.H.H.H.H.H.H.",
"H.H.H.H.H.H.H.H.H.H.H.H.H.H.H.H.H.H.H.H.H.H.H.H.H.H.H.H.H.H.H.H.H.H.H.H.H.H.H.H.H.H.H.H.H.H.H.H.H.H.H.H.H.H.H.H.H.H.H.H.H.H.H.H.H.H.H.H.H.H.H.H.",
"H.H.H.H.H.H.H.H.H.H.H.H.H.H.H.H.H.H.H.H.H.H.H.H.H.H.H.H.H.H.H.H.H.H.H.H.H.H.H.H.H.H.H.H.H.H.H.H.H.H.H.H.H.H.H.H.H.H.H.H.H.H.H.H.H.H.H.H.H.H.H.H."
};
