/* XPM */
static const char *sign_up[] = {
/* columns rows colors chars-per-pixel */
"72 72 71 1 ",
"  c #2980B8",
". c #2880B9",
"X c #2980B9",
"o c #2A80B8",
"O c #2980BA",
"+ c #2981BA",
"@ c #2A80BA",
"# c #2A81BB",
"$ c #2A82BA",
"% c #2A82BC",
"& c #2B83BE",
"* c #2B84BF",
"= c #3184BB",
"- c #2B85C0",
"; c #2C86C1",
": c #2C87C3",
"> c #2C88C3",
", c #2D88C4",
"< c #2D89C6",
"1 c #2E8AC8",
"2 c #2E8BC9",
"3 c #2E8DCA",
"4 c #2F8DCB",
"5 c #2F8DCC",
"6 c #2F8ECD",
"7 c #308FCE",
"8 c #308FCF",
"9 c #3090CF",
"0 c #3090D0",
"q c #3191D1",
"w c #3192D2",
"e c #3292D2",
"r c #3293D4",
"t c #3294D5",
"y c #3294D6",
"u c #3294D7",
"i c #3395D7",
"p c #3296D8",
"a c #3396D8",
"s c #3397D9",
"d c #3497DA",
"f c #3498DA",
"g c #3499DA",
"h c #3498DB",
"j c #3598DB",
"k c #3499DB",
"l c #3699DB",
"z c #3398DC",
"x c #3498DC",
"c c #3D9CDC",
"v c #4992C2",
"b c #5A9CC7",
"n c #47A1DD",
"m c #57A9DF",
"M c #72AACE",
"N c #62AEE1",
"B c #6BB2E2",
"V c #83BEE4",
"C c #A3C6DC",
"Z c #9DCAE8",
"A c #BCD4E3",
"S c #B5D6EA",
"D c #BEDAEB",
"F c #CCDEE8",
"G c #C9DFED",
"H c #D9E7EF",
"J c #E4ECEF",
"K c #E3ECF0",
"L c #EAEFF1",
"P c #ECF0F1",
"I c None",
/* pixels */
"IIIIIIIIIIIIIIIIIIIIIIIIIIIIIIIIIIIIIIIIIIIIIIIIIIIIIIIIIIIIIIIIIIIIIIII",
"IIIIIIIIIIIIIIIIIIIIIIIIIIIIIIIIIIIIIIIIIIIIIIIIIIIIIIIIIIIIIIIIIIIIIIII",
"IIIIIIIIIIIIIIIIIIIIIIIIIIIIIIIIIIIIIIIIIIIIIIIIIIIIIIIIIIIIIIIIIIIIIIII",
"IIIIIIIIIIIIIIIIIIIIIIIIIIIIIIIIIIIIIIIIIIIIIIIIIIIIIIIIIIIIIIIIIIIIIIII",
"IIIIIIIIIIIIIIIIIIIIIIIIIIIIIIIIIIIIIIIIIIIIIIIIIIIIIIIIIIIIIIIIIIIIIIII",
"IIIIIIIIIIIIIIIIIIIIIIIIIIIIIIIIIIIIIIIIIIIIIIIIIIIIIIIIIIIIIIIIIIIIIIII",
"IIIIIIIIIIIIIIIIIIIIIIIIIIIIIIIjjjzjjjjjjIIIIIIIIIIIIIIIIIIIIIIIIIIIIIII",
"IIIIIIIIIIIIIIIIIIIIIIIIIIIjjjjjjjjjjjjjjjjjjIIIIIIIIIIIIIIIIIIIIIIIIIII",
"IIIIIIIIIIIIIIIIIIIIIIIIjjgpjjpzjjjjjjjzjzjzjzjjIIIIIIIIIIIIIIIIIIIIIIII",
"IIIIIIIIIIIIIIIIIIIIIIjjjjgzjggjjjjzggzjzjgpzjzjjjIIIIIIIIIIIIIIIIIIIIII",
"IIIIIIIIIIIIIIIIIIIIgjjjzjzjzjjzzjzjzpzjzjgjjjzjjjjgIIIIIIIIIIIIIIIIIIII",
"IIIIIIIIIIIIIIIIIIIjjjjjjzjzjzzjjzjzjzjzjzjjggpzjjjjjIIIIIIIIIIIIIIIIIII",
"IIIIIIIIIIIIIIIIIIjjzjggzjzpjjjzzjjzjzzjzjjzjzzjjjzjzjIIIIIIIIIIIIIIIIII",
"IIIIIIIIIIIIIIIIgjjjjjjpjzggggzjjzjjzjjjjzzjzjjzjjjzjzjgIIIIIIIIIIIIIIII",
"IIIIIIIIIIIIIIIjjjzjzjjzjzjjzpzjzjzgjzpjzgjzpjjjzjzjjjjjjIIIIIIIIIIIIIII",
"IIIIIIIIIIIIIIjjggpzjzzjzjzjjzjzjzpgzjggpgjjggjzjzjzjjjjjjIIIIIIIIIIIIII",
"IIIIIIIIIIIIIgjzjzpggjzjggjzjzzjzgzzzjzjjgzjggjzzjzpzjzjzpgIIIIIIIIIIIII",
"IIIIIIIIIIIIIjzjzjzjjjjzpzjjzjjjpzgzpzjzjgpzjpzjjzggjzjzggjIIIIIIIIIIIII",
"IIIIIIIIIIIIjjjjjzjzgpzjzjzjjzpjjjzVZpzjjzzjjjjzjzjjjjpzjzjzIIIIIIIIIIII",
"IIIIIIIIIIIjjjjjzjzjgzjzjzjzzjggzjBLKNjzzjjzjzzjzjzjjggjjjzjjIIIIIIIIIII",
"IIIIIIIIIIgjzjpzzjzjjzjzpggjzjzjjmKLPKmjjzjzggjzjzzjzjjzzjzjjgIIIIIIIIII",
"IIIIIIIIIIjjjjjjpzjzjjzjzjjjpzjjnHPPPPHnzjgppzjjzjjzpzzjjzjzjjIIIIIIIIII",
"IIIIIIIIIjjjzjjzggzjggjzjzjzggjcGPPPPPPGcjgjzjzjpjjjgjjzzjjjjjjIIIIIIIII",
"IIIIIIIIIzjgpzzjjjjjjpzjzjzjjjgSPPPPPPPPSgjjjzjzggjzgjzjjzjjjjjIIIIIIIII",
"IIIIIIIIjjjjzjzjjzjzjjjzjzjzjzZPPPPPPPPPPZjjzjjjzjzjjzjzzjjzjggjIIIIIIII",
"IIIIIIIIjjjjjzpjzjzjggzjzjgpjVPPPPPPPPPPPPVzjzjgjzjzzjzjpzzjzpjjIIIIIIII",
"IIIIIIIIzjjjjjjzjjjzzpzjjzgjBLPPPPPPPPPPPPLBzzjgzpjjjzjjgjjzjzjzIIIIIIII",
"IIIIIIIjjzjzjpzjjggpjzjzzjjmKPPPPPPPPPPPPPPKmjzpggjggpgggjzjzjzjjIIIIIII",
"IIIIIIIjzjjzjzjzzjjzjzzjjznHPPPPPPPPPPPPPPPPHnjjjzjzzjzpjzjjjggjjIIIIIII",
"IIIIIIIjjzzjjpjjjzjjzjjjjcGPPPPPPPPPPPPPPPPPPGcjjjzjjzjzzjzjzpjjjIIIIIII",
"IIIIIIIjzjzjjjzpzjzgjzpjgSPPPPPPCPPPPPPCPPPPPPSgggjzzjggjzggzjzjjIIIIIII",
"IIIIIIjjjzpjjzjzjzpgzjggZPPPPPPF=PPPPPP=FPPPPPPZjpzjjjjpzjpzjzjzjjIIIIII",
"IIIIIIgzgpzjpzjzzjzjzzuZPPPPPPHv$PPPPPP$vKPPPPPPVjjjjzjzjzzjzpjjjdIIIIII",
"IIIIIIwjgzjzgjzjjzjzzzNPPPPPPPM$>PPPPPP>$MPPPPPPLBjjzjzjzjjjjzzjjtIIIIII",
"IIIIIIjjjjzjgjjzzjjjzmKPPPPPPC$$jPPPPPPj$$CLPPPPPKmjjzjzjzjjjjjzjdIIIIII",
"IIIIIIjjzjjzjjzjjzjjcHPPPPPPF=$wjLPPPPLjt$$FPPPPPPHnzjzjzjzpjpzjjdIIIIII",
"IIIIIIjjjzjzzpgjzjjcFPPPPPPJv$9zjPPPPPPjj9$vJPPPPPPFljjzpzjzzjzpddIIIIII",
"IIIIIItjzjzjjzgjpjjSPPPPPPPM$>zgjPPPPPLjzj>$MPPPPPPPSjzjgjzjjzjjdtIIIIII",
"IIIIIIgjzjpgzjzjjzZPPPPPPPC$$gzjzPPPPPPjjjj$$CPPPPPPPZjjgjjzpzjzjtIIIIII",
"IIIIII9zjjjgjzjjzjNDPPPPPF=$gzjjjPPPPPLjjjjt$$FPPPPPDNjjjjjjgjzjdtIIIIII",
"IIIIII2jzjzgjjgjjzz-bALLHv$9pjpjzPPPPPPjjzjz9$vJLJAb>pjzzjjzjzjzj2IIIIII",
"IIIIII9jjzpgzjgpjp3$$$bSM$>jjjzjjLPPPPPgzjzjj>$MAb$$$3zjjzjjzjzjj2IIIIII",
"IIIIII>jjjjzjzjzjj9=$$$$$$zjjjjzgPPPPPLjpzjzzp$$$$$$=gjzzjzgzjpgd:IIIIII",
"IIIIII$tjpzjzjzjjzjz9$$$$gjzjjzjjPPPPPPjgjzjjzg$..-9ggzjjzpgjjjgd$IIIIII",
"IIIIIII9zpjzjzjpjzjzjzw$9pgjzjzjjLPPPPPggjggjjg9$wjjzpgjjzjzzjzj8IIIIIII",
"IIIIIII>jzjjzjjzzjzjjjjjzjjjjzjzgPPPPPLjjjpzzjgpjjjzjzgjzjzjjzpz>IIIIIII",
"IIIIIII$jjzjjzzjpjjzjzjzjzjjzpjjjPPPPPPjzjzjjzjzzjzjzjzjpgjjjzgj$IIIIIII",
"IIIIIII$9zjjjpjzjjzjzjzjzjzjggjgjLPPPPPgjzjzzjzjjzjzjzjjjggpzjjw$IIIIIII",
"IIIIIIII:djjjjzjjzjzpjjzjggjjzjgjPPPPPPjjjpzjgzjzjzjjzjzpgzpgjj$IIIIIIII",
"IIIIIIII$8jjjjjzjjzjjjzjzpjjzjzpjPPPPPPgjggjjgpzjzpzzjzjjgjzgjg$IIIIIIII",
"IIIIIIIIX$djzjzjzpzjzjzjzjzjjzjgzPPPPPPgzjjzjzzjjzjjjjjzjjzjjp$$IIIIIIII",
"IIIIIIIII$2jjzjzjzjjjzpjjzjzzjjgjPPPPPPpjzzjzjjzzjzjgpzjjzjzj9$IIIIIIIII",
"IIIIIIIII$$dzjzjjzjjjzjjzpjzpgzpzPPPPPPzzjzpzpgjpjjzjzjzjjjjg$$IIIIIIIII",
"IIIIIIIIII.:jzjzzjzpzjzjggzjjgjzjLPPPPPjjzggjzjjjjzjjpjjjjjd-$IIIIIIIIII",
"IIIIIIIIII$.>zzjjjzjpjzpjzjzjjzjgPPPPPPzjzjjzjpzzjzjjjzpjjd2X$IIIIIIIIII",
"IIIIIIIIIII$$9jzpzjzjjjzjjzjjzjzjPPPPPPjzjzjjjjjjzpjjzjzjz8XXIIIIIIIIIII",
"IIIIIIIIIIII$XtdjjjjzjzjpzjzjjjzjLJPPJPpjzjzpjjzjzjzjjjdzw$XIIIIIIIIIIII",
"IIIIIIIIIIIII$$tddjzjzjzgjzjjpzjj$.$$$$pjjzjjjzjzjzjjjjdw$$IIIIIIIIIIIII",
"IIIIIIIIIIIII$XX0djdzjzjgjjjzjjzz$$$ .$jzpzjzjzjjzjzjzd0$..IIIIIIIIIIIII",
"IIIIIIIIIIIIIIXX$2jdjzjzjjpzjzjjj$$$ $$jjzjjjzpjzjzjzj2X$.IIIIIIIIIIIIII",
"IIIIIIIIIIIIIII$XX:dzggzzjzjzjzpzjjjdjjjjzjjzjzjjzjzd:XX$IIIIIIIIIIIIIII",
"IIIIIIIIIIIIIIIIX$X$2gzgjzjzjjjzjzjpjjjjzjzpjzjzzjj2$XXXIIIIIIIIIIIIIIII",
"IIIIIIIIIIIIIIIIII..$$9zjjzppjjzzpjzjjzjjjzjzjzjj2$$XXIIIIIIIIIIIIIIIIII",
"IIIIIIIIIIIIIIIIIII$$$$$gjggzjzjjjzjzjpzpzjzjzjw-.$$$IIIIIIIIIIIIIIIIIII",
"IIIIIIIIIIIIIIIIIIII$XXXX$:8dddjjjjjjjdddjjd8:$XXX$XIIIIIIIIIIIIIIIIIIII",
"IIIIIIIIIIIIIIIIIIIIIIXXXXXXX:222ttdjwt022:.XXXXXXIIIIIIIIIIIIIIIIIIIIII",
"IIIIIIIIIIIIIIIIIIIIIIIIX$XXXX$XXXXX$...XX..XXX$IIIIIIIIIIIIIIIIIIIIIIII",
"IIIIIIIIIIIIIIIIIIIIIIIIIIIX XXXXXXX....XXX $IIIIIIIIIIIIIIIIIIIIIIIIIII",
"IIIIIIIIIIIIIIIIIIIIIIIIIIIIIII$$.X$X$.$XIIIIIIIIIIIIIIIIIIIIIIIIIIIIIII",
"IIIIIIIIIIIIIIIIIIIIIIIIIIIIIIIIIIIIIIIIIIIIIIIIIIIIIIIIIIIIIIIIIIIIIIII",
"IIIIIIIIIIIIIIIIIIIIIIIIIIIIIIIIIIIIIIIIIIIIIIIIIIIIIIIIIIIIIIIIIIIIIIII",
"IIIIIIIIIIIIIIIIIIIIIIIIIIIIIIIIIIIIIIIIIIIIIIIIIIIIIIIIIIIIIIIIIIIIIIII"
};
