/* XPM */
static const char *sign_right[] = {
/* columns rows colors chars-per-pixel */
"72 72 95 2 ",
"   c #2980B8",
".  c #2880B9",
"X  c #2980B9",
"o  c #2A80B8",
"O  c #2980BA",
"+  c #2981BA",
"@  c #2A80BA",
"#  c #2B81BA",
"$  c #2A81BB",
"%  c #2A82BA",
"&  c #2A82BC",
"*  c #2A83BD",
"=  c #2B83BE",
"-  c #2B84BF",
";  c #2B85BF",
":  c #3184BB",
">  c #3285BC",
",  c #3E8CBF",
"<  c #2B85C0",
"1  c #2C86C1",
"2  c #2C87C3",
"3  c #2C88C3",
"4  c #2D88C4",
"5  c #2D89C6",
"6  c #2E8AC8",
"7  c #2E8BC9",
"8  c #2E8DCA",
"9  c #2F8DCB",
"0  c #2F8DCC",
"q  c #2F8ECC",
"w  c #2F8ECD",
"e  c #308FCE",
"r  c #308FCF",
"t  c #3090CF",
"y  c #3090D0",
"u  c #3191D1",
"i  c #3192D2",
"p  c #3292D2",
"a  c #3293D4",
"s  c #3293D5",
"d  c #3294D5",
"f  c #3294D6",
"g  c #3294D7",
"h  c #3395D7",
"j  c #3296D8",
"k  c #3396D8",
"l  c #3397D9",
"z  c #3497DA",
"x  c #3498DA",
"c  c #3499DA",
"v  c #3498DB",
"b  c #3598DB",
"n  c #3499DB",
"m  c #3699DB",
"M  c #3398DC",
"N  c #3498DC",
"B  c #3B9BDC",
"V  c #3D9CDC",
"C  c #4992C2",
"Z  c #4E95C4",
"A  c #5A9CC7",
"S  c #47A1DD",
"D  c #52A6DF",
"F  c #57A9DF",
"G  c #63A1CA",
"H  c #72AACE",
"J  c #69ADDB",
"K  c #7CB0D1",
"L  c #62AEE1",
"P  c #6BB2E2",
"I  c #79B9E3",
"U  c #83BEE4",
"Y  c #99C0D9",
"T  c #A3C6DC",
"R  c #9DCAE8",
"E  c #A7CFE9",
"W  c #B2CFE0",
"Q  c #BCD4E3",
"!  c #BCD5E3",
"~  c #B5D6EA",
"^  c #BFDAEC",
"/  c #C7DBE6",
"(  c #CCDEE8",
")  c #C9DFED",
"_  c #CEE2ED",
"`  c #D7E4EB",
"'  c #D9E7EF",
"]  c #E3EBEE",
"[  c #E4ECEF",
"{  c #E3ECF0",
"}  c #E5EDF0",
"|  c #EAEFF0",
" . c #EAEFF1",
".. c #ECF0F1",
"X. c None",
/* pixels */
"X.X.X.X.X.X.X.X.X.X.X.X.X.X.X.X.X.X.X.X.X.X.X.X.X.X.X.X.X.X.X.X.X.X.X.X.X.X.X.X.X.X.X.X.X.X.X.X.X.X.X.X.X.X.X.X.X.X.X.X.X.X.X.X.X.X.X.X.X.X.X.X.",
"X.X.X.X.X.X.X.X.X.X.X.X.X.X.X.X.X.X.X.X.X.X.X.X.X.X.X.X.X.X.X.X.X.X.X.X.X.X.X.X.X.X.X.X.X.X.X.X.X.X.X.X.X.X.X.X.X.X.X.X.X.X.X.X.X.X.X.X.X.X.X.X.",
"X.X.X.X.X.X.X.X.X.X.X.X.X.X.X.X.X.X.X.X.X.X.X.X.X.X.X.X.X.X.X.X.X.X.X.X.X.X.X.X.X.X.X.X.X.X.X.X.X.X.X.X.X.X.X.X.X.X.X.X.X.X.X.X.X.X.X.X.X.X.X.X.",
"X.X.X.X.X.X.X.X.X.X.X.X.X.X.X.X.X.X.X.X.X.X.X.X.X.X.X.X.X.X.X.X.X.X.X.X.X.X.X.X.X.X.X.X.X.X.X.X.X.X.X.X.X.X.X.X.X.X.X.X.X.X.X.X.X.X.X.X.X.X.X.X.",
"X.X.X.X.X.X.X.X.X.X.X.X.X.X.X.X.X.X.X.X.X.X.X.X.X.X.X.X.X.X.X.X.X.X.X.X.X.X.X.X.X.X.X.X.X.X.X.X.X.X.X.X.X.X.X.X.X.X.X.X.X.X.X.X.X.X.X.X.X.X.X.X.",
"X.X.X.X.X.X.X.X.X.X.X.X.X.X.X.X.X.X.X.X.X.X.X.X.X.X.X.X.X.X.X.X.X.X.X.X.X.X.X.X.X.X.X.X.X.X.X.X.X.X.X.X.X.X.X.X.X.X.X.X.X.X.X.X.X.X.X.X.X.X.X.X.",
"X.X.X.X.X.X.X.X.X.X.X.X.X.X.X.X.X.X.X.X.X.X.X.X.X.X.X.X.X.X.X.b b b M b b b b b b X.X.X.X.X.X.X.X.X.X.X.X.X.X.X.X.X.X.X.X.X.X.X.X.X.X.X.X.X.X.X.",
"X.X.X.X.X.X.X.X.X.X.X.X.X.X.X.X.X.X.X.X.X.X.X.X.X.X.X.b b b b b b b b b b b b b b b b b b X.X.X.X.X.X.X.X.X.X.X.X.X.X.X.X.X.X.X.X.X.X.X.X.X.X.X.",
"X.X.X.X.X.X.X.X.X.X.X.X.X.X.X.X.X.X.X.X.X.X.X.X.b b M b b M b M b b b b b b b M b M b M b M b b X.X.X.X.X.X.X.X.X.X.X.X.X.X.X.X.X.X.X.X.X.X.X.X.",
"X.X.X.X.X.X.X.X.X.X.X.X.X.X.X.X.X.X.X.X.X.X.b b M M b M M b M b b b b M c c M b M b c j M b M b b b X.X.X.X.X.X.X.X.X.X.X.X.X.X.X.X.X.X.X.X.X.X.",
"X.X.X.X.X.X.X.X.X.X.X.X.X.X.X.X.X.X.X.X.c b b b j c M b j c b M M b M b M j M b M b c b b b M b b b b c X.X.X.X.X.X.X.X.X.X.X.X.X.X.X.X.X.X.X.X.",
"X.X.X.X.X.X.X.X.X.X.X.X.X.X.X.X.X.X.X.b b b b b b c b b b c b b b M b M b M b M b M b b c c j M b b b b b X.X.X.X.X.X.X.X.X.X.X.X.X.X.X.X.X.X.X.",
"X.X.X.X.X.X.X.X.X.X.X.X.X.X.X.X.X.X.b b j M b M b b M b M b M c M b b M b M M b M b b M b M M b b b M b M b X.X.X.X.X.X.X.X.X.X.X.X.X.X.X.X.X.X.",
"X.X.X.X.X.X.X.X.X.X.X.X.X.X.X.X.c M b b c b M b b M b M b M j c b M b b M b b b b M M b M b b M b b b M b M b c X.X.X.X.X.X.X.X.X.X.X.X.X.X.X.X.",
"X.X.X.X.X.X.X.X.X.X.X.X.X.X.X.b M b M b c b b M b c M b M b b b M b M c b M j b M c b M j b b b M b M b b b b b b X.X.X.X.X.X.X.X.X.X.X.X.X.X.X.",
"X.X.X.X.X.X.X.X.X.X.X.X.X.X.b b b M b M b b M b b c j M b M b c b M j c M b c c j c b b c c b M b M b M b b b b b b X.X.X.X.X.X.X.X.X.X.X.X.X.X.",
"X.X.X.X.X.X.X.X.X.X.X.X.X.c b M b M j c c b M b M b M j c c j c b M b b M M n n c c b M c j M b M b M j M b M b M j c X.X.X.X.X.X.X.X.X.X.X.X.X.",
"X.X.X.X.X.X.X.X.X.X.X.X.X.b M b M b M b b b b M b M b M b b M b M b b b b M n n b j M b c M b M b M c c b M b M c c b X.X.X.X.X.X.X.X.X.X.X.X.X.",
"X.X.X.X.X.X.X.X.X.X.X.X.b b b b b M b M c j M b M b c c b M b M b M b L R c n n b b b M b b M b b M b b b b j M b M b M X.X.X.X.X.X.X.X.X.X.X.X.",
"X.X.X.X.X.X.X.X.X.X.X.b b b b b M b M b c M b M b b b j M b M b M b M ^ ..~ V n b M M b M b b b M b M b b c c b b b M b b X.X.X.X.X.X.X.X.X.X.X.",
"X.X.X.X.X.X.X.X.X.X.c b M b j M M b M b b M b M b M b M M b b b b M L ......) S M M b M M b M b b M M b M b b M M b M b b c X.X.X.X.X.X.X.X.X.X.",
"X.X.X.X.X.X.X.X.X.X.b b b b b b j M b M b b M b M b M b b M b c M b ^ ........' F b M b b M j c M b b M j M M b b M b M b b X.X.X.X.X.X.X.X.X.X.",
"X.X.X.X.X.X.X.X.X.b b b M b b M c c M b c c b M b M c j M b j c b L ........ . .} L j c M b M b j b b b c b b M M b b b b b b X.X.X.X.X.X.X.X.X.",
"X.X.X.X.X.X.X.X.X.M b c j M M b b b b b b j M b b b c M b M M b M ^ .......... . .} Y c b M b M c c b M c b M b b M b b b b b X.X.X.X.X.X.X.X.X.",
"X.X.X.X.X.X.X.X.b b b b M b M b b M b M b b b M b M b M b M b M b I ' ................R c c M b b M b M M b M b M b b M b c c b X.X.X.X.X.X.X.X.",
"X.X.X.X.X.X.X.X.b b b b b M j b M b M b c c M b M b c j M b M b M d C _ ................~ V b b M b M b b M b b j M M b M j b b X.X.X.X.X.X.X.X.",
"X.X.X.X.X.X.X.X.M b b b b b b M b b b M M j M b M b c b b b M b M ; % : T ................_ S b b M b b M b c b c b b M b M b M X.X.X.X.X.X.X.X.",
"X.X.X.X.X.X.X.b b M b M b j M b b c c j b M b M b M b b c c j M b t . % % H | ..............' F c j c c j M c j c b M b M b M b b X.X.X.X.X.X.X.",
"X.X.X.X.X.X.X.b M b b M b M b M M b b M b M M b M b b M b M M b M b j . % % C / ............ .} P M M M b M b M b M b b b c c b b X.X.X.X.X.X.X.",
"X.X.X.X.X.X.X.b b M M b b j b b b M b b M b b b b M M b M b b M b b b b 3 % % : T } ............| Y M M M b M b M b M b M j b b b X.X.X.X.X.X.X.",
"X.X.X.X.X.X.X.b M b M b b b M j M b M c b M j b M c b M j b b b M b b M b t % % . H |  ......... . .R M b M c c b M c c M b M b b X.X.X.X.X.X.X.",
"X.X.X.X.X.X.b b b M j b b M b M b M j c M b c c j c b b c c b M b M b b b b i . . . C _ .......... .} ~ V b b j M b j M b M b M b b X.X.X.X.X.X.",
"X.X.X.X.X.X.l N M l M l M l M l N N N m N m N m N m N m N m N m M b b b M b M j 6     > T | ............) S m l m N l M m M m N l l X.X.X.X.X.X.",
"X.X.X.X.X.X.l N m N m N m N m N N m | ..| ..| ..| ..| ..| ..| ....| ................| ....................' F l N l N m N l M l l l X.X.X.X.X.X.",
"X.X.X.X.X.X.l m N l M m N l M m N N ........................................................................{ P N m N M l N m N b l X.X.X.X.X.X.",
"X.X.X.X.X.X.l l m M l N m M l N m l ........................................................................| | U l N l M m M l b l X.X.X.X.X.X.",
"X.X.X.X.X.X.l m N m N l M m N m N N | ......................................................................| | U N l N m M m N l l X.X.X.X.X.X.",
"X.X.X.X.X.X.l l l M m M l N l M N l ........................................................................{ J l m M m N l M l l l X.X.X.X.X.X.",
"X.X.X.X.X.X.i l M l N l M m M l N N ..........| ........| | | | ....| ....| ....| ....| ..................` Z   y l l M l N m N l i X.X.X.X.X.X.",
"X.X.X.X.X.X.i N m N m M l N m N N m             =       =       . % . . % % % %     + > T ..............( ,     y l N m M m M l l i X.X.X.X.X.X.",
"X.X.X.X.X.X.e l M m N m N l M m N l                 =         = .       . . . + + + C ( ..............W >   + i l m M m N m N l b e X.X.X.X.X.X.",
"X.X.X.X.X.X.e l l N l M m M l N N m     =   =             =     .       . . . + + H ] ..............Y     < l m N l l N l M m M b e X.X.X.X.X.X.",
"X.X.X.X.X.X.< b m N l N N m N m N N l N l N l N M m M l N N l l b b l l b b b B E ..............| U     < l l M N N N m M l N l l < X.X.X.X.X.X.",
"X.X.X.X.X.X.+ l l N N N l M l M l N m N N N l N l N m N l N N N b b b b b b D _ ..............] A o   < l l N m l m l M m N m M l + X.X.X.X.X.X.",
"X.X.X.X.X.X.X.y N l N m l N N N N l m l N N l N M m N m M l M l b b b b b I { ..............` C     6 m l M m M l N l N N m N l y X.X.X.X.X.X.X.",
"X.X.X.X.X.X.X.< N m N l m N l m N N N N l N l N l N l M m N m N M b b b E ................/ , .   6 l m N m N l M m M N l M m M 3 X.X.X.X.X.X.X.",
"X.X.X.X.X.X.X.+ l l m l N N N l l m l N l N m N M m M l N l M m b b D _ ................W > : . y l m l l M l N m N l m N N N l + X.X.X.X.X.X.X.",
"X.X.X.X.X.X.X.+ i N N N N l N l N N N N m N l N l N m N m M l N M I { ................Y + + . j m N m l N m M m M l N N l m l i + X.X.X.X.X.X.X.",
"X.X.X.X.X.X.X.X.< B b b b b b b M m N m N l M m N m N l M m N m N ) | | ....| | | | K     < l N N l N N N l N m N N M m N m N < X.X.X.X.X.X.X.X.",
"X.X.X.X.X.X.X.X.  y M l b b b b l N l M m M l N l M m M l N l M N L | | ......| { G     < l l m N N m l N m N l N l l N l M y   X.X.X.X.X.X.X.X.",
"X.X.X.X.X.X.X.X.  < l l b M b b M m M l N m N m M l N l M m M l l r / | ....| ` Z     e m N l M m l N N N l N m N N N m l l <   X.X.X.X.X.X.X.X.",
"X.X.X.X.X.X.X.X.X.+ e l M b M b l N m N l M l M m N m M l N m N N = A ....../ C     y l N N N m N N N l N l N l l m l M N y   X.X.X.X.X.X.X.X.X.",
"X.X.X.X.X.X.X.X.X.+ + l b M b M M m N m M l m l N l M m N l M m N y   Q | W 1     y m l l M m M N l N l N N N N m l l l l <   X.X.X.X.X.X.X.X.X.",
"X.X.X.X.X.X.X.X.X.X.+ < M b M b l N l M m N N N m M l N m M l N N N < A Y = # # l l N N N m N l N N N m m l l N N N N l < + X.X.X.X.X.X.X.X.X.X.",
"X.X.X.X.X.X.X.X.X.X.    w b b M M m M l N l l N N m N m N m N m l N s       < l N N l m l M l N l N l l N N N N N l m e   + X.X.X.X.X.X.X.X.X.X.",
"X.X.X.X.X.X.X.X.X.X.X.. . w M b l N m N m M N N l M l M l M l M N N N <   < l m l l N N N m M m m N N N N l l m N N y     X.X.X.X.X.X.X.X.X.X.X.",
"X.X.X.X.X.X.X.X.X.X.X.X.+ + i b l N N N l m l m M l M l M l M l N l m i e l N N l M m M m N l M l N N N N l l N l l +   X.X.X.X.X.X.X.X.X.X.X.X.",
"X.X.X.X.X.X.X.X.X.X.X.X.X.+ + i N l l N N N N N m N m N m N m N N N l N l l m l N m N l M l N m m N l m N N N l l   + X.X.X.X.X.X.X.X.X.X.X.X.X.",
"X.X.X.X.X.X.X.X.X.X.X.X.X.+ + + y l N N l l m l N l M m N l M m l l N N m l N N l M l N m M m M N N N l l m l y       X.X.X.X.X.X.X.X.X.X.X.X.X.",
"X.X.X.X.X.X.X.X.X.X.X.X.X.X.+ +   e l l N N N N m M l N m M l N N N N l N N N l N N m N N l N l N l N l N N e       X.X.X.X.X.X.X.X.X.X.X.X.X.X.",
"X.X.X.X.X.X.X.X.X.X.X.X.X.X.X.+   = < l N m N N N m N l M m N m m l l N N N l m N l m l l N l N N N N l l <     + X.X.X.X.X.X.X.X.X.X.X.X.X.X.X.",
"X.X.X.X.X.X.X.X.X.X.X.X.X.X.X.X.  +   < y l l m l M m M l N l M N N N N l N N N N l N N N N m N l m l y <     = X.X.X.X.X.X.X.X.X.X.X.X.X.X.X.X.",
"X.X.X.X.X.X.X.X.X.X.X.X.X.X.X.X.X.X.      < y l N N N l M m M l N l l m N N l N N N N l N l N l N y <       X.X.X.X.X.X.X.X.X.X.X.X.X.X.X.X.X.X.",
"X.X.X.X.X.X.X.X.X.X.X.X.X.X.X.X.X.X.X.        < i l m M l N m N m M N N l m l N m l N N N m m y <       + X.X.X.X.X.X.X.X.X.X.X.X.X.X.X.X.X.X.X.",
"X.X.X.X.X.X.X.X.X.X.X.X.X.X.X.X.X.X.X.X.+         < 6 y l l N l l N l l N l N N l l l l y < <       <   X.X.X.X.X.X.X.X.X.X.X.X.X.X.X.X.X.X.X.X.",
"X.X.X.X.X.X.X.X.X.X.X.X.X.X.X.X.X.X.X.X.X.X.              < 6 y y i l l l l y y y 6 <               X.X.X.X.X.X.X.X.X.X.X.X.X.X.X.X.X.X.X.X.X.X.",
"X.X.X.X.X.X.X.X.X.X.X.X.X.X.X.X.X.X.X.X.X.X.X.X.                  =                           + X.X.X.X.X.X.X.X.X.X.X.X.X.X.X.X.X.X.X.X.X.X.X.X.",
"X.X.X.X.X.X.X.X.X.X.X.X.X.X.X.X.X.X.X.X.X.X.X.X.X.X.X.+                       =   =     + X.X.X.X.X.X.X.X.X.X.X.X.X.X.X.X.X.X.X.X.X.X.X.X.X.X.X.",
"X.X.X.X.X.X.X.X.X.X.X.X.X.X.X.X.X.X.X.X.X.X.X.X.X.X.X.X.X.X.X.< +     +   +   + = X.X.X.X.X.X.X.X.X.X.X.X.X.X.X.X.X.X.X.X.X.X.X.X.X.X.X.X.X.X.X.",
"X.X.X.X.X.X.X.X.X.X.X.X.X.X.X.X.X.X.X.X.X.X.X.X.X.X.X.X.X.X.X.X.X.X.X.X.X.X.X.X.X.X.X.X.X.X.X.X.X.X.X.X.X.X.X.X.X.X.X.X.X.X.X.X.X.X.X.X.X.X.X.X.",
"X.X.X.X.X.X.X.X.X.X.X.X.X.X.X.X.X.X.X.X.X.X.X.X.X.X.X.X.X.X.X.X.X.X.X.X.X.X.X.X.X.X.X.X.X.X.X.X.X.X.X.X.X.X.X.X.X.X.X.X.X.X.X.X.X.X.X.X.X.X.X.X.",
"X.X.X.X.X.X.X.X.X.X.X.X.X.X.X.X.X.X.X.X.X.X.X.X.X.X.X.X.X.X.X.X.X.X.X.X.X.X.X.X.X.X.X.X.X.X.X.X.X.X.X.X.X.X.X.X.X.X.X.X.X.X.X.X.X.X.X.X.X.X.X.X."
};
