/* XPM */
static char *sign_sync[] = {
/* columns rows colors chars-per-pixel */
"72 72 207 2 ",
"   c #2980B8",
".  c #2880B9",
"X  c #2980B9",
"o  c #2981B9",
"O  c #2A80B8",
"+  c #2980BA",
"@  c #2981BA",
"#  c #2880BB",
"$  c #2981BB",
"%  c #2A80BA",
"&  c #2A81BA",
"*  c #2A81BB",
"=  c #2A82BB",
"-  c #2C82BA",
";  c #2D82BA",
":  c #2E83BB",
">  c #2982BC",
",  c #2A82BC",
"<  c #2B83BD",
"1  c #2A83BE",
"2  c #2B84BF",
"3  c #2B85BF",
"4  c #3184BB",
"5  c #3486BC",
"6  c #3586BC",
"7  c #3587BC",
"8  c #3687BD",
"9  c #3989BD",
"0  c #398ABE",
"q  c #3A8ABE",
"w  c #3D8BBF",
"e  c #3F8CBF",
"r  c #2B84C0",
"t  c #2B85C0",
"y  c #2C85C0",
"u  c #2C85C1",
"i  c #2C86C1",
"p  c #2C86C2",
"a  c #2C87C3",
"s  c #2D87C3",
"d  c #2C87C4",
"f  c #2D88C4",
"g  c #2D89C5",
"h  c #2D89C6",
"j  c #2D8AC6",
"k  c #2D8AC7",
"l  c #2D8BC7",
"z  c #2E8AC8",
"x  c #2E8BC8",
"c  c #2F8BC9",
"v  c #2E8CC9",
"b  c #2F8CCA",
"n  c #2E8DCA",
"m  c #2F8DCB",
"M  c #2F8ECC",
"N  c #2F8ECD",
"B  c #2F8FCF",
"V  c #308DCD",
"C  c #308ECD",
"Z  c #308FCE",
"A  c #308FCF",
"S  c #3090CE",
"D  c #3090CF",
"F  c #3190D0",
"G  c #3091D0",
"H  c #3191D1",
"J  c #3192D2",
"K  c #3292D2",
"L  c #3293D3",
"P  c #3293D4",
"I  c #3294D5",
"U  c #3295D6",
"Y  c #3395D6",
"T  c #3295D7",
"R  c #3396D7",
"E  c #3396D8",
"W  c #3396D9",
"Q  c #3397D9",
"!  c #3397DA",
"~  c #3496D8",
"^  c #3497D8",
"/  c #3496D9",
"(  c #3497DA",
")  c #3498DA",
"_  c #3498DB",
"`  c #3598DB",
"'  c #3499DB",
"]  c #3398DC",
"[  c #3498DC",
"{  c #379ADC",
"}  c #389ADC",
"|  c #399ADC",
" . c #399BDC",
".. c #3C9BDC",
"X. c #3E9DDC",
"o. c #3F9DDC",
"O. c #438EC0",
"+. c #4490C1",
"@. c #4E95C3",
"#. c #5197C5",
"$. c #5499C5",
"%. c #5B9CC7",
"&. c #5B9DC7",
"*. c #409DDC",
"=. c #419EDC",
"-. c #419EDD",
";. c #439FDD",
":. c #44A0DD",
">. c #47A1DE",
",. c #49A2DD",
"<. c #4CA3DE",
"1. c #4EA5DE",
"2. c #57A9DF",
"3. c #5AAADF",
"4. c #61A1C9",
"5. c #67A3CB",
"6. c #6BA6CC",
"7. c #71A9CE",
"8. c #79AED0",
"9. c #7AAFD0",
"0. c #7DB1D1",
"q. c #5DACE0",
"w. c #63AEE0",
"e. c #64AFE0",
"r. c #69B2E1",
"t. c #6EB4E2",
"y. c #70B5E2",
"u. c #72B6E2",
"i. c #78B8E3",
"p. c #8AB8D5",
"a. c #8FBBD7",
"s. c #8CBBDA",
"d. c #90BBD7",
"f. c #92BCD7",
"g. c #95BFD8",
"h. c #96BFD8",
"j. c #80BCE4",
"k. c #80BDE4",
"l. c #84BEE5",
"z. c #99C0D9",
"x. c #9EC3DB",
"c. c #9FC4DB",
"v. c #A7C8DD",
"b. c #B0CEDF",
"n. c #90C4E6",
"m. c #95C6E7",
"M. c #95C7E7",
"N. c #97C7E6",
"B. c #9BCAE7",
"V. c #9ECAE8",
"C. c #A0CCE8",
"Z. c #A2CCE8",
"A. c #A3CEE8",
"S. c #B1CFE0",
"D. c #ABD1E9",
"F. c #B4D0E1",
"G. c #B5D0E1",
"H. c #B5D1E2",
"J. c #B7D2E2",
"K. c #BCD5E3",
"L. c #BDD5E3",
"P. c #B9D5E7",
"I. c #BFD6E4",
"U. c #B3D5EA",
"Y. c #B5D6EA",
"T. c #B7D7EB",
"R. c #B8D7EB",
"E. c #BFDBEB",
"W. c #C1D7E5",
"Q. c #C2D8E5",
"!. c #C3D8E5",
"~. c #C4D9E6",
"^. c #C5DAE6",
"/. c #C8DBE7",
"(. c #C8DCE7",
"). c #CBDEE7",
"_. c #CCDDE7",
"`. c #C0DBEB",
"'. c #C2DCEC",
"]. c #C3DCEC",
"[. c #C4DDEC",
"{. c #C5DDEC",
"}. c #C7DEED",
"|. c #CAE0ED",
" X c #CAE0EE",
".X c #CEE1ED",
"XX c #D3E2EA",
"oX c #D5E5EE",
"OX c #DCE7ED",
"+X c #DDE9EF",
"@X c #E1EAEE",
"#X c #E2EBEE",
"$X c #E4ECEF",
"%X c #E5ECEF",
"&X c #E6ECEF",
"*X c #E2EBF0",
"=X c #E3ECF0",
"-X c #E4EDF0",
";X c #E5EDF1",
":X c #E7EDF0",
">X c #E8EEF0",
",X c #E9EFF0",
"<X c #EAEFF0",
"1X c #EAEFF1",
"2X c #EBF0F1",
"3X c #ECF0F1",
"4X c None",
/* pixels */
"4X4X4X4X4X4X4X4X4X4X4X4X4X4X4X4X4X4X4X4X4X4X4X4X4X4X4X4X4X4X4X4X4X4X4X4X4X4X4X4X4X4X4X4X4X4X4X4X4X4X4X4X4X4X4X4X4X4X4X4X4X4X4X4X4X4X4X4X4X4X4X4X",
"4X4X4X4X4X4X4X4X4X4X4X4X4X4X4X4X4X4X4X4X4X4X4X4X4X4X4X4X4X4X4X4X4X4X4X4X4X4X4X4X4X4X4X4X4X4X4X4X4X4X4X4X4X4X4X4X4X4X4X4X4X4X4X4X4X4X4X4X4X4X4X4X",
"4X4X4X4X4X4X4X4X4X4X4X4X4X4X4X4X4X4X4X4X4X4X4X4X4X4X4X4X4X4X4X4X4X4X4X4X4X4X4X4X4X4X4X4X4X4X4X4X4X4X4X4X4X4X4X4X4X4X4X4X4X4X4X4X4X4X4X4X4X4X4X4X",
"4X4X4X4X4X4X4X4X4X4X4X4X4X4X4X4X4X4X4X4X4X4X4X4X4X4X4X4X4X4X4X4X4X4X4X4X4X4X4X4X4X4X4X4X4X4X4X4X4X4X4X4X4X4X4X4X4X4X4X4X4X4X4X4X4X4X4X4X4X4X4X4X",
"4X4X4X4X4X4X4X4X4X4X4X4X4X4X4X4X4X4X4X4X4X4X4X4X4X4X4X4X4X4X4X4X4X4X4X4X4X4X4X4X4X4X4X4X4X4X4X4X4X4X4X4X4X4X4X4X4X4X4X4X4X4X4X4X4X4X4X4X4X4X4X4X",
"4X4X4X4X4X4X4X4X4X4X4X4X4X4X4X4X4X4X4X4X4X4X4X4X4X4X4X4X4X4X4X4X4X4X4X4X4X4X4X4X4X4X4X4X4X4X4X4X4X4X4X4X4X4X4X4X4X4X4X4X4X4X4X4X4X4X4X4X4X4X4X4X",
"4X4X4X4X4X4X4X4X4X4X4X4X4X4X4X4X4X4X4X4X4X4X4X4X4X4X4X4X4X4X4X` ` ` ] ` ` ` ` ` ` 4X4X4X4X4X4X4X4X4X4X4X4X4X4X4X4X4X4X4X4X4X4X4X4X4X4X4X4X4X4X4X",
"4X4X4X4X4X4X4X4X4X4X4X4X4X4X4X4X4X4X4X4X4X4X4X4X4X4X4X` ` ` ` ` ` ` ` ` ` ` ` ` ` ` ` ` ` 4X4X4X4X4X4X4X4X4X4X4X4X4X4X4X4X4X4X4X4X4X4X4X4X4X4X4X",
"4X4X4X4X4X4X4X4X4X4X4X4X4X4X4X4X4X4X4X4X4X4X4X4XQ ] ` ` ` ` ` ] ` ` ` ` Q ' ` ` ] ` ` ] ' ` ` ` 4X4X4X4X4X4X4X4X4X4X4X4X4X4X4X4X4X4X4X4X4X4X4X4X",
"4X4X4X4X4X4X4X4X4X4X4X4X4X4X4X4X4X4X4X4X4X4X` ` ` ` ] Q ] Q ] ` ` ` ` ] ] ` ` ] Q ' ] ` Q ] ] ` ` ` 4X4X4X4X4X4X4X4X4X4X4X4X4X4X4X4X4X4X4X4X4X4X",
"4X4X4X4X4X4X4X4X4X4X4X4X4X4X4X4X4X4X4X4X' ` ` ` ` ` ` ] ` ] Q ` ] ` ] ` ` ] ] ` ] ` Q ' ] ` Q ] ` ` ` ' 4X4X4X4X4X4X4X4X4X4X4X4X4X4X4X4X4X4X4X4X",
"4X4X4X4X4X4X4X4X4X4X4X4X4X4X4X4X4X4X4X` ` ` ` ` ` ] ] ` ` Q ] ` ` ] ` ] ` ' Q ] Q ] ` ` ` ` ' ` ` ` ` ` ` 4X4X4X4X4X4X4X4X4X4X4X4X4X4X4X4X4X4X4X",
"4X4X4X4X4X4X4X4X4X4X4X4X4X4X4X4X4X4X` ` ] ` ` ' ] ` ] ` ` ] Q ] ] ` Q ' ` ` ` ` ' ` ' ` ` ] ` ] ` ` ] ` ] ` 4X4X4X4X4X4X4X4X4X4X4X4X4X4X4X4X4X4X",
"4X4X4X4X4X4X4X4X4X4X4X4X4X4X4X4X' ] ` ` Q ] ` Q Q ` Q ] ] ` ` ` ` ] ] ` ` ] ' Q ] ` Q ] ] ` ` ' ` ` ` ] ` ] ` ' 4X4X4X4X4X4X4X4X4X4X4X4X4X4X4X4X",
"4X4X4X4X4X4X4X4X4X4X4X4X4X4X4X` ] ` Q ] ' ` ` ] ' Q ` ` Q ` ` ` ] Q ' ] ] ` ` ] ` ' ` ` Q ` ] Q ] ` ] ` ` ` ` ` ` 4X4X4X4X4X4X4X4X4X4X4X4X4X4X4X",
"4X4X4X4X4X4X4X4X4X4X4X4X4X4X` ` ` ` ' ` ] ` ] ` ` ] ` ] ] ` ] ` ` ] ` ` Q ' ] ` ] Q ` ] ' ` ` ] ` ] ` ] ` ` ` ` ` ` 4X4X4X4X4X4X4X4X4X4X4X4X4X4X",
"4X4X4X4X4X4X4X4X4X4X4X4X4X` ] ` ] ` ] Q ` ` ] Q ] ` ] ` ] Q ` ` ` ` ` ` ` ` ` ` ` ] ` ] ` ` ` ` ] ` ` ] Q ` ` ] Q ` ` 4X4X4X4X4X4X4X4X4X4X4X4X4X",
"4X4X4X4X4X4X4X4X4X4X4X4X4X` ` ] ` ] ` ] ` ] ` ' ` ] ` ] ` ` ` ` ` ` ` ` ` ` ` ` ] ` ] ` ` ` ` ` Q ' ] ` ] ` ] ` ] ` ` 4X4X4X4X4X4X4X4X4X4X4X4X4X",
"4X4X4X4X4X4X4X4X4X4X4X4X` ` ` ` ] ` ] ` ` ' ` ] ] ` ` ` ] ` :.i.D.'.oX>XOX|.E.A.i.:.` ] ] ` ` ` ] ` Q ' ` ] ` ] ` ` ` ] 4X4X4X4X4X4X4X4X4X4X4X4X",
"4X4X4X4X4X4X4X4X4X4X4X` ` ` ` ` ` ] Q ` ` Q ] ` ` ` ` ` e.E.2X2X3X3X3X3X3X3X3X3X2X2XT.u.` ] ` ` Q ] ` ` ` Q ] ` ] Q ] ` ` 4X4X4X4X4X4X4X4X4X4X4X",
"4X4X4X4X4X4X4X4X4X4X` ` ` Q ] ` ] ` ` ' ] Q ' ` ` ` w.|.3X3X3X3X3X3X3X3X3X3X3X3X2X2X2X2X Xq.` ` ' ` ' ' ' ' Q ` ] ` ] ` ` ` 4X4X4X4X4X4X4X4X4X4X",
"4X4X4X4X4X4X4X4X4X4X` ` ` ] ` ` Q ] ` Q ` ] ] ` } B.3X3X3X3X3X3X3X3X3X3X3X3X3X3X2X2X2X2X3X3XB.} ] ` ' ' ' n.] ` ` ] ` ] ` ` 4X4X4X4X4X4X4X4X4X4X",
"4X4X4X4X4X4X4X4X4X` ] ` ] ` ] Q ' ` ` ] Q ] ` X.(.3X3X3X3X3X2X3X3X3X3X3X3X3X3X3X3X3X2X2X3X3X3X(.X.' ' ' n.2XQ ] ] ` ` ` ` ` ` 4X4X4X4X4X4X4X4X4X",
"4X4X4X4X4X4X4X4X4X] ` ` Q ] ` ] ] ` ] ` ` ` X.|.3X3X3X3X3X3X2X2X3X3X3X3X3X3X3X3X3X3X3X3X3X3X3X3X|.X.' n.2X2X` ` ` ] ` ` ` ` ` 4X4X4X4X4X4X4X4X4X",
"4X4X4X4X4X4X4X4X` ` ` ` ] ` ] ` ` ' ` ` ` ` |.2X2X2X2X2X2X2X2XOXc.0.%.7 7 @.5.c.&X2X2X2X2X2X3X3X2X|.B.2X2X2X] ` ] Q ` ` ] Q ` ` 4X4X4X4X4X4X4X4X",
"4X4X4X4X4X4X4X4X` ` ` ` ` ` Q ` ] Q ` ] ` M.2X2X2X2X2X2X2X&Xf.7 . . < O O O < . 7 7.&X>X2X2X3X3X2X2X2X2X2X2X` ` ` ` Q ] ` ] ] ` 4X4X4X4X4X4X4X4X",
"4X4X4X4X4X4X4X4X] ` ` ` ] Q ` Q ` ] ] Q e.2X3X3X2X2X2X2XG.w . . . < . < . .         +.Q.2X>X2X3X2X2X2X2X2X2X` ` ] Q ` ` ` ] ` ] 4X4X4X4X4X4X4X4X",
"4X4X4X4X4X4X4X` ` ] ` ] ` ] ` ] ] ` ` ' |.3X3X3X3X2X2XL.< . . . l M D I E I M l < O . < L.>X2X3X2X2X2X2X2X2X` ` ` ] ` ] ] ` ` Q ] 4X4X4X4X4X4X4X",
"4X4X4X4X4X4X4X` ] ` ] Q ` ` ] ` Q ' ` e.2X2X2X3X3X3X(.7 O < l ] ` ] ` ] E ` ` ` ` n . . 4 XX3X3X2X2X2X2X2X2X` ` ] ` ` ' Q ] ` ] ` 4X4X4X4X4X4X4X",
"4X4X4X4X4X4X4X` ` ] ` ] ` ] ` ` ` ` ` T.2X2X2X2X2X>Xw < i I ` ] ] ` ] ` ` ` ` ` ` ` Q 3 O z.3X3X2X2X2X2X2X2X` ` Q ] ` Q ` ` ' Q ` 4X4X4X4X4X4X4X",
"4X4X4X4X4X4X4X` ] ` ] ` ] ` ] Q ] Q X.2X2X2X2X2X2Xz.O < ` ` ` ` ` ] ` ] ` ] ` ` ` ` ` ` p.2X3X3X3X3X3X3X2X2XQ ] ' ` ` ] ' Q ` ` ` 4X4X4X4X4X4X4X",
"4X4X4X4X4X4X` ` ` ] Q ` Q ` ` ] ` ] u.2X2X2X2X2X2X+.< ` ` ` ` ` ` Q ] ` ] ` ] ` ` ` ` n.2X2X3X3X3X3X3X3X2X2X' ` ] ` ] ` ` ] ` ] ` ` 4X4X4X4X4X4X",
"4X4X4X4X4X4X' ` ' Q ] ` ] ` ` ' ` ` B.1X2X2X2X2Xb.. ' Q ` Q ] ` ` ] ` ] Q ] ` ] ] ` n.2X2X2X3X3X3X2X2X2X2X2X` ` ` ` ` ` ] Q ` ` ` E 4X4X4X4X4X4X",
"4X4X4X4X4X4X' ` ` ] ` ` Q ] ` Q ` ` E . O O O . . l Q ] ` ] ` ] ] ` ] ` ` ` ` Q ` ] ] Q l . . O < . O O . . ` ` ` ` Q ] ` ] ` ] E E 4X4X4X4X4X4X",
"4X4X4X4X4X4X' Q ` ] Q ' ' ` ` ] ` ` n < <   . . . I ] ` ] ` ] ` Q ] ` ` ` ` ` ] ` ` ` l < . O . . . O . . . ` Q ] Q ` ` ] ` ] Q ` E 4X4X4X4X4X4X",
"4X4X4X4X4X4X] ` ] ` ] ` ] ` ] ` ` ` l       . . l ` ` ` Q ] ` ] ` ` ] Q ] Q ] ` ` ` n . . O . O O < . O . . ` ] ` ] ` ] Q ] ` ` ` ` 4X4X4X4X4X4X",
"4X4X4X4X4X4X' ` Q ` ] ` ] ` ] ` ` ` ` ] ` ] ` ` ` ` ` ] ] ` ] ` Q ] ` ` ` ` ` ] Q ` ` ] ` ] ` ` ` ` ] ` ] Q ] ` ] ` ] ` ` ` ] Q ` E 4X4X4X4X4X4X",
"4X4X4X4X4X4X` ` ' ` Q ] ` ` Q ' ` ` ] ` ` ` ] Q ` ` ] ` ` ` ` ] ` ` ] Q ] Q ] ` ] ` ] ` ] ` ] ` ` ` ` ` ` ` ` ` ` ` Q ] ` ] ` ` E E 4X4X4X4X4X4X",
"4X4X4X4X4X4XG ` Q ] ' ` ] Q ` Q ` ] ` ] ` ` ` ` ` ` Q ` ` ` ] ` ` ] ` ] Q ] Q ` ` ] ` ] ` ] ` ` ` ` ` ` ] ` ` ` ] Q ` ` ] ` ] ` ` I 4X4X4X4X4X4X",
"4X4X4X4X4X4Xn ` ' ` ] ` ` ] ` ] ] ` 3X3X2X2X2X2X2X2X2X2X>Xn.` ] ] ` ] ` ` ` ] ` ` Q ] ` ` Q ` T.2X2X2X2X2XB.` ` ` ` Q ] ` ` Q ] E F 4X4X4X4X4X4X",
"4X4X4X4X4X4XC ` ` ` ] Q ` ` ] ` ` ] 2X2X2X2X2X2X3X3X3X3Xn.` ` ` Q ] ` ] ' ' ' ] ] Q ` ` ` ` 1.3X3X3X3X3X2Xu.Q ] ] ` ] ` ] ` ` ] ` G 4X4X4X4X4X4X",
"4X4X4X4X4X4XM ` Q ] ` ] ` ] ` ` ] ` 2X2X2X2X3X2X3X3X3Xn.` ` ` ` ` ` ` Q ] ] T ] ` ] ` ] ` ` B.3X3X3X3X3X2XX.` ` Q ] ` ` Q ' ] ` E M 4X4X4X4X4X4X",
"4X4X4X4X4X4Xi ` ] ` ] ` ] ` ] Q ` ] 2X2X3X3X3X3X3X3Xg.. < M E ` ` ' ` ] ] ] ' ' ] ` ] Q ` :.2X3X3X3X3X3XG.l ` ] ' ] ` ' ] ` Q ' E i 4X4X4X4X4X4X",
"4X4X4X4X4X4X. E ` ] ` ] Q ` ` ] ] ` 2X2X3X3X3X3X3X3X(.7 M E ` ` ` Q ] ` T ' ' ' Q ] ` ` X.|.2X3X3X3X3X3X&.n ` Q ` ` ] Q Q ] ` ` E < 4X4X4X4X4X4X",
"4X4X4X4X4X4X4XG ] ` ] ` ] ` ` ` ` I 3X3X3X3X3X3X3X3X3XL.` ` ` ` ] ` ] Q ` ` ' ' ` ` ` ` E.2X3X3X3X3X3XQ.. ' Q ] ] ` Q ] ' ] ` ] F 4X4X4X4X4X4X4X",
"4X4X4X4X4X4X4Xi ` ` ` ] ` ] ` ` ` } 3X3X3X3X3X3X3X3X3X3X'.<.` ` Q ] ` ` ` ] ' ' ` ] :.T.2X2X3X3X3X3X>X$.l ` ` ` ` ` ' ` ` ` ' Q i 4X4X4X4X4X4X4X",
"4X4X4X4X4X4X4X< ` ` ] ` ] ` ` ` ` ` 3X3X2X>X3X3X3X3X3X3X3X-Xj.} ' ` ] ` ] Q ` ] X.M.2X2X2X3X3X3X3X3Xz.. G ' ` ] ] Q ` ] ` ` ` Q   4X4X4X4X4X4X4X",
"4X4X4X4X4X4X4X. n ` Q ] ` ] ` ` ` ` 3X2X2Xf.!.3X3X3X3X3X3X3X3X&XA.t.2.X.:.e.n.A.OX2X2X2X2X2X3X3X3XI.< t ' Q ] ` ` ' ] ` ] ` ' G 7 4X4X4X4X4X4X4X",
"4X4X4X4X4X4X4X4Xi E ` ` ` ` ] ` ] ` 2X2Xp.. 7 Q.2X2X2X2X3X3X3X3X3X3X3X3X3X3X3X2X3X3X3X3X2X2X2X2XQ.7 < T ` ] Q ] ` ] Q ` ` ] Q 3 4X4X4X4X4X4X4X4X",
"4X4X4X4X4X4X4X4X. I ` ` ` ` ` ] ` ` 2Xp.. . O 7 Q.2X2X2X3X3X3X3X3X3X3X3X3X3X3X2X3X3X3X3X2X2X2XI.7 < l Q ] ` ` ` ` Q ] ` ] ` n . 4X4X4X4X4X4X4X4X",
"4X4X4X4X4X4X4X4X. < E ` ] ` ] ` ` ` p.. . l l O 7 z.2X2X3X3X3X3X3X3X3X3X3X3X2X2X3X3X3X3X2X2Xz.. . i ` ` Q ` ` ` ` ] Q ] ` ` 3 3 4X4X4X4X4X4X4X4X",
"4X4X4X4X4X4X4X4X4X. C ` ` ] ` ] ` ` . . n ` Q 3 . O $.(.3X3X3X3X3X3X3X3X3X3X2X2X3X3X2X2XQ.4.< . < I ` ` ] ` ] Q ] ` ` ` ` n . 4X4X4X4X4X4X4X4X4X",
"4X4X4X4X4X4X4X4X4X< < I ] ` ] ` ] ` . n ] ` ` Q < . . < 6.S.&X>X3X>X3X3X2X2X2X2X3X2XI.4.. . O 3 ` ` Q ` ` ] ` ] ` ` ` ` ` . . 4X4X4X4X4X4X4X4X4X",
"4X4X4X4X4X4X4X4X4X4X. i Q ` ` ] ` ` l ` Q ] ` ` E l . .   < w 8.v.b.(.&X&XXXQ.v.7.w O O . . l ` ` ` ] ` ] ` ] ` ` ` ` ` l . 4X4X4X4X4X4X4X4X4X4X",
"4X4X4X4X4X4X4X4X4X4X< . M ` ] Q ] Q ` Q ` ` ] Q ` ` I <   < . .     O O < . O . O . O O 3 G Q ] ` ] ` ] Q ] ` ` ] ` ` l O < 4X4X4X4X4X4X4X4X4X4X",
"4X4X4X4X4X4X4X4X4X4X4X. . n ` ` ` ] ` ] ` ] ` ] ` ` ` ` M i . .     < O . O . O . O l D ] ` ` ` ] ` ] ` ` ` ] Q ` ] n . < 4X4X4X4X4X4X4X4X4X4X4X",
"4X4X4X4X4X4X4X4X4X4X4X4X< . I E ` ` ` ` ] ` ` ` ` ` ` ] ` ] ] n l i i . . i r l n Q ` ] ` ] ` ] ] ` ] ` ` ` ` ` ] T <   4X4X4X4X4X4X4X4X4X4X4X4X",
"4X4X4X4X4X4X4X4X4X4X4X4X4X. < I ` ` ` ` ` ] Q ] ] Q ] ` ] ` ` ` E E ` ` ` ` E E ] ` ` ` ] ` ` Q ` ] ` ] ` ` ` E T . < 4X4X4X4X4X4X4X4X4X4X4X4X4X",
"4X4X4X4X4X4X4X4X4X4X4X4X4X. . . n ` ` ` ] ` ] ` ` ] Q ` Q ` ] Q ` ` ` ` ] ` ` ` Q ` ` ` ` ` ` ] ] ` ] ` ` ` E C . . . 4X4X4X4X4X4X4X4X4X4X4X4X4X",
"4X4X4X4X4X4X4X4X4X4X4X4X4X4X. . . l Q ` ` ] ` ] ` Q ] ` ] ` ` ] ` ` ` ` ` ] ` ` ] ` ] Q ] Q ] ` ` ] ` ] ` ` M . . . 4X4X4X4X4X4X4X4X4X4X4X4X4X4X",
"4X4X4X4X4X4X4X4X4X4X4X4X4X4X4X< . . l Q ] ` ` ` ` ] Q ` ] ` ] ` ] ` ` Q ] ` ] ` Q ` ` ] ` ] ` ` ] ` ] ` I i < . < 4X4X4X4X4X4X4X4X4X4X4X4X4X4X4X",
"4X4X4X4X4X4X4X4X4X4X4X4X4X4X4X4X< < . O n ] ` ` ] ` ] ` ` ` Q ` Q ] ` ] ` ] ` ] ] ` ] ` ] ` ] ` Q ` ] M < . . . 4X4X4X4X4X4X4X4X4X4X4X4X4X4X4X4X",
"4X4X4X4X4X4X4X4X4X4X4X4X4X4X4X4X4X4X. . . 3 n ` ` ` ` ] ] Q ` Q ` ` ] ` ] ` ] ` ` ] ` ] ` ] ` ` ` D . .     4X4X4X4X4X4X4X4X4X4X4X4X4X4X4X4X4X4X",
"4X4X4X4X4X4X4X4X4X4X4X4X4X4X4X4X4X4X4X. . . . l n Q ` Q ` ] ` ] ` ] ` ] ` ] ` ] ` Q ] ` ` Q ` I < . . . < 4X4X4X4X4X4X4X4X4X4X4X4X4X4X4X4X4X4X4X",
"4X4X4X4X4X4X4X4X4X4X4X4X4X4X4X4X4X4X4X4X<   . . . . s C | E | E E E ` ` ` ` E } E E E E C s < . . . < . 4X4X4X4X4X4X4X4X4X4X4X4X4X4X4X4X4X4X4X4X",
"4X4X4X4X4X4X4X4X4X4X4X4X4X4X4X4X4X4X4X4X4X4X. . . . . . . s l C C I I E E E I C C M i < .   . . . . 4X4X4X4X4X4X4X4X4X4X4X4X4X4X4X4X4X4X4X4X4X4X",
"4X4X4X4X4X4X4X4X4X4X4X4X4X4X4X4X4X4X4X4X4X4X4X4X. <   . . . . . . . .   < . . . . . . .       < 4X4X4X4X4X4X4X4X4X4X4X4X4X4X4X4X4X4X4X4X4X4X4X4X",
"4X4X4X4X4X4X4X4X4X4X4X4X4X4X4X4X4X4X4X4X4X4X4X4X4X4X4X  . . . . . . .   . . . . . . . . < 4X4X4X4X4X4X4X4X4X4X4X4X4X4X4X4X4X4X4X4X4X4X4X4X4X4X4X",
"4X4X4X4X4X4X4X4X4X4X4X4X4X4X4X4X4X4X4X4X4X4X4X4X4X4X4X4X4X4X4X< <     <   <   < . 4X4X4X4X4X4X4X4X4X4X4X4X4X4X4X4X4X4X4X4X4X4X4X4X4X4X4X4X4X4X4X",
"4X4X4X4X4X4X4X4X4X4X4X4X4X4X4X4X4X4X4X4X4X4X4X4X4X4X4X4X4X4X4X4X4X4X4X4X4X4X4X4X4X4X4X4X4X4X4X4X4X4X4X4X4X4X4X4X4X4X4X4X4X4X4X4X4X4X4X4X4X4X4X4X",
"4X4X4X4X4X4X4X4X4X4X4X4X4X4X4X4X4X4X4X4X4X4X4X4X4X4X4X4X4X4X4X4X4X4X4X4X4X4X4X4X4X4X4X4X4X4X4X4X4X4X4X4X4X4X4X4X4X4X4X4X4X4X4X4X4X4X4X4X4X4X4X4X",
"4X4X4X4X4X4X4X4X4X4X4X4X4X4X4X4X4X4X4X4X4X4X4X4X4X4X4X4X4X4X4X4X4X4X4X4X4X4X4X4X4X4X4X4X4X4X4X4X4X4X4X4X4X4X4X4X4X4X4X4X4X4X4X4X4X4X4X4X4X4X4X4X"
};
