/* XPM */
static const char *sign_question[] = {
/* columns rows colors chars-per-pixel */
"72 72 164 2 ",
"   c #2980B8",
".  c #2880B9",
"X  c #2980B9",
"o  c #2A80B8",
"O  c #2B81B9",
"+  c #2980BA",
"@  c #2981BA",
"#  c #2A80BA",
"$  c #2A81BB",
"%  c #2A82BA",
"&  c #2A82BB",
"*  c #2A82BC",
"=  c #2A83BD",
"-  c #2B83BE",
";  c #3084BB",
":  c #3185BB",
">  c #3689BF",
",  c #3989BE",
"<  c #3C8BBF",
"1  c #3E8CBF",
"2  c #2B85C0",
"3  c #2B85C1",
"4  c #2C86C1",
"5  c #2F87C1",
"6  c #2C86C2",
"7  c #2C87C3",
"8  c #2C88C3",
"9  c #2C88C4",
"0  c #2D88C4",
"q  c #2D88C5",
"w  c #2D89C5",
"e  c #2D89C6",
"r  c #2E8AC8",
"t  c #2E8BC9",
"y  c #2E8CCA",
"u  c #2E8DCA",
"i  c #2F8DCB",
"p  c #2F8DCC",
"a  c #2F8ECD",
"s  c #308FCE",
"d  c #308FCF",
"f  c #3090CF",
"g  c #3090D0",
"h  c #3191D1",
"j  c #3192D2",
"k  c #3192D3",
"l  c #3193D3",
"z  c #3292D2",
"x  c #3293D4",
"c  c #3294D5",
"v  c #3294D6",
"b  c #3295D6",
"n  c #3294D7",
"m  c #3395D7",
"M  c #3296D8",
"N  c #3396D8",
"B  c #3396D9",
"V  c #3397D9",
"C  c #3497DA",
"Z  c #3498DA",
"A  c #3499DA",
"S  c #3498DB",
"D  c #3598DB",
"F  c #3499DB",
"G  c #3699DB",
"H  c #3398DC",
"J  c #3498DC",
"K  c #389ADB",
"L  c #399ADC",
"P  c #3D9CDC",
"I  c #4590C1",
"U  c #4992C2",
"Y  c #5599C6",
"T  c #589BC6",
"R  c #599CC7",
"E  c #5A9CC7",
"W  c #509BCD",
"Q  c #5E9EC8",
"!  c #409EDC",
"~  c #419EDD",
"^  c #429FDD",
"/  c #439FDD",
"(  c #45A0DD",
")  c #4AA3DE",
"_  c #4DA4DE",
"`  c #54A8DF",
"'  c #5AAADF",
"]  c #60A0C9",
"[  c #64A2CA",
"{  c #69A5CB",
"}  c #6BA6CC",
"|  c #73ABCE",
" . c #75ACCF",
".. c #79AED0",
"X. c #77B4DD",
"o. c #78B4DB",
"O. c #5EACE0",
"+. c #69B1E1",
"@. c #73B6E3",
"#. c #76B7E3",
"$. c #76B8E3",
"%. c #77B8E3",
"&. c #7AB9E3",
"*. c #8BB8D5",
"=. c #83BEE4",
"-. c #86BFE5",
";. c #A0C4DB",
":. c #A6C8DD",
">. c #A9CADE",
",. c #AECCDF",
"<. c #87C0E5",
"1. c #8EC3E6",
"2. c #96C7E7",
"3. c #98C8E7",
"4. c #9AC9E7",
"5. c #9CCAE7",
"6. c #9DCAE8",
"7. c #A2CDE8",
"8. c #A5CEE8",
"9. c #B3CFE1",
"0. c #A9D0E9",
"q. c #ADD2E9",
"w. c #AED2EA",
"e. c #AFD3EA",
"r. c #B8D2E2",
"t. c #BAD3E3",
"y. c #B4D5EA",
"u. c #C1D7E5",
"i. c #C4D9E6",
"p. c #C1DCEC",
"a. c #C4DDEC",
"s. c #C6DDEC",
"d. c #C6DEEC",
"f. c #C6DEED",
"g. c #D1E1E9",
"h. c #D4E2EA",
"j. c #D6E5EE",
"k. c #D6E6EE",
"l. c #DBE7ED",
"z. c #D8E6EF",
"x. c #D9E7EF",
"c. c #DBE8EF",
"v. c #DEE9EF",
"b. c #DFE9EF",
"n. c #E2EAEE",
"m. c #E3EBEE",
"M. c #E4ECEF",
"N. c #E0EAF0",
"B. c #E1EBF0",
"V. c #E2EBF0",
"C. c #E3EBF0",
"Z. c #E3ECF0",
"A. c #E5ECF0",
"S. c #E5EDF0",
"D. c #E6EDF0",
"F. c #E9EEF0",
"G. c #E8EEF1",
"H. c #E9EFF1",
"J. c #EAEFF0",
"K. c #EAEFF1",
"L. c #EBEFF1",
"P. c #EBF0F1",
"I. c #ECF0F1",
"U. c None",
/* pixels */
"U.U.U.U.U.U.U.U.U.U.U.U.U.U.U.U.U.U.U.U.U.U.U.U.U.U.U.U.U.U.U.U.U.U.U.U.U.U.U.U.U.U.U.U.U.U.U.U.U.U.U.U.U.U.U.U.U.U.U.U.U.U.U.U.U.U.U.U.U.U.U.U.",
"U.U.U.U.U.U.U.U.U.U.U.U.U.U.U.U.U.U.U.U.U.U.U.U.U.U.U.U.U.U.U.U.U.U.U.U.U.U.U.U.U.U.U.U.U.U.U.U.U.U.U.U.U.U.U.U.U.U.U.U.U.U.U.U.U.U.U.U.U.U.U.U.",
"U.U.U.U.U.U.U.U.U.U.U.U.U.U.U.U.U.U.U.U.U.U.U.U.U.U.U.U.U.U.U.U.U.U.U.U.U.U.U.U.U.U.U.U.U.U.U.U.U.U.U.U.U.U.U.U.U.U.U.U.U.U.U.U.U.U.U.U.U.U.U.U.",
"U.U.U.U.U.U.U.U.U.U.U.U.U.U.U.U.U.U.U.U.U.U.U.U.U.U.U.U.U.U.U.U.U.U.U.U.U.U.U.U.U.U.U.U.U.U.U.U.U.U.U.U.U.U.U.U.U.U.U.U.U.U.U.U.U.U.U.U.U.U.U.U.",
"U.U.U.U.U.U.U.U.U.U.U.U.U.U.U.U.U.U.U.U.U.U.U.U.U.U.U.U.U.U.U.U.U.U.U.U.U.U.U.U.U.U.U.U.U.U.U.U.U.U.U.U.U.U.U.U.U.U.U.U.U.U.U.U.U.U.U.U.U.U.U.U.",
"U.U.U.U.U.U.U.U.U.U.U.U.U.U.U.U.U.U.U.U.U.U.U.U.U.U.U.U.U.U.U.U.U.U.U.U.U.U.U.U.U.U.U.U.U.U.U.U.U.U.U.U.U.U.U.U.U.U.U.U.U.U.U.U.U.U.U.U.U.U.U.U.",
"U.U.U.U.U.U.U.U.U.U.U.U.U.U.U.U.U.U.U.U.U.U.U.U.U.U.U.U.U.U.U.D D D H D D D D D D U.U.U.U.U.U.U.U.U.U.U.U.U.U.U.U.U.U.U.U.U.U.U.U.U.U.U.U.U.U.U.",
"U.U.U.U.U.U.U.U.U.U.U.U.U.U.U.U.U.U.U.U.U.U.U.U.U.U.U.D D D D D D D D D D D D D D D D D D U.U.U.U.U.U.U.U.U.U.U.U.U.U.U.U.U.U.U.U.U.U.U.U.U.U.U.",
"U.U.U.U.U.U.U.U.U.U.U.U.U.U.U.U.U.U.U.U.U.U.U.U.D D H D D H D M D D D D D D D H D H D H D H D D U.U.U.U.U.U.U.U.U.U.U.U.U.U.U.U.U.U.U.U.U.U.U.U.",
"U.U.U.U.U.U.U.U.U.U.U.U.U.U.U.U.U.U.U.U.U.U.D D D D M H H D D H D D D H A A H D H D A M H D H D D D U.U.U.U.U.U.U.U.U.U.U.U.U.U.U.U.U.U.U.U.U.U.",
"U.U.U.U.U.U.U.U.U.U.U.U.U.U.U.U.U.U.U.U.A D D D H D H D D H H D H D H D H M H D H D A D D D H D D D D A U.U.U.U.U.U.U.U.U.U.U.U.U.U.U.U.U.U.U.U.",
"U.U.U.U.U.U.U.U.U.U.U.U.U.U.U.U.U.U.U.D D D D D D H D D D M D H D H D H D H D H D H D D A A M H D D D D D U.U.U.U.U.U.U.U.U.U.U.U.U.U.U.U.U.U.U.",
"U.U.U.U.U.U.U.U.U.U.U.U.U.U.U.U.U.U.D D D D M H H D D H D H M D H D D H D H H D H D D H D H H D D D H D H D U.U.U.U.U.U.U.U.U.U.U.U.U.U.U.U.U.U.",
"U.U.U.U.U.U.U.U.U.U.U.U.U.U.U.U.A D D D D A A D M D H D H D D D D H D D H D D D D H H D H D D H D D D H D H D A U.U.U.U.U.U.U.U.U.U.U.U.U.U.U.U.",
"U.U.U.U.U.U.U.U.U.U.U.U.U.U.U.D A A H D H D D H D D D H D H D H H D H A D H M D H A D H M D D D H D H D D D D D D U.U.U.U.U.U.U.U.U.U.U.U.U.U.U.",
"U.U.U.U.U.U.U.U.U.U.U.U.U.U.D D M H D H D H H D H D A M H D H D D H M A H D A A M A D D A A D H D H D H D D D D D D U.U.U.U.U.U.U.U.U.U.U.U.U.U.",
"U.U.U.U.U.U.U.U.U.U.U.U.U.A D H D H M A A D H D H D H D H D D H D D D D D D D D H D H D D H D H H D H M H D H D H M A U.U.U.U.U.U.U.U.U.U.U.U.U.",
"U.U.U.U.U.U.U.U.U.U.U.U.U.D H D H D H D D D D H D H D H D H D D H D D D D D D D M H D D H D H D D H A A D H D H A A D U.U.U.U.U.U.U.U.U.U.U.U.U.",
"U.U.U.U.U.U.U.U.U.U.U.U.D D D D D H D H A M H D H D D D H D D ( <.7.a.v.v.a.y.=.P D D D M D D H D H D D D D M H D H D H U.U.U.U.U.U.U.U.U.U.U.U.",
"U.U.U.U.U.U.U.U.U.U.U.D D D D D H D H D A H D H D H D D D P 2.M.P.P.P.P.P.P.I.I.v.2.! H D D D D H D H D D A A D D D H D D U.U.U.U.U.U.U.U.U.U.U.",
"U.U.U.U.U.U.U.U.U.U.A D H D M H H D H D D H D H D D D D &.A.I.I.P.P.P.P.I.I.I.I.P.P.v.' D D D D D H H D H D D H H D H D D A U.U.U.U.U.U.U.U.U.U.",
"U.U.U.U.U.U.U.U.U.U.D D D D D D M H D H D D H D D D D #.J.I.I.I.P.P.P.P.I.I.I.I.P.P.P.P.&.D D D H D D H M H H D D H D H D D U.U.U.U.U.U.U.U.U.U.",
"U.U.U.U.U.U.U.U.U.D D D H D D H A A H D A A D H C D #.J.J.J.I.I.I.I.P.P.P.I.P.P.P.P.P.P.D.O.D D M D D D A D D H H D D D D D D U.U.U.U.U.U.U.U.U.",
"U.U.U.U.U.U.U.U.U.H D A M H H D D D D D D M H D C ) J.I.I.P.I.I.I.I.I.P.P.P.P.P.P.P.P.P.P.k.! D A A D H A D H D D H D D D D D U.U.U.U.U.U.U.U.U.",
"U.U.U.U.U.U.U.U.D D D D H D H D D H D H D D D H D 5.P.P.P.P.I.J.I.t.Q I U E 9.J.P.P.P.P.P.I.0.C H D H D D H D H H D D H D A A D U.U.U.U.U.U.U.U.",
"U.U.U.U.U.U.U.U.D D D D D H M D H D H D A A H D ! B.P.P.P.P.I.D.E % . . . . . Y M.P.P.P.I.I.D._ D H D H H D H D M H H D H M D D U.U.U.U.U.U.U.U.",
"U.U.U.U.U.U.U.U.H D D D D D D H D D D H H M H D 1.P.P.P.P.P.J.} o . . % . . . . ] P.P.P.I.I.I.7.H M D D D H D D A D D H D H D H U.U.U.U.U.U.U.U.",
"U.U.U.U.U.U.U.D D H D H D M H D D A A M D H D H q.P.P.P.P.J.;.. o 4 z z z z 4 . % >.P.P.I.I.I.s.A A D A A M A A A D H D H D H D D U.U.U.U.U.U.U.",
"U.U.U.U.U.U.U.D H D D H D H D H H D D H D H H D d.P.P.P.P.P.} % j H D H D D D z % [ P.P.P.P.P.P.D D H D H D H M D H D D D A A D D U.U.U.U.U.U.U.",
"U.U.U.U.U.U.U.D D H H D D M D D D H D D H D D D v.P.P.P.P.P.1 f D D H D D D D D j 1 P.P.P.P.P.P.D D D H D H D H H D H D H M D D D U.U.U.U.U.U.U.",
"U.U.U.U.U.U.U.D H D H D D D H M H D H A D H M D w % %   % % w D H D D H D D D D D W P.P.P.P.I.B.A M H D H D A A D H A A H D H D D U.U.U.U.U.U.U.",
"U.U.U.U.U.U.D D D H M D D H D H D H M A H D A A = %     % % s C D H H D H D D D D o.P.P.P.P.I.t.A H D H D D D M H D M H D H D H D D U.U.U.U.U.U.",
"U.U.U.U.U.U.M D D D A M D D M H D H D D H D D D =           M D H D D D D H D H ` M.J.I.I.I.J...C C D D H D H M D D H D H D D H C M U.U.U.U.U.U.",
"U.U.U.U.U.U.M D H D A H D A A D H D H D D H D A M H D H D H D D D H M H H D M ( l.I.J.I.I.I.n.> C C D D D D D H H D D H M D H D C C U.U.U.U.U.U.",
"U.U.U.U.U.U.M D D H H D H D D H D H A A H D M A D D H D H D A D H D H D D D +.k.I.I.I.I.I.I...4 D D D D M D D H D H M D H D D H D C U.U.U.U.U.U.",
"U.U.U.U.U.U.D D H D D H D H H D H D M H D H H D H D D H D H A M D H D H D 7.P.P.I.I.I.I.I.9.. s D D D D H D H D H D D D D D D M D D U.U.U.U.U.U.",
"U.U.U.U.U.U.D D D H M A D D D H M D D D D H D H D H M A D H D H D D D P y.P.P.P.I.I.I.I.r.> % M D H D H D H D D H D D D H M A A D D U.U.U.U.U.U.",
"U.U.U.U.U.U.M D H D D A A A H D A A D H H D H D H D D A H D H D D D D e.P.P.I.P.D.D.P.*.% % a D H D H D H D M H D H D A D H D D D z U.U.U.U.U.U.",
"U.U.U.U.U.U.l D H D D D H M H D H D H D D D H D H D D D D H A M H D 1.P.I.I.I.I.J.k.Y % % 4 D D D H D H M D H D H D M A D H D H D z U.U.U.U.U.U.",
"U.U.U.U.U.U.a H D H D H D H D H M H D H A A M H D H D H D D A H D ! P.I.I.I.I.I.>.% % % w z M H H D H D D D D H D H H D H D H D D f U.U.U.U.U.U.",
"U.U.U.U.U.U.a D A A D H D H H D A A M A A D H D D H D H D H H D D 4.P.P.I.I.I.k.% . . s D D H D H D H D D H D H H M D H M D D D D a U.U.U.U.U.U.",
"U.U.U.U.U.U.a D M H D D H D D D D D H D D D D H H D H D A M D H H k.P.P.I.I.I.} . % z C D M D H M H D H H D H D A A H D A A D H C a U.U.U.U.U.U.",
"U.U.U.U.U.U.w D H D H D D H M D D H D H A M H D D D H D A D H D D M.P.P.I.I.J.. s C C C D H D H A A H D M A D H D H D H H D H D C 4 U.U.U.U.U.U.",
"U.U.U.U.U.U.  M D H D D H D A A H D H D A H D H A A M H D D D H D P.P.P.I.P.P.% C C C C H D H D D D D D D A D D D D H D M H D H C % U.U.U.U.U.U.",
"U.U.U.U.U.U.U.f H D H D M H D H H D H D D H D H H D H D D D A M D P.D.P.P.P.J.z C C D D D D D H D H D H H D H A D H D D A D D H s U.U.U.U.U.U.U.",
"U.U.U.U.U.U.U.w D D M A A D H D M H D H D D H D D D D H H D A H D % . . % % % D C C D D H D H D H D H D D H M A H D H D A D H D w U.U.U.U.U.U.U.",
"U.U.U.U.U.U.U.% M D H D A D D H A A H D A A D H A D D H D H H D H % . . o . . C C C D D D H D H D D D H H D D D D H M A D D D H % U.U.U.U.U.U.U.",
"U.U.U.U.U.U.U.% l H D H D D H D D D D D D M H D A M H D H D D H D   . . o o . C C C D D H D H D D A A M D H D A A M H D H D M l % U.U.U.U.U.U.U.",
"U.U.U.U.U.U.U.U.4 D D D D H D H D D H D H M D D H D H D D D H D D ! &.d.d.&.A D D H D A H D A A H D H D A D D D H D D H D H D = U.U.U.U.U.U.U.U.",
"U.U.U.U.U.U.U.U.% a D D H D H D D M D H D D D A D H D H D A D H D &.I.P.P.P.&.D H D D A D D D M D H D H A M D H D H H D H D a % U.U.U.U.U.U.U.U.",
"U.U.U.U.U.U.U.U.% % D D D H D H D H D D D H D A D D H M M A D H D d.P.P.P.P.d.D D H H M H D D H D D H M D H D H H M A D D D = = U.U.U.U.U.U.U.U.",
"U.U.U.U.U.U.U.U.U.% a D H D H D H D H D H D H M H D A A H D H D D d.P.P.P.P.d.D H D D H D H H D H D A A H D H D D H A D D a % U.U.U.U.U.U.U.U.U.",
"U.U.U.U.U.U.U.U.U.% % C D D D D H D H M H D D D D H H D H D D H D o.P.P.P.P.o.D D A A D H M D H D H D D H D D H D D D C M % % U.U.U.U.U.U.U.U.U.",
"U.U.U.U.U.U.U.U.U.U.. 4 H M D H D D D H D H D M H D D D D H H D D w | i.i.| w D H M D D D H D D H D D A D H D D H D D C w   U.U.U.U.U.U.U.U.U.U.",
"U.U.U.U.U.U.U.U.U.U.% % a D H D M D D H H M D H D H M D H M A D D w         = M H D H D H D M H D H D A H D H A D H D a % % U.U.U.U.U.U.U.U.U.U.",
"U.U.U.U.U.U.U.U.U.U.U.    a M H H D H D D D H D H D A A D H A D D a         l H D H D H D D D D H D H M D H M A H D a % % U.U.U.U.U.U.U.U.U.U.U.",
"U.U.U.U.U.U.U.U.U.U.U.U.% . z D D D H D H D D H D H D H H D H D D M a = w a M D D H D H M D D H D H D H D D C C D j % . U.U.U.U.U.U.U.U.U.U.U.U.",
"U.U.U.U.U.U.U.U.U.U.U.U.U.% % z D C D H D H D D H D H D D H D D D D D D D H D D D D H D D D H D H D H D D D C C j % % U.U.U.U.U.U.U.U.U.U.U.U.U.",
"U.U.U.U.U.U.U.U.U.U.U.U.U.. % % a C D D H D H M D H D D H D A D D D H M D H D H H M H D H D H D D H D D D D C s % . . U.U.U.U.U.U.U.U.U.U.U.U.U.",
"U.U.U.U.U.U.U.U.U.U.U.U.U.U.. . . a D C D H D H A M A A M H A M D H D H H D H D D H D D D H M D H D D D D D s . % . U.U.U.U.U.U.U.U.U.U.U.U.U.U.",
"U.U.U.U.U.U.U.U.U.U.U.U.U.U.U.% % % 4 C D A D H A D H D D H D H H D D D M D H D D H D D H D H D D H D H C 4 . . % U.U.U.U.U.U.U.U.U.U.U.U.U.U.U.",
"U.U.U.U.U.U.U.U.U.U.U.U.U.U.U.U.% % . % a M H D D D D H H D H D D H D A D D D H H D H M D H D D H D M a % . . . U.U.U.U.U.U.U.U.U.U.U.U.U.U.U.U.",
"U.U.U.U.U.U.U.U.U.U.U.U.U.U.U.U.U.U.  % % = a D D A H D D H A M H D M A D H H M D D H D H D C D D a % % . . U.U.U.U.U.U.U.U.U.U.U.U.U.U.U.U.U.U.",
"U.U.U.U.U.U.U.U.U.U.U.U.U.U.U.U.U.U.U.  % %   = M M D H D D A H D H H D H D D D M H D H D H C j 4 . . % % U.U.U.U.U.U.U.U.U.U.U.U.U.U.U.U.U.U.U.",
"U.U.U.U.U.U.U.U.U.U.U.U.U.U.U.U.U.U.U.U.% . . . . % q s C C C C L C C D D D C C C C C z s q % . . . > o U.U.U.U.U.U.U.U.U.U.U.U.U.U.U.U.U.U.U.U.",
"U.U.U.U.U.U.U.U.U.U.U.U.U.U.U.U.U.U.U.U.U.U.. . . . ; . . 4 q s s z z C C C z s s s 4 . . . . . . . U.U.U.U.U.U.U.U.U.U.U.U.U.U.U.U.U.U.U.U.U.U.",
"U.U.U.U.U.U.U.U.U.U.U.U.U.U.U.U.U.U.U.U.U.U.U.U.. % . . . . . . . . . . . . . . . . . . . . o > U.U.U.U.U.U.U.U.U.U.U.U.U.U.U.U.U.U.U.U.U.U.U.U.",
"U.U.U.U.U.U.U.U.U.U.U.U.U.U.U.U.U.U.U.U.U.U.U.U.U.U.U.. ; . . . . . . . . . . . . . . . . U.U.U.U.U.U.U.U.U.U.U.U.U.U.U.U.U.U.U.U.U.U.U.U.U.U.U.",
"U.U.U.U.U.U.U.U.U.U.U.U.U.U.U.U.U.U.U.U.U.U.U.U.U.U.U.U.U.U.U.% % . . % . % . % . U.U.U.U.U.U.U.U.U.U.U.U.U.U.U.U.U.U.U.U.U.U.U.U.U.U.U.U.U.U.U.",
"U.U.U.U.U.U.U.U.U.U.U.U.U.U.U.U.U.U.U.U.U.U.U.U.U.U.U.U.U.U.U.U.U.U.U.U.U.U.U.U.U.U.U.U.U.U.U.U.U.U.U.U.U.U.U.U.U.U.U.U.U.U.U.U.U.U.U.U.U.U.U.U.",
"U.U.U.U.U.U.U.U.U.U.U.U.U.U.U.U.U.U.U.U.U.U.U.U.U.U.U.U.U.U.U.U.U.U.U.U.U.U.U.U.U.U.U.U.U.U.U.U.U.U.U.U.U.U.U.U.U.U.U.U.U.U.U.U.U.U.U.U.U.U.U.U.",
"U.U.U.U.U.U.U.U.U.U.U.U.U.U.U.U.U.U.U.U.U.U.U.U.U.U.U.U.U.U.U.U.U.U.U.U.U.U.U.U.U.U.U.U.U.U.U.U.U.U.U.U.U.U.U.U.U.U.U.U.U.U.U.U.U.U.U.U.U.U.U.U."
};
