/* XPM */
static char *social_google_plus[] = {
/* columns rows colors chars-per-pixel */
"72 72 255 2 ",
"   c #C0392B",
".  c #C1392B",
"X  c #C03A2C",
"o  c #C13A2D",
"O  c #C23A2C",
"+  c #C33A2C",
"@  c #C33B2C",
"#  c #C43B2D",
"$  c #C53B2D",
"%  c #C63C2D",
"&  c #C63C2E",
"*  c #C73C2E",
"=  c #C73D2E",
"-  c #C83D2F",
";  c #C93D2F",
":  c #C93E2F",
">  c #CA3E2F",
",  c #C13E30",
"<  c #C13F31",
"1  c #C23F31",
"2  c #CA3E30",
"3  c #CB3E30",
"4  c #CB3F30",
"5  c #CC3F30",
"6  c #CD3F30",
"7  c #CD3F31",
"8  c #C24033",
"9  c #C24134",
"0  c #C24235",
"q  c #CE4031",
"w  c #CF4031",
"e  c #CF4032",
"r  c #CF4132",
"t  c #C44B3E",
"y  c #C44C3F",
"u  c #C9493C",
"i  c #CD4D3F",
"p  c #D04132",
"a  c #D14132",
"s  c #D14133",
"d  c #D24233",
"f  c #D44334",
"g  c #D54334",
"h  c #D64434",
"j  c #D64435",
"k  c #D74435",
"l  c #D84435",
"z  c #D94536",
"x  c #DA4536",
"c  c #DA4636",
"v  c #DB4637",
"b  c #DC4637",
"n  c #DC4737",
"m  c #DD4737",
"M  c #DD4738",
"N  c #DE4838",
"B  c #DF4838",
"V  c #DF4839",
"C  c #E04839",
"Z  c #E04939",
"A  c #E14939",
"S  c #E24A3A",
"D  c #E34A3A",
"F  c #E44A3B",
"G  c #E44B3B",
"H  c #E54B3B",
"J  c #E64B3B",
"K  c #E64B3C",
"L  c #E34D3D",
"P  c #E64C3C",
"I  c #E74C3C",
"U  c #E74D3C",
"Y  c #E74D3D",
"T  c #E74F3F",
"R  c #C64F43",
"E  c #CD4F41",
"W  c #C7564A",
"Q  c #C7584C",
"!  c #DE5648",
"~  c #E75040",
"^  c #E75141",
"/  c #E75142",
"(  c #E75243",
")  c #E75647",
"_  c #E75748",
"`  c #E65849",
"'  c #E75849",
"]  c #E85E50",
"[  c #E85F51",
"{  c #CC6055",
"}  c #CB675D",
"|  c #CB685E",
" . c #E86052",
".. c #E86153",
"X. c #E86355",
"o. c #E86658",
"O. c #E8675A",
"+. c #E8685B",
"@. c #E86A5D",
"#. c #E86B5E",
"$. c #E86C5F",
"%. c #CC6B61",
"&. c #CE6B61",
"*. c #CE7269",
"=. c #CF786F",
"-. c #D6766C",
";. c #D97469",
":. c #CF7970",
">. c #D37D74",
",. c #D17F77",
"<. c #D87970",
"1. c #E86F63",
"2. c #E87164",
"3. c #E87266",
"4. c #E87367",
"5. c #E87569",
"6. c #E8766B",
"7. c #E8786C",
"8. c #E87A6E",
"9. c #E87A6F",
"0. c #E67C71",
"q. c #E97E73",
"w. c #E97F75",
"e. c #D18179",
"r. c #D2827A",
"t. c #E98075",
"y. c #E98177",
"u. c #E9857A",
"i. c #E9877D",
"p. c #DB8E87",
"a. c #D58F88",
"s. c #D59089",
"d. c #D6938C",
"f. c #DF9088",
"g. c #D79B95",
"h. c #D89E98",
"j. c #D99F99",
"k. c #E98A81",
"l. c #E98E84",
"z. c #E99087",
"x. c #E1928B",
"c. c #E99188",
"v. c #E99289",
"b. c #E9938B",
"n. c #E89890",
"m. c #E99990",
"M. c #E99A93",
"N. c #E99B93",
"B. c #E99C94",
"V. c #E99C95",
"C. c #D9A09B",
"Z. c #DBA19C",
"A. c #D9A29D",
"S. c #DEA59F",
"D. c #E0A19B",
"F. c #E5A19A",
"G. c #EAA29A",
"H. c #EAA59E",
"J. c #DAA5A0",
"K. c #DAA6A1",
"L. c #DBA9A4",
"P. c #DBAAA5",
"I. c #DBABA6",
"U. c #DEABA6",
"Y. c #DCADA8",
"T. c #DDB2AE",
"R. c #DEB5B1",
"E. c #DFBAB7",
"W. c #EAA7A0",
"Q. c #EAA7A1",
"!. c #EAABA4",
"~. c #EAADA7",
"^. c #E6AFAA",
"/. c #EAB0AA",
"(. c #EAB2AC",
"). c #EAB3AE",
"_. c #E6B6B2",
"`. c #EAB7B3",
"'. c #EAB9B4",
"]. c #EAB9B5",
"[. c #EABAB5",
"{. c #EABBB6",
"}. c #E4BBB8",
"|. c #E0BFBC",
" X c #EABCB8",
".X c #EABDB8",
"XX c #EABDB9",
"oX c #EABEBA",
"OX c #E0C0BD",
"+X c #EBC3BF",
"@X c #E4C4C1",
"#X c #E5C4C1",
"$X c #E3C7C4",
"%X c #EBC4C1",
"&X c #EBC5C1",
"*X c #E8C6C3",
"=X c #EBC6C2",
"-X c #EBC7C4",
";X c #E3C8C5",
":X c #EBC8C5",
">X c #EBC9C6",
",X c #E3CAC8",
"<X c #E4CDCB",
"1X c #E5CECC",
"2X c #EACBC8",
"3X c #EBCBC9",
"4X c #EBCCC9",
"5X c #E4D0CF",
"6X c #E8D0CE",
"7X c #EBD0CE",
"8X c #EBD4D2",
"9X c #EBD5D3",
"0X c #EBD7D5",
"qX c #E7D8D7",
"wX c #EBD8D6",
"eX c #EBD8D7",
"rX c #EBD9D7",
"tX c #E7DAD9",
"yX c #E7DADA",
"uX c #E7DBDA",
"iX c #E7DCDB",
"pX c #E8D9D8",
"aX c #E8DAD9",
"sX c #EBDBDA",
"dX c #EBDCDB",
"fX c #EBDDDC",
"gX c #E8DFDE",
"hX c #EBDFDF",
"jX c #E9E0E0",
"kX c #E9E2E1",
"lX c #EBE2E1",
"zX c #EAE3E3",
"xX c #ECE1E0",
"cX c #ECE2E1",
"vX c #ECE2E2",
"bX c #ECE3E3",
"nX c #EBE4E4",
"mX c #EAE7E7",
"MX c #ECE6E6",
"NX c #EAE9E9",
"BX c #ECE8E8",
"VX c #ECE9E9",
"CX c #ECEAEA",
"ZX c #ECEBEB",
"AX c #EBECED",
"SX c #EBEDEE",
"DX c #EBEEEF",
"FX c #ECECED",
"GX c #ECEDED",
"HX c #ECEDEE",
"JX c #ECEEEF",
"KX c #ECEFEF",
"LX c #ECEFF0",
"PX c #ECF0F1",
"IX c None",
/* pixels */
"IXIXIXIXIXIXIXIXIXIXIXIXIXIXIXIXIXIXIXIXIXIXIXIXIXIXIXIXIXIXIXIXIXIXIXIXIXIXIXIXIXIXIXIXIXIXIXIXIXIXIXIXIXIXIXIXIXIXIXIXIXIXIXIXIXIXIXIXIXIXIXIX",
"IXIXIXIXIXIXIXIXIXIXIXIXIXIXIXIXIXIXIXIXIXIXIXIXIXIXIXIXIXIXIXIXIXIXIXIXIXIXIXIXIXIXIXIXIXIXIXIXIXIXIXIXIXIXIXIXIXIXIXIXIXIXIXIXIXIXIXIXIXIXIXIX",
"IXIXIXIXIXIXIXIXIXIXIXIXIXIXIXIXIXIXIXIXIXIXIXIXIXIXIXIXIXIXIXIXIXIXIXIXIXIXIXIXIXIXIXIXIXIXIXIXIXIXIXIXIXIXIXIXIXIXIXIXIXIXIXIXIXIXIXIXIXIXIXIX",
"IXIXIXIXIXIXIXIXIXIXIXIXIXIXIXIXIXIXIXIXIXIXIXIXIXIXIXIXIXIXIXIXIXIXIXIXIXIXIXIXIXIXIXIXIXIXIXIXIXIXIXIXIXIXIXIXIXIXIXIXIXIXIXIXIXIXIXIXIXIXIXIX",
"IXIXIXIXIXIXIXIXIXIXIXIXIXIXIXIXIXIXIXIXIXIXIXIXIXIXIXIXIXIXIXIXIXIXIXIXIXIXIXIXIXIXIXIXIXIXIXIXIXIXIXIXIXIXIXIXIXIXIXIXIXIXIXIXIXIXIXIXIXIXIXIX",
"IXIXIXIXIXIXIXIXIXIXIXIXIXIXIXIXIXIXIXIXIXIXIXIXIXIXIXIXIXIXIXIXIXIXIXIXIXIXIXIXIXIXIXIXIXIXIXIXIXIXIXIXIXIXIXIXIXIXIXIXIXIXIXIXIXIXIXIXIXIXIXIX",
"IXIXIXIXIXIXIXIXIXIXI I I I I I I I I I I I I I I I I I I I I I I I I I I I I I I I I I I I I I I I I I I I I I I I I I I I IXIXIXIXIXIXIXIXIXIX",
"IXIXIXIXIXIXIXIXI I I I I I I I I I I I I I I I I I I I I I I I I I I I I I I I I I I I I I I I I I I I I I I I I I I I I I I I IXIXIXIXIXIXIXIX",
"IXIXIXIXIXIXIXI I I I I I I I I I I I I I I I I I I I I I I J Y I I I I I I I I I I I I I I I I I I I I I I I I I I I I I I I I I IXIXIXIXIXIXIX",
"IXIXIXIXIXIXIXI I I I I I I I I I I I I I I I I I I I I I I I J I I I I I I I I I I I I I I I I I I I I I I I I I I I I I I I I I IXIXIXIXIXIXIX",
"IXIXIXIXIXIXI I I I I I I I I I I I I I I I I I I I I I I I J Y I I I I I I I I I I I I I I I I I I I I I I I I I I I I I I I I I I IXIXIXIXIXIX",
"IXIXIXIXIXIXI I I I I I I I I I I I I I I I I I I I I I I I Y J I I I I I I I I I I I I I I I I I I I I I I I I I I I I I I I I I I IXIXIXIXIXIX",
"IXIXIXIXIXIXI I I I I I I I I I I I I I I I I I I I I I J Y J Y I I I I I I I I I I I I I I I I I I I I I I I I I I I I I I I I I I IXIXIXIXIXIX",
"IXIXIXIXIXIXI I I I I I I I I I I I I I I I I I I I I I Y J Y J I I I I I I I I I I I I I I I I I I I I I I I I I I I I I I I I I I IXIXIXIXIXIX",
"IXIXIXIXIXIXI I I I I I I I I I I I I I I I I I I I I I J Y Y Y I I I I I I I I I I I I I I I I I I I I I I I I I I I I I I I I I I IXIXIXIXIXIX",
"IXIXIXIXIXIXI I I I I I I I I I I I I I I I I I I I I I Y J Y Y I I I I I I I I I I I I I I I I I I I I I I I I I I I I I I I I I I IXIXIXIXIXIX",
"IXIXIXIXIXIXI I I I I I I I I I I I I I I I I I Y J Y J Y J Y Y Y Y Y Y Y Y Y Y I I I I I I I I I I I I I I I I I I I I I I I I I I IXIXIXIXIXIX",
"IXIXIXIXIXIXI I I I I I I I I I I I I I I I I I Y Y J Y J Y Y Y Y Y Y Y Y Y Y Y I I I I I I I I I I I I I I I I I I I I I I I I I I IXIXIXIXIXIX",
"IXIXIXIXIXIXI I I I I I I I I I I I I I I I I I Y Y Y 5.H.`.3XfXNXPXPXPXNXLXNXPXPX8X7.I I I I I I I I I I I I I I I I I I I I I I I IXIXIXIXIXIX",
"IXIXIXIXIXIXI I I I I I I I I I I I I I I I I I Y l.9XPXfX+X9XPXPXPXPXLXNXfXfXfXb.I I I I I I I I I I I I I I I I I I I I I I I I I IXIXIXIXIXIX",
"IXIXIXIXIXIXI I I I I I I I I I I I I I I I I ^ `.PXfX@.Y Y Y 4.9XLXLXLXNXi.Y I I Y Y Y I I I I I I I I I I I I I I I I I I I I I I IXIXIXIXIXIX",
"IXIXIXIXIXIXI I I I I I I I I I I I I I I I ^ >XLXlX^ n k 7 > O E lXPXLXPXPX*.O > > n Y I I I I I I I I I I I I I I I I I I I I I I IXIXIXIXIXIX",
"IXIXIXIXIXIXI I I I I I I I I I I I I I I I `.PXLXx.O O O > O O   %.LXLXPXPXfXu n J Y J I I I I I I I I I I I I I I I I I I I I I I IXIXIXIXIXIX",
"IXIXIXIXIXIXI I I I I I I I I I I I I I I 5.PXPXLXt > M I I I n O X Y.LXLXLXLXl.J Y J Y I I I I I I I I I I I I I I I I I I I I I I IXIXIXIXIXIX",
"IXIXIXIXIXIXI I I I I I I I I I I I I I I 9XPXPXNXO I I I I I I S + %.LXLXLXLX*XI I I I I I I I I I I I I I I I I I I I I I I I I I IXIXIXIXIXIX",
"IXIXIXIXIXIXI I I I I I I I I I I I I I ' PXPXPXtXk I I I I I I I M + fXLXLXLXlXI I I I I I I I I I I I I I I I I I I I I I I I I I IXIXIXIXIXIX",
"IXIXIXIXIXIXI I I I I I I I I I I I I I 5.PXPXPXDXI I I I I I I I I 7 P.PXPXPXLXI I I I I I I I I I I I I I I I I I I I I I I I I I IXIXIXIXIXIX",
"IXIXIXIXIXIXI I I I I I I I I I I I I I z.PXPXPXPXo.I I I I I I I I M d.PXPXPXlXI I I I I I I I PXPXPXI I I I I I I I I I I I I I I IXIXIXIXIXIX",
"IXIXIXIXIXIXI I I I I I I I I I I I I I 0.PXPXPXPXN.I I I I I I I I ~ <.PXPXPX,XI I I I I I I I PXPXPXI I I I I I I I I I I I I I I IXIXIXIXIXIX",
"IXIXIXIXIXIXI I I I I I I I I I I I I I ! PXPXPXPX8XI I I I I I I I I <.PXPXLXY.I I I I I I I I PXPXPXI I I I I I I I I I I I I I I IXIXIXIXIXIX",
"IXIXIXIXIXIXI I I I I I I I I I I I I I k tXPXPXPXPX0.I I I I I I I I p.LXLXLX{ I I I I I I I I PXPXPXI I I I I I I I I I I I I I I IXIXIXIXIXIX",
"IXIXIXIXIXIXI I I I I I I I I I I I I I n =.PXPXPXPXfX^ I I I I I I ~ _.PXLXJ.2 I I I I I I I I PXPXPXI I I I I I I I I I I I I I I IXIXIXIXIXIX",
"IXIXIXIXIXIXI I I I I I I I I I I I I I I O Y.PXPXPXLX{.^ I I I I I o.NXLXOX0 7 Y Y J Y Y Y Y Y LXPXPXY I I I I I I I I I I I I I I IXIXIXIXIXIX",
"IXIXIXIXIXIXI I I I I I I I I I I I I I I O 0 E.PXPXLXPX3X@.I I I #.fXLXE.< O M Y Y NXLXLXLXPXPXLXPXPXLXPXPXPXPXPXI I I I I I I I I IXIXIXIXIXIX",
"IXIXIXIXIXIXI I I I I I I I I I I I I I I n O X :.fXPXPXLXPXlX*XfXLXLX@X< X e I Y Y LXLXLXPXPXPXPXPXPXPXPXPXLXLXPXI I I I I I I I I IXIXIXIXIXIX",
"IXIXIXIXIXIXI I I I I I I I I I I I I I I I 7 O X 0 %.p.).XX3XPXLXLXPXQ   7 I I Y Y LXNXPXPXPXPXPXPXPXPXPXPXPXLXPXI I I I I I I I I IXIXIXIXIXIX",
"IXIXIXIXIXIXI I I I I I I I I I I I I I I I I O X O X X O I ~.PXPXPXtXX 7 I I I J Y + . . . . . PXPXLXO X       X I I I I I I I I I IXIXIXIXIXIX",
"IXIXIXIXIXIXI I I I I I I I I I I I I I I I I I k O X X + O @XPXPXPXPXE I I I I Y J + . . . . . PXPXLXO         X I I I I I I I I I IXIXIXIXIXIX",
"IXIXIXIXIXIXI I I I I I I I I I I I I I I I I I I I n k 7 7 Y.LXPXPXPX3X^ I I I J Y + + . . $ + PXPXPXO         X I I I I I I I I I IXIXIXIXIXIX",
"IXIXIXIXIXIXI I I I I I I I I I I I I I I I I I I I I I I I ;.LXPXPXPXPX,X] I I Y J S Y J S I I PXPXPXY I I I I I I I I I I I I I I IXIXIXIXIXIX",
"IXIXIXIXIXIXI I I I I I I I I I I I I I I I I I Y Y Y Y Y Y O }.PXPXPXPXPXlX1.Y Y Y Y Y I I I I PXPXLXI I I I I I I I I I I I I I I IXIXIXIXIXIX",
"IXIXIXIXIXIXI I I I I I I I I I I I I I I I I I Y Y @.c.~.`.@XqXPXPXPXPXPXPXNX5.Y Y Y Y I I I I PXLXLXI I I I I I I I I I I I I I I IXIXIXIXIXIX",
"IXIXIXIXIXIXI I I I I I I I I I I I I I I I I 3.XXNXPXNXfX{.^.S.h.8XPXPXPXPXPXNXX.J Y J I I I I X X   I I I I I I I I I I I I I I I IXIXIXIXIXIX",
"IXIXIXIXIXIXI I I I I I I I I I I I I I I 3.*XLXPXlXB.o.Y Y Y 7 X < K.PXPXPXPXPX*XY J Y I I I I   X   I I I I I I I I I I I I I I I IXIXIXIXIXIX",
"IXIXIXIXIXIXI I I I I I I I I I I I I I l.PXPXPXB.Y S k 7 7 > O       *.NXPXPXPXPX5.Y J Y J Y J       I I I I I I I I I I I I I I I IXIXIXIXIXIX",
"IXIXIXIXIXIXI I I I I I I I I I I I I w.NXLXPXF.> O + + O > k 7 e O     %.NXPXPXPXQ.Y Y J Y J Y I I I I I I I I I I I I I I I I I I IXIXIXIXIXIX",
"IXIXIXIXIXIXI I I I I I I I I I I I ] NXPXPXfX  + O n C Y Y I I I I e X X e.LXPXPXXXY Y Y J Y J I I I I I I I I I I I I I I I I I I IXIXIXIXIXIX",
"IXIXIXIXIXIXI I I I I I I I I I I I v.PXPXPXK.  7 I I Y Y Y I I I I I n O X ,XPXPX*XY Y J Y J Y I I I I I I I I I I I I I I I I I I IXIXIXIXIXIX",
"IXIXIXIXIXIXI I I I I I I I I I Y J {.LXLXLX,.k I I I I I I I I I I I I M + j.PXLXj.I I I I I I I I I I I I I I I I I I I I I I I I IXIXIXIXIXIX",
"IXIXIXIXIXIXI I I I I I I I I I J Y lXLXPXPXj.I I I I I I I I I I I I I I n h.PXPX-.I I I I I I I I I I I I I I I I I I I I I I I I IXIXIXIXIXIX",
"IXIXIXIXIXIXI I I I I I I I I I Y Y 9XPXPXPXfXI I I I I I I I I I I I I I I ,XLXLXE I I I I I I I I I I I I I I I I I I I I I I I I IXIXIXIXIXIX",
"IXIXIXIXIXIXI I I I I I I I I I Y Y S.PXPXPXLX8.I I I I I I I I I I I I I ~ NXLXa.k I I I I I I I I I I I I I I I I I I I I I I I I IXIXIXIXIXIX",
"IXIXIXIXIXIXI I I I I I I I I I Y Y } NXPXPXPXNXw.I I I I I I I I I I I ~ {.LXR.+ M I I I I I I I I I I I I I I I I I I I I I I I I IXIXIXIXIXIX",
"IXIXIXIXIXIXI I I I I I I I I I Y Y > a.PXPXPXPXNXH...I I I I I I I I ] }.LX,X0   S I I I I I I I I I I I I I I I I I I I I I I I I IXIXIXIXIXIX",
"IXIXIXIXIXIXI I I I I I I I I I Y Y 7 X j.PXLXLXPXPXLX3XB.i.5.1.w.v.*XLXzXn.2   k I I I I I I I I I I I I I I I I I I I I I I I I I IXIXIXIXIXIX",
"IXIXIXIXIXIXI I I I I I I I I I Y Y n X O Q R.LXPXPXPXPXLXLXLXLXLXLXNXQ.` 2   7 I I I I I I I I I I I I I I I I I I I I I I I I I I IXIXIXIXIXIX",
"IXIXIXIXIXIXI I I I I I I I I I I I I k       t e.}.9XjXNXfX*X~.n.i.] S > + O I I I I I I I I I I I I I I I I I I I I I I I I I I I IXIXIXIXIXIX",
"IXIXIXIXIXIXI I I I I I I I I I I I I I 7       X   O > n n C C n k 7 + + k S Y I I I I I I I I I I I I I I I I I I I I I I I I I I IXIXIXIXIXIX",
"IXIXIXIXIXIXI I I I I I I I I I I I I I I n 7       +       $ + + + + 7 J J Y Y I I I I I I I I I I I I I I I I I I I I I I I I I I IXIXIXIXIXIX",
"IXIXIXIXIXIXI I I I I I I I I I I I I I I I Y I k 7 + + + + 6 6 7 n S S Y Y J Y I I I I I I I I I I I I I I I I I I I I I I I I I I IXIXIXIXIXIX",
"IXIXIXIXIXIXI I I I I I I I I I I I I I I I I I I I I I I I I I I I I I J Y J Y I I I I I I I I I I I I I I I I I I I I I I I I I I IXIXIXIXIXIX",
"IXIXIXIXIXIXn I I I I I I I I I I I I I I I I I I I I I I I I I I I I J Y J Y J I I I I I I I I I I I I I I I I I I I I I I I I I n IXIXIXIXIXIX",
"IXIXIXIXIXIXe I I I I I I I I I I I I I I I I I I I I I I I I I I I J Y J Y J Y I I I I I I I I I I I I I I I I I I I I I I I I I e IXIXIXIXIXIX",
"IXIXIXIXIXIXO M I I I I I I I I I I I I I I I I I I I I I I I I I I Y J Y J Y J I I I I I I I I I I I I I I I I I I I I I I I I n O IXIXIXIXIXIX",
"IXIXIXIXIXIXO O n I I I I I I I I I I I I I I I I I I I I I I I I I I I I I I I I I I I I I I I I I I I I I I I I I I I I I I n O O IXIXIXIXIXIX",
"IXIXIXIXIXIXIXO O 7 n I I I I I I I I I I I I I I I I I I I I I I I I I I I I I I I I I I I I I I I I I I I I I I I I I I n >   O IXIXIXIXIXIXIX",
"IXIXIXIXIXIXIXO       X                                               X                                               X         X IXIXIXIXIXIXIX",
"IXIXIXIXIXIXIXIX      X                       X                       X                       X                       X         IXIXIXIXIXIXIXIX",
"IXIXIXIXIXIXIXIXIXIXO O X O X O     O X X   O X X O X O   O X X O X X O X O X O     O X X   O X X O X O   O X X O X X O X O IXIXIXIXIXIXIXIXIXIX",
"IXIXIXIXIXIXIXIXIXIXIXIXIXIXIXIXIXIXIXIXIXIXIXIXIXIXIXIXIXIXIXIXIXIXIXIXIXIXIXIXIXIXIXIXIXIXIXIXIXIXIXIXIXIXIXIXIXIXIXIXIXIXIXIXIXIXIXIXIXIXIXIX",
"IXIXIXIXIXIXIXIXIXIXIXIXIXIXIXIXIXIXIXIXIXIXIXIXIXIXIXIXIXIXIXIXIXIXIXIXIXIXIXIXIXIXIXIXIXIXIXIXIXIXIXIXIXIXIXIXIXIXIXIXIXIXIXIXIXIXIXIXIXIXIXIX",
"IXIXIXIXIXIXIXIXIXIXIXIXIXIXIXIXIXIXIXIXIXIXIXIXIXIXIXIXIXIXIXIXIXIXIXIXIXIXIXIXIXIXIXIXIXIXIXIXIXIXIXIXIXIXIXIXIXIXIXIXIXIXIXIXIXIXIXIXIXIXIXIX"
};
