/* XPM */
static const char *stamp[] = {
/* columns rows colors chars-per-pixel */
"72 72 102 2 ",
"   c #2980B9",
".  c #2980BA",
"X  c #2981BA",
"o  c #2981BB",
"O  c #2A80BA",
"+  c #2A81BA",
"@  c #2A81BB",
"#  c #2982BB",
"$  c #2A82BB",
"%  c #2982BC",
"&  c #2A82BC",
"*  c #2B82BC",
"=  c #2A83BD",
"-  c #2B83BD",
";  c #2A83BE",
":  c #2B83BE",
">  c #2B84BE",
",  c #2B84BF",
"<  c #2B85BF",
"1  c #2B84C0",
"2  c #2B85C0",
"3  c #2B85C1",
"4  c #2B86C1",
"5  c #2C85C1",
"6  c #2C86C1",
"7  c #2C86C2",
"8  c #2C87C2",
"9  c #2C87C3",
"0  c #2D87C3",
"q  c #2C87C4",
"w  c #2D87C4",
"e  c #2C88C4",
"r  c #2D88C4",
"t  c #2D88C5",
"y  c #2D89C5",
"u  c #2E89C5",
"i  c #2D88C6",
"p  c #2D89C6",
"a  c #2D8AC6",
"s  c #2D8AC7",
"d  c #2D8BC7",
"f  c #2E8AC7",
"g  c #2D8AC8",
"h  c #2E8BC8",
"j  c #2F8BC9",
"k  c #2E8BCA",
"l  c #2E8CC9",
"z  c #2E8CCA",
"x  c #2F8CCA",
"c  c #2F8DCA",
"v  c #2F8CCB",
"b  c #2E8DCB",
"n  c #2F8DCB",
"m  c #2F8DCC",
"M  c #2F8ECC",
"N  c #2F8ECD",
"B  c #2F8FCD",
"V  c #308DCD",
"C  c #308ECC",
"Z  c #308ECD",
"A  c #308FCE",
"S  c #308FCF",
"D  c #3090CF",
"F  c #3090D0",
"G  c #3190D0",
"H  c #3091D0",
"J  c #3191D1",
"K  c #3191D2",
"L  c #3192D2",
"P  c #3192D3",
"I  c #3193D3",
"U  c #3292D3",
"Y  c #3293D3",
"T  c #3193D4",
"R  c #3293D4",
"E  c #3293D5",
"W  c #3294D4",
"Q  c #3294D5",
"!  c #3294D6",
"~  c #3295D6",
"^  c #3395D6",
"/  c #3295D7",
"(  c #3396D6",
")  c #3396D7",
"_  c #3396D8",
"`  c #3396D9",
"'  c #3397D9",
"]  c #3397DA",
"[  c #3496D8",
"{  c #3496D9",
"}  c #3497D9",
"|  c #3497DA",
" . c #3398DA",
".. c #3498DA",
"X. c #3498DB",
"o. c #95A5A6",
"O. c #9DABAD",
"+. c #AEB8BA",
"@. c #B2BBBE",
"#. c #BCC2C6",
"$. c #BDC3C7",
"%. c None",
/* pixels */
"%.%.%.%.%.%.%.%.%.%.%.%.%.%.%.%.%.%.%.%.%.%.%.%.%.%.%.%.%.%.%.%.%.%.%.%.%.%.%.%.%.%.%.%.%.%.%.%.%.%.%.%.%.%.%.%.%.%.%.%.%.%.%.%.%.%.%.%.%.%.%.%.",
"%.%.%.%.%.%.%.%.%.%.%.%.%.%.%.%.%.%.%.%.%.%.%.%.%.%.%.%.%.%.%.%.%.%.%.%.%.%.%.%.%.%.%.%.%.%.%.%.%.%.%.%.%.%.%.%.%.%.%.%.%.%.%.%.%.%.%.%.%.%.%.%.",
"%.%.%.%.%.%.%.%.%.%.%.%.%.%.%.%.%.%.%.%.%.%.%.%.%.%.%.%.%.%.%.%.%.%.%.%.%.%.%.%.%.%.%.%.%.%.%.%.%.%.%.%.%.%.%.%.%.%.%.%.%.%.%.%.%.%.%.%.%.%.%.%.",
"%.%.%.$.$.$.$.$.$.%.%.%.%.%.%.$.$.$.$.$.$.%.%.%.%.%.%.$.$.$.$.$.$.%.%.%.%.%.%.$.$.$.$.$.$.%.%.%.%.%.%.$.$.$.$.$.$.%.%.%.%.%.%.$.$.$.$.$.$.%.%.%.",
"%.%.%.$.$.$.$.$.$.$.%.%.%.%.$.$.$.$.$.$.$.$.%.%.%.%.$.$.$.$.$.$.$.$.%.%.%.%.$.$.$.$.$.$.$.$.%.%.%.%.$.$.$.$.$.$.$.$.%.%.%.%.$.$.$.$.$.$.$.%.%.%.",
"%.%.%.$.$.$.$.$.$.$.$.%.%.$.$.$.$.$.$.$.$.$.$.%.%.$.$.$.$.$.$.$.$.$.$.%.%.$.$.$.$.$.$.$.$.$.$.%.%.$.$.$.$.$.$.$.$.$.$.%.%.$.$.$.$.$.$.$.$.%.%.%.",
"%.%.%.$.$.$.$.$.$.$.$.$.$.$.$.$.$.$.$.$.$.$.$.$.$.$.$.$.$.$.$.$.$.$.$.$.$.$.$.$.$.$.$.$.$.$.$.$.$.$.$.$.$.$.$.$.$.$.$.$.$.$.$.$.$.$.$.$.$.%.%.%.",
"%.%.%.$.$.$.$.$.$.$.$.$.$.$.$.$.$.$.$.$.$.$.$.$.$.$.$.$.$.$.$.$.$.$.$.$.$.$.$.$.$.$.$.$.$.$.$.$.$.$.$.$.$.$.$.$.$.$.$.$.$.$.$.$.$.$.$.$.$.%.%.%.",
"%.%.%.$.$.$.$.$.$.$.$.$.$.$.$.$.$.$.$.$.$.$.$.$.$.$.$.$.$.$.$.$.$.$.$.$.$.$.$.$.$.$.$.$.$.$.$.$.$.$.$.$.$.$.$.$.$.$.$.$.$.$.$.$.$.$.$.$.$.%.%.%.",
"%.%.%.O.+.$.$.$.$.$.$.$.$.$.$.$.$.$.$.$.$.$.$.$.$.$.$.$.$.$.$.$.$.$.$.$.$.$.$.$.$.$.$.$.$.$.$.$.$.$.$.$.$.$.$.$.$.$.$.$.$.$.$.$.$.$.$.+.O.%.%.%.",
"%.%.%.o.o.+.$.$.$.$.$.$.$.$.$.$.$.$.$.$.$.$.$.$.$.$.$.$.$.$.$.$.$.$.$.$.$.$.$.$.$.$.$.$.$.$.$.$.$.$.$.$.$.$.$.$.$.$.$.$.$.$.$.$.$.$.+.o.o.%.%.%.",
"%.%.%.o.o.O.$.$.$.$.$.$.$.$.$.$.$.$.$.$.$.$.$.$.$.$.$.$.$.$.$.$.$.$.$.$.$.$.$.$.$.$.$.$.$.$.$.$.$.$.$.$.$.$.$.$.$.$.$.$.$.$.$.$.$.$.O.o.o.%.%.%.",
"%.%.%.%.o.O.$.$.$.$.$.$.X.X.X.X.X.X.X.X.X.X.X.X.X.X.X.X.X.X.X.X.X.X.X.X.X.X.X.X.X.X.X.X.X.X.X.X.X.X.X.X.X.X.X.X.X.X.X.X.$.$.$.$.$.$.O.o.%.%.%.%.",
"%.%.%.%.%.@.$.$.$.$.$.$.X.X.X.X.X.X.X.X.X.X.X.X.X.X.X.X.X.X.X.X.X.X.X.X.X.X.X.X.X.X.X.X.X.X.X.X.X.X.X.X.X.X.X.X.X.X.X.X.$.$.$.$.$.$.@.%.%.%.%.%.",
"%.%.%.%.$.$.$.$.$.$.$.$.X.X.X.X.X.X.X.X.X.X.X.X.X.X.X.X.X.X.X.X.X.X.X.X.X.X.X.X.X.X.X.X.X.X.X.X.X.X.X.X.X.X.X.X.X.X.X.X.$.$.$.$.$.$.$.$.%.%.%.%.",
"%.%.%.$.$.$.$.$.$.$.$.$.X.X.X.X.X.X.X.X.X.X.X.X.X.X.X.X.X.X.X.X.X.X.X.X.X.X.X.X.X.X.X.X.X.X.X.X.X.X.X.X.X.X.X.X.X.X.X.X.$.$.$.$.$.$.$.$.$.%.%.%.",
"%.%.%.$.$.$.$.$.$.$.$.$.X.X.X.X.X.X.X.X.X.X.X.X.X.X.X.X.X.X.X.X.X.X.X.X.X.X.X.X.X.X.X.X.X.X.X.X.X.X.X.X.X.X.X.X.X.X.X.X.$.$.$.$.$.$.$.$.$.%.%.%.",
"%.%.%.$.$.$.$.$.$.$.$.$.X.X.X.X.X.X.X.X.X.X.X.X.X.X.X.X.X.X.X.] X.X.X.X.X.X.X.X.X.X.X.X.X.X.X.X.X.X.X.X.X.X.X.X.X.X.X.X.$.$.$.$.$.$.$.$.$.%.%.%.",
"%.%.%.$.$.$.$.$.$.$.$.$.X.X.X.X.X.X.X.X.X.X.X.X.X.X.X.X.X.X.] L v 8 8       8 y v X.X.X.X.X.X.X.X.X.X.X.X.X.X.X.X.X.X.X.$.$.$.$.$.$.$.$.$.%.%.%.",
"%.%.%.$.$.$.$.$.$.$.$.$.X.X.X.X.X.X.X.X.X.X.X.X.X.X.X.X.I y                         8 v X.X.X.X.X.X.X.X.X.X.X.X.X.X.X.X.$.$.$.$.$.$.$.$.$.%.%.%.",
"%.%.%.$.$.$.$.$.$.$.$.$.X.X.X.X.X.X.X.X.X.X.X.X.X.X.I y                                   I X.] X.X.X.X.X.X.X.X.X.X.X.X.$.$.$.$.$.$.$.$.$.%.%.%.",
"%.%.%.O.+.$.$.$.$.$.$.$.X.X.X.X.X.X.X.X.X.X.X.X.X.H                 8 v v y y               v ] X.X.X.X.X.X.X.X.X.X.X.X.$.$.$.$.$.$.$.+.O.%.%.%.",
"%.%.%.o.o.+.$.$.$.$.$.$.X.X.X.X.X.X.X.X.X.X.X.X.v             L X.X.] ] X.X.X.X.I v         O 8 X.X.X.X.X.X.X.X.X.X.X.X.$.$.$.$.$.$.+.o.o.%.%.%.",
"%.%.%.o.o.O.$.$.$.$.$.$.X.X.X.X.X.X.X.X.X.X.X.v         8 I X.X.X.X.X.] X.X.X.X.X.X.X.y   O O O y X.X.X.X.X.X.X.X.X.X.X.$.$.$.$.$.$.O.o.o.%.%.%.",
"%.%.%.%.o.O.$.$.$.$.$.$.X.X.X.X.X.X.X.X.X.X.I         y X.X.X.X.X.X.X.X.X.X.X.X.] X.X.X.I O O O   Z X.X.X.X.X.X.X.X.X.X.$.$.$.$.$.$.O.o.%.%.%.%.",
"%.%.%.%.%.@.$.$.$.$.$.$.X.X.X.X.X.X.X.X.X.I         v X.X.X.X.X.X.X.X.] X.X.X.X.] ] X.X.] I O O     ] X.X.X.X.X.X.X.X.X.$.$.$.$.$.$.@.%.%.%.%.%.",
"%.%.%.%.$.$.$.$.$.$.$.$.X.X.X.X.X.X.X.X.X.v       v X.X.X.X.X.X.] I Z v I X.X.] I I I ] ] X.G O     v ] X.X.X.X.X.X.X.X.$.$.$.$.$.$.$.$.%.%.%.%.",
"%.%.%.$.$.$.$.$.$.$.$.$.X.X.X.X.X.X.X.X.I         X.X.X.X.X.X.v     O O     I I O O O i ] X.] 8       ] X.X.X.X.X.X.X.X.$.$.$.$.$.$.$.$.$.%.%.%.",
"%.%.%.$.$.$.$.$.$.$.$.$.X.X.X.X.X.X.X.X.y       I X.X.X.X.X.y                 D       8 X.X.] I       Z X.X.X.X.X.X.X.X.$.$.$.$.$.$.$.$.$.%.%.%.",
"%.%.%.$.$.$.$.$.$.$.$.$.X.X.X.X.X.X.X.X.      8 X.X.X.X.X.v                           8 X.X.] X.      y X.X.X.X.X.X.X.X.$.$.$.$.$.$.$.$.$.%.%.%.",
"%.%.%.$.$.$.$.$.$.$.$.$.X.X.X.X.X.X.X.I       v X.X.X.X.X.        8 I X.I Z           8 X.X.X.X.y     8 X.X.X.X.X.X.X.X.$.$.$.$.$.$.$.$.$.%.%.%.",
"%.%.%.$.$.$.$.$.$.$.$.$.X.X.X.X.X.X.X.v       X.X.X.X.X.y         ] X.X.X.X.Z         8 X.X.] ] v       X.X.X.X.X.X.X.X.$.$.$.$.$.$.$.$.$.%.%.%.",
"%.%.%.$.$.$.$.$.$.$.$.$.X.X.X.X.X.X.X.y O O   X.X.X.X.X.8       v ] X.X.X.X.]         8 ] X.X.X.v       ] X.X.X.X.X.X.X.$.$.$.$.$.$.$.$.$.%.%.%.",
"%.%.%.O.+.$.$.$.$.$.$.$.X.X.X.X.X.X.X.y O O 8 X.X.X.X.X.        I ] X.X.X.X.X.8   O   8 X.X.X.X.v       X.X.X.X.X.X.X.X.$.$.$.$.$.$.$.+.O.%.%.%.",
"%.%.%.o.o.+.$.$.$.$.$.$.X.X.X.X.X.X.X.8 O O y ] X.X.X.]         I X.X.X.X.] X.Z O O O i X.X.X.X.v     8 X.X.X.X.X.X.X.X.$.$.$.$.$.$.+.o.o.%.%.%.",
"%.%.%.o.o.O.$.$.$.$.$.$.X.X.X.X.X.X.X.    O 0 X.X.X.X.X.        I ] X.X.X.] ] 8 O O O 8 X.X.X.X.8     y X.X.X.X.X.X.X.X.$.$.$.$.$.$.O.o.o.%.%.%.",
"%.%.%.%.o.O.$.$.$.$.$.$.X.X.X.X.X.X.X.8       X.X.X.X.X.        I X.] ] X.X.X.8       8 X.X.] I       v X.X.X.X.X.X.X.X.$.$.$.$.$.$.O.o.%.%.%.%.",
"%.%.%.%.%.@.$.$.$.$.$.$.X.X.X.X.X.X.] v       X.X.X.X.X.y       8 X.X.] X.X.I O       8 X.X.] 8       I X.X.X.X.X.X.X.X.$.$.$.$.$.$.@.%.%.%.%.%.",
"%.%.%.%.$.$.$.$.$.$.$.$.X.X.X.X.X.X.] v       I X.X.X.X.Z       O G ] ] ] ] 8 O       f X.X.y O     v X.X.X.X.X.X.X.X.X.$.$.$.$.$.$.$.$.%.%.%.%.",
"%.%.%.$.$.$.$.$.$.$.$.$.X.X.X.X.X.X.X.]       Z X.X.X.X.X.      O O v Z Z 8 O O         Z         8 ] X.X.X.X.X.X.X.X.X.$.$.$.$.$.$.$.$.$.%.%.%.",
"%.%.%.$.$.$.$.$.$.$.$.$.X.X.X.X.X.X.X.X.        ] ] X.X.X.D     O O           8 O               8 ] X.X.X.X.X.X.X.X.X.X.$.$.$.$.$.$.$.$.$.%.%.%.",
"%.%.%.$.$.$.$.$.$.$.$.$.X.X.X.X.X.X.X.X.Z       Z X.X.X.X.X.I   O O     O O   I O             Z ] X.X.X.X.X.X.X.X.X.X.X.$.$.$.$.$.$.$.$.$.%.%.%.",
"%.%.%.$.$.$.$.$.$.$.$.$.X.X.X.X.X.X.X.X.X.        ] X.X.X.X.X.I y         Z ] I         y Z X.X.] ] X.X.X.X.X.X.X.X.X.X.$.$.$.$.$.$.$.$.$.%.%.%.",
"%.%.%.$.$.$.$.$.$.$.$.$.X.X.X.X.X.X.X.X.X.D         ] X.X.X.X.X.X.X.] I X.X.] ] I ] X.X.X.X.X.X.X.] X.X.X.X.X.X.X.X.X.X.$.$.$.$.$.$.$.$.$.%.%.%.",
"%.%.%.$.$.$.$.$.$.$.$.$.X.X.X.X.X.X.X.X.X.X.8       8 X.X.X.X.X.X.X.X.X.X.X.X.X.X.X.X.X.I X.X.X.X.X.X.X.X.X.X.X.X.X.X.X.$.$.$.$.$.$.$.$.$.%.%.%.",
"%.%.%.O.+.$.$.$.$.$.$.$.X.X.X.X.X.X.X.X.X.X.X.          I X.X.X.X.X.X.X.X.X.X.] X.X.X.f   I X.X.X.X.X.X.X.X.X.X.X.X.X.X.$.$.$.$.$.$.$.+.O.%.%.%.",
"%.%.%.o.o.+.$.$.$.$.$.$.X.X.X.X.X.X.X.X.X.X.X.]           Z I X.X.] ] X.X.] X.] X.D       8 X.X.X.X.X.X.X.X.X.X.X.X.X.X.$.$.$.$.$.$.+.o.o.%.%.%.",
"%.%.%.o.o.O.$.$.$.$.$.$.X.X.X.X.X.X.X.X.X.X.X.X.]         O     Z I I X.] D Z 8             Z X.X.X.X.X.X.X.X.X.X.X.X.X.$.$.$.$.$.$.O.o.o.%.%.%.",
"%.%.%.%.o.O.$.$.$.$.$.$.X.X.X.X.X.X.X.X.X.X.X.X.X.] f O O O O                             Z X.X.X.X.X.X.X.X.X.X.X.X.X.X.$.$.$.$.$.$.O.o.%.%.%.%.",
"%.%.%.%.%.@.$.$.$.$.$.$.X.X.X.X.X.X.X.X.X.X.X.X.X.X.] I 0 O                           Z X.X.X.X.X.X.X.X.X.X.X.X.X.X.X.X.$.$.$.$.$.$.@.%.%.%.%.%.",
"%.%.%.%.$.$.$.$.$.$.$.$.X.X.X.X.X.X.X.X.X.X.X.X.X.X.] X.X.I f 8                 y v X.X.X.X.X.X.X.X.X.X.X.X.X.X.X.X.X.X.$.$.$.$.$.$.$.$.%.%.%.%.",
"%.%.%.$.$.$.$.$.$.$.$.$.X.X.X.X.X.X.X.X.X.X.X.X.X.X.X.X.X.X.] X.I I I Z I I X.X.X.X.X.X.X.X.X.X.X.X.X.X.X.X.X.X.X.X.X.X.$.$.$.$.$.$.$.$.$.%.%.%.",
"%.%.%.$.$.$.$.$.$.$.$.$.X.X.X.X.X.X.X.X.X.X.X.X.X.X.X.X.X.X.X.X.] X.X.X.X.X.X.X.X.X.X.X.X.X.X.X.X.X.X.X.X.X.X.X.X.X.X.X.$.$.$.$.$.$.$.$.$.%.%.%.",
"%.%.%.$.$.$.$.$.$.$.$.$.X.X.X.X.X.X.X.X.X.X.X.X.X.X.X.X.X.X.X.X.X.X.X.X.X.X.X.X.X.X.X.X.X.X.X.X.X.X.X.X.X.X.X.X.X.X.X.X.$.$.$.$.$.$.$.$.$.%.%.%.",
"%.%.%.$.$.$.$.$.$.$.$.$.X.X.X.X.X.X.X.X.X.X.X.X.X.X.X.X.X.X.X.X.X.X.X.X.X.X.X.X.X.X.X.X.X.X.X.X.X.X.X.X.X.X.X.X.X.X.X.X.$.$.$.$.$.$.$.$.$.%.%.%.",
"%.%.%.$.$.$.$.$.$.$.$.$.X.X.X.X.X.X.X.X.X.X.X.X.X.X.X.X.X.X.X.X.X.X.X.X.X.X.X.X.X.X.X.X.X.X.X.X.X.X.X.X.X.X.X.X.X.X.X.X.$.$.$.$.$.$.$.$.$.%.%.%.",
"%.%.%.$.$.$.$.$.$.$.$.$.X.X.X.X.X.X.X.X.X.X.X.X.X.X.X.X.X.X.X.X.X.X.X.X.X.X.X.X.X.X.X.X.X.X.X.X.X.X.X.X.X.X.X.X.X.X.X.X.$.$.$.$.$.$.$.$.$.%.%.%.",
"%.%.%.O.+.$.$.$.$.$.$.$.                                                                                                $.$.$.$.$.$.$.+.O.%.%.%.",
"%.%.%.o.o.+.$.$.$.$.$.$.                                                                                                $.$.$.$.$.$.+.o.o.%.%.%.",
"%.%.%.o.o.O.$.$.$.$.$.$.                                                                                                $.$.$.$.$.$.O.o.o.%.%.%.",
"%.%.%.%.o.O.$.$.$.$.$.$.$.$.$.$.$.$.$.$.$.$.$.$.$.$.$.$.$.$.$.$.$.$.$.$.$.$.$.$.$.$.$.$.$.$.$.$.$.$.$.$.$.$.$.$.$.$.$.$.$.$.$.$.$.$.O.o.%.%.%.%.",
"%.%.%.%.%.@.$.$.$.$.$.$.$.$.$.$.$.$.$.$.$.$.$.$.$.$.$.$.$.$.$.$.$.$.$.$.$.$.$.$.$.$.$.$.$.$.$.$.$.$.$.$.$.$.$.$.$.$.$.$.$.$.$.$.$.$.@.%.%.%.%.%.",
"%.%.%.%.$.$.$.$.$.$.$.$.$.$.$.$.$.$.$.$.$.$.$.$.$.$.$.$.$.$.$.$.$.$.$.$.$.$.$.$.$.$.$.$.$.$.$.$.$.$.$.$.$.$.$.$.$.$.$.$.$.$.$.$.$.$.$.$.%.%.%.%.",
"%.%.%.$.$.$.$.$.$.$.$.$.$.$.$.$.$.$.$.$.$.$.$.$.$.$.$.$.$.$.$.$.$.$.$.$.$.$.$.$.$.$.$.$.$.$.$.$.$.$.$.$.$.$.$.$.$.$.$.$.$.$.$.$.$.$.$.$.$.%.%.%.",
"%.%.%.$.$.$.$.$.$.$.$.$.$.$.$.$.$.$.$.$.$.$.$.$.$.$.$.$.$.$.$.$.$.$.$.$.$.$.$.$.$.$.$.$.$.$.$.$.$.$.$.$.$.$.$.$.$.$.$.$.$.$.$.$.$.$.$.$.$.%.%.%.",
"%.%.%.$.$.$.$.$.$.$.$.$.$.$.$.$.$.$.$.$.$.$.$.$.$.$.$.$.$.$.$.$.$.$.$.$.$.$.$.$.$.$.$.$.$.$.$.$.$.$.$.$.$.$.$.$.$.$.$.$.$.$.$.$.$.$.$.$.$.%.%.%.",
"%.%.%.$.$.$.$.$.$.$.+.O.O.+.$.$.$.$.$.$.$.$.+.O.O.+.$.$.$.$.$.$.$.$.+.O.O.+.$.$.$.$.$.$.$.$.+.O.O.+.$.$.$.$.$.$.$.$.+.O.O.+.$.$.$.$.$.$.$.%.%.%.",
"%.%.%.$.$.$.$.$.$.+.o.o.o.o.+.$.$.$.$.$.$.+.o.o.o.o.+.$.$.$.$.$.$.+.o.o.o.o.+.$.$.$.$.$.$.+.o.o.o.o.+.$.$.$.$.$.$.+.o.o.o.o.+.$.$.$.$.$.$.%.%.%.",
"%.%.%.$.$.$.$.$.$.O.o.o.o.o.O.$.$.$.$.$.$.O.o.o.o.o.O.$.$.$.$.$.$.O.o.o.o.o.O.$.$.$.$.$.$.O.o.o.o.o.O.$.$.$.$.$.$.O.o.o.o.o.O.$.$.$.$.$.$.%.%.%.",
"%.%.%.o.o.o.o.o.o.o.o.%.%.o.o.o.o.o.o.o.o.o.o.%.%.o.o.o.o.o.o.o.o.o.o.%.%.o.o.o.o.o.o.o.o.o.o.%.%.o.o.o.o.o.o.o.o.o.o.%.%.o.o.o.o.o.o.o.o.%.%.%.",
"%.%.%.o.o.o.o.o.o.o.%.%.%.%.o.o.o.o.o.o.o.o.%.%.%.%.o.o.o.o.o.o.o.o.%.%.%.%.o.o.o.o.o.o.o.o.%.%.%.%.o.o.o.o.o.o.o.o.%.%.%.%.o.o.o.o.o.o.o.%.%.%.",
"%.%.%.o.o.o.o.o.o.%.%.%.%.%.%.o.o.o.o.o.o.%.%.%.%.%.%.o.o.o.o.o.o.%.%.%.%.%.%.o.o.o.o.o.o.%.%.%.%.%.%.o.o.o.o.o.o.%.%.%.%.%.%.o.o.o.o.o.o.%.%.%."
};
