/* XPM */
static char *star[] = {
/* columns rows colors chars-per-pixel */
"72 72 37 1 ",
"  c #F39C12",
". c #F39D12",
"X c #F39E12",
"o c #F39F12",
"O c #F1BD0F",
"+ c #F1BE0F",
"@ c #F1BF0F",
"# c #F3A311",
"$ c #F3A012",
"% c #F3A212",
"& c #F3A411",
"* c #F2A711",
"= c #F2A811",
"- c #F2A911",
"; c #F2AD11",
": c #F2AE11",
"> c #F2B010",
", c #F2B110",
"< c #F2B210",
"1 c #F2B310",
"2 c #F2B410",
"3 c #F2B510",
"4 c #F2B610",
"5 c #F2B710",
"6 c #F2B810",
"7 c #F2B910",
"8 c #F1BA10",
"9 c #F1BB10",
"0 c #F2BA10",
"q c #F1BC10",
"w c #F1BD10",
"e c #F1C00F",
"r c #F1C10F",
"t c #F1C20F",
"y c #F1C30F",
"u c #F1C40F",
"i c None",
/* pixels */
"iiiiiiiiiiiiiiiiiiiiiiiiiiiiiiiiiiiiiiiiiiiiiiiiiiiiiiiiiiiiiiiiiiiiiiii",
"iiiiiiiiiiiiiiiiiiiiiiiiiiiiiiiiiii99iiiiiiiiiiiiiiiiiiiiiiiiiiiiiiiiiii",
"iiiiiiiiiiiiiiiiiiiiiiiiiiiiiiiiiiiuuiiiiiiiiiiiiiiiiiiiiiiiiiiiiiiiiiii",
"iiiiiiiiiiiiiiiiiiiiiiiiiiiiiiiiii9uu9iiiiiiiiiiiiiiiiiiiiiiiiiiiiiiiiii",
"iiiiiiiiiiiiiiiiiiiiiiiiiiiiiiiiiiuuuuiiiiiiiiiiiiiiiiiiiiiiiiiiiiiiiiii",
"iiiiiiiiiiiiiiiiiiiiiiiiiiiiiiiii<uuuu<iiiiiiiiiiiiiiiiiiiiiiiiiiiiiiiii",
"iiiiiiiiiiiiiiiiiiiiiiiiiiiiiiiiiuuuuuuiiiiiiiiiiiiiiiiiiiiiiiiiiiiiiiii",
"iiiiiiiiiiiiiiiiiiiiiiiiiiiiiiii<uuuuuu<iiiiiiiiiiiiiiiiiiiiiiiiiiiiiiii",
"iiiiiiiiiiiiiiiiiiiiiiiiiiiiiiii9uuuuuu9iiiiiiiiiiiiiiiiiiiiiiiiiiiiiiii",
"iiiiiiiiiiiiiiiiiiiiiiiiiiiiiiiiuuuuuuuuiiiiiiiiiiiiiiiiiiiiiiiiiiiiiiii",
"iiiiiiiiiiiiiiiiiiiiiiiiiiiiiii9uuuuuuuu9iiiiiiiiiiiiiiiiiiiiiiiiiiiiiii",
"iiiiiiiiiiiiiiiiiiiiiiiiiiiiiiiuuuuuuuuuuiiiiiiiiiiiiiiiiiiiiiiiiiiiiiii",
"iiiiiiiiiiiiiiiiiiiiiiiiiiiiii9uuuuuuuuuu9iiiiiiiiiiiiiiiiiiiiiiiiiiiiii",
"iiiiiiiiiiiiiiiiiiiiiiiiiiiiiiuuuuuuuuuuuuiiiiiiiiiiiiiiiiiiiiiiiiiiiiii",
"iiiiiiiiiiiiiiiiiiiiiiiiiiiii<uuuuuuuuuuuu4iiiiiiiiiiiiiiiiiiiiiiiiiiiii",
"iiiiiiiiiiiiiiiiiiiiiiiiiiiiiuuuuuuuuuuuuuuiiiiiiiiiiiiiiiiiiiiiiiiiiiii",
"iiiiiiiiiiiiiiiiiiiiiiiiiiii<uuuuuuuuuuuuuu4iiiiiiiiiiiiiiiiiiiiiiiiiiii",
"iiiiiiiiiiiiiiiiiiiiiiiiiiii9uuuuuuuuuuuuuu9iiiiiiiiiiiiiiiiiiiiiiiiiiii",
"iiiiiiiiiiiiiiiiiiiiiiiiiiiiuuuuuuuuuuuuuuuuiiiiiiiiiiiiiiiiiiiiiiiiiiii",
"iiiiiiiiiiiiiiiiiiiiiiiiiii9uuuuuuuuuuuuuuuu6iiiiiiiiiiiiiiiiiiiiiiiiiii",
"iiiiiiiiiiiiiiiiiiiiiiiiiiiuuuuuuuuuuuuuuuuuuiiiiiiiiiiiiiiiiiiiiiiiiiii",
"iiiiiiiiiiiiiiiiiiiiiiiiii9uuuuuuuuuuuuuuuuuu4iiiiiiiiiiiiiiiiiiiiiiiiii",
"iiiiiiiiiiiiiiiiiiiiiiiiiiuuuuuuuuuuuuuuuuuuuuiiiiiiiiiiiiiiiiiiiiiiiiii",
"iiiiiiiiiiiiiiiiiiiiiiiii<uuuuuuuuuuuuuuuuuuuu4iiiiiiiiiiiiiiiiiiiiiiiii",
"iiiiiiiiiiiiiiiiiiiiiiiiiuuuuuuuuuuuuuuuuuuuuu+iiiiiiiiiiiiiiiiiiiiiiiii",
"iiiiiiiiiiiiiiiiiiiiiiii<uuuuuuuuuuuuuuuuuuuuuu4iiiiiiiiiiiiiiiiiiiiiiii",
"iiiiiiiiiiiiiiiiiiiiiiii9uuuuuuuuuuuuuuuuuuuuuu9iiiiiiiiiiiiiiiiiiiiiiii",
"iiiiiiiiiiiiiiiiii<<<9uuuuuuuuuuuuuuuuuuuuuuuuuuu+9444iiiiiiiiiiiiiiiiii",
"iiiiiiiiii<<99+uuuuuuuuuuuuuuuuuuuuuuuuuuuuuuuuuuuuuuuuuu+9644iiiiiiiiii",
"iii<<9+uuuuuuuuuuuuuuuuuuuuuuuuuuuuuuuuuuuuuuuuuuuuuuuuuuuuuuuuuu9944iii",
"i   9uuuuuuuuuuuuuuuuuuuuuuuuuuuuuuuuuuuuuuuuuuuuuuuuuuuuuuuuuuuuuu9   i",
"ii  $<uuuuuuuuuuuuuuuuuuuuuuuuuuuuuuuuuuuuuuuuuuuuuuuuuuuuuuuuuuuu4   ii",
"iii   =uuuuuuuuuuuuuuuuuuuuuuuuuuuuuuuuuuuuuuuuuuuuuuuuuuuuuuuuuu=&  iii",
"iiii   =uuuuuuuuuuuuuuuuuuuuuuuuuuuuuuuuuuuuuuuuuuuuuuuuuuuuuuuu=   iiii",
"iiiii   &uuuuuuuuuuuuuuuuuuuuuuuuuuuuuuuuuuuuuuuuuuuuuuuuuuuuu+&   iiiii",
"iiiiiii   9uuuuuuuuuuuuuuuuuuuuuuuuuuuuuuuuuuuuuuuuuuuuuuuuuu9   iiiiiii",
"iiiiiiii   4uuuuuuuuuuuuuuuuuuuuuuuuuuuuuuuuuuuuuuuuuuuuuuuu4   iiiiiiii",
"iiiiiiiii   =uuuuuuuuuuuuuuuuuuuuuuuuuuuuuuuuuuuuuuuuuuuuuu=   iiiiiiiii",
"iiiiiiiiii   =uuuuuuuuuuuuuuuuuuuuuuuuuuuuuuuuuuuuuuuuuuuu=   iiiiiiiiii",
"iiiiiiiiiii    uuuuuuuuuuuuuuuuuuuuuuuuuuuuuuuuuuuuuuuuu9&   iiiiiiiiiii",
"iiiiiiiiiiiii   6uuuuuuuuuuuuuuuuuuuuuuuuuuuuuuuuuuuuuu6&  iiiiiiiiiiiii",
"iiiiiiiiiiiiii   4uuuuuuuuuuuuuuuuuuuuuuuuuuuuuuuuuuuu4   iiiiiiiiiiiiii",
"iiiiiiiiiiiiiii  &uuuuuuuuuuuuuuuuuuuuuuuuuuuuuuuuuuuu&  iiiiiiiiiiiiiii",
"iiiiiiiiiiiiiiii =uuuuuuuuuuuuuuuuuuuuuuuuuuuuuuuuuuuu= iiiiiiiiiiiiiiii",
"iiiiiiiiiiiiiiiii4uuuuuuuuuuuuuuuuuuuuuuuuuuuuuuuuuuuu4iiiiiiiiiiiiiiiii",
"iiiiiiiiiiiiiiiiiiuuuuuuuuuuuuuuuuuuuuuuuuuuuuuuuuuuuuiiiiiiiiiiiiiiiiii",
"iiiiiiiiiiiiiiiii4uuuuuuuuuuuuuuuuuuuuuuuuuuuuuuuuuuuu4iiiiiiiiiiiiiiiii",
"iiiiiiiiiiiiiiiii4uuuuuuuuuuuuuuuuuuuuuuuuuuuuuuuuuuuu4iiiiiiiiiiiiiiiii",
"iiiiiiiiiiiiiiiii9uuuuuuuuuuuuuuuuuuuuuuuuuuuuuuuuuuuu9iiiiiiiiiiiiiiiii",
"iiiiiiiiiiiiiiiiiuuuuuuuuuuuuuuuuuuuuuuuuuuuuuuuuuuuuuuiiiiiiiiiiiiiiiii",
"iiiiiiiiiiiiiiiiiuuuuuuuuuuuuuuuuuuuuuuuuuuuuuuuuuuuuuuiiiiiiiiiiiiiiiii",
"iiiiiiiiiiiiiiii4uuuuuuuuuuuuuuuuuuuuuuuuuuuuuuuuuuuuuu4iiiiiiiiiiiiiiii",
"iiiiiiiiiiiiiiii9uuuuuuuuuuuuuuuuuuuuuuuuuuuuuuuuuuuuuu9iiiiiiiiiiiiiiii",
"iiiiiiiiiiiiiiiiuuuuuuuuuuuuuuuuuuuuuuuuuuuuuuuuuuuuuuu9iiiiiiiiiiiiiiii",
"iiiiiiiiiiiiiiiiuuuuuuuuuuuuuuuuuuu==9uuuuuuuuuuuuuuuuuuiiiiiiiiiiiiiiii",
"iiiiiiiiiiiiiii4uuuuuuuuuuuuuuuuu4    4uuuuuuuuuuuuuuuuu4iiiiiiiiiiiiiii",
"iiiiiiiiiiiiiii6uuuuuuuuuuuuuuu9&      &9uuuuuuuuuuuuuuu4iiiiiiiiiiiiiii",
"iiiiiiiiiiiiiii9uuuuuuuuuuuuuu=    ii    =uuuuuuuuuuuuuu9iiiiiiiiiiiiiii",
"iiiiiiiiiiiiiiiuuuuuuuuuuuuu6&    iiii    &4uuuuuuuuuuuuuiiiiiiiiiiiiiii",
"iiiiiiiiiiiiiiiuuuuuuuuuuuu=    iiiiiiii    =uuuuuuuuuuuuiiiiiiiiiiiiiii",
"iiiiiiiiiiiiii6uuuuuuuuuu4    iiiiiiiiiiii    4uuuuuuuuuu4iiiiiiiiiiiiii",
"iiiiiiiiiiiiii9uuuuuuuu9&    iiiiiiiiiiiiii    &9uuuuuuuu9iiiiiiiiiiiiii",
"iiiiiiiiiiiiiiuuuuuuuu=    iiiiiiiiiiiiiiiiii   &=uuuuuuuuiiiiiiiiiiiiii",
"iiiiiiiiiiiiiiuuuuuu6&    iiiiiiiiiiiiiiiiiiii     4uuuuuuiiiiiiiiiiiiii",
"iiiiiiiiiiiii4uuuuu&    iiiiiiiiiiiiiiiiiiiiiiii    -uuuuu9iiiiiiiiiiiii",
"iiiiiiiiiiiii4uuu4&   iiiiiiiiiiiiiiiiiiiiiiiiiiii    <uuu4iiiiiiiiiiiii",
"iiiiiiiiiiiii9u9&    iiiiiiiiiiiiiiiiiiiiiiiiiiiiii    &9u9iiiiiiiiiiiii",
"iiiiiiiiiiiiiu=    iiiiiiiiiiiiiiiiiiiiiiiiiiiiiiiiii    -uiiiiiiiiiiiii",
"iiiiiiiiiiiii&    iiiiiiiiiiiiiiiiiiiiiiiiiiiiiiiiiiii    &iiiiiiiiiiiii",
"iiiiiiiiiiiii   iiiiiiiiiiiiiiiiiiiiiiiiiiiiiiiiiiiiiiii   iiiiiiiiiiiii",
"iiiiiiiiiiii  iiiiiiiiiiiiiiiiiiiiiiiiiiiiiiiiiiiiiiiiiiii  iiiiiiiiiiii",
"iiiiiiiiiiii iiiiiiiiiiiiiiiiiiiiiiiiiiiiiiiiiiiiiiiiiiiiii iiiiiiiiiiii"
};
