/* XPM */
static char *switch_on[] = {
/* columns rows colors chars-per-pixel */
"72 72 160 2 ",
"   c #27AE60",
".  c #27AF60",
"X  c #28B162",
"o  c #29B162",
"O  c #28B262",
"+  c #2FB166",
"@  c #2DB366",
"#  c #29B564",
"$  c #29B765",
"%  c #2DB667",
"&  c #29B866",
"*  c #2ABC68",
"=  c #2BBD69",
"-  c #2BBE69",
";  c #36B66D",
":  c #33BE6E",
">  c #3EBF76",
",  c #4FB27C",
"<  c #44BB78",
"1  c #43BC78",
"2  c #49B979",
"3  c #4EBB7E",
"4  c #4FBB7E",
"5  c #51B17D",
"6  c #2CC46C",
"7  c #2DC66E",
"8  c #2DC76E",
"9  c #2DC86F",
"0  c #2DC96F",
"q  c #2ECA70",
"w  c #2ECB70",
"e  c #2ECC71",
"r  c #3CC176",
"t  c #32C972",
"y  c #32C873",
"u  c #31CC73",
"i  c #36CE77",
"p  c #3CCB79",
"a  c #7D8D8C",
"s  c #7F8C8D",
"d  c #7D8E8C",
"f  c #6F9988",
"g  c #759489",
"h  c #75948A",
"j  c #75978B",
"k  c #78928B",
"l  c #749E8C",
"z  c #5DA781",
"x  c #5FA582",
"c  c #56BE83",
"v  c #5CBD87",
"b  c #60A482",
"n  c #7AAA94",
"m  c #7AAA95",
"M  c #73BF97",
"N  c #48CA81",
"B  c #56C889",
"V  c #59C98B",
"C  c #4FD287",
"Z  c #5BD590",
"A  c #76C79C",
"S  c #77C99B",
"D  c #75C89C",
"F  c #7BDBA5",
"G  c #829190",
"H  c #849091",
"J  c #929D9E",
"K  c #85A79A",
"L  c #81AE9A",
"P  c #94A4A6",
"I  c #94A5A6",
"U  c #95A5A6",
"Y  c #95A5A7",
"T  c #96A5A6",
"R  c #95A6A6",
"E  c #96A6A6",
"W  c #99A4A5",
"Q  c #97A7A8",
"!  c #98A7A8",
"~  c #98A8A9",
"^  c #9FACAE",
"/  c #8DB5A4",
"(  c #8EB6A5",
")  c #9BBAAF",
"_  c #A2AFB1",
"`  c #A3B0B2",
"'  c #A4B1B4",
"]  c #ABB4B5",
"[  c #AAB6B5",
"{  c #A4BFB5",
"}  c #ACB6B9",
"|  c #AEB8BB",
" . c #AEB9BC",
".. c #ADBFBC",
"X. c #B2BBBE",
"o. c #B3BBBE",
"O. c #B3BBBF",
"+. c #82C7A3",
"@. c #8BC1A7",
"#. c #8CC1A7",
"$. c #93C6AE",
"%. c #99D4B4",
"&. c #9ED6B8",
"*. c #A2C5B7",
"=. c #A3C5B7",
"-. c #A5C2B8",
";. c #9CE1BB",
":. c #A1E2BE",
">. c #B4BCC0",
",. c #B6BEC1",
"<. c #B7BEC2",
"1. c #B7C0C3",
"2. c #B7C3C3",
"3. c #B1C4C0",
"4. c #BAC1C5",
"5. c #BBC1C5",
"6. c #B9C2C4",
"7. c #BAC3C5",
"8. c #BCC2C6",
"9. c #BDC2C6",
"0. c #BCC3C6",
"q. c #BCC3C7",
"w. c #BDC3C7",
"e. c #BEC3C7",
"r. c #BDC4C6",
"t. c #BDC4C7",
"y. c #BEC6C7",
"u. c #BCC3C8",
"i. c #BDC3C8",
"p. c #BFC5C9",
"a. c #BECAC8",
"s. c #BCDDCD",
"d. c #C1C7CA",
"f. c #C1C8C9",
"g. c #C0C9C9",
"h. c #C5CBCE",
"j. c #C2D5CF",
"k. c #C8CED1",
"l. c #D3D8DB",
"z. c #D5DDDD",
"x. c #D7DCDD",
"c. c #D6DDDD",
"v. c #D6DDDE",
"b. c #C5E3D5",
"n. c #CDE6DA",
"m. c #C7E9D8",
"M. c #D3E0DC",
"N. c #D1E7DD",
"B. c #D2EBDF",
"V. c #DDE2E3",
"C. c #DFEAE7",
"Z. c #E6ECEC",
"A. c #E7EEEE",
"S. c #E8EFEE",
"D. c #E9EEEF",
"F. c #EBEFF0",
"G. c #EBF0F0",
"H. c #EBF0F1",
"J. c #ECF0F1",
"K. c None",
/* pixels */
"K.K.K.K.K.K.K.K.K.K.K.K.K.K.K.K.K.K.K.K.K.K.K.K.K.K.K.K.K.K.K.K.K.K.K.K.K.K.K.K.K.K.K.K.K.K.K.K.K.K.K.K.K.K.K.K.K.K.K.K.K.K.K.K.K.K.K.K.K.K.K.K.",
"K.K.K.K.K.K.K.K.K.K.K.K.K.K.K.K.K.K.K.K.K.K.K.K.K.K.K.K.K.K.K.K.K.K.K.K.K.K.K.K.K.K.K.K.K.K.K.K.K.K.K.K.K.K.K.K.K.K.K.K.K.K.K.K.K.K.K.K.K.K.K.K.",
"K.K.K.K.K.K.K.K.K.K.K.K.K.K.K.K.K.K.K.K.K.K.K.K.K.K.K.K.K.K.K.K.K.K.K.K.K.K.K.K.K.K.K.K.K.K.K.K.K.K.K.K.K.K.K.K.K.K.K.K.K.K.K.K.K.K.K.K.K.K.K.K.",
"K.K.K.K.K.K.K.K.K.K.K.K.K.K.K.K.K.K.K.K.K.K.K.K.K.K.K.K.K.K.K.K.K.K.K.K.K.K.K.K.K.K.K.K.K.K.K.K.K.K.K.K.K.K.K.K.K.K.K.K.K.K.K.K.K.K.K.K.K.K.K.K.",
"K.K.K.K.K.K.K.K.K.K.K.K.K.K.K.K.K.K.K.K.K.K.K.K.K.K.K.K.K.K.K.K.K.K.K.K.K.K.K.K.K.K.K.K.K.K.K.K.K.K.K.K.K.K.K.K.K.K.K.K.K.K.K.K.K.K.K.K.K.K.K.K.",
"K.K.K.K.K.K.K.K.K.K.K.K.K.K.K.K.K.K.K.K.K.K.K.K.K.K.K.K.K.K.K.K.K.K.K.K.K.K.K.K.K.K.K.K.K.K.K.K.K.K.K.K.K.K.K.K.K.K.K.K.K.K.K.K.K.K.K.K.K.K.K.K.",
"K.K.K.K.K.K.K.K.K.K.K.K.K.K.K.K.K.K.K.K.K.K.K.K.K.K.K.K.K.K.K.K.K.K.K.K.K.K.K.K.K.K.K.K.K.K.K.K.K.K.K.K.K.K.K.K.K.K.K.K.K.K.K.K.K.K.K.K.K.K.K.K.",
"K.K.K.K.K.K.K.K.K.K.K.K.K.K.K.K.K.K.K.K.K.K.K.K.K.K.K.K.K.K.K.K.K.K.K.K.K.K.K.K.K.K.K.K.K.K.K.K.K.K.K.K.K.K.K.K.K.K.K.K.K.K.K.K.K.K.K.K.K.K.K.K.",
"K.K.K.K.K.K.K.K.K.K.K.K.K.K.K.K.K.K.K.K.K.K.K.K.K.K.K.K.K.K.K.K.K.K.K.K.K.K.K.K.K.K.K.K.K.K.K.K.K.K.K.K.K.K.K.K.K.K.K.K.K.K.K.K.K.K.K.K.K.K.K.K.",
"K.K.K.K.K.K.K.K.K.K.K.K.K.K.K.K.K.K.K.K.K.K.K.K.K.K.K.K.K.K.K.K.K.K.K.K.K.K.K.K.K.K.K.K.K.K.K.K.K.K.K.K.K.K.K.K.K.K.K.K.K.K.K.K.K.K.K.K.K.K.K.K.",
"K.K.K.K.K.K.K.K.K.K.K.K.K.K.K.K.K.K.K.K.K.K.K.K.K.K.K.K.K.K.K.K.K.K.K.K.K.K.K.K.K.K.K.K.K.K.K.K.K.K.K.K.K.K.K.K.K.K.K.K.K.K.K.K.K.K.K.K.K.K.K.K.",
"K.K.K.K.K.K.K.K.K.K.K.K.K.K.K.K.K.K.K.K.K.K.K.K.K.K.K.K.K.K.K.K.K.K.K.K.K.K.K.K.K.K.K.K.K.K.K.K.K.K.K.K.K.K.K.K.K.K.K.K.K.K.K.K.K.K.K.K.K.K.K.K.",
"K.K.K.K.K.K.K.K.K.K.K.K.K.K.K.K.K.K.K.K.K.K.K.K.K.K.K.K.K.K.K.K.K.K.K.K.K.K.K.K.K.K.K.K.K.K.K.K.K.K.K.K.K.K.K.K.K.K.K.K.K.K.K.K.K.K.K.K.K.K.K.K.",
"K.K.K.K.K.K.K.K.K.K.K.K.K.K.K.K.K.K.K.K.K.K.K.K.K.K.K.K.K.K.K.K.K.K.K.K.K.K.K.K.K.K.K.K.K.K.K.K.K.K.K.K.K.K.K.K.K.K.K.K.K.K.K.K.K.K.K.K.K.K.K.K.",
"K.K.K.K.K.K.K.K.K.K.K.K.K.K.K.K.K.K.K.K.K.K.K.K.K.K.K.K.K.K.K.K.K.K.K.K.K.K.K.K.K.K.K.K.K.K.K.K.K.K.K.K.K.K.K.K.K.K.K.K.K.K.K.K.K.K.K.K.K.K.K.K.",
"K.K.K.K.K.K.K.K.K.K.K.K.K.K.K.K.K.t.t.u.t.t.t.t.t.u.d.u.u.u.d.d.t.t.t.t.t.t.t.t.t.t.t.t.t.t.t.t.t.t.t.t.t.t.t.K.K.K.K.K.K.K.K.K.K.K.K.K.K.K.K.K.",
"K.K.K.K.K.K.K.K.K.K.K.K.K.K.d.<.d.e.e.e.<.e.<.d.d.d.<.d.e.e.e.<.<.p.p.d.e.e.d.<.d.<.d.<.u.u.u.<.t.t.t.t.e.<.d.<.d.d.K.K.K.K.K.K.K.K.K.K.K.K.K.K.",
"K.K.K.K.K.K.K.K.K.K.K.K.u.d.<.d.<.e.d.<.d.e.<.d.<.t.d.<.d.<.e.d.d.d.<.<.<.d.<.d.e.e.e.d.t.u.u.t.t.t.d.<.d.<.e.e.d.<.d.<.K.K.K.K.K.K.K.K.K.K.K.K.",
"K.K.K.K.K.K.K.K.K.K.u.e.u.d.<.d.d.<.d.d.d.<.d.<.t.t.t.u.e.d.d.<.p.<.<.d.d.e.<.d.e.<.d.<.t.t.t.t.<.e.d.<.<.d.d.<.e.e.e.e.d.u.K.K.K.K.K.K.K.K.K.K.",
"K.K.K.K.K.K.K.K.K.<.d.e.u.u.d.<.e.e.d.<.e.e.e.d.t.t.t.u.e.<.<.d.p.p.d.d.<.e.e.e.d.d.d.<.t.t.t.t.d.d.<.d.d.d.<.d.<.d.<.d.u.u.p.K.K.K.K.K.K.K.K.K.",
"K.K.K.K.K.K.K.K.d.<.d.d.t.t.u.u.u.u.d.<.e.<.d.d.u.u.u.u.u.u.u.u.p.<.p.p.e.e.<.d.<.d.<.d.1.u.u.t.e.e.d.<.d.<.u.u.d.u.u.d.u.d.<.d.K.K.K.K.K.K.K.K.",
"K.K.K.K.K.K.K.u.<.d.e.<.t.t.t.h.j.s.M.F.J.J.J.J.J.D.b.&.A 2           +                     O           ; c M -.t.u.u.u.u.u.d.<.u.K.K.K.K.K.K.K.",
"K.K.K.K.K.K.t.t.<.d.d.u.t.d.x.F.F.F.J.J.J.J.J.J.J.J.J.J.F.J.%.+                                                 4 1.u.u.<.d.e.<.u.d.K.K.K.K.K.K.",
"K.K.K.K.K.K.t.t.t.d.<.<.h.Z.F.F.J.F.J.J.J.J.J.J.J.J.J.J.J.J.F.V.c                                                 + ( e.d.<.d.d.u.d.K.K.K.K.K.K.",
"K.K.K.K.K.u.u.<.d.<.d.k.J.J.J.l.d.l.J.J.J.x.d.l.J.J.J.l.d.l.J.J.F.Z w e e e e e e e e e e e e e e e e 9 6 6 & O     . c u.t.t.t.<.d.<.K.K.K.K.K.",
"K.K.K.K.K.e.d.t.u.t.u.Z.J.J.J.d.u.u.J.J.J.<.<.d.J.J.F.e.d.<.J.J.D.V.i w e e e e e e e e e e e e e e e e e e e e *   . . #.u.t.t.d.<.d.K.K.K.K.K.",
"K.K.K.K.e.e.d.<.u.u.x.F.F.J.F.d.u.u.J.J.J.d.e.e.J.J.J.e.d.p.J.J.D.J.;.w e e e e e e e e e e e e e e e e e e e e w 0 + . + <.t.t.d.d.e.d.K.K.K.K.",
"K.K.K.K.d.<.e.d.d.h.F.F.F.F.F.u.d.u.J.J.J.d.<.d.J.J.F.e.<.e.J.J.F.J.J.C e e e e e e e e e e e e e e e e e e e e w w w &   3 t.t.<.e.e.<.K.K.K.K.",
"K.K.K.K.t.t.d.<.t.j.J.J.J.J.F.u.u.u.J.J.J.d.e.<.J.J.J.<.d.e.J.J.J.J.J.F e e e e e e e e e e e e e e e e e e e e u w w w O O -.t.d.<.d.e.K.K.K.K.",
"K.K.K.t.t.t.u.d.<.s.J.J.J.J.F.t.u.u.J.J.F.d.e.d.J.J.F.d.<.e.J.J.J.J.J.;.e e e e e e e e e e e e e e e e e e e e u w w w 7   M t.u.d.<.d.u.K.K.K.",
"K.K.K.t.t.<.d.<.d.x.F.J.J.J.J.t.d.<.J.J.F.d.d.<.J.J.J.<.d.d.J.J.J.J.H.m.e e e e e e e e e e e e e e e e e e e e u u w w w * 4 t.t.<.t.t.t.K.K.K.",
"K.K.K.t.t.t.u.t.t.Z.F.J.J.J.J.t.<.d.J.J.F.<.<.d.J.J.J.d.d.<.J.J.J.J.H.D.e e e e e e e e e e e e e e e e e e e e e e w w w 7 ; t.d.<.t.t.t.K.K.K.",
"K.K.K.u.<.d.e.e.t.x.J.J.J.J.F.t.d.<.J.J.F.e.<.e.J.J.F.d.d.<.J.J.J.J.J.l.w u u u e e e e e e e e e e e e e e e e e e e e e e & u.d.e.e.d.<.K.K.K.",
"K.K.K.u.d.d.<.d.t.h.J.J.J.F.F.u.e.d.J.J.F.e.d.d.J.J.F.<.e.d.J.J.J.J.J.a.u u e e e e e e e e e e e e e e e e e e e e e e e e 7 u.<.e.<.d.u.K.K.K.",
"K.K.K.<.<.d.e.<.t.{ J.J.J.J.F.u.<.d.F.J.F.d.d.<.J.J.J.d.<.d.J.J.J.J.J.} e e e e e e e e e e e e e e e e e e e e e e e e w w B u.<.d.d.<.<.K.K.K.",
"K.K.K.>.e.e.e.d.t./ J.J.J.J.F.x.d.l.F.F.F.l.d.l.J.J.F.l.d.l.J.J.J.J.J.K e e e e e e e e e e e e e e e e e e e e e e e e w w A u.d.<.d.t.<.K.K.K.",
"K.K.K.| <.d.d.<.t./ t.J.J.J.J.J.F.J.J.J.J.J.J.J.J.J.J.J.J.J.J.J.F.F.<.x e e e e e e e e e e e e e e e e e e e e e e e e w w $.u.u.u.d.d.| K.K.K.",
"K.K.K.` t.u.<.d.t.| k V.J.J.J.J.J.J.J.J.J.J.J.J.J.J.J.J.J.J.J.J.F.V.H c e e e e e e e e e e e e e e e e e e e e e e e e w i 1.u.u.<.t.<.` K.K.K.",
"K.K.K.^ <.d.t.t.t.t.m W F.J.J.J.J.J.J.J.J.J.J.J.J.J.J.J.J.J.F.Z.F.Y d r e e e e e e e e e e e e e e e e e e e e e e u e w D u.t.t.t.t.t.^ K.K.K.",
"K.K.K.T O.t.t.t.t.u.t.j W V.J.J.J.J.J.J.J.J.J.J.J.J.J.J.J.J.J.V.W s z e e e e e e e e e e e e e e e e e e e e e e e u u N 1.t.t.t.t.t.O.T K.K.K.",
"K.K.K.K._ t.t.t.d.e.<.) H H u.F.J.J.F.F.F.F.J.J.F.F.F.F.F.F.t.H s k y w u u u e e e e e u u e e e e e e w w w w e e w i -.t.t.t.t.t.t._ K.K.K.K.",
"K.K.K.K.T <.t.t.<.d.d.e.K d d J } d.l.F.F.F.J.J.F.Z.V.u.} J s s s < w w w w e e e e e e w w e e e e e e e w w w e e i A t.t.t.t.t.t.<.T K.K.K.K.",
"K.K.K.K.W ^ <.u.d.<.d.<.t.) k d H s s s s s H H s s s s H s s g 1 u w w w w w w e e e e w w w w e e e e e e w w e N *.t.t.u.t.<.t.t.^ T K.K.K.K.",
"K.K.K.K.K.T } u.d.<.t.t.t.t.1.m s s s s s s s s s s s H s s 5 > u w w w w w w w e e e e w w w w e e e e e e w i D 1.7.a.t.u.u.u.t.} T K.K.K.K.K.",
"K.K.K.K.K.Y Y O.u.u.u.d.u.d.d.u.>.( m j k H d H H d f b 3 > 0 i u u w w u u w w e e w w u u w w e w u p V A $.1.d.<.<.d.t.<.d.d.<.T T K.K.K.K.K.",
"K.K.K.K.K.K.T Y <.<.u.u.t.<.t.u.u.d.u.e.<.u.<.<.e.d.<.d.<.t.t.t.7.7.t.t.t.t.t.t.7.7.t.t.t.t.t.t.u.u.u.u.e.e.<.d.e.e.d.<.t.t.<.<.Y T K.K.K.K.K.K.",
"K.K.K.K.K.K.T T W <.d.<.<.d.<.u.u.u.<.d.d.<.d.<.e.<.d.<.<.d.t.t.u.u.u.u.t.t.t.t.u.u.u.u.t.t.t.t.u.u.u.u.<.d.<.d.e.<.u.d.t.u.<.T T T K.K.K.K.K.K.",
"K.K.K.K.K.K.K.T Y W } d.<.d.t.t.t.t.d.<.d.e.e.d.e.d.<.d.d.<.u.u.u.u.u.u.t.t.t.t.u.u.u.u.t.t.t.t.u.u.u.u.e.e.d.<.d.d.u.d.<.} T T T K.K.K.K.K.K.K.",
"K.K.K.K.K.K.K.K.T T T ^ <.t.t.t.t.t.t.t.t.t.<.d.u.d.<.d.t.t.<.u.u.u.t.t.u.<.t.t.u.<.t.t.<.t.t.t.t.t.t.t.u.u.t.t.t.t.u.<.^ P T P K.K.K.K.K.K.K.K.",
"K.K.K.K.K.K.K.K.K.T T T T _ | t.u.u.t.t.t.t.t.t.d.<.<.e.t.t.u.u.d.<.t.t.u.t.t.t.u.t.t.t.u.t.t.t.t.t.t.t.u.u.t.t.t.O._ T T T T K.K.K.K.K.K.K.K.K.",
"K.K.K.K.K.K.K.K.K.K.T T T T Y Y ` | | <.<.u.u.t.u.u.d.e.t.t.t.u.t.<.u.t.u.u.t.t.d.t.u.u.u.u.t.t.t.t.t.t.<.| | ` W T T T T T K.K.K.K.K.K.K.K.K.K.",
"K.K.K.K.K.K.K.K.K.K.K.K.Y T T Y Y Y Y T Y T T T T Y Y W T T T T Y W T T T T T T T T T T T T T T T T T T T T T T T T T Y K.K.K.K.K.K.K.K.K.K.K.K.",
"K.K.K.K.K.K.K.K.K.K.K.K.K.K.T T T T T T T T T T T T T T T T T T Y T T T T T T T T T T T T T T T T T T T T T T T T T K.K.K.K.K.K.K.K.K.K.K.K.K.K.",
"K.K.K.K.K.K.K.K.K.K.K.K.K.K.K.K.K.Y T T T T T T T T T T T T T T Y Y T T T T T T T T T T T T T T T T T T T T T K.K.K.K.K.K.K.K.K.K.K.K.K.K.K.K.K.",
"K.K.K.K.K.K.K.K.K.K.K.K.K.K.K.K.K.K.K.K.K.K.K.K.K.K.K.K.K.K.K.K.K.K.K.K.K.K.K.K.K.K.K.K.K.K.K.K.K.K.K.K.K.K.K.K.K.K.K.K.K.K.K.K.K.K.K.K.K.K.K.K.",
"K.K.K.K.K.K.K.K.K.K.K.K.K.K.K.K.K.K.K.K.K.K.K.K.K.K.K.K.K.K.K.K.K.K.K.K.K.K.K.K.K.K.K.K.K.K.K.K.K.K.K.K.K.K.K.K.K.K.K.K.K.K.K.K.K.K.K.K.K.K.K.K.",
"K.K.K.K.K.K.K.K.K.K.K.K.K.K.K.K.K.K.K.K.K.K.K.K.K.K.K.K.K.K.K.K.K.K.K.K.K.K.K.K.K.K.K.K.K.K.K.K.K.K.K.K.K.K.K.K.K.K.K.K.K.K.K.K.K.K.K.K.K.K.K.K.",
"K.K.K.K.K.K.K.K.K.K.K.K.K.K.K.K.K.K.K.K.K.K.K.K.K.K.K.K.K.K.K.K.K.K.K.K.K.K.K.K.K.K.K.K.K.K.K.K.K.K.K.K.K.K.K.K.K.K.K.K.K.K.K.K.K.K.K.K.K.K.K.K.",
"K.K.K.K.K.K.K.K.K.K.K.K.K.K.K.K.K.K.K.K.K.K.K.K.K.K.K.K.K.K.K.K.K.K.K.K.K.K.K.K.K.K.K.K.K.K.K.K.K.K.K.K.K.K.K.K.K.K.K.K.K.K.K.K.K.K.K.K.K.K.K.K.",
"K.K.K.K.K.K.K.K.K.K.K.K.K.K.K.K.K.K.K.K.K.K.K.K.K.K.K.K.K.K.K.K.K.K.K.K.K.K.K.K.K.K.K.K.K.K.K.K.K.K.K.K.K.K.K.K.K.K.K.K.K.K.K.K.K.K.K.K.K.K.K.K.",
"K.K.K.K.K.K.K.K.K.K.K.K.K.K.K.K.K.K.K.K.K.K.K.K.K.K.K.K.K.K.K.K.K.K.K.K.K.K.K.K.K.K.K.K.K.K.K.K.K.K.K.K.K.K.K.K.K.K.K.K.K.K.K.K.K.K.K.K.K.K.K.K.",
"K.K.K.K.K.K.K.K.K.K.K.K.K.K.K.K.K.K.K.K.K.K.K.K.K.K.K.K.K.K.K.K.K.K.K.K.K.K.K.K.K.K.K.K.K.K.K.K.K.K.K.K.K.K.K.K.K.K.K.K.K.K.K.K.K.K.K.K.K.K.K.K.",
"K.K.K.K.K.K.K.K.K.K.K.K.K.K.K.K.K.K.K.K.K.K.K.K.K.K.K.K.K.K.K.K.K.K.K.K.K.K.K.K.K.K.K.K.K.K.K.K.K.K.K.K.K.K.K.K.K.K.K.K.K.K.K.K.K.K.K.K.K.K.K.K.",
"K.K.K.K.K.K.K.K.K.K.K.K.K.K.K.K.K.K.K.K.K.K.K.K.K.K.K.K.K.K.K.K.K.K.K.K.K.K.K.K.K.K.K.K.K.K.K.K.K.K.K.K.K.K.K.K.K.K.K.K.K.K.K.K.K.K.K.K.K.K.K.K.",
"K.K.K.K.K.K.K.K.K.K.K.K.K.K.K.K.K.K.K.K.K.K.K.K.K.K.K.K.K.K.K.K.K.K.K.K.K.K.K.K.K.K.K.K.K.K.K.K.K.K.K.K.K.K.K.K.K.K.K.K.K.K.K.K.K.K.K.K.K.K.K.K.",
"K.K.K.K.K.K.K.K.K.K.K.K.K.K.K.K.K.K.K.K.K.K.K.K.K.K.K.K.K.K.K.K.K.K.K.K.K.K.K.K.K.K.K.K.K.K.K.K.K.K.K.K.K.K.K.K.K.K.K.K.K.K.K.K.K.K.K.K.K.K.K.K.",
"K.K.K.K.K.K.K.K.K.K.K.K.K.K.K.K.K.K.K.K.K.K.K.K.K.K.K.K.K.K.K.K.K.K.K.K.K.K.K.K.K.K.K.K.K.K.K.K.K.K.K.K.K.K.K.K.K.K.K.K.K.K.K.K.K.K.K.K.K.K.K.K.",
"K.K.K.K.K.K.K.K.K.K.K.K.K.K.K.K.K.K.K.K.K.K.K.K.K.K.K.K.K.K.K.K.K.K.K.K.K.K.K.K.K.K.K.K.K.K.K.K.K.K.K.K.K.K.K.K.K.K.K.K.K.K.K.K.K.K.K.K.K.K.K.K.",
"K.K.K.K.K.K.K.K.K.K.K.K.K.K.K.K.K.K.K.K.K.K.K.K.K.K.K.K.K.K.K.K.K.K.K.K.K.K.K.K.K.K.K.K.K.K.K.K.K.K.K.K.K.K.K.K.K.K.K.K.K.K.K.K.K.K.K.K.K.K.K.K.",
"K.K.K.K.K.K.K.K.K.K.K.K.K.K.K.K.K.K.K.K.K.K.K.K.K.K.K.K.K.K.K.K.K.K.K.K.K.K.K.K.K.K.K.K.K.K.K.K.K.K.K.K.K.K.K.K.K.K.K.K.K.K.K.K.K.K.K.K.K.K.K.K.",
"K.K.K.K.K.K.K.K.K.K.K.K.K.K.K.K.K.K.K.K.K.K.K.K.K.K.K.K.K.K.K.K.K.K.K.K.K.K.K.K.K.K.K.K.K.K.K.K.K.K.K.K.K.K.K.K.K.K.K.K.K.K.K.K.K.K.K.K.K.K.K.K.",
"K.K.K.K.K.K.K.K.K.K.K.K.K.K.K.K.K.K.K.K.K.K.K.K.K.K.K.K.K.K.K.K.K.K.K.K.K.K.K.K.K.K.K.K.K.K.K.K.K.K.K.K.K.K.K.K.K.K.K.K.K.K.K.K.K.K.K.K.K.K.K.K."
};
