/* XPM */
static const char *trashcan[] = {
/* columns rows colors chars-per-pixel */
"72 72 142 2 ",
"   c #27AE60",
".  c #28AE61",
"X  c #29AE61",
"o  c #28AF61",
"O  c #2AAF63",
"+  c #2DAE65",
"@  c #2EAF64",
"#  c #2FAF65",
"$  c #30AF66",
"%  c #31AF66",
"&  c #33AF68",
"*  c #31B067",
"=  c #32B068",
"-  c #34B069",
";  c #35B06A",
":  c #37B16B",
">  c #38B16C",
",  c #39B16C",
"<  c #3AB06D",
"1  c #3AB06E",
"2  c #3CB16E",
"3  c #3CB16F",
"4  c #3FB171",
"5  c #41B172",
"6  c #43B273",
"7  c #44B274",
"8  c #49B277",
"9  c #48B377",
"0  c #4AB378",
"q  c #4BB379",
"w  c #4FB37B",
"e  c #4DB47B",
"r  c #50B47D",
"t  c #52B47E",
"y  c #53B47E",
"u  c #54B47F",
"i  c #7A8F8B",
"p  c #7C8E8B",
"a  c #7E8C8C",
"s  c #7F8C8D",
"d  c #6E9586",
"f  c #6E9686",
"g  c #759187",
"h  c #789F90",
"j  c #55B580",
"k  c #5BB584",
"l  c #5CB685",
"z  c #5EB686",
"x  c #60B687",
"c  c #63B689",
"v  c #63B68A",
"b  c #65B68A",
"n  c #64B78A",
"m  c #66B78B",
"M  c #67B78C",
"N  c #6AB78E",
"B  c #6CB78F",
"V  c #69B88D",
"C  c #79A090",
"Z  c #6CB790",
"A  c #6FB892",
"S  c #72B893",
"D  c #74B995",
"F  c #75B995",
"G  c #76B997",
"H  c #78BA98",
"J  c #7BB99A",
"K  c #7ABA9A",
"L  c #7CBA9A",
"P  c #7DBA9B",
"I  c #7EBA9B",
"U  c #7FBB9D",
"Y  c #8C9799",
"T  c #81BB9D",
"R  c #92A5A5",
"E  c #93A5A5",
"W  c #95A5A6",
"Q  c #96A5A6",
"!  c #96A5A7",
"~  c #95A6A6",
"^  c #96A6A6",
"/  c #9BA9AA",
"(  c #9DABAC",
")  c #85BBA1",
"_  c #88BBA3",
"`  c #8ABBA4",
"'  c #8ABCA4",
"]  c #8CBCA5",
"[  c #8CBDA5",
"{  c #8DBCA6",
"}  c #8EBDA7",
"|  c #92BDA9",
" . c #93BDAB",
".. c #94BDAA",
"X. c #96BEAC",
"o. c #98BEAE",
"O. c #9ABEAF",
"+. c #9BBFB0",
"@. c #9CBEB0",
"#. c #9DBFB1",
"$. c #9FBFB2",
"%. c #A5AEB1",
"&. c #A5B1B3",
"*. c #A5B2B4",
"=. c #A0BFB3",
"-. c #A0BFB4",
";. c #A3BFB6",
":. c #ADB7BA",
">. c #B1B9BD",
",. c #B1BABD",
"<. c #A3C0B5",
"1. c #A4C0B6",
"2. c #A5C0B6",
"3. c #A8C0B8",
"4. c #A8C0B9",
"5. c #ACC0BB",
"6. c #AEC1BD",
"7. c #AFC1BD",
"8. c #B0C1BF",
"9. c #B1C2BF",
"0. c #B3C1C0",
"q. c #B3C2C0",
"w. c #B4C2C1",
"e. c #B5C2C1",
"r. c #B5C2C2",
"t. c #B7C3C2",
"y. c #B6C2C3",
"u. c #B7C2C3",
"i. c #B8C0C2",
"p. c #B9C0C3",
"a. c #B8C2C3",
"s. c #B8C2C4",
"d. c #B9C3C5",
"f. c #BAC2C4",
"g. c #BAC2C5",
"h. c #BBC2C6",
"j. c #BBC3C6",
"k. c #BCC2C6",
"l. c #BCC3C6",
"z. c #BDC3C7",
"x. c #BEC3C7",
"c. c None",
/* pixels */
"c.c.c.c.c.c.c.c.c.c.c.c.c.c.c.c.c.c.c.c.c.c.c.c.c.c.c.c.c.c.c.c.c.c.c.c.c.c.c.c.c.c.c.c.c.c.c.c.c.c.c.c.c.c.c.c.c.c.c.c.c.c.c.c.c.c.c.c.c.c.c.c.",
"c.c.c.c.c.c.c.c.c.c.c.c.c.c.c.c.c.c.c.c.c.c.c.c.c.c.c.c.c.c.c.c.c.c.c.c.c.c.c.c.c.c.c.c.c.c.c.c.c.c.c.c.c.c.c.c.c.c.c.c.c.c.c.c.c.c.c.c.c.c.c.c.",
"c.c.c.c.c.c.c.c.c.c.c.c.c.c.c.c.c.c.c.c.c.c.c.c.c.c.c.c.c.c.c.c.c.c.c.c.c.c.c.c.c.c.c.c.c.c.c.c.c.c.c.c.c.c.c.c.c.c.c.c.c.c.c.c.c.c.c.c.c.c.c.c.",
"c.c.c.c.c.c.c.c.c.c.z.z.z.z.z.z.z.z.z.z.z.z.z.z.z.z.z.z.z.z.z.z.z.z.z.z.z.z.z.z.z.z.z.z.z.z.z.z.z.z.z.z.z.z.z.z.z.z.z.z.z.z.c.c.c.c.c.c.c.c.c.c.",
"c.c.c.c.c.c.c.c.z.z.z.z.z.z.z.z.z.z.z.z.z.z.z.z.z.z.z.z.z.z.z.z.z.z.z.z.z.z.z.z.z.z.z.z.z.z.z.z.z.z.z.z.z.z.z.z.z.z.z.z.z.z.z.z.c.c.c.c.c.c.c.c.",
"c.c.c.c.c.c.c.z.z.z.z.z.z.z.z.z.z.z.z.z.z.z.z.z.z.z.z.z.z.z.z.z.z.z.z.z.z.z.z.z.z.z.z.z.z.z.z.z.z.z.z.z.z.z.z.z.z.z.z.z.z.z.z.z.x.c.c.c.c.c.c.c.",
"c.c.c.c.c.c.c.z.z.z.z.z.z.%.Y s s s s s s s s s s s s s s s s s s s s s s s s s s s s s s s s s s s s s s s s s s Y *.z.z.z.z.z.x.c.c.c.c.c.c.c.",
"c.c.c.c.c.c.z.z.z.z.z.z.%.s s s s s s s s s s s s s s s s s s s s s s s s s s s s s s s s s s s s s s s s s s s s s a *.z.z.z.z.x.x.c.c.c.c.c.c.",
"c.c.c.c.c.c.z.z.z.z.z.z.Y s s s s s s s s s s s s s s s s s s s s s s s s s s s s s s s s s s s s s s s s s s s s s s Y z.z.z.z.x.z.c.c.c.c.c.c.",
"c.c.c.c.c.c.z.z.z.z.z.z.s s s s s s s s s s s s s s s s s s s s s s s s s s s s s s s s s s s s s s s s s s s s s s s s z.z.z.z.x.x.c.c.c.c.c.c.",
"c.c.c.c.c.c.z.z.z.z.z.z.s s s s s s s s s s s s s s s s s s s s s s s s s s s s s s s s s s s s s s s s s s s s s s s s z.z.z.z.x.x.c.c.c.c.c.c.",
"c.c.c.c.c.c.z.z.z.z.z.z.s s s s s s s s s s s s s s s s s s s s s s s s s s s s s s s s s s s s s s s s s s s s s s s s z.z.z.z.x.x.c.c.c.c.c.c.",
"c.c.c.c.c.c.z.z.z.z.z.z.s s s s s s s s s s s s s s s s s s s s s s s s s s s s s s s s s s s s s s s s s s s s s s s s z.z.z.z.x.x.c.c.c.c.c.c.",
"c.c.c.c.c.c.z.z.z.z.z.z.s s s s s s s s s s s s s s s s s s s s s s s s s s s s s s s s s s s s s s s s s s s s s s s s z.z.z.z.x.x.c.c.c.c.c.c.",
"c.c.c.c.c.c.z.z.z.z.z.z.s s s s s s s s s s s s s s s s s s s s s s s s s s s s s s s s s s s s s s s s s s s s s s s s z.z.z.z.x.x.c.c.c.c.c.c.",
"c.c.c.c.c.c.z.z.z.z.z.z.s s s s s s s s s s s s s s s s s s s s s s s s s s s s s s s s s s s s s s s s s s s s s s s s z.z.z.z.x.x.c.c.c.c.c.c.",
"c.c.c.c.c.c.z.z.z.z.z.z.a a s s s s s s s s s s s s s s s s s s s s s s s s s s s s s s s s s s s s s s s s s s s s s s z.z.z.z.x.x.c.c.c.c.c.c.",
"c.c.c.c.c.c.z.z.z.z.z.z.s a s s s s s s s s s s s s s s s s s s s s s s s s s s s s s s s s s s s s s s s s s s s s s s z.z.z.z.x.x.c.c.c.c.c.c.",
"c.c.c.c.c.c.z.z.z.z.x.x.Y a a s s s s s s s s s s s s s s s s s s s s s s s s s s s s s s s a a s s s s s s s s s s s Y z.z.z.z.x.x.c.c.c.c.c.c.",
"c.c.c.c.c.c.z.z.z.z.d.x.*.a s s s s s s s s s s s s s s s s s s s s s s s s s s s s s s s s a a s s s s s s s s s s s *.z.z.z.z.x.x.c.c.c.c.c.c.",
"c.c.c.c.c.c.z.z.x.x.x.x.d.%.Y a s s s s s s s s a a s s a a a a s s s s s s s s s s s s a a a a s s s s s s s s s Y %.z.z.z.z.z.x.x.c.c.c.c.c.c.",
"c.c.c.c.c.c.z.z.d.x.x.d.x.x.x.x.z.z.z.z.z.z.z.z.z.z.z.z.z.z.z.x.z.z.z.z.z.z.z.z.z.z.z.z.x.x.x.x.z.z.z.z.z.z.z.z.z.z.z.z.z.z.z.z.x.x.c.c.c.c.c.c.",
"c.c.c.c.c.c.z.z.x.x.x.x.x.x.x.d.z.z.z.z.z.z.z.z.z.z.z.z.z.z.x.x.z.z.z.z.z.z.z.z.z.z.z.z.d.x.x.d.z.z.z.z.z.z.z.z.z.z.z.z.z.z.z.z.x.x.c.c.c.c.c.c.",
"c.c.c.c.c.c.c.z.x.d.x.x.d.x.x.x.z.z.z.z.z.z.z.z.z.z.z.z.z.z.d.x.z.z.z.z.z.z.z.z.z.z.z.z.x.x.x.x.z.z.z.z.z.z.z.z.z.z.z.z.z.z.z.z.x.c.c.c.c.c.c.c.",
"c.c.c.c.c.c.c.z.z.z.z.z.x.x.x.x.z.z.z.z.x.x.d.x.x.z.z.z.x.x.d.x.z.z.z.z.z.z.z.z.x.x.x.x.x.x.x.x.x.x.x.x.x.d.x.x.z.z.z.z.z.z.z.z.x.c.c.c.c.c.c.c.",
"c.c.c.c.c.c.c.c.z.z.z.z.x.x.x.d.z.z.z.z.x.x.x.x.d.z.z.z.x.x.x.x.z.z.z.z.z.z.z.z.x.d.d.x.x.d.x.d.x.x.d.x.x.x.x.d.z.z.z.z.z.z.z.z.c.c.c.c.c.c.c.c.",
"c.c.c.c.c.c.c.c.c.%.,.z.x.x.x.x.z.z.z.z.x.d.d.x.d.x.z.z.x.d.d.x.z.z.z.z.z.z.z.z.x.x.x.x.x.d.x.x.d.x.d.x.x.x.x.x.z.z.z.z.p.8.%.c.c.c.c.c.c.c.c.c.",
"c.c.c.c.c.c.c.c.c.E E E ! E ! E ! ! ! ! ! ! ! ! ! ! ! ! ! ! ! ! f a i a s s a f ! R ! R ! ! ! ! ! ! ! ! ! R ! R ! ! ! ! ! ! ! c.c.c.c.c.c.c.c.c.",
"c.c.c.c.c.c.c.c.c.E E ! E ! E ! ! ! ! ! R ! R ! ! ! ! ! R ! ! h a a a a s s s s C ! ! ! ! ! ! ! ! ! ! R ! ! R ! R ! R ! ! ! ! c.c.c.c.c.c.c.c.c.",
"c.c.c.c.c.c.c.c.c.,.*./ ! E ! E ! ! ! ! ! ! ! ! R ! ! R ! ! R g a a a i s s s s g R ! ! ! R ! ! R ! ! ! ! R ! ! ! ! ! ! ! %.,.c.c.c.c.c.c.c.c.c.",
"c.c.c.c.c.c.c.c.c.x.x.x.x.x.x.x.x.x.x.d.d.x.x.x.x.d.x.x.d.x.K . O O       . O O . K x.d.d.x.x.d.d.x.x.d.x.x.x.x.x.x.x.x.x.x.x.c.c.c.c.c.c.c.c.c.",
"c.c.c.c.c.c.c.c.c.x.x.x.x.x.x.x.x.d.x.x.x.x.d.x.x.x.x.x.x.8.+ . . .       . . . . * 0.x.x.x.x.x.x.x.x.x.x.x.d.x.x.d.x.x.x.x.x.c.c.c.c.c.c.c.c.c.",
"c.c.c.c.c.c.c.c.c.z.z.z.z.z.z.z.z.z.z.z.z.z.z.z.x.x.x.x.x.l     . . . . . . .       l x.x.x.d.x.x.d.x.x.z.z.z.z.z.z.z.z.z.z.z.c.c.c.c.c.c.c.c.c.",
"c.c.c.c.c.c.c.c.c.z.z.z.z.z.z.z.z.z.z.z.z.z.z.z.x.d.x.x.$..     . . . q q .         . $.x.x.d.x.x.x.x.x.z.z.z.z.z.z.z.z.z.z.z.c.c.c.c.c.c.c.c.c.",
"c.c.c.c.c.c.c.c.c.z.z.z.z.z.z.z.z.z.z.z.z.z.z.z.x.d.x.d.q .         . $.$..           j d.A N x.z.z.d.z.z.z.z.z.z.z.z.z.z.z.z.c.c.c.c.c.c.c.c.c.",
"c.c.c.c.c.c.c.c.c.z.z.z.z.z.z.z.z.z.z.z.z.z.z.z.x.x.d.{ . .         l d.x.l             + . ' x.z.z.z.z.z.z.z.z.z.z.z.z.z.z.z.c.c.c.c.c.c.c.c.c.",
"c.c.c.c.c.c.c.c.c.z.z.z.z.z.z.z.z.z.z.z.z.z.z.z.x.z.d.; . . .   . O 0.x.x.8.+ .         O O y.z.z.z.z.z.z.z.z.z.z.z.z.z.z.z.z.c.c.c.c.c.c.c.c.c.",
"c.c.c.c.c.c.c.c.c.z.z.z.z.z.z.z.z.z.z.z.z.z.z.z.x.d.d.N . . .   . K d.d.x.x.K .         . 4 x.z.z.z.z.z.z.z.z.z.z.z.z.z.z.z.z.c.c.c.c.c.c.c.c.c.",
"c.c.c.c.c.c.c.c.c.z.z.z.z.z.z.z.z.z.z.z.z.z.z.z.z.z.d.x.4.j . . 1 y.x.x.x.d.D .     . . . N x.d.z.z.z.z.z.z.z.z.z.z.z.z.z.z.z.c.c.c.c.c.c.c.c.c.",
"c.c.c.c.c.c.c.c.c.z.z.z.z.z.z.z.z.z.z.z.z.z.z.z.z.z.d.x.x.x.' 4 ' x.x.x.;.1 . .       . .  .x.x.z.z.z.z.z.z.z.z.z.z.z.z.z.z.z.c.c.c.c.c.c.c.c.c.",
"c.c.c.c.c.c.c.c.c.z.z.z.z.z.z.z.z.z.z.z.z.z.z.z.d.x.x.d.x.x.x.d.x.x.x.d.z.y.{ v 1 O . . O d.d.x.z.z.z.z.z.z.z.z.z.z.z.z.z.z.z.c.c.c.c.c.c.c.c.c.",
"c.c.c.c.c.c.c.c.c.z.z.z.z.z.z.z.z.z.z.z.z.z.z.z.x.x.x.x.x.x.x.x.x.x.x.x.z.z.d.x.x.;.K j j x.x.d.z.z.z.z.z.z.z.z.z.z.z.z.z.z.z.c.c.c.c.c.c.c.c.c.",
"c.c.c.c.c.c.c.c.c.z.z.z.z.z.z.z.z.z.z.z.x.x.z.z.x.y.' l { x.x.x.x.x.x.x.z.z.z.z.d.x.x.x.x.x.x.x.z.z.z.z.z.z.z.z.z.z.z.z.z.z.z.c.c.c.c.c.c.c.c.c.",
"c.c.c.c.c.c.c.c.c.z.z.z.z.z.z.z.z.z.z.z.x.d.+.D q . .   k d.x.d.d.x.x.d.z.z.z.z.x.x.x.x.x.d.x.d.z.z.z.z.z.z.z.z.z.z.z.z.z.z.z.c.c.c.c.c.c.c.c.c.",
"c.c.c.c.c.c.c.c.c.z.z.z.z.z.z.z.x.x.x.x.{ + O .         = x.x.x.x.x.d.z.z.z.z.z.x.x.z.z.z.z.x.d.N K x.x.z.z.z.z.z.z.z.z.z.z.z.c.c.c.c.c.c.c.c.c.",
"c.c.c.c.c.c.c.c.c.z.z.z.z.z.z.z.x.x.d.x.d. .4 .         . $.x.d.x.x.x.x.z.z.z.z.d.x.z.z.z.h.K + O 1 d.x.z.z.z.z.z.z.z.z.z.z.z.c.c.c.c.c.c.c.c.c.",
"c.c.c.c.c.c.c.c.c.z.z.z.z.z.z.z.d.z.d.x.x.d.k .     . . . K x.x.d.x.x.x.z.z.z.z.x.x.d.z.+.4 O   . . Z x.z.z.z.z.z.z.z.z.z.z.z.c.c.c.c.c.c.c.c.c.",
"c.c.c.c.c.c.c.c.c.z.z.z.z.z.z.z.z.z.x.x.x.o.. .   . . . . j x.x.x.x.d.x.z.z.z.z.x.x.z.z.q . . . . . O 4.z.z.z.z.z.z.z.z.z.z.z.c.c.c.c.c.c.c.c.c.",
"c.c.c.c.c.c.c.c.c.z.z.z.z.z.z.z.z.z.z.z.x.4           . . + x.d.z.z.z.z.z.z.z.z.d.x.x.d.$.. . . .     j x.x.x.d.x.x.d.x.x.d.z.c.c.c.c.c.c.c.c.c.",
"c.c.c.c.c.c.c.c.c.z.z.z.z.z.z.z.z.z.z.z.K O   .     . N ' 4 $.x.z.z.z.z.z.z.z.z.x.x.x.x.d.k . . . .      .x.x.x.x.x.x.x.x.x.z.c.c.c.c.c.c.c.c.c.",
"c.c.c.c.c.c.c.c.c.z.z.z.z.z.z.z.x.d.d.0.1 . . . . . = y.d.d.0.x.z.z.z.z.z.z.z.z.x.x.x.x.x.0.. .         4 d.x.d.d.x.x.x.z.z.z.c.c.c.c.c.c.c.c.c.",
"c.c.c.c.c.c.c.c.c.z.z.z.z.z.z.z.x.x.d.N . . . . . . { x.x.d.d.x.z.z.z.z.z.z.z.z.x.K x.d.x.d.K .         . K x.x.x.x.d.x.z.z.z.c.c.c.c.c.c.c.c.c.",
"c.c.c.c.c.c.c.c.c.z.z.z.z.z.z.z.d.z.$..           q x.d.x.x.x.x.z.z.z.z.x.d.x.z.K . x.x.x.x.d.=           + 0.x.z.z.z.z.z.z.z.c.c.c.c.c.c.c.c.c.",
"c.c.c.c.c.c.c.c.c.z.z.z.z.z.z.z.x.x.j O         . $.x.x.x.x.x.x.z.z.z.z.x.x.x.K O O x.x.x.x.x.{         . . v x.z.z.z.z.z.z.z.c.c.c.c.c.c.c.c.c.",
"c.c.c.c.c.c.c.c.c.z.z.z.z.z.z.z.x.d.;           . * * * * * = = ; z.z.z.x.x.K . . . * ; * = = +         . . j d.z.z.z.z.z.z.z.c.c.c.c.c.c.c.c.c.",
"c.c.c.c.c.c.c.c.c.z.z.z.z.z.z.z.x.x.'           .   . . . . . . O z.z.z.x.K . . . . . . . . .             . $.x.z.z.z.z.z.z.z.c.c.c.c.c.c.c.c.c.",
"c.c.c.c.c.c.c.c.c.z.z.z.z.z.z.z.z.z.z.j                         . x.x.x.K . . .                     . .   N z.z.z.z.z.z.z.z.z.c.c.c.c.c.c.c.c.c.",
"c.c.c.c.c.c.c.c.c.z.z.z.z.z.z.z.z.z.z.4..                       . x.d.x.N O . .                   . . . + y.z.z.z.z.z.z.z.z.z.c.c.c.c.c.c.c.c.c.",
"c.c.c.c.c.c.c.c.c.z.z.z.z.z.z.z.z.z.z.z.N . .                   . x.d.x.d.N                         . . K d.z.z.z.z.z.z.z.z.z.c.c.c.c.c.c.c.c.c.",
"c.c.c.c.c.c.c.c.c.z.z.z.z.z.z.z.z.z.z.z.0.*                     . d.x.x.x.x.l                       . 1 d.d.z.z.z.z.z.z.z.z.z.c.c.c.c.c.c.c.c.c.",
"c.c.c.c.c.c.c.c.c.z.z.z.z.z.z.z.z.z.z.z.d.d.0.0.0.0.0.4.0.0.0.0.0.z.x.x.d.x.d.N . . 0.0.0.0.0.0.0.0.4.y.z.z.z.z.x.x.d.x.z.z.z.c.c.c.c.c.c.c.c.c.",
"c.c.c.c.c.c.c.c.c.z.z.z.z.z.z.z.z.d.z.z.x.d.d.d.d.d.x.d.z.z.d.d.d.d.x.x.x.x.x.d.l . x.x.d.d.d.x.d.d.x.x.z.z.z.z.d.x.x.x.z.z.z.c.c.c.c.c.c.c.c.c.",
"c.c.c.c.c.c.c.c.c.z.z.z.z.z.z.z.x.x.x.x.x.x.x.x.x.x.x.x.z.z.z.z.z.z.x.d.d.x.x.d.d.N x.x.d.x.d.x.x.d.d.x.z.z.z.z.z.z.x.x.x.x.z.c.c.c.c.c.c.c.c.c.",
"c.c.c.c.c.c.c.c.c.x.z.z.z.z.z.z.x.x.d.x.x.d.x.x.d.x.x.d.z.z.z.z.z.z.x.x.x.x.x.x.x.d.x.x.d.x.x.x.x.x.x.x.z.z.z.z.z.z.d.x.x.x.x.c.c.c.c.c.c.c.c.c.",
"c.c.c.c.c.c.c.c.c.,.x.x.x.x.d.x.x.d.x.x.x.x.d.x.x.d.x.x.d.z.z.z.d.x.x.d.x.x.d.x.x.d.z.z.x.x.x.x.x.x.z.z.z.z.z.z.x.x.x.d.x.x.>.c.c.c.c.c.c.c.c.c.",
"c.c.c.c.c.c.c.c.c./ x.x.x.x.x.x.x.x.x.x.x.x.x.x.x.x.x.x.z.z.z.z.x.x.x.x.x.x.x.x.x.x.z.z.d.x.x.d.d.x.z.z.z.z.z.z.x.x.x.x.x.x./ c.c.c.c.c.c.c.c.c.",
"c.c.c.c.c.c.c.c.c.! ,.x.x.x.x.x.x.d.d.x.x.d.d.x.x.x.x.d.z.z.z.z.x.x.x.x.d.x.x.x.z.z.z.z.x.x.x.x.x.x.d.z.z.z.z.z.x.x.x.x.d.:.! c.c.c.c.c.c.c.c.c.",
"c.c.c.c.c.c.c.c.c.! E ,.x.x.d.x.x.x.x.x.x.x.x.x.x.d.x.x.z.z.z.z.d.x.x.x.x.x.d.x.z.z.z.z.x.d.x.x.x.x.z.z.z.z.z.z.x.x.x.x.8.! ! c.c.c.c.c.c.c.c.c.",
"c.c.c.c.c.c.c.c.c.c.E ! / :.y.x.x.x.d.x.x.x.x.x.x.x.d.x.z.x.x.d.x.x.x.x.x.x.x.x.z.z.d.x.x.x.x.d.x.x.d.x.z.x.x.d.x.z.:./ ! ! c.c.c.c.c.c.c.c.c.c.",
"c.c.c.c.c.c.c.c.c.c.! E ! ! ! ! ! R ! ! R ! E ! R ! ! ! ! ! ! ! E ! ! E R ! R ! ! ! ! ! R ! ! ! R ! ! ! ! ! ! ! ! E E E ! ! c.c.c.c.c.c.c.c.c.c.",
"c.c.c.c.c.c.c.c.c.c.c.! ! ! ! ! ! ! ! ! ! R ! R ! ! R ! R ! ! ! ! E ! E ! ! ! R ! ! ! ! ! R ! R ! ! R ! R ! ! ! E ! ! E ! c.c.c.c.c.c.c.c.c.c.c.",
"c.c.c.c.c.c.c.c.c.c.c.c.c.! ! ! ! R ! R ! ! ! ! R ! ! ! ! ! ! R E ! E ! R ! ! ! ! R ! R ! ! ! ! R ! ! ! ! ! ! R ! E ! c.c.c.c.c.c.c.c.c.c.c.c.c."
};
