/* XPM */
static const char *user_male_alt[] = {
/* columns rows colors chars-per-pixel */
"72 72 150 2 ",
"   c #C0392B",
".  c #C03A2C",
"X  c #C24134",
"o  c #C24235",
"O  c #C7584C",
"+  c #C8584E",
"@  c #CA655C",
"#  c #CB665C",
"$  c #CB685E",
"%  c #CC6B60",
"&  c #CF786E",
"*  c #CF786F",
"=  c #EF9E1F",
"-  c #EF9F1F",
";  c #F39C12",
":  c #F39C13",
">  c #F29D14",
",  c #F29D15",
"<  c #F19D17",
"1  c #F29D16",
"2  c #F29D18",
"3  c #F09E19",
"4  c #F09F1E",
"5  c #EFA020",
"6  c #EDA025",
"7  c #EDA126",
"8  c #ECA127",
"9  c #EBA22B",
"0  c #ECA128",
"q  c #ECA12B",
"w  c #ECA22A",
"e  c #EBA22D",
"r  c #EAA22E",
"t  c #E9A232",
"y  c #E9A332",
"u  c #E9A333",
"i  c #EAA332",
"p  c #EAA333",
"a  c #E9A334",
"s  c #E8A335",
"d  c #E9A434",
"f  c #E9A436",
"g  c #E6A53B",
"h  c #E7A53B",
"j  c #E6A53C",
"k  c #E7A53C",
"l  c #E6A53F",
"z  c #E8A438",
"x  c #E8A539",
"c  c #DEAA55",
"v  c #DEAB58",
"b  c #DEAC5A",
"n  c #DEAC5B",
"m  c #E5A742",
"M  c #E3A746",
"N  c #E4A744",
"B  c #E2A848",
"V  c #E3A849",
"C  c #E3A84A",
"Z  c #E2A84B",
"A  c #E2A94C",
"S  c #E1AA4E",
"D  c #D2857D",
"F  c #D3877F",
"G  c #DCAD60",
"H  c #DCAE60",
"J  c #DAAE64",
"K  c #DAAE66",
"L  c #D9B06B",
"P  c #D8B06D",
"I  c #D6B071",
"U  c #D7B171",
"Y  c #D5B278",
"T  c #D3B37C",
"R  c #95A5A6",
"E  c #96A5A6",
"W  c #98A8A8",
"Q  c #9CABAC",
"!  c #9DABAC",
"~  c #A0ADAF",
"^  c #A0AFB0",
"/  c #A1B0B1",
"(  c #A2B0B1",
")  c #A5B1B3",
"_  c #A9B4B6",
"`  c #AAB7B8",
"'  c #B3BBBE",
"]  c #D48A83",
"[  c #D38B85",
"{  c #D6938C",
"}  c #D89F99",
"|  c #D2B480",
" . c #DAA49F",
".. c #CDB790",
"X. c #CCB895",
"o. c #C9BA9E",
"O. c #DAA8A3",
"+. c #DBA8A3",
"@. c #DCADA9",
"#. c #DCAEAA",
"$. c #C6BCA8",
"%. c #C4BDAE",
"&. c #C4BEB1",
"*. c #C2BFB5",
"=. c #C2BFB8",
"-. c #DDB4B0",
";. c #DFB8B5",
":. c #E0BFBC",
">. c #C1C0B8",
",. c #C0C0BB",
"<. c #C0C1BC",
"1. c #C0C1BD",
"2. c #E1C1BE",
"3. c #B6BEC2",
"4. c #B7BFC2",
"5. c #B8BFC2",
"6. c #B7C2C3",
"7. c #B7C3C4",
"8. c #BFC2C2",
"9. c #BBC1C5",
"0. c #BEC2C5",
"q. c #BDC2C6",
"w. c #BDC2C7",
"e. c #BDC3C7",
"r. c #BEC3C6",
"t. c #BDC4C7",
"y. c #BCC3C8",
"u. c #BEC3C8",
"i. c #C0C1C0",
"p. c #C4CECE",
"a. c #CCD4D6",
"s. c #CFD7D9",
"d. c #D1D9D9",
"f. c #D3DADB",
"g. c #D3DADC",
"h. c #E1C3C0",
"j. c #E2C4C0",
"k. c #E2C5C1",
"l. c #E2C8C5",
"z. c #E2C8C6",
"x. c #E3CAC8",
"c. c #E4CDCB",
"v. c #DAE0E1",
"b. c #E8E2E2",
"n. c #E9E3E3",
"m. c #E9E4E4",
"M. c #E6EBEC",
"N. c #EBEFF0",
"B. c #ECF0F1",
"V. c None",
/* pixels */
"V.V.V.V.V.V.V.V.V.V.V.V.V.V.V.V.V.V.V.V.V.V.V.V.V.V.V.V.V.V.V.V.c V y 5 5 y V n V.V.V.V.V.V.V.V.V.V.V.V.V.V.V.V.V.V.V.V.V.V.V.V.V.V.V.V.V.V.V.V.",
"V.V.V.V.V.V.V.V.V.V.V.V.V.V.V.V.V.V.V.V.V.V.V.V.V.V.V.V.V.J q > ; ; ; ; ; ; ; ; ; y U V.V.V.V.V.V.V.V.V.V.V.V.V.V.V.V.V.V.V.V.V.V.V.V.V.V.V.V.V.",
"V.V.V.V.V.V.V.V.V.V.V.V.V.V.V.V.V.V.V.V.V.V.V.V.V.V.V.V q ; ; ; ; ; ; ; ; ; ; ; ; ; ; y V.V.V.V.V.V.V.V.V.V.V.V.V.V.V.V.V.V.V.V.V.V.V.V.V.V.V.V.",
"V.V.V.V.V.V.V.V.V.V.V.V.V.V.V.V.V.V.V.V.V.V.V.V.V.V.V ; ; ; ; ; ; ; ; ; ; ; ; ; ; ; ; ; ; n V.V.V.V.V.V.V.V.V.V.V.V.V.V.V.V.V.V.V.V.V.V.V.V.V.V.",
"V.V.V.V.V.V.V.V.V.V.V.V.V.V.V.V.V.V.V.V.V.V.V.V.V.j ; ; ; ; ; ; ; ; ; ; ; ; ; ; ; ; ; ; ; ; C V.V.V.V.V.V.V.V.V.V.V.V.V.V.V.V.V.V.V.V.V.V.V.V.V.",
"V.V.V.V.V.V.V.V.V.V.V.V.V.V.V.V.V.V.V.V.V.V.V.V.y ; ; ; ; ; ; ; ; ; ; ; ; ; ; ; ; ; ; ; ; ; ; z V.V.V.V.V.V.V.V.V.V.V.V.V.V.V.V.V.V.V.V.V.V.V.V.",
"V.V.V.V.V.V.V.V.V.V.V.V.V.V.V.V.V.V.V.V.V.V.V.y ; ; ; 7 X.>.o.V ; ; ; ; ; ; ; ; V $.=.o.q ; : : N V.V.V.V.V.V.V.V.V.V.V.V.V.V.V.V.V.V.V.V.V.V.V.",
"V.V.V.V.V.V.V.V.V.V.V.V.V.V.V.V.V.V.V.V.V.V.V ; ; ; y >.w.w.w.w.&.| n y y n T >.t.t.i.i.&.y : : ; H V.V.V.V.V.V.V.V.V.V.V.V.V.V.V.V.V.V.V.V.V.V.",
"V.V.V.V.V.V.V.V.V.V.V.V.V.V.V.V.V.V.V.V.V.V.2 ; : 2 %.u.u.u.5.u.t.t.t.t.5.p.5.u.5.u.u.u.5.%.2 : ; 5 V.V.V.V.V.V.V.V.V.V.V.V.V.V.V.V.V.V.V.V.V.V.",
"V.V.V.V.V.V.V.V.V.V.V.V.V.V.V.V.V.V.V.V.V.q ; ; : K u.5.u.u.u.u.t.t.t.t.u.u.u.u.p.5.u.5.u.u.K : ; ; y V.V.V.V.V.V.V.V.V.V.V.V.V.V.V.V.V.V.V.V.V.",
"V.V.V.V.V.V.V.V.V.V.V.V.V.V.V.V.V.V.V.V.V.; ; ; 6 i.5.p.5.p.5.u.t.t.t.t.u.u.u.u.5.p.u.u.u.u.i.q ; ; ; V.V.V.V.V.V.V.V.V.V.V.V.V.V.V.V.V.V.V.V.V.",
"V.V.V.V.V.V.V.V.V.V.V.V.V.V.V.V.V.V.V.V.q ; ; ; ..u.u.u.u.5.p.5.t.t.i.5.u.5.u.5.u.5.u.u.u.5.u.X.; ; ; z V.V.V.V.V.V.V.V.V.V.V.V.V.V.V.V.V.V.V.V.",
"V.V.V.V.V.V.V.V.V.V.V.V.V.V.V.V.V.V.V.V.; ; ; s u.u.u.u.5.u.u.u.t.t.u.u.u.u.5.p.u.u.5.u.u.u.u.u.z ; ; ; V.V.V.V.V.V.V.V.V.V.V.V.V.V.V.V.V.V.V.V.",
"V.V.V.V.V.V.V.V.V.V.V.V.V.V.V.V.V.V.V.q ; ; ; T 5.u.5.u.u.u.u.u.p.5.u.5.p.5.u.u.u.5.u.u.u.u.u.5.Y ; ; ; z V.V.V.V.V.V.V.V.V.V.V.V.V.V.V.V.V.V.V.",
"V.V.V.V.V.V.V.V.V.V.V.V.V.V.V.V.V.V.V.; ; ; = =.u.u.i.i.5.u.u.u.5.p.5.u.5.u.5.u.u.u.5.u.5.u.u.p.=.2 ; ; 2 V.V.V.V.V.V.V.V.V.V.V.V.V.V.V.V.V.V.V.",
"V.V.V.V.V.V.V.V.V.V.V.V.V.V.V.V.V.V.V.; ; ; Y u.u.u.u.u.p.5.u.u.u.5.u.u.u.u.u.u.u.u.p.5.p.5.u.5.i.H ; ; ; V.V.V.V.V.V.V.V.V.V.V.V.V.V.V.V.V.V.V.",
"V.V.V.V.V.V.V.V.V.V.V.V.V.V.V.V.V.V.y ; ; M w.w.u.u.5.u.u.u.5.u.t.t.u.u.u.u.t.t.u.u.u.5.t.t.u.u.t.i.z 2 : m V.V.V.V.V.V.V.V.V.V.V.V.V.V.V.V.V.V.",
"V.V.V.V.V.V.V.V.V.V.V.V.V.V.V.V.V.V.7 ; q ,.w.w.u.5.u.u.p.5.u.u.5.t.t.u.u.u.5.t.t.u.u.t.5.t.t.u.t.t.&.5 : p V.V.V.V.V.V.V.V.V.V.V.V.V.V.V.V.V.V.",
"V.V.V.V.V.V.V.V.V.V.V.V.V.V.V.V.V.V.j U <.w.w.w.5.p.u.u.5.u.5.u.u.u.u.u.u.t.u.t.t.t.t.t.u.u.u.u.5.t.t.=.I M V.V.V.V.V.V.V.V.V.V.V.V.V.V.V.V.V.V.",
"V.V.V.V.V.V.V.V.V.V.V.V.V.V.V.V.w.w.w.w.t.w.w.w.u.u.u.5.u.u.p.5.u.u.5.t.t.t.u.u.5.t.t.u.u.u.5.t.i.t.t.t.u.5.p.u.V.V.V.V.V.V.V.V.V.V.V.V.V.V.V.V.",
"V.V.V.V.V.V.V.V.V.V.V.V.V.V.V.V.w.t.w.t.w.t.w.t.5.p.5.u.5.p.u.u.u.t.t.5.t.t.t.u.u.u.u.t.u.u.u.t.t.t.5.u.u.u.5.u.V.V.V.V.V.V.V.V.V.V.V.V.V.V.V.V.",
"V.V.V.V.V.V.V.V.V.V.V.V.V.V.V.V.t.w.t.w.t.w.t.w.u.u.u.u.u.5.u.u.t.t.u.u.t.u.5.u.u.u.t.t.u.u.t.t.t.t.p.5.u.5.u.u.V.V.V.V.V.V.V.V.V.V.V.V.V.V.V.V.",
"V.V.V.V.V.V.V.V.V.V.V.V.V.V.V.V.w.t.w.t.w.t.w.t.u.u.u.u.u.u.5.u.t.t.u.u.u.u.t.t.u.u.t.5.t.5.u.u.t.p.5.u.u.u.5.u.V.V.V.V.V.V.V.V.V.V.V.V.V.V.V.V.",
"V.V.V.V.V.V.V.V.V.V.V.V.V.V.V.V.t.w.t.w.t.w.t.w.u.5.u.5.p.5.u.u.5.t.t.u.u.u.5.t.t.u.u.u.t.t.t.u.t.5.u.u.u.u.p.5.V.V.V.V.V.V.V.V.V.V.V.V.V.V.V.V.",
"V.V.V.V.V.V.V.V.V.V.V.V.V.V.V.V.w.w.t.w.5.p.5.u.5.u.u.u.u.u.5.u.u.u.u.t.t.5.u.u.u.u.u.t.t.t.u.u.t.t.u.u.t.t.u.u.V.V.V.V.V.V.V.V.V.V.V.V.V.V.V.V.",
"V.V.V.V.V.V.V.V.V.V.V.V.V.V.V.V.w.t.w.t.u.u.u.u.u.u.p.5.u.u.p.5.u.u.u.u.t.t.u.u.5.t.u.u.5.t.5.t.t.u.u.u.t.t.u.u.V.V.V.V.V.V.V.V.V.V.V.V.V.V.V.V.",
"V.V.V.V.V.V.V.V.V.V.V.V.V.V.V.V.V.w.t.w.5.u.t.t.u.u.5.u.5.u.5.p.u.t.t.u.u.5.u.t.t.t.u.u.u.u.u.t.t.5.t.5.t.t.u.V.V.V.V.V.V.V.V.V.V.V.V.V.V.V.V.V.",
"V.V.V.V.V.V.V.V.V.V.V.V.V.V.V.V.V.t.w.t.p.5.t.t.u.5.u.u.u.u.u.5.t.t.5.u.u.t.t.t.t.u.u.u.u.u.t.t.u.u.t.t.t.t.i.V.V.V.V.V.V.V.V.V.V.V.V.V.V.V.V.V.",
"V.V.V.V.V.V.V.V.V.V.V.V.V.V.V.V.V.V.t.t.t.t.t.t.u.u.5.p.5.u.u.u.t.t.u.u.u.t.t.t.u.t.t.5.t.t.u.u.u.t.t.t.u.t.V.V.V.V.V.V.V.V.V.V.V.V.V.V.V.V.V.V.",
"V.V.V.V.V.V.V.V.V.V.V.V.V.V.V.V.V.V.V.t.t.t.i.5.p.5.u.u.u.u.u.u.5.t.t.u.u.u.5.t.u.u.t.t.5.t.t.u.u.u.5.t.i.V.V.V.V.V.V.V.V.V.V.V.V.V.V.V.V.V.V.V.",
"V.V.V.V.V.V.V.V.V.V.V.V.V.V.V.V.V.V.V.t.t.t.t.t.5.u.5.u.5.u.u.u.u.u.u.u.t.t.u.u.u.u.t.t.u.u.u.u.t.t.u.u.i.V.V.V.V.V.V.V.V.V.V.V.V.V.V.V.V.V.V.V.",
"V.V.V.V.V.V.V.V.V.V.V.V.V.V.V.V.V.V.V.V.t.t.t.t.u.u.u.u.p.5.u.5.u.u.5.t.t.u.u.u.5.t.t.u.u.u.5.t.t.u.u.u.V.V.V.V.V.V.V.V.V.V.V.V.V.V.V.V.V.V.V.V.",
"V.V.V.V.V.V.V.V.V.V.V.V.V.V.V.V.V.V.V.V.u.u.u.5.u.u.p.5.p.5.u.u.u.t.t.5.u.u.u.t.u.u.u.p.5.u.u.u.5.u.u.u.V.V.V.V.V.V.V.V.V.V.V.V.V.V.V.V.V.V.V.V.",
"V.V.V.V.V.V.V.V.V.V.V.V.V.V.V.V.V.V.V.V.V.5.u.p.5.u.5.u.5.u.u.u.t.t.t.t.u.u.t.t.u.5.u.5.u.u.u.u.p.5.u.V.V.V.V.V.V.V.V.V.V.V.V.V.V.V.V.V.V.V.V.V.",
"V.V.V.V.V.V.V.V.V.V.V.V.V.V.V.V.V.V.V.V.V.p.5.5.p.5.u.u.u.u.u.5.t.u.u.t.u.u.t.5.u.u.5.u.5.u.u.u.t.t.t.V.V.V.V.V.V.V.V.V.V.V.V.V.V.V.V.V.V.V.V.V.",
"V.V.V.V.V.V.V.V.V.V.V.V.V.V.V.V.V.V.V.V.V.5.p.5.u.u.u.u.5.u.u.u.5.u.u.u.t.u.u.u.u.5.p.u.p.5.u.5.t.t.t.V.V.V.V.V.V.V.V.V.V.V.V.V.V.V.V.V.V.V.V.V.",
"V.V.V.V.V.V.V.V.V.V.V.V.V.V.V.V.V.V.V.V.V.V.p.t.u.u.u.u.u.u.u.5.u.u.t.t.t.5.u.u.u.u.5.u.5.p.t.t.t.u.V.V.V.V.V.V.V.V.V.V.V.V.V.V.V.V.V.V.V.V.V.V.",
"V.V.V.V.V.V.V.V.V.V.V.V.V.V.V.V.V.V.V.V.V.V.V.t.5.u.5.u.u.u.5.p.u.u.5.t.t.t.u.u.u.5.u.u.5.5.t.t.t.V.V.V.V.V.V.V.V.V.V.V.V.V.V.V.V.V.V.V.V.V.V.V.",
"V.V.V.V.V.V.V.V.V.V.V.V.V.V.V.V.V.V.V.V.V.V.V.V.u.5.p.5.u.5.p.5.u.t.u.t.u.5.u.t.5.p.u.u.p.5.t.t.V.V.V.V.V.V.V.V.V.V.V.V.V.V.V.V.V.V.V.V.V.V.V.V.",
"V.V.V.V.V.V.V.V.V.V.V.V.V.V.V.V.V.V.V.V.V.V.V.V.V.u.u.u.u.u.5.u.t.t.u.u.u.t.t.t.u.u.u.5.u.u.t.V.V.V.V.V.V.V.V.V.V.V.V.V.V.V.V.V.V.V.V.V.V.V.V.V.",
"V.V.V.V.V.V.V.V.V.V.V.V.V.V.V.V.V.V.V.V.V.V.V.V.V.i.t.t.t.t.p.5.t.u.u.u.5.p.5.u.5.u.u.u.t.t.t.V.V.V.V.V.V.V.V.V.V.V.V.V.V.V.V.V.V.V.V.V.V.V.V.V.",
"V.V.V.V.V.V.V.V.V.V.V.V.V.V.V.V.V.V.V.V.V.V.V.V.V.V.V.t.t.t.5.t.5.u.t.u.5.p.u.u.u.u.p.5.t.V.V.V.V.V.V.V.V.V.V.V.V.V.V.V.V.V.V.V.V.V.V.V.V.V.V.V.",
"V.V.V.V.V.V.V.V.V.V.V.V.V.V.V.V.V.V.V.V.V.V.V.V.V.V.V.W 5.5.t.t.u.u.t.t.t.5.u.u.u.u.5.5.) V.V.V.V.V.V.V.V.V.V.V.V.V.V.V.V.V.V.V.V.V.V.V.V.V.V.V.",
"V.V.V.V.V.V.V.V.V.V.V.V.V.V.V.V.V.V.V.V.V.V.V.V.V.V.V.E R ` 5.t.u.u.5.t.t.t.t.5.5.3.) W R V.V.V.V.V.V.V.V.V.V.V.V.V.V.V.V.V.V.V.V.V.V.V.V.V.V.V.",
"V.V.V.V.V.V.V.V.V.V.V.V.V.V.V.V.V.V.V.V.V.V.V.V.V.V.V.E R R E Q ` 3.3.3.5.3.3._ ~ W E E R V.V.V.V.V.V.V.V.V.V.V.V.V.V.V.V.V.V.V.V.V.V.V.V.V.V.V.",
"V.V.V.V.V.V.V.V.V.V.V.V.V.V.V.V.V.V.V.V.V.V.V.V.V.V.V.E R R R R R R R R R R R R E E E E R V.V.V.V.V.V.V.V.V.V.V.V.V.V.V.V.V.V.V.V.V.V.V.V.V.V.V.",
"V.V.V.V.V.V.V.V.V.V.V.V.V.V.V.V.V.V.V.V.V.V.V.V.V.V.V.R R R R R R R R R R R R R E E E E R V.V.V.V.V.V.V.V.V.V.V.V.V.V.V.V.V.V.V.V.V.V.V.V.V.V.V.",
"V.V.V.V.V.V.V.V.V.V.V.V.V.V.V.V.V.V.V.V.V.V.V.V.V.V.V.R R R R R R R R R R R R R E E E E R V.V.V.V.V.V.V.V.V.V.V.V.V.V.V.V.V.V.V.V.V.V.V.V.V.V.V.",
"V.V.V.V.V.V.V.V.V.V.V.V.V.V.V.V.V.V.V.V.V.V.V.x.^ E E E R R R R R R R R R R R R R R R R E E E ~ c.V.V.V.V.V.V.V.V.V.V.V.V.V.V.V.V.V.V.V.V.V.V.V.",
"V.V.V.V.V.V.V.V.V.V.V.V.V.V.V.V.V.V.V.V.V.;.B.B.6.E E E R R R R R R R R R R R R R R R R E E E 6.B.B.z.V.V.V.V.V.V.V.V.V.V.V.V.V.V.V.V.V.V.V.V.V.",
"V.V.V.V.V.V.V.V.V.V.V.V.V.V.V.V.V.V.V.    -.B.B.d.E E E R R R R R R R R R R R R R R R R E E E d.N.N.-..   V.V.V.V.V.V.V.V.V.V.V.V.V.V.V.V.V.V.V.",
"V.V.V.V.V.V.V.V.V.V.V.V.V.V.V.V.V.        D B.B.v.Q E E R R R R R R R R R R R R R R E E E E W B.N.N.] .       V.V.V.V.V.V.V.V.V.V.V.V.V.V.V.V.V.",
"V.V.V.V.V.V.V.V.V.V.V.V.V.V.V..           X m.N.B.v.Q R R R R R R R R R R R R R R R R R E E v.B.N.m.. . . .       V.V.V.V.V.V.V.V.V.V.V.V.V.V.V.",
"V.V.V.V.V.V.V.V.V.V.V.V.V.. . .             ] N.B.B.d.Q R R R R R R R R R R R R R R R R E g.B.B.N.[ . . . .   .       V.V.V.V.V.V.V.V.V.V.V.V.V.",
"V.V.V.V.V.V.V.V.V.V.V.. . . . .                .B.B.B.g.W R R E R R R R R R R R E E R ^ d.B.B.B.} . . . . . . .           V.V.V.V.V.V.V.V.V.V.V.",
"V.V.V.V.V.V.V.V.V.  . . . . . .                 +.B.B.B.B.a.^ Q R R R R R R R R E ^ a.N.B.B.B.+.. . . . . . . .               V.V.V.V.V.V.V.V.V.",
"V.V.V.V.V.V.V.                                    O.B.B.B.B.B.d.t.7.` W W ` w.a.g.N.B.B.B.B.+.                                    V.V.V.V.V.V.V.",
"V.V.V.V.V.                                          $ k.B.B.B.B.B.B.B.B.B.B.N.N.B.B.B.B.j.$                                           V.V.V.V.V.",
"V.V.V.                                                  @ 2.N.B.B.B.B.B.B.N.N.B.B.B.2.#                                                   V.V.V.",
"V.V.                                                        O & { -.l.m.m.k.-.{ * +                                                         V.V.",
"V.                                                                                                                                            V.",
"V.                                                                                                                                            V.",
"                                                                                                                                                ",
"                                                                                                                                                ",
"                                                                                                                                                ",
"                                                                                                                                                ",
"                                                                                                                                                ",
"                                                                                                                                                ",
"                                                                                                                                                ",
"                                                                                                                                                ",
"                                                                                                                                              V.",
"V.V.                                                                                                                                          V."
};
