/* XPM */
static char *user_female[] = {
/* columns rows colors chars-per-pixel */
"72 72 135 2 ",
"   c #2C3E4F",
".  c #2C3E50",
"X  c #2D3E51",
"o  c #2D3F51",
"O  c #2D4052",
"+  c #2F4154",
"@  c #2F4256",
"#  c #314354",
"$  c #314559",
"%  c #32465A",
"&  c #33475C",
"*  c #33495D",
"=  c #33495E",
"-  c #34485D",
";  c #34495D",
":  c #34485E",
">  c #34495E",
",  c #35495E",
"<  c #34495F",
"1  c #35495F",
"2  c #36495F",
"3  c #344A5E",
"4  c #354A5E",
"5  c #354A5F",
"6  c #364B60",
"7  c #374C60",
"8  c #3E4F60",
"9  c #3C4F63",
"0  c #3B5064",
"q  c #3E5165",
"w  c #3D5266",
"e  c #3E5266",
"r  c #3E5366",
"t  c #3E5267",
"y  c #405468",
"u  c #415468",
"i  c #415568",
"p  c #415668",
"a  c #425668",
"s  c #45596C",
"d  c #4D5F71",
"f  c #556371",
"g  c #576979",
"h  c #586979",
"j  c #5B6C7C",
"k  c #5D6E7E",
"l  c #5F6E7F",
"z  c #5F6F7F",
"x  c #D35400",
"c  c #D45705",
"v  c #D56013",
"b  c #D66920",
"n  c #D76B24",
"m  c #D87431",
"M  c #D97938",
"N  c #DB844B",
"B  c #DC8850",
"V  c #DC8D59",
"C  c #DD9564",
"Z  c #DAA27A",
"A  c #DFA279",
"S  c #617181",
"D  c #647583",
"F  c #6F7D8B",
"G  c #737F8A",
"H  c #73808B",
"J  c #72818E",
"K  c #778591",
"L  c #7C8892",
"P  c #85919C",
"I  c #8B959E",
"U  c #8D97A2",
"Y  c #8C98A2",
"T  c #949EA7",
"R  c #95A5A6",
"E  c #96A5A6",
"W  c #96A6A7",
"Q  c #9BAAAB",
"!  c #9DABAC",
"~  c #9DACAC",
"^  c #9FADAE",
"/  c #A0ADAF",
"(  c #A0AEAF",
")  c #BEB5AA",
"_  c #A1AAB1",
"`  c #A1ABB2",
"'  c #A3ACB3",
"]  c #A3ACB4",
"[  c #A7AFB7",
"{  c #A5B1B3",
"}  c #A4B2B3",
"|  c #AEB4B0",
" . c #A9B4B6",
".. c #AAB2B9",
"X. c #AAB7B9",
"o. c #AFB7BC",
"O. c #AFB6BD",
"+. c #B1B8BE",
"@. c #B3B9BF",
"#. c #B3BBBE",
"$. c #B0BCBE",
"%. c #CCAE98",
"&. c #E1AB86",
"*. c #E3B292",
"=. c #E4BFA4",
"-. c #E6CDBC",
";. c #B5BBC0",
":. c #B4BCC1",
">. c #B6BDC2",
",. c #B6BEC2",
"<. c #B7BFC2",
"1. c #B8BFC2",
"2. c #B4C0C1",
"3. c #B5C0C2",
"4. c #B7C2C3",
"5. c #BBC1C5",
"6. c #BCC1C6",
"7. c #BCC2C6",
"8. c #BDC2C6",
"9. c #BDC3C7",
"0. c #BEC9C9",
"q. c #CAD2D3",
"w. c #D2D9DA",
"e. c #D6DDDE",
"r. c #E7D1C1",
"t. c #E8D7CB",
"y. c #E9D9CE",
"u. c #E9DBD0",
"i. c #E9DFD7",
"p. c #E6EBEC",
"a. c #E8EDEE",
"s. c #E9EDEF",
"d. c #EAEEEF",
"f. c #ECF0F1",
"g. c None",
/* pixels */
"g.g.g.g.g.g.g.g.g.g.g.g.g.g.g.g.g.g.g.g.g.g.g.g.g.g.g.g.g.g.g.g.S g 0 6 , 0 g S g.g.g.g.g.g.g.g.g.g.g.g.g.g.g.g.g.g.g.g.g.g.g.g.g.g.g.g.g.g.g.g.",
"g.g.g.g.g.g.g.g.g.g.g.g.g.g.g.g.g.g.g.g.g.g.g.g.g.g.g.g.g.g t 6 , & = , = , , , = t S g.g.g.g.g.g.g.g.g.g.g.g.g.g.g.g.g.g.g.g.g.g.g.g.g.g.g.g.g.",
"g.g.g.g.g.g.g.g.g.g.g.g.g.g.g.g.g.g.g.g.g.g.g.g.g.g.g.p = & 6 & , , , = = , = , 6 & = & p g.g.g.g.g.g.g.g.g.g.g.g.g.g.g.g.g.g.g.g.g.g.g.g.g.g.g.",
"g.g.g.g.g.g.g.g.g.g.g.g.g.g.g.g.g.g.g.g.g.g.g.g.g.6 6 6 6 & = = , , , , , = , = = & 6 6 6 6 6 g.g.g.g.g.g.g.g.g.g.g.g.g.g.g.g.g.g.g.g.g.g.g.g.g.",
"g.g.g.g.g.g.g.g.g.g.g.g.g.g.g.g.g.g.g.g.g.g.g.g.6 6 = & 6 = & 6 , = & 6 6 , = , 6 & = = = & = 6 g.g.g.g.g.g.g.g.g.g.g.g.g.g.g.g.g.g.g.g.g.g.g.g.",
"g.g.g.g.g.g.g.g.g.g.g.g.g.g.g.g.g.g.g.g.g.g.g.6 6 & 6 & 6 & = 6 = , , S j 6 , = = & 6 & 6 6 = & 6 g.g.g.g.g.g.g.g.g.g.g.g.g.g.g.g.g.g.g.g.g.g.g.",
"g.g.g.g.g.g.g.g.g.g.g.g.g.g.g.g.g.g.g.g.g.g.& = & 6 & 6 = = & & , = 6 [ [ 6 = , = 6 & 6 & = & 6 6 6 g.g.g.g.g.g.g.g.g.g.g.g.g.g.g.g.g.g.g.g.g.g.",
"g.g.g.g.g.g.g.g.g.g.g.g.g.g.g.g.g.g.g.g.g.6 6 = 6 & 6 & & 6 6 = = , J 7.7.J , = & 6 = = & 6 < < 6 & , g.g.g.g.g.g.g.g.g.g.g.g.g.g.g.g.g.g.g.g.g.",
"g.g.g.g.g.g.g.g.g.g.g.g.g.g.g.g.g.g.g.g.6 6 6 & & & & 6 6 $ : 6 , t ,.7.9.>.u 6 6 : : 6 & < < & , = , = g.g.g.g.g.g.g.g.g.g.g.g.g.g.g.g.g.g.g.g.",
"g.g.g.g.g.g.g.g.g.g.g.g.g.g.g.g.g.g.g.6 6 6 & & 6 6 & & 6 6 : : = Y 7.7.9.9.U 6 6 6 : : 6 & & 6 = , = , , g.g.g.g.g.g.g.g.g.g.g.g.g.g.g.g.g.g.g.",
"g.g.g.g.g.g.g.g.g.g.g.g.g.g.g.g.g.g.& 6 & & 6 6 & & 6 & $ 6 6 : g q.7.7.9.9.1.g & 6 6 o < < < < , = , = , , g.g.g.g.g.g.g.g.g.g.g.g.g.g.g.g.g.g.",
"g.g.g.g.g.g.g.g.g.g.g.g.g.g.g.g.g.g.& & 6 & & & & 6 & & 6 & 6 s ,.7.7.7.9.9.9.:.s 6 6 6 & 6 & & = , , , , , g.g.g.g.g.g.g.g.g.g.g.g.g.g.g.g.g.g.",
"g.g.g.g.g.g.g.g.g.g.g.g.g.g.g.g.g.6 6 & & 6 6 = < 6 & < : 6 u ;.1.7.7.7.7.7.q.1.;.u 6 6 6 6 & 6 , = , = , = , g.g.g.g.g.g.g.g.g.g.g.g.g.g.g.g.g.",
"g.g.g.g.g.g.g.g.g.g.g.g.g.g.g.g.g.6 6 6 = = & & < & & < 6 t ;.>.7.7.7.7.7.7.1.1.>.;.t 6 $ 6 & 6 = , = , = , = g.g.g.g.g.g.g.g.g.g.g.g.g.g.g.g.g.",
"g.g.g.g.g.g.g.g.g.g.g.g.g.g.g.g.& = 6 = 6 & = 6 < & 6 & t ] 9.9.7.7.7.1.q.7.7.1.1.9.[ t 6 & & & , = , = , , , , g.g.g.g.g.g.g.g.g.g.g.g.g.g.g.g.",
"g.g.g.g.g.g.g.g.g.g.g.g.g.g.g.g.6 = & & 6 = = = < < & S ;.9.9.9.7.7.7.q.1.1.7.q.1.9.1.:.S $ 6 & = , = , , , , , g.g.g.g.g.g.g.g.g.g.g.g.g.g.g.g.",
"g.g.g.g.g.g.g.g.g.g.g.g.g.g.g.g., , , = , = , = 6 t U 9.9.9.9.9.9.9.9.9.9.9.9.9.9.9.9.9.1.U y 6 , = , = , = , = g.g.g.g.g.g.g.g.g.g.g.g.g.g.g.g.",
"g.g.g.g.g.g.g.g.g.g.g.g.g.g.g., , , = , = , = , S :.1.9.9.9.9.9.9.9.9.9.9.9.9.9.9.9.9.9.9.1.:.S = , = , = , = , , g.g.g.g.g.g.g.g.g.g.g.g.g.g.g.",
"g.g.g.g.g.g.g.g.g.g.g.g.g.g.g., , , , = , , , F 9.9.9.9.9.9.9.9.9.9.9.9.9.9.9.9.9.9.9.9.9.9.9.9.F 6 , = , = , = , g.g.g.g.g.g.g.g.g.g.g.g.g.g.g.",
"g.g.g.g.g.g.g.g.g.g.g.g.g.g.g., , , = , , 6 j 4.9.9.9.9.9.9.9.9.9.9.9.9.9.9.9.9.9.9.9.9.9.9.9.9.5.g = , = , = , , g.g.g.g.g.g.g.g.g.g.g.g.g.g.g.",
"g.g.g.g.g.g.g.g.g.g.g.g.g.g.g., , = , = = , ` 7.9.9.9.9.9.9.9.9.9.9.9.9.9.9.9.9.9.9.9.9.9.9.9.9.7.` 6 = , = , = , g.g.g.g.g.g.g.g.g.g.g.g.g.g.g.",
"g.g.g.g.g.g.g.g.g.g.g.g.g.g.g., = , = , , t 7.7.9.9.9.9.9.9.9.9.9.9.9.9.9.9.9.9.9.9.9.9.9.9.9.9.7.7.t 6 = , = , , g.g.g.g.g.g.g.g.g.g.g.g.g.g.g.",
"g.g.g.g.g.g.g.g.g.g.g.g.g.g.g., , = , = 6 D 7.7.9.9.9.9.9.9.9.9.9.9.9.9.9.9.9.9.9.9.9.9.9.9.9.9.7.7.D 6 , = , = , g.g.g.g.g.g.g.g.g.g.g.g.g.g.g.",
"g.g.g.g.g.g.g.g.g.g.g.g.g.g.g., = , , 6 6 K 7.7.9.9.9.9.9.9.9.9.9.9.9.9.9.9.9.9.9.9.9.9.9.9.9.9.7.7.L 6 = , = , , g.g.g.g.g.g.g.g.g.g.g.g.g.g.g.",
"g.g.g.g.g.g.g.g.g.g.g.g.g.g.g., , = , = & P 7.7.7.7.7.q.9.9.9.9.9.9.9.9.9.9.9.9.9.9.9.9.9.9.9.9.7.7.P , , = , = , g.g.g.g.g.g.g.g.g.g.g.g.g.g.g.",
"g.g.g.g.g.g.g.g.g.g.g.g.g.g.g., = , = , 6 T 7.7.7.7.1.1.9.9.9.9.9.9.9.9.9.9.9.9.9.9.9.9.9.9.9.9.7.7.T , = , = , , g.g.g.g.g.g.g.g.g.g.g.g.g.g.g.",
"g.g.g.g.g.g.g.g.g.g.g.g.g.g.g., , = , = 6 ` 7.1.1.1.7.7.9.9.9.9.9.9.9.9.9.9.9.9.9.9.9.9.9.9.9.9.7.7.` 6 , = , = , g.g.g.g.g.g.g.g.g.g.g.g.g.g.g.",
"g.g.g.g.g.g.g.g.g.g.g.g.g.g.g.g.= , = , & :.7.q.q.1.q.7.9.9.9.9.9.9.9.9.9.9.9.9.9.9.9.9.9.9.9.9.0.7.O., = , = , g.g.g.g.g.g.g.g.g.g.g.g.g.g.g.g.",
"g.g.g.g.g.g.g.g.g.g.g.g.g.g.g.g., = = , = 5.7.7.1.1.9.9.9.9.9.9.9.9.9.9.9.9.9.9.1.1.9.9.7.7.7.7.7.7.7.6 = , = = g.g.g.g.g.g.g.g.g.g.g.g.g.g.g.g.",
"g.g.g.g.g.g.g.g.g.g.g.g.g.g.g.g.= , , = 6 7.7.7.q.1.9.9.9.9.9.9.9.9.9.9.9.9.9.9.q.1.9.9.q.7.7.7.7.7.7.6 , , , = g.g.g.g.g.g.g.g.g.g.g.g.g.g.g.g.",
"g.g.g.g.g.g.g.g.g.g.g.g.g.g.g.g.= , , , 0 7.7.0.1.9.9.9.9.9.9.9.9.9.9.9.9.9.9.9.1.1.1.q.1.1.1.7.7.7.7.t , , , , g.g.g.g.g.g.g.g.g.g.g.g.g.g.g.g.",
"g.g.g.g.g.g.g.g.g.g.g.g.g.g.g.g.g.6 , = t 7.7.7.1.9.9.9.9.9.9.9.9.9.9.9.9.9.9.9.q.1.1.7.7.7.q.7.7.0.7.t , , , g.g.g.g.g.g.g.g.g.g.g.g.g.g.g.g.g.",
"g.g.g.g.g.g.g.g.g.g.g.g.g.g.g.g.g.6 o 6 p 9.9.9.9.9.9.9.9.9.9.9.9.9.9.9.9.9.9.9.9.9.9.9.9.9.9.9.9.9.9.y , , = g.g.g.g.g.g.g.g.g.g.g.g.g.g.g.g.g.",
"g.g.g.g.g.g.g.g.g.g.g.g.g.g.g.g.g.6 6 6 8 9.9.9.9.9.9.9.9.9.9.1.9.9.9.9.9.9.9.9.9.9.9.9.9.9.9.9.9.9.1.y , , , g.g.g.g.g.g.g.g.g.g.g.g.g.g.g.g.g.",
"g.g.g.g.g.g.g.g.g.g.g.g.g.g.g.g.g.6 6 6 6 :.9.9.9.9.9.9.9.9.q.1.9.9.9.9.9.9.9.9.9.9.9.9.9.9.9.9.9.9.;.6 , , , g.g.g.g.g.g.g.g.g.g.g.g.g.g.g.g.g.",
"g.g.g.g.g.g.g.g.g.g.g.g.g.g.g.g.g.6 6 6 o L 9.9.9.9.9.9.9.9.1.1.9.9.9.9.9.9.9.9.9.9.9.9.9.9.9.9.9.1.P o , , , g.g.g.g.g.g.g.g.g.g.g.g.g.g.g.g.g.",
"g.g.g.g.g.g.g.g.g.g.g.g.g.g.g.g.g.g.6 6 o & _ 1.9.9.9.9.q.1.1.1.9.9.9.9.9.9.9.9.9.9.9.9.q.7.1.1.9._ X X 6 & g.g.g.g.g.g.g.g.g.g.g.g.g.g.g.g.g.g.",
"g.g.g.g.g.g.g.g.g.g.g.g.g.g.g.g.g.g.6 & X X 8 :.9.9.9.9.7.7.1.q.9.9.9.9.9.9.9.9.9.9.9.9.1.7.7.q.O.u X X & 6 g.g.g.g.g.g.g.g.g.g.g.g.g.g.g.g.g.g.",
"g.g.g.g.g.g.g.g.g.g.g.g.g.g.g.g.g.g.& & X X X f 1.9.9.9.1.7.7.5.9.9.9.9.9.9.9.9.9.9.q.1.1.1.7.5.f X X X & 6 g.g.g.g.g.g.g.g.g.g.g.g.g.g.g.g.g.g.",
"g.g.g.g.g.g.g.g.g.g.g.g.g.g.g.g.g.g.6 O X X X X G 9.9.9.1.q.7.5.9.9.9.9.9.9.9.9.9.1.1.1.1.q.5.H X X X X X 6 g.g.g.g.g.g.g.g.g.g.g.g.g.g.g.g.g.g.",
"g.g.g.g.g.g.g.g.g.g.g.g.g.g.g.g.g.g.& X   X   X X I 5.7.7.7.1.5.9.9.9.9.7.7.7.7.7.1.1.7.5.7.Y X   X   X X & g.g.g.g.g.g.g.g.g.g.g.g.g.g.g.g.g.g.",
"g.g.g.g.g.g.g.g.g.g.g.g.g.g.g.g.g.g.X X X   X     O H 5.q.7.q.7.9.9.9.9.1.q.7.7.7.q.7.7.5.G O   X   X     X g.g.g.g.g.g.g.g.g.g.g.g.g.g.g.g.g.g.",
"g.g.g.g.g.g.g.g.g.g.g.g.g.g.g.g.g.g.g.g.  X   X X   X ( #.5.7.7.9.9.9.9.7.7.7.7.7.7.q.:.^ X X X   X X   g.g.g.g.g.g.g.g.g.g.g.g.g.g.g.g.g.g.g.g.",
"g.g.g.g.g.g.g.g.g.g.g.g.g.g.g.g.g.g.g.g.g.g.g.g.  X   R R ` 5.5.9.9.9.9.7.7.7.7.7.1.` T R X X X g.g.g.g.g.g.g.g.g.g.g.g.g.g.g.g.g.g.g.g.g.g.g.g.",
"g.g.g.g.g.g.g.g.g.g.g.g.g.g.g.g.g.g.g.g.g.g.g.g.g.g.g.R R R R ^ ;.:.,.1.1.1.,...^ R R R R g.g.g.g.g.g.g.g.g.g.g.g.g.g.g.g.g.g.g.g.g.g.g.g.g.g.g.",
"g.g.g.g.g.g.g.g.g.g.g.g.g.g.g.g.g.g.g.g.g.g.g.g.g.g.g.R R R R R T T R R R R R R R R R R R g.g.g.g.g.g.g.g.g.g.g.g.g.g.g.g.g.g.g.g.g.g.g.g.g.g.g.",
"g.g.g.g.g.g.g.g.g.g.g.g.g.g.g.g.g.g.g.g.g.g.g.g.g.g.g.R R R R R R R R R R R R R R R R R R g.g.g.g.g.g.g.g.g.g.g.g.g.g.g.g.g.g.g.g.g.g.g.g.g.g.g.",
"g.g.g.g.g.g.g.g.g.g.g.g.g.g.g.g.g.g.g.g.g.g.g.g.g.g.g.R R R R R R R R R R R R R R R R R R g.g.g.g.g.g.g.g.g.g.g.g.g.g.g.g.g.g.g.g.g.g.g.g.g.g.g.",
"g.g.g.g.g.g.g.g.g.g.g.g.g.g.g.g.g.g.g.g.g.g.g.x ^ R R R R R R R R R R R R R R R R R R R R R R ~ x g.g.g.g.g.g.g.g.g.g.g.g.g.g.g.g.g.g.g.g.g.g.g.",
"g.g.g.g.g.g.g.g.g.g.g.g.g.g.g.g.g.g.g.g.g.x x x | R R R R R R R R R R R R R R R R R R R R R R | x x x g.g.g.g.g.g.g.g.g.g.g.g.g.g.g.g.g.g.g.g.g.",
"g.g.g.g.g.g.g.g.g.g.g.g.g.g.g.g.g.g.g.x x x x x ) R R R R R R R R R R R R R R R R R R R R R W ) x x x x x g.g.g.g.g.g.g.g.g.g.g.g.g.g.g.g.g.g.g.",
"g.g.g.g.g.g.g.g.g.g.g.g.g.g.g.g.g.x c x x x x x %.R R R R R R R R R R R R R R R R R R R R R W %.x x x x x x x g.g.g.g.g.g.g.g.g.g.g.g.g.g.g.g.g.",
"g.g.g.g.g.g.g.g.g.g.g.g.g.g.g.x x x x x x x x x A W R R R R R R R R R R R R R R R R R R R R W A x x x x x x x x x g.g.g.g.g.g.g.g.g.g.g.g.g.g.g.",
"g.g.g.g.g.g.g.g.g.g.g.g.g.x x x x x x x x x x x N O.R W R R R R R R R R R R R R R R R R R R O.N x x x x x x x x x x x g.g.g.g.g.g.g.g.g.g.g.g.g.",
"g.g.g.g.g.g.g.g.g.g.g.x x x x x x x x x x x x x v w.W W R R R R R R R R R R R R R R R R R R e.v x x x x x x x x x x x x x g.g.g.g.g.g.g.g.g.g.g.",
"g.g.g.g.g.g.g.g.g.x x x x x x x x x x x x x x x c y.} W R R R R R R R R R R R R R R R R R } y.x x x x x x x x x x x x x x x x g.g.g.g.g.g.g.g.g.",
"g.g.g.g.g.g.g.x x x x x x x x x x x x x x x x x x *.q.W R R R R R R R R R R R R R R R R R q.*.x x x x x x x x x x x x x x x x x x g.g.g.g.g.g.g.",
"g.g.g.g.g.x x x x x x x x x x x x x x x x x x x x V a.Q R R R R R R R R R R R R R R R R ^ p.V x x x x x x x x x x x x x x x x x x x x g.g.g.g.g.",
"g.g.g.x x x x x x x x x x x x x x x x x x x x x x b f.0.R R R R R R R R R R R R R R R R 0.f.v x x x x x x x x x x x x x x x x x x x x x x g.g.g.",
"g.g.x x x x x x x x x x x x x x x x x x x x x x x x i.a.~ R R R R R R R R R R R R R R ^ p.i.c c x x x x x x x x x x x x x x x x x x x x x x g.g.",
"g.x x x x x x x x x x x x x x x x x x x x x x x x x &.f.w.W W R R R R R R R R R R R R w.f.&.x x x x x x x x x x x x x x x x x x x x x x x x x g.",
"g.x x x x x x x x x x x x x x x x x x x x x x x x x m f.f.2.R R R R R R R R R R R W 4.f.f.m x x x x x x x x x x x x x x x x x x x x x x x x x g.",
"x x x x x x x x x x x x x x x x x x x x x x x x x x x y.f.a.X.R R R R R R R R R R ..d.f.y.x x x x x x x x x x x x x x x x x x x x x x x x x x x ",
"x x x x x x x x x x x x x x x x x x x x x x x x x x x A f.f.p.} R R R R R R R R } p.f.f.A x x x x x x x x x x x x x x x x x x x x x x x x x x x ",
"x x x x x x x x x x x x x x x x x x x x x x x x x x x b f.f.f.s.5.R R R R R R 4.d.f.f.f.n x x x x x x x x x x x x x x x x x x x x x x x x x x x ",
"x x x x x x x x x x x x x x x x x x x x x x x x x x x x r.f.f.f.f.w.,.` ^ 4.w.f.f.f.f.r.x x x x x x x x x x x x x x x x x x x x x x x x x x x x ",
"x x x x x x x x x x x x x x x x x x x x x x x x x x x x C f.f.f.f.f.f.f.f.f.f.f.f.f.f.C x x x x x x x x x x x x x x x x x x x x x x x x x x x x ",
"x x x x x x x x x x x x x x x x x x x x x x x x x x x x c u.f.f.f.f.f.f.f.f.f.f.f.f.u.c x x x x x x x x x x x x x x x x x x x x x x x x x x x x ",
"x x x x x x x x x x x x x x x x x x x x x x x x x x x x x B f.f.f.f.f.f.f.f.f.f.f.f.B x x x x x x x x x x x x x x x x x x x x x x x x x x x x x ",
"x x x x x x x x x x x x x x x x x x x x x x x x x x x x x x -.f.f.f.f.f.f.f.f.f.f.-.x x x x x x x x x x x x x x x x x x x x x x x x x x x x x x ",
"x x x x x x x x x x x x x x x x x x x x x x x x x x x x x x M f.f.f.f.f.f.f.s.f.f.m x x x x x x x x x x x x x x x x x x x x x x x x x x x x x g.",
"g.g.x x x x x x x x x x x x x x x x x x x x x x x x x x x x x -.f.f.f.f.f.f.s.s.-.x x x x x x x x x x x x x x x x x x x x x x x x x x x x x x g."
};
