/* XPM */
static char *webcam[] = {
/* columns rows colors chars-per-pixel */
"72 72 183 2 ",
"   c #2C3E50",
".  c #2D3F52",
"X  c #2F4155",
"o  c #2F4256",
"O  c #304253",
"+  c #304255",
"@  c #314355",
"#  c #304457",
"$  c #32455A",
"%  c #32475A",
"&  c #32465B",
"*  c #32475B",
"=  c #33485D",
"-  c #34495D",
";  c #34495E",
":  c #344B60",
">  c #384D61",
",  c #465A6D",
"<  c #556879",
"1  c #566879",
"2  c #34678D",
"3  c #6B7B8B",
"4  c #75818E",
"5  c #7F8C8D",
"6  c #7F8D8E",
"7  c #778391",
"8  c #798794",
"9  c #7A8896",
"0  c #3488C1",
"q  c #3498DB",
"w  c #808C8D",
"e  c #808D8E",
"r  c #818D8E",
"t  c #818E8F",
"y  c #818F90",
"u  c #828F90",
"i  c #839090",
"p  c #839092",
"a  c #839192",
"s  c #849192",
"d  c #859293",
"f  c #869293",
"g  c #849294",
"h  c #859394",
"j  c #879394",
"k  c #869395",
"l  c #869494",
"z  c #879596",
"x  c #879597",
"c  c #889697",
"v  c #899798",
"b  c #8B999B",
"n  c #8B9A9B",
"m  c #8C999A",
"M  c #8D9C9D",
"N  c #8E9D9E",
"B  c #909FA0",
"V  c #909DA7",
"C  c #909CA8",
"Z  c #91A0A1",
"A  c #91A0A2",
"S  c #93A3A4",
"D  c #94A5A6",
"F  c #95A5A6",
"G  c #96A5A6",
"H  c #95A6A7",
"J  c #96A6A7",
"K  c #97A6A7",
"L  c #96A7A7",
"P  c #99A4A6",
"I  c #97A6A8",
"U  c #97A7A8",
"Y  c #98A7A8",
"T  c #99A8A9",
"R  c #9AA8AA",
"E  c #9AA9AA",
"W  c #9BAAAA",
"Q  c #9BAAAB",
"!  c #9CAAAB",
"~  c #9CABAB",
"^  c #9DABAD",
"/  c #9EABAD",
"(  c #9EACAE",
")  c #9FACAE",
"_  c #9EADAE",
"`  c #9FADAE",
"'  c #9FACAF",
"]  c #A2ACAD",
"[  c #A0ADAF",
"{  c #A1ADAF",
"}  c #A0AEAF",
"|  c #A1AEB0",
" . c #A2AFB1",
".. c #A3AFB1",
"X. c #A0AAB4",
"o. c #A3B0B1",
"O. c #A3B0B2",
"+. c #A6B0B1",
"@. c #A4B0B2",
"#. c #A5B1B2",
"$. c #A4B0B3",
"%. c #A4B1B3",
"&. c #A5B1B3",
"*. c #A5B2B3",
"=. c #A6B1B4",
"-. c #A8B3B3",
";. c #AAB6B8",
":. c #AAB7B9",
">. c #ACB6B8",
",. c #AFB8BB",
"<. c #B0B9BC",
"1. c #B0B9BD",
"2. c #B1BDBE",
"3. c #B3BCBF",
"4. c #B4BCBF",
"5. c #B4BDC0",
"6. c #B5BDC1",
"7. c #B6BEC6",
"8. c #B4C0C1",
"9. c #BAC1C4",
"0. c #BAC1C5",
"q. c #B8C3C4",
"w. c #BBC2C5",
"e. c #BDC3C7",
"r. c #BDC5C6",
"t. c #BEC4C8",
"y. c #C0C6C9",
"u. c #C0C6CA",
"i. c #C3CBCB",
"p. c #C4CBCB",
"a. c #C5CCD0",
"s. c #C5CCD1",
"d. c #C6CDD2",
"f. c #C6CDD3",
"g. c #C6CED3",
"h. c #C7CED3",
"j. c #C8CED2",
"k. c #C7D0D1",
"l. c #CAD1D6",
"z. c #CBD1D6",
"x. c #CCD1D4",
"c. c #CED3D6",
"v. c #CBD4D4",
"b. c #CDD4D5",
"n. c #CCD5D5",
"m. c #D0D6D7",
"M. c #D0D6D8",
"N. c #D1D7D8",
"B. c #D4DADB",
"V. c #D3DBDC",
"C. c #D5DCDD",
"Z. c #D6DDDE",
"A. c #D6DDDF",
"S. c #D8DCDF",
"D. c #D9DFDF",
"F. c #D9DFE0",
"G. c #DADFE1",
"H. c #DBE0E2",
"J. c #DCE1E2",
"K. c #DCE1E4",
"L. c #DDE3E4",
"P. c #DEE3E4",
"I. c #DFE3E5",
"U. c #DFE4E5",
"Y. c #DFE4E6",
"T. c #E0E5E6",
"R. c #E0E4E7",
"E. c #E0E5E7",
"W. c #E2E6E8",
"Q. c #E3E7E9",
"!. c #E4E9E9",
"~. c #E5E9EA",
"^. c #E6EBEC",
"/. c #E7EBED",
"(. c #E7ECED",
"). c #E8ECED",
"_. c #E8ECEE",
"`. c #E8EDEE",
"'. c #EAEEEF",
"]. c #EAEFF0",
"[. c #EBEFF0",
"{. c #ECF0F1",
"}. c None",
/* pixels */
"}.}.}.}.}.}.}.}.}.}.}.}.}.}.}.}.}.}.}.}.}.}.}.}.}.}.}.}.}.}.}.}.}.}.}.}.}.}.}.}.}.}.}.}.}.}.}.}.}.}.}.}.}.}.}.}.}.}.}.}.}.}.}.}.}.}.}.}.}.}.}.}.",
"}.}.}.}.}.}.}.}.}.}.}.}.}.}.}.}.}.}.}.}.}.}.}.}.}.}.}.}.}.}.}.}.}.}.}.}.}.}.}.}.}.}.}.}.}.}.}.}.}.}.}.}.}.}.}.}.}.}.}.}.}.}.}.}.}.}.}.}.}.}.}.}.",
"}.}.}.}.}.}.}.}.}.}.}.}.}.}.}.}.}.}.}.}.}.}.}.}.}.}.}.}.}.}.}.}.}.}.}.}.}.}.}.}.}.}.}.}.}.}.}.}.}.}.}.}.}.}.}.}.}.}.}.}.}.}.}.}.}.}.}.}.}.}.}.}.",
"}.}.}.}.}.}.}.}.}.}.}.}.}.}.}.}.}.}.}.}.}.}.}.}.}.}.}.}.}.O. .) ] ) ) F e.e.e.e.e.}.}.}.}.}.}.}.}.}.}.}.}.}.}.}.}.}.}.}.}.}.}.}.}.}.}.}.}.}.}.}.",
"}.}.}.}.}.}.}.}.}.}.}.}.}.}.}.}.}.}.}.}.}.}.}.}.}.}.] ) F F F F F F F F e.e.e.e.e.e.e.e.e.}.}.}.}.}.}.}.}.}.}.}.}.}.}.}.}.}.}.}.}.}.}.}.}.}.}.}.",
"}.}.}.}.}.}.}.}.}.}.}.}.}.}.}.}.}.}.}.}.}.}.}.] ) F F F F F F F F F F F e.e.e.e.e.e.e.e.e.e.e.e.e.}.}.}.}.}.}.}.}.}.}.}.}.}.}.}.}.}.}.}.}.}.}.}.",
"}.}.}.}.}.}.}.}.}.}.}.}.}.}.}.}.}.}.}.}.}. .F F F F F 6 6 6 6 6 6 6 6 6 F F F F F F F F F e.e.e.e.e.e.}.}.}.}.}.}.}.}.}.}.}.}.}.}.}.}.}.}.}.}.}.",
"}.}.}.}.}.}.}.}.}.}.}.}.}.}.}.}.}.}.}.O.Y F F F F F F 6 6 6 6 6 6 6 6 6 F F F F F F F F F e.e.e.e.e.e.e.}.}.}.}.}.}.}.}.}.}.}.}.}.}.}.}.}.}.}.}.",
"}.}.}.}.}.}.}.}.}.}.}.}.}.}.}.}.}.O.) F F F F F F F F 5 5 5 5 5 6 5 5 5 F F F F F F F F F e.e.e.e.e.e.e.e.e.}.}.}.}.}.}.}.}.}.}.}.}.}.}.}.}.}.}.",
"}.}.}.}.}.}.}.}.}.}.}.}.}.}.}.}.] F F F F F F F F F F F F F F F F F F F e.e.e.e.e.e.e.e.e.e.e.e.e.e.e.e.e.e.e.e.}.}.}.}.}.}.}.}.}.}.}.}.}.}.}.}.",
"}.}.}.}.}.}.}.}.}.}.}.}.}.}.}.) F F F F F F F F F F F F F F F F F F F F e.e.e.e.e.e.e.e.e.e.e.e.e.e.e.e.e.e.e.e.e.}.}.}.}.}.}.}.}.}.}.}.}.}.}.}.",
"}.}.}.}.}.}.}.}.}.}.}.}.}.}.) F F F F F F F F F F F F F F F F F F F F F e.e.e.e.e.e.e.e.e.e.e.e.e.e.e.e.e.e.e.e.e.e.}.}.}.}.}.}.}.}.}.}.}.}.}.}.",
"}.}.}.}.}.}.}.}.}.}.}.}.}.Y F F F F F F F F F F F F F 5 6 6 6 5 5 5 5 5 F F F F F F F F F e.e.e.e.e.e.e.e.e.e.e.e.e.e.}.}.}.}.}.}.}.}.}.}.}.}.}.",
"}.}.}.}.}.}.}.}.}.}.}.}.Y F F F F F F F F F F F F F F 5 6 6 6 6 5 5 5 5 F F F F F F F F F e.e.e.e.e.e.e.e.e.e.e.e.e.e.e.}.}.}.}.}.}.}.}.}.}.}.}.",
"}.}.}.}.}.}.}.}.}.}.}.) F F F F F F F F F F F F F F F 5 6 6 6 6 5 5 5 5 F F F P F F F F F e.e.e.e.e.e.e.e.e.e.e.e.e.e.e.e.}.}.}.}.}.}.}.}.}.}.}.",
"}.}.}.}.}.}.}.}.}.}.) F F F F F F F F F F F F F F F F F F F F F F F F F 7.y.7.y.e.e.e.e.e.e.e.e.e.e.e.e.e.e.e.e.e.e.e.e.e.e.}.}.}.}.}.}.}.}.}.}.",
"}.}.}.}.}.}.}.}.}.O.F F F F F F F F F F F F F F F F F F F F F F F F F P e.e.e.e.e.e.e.e.e.e.y.7.e.e.e.e.e.e.e.e.e.e.e.e.e.e.e.}.}.}.}.}.}.}.}.}.",
"}.}.}.}.}.}.}.}.O.F F F F F F F F F F F F F F F F F F F F F F F F F F P e.e.e.e.e.e.e.e.e.e.e.y.e.e.e.e.e.e.e.e.e.e.e.e.e.e.e.}.}.}.}.}.}.}.}.}.",
"}.}.}.}.}.}.}.}.Y F F F F F F F F F F F F F F F F F F F F F ) 8.l.S.E.~.'.~.E.G.x.y.e.e.e.e.7.y.e.e.e.e.e.e.e.e.e.e.e.e.e.e.e.e.}.}.}.}.}.}.}.}.",
"}.}.}.}.}.}.}.O.F F F F F F F F F F F F F F F F F F F F :.J.`.{.{.{.{.{.{.{.{.{.{.{.E.x.e.e.y.y.e.e.e.e.e.e.e.e.e.e.e.e.e.e.e.e.}.}.}.}.}.}.}.}.",
"}.}.}.}.}.}.}.Y F F F F F F F F F F F F F F F F F F :.F.{.{.{.{.{.{.{.{.{.{.{.{.{.{.{.{.W.z.t.7.e.e.e.e.e.e.e.e.e.e.e.e.e.e.e.e.e.}.}.}.}.}.}.}.",
"}.}.}.}.}.}. .F F F F F F F F F F F F F F F F F I k.{.{.{.{.{.{.{.{.{.{.{.{.{.{.{.{.{.{.{.{.G.t.e.e.e.e.e.e.e.e.e.e.e.e.e.e.e.e.e.e.}.}.}.}.}.}.",
"}.}.}.}.}.}.I F F F F F F F F F F F F F F F F ) Z.{.{.{.{.{.{.{.{.{.{.{.{.{.{.{.{.{.{.{.{.{.[.W.y.e.e.e.e.e.e.e.e.e.e.e.e.e.e.e.e.e.}.}.}.}.}.}.",
"}.}.}.}.}. .F F F F F F F F F F F F F F F F ) J.{.{.{.{.{.{.{.{.{.{.{.{.{.{.{.{.{.{.{.{.{.[.[.{.(.y.e.e.e.e.e.e.e.e.e.e.e.e.e.e.e.e.e.}.}.}.}.}.",
"}.}.}.}.}.) F F F F F F F F F F F F F F F F Z.{.{.{.{.{.{.{.{.J.7.V 3 , , 3 C 7.J.[.{.[.[.{.{.{.'.E.y.e.e.e.e.e.e.e.e.e.e.e.e.e.e.e.e.}.}.}.}.}.",
"}.}.}.}.}.F F F F F F F F F F F F F F F F k.{.{.{.{.{.{.{.(.C > ; ; ; ; ; ; ; ; > C [.[.{.{.{.{.'.'.S.y.e.e.e.e.e.e.e.e.e.e.e.e.e.e.e.}.}.}.}.}.",
"}.}.}.}.O.F F F F F F F F F F F F F F F :.{.{.{.{.{.{.{.l.< ; ; ; ; ; ; ; ; ; ; ; ; 1 l.{.[.[.{.{.{.{.j.e.e.e.e.e.e.e.e.e.e.e.e.e.e.e.}.}.}.}.}.",
"}.}.}.}.) F F F F F F F F F F F F F F F D.{.{.{.{.{.{.X.> ; > 9 s.s.7 + o + + ; ; ; ; >  .[.[.[.{.{.'.E.e.e.e.e.e.e.e.e.e.e.e.e.e.e.e.e.}.}.}.}.",
"}.}.}.}.F F F F F F F F F F F F F F F 2.{.{.{.{.{.{.l.> ; ; 9 {.{.{.{.4         + ; ; ; > l.{.{.{.{.{.{.l.y.e.e.e.e.e.e.e.e.e.e.e.e.e.e.}.}.}.}.",
"}.}.}.O.F F F F F F F F F F F F F F F Z.{.{.{.{.{.(.< ; ; & s.{.{.{.{.s.          . & ; ; 1 '.{.{.{.{.{.E.e.e.e.e.e.e.e.e.e.e.e.e.e.e.e.}.}.}.}.",
"}.}.}. .F F F F F F F F F F F F F F L ].{.{.{.{.{.V ; ; ;   s.{.{.{.{.s.; + o         ; ; ; V {.{.{.{.{.{.y.e.e.e.e.e.e.e.e.e.e.e.e.e.e.}.}.}.}.",
"}.}.}. .F F F F F F F F F F F F F F 8.].{.{.{.{.J.> ; ; o   4 {.{.{.{.9 ; ; ; & .     + ; ; ; E.{.{.{.{.{.l.e.e.e.e.e.e.e.e.e.e.e.e.e.e.e.}.}.}.",
"}.}.}.) F F F F F F F F F F F F F F l.{.{.{.{.{.7.; ; &     + 7 l.s.9 > ; ; ; ; &       & : > 7.[.[.{.{.[.G.y.y.e.e.e.e.e.e.e.e.e.e.e.e.e.}.}.}.",
"}.}.}.) F F F F F F F F F F F F F F Z.{.{.{.{.{.C ; ; +     + ; ; > 2 0 0 2 ; ; > &     . & & C [.[.{.{.[.E.7.y.e.e.e.e.e.e.e.e.e.e.e.e.e.}.}.}.",
"}.}.}.) F F F F F F F F F F F F F F J.{.{.{.{.{.3 ; ; +     & ; ; 2 q q q q 2 ; & .     . > : 3 {.{.{.{.[.W.e.e.e.e.e.e.e.e.e.e.e.e.e.e.e.}.}.}.",
"}.}.}.F F F F F F F F F F F F F F F (.{.{.{.{.{., ; ; +     & ; ; 0 q q q q 0 ; : &     . > : , {.{.{.{.[.'.e.e.e.e.e.e.e.e.e.e.e.e.e.e.e.}.}.}.",
"}.}.}.F F F F F F F F F F F F F F F '.].{.{.{.{., ; ; o     ; ; ; 0 q q q q 0 ; & :       : : , {.{.{.{.{._.e.e.e.e.e.e.e.e.e.e.e.e.e.e.e.}.}.}.",
"}.}.}.) F F F F F F F F F F F F F F J.].{.{.{.{.3 ; ; o     & ; ; 2 q q q q 2 ; > &     . : & 3 {.{.{.{.{.R.e.e.e.e.e.e.e.e.e.e.e.e.e.e.e.}.}.}.",
"}.}.}.) F F F F F F F F F F F F F F m.{.{.{.{.{.V ; ; o     + & ; > 2 0 0 2 > ; : .     . > : C {.{.{.{.{.S.7.e.e.e.e.e.e.e.e.e.e.e.e.e.e.}.}.}.",
"}.}.}.) F F F F F F F F F F F F F F p.{.{.{.{.{.7.; ; &       & * * ; ; ; ; ; ; &       & : : 7.{.{.{.{.{.M.y.e.e.e.e.e.e.e.e.e.e.e.e.e.e.}.}.}.",
"}.}.}. .F F F F F F F F F F F F F F +.].].{.{.{.J.> > & &       * ; ; ; & > & &         : & > G.{.{.{.{.'.e.e.e.e.e.e.e.e.e.e.e.e.e.e.e.e.}.}.}.",
"}.}.}.O.F F F F F F F F F F F F F F N '.].{.{.{.[.C & > &         o & ; & & &         > : : V [.{.{.{.{.[.O.e.e.e.e.e.e.e.e.e.e.e.e.e.e.}.}.}.}.",
"}.}.}.O.F F F F F F F F F F F F F F c m.{.{.{.{.{.'.1 ; ; &                         & : > 1 [.{.{.{.[.[.Z.O.e.e.e.e.e.e.e.e.e.e.e.e.e.e.}.}.}.}.",
"}.}.}.}.F F F F F F F F F F F F F F N ] {.{.{.{.[.[.l.> ; ; ; &                 & & : & > z.[.{.{.{.[.[.2.2.e.e.e.e.e.e.e.e.e.e.e.e.e.e.}.}.}.}.",
"}.}.}.}.) F F F F F F F F F F F F F F 6 S.].{.{.{.{.{. .; ; ; ; & o .     & & & & > > > X.[.{.{.{.{.{.G.P 7.e.e.e.e.e.e.e.e.e.e.e.e.e.e.}.}.}.}.",
"}.}.}.}.O.F F F F F F F F F F F F F F f P ].{.{.{.{.{.{.m.1 ; ; ; ; & > : : & : : & 1 z.[.[.{.{.{.{.{.:.] e.e.e.e.e.e.e.e.e.e.e.e.e.e.}.}.}.}.}.",
"}.}.}.}.}.F F F F F F F F F F F F F F N r y.{.{.{.{.{.{.{.'.V ; ; > : & & : : & > C [.[.[.{.{.{.].'.l.F ,.e.e.e.e.e.e.e.e.e.e.e.e.e.e.}.}.}.}.}.",
"}.}.}.}.}.) F F F F F F F F F F F F F F i r m.{.{.{.{.{.{.].'.E.8.V 3 , , 3 C 7.G.[.[.[.[.[.{.{.{.Z.F ) e.e.e.e.e.e.e.e.e.e.e.e.e.e.e.}.}.}.}.}.",
"}.}.}.}.}. .F F F F F F F F F F F F F F N 6 f S.].{.{.{.{.{.{.{.{.{.{.{.{.{.{.{.{.{.{.{.{.{.{.'.J.) F :.e.e.e.e.e.e.e.e.e.e.e.e.e.e.e.}.}.}.}.}.",
"}.}.}.}.}.}.I F F F F F F F F F F F F F F c 6 f l.].{.{.{.{.{.{.{.{.{.{.{.{.{.{.{.{.{.{.{.{.{.Z.) F O.e.e.e.e.e.e.e.e.e.e.e.e.e.e.e.}.}.}.}.}.}.",
"}.}.}.}.}.}. .F F F F F F F F F F F F F F F f 6 i e.{.{.{.{.{.].{.{.{.{.{.{.{.{.{.{.{.{.{.{.j.F F ] e.e.e.e.e.e.e.e.e.e.e.e.e.e.e.e.}.}.}.}.}.}.",
"}.}.}.}.}.}.}.Y F F F F F F F F F F F F F F F r 6 r P S.{.{.{.].{.{.{.{.{.{.{.].{.{.{.{.S.:.F F ) e.e.e.e.e.e.e.e.e.e.e.e.e.e.e.e.}.}.}.}.}.}.}.",
"}.}.}.}.}.}.}.O.F F F F F F F F F F F F F F F F i r 6 6 ] N.'.].{.].{.{.'.].].].{.'.Z.:.F F F ] e.e.e.e.e.e.e.e.e.e.e.e.e.e.e.e.}.}.}.}.}.}.}.}.",
"}.}.}.}.}.}.}.}.) F F F F F F F F F F F F F F F F m 6 6 5 6 c ] p.N.D.'.'.E.S.l.8.) L U F F  .y.e.e.e.e.e.e.e.e.e.e.e.e.e.e.e.e.}.}.}.}.}.}.}.}.",
"}.}.}.}.}.}.}.}.O.F F F F F F F F F F F F F F F F F N i 5 6 6 6 6 6 r r F F F F F F F F ] 2.e.e.e.e.e.e.e.e.e.e.e.e.e.e.e.e.e.}.}.}.}.}.}.}.}.}.",
"}.}.}.}.}.}.}.}.}.] F F F F F F F F F F F F F F F F F F N i 6 6 6 6 6 r F F F F F F ) 2.e.e.e.e.e.e.e.e.e.e.e.e.e.e.e.e.e.e.e.}.}.}.}.}.}.}.}.}.",
"}.}.}.}.}.}.}.}.}.}.) F F F F F F F F F F F F F F F F F F F F m f f i r L ) ) o.2.7.e.e.e.e.e.e.e.e.e.e.e.e.e.e.e.e.e.e.e.e.}.}.}.}.}.}.}.}.}.}.",
"}.}.}.}.}.}.}.}.}.}.}.) F F F F F F F F F F F F F F F F F F F F F F F F e.e.e.e.e.e.e.e.e.e.e.e.e.e.e.e.e.e.e.e.e.e.e.e.e.}.}.}.}.}.}.}.}.}.}.}.",
"}.}.}.}.}.}.}.}.}.}.}.}.Y F F F F F F F F F F F F F F F F F F F F F F F e.e.e.e.e.e.e.e.e.e.e.e.e.e.e.e.e.e.e.e.e.e.e.e.}.}.}.}.}.}.}.}.}.}.}.}.",
"}.}.}.}.}.}.}.}.}.}.}.}.}.I F F F F F F F F F F F F F F F F F F F F F F e.e.e.e.e.e.e.e.e.e.e.e.e.e.e.e.e.e.e.e.e.e.e.}.}.}.}.}.}.}.}.}.}.}.}.}.",
"}.}.}.}.}.}.}.}.}.}.}.}.}.}.) F F F B r 5 5 6 6 6 5 5 5 5 5 5 5 5 5 5 5 F F F F F F F F F F F F F F F F ) :.e.e.e.e.}.}.}.}.}.}.}.}.}.}.}.}.}.}.",
"}.}.}.}.}.}.}.}.}.}.}.}.}.}.}.) F F F F f 6 6 6 5 5 5 5 5 5 5 5 5 5 5 6 F F F F F F F F F F F F F F F O.e.e.e.e.e.}.}.}.}.}.}.}.}.}.}.}.}.}.}.}.",
"}.}.}.}.}.}.}.}.}.}.}.}.}.}.}.}.O.F F F F B f 6 5 5 5 5 5 5 5 5 5 5 6 6 F F F F F F F F F F F F F ] 2.e.e.e.e.e.}.}.}.}.}.}.}.}.}.}.}.}.}.}.}.}.",
"}.}.}.}.}.}.}.}.}.}.}.}.}.}.}.}.}.O.P F F F F B f 6 5 5 5 5 5 5 5 5 6 6 F F F F F F F F F F F o.7.e.e.e.e.e.}.}.}.}.}.}.}.}.}.}.}.}.}.}.}.}.}.}.",
"}.}.}.}.}.}.}.}.}.}.}.}.}.}.}.}.}.}.}.O.Y F F F F F N f 6 6 6 6 6 6 6 6 F F F F F F F F  .;.e.e.e.e.e.e.}.}.}.}.}.}.}.}.}.}.}.}.}.}.}.}.}.}.}.}.",
"}.}.}.}.}.}.}.}.}.}.}.}.}.}.}.}.}.}.}.}.}. .I F F F F F F N N f f f r 6 F ) ) )  .;.7.e.e.e.e.e.e.e.e.}.}.}.}.}.}.}.}.}.}.}.}.}.}.}.}.}.}.}.}.}.",
"}.}.}.}.}.}.}.}.}.}.}.}.}.}.}.}.}.}.}.}.}.}.}. .) F F F F F F F F F F F e.e.e.e.e.e.e.e.e.e.e.e.e.}.}.}.}.}.}.}.}.}.}.}.}.}.}.}.}.}.}.}.}.}.}.}.",
"}.}.}.}.}.}.}.}.}.}.}.}.}.}.}.}.}.}.}.}.}.}.}.}.}.}.O.) F F F F F F F F e.e.e.e.e.e.e.e.e.}.}.}.}.}.}.}.}.}.}.}.}.}.}.}.}.}.}.}.}.}.}.}.}.}.}.}.",
"}.}.}.}.}.}.}.}.}.}.}.}.}.}.}.}.}.}.}.}.}.}.}.}.}.}.}.}.}.O.O. .] ) ) F e.e.e.e.e.}.}.}.}.}.}.}.}.}.}.}.}.}.}.}.}.}.}.}.}.}.}.}.}.}.}.}.}.}.}.}.",
"}.}.}.}.}.}.}.}.}.}.}.}.}.}.}.}.}.}.}.}.}.}.}.}.}.}.}.}.}.}.}.}.}.}.}.}.}.}.}.}.}.}.}.}.}.}.}.}.}.}.}.}.}.}.}.}.}.}.}.}.}.}.}.}.}.}.}.}.}.}.}.}.",
"}.}.}.}.}.}.}.}.}.}.}.}.}.}.}.}.}.}.}.}.}.}.}.}.}.}.}.}.}.}.}.}.}.}.}.}.}.}.}.}.}.}.}.}.}.}.}.}.}.}.}.}.}.}.}.}.}.}.}.}.}.}.}.}.}.}.}.}.}.}.}.}.",
"}.}.}.}.}.}.}.}.}.}.}.}.}.}.}.}.}.}.}.}.}.}.}.}.}.}.}.}.}.}.}.}.}.}.}.}.}.}.}.}.}.}.}.}.}.}.}.}.}.}.}.}.}.}.}.}.}.}.}.}.}.}.}.}.}.}.}.}.}.}.}.}."
};
