/* XPM */
static char *window_system[] = {
/* columns rows colors chars-per-pixel */
"72 72 90 1 ",
"  c #C0392B",
". c #C0574D",
"X c #27AE60",
"o c #48B276",
"O c #F39C12",
"+ c #E8A439",
"@ c #BE9391",
"# c #89BCA4",
"$ c #D0B588",
"% c #BBC3C6",
"& c #BEC3C5",
"* c #BDC2C6",
"= c #BCC3C6",
"- c #BDC3C7",
"; c #BEC3C7",
": c #BEC4C8",
"> c #BFC4C8",
", c #BEC5C9",
"< c #BFC5C9",
"1 c #C0C6CA",
"2 c #C1C6CA",
"3 c #C1C7CA",
"4 c #C1C7CB",
"5 c #C2C7CC",
"6 c #C3C8CB",
"7 c #C3C8CC",
"8 c #C3C9CC",
"9 c #C3C9CD",
"0 c #C4CACD",
"q c #C4CACE",
"w c #C5CBCE",
"e c #C5CBCF",
"r c #C6CBCE",
"t c #C6CCCF",
"y c #C7CDD0",
"u c #C8CDD1",
"i c #C8CED1",
"p c #CACFD2",
"a c #CAD0D3",
"s c #CBD0D3",
"d c #CAD1D3",
"f c #CBD1D4",
"g c #CCD1D5",
"h c #CDD2D4",
"j c #CDD3D6",
"k c #CED3D7",
"l c #CFD3D7",
"z c #CED4D6",
"x c #CFD5D7",
"c c #D0D6D8",
"v c #D1D7D9",
"b c #D2D6DA",
"n c #D2D7DA",
"m c #D3D8DA",
"M c #D3D8DB",
"N c #D7DCDE",
"B c #D7DDDF",
"V c #D8DCDF",
"C c #D8DDE0",
"Z c #D9DDE0",
"A c #D9DEE0",
"S c #DBDFE2",
"D c #DCE0E2",
"F c #DDE1E4",
"G c #DDE2E4",
"H c #DEE2E4",
"J c #DEE3E5",
"K c #DFE3E5",
"L c #DFE4E6",
"P c #E1E5E6",
"I c #E0E4E7",
"U c #E0E5E7",
"Y c #E1E5E7",
"T c #E5E9EB",
"R c #E6EAEC",
"E c #E7EBED",
"W c #E7ECEC",
"Q c #E8EBED",
"! c #E8ECED",
"~ c #E8ECEE",
"^ c #E8EDEE",
"/ c #E9EDEE",
"( c #EAEEEF",
") c #EBEEEF",
"_ c #EBEFEF",
"` c #EAEEF0",
"' c #EAEFF0",
"] c #EBEFF0",
"[ c #ECF0F1",
"{ c None",
/* pixels */
"{{{{{{{{{{{{{{{{{{{{{{{{{{{{{{{{{{{{{{{{{{{{{{{{{{{{{{{{{{{{{{{{{{{{{{{{",
"{{{{{{{{{{{{{{{{{{{{{{{{{{{{{{{{{{{{{{{{{{{{{{{{{{{{{{{{{{{{{{{{{{{{{{{{",
"{{{{{{{{{{{{{{{{{{{{{{{{{{{{{{{{{{{{{{{{{{{{{{{{{{{{{{{{{{{{{{{{{{{{{{{{",
"{{{{{{{{{{{{{{{{{{{{{{{{{{{{{{{{{{{{{{{{{{{{{{{{{{{{{{{{{{{{{{{{{{{{{{{{",
"{{{{{{{{{{{{{{{{{{{{{{{{{{{{{{{{{{{{{{{{{{{{{{{{{{{{{{{{{{{{{{{{{{{{{{{{",
"{{{{{{{{{{{{{{{{{{{{{{{{{{{{{{{{{{{{{{{{{{{{{{{{{{{{{{{{{{{{{{{{{{{{{{{{",
"{{{{{{{;;;;%;;;;;;%1%%;%%1%%1;;;%%;%;;;;;;5%,%--%1%%1%%;%%;;%1%%%{{{{{{{",
"{{{{{;;;;;;;;;;;;1%%1%;%%%1%%1;;1%;;;;;;;;;%,%--%%1%%11;1%;1%%1%%1%{{{{{",
"{{{{;;;%;;;;;;%%%%%1;;;;;%;;;;;;%;;;%;;;%%;;------------%1;%;%%%;;;;{{{{",
"{{{{;%;@..@;%;%%#oo#;;%;;$++$;;;1;;;;;%;;;;%------------;;;;;%%%;;;;{{{{",
"{{{%%;@    @%%%#XXXX#;;;$OOOO$;;;;;;;%;%--;%------------;;;;;;%%1;%1%{{{",
"{{{%%;.    .1%%oXXXXo;;;+OOOO+;;%;;;;%;;----------------;;;;;;;1%1%%%{{{",
"{{{%;;.    .%;;oXXXXo%%;+OOOO+*;;;;;;;%;----------------%;;;;;;;%%%%;{{{",
"{{{%%;@    @%1;#XXXX#;;;$OOOO$;;%%;;;;;;----------------;;%%;;;;%;%%;{{{",
"{{{%%;;@..@;;;;;#oo#%;;%;$++$*1%%%%;;;%%------------%-;;;%;;%;%;;;;;;{{{",
"{{{1;;%;%;%;;;;;%%%%%;;%;;%;1%%1%%%1;;;;------------;;%%;;%;;;%;;;;;;{{{",
"{{{1%%1;1%1;;;%1%11*;;;;;;;;;;%%;11%;;;1;;%1;;%1----,%,;;;%%,5;;;;;;;{{{",
"{{{%%1;;%1;;;;%1;*%1;;;;11;;;;%%;%%%;;;%;;1%;;1%----,,;;;;,,%%;;;;;;;{{{",
"{{{[[[``[[[[```[`[[[[[``[[[[`[[[``[[``[[``[[``[[[[``[[[[``[[[[``[[[[[{{{",
"{{{[[[``[[[[``[[``[[[[[`[[[[``[[[`[[[[[[[`[[[`[[[```[[[[``[[[```[[[[[{{{",
"{{{[[[[[[[[[[[[[[[[[[[[[[[[[[[[[[[[[[[[[[[[[[[[[[[[[[[[[[[[[[[[[[[[[[{{{",
"{{{[[[[[[[[[[[[[[[[[[[[[[[[[[[[[[[[[[[[[[[[[[[[[[[[[[[[[[[[[[[[[[[[[[{{{",
"{{{[[[[[[[[[[[[[[[[[[[[[[[[[[[[[[[[[[[[[[[[[[[[[[[[[[[[[[[[[[[[[[[[[[{{{",
"{{{[[[[[[[[[[[[[[[[[[[[[[[[[[[[[[[[[[[[[[[[[[[[[[[[[[[[[[[[[[[[[[[[[[{{{",
"{{{[[[[[[[[[[[[[[[[[[[[[[[[[[[[[T1;;;;%G[[[[[[[[[[[[[[[[[[[[[[[[[[[[[{{{",
"{{{[[[[[[[[[[[[[[[[[[[[[[[[[[[[[n;;;;;%k[[[[[[[[[[[[[[[[[[[[[[[[[[[[[{{{",
"{{{[[[[[[[[[[[[[[[[[[[[[[[[[[[``i;;;%%%g[[[`[[[`[[[[[[[[[[[[[[[[[[[[[{{{",
"{{{[[[[[[[[[[[[[[[[[[[[[`mn`[[[`11;;%%%y[[[``nn`[[[[[[[[[[[[[[[[[[[[[{{{",
"{{{[[[[[[[[[[[[[[[[[[[[Wi;%yW```;;;%1;;%```R5;;i`[[[[[[[[[[[[[[[[[[[[{{{",
"{{{[[[[[[[[[[[[[[[[[[[W9;;%%%GZy%%;;%11%5CF1%;;;k`[[[[[[[[[[[[[[[[[[[{{{",
"{{{[[[[[[[[[[[[[[[[[[`y;;;;;%%%1;;;;;;;;;;;;%%;;%g`[[[[[[[[[[[[[[[[[[{{{",
"{{{[[[[[[[[[[[[[[[[[[k;;;;;;%11%;%;;;;;;;;;1%11%%%C[[[[[[[[[[[[[[[[[[{{{",
"{{{[[[[[[[[[[[[[[[[[`C%%-----%%;;%;;%%;;;;;;;%---;C`[[[[[[[[[[[[[[[[[{{{",
"{{{[[[[[[[[[[[[[[[[[``g%-----;;;;;%;;;;%;;;%;;---g``[[[[[[[[[[[[[[[[[{{{",
"{{{[[[[[[[[[[[[[[[[[`[R5------;;%%;;;;;%;;;;%%--y```[[[[[[[[[[[[[[[[[{{{",
"{{{[[[[[[[[[[[[[[[[[[[`F------;;;;;%%%;;;;;1;;--F[[`[[[[[[[[[[[[[[[[[{{{",
"{{{[[[[[[[[[[[[[[[[[```S----;;;;;CF`EFb,%,%%;%%;S`[[[[[[[[[[[[[[[[[[[{{{",
"{{{[[[[[[[[[[[[[[[[[``Ry----;,;5F[[[```F5%%,;;;;y```[[[[[[[[[[[[[[[[[{{{",
"{{{[[[[[[[[[[[[[[[Gkg,------%%%E``[[[[[[F,%;%;;%%,ygCT``[[[[[[[[[[[[[{{{",
"{{{[[[[[[[[[[[[[[`%%--------%%b[[[[[[[[[`k;;%;;%%%%%;%``[[[[[[[[[[[[[{{{",
"{{{[[[[[[[[[[[[[[[;;;;;;;;%%--F[[[[[[[[[[G%%;;;;;%;;1%[[[[[[[[[[[[[[[{{{",
"{{{[[[[[[[[[[[[[[[1%;;;;%;;;--``[[[[[[[[[`1%;;;;;;;;;1[[[[[[[[[[[[[[[{{{",
"{{{[[[[[[[[[[[[[[[1%;;;;%;;;--E`[[[[[[[[``%%;;1%%;;;;;[[[[[[[[[[[[[[[{{{",
"{{{[[[[[[[[[[[[[[[%1%%;;;;%%--S`[[[[[[[[[Z;1;;;%%;;;;;[[[[[[[[[[[[[[[{{{",
"{{{[[[[[[[[[[[[[``1%;%%%;;;;%%k`[[[[[[[[[n;;;;%%;;;%;;``[[[[[[[[[[[[[{{{",
"{{{[[[[[[[[[[[[[``TCg51%;;%;1%%T[[[[[[[`I1;;;;%%;%,ynI``[[[[[[[[[[[[[{{{",
"{{{[[[[[[[[[[[[[`[[[[``y;;;;%%;%T[[`[[[T1;;;%%;%y```[[[[[[[[[[[[[[[[[{{{",
"{{{[[[[[[[[[[[[[[[[[[``Z;;;;;1%;%kF``Fk%1*;;;;;%C[[`[[[[[[[[[[[[[[[[[{{{",
"{{{[[[[[[[[[[[[[[[[[[[`T;;;;;;;;----%;;;;;;;;;;%S`[[[[[[[[[[[[[[[[[[[{{{",
"{{{[[[[[[[[[[[[[[[[[[[)1;;;;;;;%----;;%%;;;;%%;;5R[[[[[[[[[[[[[[[[[[[{{{",
"{{{[[[[[[[[[[[[[[[[[[`g;;%;;;;;;----;%;;;;%1%%;;%y`[[[[[[[[[[[[[[[[[[{{{",
"{{{[[[[[[[[[[[[[[[[[[Z1;;;;%;;;;------;;;;%%%%;;%%C[[[[[[[[[[[[[[[[[[{{{",
"{{{[[[[[[[[[[[[[[[[[[n%1%%1;;;%1----;;;;;;%;;;;;%%n``[[[[[[[[[[[[[[[[{{{",
"{{{[[[[[[[[[[[[[[[[[[`i%%%%1;;%1----;;;;%;%;;;;;%i`[[[[[[[[[[[[[[[[[[{{{",
"{{{[[[[[[[[[[[[[[[[[[[`k%%1%%ZZi----;;%%yZS,1*115``[[[[[[[[[[[[[[[[[[{{{",
"{{{[[[[[[[[[[[[[[[[[[[[`i%;5T```,---1%%%```E9**i``[[[[[[[[[[[[[[[[[[[{{{",
"{{{[[[[[[[[[[[[[[[[[[[[[`nC`[[[[,,;;;;%,[[[[`nn`[[[[[[[[[[[[[[[[[[[[[{{{",
"{{{[[[[[[[[[[[[[[[[[[[[[```[[[[[g,;;;;;g[[[[[[[[[[[[[[[[[[[[[[[[[[[[[{{{",
"{{{[[[[[[[[[[[[[[[[[[[[[`[[[[[[[b,%;,%;b[[[[[[[[[[[[[[[[[[[[[[[[[[[[[{{{",
"{{{[[[[[[[[[[[[[[[[[[[[[[[[[[[[[S,%,%,,F[[[[[[[[[[[[[[[[[[[[[[[[[[[[[{{{",
"{{{`[[[[[[[[[[[[[[[[[[[[[[[[[[[[[[[[`[[[[[[[[[[[[[[[[[[[[[[[[[[[[[[[){{{",
"{{{I[[[[[[[[[[[[[[[[[[[[[[[[[[[[[[[[``[[[[[[[[[[[[[[[[[[[[[[[[[[[[[[G{{{",
"{{{x``[[[[[[[[[[[[[[[[[[[[[[[[[[[[[[[[[[[[[[[[[[[[[[[[[[[[[[[[[[[[[[k{{{",
"{{{;T[[[[[[[[[[[[[[[[[[[[[[[[[[[[[[[[[[[[[[[[[[[[[[[[[[[[[[[[[[[[[[I;{{{",
"{{{;1T``[[[[[[[[[[[[[[[[[[`[[[[[[[[[[[[[[[[[[[[[[[`[[[[[[[[[[[``[[G9%{{{",
"{{{{%%xIW'[[[[``[[[[``[[[[``[[[[['[[[[[`[[[[``[[[[``[[[[['[[[[``In;;{{{{",
"{{{{;;;;;;;;%%%%;*11;;;;%%1;;;1;;;;;%%%1*11%;;;;%%1;;;1;;;;;%%%1;;;;{{{{",
"{{{{{;;;;;;;%%%1;1%%;;;;%%%1;;;;;;;;%%%%;%1%;;;;%%%1;;;;;;;;%%%%;;;{{{{{",
"{{{{{{{;;;;;;;;;;;%%%1%1;;;;;;;;;;;;;;;;;;%%%1%1;;;;;;;;;;;;;;;;%{{{{{{{",
"{{{{{{{{{{{{{{{{{{{{{{{{{{{{{{{{{{{{{{{{{{{{{{{{{{{{{{{{{{{{{{{{{{{{{{{{",
"{{{{{{{{{{{{{{{{{{{{{{{{{{{{{{{{{{{{{{{{{{{{{{{{{{{{{{{{{{{{{{{{{{{{{{{{",
"{{{{{{{{{{{{{{{{{{{{{{{{{{{{{{{{{{{{{{{{{{{{{{{{{{{{{{{{{{{{{{{{{{{{{{{{"
};
