/* XPM */
static char *window_layout[] = {
/* columns rows colors chars-per-pixel */
"72 72 22 1 ",
"  c #C0392B",
". c #C0574D",
"X c #27AE60",
"o c #48B276",
"O c #F39C12",
"+ c #E8A439",
"@ c #BE9391",
"# c #89BCA4",
"$ c #D0B588",
"% c #BBC3C6",
"& c #BEC3C5",
"* c #BDC2C6",
"= c #BCC3C6",
"- c #BDC3C7",
"; c #BEC3C7",
": c #C2C7CC",
"> c #CFD5D7",
", c #DEE2E4",
"< c #E0E5E7",
"1 c #E8EBED",
"2 c #ECF0F1",
"3 c None",
/* pixels */
"333333333333333333333333333333333333333333333333333333333333333333333333",
"333333333333333333333333333333333333333333333333333333333333333333333333",
"333333333333333333333333333333333333333333333333333333333333333333333333",
"333333333333333333333333333333333333333333333333333333333333333333333333",
"333333333333333333333333333333333333333333333333333333333333333333333333",
"333333333333333333333333333333333333333333333333333333333333333333333333",
"3333333;;;;%;;;;------------------------------------------;%;;-;;3333333",
"33333;;;;;;;;;;;------------------------------------------;;;;;;;;;33333",
"3333:%**;;;;;;%%--------%;;%;;%;--------------------------------;%;;3333",
"3333*%*@..@;%;%%#oo#%---;$++$;-;--------------------------------;%;%3333",
"333%**@    @%%%#XXXX#---$OOOO$;%--------------------------------;;%;;333",
"333%%*.    .:%%oXXXXo---+OOOO+;%--------------------------------%;;;;333",
"333:**.    .%:*oXXXXo-;;+OOOO+;;--------------------------------;;%%;333",
"333%:%@    @%%*#XXXX#-%%$OOOO$%;--------------------------------%;;;;333",
"333%*%*@..@****%#oo#%-;;;$++$;;%--------------------------------;;;;;333",
"333%***:%%%**:%%------%;;%;;;%;;--------------------------------;;;;;333",
"333%%%%:%:**%%**%%*%%***%;;;%;%;;%%;;;;%%;;;;%%;----;;;;;;%;;;%;;;;;;333",
"333::%**%***:%***:**%:%*;;%;%;;;;;;;%%;;;;%%;;;;----;;;;%;;;%;%;;;;;;333",
"333222222222222222222222222222222222222222222222222222222222222222222333",
"333222222222222222222222222222222222222222222222222222222222222222222333",
"333222222222222222222222222222222222222222222222222222222222222222222333",
"333222222222222222222222222222222222222222222222222222222222222222222333",
"333222222222222222222222222222222222222222222222222222222222222222222333",
"333222222222222222222222222222222222222222222222222222222222222222222333",
"333222222;;;%%:*;;;;----222;----%;----------------------;;%----222222333",
"333222222;;;%***;;;;-%--222;----%;-%--------------------;%;;--;222222333",
"333222222;;;**%*%;;;;;%;222%----;;;;--------------------;;%%%;;222222333",
"333222222;;;*:%*;;;;%;;;222;----;%%;--------------------%;;;;;%222222333",
"333222222%%%:***;%;;%;;%222;%;----------------------------;;;;%222222333",
"333222222%%:%*:%;;%;%;;%222;%;-%--------------------------%%%;;222222333",
"333222222%%%%**%%%;;;;;;222%;;;;--------------------------;;%;;222222333",
"333222222%%%:**%;;;%;%%;222;;%%;--------------------------%;;;%222222333",
"333222222---------------222;;%;;--;;%;;%;;%;;%;;%;;%;;%;;%;;%;;222222333",
"333222222---------------222222222222222222222222222222222222222222222333",
"333222222;--------------222222222222222222222222222222222222222222222333",
"333222222;--------------222222222222222222222222222222222222222222222333",
"333222222;;%--------;%;-222%--------;;;%--------;;%------%%;%%;222222333",
"333222222%;;--------;%;%222;--------;%;;--------;%;;-----;;;;;;222222333",
"333222222;%;--------;;%;222;--------%;%;--------;;%%------;%;%%222222333",
"333222222;%;--------%;;;222%---------;%;--------%;;;------;%;;;222222333",
"333222222%;;;%----------222%;;---------------------------------222222333",
"333222222;;%;;----------222;;%--------------------------------;222222333",
"333222222;;%%%----------222;;;%%----------------------------%;;222222333",
"333222222%;;;;----------222%%;;;----------------------------;;%222222333",
"333222222%;;------------222;------------------------------;;;;%222222333",
"333222222;;%------------222;------------------------------%%%;;222222333",
"333222222;--------------222-------------------------------;;%;;222222333",
"333222222---------------222-------------------------------%;;;%222222333",
"333222222;;%;;;%--------222;-----------------------------------222222333",
"333222222;;;;%;;--------222;----------------------------------;222222333",
"333222222;;;--%;--------222%--------------------------------%;;222222333",
"333222222;;;--%;--------222;--------------------------------;;%222222333",
"333222222---------------222;%;----------------------------;;;;%222222333",
"333222222---------------222;%;-%--------------------------%%%;;222222333",
"333222222;--------------222%;;;;--------------------------;;%;;222222333",
"333222222;--------------222;;%%;--------------------------%;;;%222222333",
"333222222%;;%%--;%;-----222%;;;%--------;%;---------%;;;-------222222333",
"333222222;%;;;--;%;%----222;%%;;--------;%;%--------;;%%------;222222333",
"333222222%;;----;;%;----222;;;%;--------;;%;--------;%;;----%;;222222333",
"333222222;;%----%;;;----222--%;;--------%;;;----------%;----;;%222222333",
"333222222222222222222222222222222222222222222222222222222222222222222333",
"333<2222222222222222222222222222222222222222222222222222222222222222<333",
"333>2222222222222222222222222222222222222222222222222222222222222222>333",
"333;<22222222222222222222222222222222222222222222222222222222222222<;333",
"333;:<222222222222222222222222222222222222222222222222222222222222<-;333",
"3333;;>,12222222222222222222222222222222222222222222222222222222<>;;3333",
"3333;;;;;;;;;;%%;%;;;;;;;;%%;%;;;;;;;;%%;%;;;;;;;;%%;%;;;;;;;;%%%--;3333",
"33333;;;;;;;%;;;;;;%;;;;%;;;;;;%;;;;%;;;;;;%;;;;%;;;;;;%;;;;%;;;%%-33333",
"3333333;;;;;;;;;%;;;;;;;;;;;%;;;;;;;;;;;%;;;;;;;;;;;%;;;;;;;;;;;;3333333",
"333333333333333333333333333333333333333333333333333333333333333333333333",
"333333333333333333333333333333333333333333333333333333333333333333333333",
"333333333333333333333333333333333333333333333333333333333333333333333333"
};
