/* XPM */
static const char *beer[] = {
/* columns rows colors chars-per-pixel */
"48 48 53 1 ",
"  c #F39C12",
". c #F3A411",
"X c #F3A412",
"o c #F1BB10",
"O c #F2A52A",
"+ c #F1C40F",
"@ c #F1C411",
"# c #F1C61B",
"$ c #F1C71E",
"% c #F1C720",
"& c #F1C822",
"* c #F0CA2E",
"= c #F0CA30",
"- c #F1B94E",
"; c #F0CF46",
": c #EFD45F",
"> c #EFD772",
", c #95A5A6",
"< c #97A7A7",
"1 c #99A8A7",
"2 c #9AA9AA",
"3 c #9EABA9",
"4 c #A5AEA1",
"5 c #AFB9BC",
"6 c #EFDA80",
"7 c #C3C6B2",
"8 c #EDE4B1",
"9 c #EDE4B2",
"0 c #B9C0C4",
"q c #BBC1C5",
"w c #BDC3C7",
"e c #C0C6CA",
"r c #C1C7CB",
"t c #C3C8CC",
"y c #C6CCCF",
"u c #C9CED2",
"i c #EDE7C2",
"p c #EDE7C5",
"a c #EBE7C9",
"s c #EDE7CA",
"d c #E9E6CC",
"f c #EDE8CA",
"g c #EDECDA",
"h c #ECECDB",
"j c #ECEBDC",
"k c #DCE0E3",
"l c #E7ECED",
"z c #ECEFEA",
"x c #E9EDEF",
"c c #ECF0EF",
"v c #EBF1F1",
"b c #ECF0F1",
"n c None",
/* pixels */
"nnnnnnnnnnnnnnnnnnnnnnnnnnnnnnnnnnnnnnnnnnnnnnnn",
"nnnnnnnnnnnnnnnnnnnnnnnnnnnnnnnnnnnnnnnnnnnnnnnn",
"nnnnnnnnnnnnnnnnnnnnnnnnnnnnnnnnnnnnnnnnnnnnnnnn",
"nnnnnnnnnnnnnnnnnnnnnnnnnnnnnnnnnnnnnnnnnnnnnnnn",
"nnnnnnnnwwnnnnnnnnnnnnnnnnnnnnnnnnwwnnnnnnnnnnnn",
"nnnnnnnnwwnnnnnnnnnnnnnnnnnnnnnnnnwwnnnnnnnnnnnn",
"nnnnnnnnwwbbbbbbbbbbbbbbbbbbbbbbbbwwnnnnnnnnnnnn",
"nnnnnnnnwwbbbbbbbbbbbbbbbbbbbbbbbbwwnnnnnnnnnnnn",
"nnnnnnnnwwbbbbbbbbbbbbbbbbbbbbbbbbwwnnnnnnnnnnnn",
"nnnnnnnnwwbbbbbbbbbbbbbbbbbbbbbbbbwwnnnnnnnnnnnn",
"nnnnnnnnwwbbbbbbbbbbbbbbbbbbbbbbbbwwnnnnnnnnnnnn",
"nnnnnnnnwwbbbbbbbbbbbbbbbb9bbb6zbbwwnnnnnnnnnnnn",
"nnnnnnnnwwbbbbcbbbbbbbbbb9$ib9@:bbwwbblkyynnnnnn",
"nnnnnnnnwwbbbg%*>bbbbbbg*+++&+++bbwwbbbbbttnnnnn",
"nnnnnnnnwwbbs-++$ibigbf;++++o.++bbwwbbbbbkwynnnn",
"nnnnnnnnwwbb. ++@@%@.O++++++. ++bbwwbbbbblwtnnnn",
"nnnnnnnnwwbb  ++++++  ++++++  ++bbwwnnnbbbwwnnnn",
"nnnnnnnnwwbb  ++++++  ++++++  ++bbwwnnnnbbwwnnnn",
"nnnnnnnnwwbb  ++++++  ++++++  ++bbwwnnnnbbwwnnnn",
"nnnnnnnnwwbb  ++++++  ++++++  ++bbwwnnnnbbwwnnnn",
"nnnnnnnnwwbb  ++++++  ++++++  ++bbwwnnnnbbwwnnnn",
"nnnnnnnnwwbb  ++++++  ++++++  ++bbwwnnnnbbwwnnnn",
"nnnnnnnnwwbb  ++++++  ++++++  ++bbwwnnnnbbwwnnnn",
"nnnnnnnnwwbb  ++++++  ++++++  ++bbwwnnnnbbwwnnnn",
"nnnnnnnnwwbb  ++++++  ++++++  ++bbwwnnnnbbwwnnnn",
"nnnnnnnnwwbb  ++++++  ++++++  ++bbwwnnnnbbwwnnnn",
"nnnnnnnnwwbb  ++++++  ++++++  ++bbwwnnnnbbwwnnnn",
"nnnnnnnnwwbb  ++++++  ++++++  ++bbwwnnnnbbwwnnnn",
"nnnnnnnnwwbb  ++++++  ++++++  ++bbwwnnnnbbwwnnnn",
"nnnnnnnnwwbb  ++++++  ++++++  ++bbwwnnnnbbwwnnnn",
"nnnnnnnnwwbb  ++++++  ++++++  ++bbwwnnnnbbwwnnnn",
"nnnnnnnnwwbb  ++++++  ++++++  ++bbwwnnnbbbwwnnnn",
"nnnnnnnnwwbb  ++++++  ++++++  ++bbwwbbbbblwtnnnn",
"nnnnnnnnwwbb  ++++++  ++++++  ++bbwwbbbbbkwunnnn",
"nnnnnnnnwwbb  ++++++  ++++++  ++bbwwbbbbzywnnnnn",
"nnnnnnnnwwbb  ++++++  ++++++  ++bbwwbblkyynnnnnn",
"nnnnnnnnwwbb  ++++++  ++++++  ++bbwwnnnnnnnnnnnn",
"nnnnnnnnwwbb  ++++++  ++++++  ++bbwwnnnnnnnnnnnn",
"nnnnnnnnwwbb. ++++++. ++++++. ++bbwwnnnnnnnnnnnn",
"nnnnnnnn5wbbo.++++++o.@@++++o.++bbw5nnnnnnnnnnnn",
"nnnnnnnn30sbbbbbbbbbbbbbbbbbbbbbbfw2nnnnnnnnnnnn",
"nnnnnnnn427sbbbbbbbbbbbbbbbbbbbzs724nnnnnnnnnnnn",
"nnnnnnnnn<<<,,<<,,,,,,,,,,,,,,<<,,,nnnnnnnnnnnnn",
"nnnnnnnnnn4<,,,,,,,,,,,,,,,,,,<<24nnnnnnnnnnnnnn",
"nnnnnnnnnnnnnnnnnnnnnnnnnnnnnnnnnnnnnnnnnnnnnnnn",
"nnnnnnnnnnnnnnnnnnnnnnnnnnnnnnnnnnnnnnnnnnnnnnnn",
"nnnnnnnnnnnnnnnnnnnnnnnnnnnnnnnnnnnnnnnnnnnnnnnn",
"nnnnnnnnnnnnnnnnnnnnnnnnnnnnnnnnnnnnnnnnnnnnnnnn"
};
