/* XPM */
static const char *bell[] = {
/* columns rows colors chars-per-pixel */
"48 48 44 1 ",
"  c #E67E22",
". c #E9841F",
"X c #E9851F",
"o c #EB891C",
"O c #F39C11",
"+ c #F39C12",
"@ c #F39D12",
"# c #F39F12",
"$ c #F49D13",
"% c #F3A011",
"& c #F3A111",
"* c #F3A211",
"= c #F3A212",
"- c #F2A312",
"; c #F4A312",
": c #F2A411",
"> c #F3A411",
", c #F3A511",
"< c #F2A611",
"1 c #F2A711",
"2 c #F3A412",
"3 c #F2A810",
"4 c #F2A910",
"5 c #F2A811",
"6 c #F1AA11",
"7 c #F2AA11",
"8 c #F2AB11",
"9 c #F2AB12",
"0 c #F3AC10",
"q c #F3AC11",
"w c #F2AC12",
"e c #E78020",
"r c #E68021",
"t c #F0C30F",
"y c #F1C30F",
"u c #F2C30F",
"i c #F1C40E",
"p c #F0C40F",
"a c #F1C40F",
"s c #F0C50F",
"d c #F1C50F",
"f c #F2C40F",
"g c #F1C410",
"h c None",
/* pixels */
"hhhhhhhhhhhhhhhhhhhhhhq<ghhhhhhhhhhhhhhhhhhhhhhh",
"hhhhhhhhhhhhhhhhhhhhhq++gghhhhhhhhhhhhhhhhhhhhhh",
"hhhhhhhhhhhhhhhhhhhhh<++guuhhhhhhhhhhhhhhhhhhhhh",
"hhhhhhhhhhhhhhhhhhhhh+++uuuhhhhhhhhhhhhhhhhhhhhh",
"hhhhhhhhhhhhhhhhhhhq<+++suduhhhhhhhhhhhhhhhhhhhh",
"hhhhhhhhhhhhhhhhh<++++++ususuudhhhhhhhhhhhhhhhhh",
"hhhhhhhhhhhhhhhq++++++++sususuuushhhhhhhhhhhhhhh",
"hhhhhhhhhhhhhh<+++++++++usususududhhhhhhhhhhhhhh",
"hhhhhhhhhhhhhh++++++++++susususuushhhhhhhhhhhhhh",
"hhhhhhhhhhhhh<++++++++++usususussuuhhhhhhhhhhhhh",
"hhhhhhhhhhhhh+++++++++++susususuusghhhhhhhhhhhhh",
"hhhhhhhhhhhhq+++++++++++ususususduuhhhhhhhhhhhhh",
"hhhhhhhhhhhh<+++++++++++susususususshhhhhhhhhhhh",
"hhhhhhhhhhhh<+++++++++++usususususushhhhhhhhhhhh",
"hhhhhhhhhhhh++++++++++++sususususuduhhhhhhhhhhhh",
"hhhhhhhhhhhh+++++++++++<ususususuduuhhhhhhhhhhhh",
"hhhhhhhhhhhh++++++++++++guususususushhhhhhhhhhhh",
"hhhhhhhhhhhh++++++++++++utsususususuhhhhhhhhhhhh",
"hhhhhhhhhhhh++++++++++++tutdusususushhhhhhhhhhhh",
"hhhhhhhhhhhq++++++++++++ututsusususuhhhhhhhhhhhh",
"hhhhhhhhhhhq++++++++++++ususususususuhhhhhhhhhhh",
"hhhhhhhhhhh+++++++++++++susususususudhhhhhhhhhhh",
"hhhhhhhhhhh+++++++++++++usususususuduhhhhhhhhhhh",
"hhhhhhhhhhq+++++++++++++sususususududhhhhhhhhhhh",
"hhhhhhhhhh<+++++++++++++usususussususuhhhhhhhhhh",
"hhhhhhhhhh++++++++++++++susususuususdthhhhhhhhhh",
"hhhhhhhhhq++++++++++++++usususussusuushhhhhhhhhh",
"hhhhhhhhh+++++++++++++++susususuusussuuhhhhhhhhh",
"hhhhhhhhq+++++++++++++++usususussususudthhhhhhhh",
"hhhhhhhh<+++++++++++++++susususuusususushhhhhhhh",
"hhhhhhh<++++++++++++++++usususussusususudhhhhhhh",
"hhhhhhh+++++++++++++++++susususuusususuduhhhhhhh",
"hhhhhh<+++++++++++++++++ggggususususususushhhhhh",
"hhhhh+++++++++++++++++++ggggsususususususuuhhhhh",
"hhhh<+++++++++++++++++++uuggusususususususushhhh",
"hhh<++++++++++++++++++++uuuususususususususudhhh",
"hh<+++++++++++++++++++++tuusususususususususuuhh",
"hh<+++++++++++++++++++++dtsususususususususuduhh",
"hhq+++++++++++++++++++$+ususususususususususdhhh",
"hhhq++++++++++++++++++$$sususususususususuduhhhh",
"hhhhhhhhhhhhhhhhhheerr      eehhhhhhhhhhhhhhhhhh",
"hhhhhhhhhhhhhhhhhhee        eehhhhhhhhhhhhhhhhhh",
"hhhhhhhhhhhhhhhhhhoe    +++++hhhhhhhhhhhhhhhhhhh",
"hhhhhhhhhhhhhhhhhhhe    +++++hhhhhhhhhhhhhhhhhhh",
"hhhhhhhhhhhhhhhhhhhhee  ++++hhhhhhhhhhhhhhhhhhhh",
"hhhhhhhhhhhhhhhhhhhhhoee++hhhhhhhhhhhhhhhhhhhhhh",
"hhhhhhhhhhhhhhhhhhhhhhhhhhhhhhhhhhhhhhhhhhhhhhhh",
"hhhhhhhhhhhhhhhhhhhhhhhhhhhhhhhhhhhhhhhhhhhhhhhh"
};
