/* XPM */
static char *box_in[] = {
/* columns rows colors chars-per-pixel */
"48 48 91 1 ",
"  c #70553F",
". c #2E3F4F",
"X c #2C3E50",
"o c #2C3E51",
"O c #2D3F51",
"+ c #32404F",
"@ c #36424D",
"# c #3D444C",
"$ c #2D4052",
"% c #2E4053",
"& c #2E4153",
"* c #2E4154",
"= c #2F4255",
"- c #304356",
"; c #304357",
": c #314458",
"> c #314559",
", c #32465A",
"< c #32465B",
"1 c #33475C",
"2 c #33485C",
"3 c #33485D",
"4 c #34485D",
"5 c #34495E",
"6 c #44464A",
"7 c #4D4948",
"8 c #574D45",
"9 c #635142",
"0 c #836735",
"q c #916137",
"w c #9F6633",
"e c #946F30",
"r c #B86E2D",
"t c #AC6A30",
"y c #C3722B",
"u c #CC7528",
"i c #D47827",
"p c #DA7A25",
"a c #DF7C24",
"s c #E37D23",
"d c #E57E22",
"f c #E67E22",
"g c #E67F22",
"h c #E8831F",
"j c #EA871D",
"k c #E8841F",
"l c #E9861E",
"z c #EA871E",
"x c #EB8A1B",
"c c #EC8B1B",
"v c #ED8F19",
"b c #EC8C1B",
"n c #E8881F",
"m c #E88B1E",
"M c #E79717",
"N c #EF9317",
"B c #E89716",
"V c #EE9019",
"C c #EA971B",
"Z c #E9911D",
"A c #EB9E19",
"S c #F19715",
"D c #F09416",
"F c #F39B12",
"G c #F29C12",
"H c #F39C12",
"J c #F49C11",
"K c #F19814",
"L c #EDA916",
"P c #EDAC15",
"I c #ECA318",
"U c #EEB213",
"Y c #EFB712",
"T c #EEB214",
"R c #EFB812",
"E c #F0B613",
"W c #F0BB12",
"Q c #F0BF10",
"! c #F0BE11",
"~ c #E78021",
"^ c #E68121",
"/ c #E78121",
"( c #E78321",
") c #E88021",
"_ c #E88220",
"` c #E88320",
"' c #F1C30E",
"] c #F1C40E",
"[ c #F1C40F",
"{ c #F0C010",
"} c None",
/* pixels */
"}}}}}}}}}}}}}}}}}}555555555555}}}}}}}}}}}}}}}}}}",
"}}}}}}}}}}}}}}}}}}555555555555}}}}}}}}}}}}}}}}}}",
"}}}}}}}}}}}}}}}}}}555555555555}}}}}}}}}}}}}}}}}}",
"}}}}}}}}}}}}}}}}}}555555555555}}}}}}}}}}}}}}}}}}",
"}}}}}}}}}}}}}}}}}}555555555555}}}}}}}}}}}}}}}}}}",
"}}}}}}}}}}}}}}}}}}555555555555}}}}}}}}}}}}}}}}}}",
"}}}}}}}}}}}}}}}}}}555555555555}}}}}}}}}}}}}}}}}}",
"}}}}}}}}}}}}}}}}}}555555555555}}}}}}}}}}}}}}}}}}",
"}}}}}}}}}}}}}}}}}}555555555555}}}}}}}}}}}}}}}}}}",
"}}}}}}}}}}}}}}}}}}555555555555}}}}}}}}}}}}}}}}}}",
"}}}}}}}}}}}}}}}}}}555555555555}}}}}}}}}}}}}}}}}}",
"}}}}}}}}}}}}}}}}}}555555555555}}}}}}}}}}}}}}}}}}",
"}}}}}}HHHHHHHHHHHH555555555555HHHHHHHHHHJH}}}}}}",
"}}}}}}HHHHHHBMMMMM555555555555MMBCCMHHHHHHH}}}}}",
"}}}}}}HHHHHH;5555555555555555555555:HHHHHHH}}}}}",
"}}}}}}HHHHHHX:55555555555555555555:OHHHHHHH}}}}}",
"}}}}}HHHHHHHeXO455555555555555554:OeHHJHHHH}}}}}",
"}}}}}HHHHHHHHqO45555555555555555OX0HHHJSHHH}}}}}",
"}}}}}H`gffffff9O555555555555555:X ffggggggcH}}}}",
"}}}}}Hgfffffffs9X:5555555555555$9sffggggg``H}}}}",
"}}}}}Hfffffffffs8$555555555555$8ssffffffgg`J}}}}",
"}}}}HHffffffffffp7X555555555:$7pffffffffgggJ}}}}",
"}}}}HNfffffffffffi6$55555555O6igffffffffggfS}}}}",
"}}}}Hvffffffffffffu#$55555:;#uggffffffffggfNJ}}}",
"}}}}Hvggfffffffffffy#;4455X;ygggffffffffgggCH}}}",
"}}}}HzggffffffffffffrOO45:XrggggfffffffffggvH}}}",
"}}}HHgggffffffffffgggt.O:XtfffggfffffffffffvH}}}",
"}}}HHgggffffffffffggggwXXtfffgggffffffffff``H}}}",
"}}}HSggffffffffffffffffqqffffffffffffffffffgHH}}",
"}}}HSgffffffffffffffffffffffffffffffffffffggHH}}",
"}}}HcfffffffffffffffffffffffffffffffffffffgfNH}}",
"}}JHcfffffffffffffffffffffffffffffffffffffffNH}}",
"}}]][[[[[[[[[[[[[[{``ggggggg/C{[[[[[[[[[[[[[[[}}",
"}}]{[[[[[[[[[[[[[[[Pgggggggg`W{{[[[[[[[[[[[[[[}}",
"}}]][[[[[[[[[[[[[[[[IgggfffgE{[[[[[[[[[[[[[[[[}}",
"}}]{[[[[[[[[[[[[[[[[{WC`fvCW[[[[[[[[[[[[[[[[[[}}",
"}}][[[[[[[[[[[[[[[[[[[[[{{[[[[[[[[[[[[[[[[[[[[}}",
"}}][[[[[[[[[[[[[[[[[[[[[[{[[[[[[[[[[[[[[[[[[[[}}",
"}}][[[[[[[[[[[[[[[[[[[[[[[[[[[[[[[[[[[[[[[[[[[}}",
"}}]][[[[[[[[[[[[[[[[[[[[[[[[[[[[[[[[[[[[[[[[[[}}",
"}}[[[[[[[[[[[[[[[[[[[[[[[[[[[[[[[[[[[[[[[[[[[[}}",
"}}{[[[[[[[[[[[[[[[[[[[[[[[[[[[[[[[[[[[[[[[[[[[}}",
"}}{{[[[[[[[[[[[[[[[[[[[[[[[[[[[[[[[[[[[[[[[[[[}}",
"}}{[[[[[[[[[[[[[[[[[[[[[[[[[[[[[[[[[[[[[[[[[[[}}",
"}}W{[[[[[[[{[[[[[[[[[[[[[[[[[[[[[[[[[[[[[[[{[[}}",
"}}E[{{[[[[[{[[[[{{[[[[[{[[[[[{[[[[[[[{[[[[[{[[T}",
"}}HJHHJJJJIHJJJJHHJJJJIHJJJJHHHHJJJJHHJJJJHHHH}}",
"}}HHHIJJJJJJJJJJHHIJJJJJJJJJHHHHIJJJIJJJJJHHHH}}"
};
