/* XPM */
static const char *brick[] = {
/* columns rows colors chars-per-pixel */
"48 48 50 1 ",
"  c #E67E22",
". c #E67F22",
"X c #E67E23",
"o c #E7871F",
"O c #E88B1E",
"+ c #E88C1E",
"@ c #E88D1E",
"# c #E9941C",
"$ c #EA951C",
"% c #EB9F19",
"& c #EC9D1A",
"* c #F39C12",
"= c #F39C13",
"- c #F1BC0F",
"; c #F2BF0F",
": c #EDA916",
"> c #EDAB16",
", c #EDAD15",
"< c #EEAE15",
"1 c #EEAF15",
"2 c #F3A111",
"3 c #F2AE11",
"4 c #EEB513",
"5 c #EFB513",
"6 c #EFB613",
"7 c #EFB713",
"8 c #F0B812",
"9 c #F0BB12",
"0 c #E68021",
"q c #E68121",
"w c #E78221",
"e c #E78520",
"r c #E78421",
"t c #E78620",
"y c #F1C20F",
"u c #F0C30F",
"i c #F1C30F",
"p c #F2C30F",
"a c #F1C50E",
"s c #F0C40F",
"d c #F1C40F",
"f c #F0C50F",
"g c #F1C50F",
"h c #F2C40F",
"j c #F0C010",
"k c #F1C010",
"l c #F1C110",
"z c #F1C210",
"x c #F1C410",
"c c None",
/* pixels */
"cccccccccccccccccccccdjgdjdccccccccccccccccccccc",
"cccccccccccccccccccdddggggdddccccccccccccccccccc",
"ccccccccccccccccccddddddgdddddcccccccccccccccccc",
"cccccccccccccccccdddddddgddddddccccccccccccccccc",
"cccccccccccccccccjgjggddddddddjccccccccccccccccc",
"cccccccccccccccgj3ggggggdddddd1dgccccccccccccccc",
"ccccccccccccccddgtjjjgggdddddj@dddcccccccccccccc",
"ccccccccdddgddddje#8ggjgdddd8@wdddddcccccccccccc",
"ccccccdddddddddddw..#,4-j8,#..#dddddddddcccccccc",
"cccccdddddddddddd,......Xw...X1dddddddddddcccccc",
"ccccddddddddddggdd,.....XXX.@8dddddddddddddccccc",
"ccccjddddddddggjd-dd&o..w@#3ddddddddddddddddcccc",
"cccc,dddddddddggd,dddddddddddd8dddddddddddddcccc",
"cccd@jdjddddddgjj@dddddddddddd,dddddddddddd,dccc",
"cddd.@8jdjdddjj8@edddddddddddd@dddddddddddj@dddc",
"8ddde.e#,8jj84#w.#dddddddddddd.@8dddddddd8@wddd-",
"X&dd:...  XX...eX8dddddddddddd@. #,1d-13#..#dd3*",
" Xo1d,..  XX...t1ddddddddddddd,.XX      e..4-***",
"  ..&d-&o Xwo#3jddddddddddddddd,oXXX XX .@43****",
"  ...w-ddddddjddddddddddddddddjj-&oo o@#,-2=****",
"       &ddddddddd,dddddddddddd,ddddddddd3=******",
"        o8ddddddd@8ddddddddddj@dddddddd2==******",
"        XX&dddddd.@8dddgdddd8@wdddddd3**********",
"         XXo8ddddo..#448d1,#wX#dddd-2***********",
"             #ddd:......e.....1ddd3*************",
"            XXw-dj,.........e4dd-2**************",
"            X   &ddd&eweX@#3ddd1****************",
"                .w8ddjdddddddd2*****************",
"                ...&jjdddddd3*******************",
"                ....w8ddddd*********************",
"                  ....=dd3********************==",
"                   ....o*********************===",
"cXXX                    ******************=***=c",
"ccXX X                  ******************==**cc",
"ccccXXXX                *******************=cccc",
"cccccXXX                ***************=***ccccc",
"cccccccX                **************===ccccccc",
"ccccccccX  X            **************==cccccccc",
"ccccccccccXX            *************=cccccccccc",
"cccccccccccX            *************ccccccccccc",
"cccccccccccccXXX        ******=====ccccccccccccc",
"ccccccccccccccXX X      *******===cccccccccccccc",
"ccccccccccccccccXXXX    ******==cccccccccccccccc",
"cccccccccccccccccXXX    ******=ccccccccccccccccc",
"cccccccccccccccccccX   X****=ccccccccccccccccccc",
"ccccccccccccccccccccX  X****cccccccccccccccccccc",
"ccccccccccccccccccccccXX==cccccccccccccccccccccc",
"cccccccccccccccccccccccX=ccccccccccccccccccccccc"
};
