/* XPM */
static char *bubbles[] = {
/* columns rows colors chars-per-pixel */
"48 48 54 1 ",
"  c #95A4A6",
". c #95A5A6",
"X c #95A5A7",
"o c #96A5A6",
"O c #96A5A7",
"+ c #96A6A6",
"@ c #96A6A7",
"# c #97A6A7",
"$ c #98A7A9",
"% c #9AA8AA",
"& c #9AA9AA",
"* c #9AAAAB",
"= c #9CAAAC",
"- c #9EACAE",
"; c #A2AEB0",
": c #A8B4B6",
"> c #ADB7B9",
", c #AFB9BC",
"< c #B0B9BC",
"1 c #B3BBBF",
"2 c #B5BDC1",
"3 c #B8BFC3",
"4 c #B9C0C4",
"5 c #BBC1C5",
"6 c #BBC2C5",
"7 c #BCC3C6",
"8 c #BDC3C7",
"9 c #BEC3C7",
"0 c #BDC4C7",
"q c #BEC4C8",
"w c #BFC5C9",
"e c #C1C7CA",
"r c #C2C8CC",
"t c #C3C8CC",
"y c #C3C9CD",
"u c #C5CBCE",
"i c #C8CDD1",
"p c #CCD1D4",
"a c #D4D9DB",
"s c #D9DDE0",
"d c #DCE0E3",
"f c #DCE1E3",
"g c #E0E5E6",
"h c #E3E7E9",
"j c #E6EAEC",
"k c #E7ECED",
"l c #E8ECED",
"z c #E9EDEF",
"x c #EAEEEF",
"c c #ECEFF1",
"v c #EBF0F1",
"b c #ECF0F1",
"n c #EDF0F1",
"m c None",
/* pixels */
"mmmmmmmmmmmmmmmmmmmmmmmmmmmmmmmmmmmmmmmmmmmmmmmm",
"mmmmmmmmmmmmmmmmmmmmmmmmmmmmmmmmmmmmmmmmmmmmmmmm",
"mmmmmmmmmmmmmmmm99q9qqqqq9999999qqqqq999999999mm",
"mmmmmmmmmmmmmmmq999949q49999999949q499999999999m",
"mmmmmmmmmmmmmm9999qq94q9qq9q94qq94q9qq9q99qqq9q9",
"mmmmmmmmmmmmmm49q4q4qqqq9q4q999qqqqq9q4q4949q4q4",
"mmmmmmmmmmmmmm99q4q9qqq44q4qq44q4qq44q4qq94qq4q9",
"mmmmmmmmmmmmmm9999qq94q9qq9qq9qq9qq9qq9qqqqqq9qq",
"mmmmmmmmmmmmmm99q4qq49q494q94q94qqqqqqqq49q49q49",
"mmmmmmmmmmmmmm99q9q4qqq9qqqqqqqq49944949qqq94qqq",
"mmmmmmmmmmmmmm99q9q9qqqqqqq49qq9qqqqq94qqqqqqqqq",
"mmmmmmmmmmmmmm99q4qq49q494q94qq4q49qqqqq49q49q49",
"mmmmmmmmmmmmmm99q4qq94q9qq99q94qqq94qqqqq94qq94q",
"mmmmmmmmmmmmmm99q99q99qq9q49qqqqqq99q49qqqqqqqqq",
"mmbcbbbbbbbbbbbbbbvvbbbbvvbbbbkfrq49949449949449",
"mbbbbbbbbbbbbbbbbbbvbbbbbvbbbbvvzwqqqqqqqqqqqqqq",
"bbbbbbbbbbbbbbbbbbbbbbbbbbbbbbbbbfq94q94q94qqq9q",
"vbbbbbbbbbbbbbbbbbbbbbbbbbbbbbbbbkq9qqqqqqqqq44q",
"bbbbbbbbbbbbbbbbbbbbbbbbbbbbbbbbbbqq9qqq4994q99q",
"bbbbbbbbbbbbbbbbbbbbbbbbbbbbbbbbbzq44q94qqqqqq4q",
"bbbbbbbbbbbbbbbbbbbbbbbbbbbbbbbbbbq99q49qqqqq94q",
"bbbbbbbbbbbbbbbbbbbbbbbbbbbbbbbbbbq94qqq4949q49q",
"bbbbbbbbbbbbbbbbbbbbbbbbbbbbbbbbbbqqqqqqq94qq4q4",
"bbbbbbbbbbbbbbbbbbbbbbbbbbbbbbbbbzq49q49qqqqq9q,",
"bbbbbbbbbbbbbbbbbbbbbbbbbbbbbbbbbbq999qqq499999*",
"bbbbbbbbbbbbbbbbbbbbbbbbbbbbbbbbbbq999q4q9992,$+",
"bbbbbbbbbbbbbbbbbbbbbbbbbbbbbbbbbb*994q9q999+++m",
"bbbbbbbbbbbbbbbbbbbbbbbbbbbbbbbbbcO$29qqq4qq++mm",
"bbbbbbbbbbbbbbbbbbbbbbbbbbbbbbbbbbm+O>9qq4qqmmmm",
"bbbbbbbbbbbbbbbbbbbbbbbbbbbbbbbbbbmmO+:qq99qmmmm",
"bbbbbbbbbbbbbbbbbbbbbbbbbbbbbbbbbbmmm++;4q4qmmmm",
"bbbbbbbbbbbbbbbbbbbbbbbbbbbbbbbbbbmmmmmO*2qqmmmm",
"bbbbbbbbbbbbbbbbbbbbbbbbbbbbbbbbbbmmmmmm+$29mmmm",
"bbbbbbbbbbbbbbbbbbbbbbbbbbbbbbbbbbmmmmmmm+O>mmmm",
"kbbbbbbbbbbbbbbbbbbbbbbbbbbbbbbbbkmmmmmmmm++mmmm",
"fbbbbbbbbbbbbbbbbbbbbbbbbbbbbbbbbfmmmmmmmmmOmmmm",
"wvbbbbbbbbbbbbbbvbbbbbbbbbvbbbbbbrmmmmmmmmmmmmmm",
"qrfkbbbbbbbbbbbbvvbbbbbbbbvvbbkfrqmmmmmmmmmmmmmm",
"mq99bbbbbbbbki99q999999994q994q4qmmmmmmmmmmmmmmm",
"mm99bbbbbbbkw499qq49999999qq999qmmmmmmmmmmmmmmmm",
"mmmmbbbbbbfqqmmmmmmmmmmmmmmmmmmmmmmmmmmmmmmmmmmm",
"mmmmbbbbba99mmmmmmmmmmmmmmmmmmmmmmmmmmmmmmmmmmmm",
"mmmmbbbbp99mmmmmmmmmmmmmmmmmmmmmmmmmmmmmmmmmmmmm",
"mmmmbblrqmmmmmmmmmmmmmmmmmmmmmmmmmmmmmmmmmmmmmmm",
"mmmmbfr9mmmmmmmmmmmmmmmmmmmmmmmmmmmmmmmmmmmmmmmm",
"mmmmsqqmmmmmmmmmmmmmmmmmmmmmmmmmmmmmmmmmmmmmmmmm",
"mmmm99mmmmmmmmmmmmmmmmmmmmmmmmmmmmmmmmmmmmmmmmmm",
"mmmm9mmmmmmmmmmmmmmmmmmmmmmmmmmmmmmmmmmmmmmmmmmm"
};
