/* XPM */
static const char *calculator[] = {
/* columns rows colors chars-per-pixel */
"48 48 29 1 ",
"  c #2C3E50",
". c #324456",
"X c #34495E",
"o c #495C6D",
"O c #4D5D6C",
"+ c #E74C3C",
"@ c #6B7C85",
"# c #7F8C8C",
"$ c #7F8C8D",
"% c #7C8893",
"& c #7E8F95",
"* c #808C8D",
"= c #828F90",
"- c #849192",
"; c #8D9C9D",
": c #909FA0",
"> c #93A3A4",
", c #94A4A5",
"< c #95A4A5",
"1 c #95A5A6",
"2 c #96A5A6",
"3 c #99A4A5",
"4 c #A9B7B8",
"5 c #D5DBDC",
"6 c #DAE0E1",
"7 c #DBE1E3",
"8 c #E6EAEC",
"9 c #ECF0F1",
"0 c None",
/* pixels */
"000000000000000000000000000000000000000000000000",
"000000000000000000000000000000000000000000000000",
"000000000011111111111111111111111111110000000000",
"000000000111111111111111111111111111111000000000",
"000000001111111111111111111111111111111100000000",
"000000001111111111111111111111111111111100000000",
"000000001111@.                    .@111100000000",
"000000001111.                      .111100000000",
"000000001111XXXXXXXXXXXXXXXXXXXXXXXX111100000000",
"000000001111XXXXXXXXXXXXXXXXXXXXXXXX111100000000",
"000000001111XXXXXXXXXXXXXXXXXXXXXXXX111100000000",
"000000001111XXXXXXXXXXXXXXXXXXXXXXXX111100000000",
"000000001111oXXXXXXXXXXXXXXXXXXXXXXo111100000000",
"000000001111&oXXXXXXXXXXXXXXXXXXXXo&111100000000",
"000000001111111111111111111111111111111100000000",
"000000001111111111111111111111111111111100000000",
"000000001111111111111111111111111111111100000000",
"000000001111111111111111111111111111111100000000",
"000000001111469999996411114699999964111100000000",
"000000001111699999999611116999999996111100000000",
"0000000011119999  999911119999999999111100000000",
"0000000011119999  999911119999999999111100000000",
"00000000111199      99111199      99111100000000",
"00000000111199      99111199      99111100000000",
"0000000011119999  999911119999999999111100000000",
"0000000011119999  999911119999999999111100000000",
"000000001111599999999511115999999995111100000000",
"000000001111359999995311113599999953111100000000",
"000000001111-$$$$$$$$-1111-$*$$$$$$-111100000000",
"000000001111:-$$$$$$-:1111:-*$$$$$-:111100000000",
"000000001111111111111111111111111111111100000000",
"000000001111111111111111111111111111111100000000",
"000000001111469999996422224599999974111100000000",
"000000001111699999999622227999999997111100000000",
"000000001111998&66%899322299++++++99111100000000",
"00000000111199% Oo =99322299++++++99111100000000",
"000000002222996o  O69911229999999999>11100000000",
"000000002222996o  O699111>9999999999111100000000",
"00000000222299* oo &99111199++++++99111100000000",
"00000000>222998%66%899111199++++++99111100000000",
"000000002222599999999511115999999995111100000000",
"000000002>>2259999995311113599999953111100000000",
"00000000>>22-$&&$$$$$-1111*$$$$$$$$-111100000000",
"00000000;22>;=$$$$$$-:11111-$$$$$$-;111;00000000",
"00000000$122222211111111111111111111111=00000000",
"00000000$&;>2222111111111111111111111;*$00000000",
"000000000$$$$$$$$$$$$$$$$$$$$$$$$$$$$$=000000000",
"0000000000$$$$$$$$$$$$$$$$$$$$$$$$$$*&0000000000"
};
