/* XPM */
static char *carton[] = {
/* columns rows colors chars-per-pixel */
"48 48 17 1 ",
"  c #16A085",
". c #1ABC9C",
"X c #7F8C8D",
"o c #69B1A6",
"O c #2FC1A4",
"+ c #59CBB5",
"@ c #95A5A6",
"# c #83D6C6",
"$ c #83D6C7",
"% c #BDC3C7",
"& c #ADE1D8",
"* c #C8CED1",
"= c #D7EBE9",
"- c #E2E6E8",
"; c #ECF0F1",
": c #EDF0F2",
"> c None",
/* pixels */
">>>>>>>>>>>>>>>>>>>>>>>>>>>>>>>>>>>>>>>>>>>>>>>>",
">>>>>>>>>>>>>>>>>>>>>>>>>>>>>>>>>>>>>>>>>>>>>>>>",
">>>>>>>>>>>>>>>>>>>>>>>>>>>>>>>>>>>>>>>>>>>>>>>>",
">>>>>>>>>>>>>>>>>>>>>>>>>>>>>>>>>>>>>>>>>>>>>>>>",
">>>>>>>>;;;;;;;;::;=........=::;;;;;;;;;>>>>>>>>",
">>>>>>>:;;;;;;;;;:;&........&:;;;;;;;;;;:>>>>>>>",
">>>>>>>:;;;;;;;;;;;#........#;;;;;;;;;;;:>>>>>>>",
">>>>>>>:;;;;;;;;;;;+........+;;;;;;;;;;;:>>>>>>>",
">>>>>>:;;;;;;;;;;;;O........O:;;;;;;;;;;::>>>>>>",
">>>>>>::;;;;;;;;;;=..........=;;;;;;;;;;;:>>>>>>",
">>>>>:;;;;;;;;;;;;&..........&;;;;;;;;;;;;:>>>>>",
">>>>>;;;;;;;;;;;;;#..........#;;;;;;;;;;;;:>>>>>",
">>>>>:;;;;;;;;;;;;+..........+:;;;;;;;;;;;;>>>>>",
">>>>::;;;;;;;;;;;;O..........O;;;;;;;;;;;;::>>>>",
">>>>%%%%%%%%%%%%%%            %%%%%%%%%%%%%%>>>>",
">>>>%%%%%%%%%%%%%%            %%%%%%%%%%%%%%>>>>",
">>>>%%%%%%%%%%%%%%            %%%%%%%%%%%%%%>>>>",
">>>>%%%%%%%%%%%%%%            %%%%%%%%%%%%%%>>>>",
">>>>%%%%%%%%%%%%%%            %%%%%%%%%%%%%%>>>>",
">>>>%%%%%%%%%%%%%%            %%%%%%%%%%%%%%>>>>",
">>>>%%%%%%%%%%%%%%            %%%%%%%%%%%%%%>>>>",
">>>>%%%%%%%%%%%%%%            %%%%%%%%%%%%%%>>>>",
">>>>%%%%%%%%%%%%%%            %%%%%%%%%%%%%%>>>>",
">>>>%%%%%%%%%%%%%%            %%%%%%%%%%%%%%>>>>",
">>>>%%%%%%%%%%%%%%            %%%%%%%%%%%%%%>>>>",
">>>>%%%%%%%%%%%%%%            %%%%%%%%%%%%%%>>>>",
">>>>%%%%%%%%%%%%%% oo  oo  oo %%%%%%%%%%%%%%>>>>",
">>>>%%%%%%%%%%%%%%o%%oo%%oo%%o%%%%%%%%%%%%%%>>>>",
">>>>%%%%%%%%%%%%%%%%%%%%%%%%%%%%%%%%%%%%%%%%>>>>",
">>>>%%%%%%%%%%%%%%%%%%%%%%%%%%%%%%%%%%%%%%%%>>>>",
">>>>%%%%%%%%%%%%%%%%%%%%%%%%%%%%%%%%%%%%%%%%>>>>",
">>>>%%%%%%%%%%%%%%%%%%%%%%%%%%%%%%%%%%%%%%%%>>>>",
">>>>%%%%%%%%%%%%%%%%%%%%%%%%%%%%%%%%%%%%%%%%>>>>",
">>>>%%%%%%%%%%%%%%%%%%%%%%%%%%%%%%%%%%%%%%%%>>>>",
">>>>%%%%*-:;;;;;;;;;;;-*%%%%%%%%%%%%%%%%%%%%>>>>",
">>>>%%%%-::;;;;;;;;;;;;-%%%%%%%%%%%%%%%%%%%%>>>>",
">>>>%%%%;;@@;;@@%%@@XX;;%%%%%%%%%%%%%%%%%%%%>>>>",
">>>>%%%%;;@@;;@@%%@@XX;;%%%%%%%%%%%%%%%%%%%%>>>>",
">>>>%%%%;;@@;;@@%%@@XX;;%%%%%%%%%%%%%%%%%%%%>>>>",
">>>>%%%%;;@@;;@@%%@@XX;;%%%%%%%%%%%%%%%%%%%%>>>>",
">>>>%%%%-;;;;;;;:;;;;;;-%%%%%%%%%%%%%%%%%%%%>>>>",
">>>>%%%%*-;;;;;;::;;;;-*%%%%%%%%%%%%%%%%%%%%>>>>",
">>>>%%%%%%%%%%%%%%%%%%%%%%%%%%%%%%%%%%%%%%%%>>>>",
">>>>%%%%%%%%%%%%%%%%%%%%%%%%%%%%%%%%%%%%%%%%>>>>",
">>>>%%%%%%%%%%%%%%%%%%%%%%%%%%%%%%%%%%%%%%%%>>>>",
">>>>%%%%%%%%%%%%%%%%%%%%%%%%%%%%%%%%%%%%%%%%>>>>",
">>>>>>>>>>>>>>>>>>>>>>>>>>>>>>>>>>>>>>>>>>>>>>>>",
">>>>>>>>>>>>>>>>>>>>>>>>>>>>>>>>>>>>>>>>>>>>>>>>"
};
