/* XPM */
static char *database[] = {
/* columns rows colors chars-per-pixel */
"48 48 135 2 ",
"   c #7F8C8D",
".  c #808D8E",
"X  c #818E8F",
"o  c #818E90",
"O  c #828E90",
"+  c #828F90",
"@  c #829091",
"#  c #839091",
"$  c #839192",
"%  c #849293",
"&  c #849393",
"*  c #869394",
"=  c #869494",
"-  c #869595",
";  c #879596",
":  c #889496",
">  c #899798",
",  c #8A9799",
"<  c #8B9A9B",
"1  c #8C989A",
"2  c #8D9C9D",
"3  c #8E9C9D",
"4  c #8F9C9D",
"5  c #8E9D9E",
"6  c #8F9E9F",
"7  c #909C9D",
"8  c #929E9F",
"9  c #91A0A1",
"0  c #92A0A2",
"q  c #92A2A3",
"w  c #95A1A3",
"e  c #93A3A4",
"r  c #94A3A4",
"t  c #94A4A5",
"y  c #95A4A6",
"u  c #95A5A6",
"i  c #96A5A6",
"p  c #96A6A7",
"a  c #97A6A7",
"s  c #97A6A8",
"d  c #97A7A8",
"f  c #98A6A8",
"g  c #99A7A8",
"h  c #9BA6A8",
"j  c #9AA7A8",
"k  c #9CA6A8",
"l  c #99A8A9",
"z  c #9AA8AA",
"x  c #9BA8AA",
"c  c #9AA9AA",
"v  c #9BA9AA",
"b  c #9BA9AB",
"n  c #9BAAAB",
"m  c #9CAAAC",
"M  c #9DABAC",
"N  c #9DABAD",
"B  c #9EACAD",
"V  c #9FADAF",
"C  c #A1AEB0",
"Z  c #A2AFB1",
"A  c #A6AFB2",
"S  c #A2B0B1",
"D  c #A4B0B2",
"F  c #A6B2B4",
"G  c #A7B2B5",
"H  c #A7B3B5",
"J  c #A9B4B6",
"K  c #A9B4B7",
"L  c #A8B5B7",
"P  c #ABB4B7",
"I  c #ABB5B8",
"U  c #ADB7BA",
"Y  c #AEB8BB",
"T  c #AFB8BB",
"R  c #AEB9BB",
"E  c #AEBABB",
"W  c #AFBBBC",
"Q  c #B1B8BC",
"!  c #B0B9BC",
"~  c #B0BABD",
"^  c #B1BABD",
"/  c #B2BABC",
"(  c #B2BABE",
")  c #B2BBBE",
"_  c #B4BCC0",
"`  c #B5BDC0",
"'  c #B6BEC1",
"]  c #B8BFC3",
"[  c #B6C0C2",
"{  c #B8C0C3",
"}  c #BAC0C4",
"|  c #BAC1C4",
" . c #BAC1C5",
".. c #BBC2C6",
"X. c #BCC2C6",
"o. c #BCC3C6",
"O. c #BDC3C6",
"+. c #BDC2C7",
"@. c #BDC3C7",
"#. c #BEC3C7",
"$. c #BCC4C6",
"%. c #BDC4C7",
"&. c #BDC2C8",
"*. c #BDC3C8",
"=. c #BEC4C8",
"-. c #BFC5C9",
";. c #BEC8C9",
":. c #C2C7CB",
">. c #C5CBCE",
",. c #C6CCCF",
"<. c #C8CDD0",
"1. c #CCD1D5",
"2. c #CCD4D5",
"3. c #D1D6D9",
"4. c #D4D9DC",
"5. c #D5DADC",
"6. c #D4DBDC",
"7. c #D9DEE0",
"8. c #DADFE1",
"9. c #DBE2E3",
"0. c #DDE2E4",
"q. c #DCE3E4",
"w. c #DEE3E5",
"e. c #DFE4E5",
"r. c #E1E6E8",
"t. c #E4E8E9",
"y. c #E6EAEB",
"u. c #E8ECED",
"i. c #E8ECEE",
"p. c #E8EDEE",
"a. c #EAEEEF",
"s. c #EAEFF0",
"d. c #EBEFF0",
"f. c #ECF0F1",
"g. c None",
/* pixels */
"g.g.g.g.g.g.g.g.g.g.g.g.g.g.g.g.g.g.g.g.g.g.g.g.g.g.g.g.g.g.g.g.g.g.g.g.g.g.g.g.g.g.g.g.g.g.g.g.",
"g.g.g.g.g.g.g.g.g.g.g.g.g.g.g.g.g.g.g.g.g.g.g.g.g.g.g.g.g.g.g.g.g.g.g.g.g.g.g.g.g.g.g.g.g.g.g.g.",
"g.g.g.g.g.g.g.g.g.g.g.g.g.g.g.g.g.g.+.+.+.+.| +.+.+.+.+.+.+.g.g.g.g.g.g.g.g.g.g.g.g.g.g.g.g.g.g.",
"g.g.g.g.g.g.g.g.g.g.g.g.g.g.+.+.+.+.+.;.;.+.+.;.+.+.;.+.+.;.+.+.+.+.g.g.g.g.g.g.g.g.g.g.g.g.g.g.",
"g.g.g.g.g.g.g.g.g.g.g.+.+.| +.+.+.+.;.+.+.+.+.+.+.+.+.;.+.;.+.+.+.+.+.+.+.g.g.g.g.g.g.g.g.g.g.g.",
"g.g.g.g.g.g.g.g.g.g.;.+.+.;.+.+.+.;.+.+.+.+.+.+.;.+.+.+.+.+.+.+.+.;.+.;.+.+.g.g.g.g.g.g.g.g.g.g.",
"g.g.g.g.g.g.g.g.+.+.;.+.+.;.;.+.+.+.;.+.;.+.+.+.+.+.+.+.+.+.+.;.+.+.;.+.;.+.+.+.g.g.g.g.g.g.g.g.",
"g.g.g.g.g.g.g.+.+.+.+.+.+.| +.+.+.+.+.+.+.+.+.;.+.+.+.+.;.+.+.+.+.+.+.+.+.+.+.;.+.g.g.g.g.g.g.g.",
"g.g.g.g.g.g.+.+.+.+.;.+.+.+.+.+.+.+.| :.;.+.+.+.+.;.+.+.+.+.+.+.+.;.| +.;.+.+.+.+.+.g.g.g.g.g.g.",
"g.g.g.g.g.g.+.+.+.+.+.+.| ;.;.| +.+.+.| | +.+.| +.| +.+.;.| | ;.+.+.+.+.+.+.+.| +.+.g.g.g.g.g.g.",
"g.g.g.g.g.g.[ +.+.+.+.+.+.+.;.+.;.| +.;.:.| | :.+.| +.;.+.+.+.+.;.| +.+.+.| +.;.+.+.g.g.g.g.g.g.",
"g.g.g.g.g.g.R +.+.+.+.;.+.+.+.+.| :.+.+.+.+.;.+.+.;.+.+.+.+.;.+.+.+.+.;.+.;.+.+.+.;.g.g.g.g.g.g.",
"g.g.g.g.g.g.M ] ;.+.+.;.+.+.+.+.+.+.+.;.:.| +.+.+.| ;.+.+.+.+.+.;.+.+.+.+.+.+.+.+.+.g.g.g.g.g.g.",
"g.g.g.g.g.g.u M [ +.+.+.+.+.+.;.+.+.:.| | ;.+.+.+.:.| +.;.| | ;.+.+.+.+.+.;.+.+.+.+.g.g.g.g.g.g.",
"g.g.g.g.g.g.u u u J +.+.+.+.+.+.;.+.| +.+.+.| :.+.+.| +.+.+.+.+.+.+.+.+.+.+.;.+.+.+.g.g.g.g.g.g.",
"g.g.g.g.g.g.u u u u M R +.;.+.+.| +.+.+.+.+.+.| ;.+.;.+.+.+.;.+.+.;.+.+.+.;.+.+.+.;.g.g.g.g.g.g.",
"g.g.g.g.g.g.u u u u u u u F E +.:.+.+.+.;.+.+.+.+.+.;.+.+.+.;.| +.+.;.+.+.;.| +.+.+.g.g.g.g.g.g.",
"g.g.g.g.g.g.4 u u u u u u u u u v F J E R [ [ +.+.;.+.+.+.+.+.+.+.+.| +.+.| ;.+.+.E g.g.g.g.g.g.",
"g.g.g.g.g.g.& u u u u u u u u u u u r u u u u u +.+.;.+.+.+.+.;.;.+.+.+.+.+.+.+.[ F g.g.g.g.g.g.",
"g.g.g.g.g.g.8 & u u u u u u u u u u u u u u u u +.+.+.+.;.+.+.+.+.+.+.;.+.;.+.| M R g.g.g.g.g.g.",
"g.g.g.g.g.g./ +   4 u u u u u u u u u u u u u u +.+.+.+.| +.;.| +.+.+.+.+.+.E u M e.g.g.g.g.g.g.",
"g.g.g.g.g.g.R / &     4 u u u u u u u u u u u u +.+.+.+.+.+.+.+.+.+.+.+.E v u V e.9.g.g.g.g.g.g.",
"g.g.g.g.g.g.v +.+.v       - 5 7 u u u u u u u u ;.+.:.+.+.+.+.;.| E F v u u ;.d.y.;.g.g.g.g.g.g.",
"g.g.g.g.g.g.u M / +.R 4 #       # > > 7 7 7 u u | | / E E E F v u u u u L 9.d.y.,.+.g.g.g.g.g.g.",
"g.g.g.g.g.g.u u u J +.+.+.F 4 # . .   #   #     u u u u u u u u v E 1.p.d.d.6.+.+.+.g.g.g.g.g.g.",
"g.g.g.g.g.g.u u u u M / +.+.+.+.J v 7 > > # # . u v F F E [ ;.6.d.d.d.d.e.,.;.+.+.+.g.g.g.g.g.g.",
"g.g.g.g.g.g.u u u u u u u F J | :.+.+.+.+.+.+.+.d.d.d.d.d.a.d.d.y.9.1.;.+.;.+.+.+.+.g.g.g.g.g.g.",
"g.g.g.g.g.g.4 u u u u u u u u u v F J E E [ [ ;.d.y.y.9.5.6.6.,.+.+.+.+.+.+.+.+.+.R g.g.g.g.g.g.",
"g.g.g.g.g.g.& u u u u u u u u u u u u u u u u u +.+.+.;.:.+.+.+.+.+.+.;.+.+.+.+.+.V g.g.g.g.g.g.",
"g.g.g.g.g.g.7 & u u u u u u u u u u u u u u u u ;.+.+.+.+.+.+.+.;.+.+.+.+.;.+.+.M R g.g.g.g.g.g.",
"g.g.g.g.g.g./ + . > u u u u u u u u u u u u u u | +.+.+.+.+.+.;.+.+.+.+.+.+.J u l e.g.g.g.g.g.g.",
"g.g.g.g.g.g.Y / =   # 7 u u u u u u u u u u u r +.+.+.+.;.+.+.+.+.+.;.;.R u u V e.e.g.g.g.g.g.g.",
"g.g.g.g.g.g.M ] +.h     . & 4 u u u u u u u u u ] *.*.+.+.+.+.+.+.R F u 7 u ;.d.d.,.g.g.g.g.g.g.",
"g.g.g.g.g.g.u M ' +./ 4         & = 4 4 4 6 u u +.' ' / R J F M u u u u E 9.d.y.,.+.g.g.g.g.g.g.",
"g.g.g.g.g.g.u u u J +.*.] F 4 + . .       .     u u u u u u u u v R 1.d.d.d.6.;.+.+.g.g.g.g.g.g.",
"g.g.g.g.g.g.u u u u M R +.+.*.*.J a u 4 , & + + s M Z F R [ ;.6.d.d.d.d.9.,.+.+.+.+.g.g.g.g.g.g.",
"g.g.g.g.g.g.u u u u u u a Z Y +.*.*.*.+.+.+.+.+.s.s.a.f.f.f.d.d.p.9.<.;.+.+.+.+.+.+.g.g.g.g.g.g.",
"g.g.g.g.g.g.4 u u u u u u u u u M F J R R ' ' +.s.y.y.e.6.6.6.1.+.+.;.+.+.+.+.+.+.R g.g.g.g.g.g.",
"g.g.g.g.g.g.& u u u u u u u u u u u u u u u u u *.+.+.+.*.+.+.+.+.;.+.+.;.+.+.;.+.M g.g.g.g.g.g.",
"g.g.g.g.g.g.+ + u u u u u u u u u u u u u u u u +.+.+.+.*.+.+.+.+.+.+.+.+.+.+.| M u g.g.g.g.g.g.",
"g.g.g.g.g.g.g..   4 u u u u u u u u u u u u u u ;.+.+.+.+.+.+.+.+.+.+.+.+.+.Y u u g.g.g.g.g.g.g.",
"g.g.g.g.g.g.g.g.    + 4 u u u u u u u u u u u u +.+.+.+.+.+.+.+.+.+.+.+.Y M u u g.g.g.g.g.g.g.g.",
"g.g.g.g.g.g.g.g.g.+       & 4 u u u u u u u u u +.+.*.*.;.+.*.+.+.R F h u u u g.g.g.g.g.g.g.g.g.",
"g.g.g.g.g.g.g.g.g.g.g.&         & & 4 4 6 u 6 u +.+./ R R E F M u u u u u g.g.g.g.g.g.g.g.g.g.g.",
"g.g.g.g.g.g.g.g.g.g.g.g.g.g.& + . .   .         u u u u u u u u u M u g.g.g.g.g.g.g.g.g.g.g.g.g.",
"g.g.g.g.g.g.g.g.g.g.g.g.g.g.g.g.g.& & & & & # # u u M M h M h u g.g.g.g.g.g.g.g.g.g.g.g.g.g.g.g.",
"g.g.g.g.g.g.g.g.g.g.g.g.g.g.g.g.g.g.g.g.g.g.g.g.g.g.g.g.g.g.g.g.g.g.g.g.g.g.g.g.g.g.g.g.g.g.g.g.",
"g.g.g.g.g.g.g.g.g.g.g.g.g.g.g.g.g.g.g.g.g.g.g.g.g.g.g.g.g.g.g.g.g.g.g.g.g.g.g.g.g.g.g.g.g.g.g.g."
};
