/* XPM */
static const char *device_computer[] = {
/* columns rows colors chars-per-pixel */
"48 48 32 1 ",
"  c #2C3E50",
". c #2C3E51",
"X c #2D3F51",
"o c #2D3F52",
"O c #2D4052",
"+ c #2D4053",
"@ c #2E4053",
"# c #2E4154",
"$ c #2F4255",
"% c #2F4256",
"& c #304356",
"* c #304357",
"= c #304458",
"- c #314558",
"; c #314559",
": c #32465A",
"> c #32475B",
", c #33475B",
"< c #33475C",
"1 c #33485C",
"2 c #33485D",
"3 c #34495D",
"4 c #34495E",
"5 c #7F8C8D",
"6 c #879597",
"7 c #869696",
"8 c #94A5A5",
"9 c #95A5A5",
"0 c #95A4A6",
"q c #95A5A6",
"w c #BDC3C7",
"e c None",
/* pixels */
"eeeeeeeeeeeeeeeeeeeeeeeeeeeeeeeeeeeeeeeeeeeeeeee",
"eeeeeeeeeeeeeeeeeeeeeeeeeeeeeeeeeeeeeeeeeeeeeeee",
"eeeeeeeeeeeeeeeeeeeeeeeeeeeeeeeeeeeeeeeeeeeeeeee",
"eeeeeeeeeeeeeeeeeeeeeeeeeeeeeeeeeeeeeeeeeeeeeeee",
"eeeeeeeeeeeeeeeeeeeeeeeeeeeeeeeeeeeeeeeeeeeeeeee",
"eeeeeeeeeeeeeeeeeeeeeeeeeeeeeeeeeeeeeeeeeeeeeeee",
"ewwwwwwwwwwwwwwwwwwwwwwwwwwwwwwwwwwwwwwwwwwwwwwe",
"wwwwwwwwwwwwwwwwwwwwwwwwwwwwwwwwwwwwwwwwwwwwwwww",
"ww44444444444444444444444444444444444444444444ww",
"ww4444444444444444444444444444444444444444444<ww",
"ww444444444444444444444444444444444444444444<Oww",
"ww4444444444444444444444444444444444444444<;XXww",
"ww444444444444444444444444444444444444424;XX  ww",
"ww4444444444444444444444444444444444444;;XXX  ww",
"ww444444444444444444444444444444444444;X  X   ww",
"ww4444444444444444444444444444444444<O        ww",
"ww444444444444444444444444444444444OXX        ww",
"ww4444444444444444444444444444444<XXXX        ww",
"ww44444444444444444444444444444<OX  X         ww",
"ww4444444444444444444444444444-X              ww",
"ww44444444444444444444444444<O                ww",
"ww4444444444444444444444444O                  ww",
"ww44444444444444444444444<XX                  ww",
"ww4444444444444444444444OX                    ww",
"ww44444444444444444444OXXX                    ww",
"ww4444444444444444444OX                       ww",
"ww4444444444444444<OXX                        ww",
"ww444444444444444;X  X                        ww",
"ww444444444442<;OXXX                          ww",
"ww44444444444<; XXXX                          ww",
"ww444444442<;X                                ww",
"ww44444444<;XX                              XXww",
"ww4444444;X                                   ww",
"ww44444<XX                                    ww",
"ww44<4;XX                                     ww",
"ww44;XXXX                                     ww",
"wwwwwwwwwwwwwwwwwwwwwwwwwwwwwwwwwwwwwwwwwwwwwwww",
"wwwwwwwwwwwwwwwwwwwwwwwwwwwwwwwwwwwwwwwwwwwwwwww",
"wwwwwwwwwwwwwwwwwwwwwwwwwwwwwwwwwwwwwwwwwwwwwwww",
"ewwwwwwwwwwwwwwwwwwwwwwwwwwwwwwwwwwwwwwwwwwwwwwe",
"eeeeeeeeeeeeeeeee77555555555556eeeeeeeeeeeeeeeee",
"eeeeeeeeeeeeeeeee75555575557576eeeeeeeeeeeeeeeee",
"eeeeeeeeeeeeeeeee0qq8880008888qeeeeeeeeeeeeeeeee",
"eeeeeeeeeeeeeeeeeqqq8888008888qeeeeeeeeeeeeeeeee",
"eeeeeeeeeeeeeeeeeqqq00000008qqqeeeeeeeeeeeeeeeee",
"eeeeeeeeeeeeeeeeqqqq00000088qqqqeeeeeeeeeeeeeeee",
"eeeeeeeeeeeeeee8qqqqqq000088qqq88eeeeeeeeeeeeeee",
"eeeeeeeeeeeeee88qqqqqq000888qqq888eeeeeeeeeeeeee"
};
