/* XPM */
static char *device_drive[] = {
/* columns rows colors chars-per-pixel */
"48 48 19 1 ",
"  c #F1C40F",
". c #7F8C8C",
"X c #7F8C8D",
"o c #808C8D",
"O c #828F90",
"+ c #8D9C9D",
"@ c #93A3A4",
"# c #94A4A5",
"$ c #95A5A6",
"% c #9AA9AA",
"& c #A8B0B3",
"* c #AFB9BC",
"= c #B7BEC1",
"- c #B9C0C4",
"; c #BBC1C5",
": c #BCC3C6",
"> c #BDC3C7",
", c #BDC4C7",
"< c None",
/* pixels */
"<<<<<<<<<<<<<<<<<<<<<<<<<<<<<<<<<<<<<<<<<<<<<<<<",
"<<<<<<<<<<<<<<<<<<<<<<<<<<<<<<<<<<<<<<<<<<<<<<<<",
"<<<<<<<<>>>>>>>>>>>>>>>>>>>>>>>>>>>>>>>><<<<<<<<",
"<<<<<<<,>>>>>>>>>>>>>>>>>>>>>>>>>>>>>>>>><<<<<<<",
"<<<<<<,,>>>>>>>>>>>>>>>>>>>>>>>>>>>>>>>>>><<<<<<",
"<<<<<<,,>>>>>>>>>>>>>>>>>>>>>>>>>>>>>>>>>><<<<<<",
"<<<<<<,,>>>>>>>>>>>>>>>>>>>>>>>>>>>>>>>>>><<<<<<",
"<<<<<<=,>>>>>>>>>>>>>>>>>>>>>>>>>>>>>>>>>><<<<<<",
"<<<<<<>>>>>>>>>>>>>>>>>>>>>>>>>>>>>>>>>>>><<<<<<",
"<<<<<<>>>>>>>>>>>>>>>>>>>>>>>>>>>>>>>>>>>><<<<<<",
"<<<<<<>>>>>>>>>>>>>>>>>>>>>>>>>>>>>>>>>>>><<<<<<",
"<<<<<<>>>>>>>>>>>>>>>>>>>>>>>>>>>>>>>>>>>><<<<<<",
"<<<<<<>>>>>>>>>>>>>>>>>>>>>>>>>>>>>>>>>>>><<<<<<",
"<<<<<<>>>>>>>>>>>>>>>>>>>>>>>>>>>>>>>>>>>><<<<<<",
"<<<<<<>>>>>>>>>>>>>>>>>>>>>>>>>>>>>>>>>>>><<<<<<",
"<<<<<<>>>>>>>>>>>>>>>>>>>>>>>>>>>>>>>>>>>><<<<<<",
"<<<<<<>>>>>>>>>>>>>>>>>>>>>>>>>>>>>>>>>>>><<<<<<",
"<<<<<<>>>>>>>>>>>>>>>>>>>>>>>>>>>>>>>>>>>><<<<<<",
"<<<<<<>>>>>>>>>>>>>>>>>>>>>>>>>>>>>>>>>>>><<<<<<",
"<<<<<<>>>>>>>>>>>>>>>>>>>>>>>>>>>>>>>>>>>><<<<<<",
"<<<<<<>>>>>>>>>>>>>>>>>>>>>>>>>>>>>>>>>>>><<<<<<",
"<<<<<<>>>>>>>>>>>>>>>>>>>>>>>>>>>>>>>>>>>><<<<<<",
"<<<<<<>>>>>>>>>>>>>>>>>>>>>>>>>>>>>>>>>>>><<<<<<",
"<<<<<<>>>>>>>>>>>>>>>>>>>>>>>>>>>>>>>>>>>><<<<<<",
"<<<<<<>>>>>>>>>>>>>>>>>>>>>>>>>>>>>>>>>>,,<<<<<<",
"<<<<<<>>>>>>>>>>>>>>>>>>>>>>>>>>>>>>>>>>,,<<<<<<",
"<<<<<<>>>>>>>>>>>>>>>>>>>>>>>>>>>>>>>>>>,,<<<<<<",
"<<<<<<>>>>>>>>>>>>>>>>>>>>>>>>>>>>>>>>>>=,<<<<<<",
"<<<<<<>>>>>>>>>>>>>>>>>>>>>>>>>>>>>>>>>>>><<<<<<",
"<<<<<<>>>>>>>>>>>>>>>>>>>>>>>>>>>>>>>>>>>><<<<<<",
"<<<<<<>>>>>>>>>>>>>>>>>>>>>>>>>>>>>>>>>>>><<<<<<",
"<<<<<<>>>>>>>>>>>>>>>>>>>>>>>>>>>>>>>>>>>><<<<<<",
"<<<<<<>>>>>>>>>>>>>>>>>>>>>>>>>>>>>>>>>>>><<<<<<",
"<<<<<<>>>>>>>>>>>>>>>>>>>>>>>>>>>>>>>>>>>><<<<<<",
"<<<<<<=>>>>>>>>>>>>>>>>>>>>>>>>>>>>>>>>>>=<<<<<<",
"<<<<<<*>>>>>>>>>>>>>>>>>>>>>>>>>>>>>>>>>>*<<<<<<",
"<<<<<<%,>>>>>>>>>>>>,,,,>>>>>>>>>>>>>>>>>%<<<<<<",
"<<<<<<$%*,>>>>>>>>>>=,,,>>>>>>>>>>>>>>=&%$<<<<<<",
"<<<<<<$$$$$$$$$$$$$$$$$$$$$$$$OoXXXXXXXX$$<<<<<<",
"<<<<<<$$$$$$$$$$$$$$$$$$$$$$$$ooXXXXXXXX$$<<<<<<",
"<<<<<<$$$$$$$$$$$$$$$$$$$$$$$$XX      XX$$<<<<<<",
"<<<<<<+$$$$$$$$$$$$$$$$$$$$$$$XX      XX$+<<<<<<",
"<<<<<<o$$$$$$$$$$$$$$$$$$$$$$$XXXXXXXXXX$O<<<<<<",
"<<<<<<XO+$$$$$$$$$$$$$$$$$$$$$XXXXXXXXXXOX<<<<<<",
"<<<<<<<oXXXXXXXXXXXXXXXXXXXXXXXXXXXXXXXXo<<<<<<<",
"<<<<<<<<XoXXXXXXXXXXXXXXXXXXXXXXXXXXXXoX<<<<<<<<",
"<<<<<<<<<<<<<<<<<<<<<<<<<<<<<<<<<<<<<<<<<<<<<<<<",
"<<<<<<<<<<<<<<<<<<<<<<<<<<<<<<<<<<<<<<<<<<<<<<<<"
};
