/* XPM */
static const char *disc_vinyl[] = {
/* columns rows colors chars-per-pixel */
"48 48 50 1 ",
"  c #2C3F4F",
". c #2B3E50",
"X c #2C3D51",
"o c #2C3E50",
"O c #2D3F50",
"+ c #2C3E51",
"@ c #2C3F51",
"# c #2D3F51",
"$ c #2D3F52",
"% c #2D4052",
"& c #2E4053",
"* c #2E4153",
"= c #2E4154",
"- c #2F4154",
"; c #2F4255",
": c #2F4256",
"> c #2F4356",
", c #304356",
"< c #304357",
"1 c #304457",
"2 c #304458",
"3 c #314559",
"4 c #32465A",
"5 c #32475B",
"6 c #33475C",
"7 c #33485D",
"8 c #34485D",
"9 c #34495E",
"0 c #35495E",
"q c #495246",
"w c #505B52",
"e c #837933",
"r c #837935",
"t c #847B35",
"y c #877F3B",
"u c #8F812F",
"i c #8E8130",
"p c #938736",
"a c #928637",
"s c #B69C22",
"d c #B89D22",
"f c #B99F27",
"g c #BAA026",
"h c #DEB715",
"j c #DEB716",
"k c #EABF11",
"l c #F1C40E",
"z c #F1C40F",
"x c #EAC012",
"c c None",
/* pixels */
"cccccccccccccccccccccccccccccccccccccccccccccccc",
"cccccccccccccccccccccccccccccccccccccccccccccccc",
"ccccccccccccccccccc#   X..#O.ccccccccccccccccccc",
"cccccccccccccccc. #.X X #  .# #.cccccccccccccccc",
"cccccccccccccc..# .# X X X X..# .#cccccccccccccc",
"cccccccccccc....#. #X X X X # #. #..cccccccccccc",
"ccccccccccc#.#..  .. X X X X # . .#..ccccccccccc",
"cccccccccc..#....## X X X X X. ##.  #.cccccccccc",
"cccccccc.#.42%.. X X X X X X X XX X X X cccccccc",
"cccccccc..407%..X X X X X X X X  X X X Xcccccccc",
"ccccccc..40077%% X X X X X X X XX X X X .ccccccc",
"cccccc..4000077%X X X X X X X X  X X X X #cccccc",
"ccccc..,00777707 .#X X X X X X XX X X #....ccccc",
"ccccc..000707700##X X X X X X X  X X X  # #ccccc",
"cccc..40000777704# X X X X X X XX X X .# # .cccc",
"cccc..000070770004X X X X X X X  X X X #.. #cccc",
"ccc..2007770700040$#qisjjsiq...#X X X X X X  ccc",
"ccc..00077770000000ykzzzzzzke..  X X X X X X#ccc",
"ccc..7007770700000fzzzzzzzzzzd#OX X X X X X .ccc",
"cc..2700990707000yzzzzzzzzzzzze  X X X X X X#.cc",
"cc..440099990000wkzzzzzzzzzzzzkq.#X #...X X X cc",
"cc..444499990000azzzzzzzzzzzzzlt # X.... X XX cc",
"cc#......222#444fzzzzzzcczzzzzld .#.#...X X  Xcc",
"cc.#.........X# kkzzzzcccczzzzzk#. #.#.. X XX cc",
"cc#.#.#  X X X Xjzzzzzcccczzzzzj4%.......#.#. cc",
"cc.#.##.X X X X szzzzzzcczzzzzzd9974442.#.#.##cc",
"cc#. # . X X X Xuzzzzzzzzzzzzzza999900000444 .cc",
"cc.#X. #X X X X qkzzzzzzzzzzzzxw999900000044 Occ",
"cc.  X X X X#..  ezzzzzzzzzzzza0999907077074#.cc",
"ccc#X X X X   ## .dzzzzzzzzzzg0799997070077..ccc",
"ccc. X X X X.# .#..ekzzzzzzxr70709070707074##ccc",
"ccc X X X X X #.  #.qusjjstqX27070707070744..ccc",
"cccc.#  .# X X X X X X X X X X#00000707777..cccc",
"cccc #.#. X X X X X X X X X X #40000077772..cccc",
"ccccc.#.## X X X X X X X X X XX#700000007..ccccc",
"ccccc.   .X X X X X X X X X X#. .00000002..ccccc",
"cccccc.# X X X X X X X X X X X X.200000$..cccccc",
"ccccccc#X X X X X X X X X X X X ..00004..ccccccc",
"cccccccc X X X X X X X X X X X X...002..cccccccc",
"ccccccccX X X X X X X X X X X X ...$2...cccccccc",
"cccccccccc.#  .## .X X X X X ##..#.##.cccccccccc",
"ccccccccccc..#. . # X X X X ..  #.#..ccccccccccc",
"cccccccccccc..# .# # X X X X# .# .#.cccccccccccc",
"cccccccccccccc#. #..X X X X #. # #cccccccccccccc",
"cccccccccccccccc.# #.  # X X.# .cccccccccccccccc",
"ccccccccccccccccccc.O#..X   #ccccccccccccccccccc",
"cccccccccccccccccccccccccccccccccccccccccccccccc",
"cccccccccccccccccccccccccccccccccccccccccccccccc"
};
