/* XPM */
static char *disc[] = {
/* columns rows colors chars-per-pixel */
"48 48 72 1 ",
"  c #BDC2C7",
". c #BDC3C7",
"X c #BEC3C7",
"o c #BCC4C6",
"O c #BDC4C7",
"+ c #BEC4C7",
"@ c #BEC4C8",
"# c #BFC5C8",
"$ c #BFC5C9",
"% c #C0C6CA",
"& c #C1C7CA",
"* c #C1C7CB",
"= c #C2C8CB",
"- c #C2C8CC",
"; c #C3C9CC",
": c #C3C9CD",
"> c #C4C9CD",
", c #C4CACD",
"< c #C5CACE",
"1 c #C6CBCF",
"2 c #C9CED1",
"3 c #C9CED2",
"4 c #C9CFD2",
"5 c #CBD0D3",
"6 c #CBD0D4",
"7 c #CCD1D4",
"8 c #CDD2D5",
"9 c #CED3D6",
"0 c #CFD4D7",
"q c #D0D5D8",
"w c #D1D6D9",
"e c #D1D7D9",
"r c #D3D8DA",
"t c #D3D8DB",
"y c #D4D9DB",
"u c #D4D9DC",
"i c #D5DADC",
"p c #D6DBDD",
"a c #D6DCDE",
"s c #D7DCDE",
"d c #D7DCDF",
"f c #D9DDE0",
"g c #DADDE1",
"h c #DADFE1",
"j c #DBE0E2",
"k c #DCE1E3",
"l c #DDE2E3",
"z c #DEE2E4",
"x c #DEE3E4",
"c c #DFE3E5",
"v c #DFE4E6",
"b c #E0E4E6",
"n c #E0E5E6",
"m c #E2E6E8",
"M c #E3E7E8",
"N c #E3E7E9",
"B c #E3E8E9",
"V c #E4E8E9",
"C c #E5E9EA",
"Z c #E5E9EB",
"A c #E6EAEB",
"S c #E7EBED",
"D c #E7ECED",
"F c #E8ECED",
"G c #E8EDEE",
"H c #E9EDEE",
"J c #E9EEEF",
"K c #EAEEF0",
"L c #EBEFF0",
"P c #EBEFF1",
"I c #ECF0F1",
"U c None",
/* pixels */
"UUUUUUUUUUUUUUUUUUUUUUUUUUUUUUUUUUUUUUUUUUUUUUUU",
"UUUUUUUUUUUUUUUUUUUUUUUUUUUUUUUUUUUUUUUUUUUUUUUU",
"UUUUUUUUUUUUUUUUUUUX        XUUUUUUUUUUUUUUUUUUU",
"UUUUUUUUUUUUUUUUXXXX        XXX$UUUUUUUUUUUUUUUU",
"UUUUUUUUUUUUUUXoXXoXoXXo  $ XXXXo UUUUUUUUUUUUUU",
"UUUUUUUUUUUUXXoXXXXoXo o oo XXXXXo XUUUUUUUUUUUU",
"UUUUUUUUUUUXXXXoXXXXoXoX $    XoXXXX$UUUUUUUUUUU",
"UUUUUUUUUUXXXXXXXXXoXoXooooo$ oXXXXXXXUUUUUUUUUU",
"UUUUUUUUXXXkuXXX  $ oo       oo   $     UUUUUUUU",
"UUUUUUUUXXkII4XX oo  $    oo $    oo$  oUUUUUUUU",
"UUUUUUUXXBIIIG$X $    oo$  $   $oo  o  oXUUUUUUU",
"UUUUUUXXkIIIIIvXoooo$ $ oo    oo$  oo  $XXUUUUUU",
"UUUUUoX8IIIIIIIu oXo$oo   o$$      ooXoXXX$UUUUU",
"UUUUUo-GIIIIIIII6o        o oo$ oo $XoXoXXXUUUUU",
"UUUUXXhIIIIIIIIIG$      $o  $ oo $  o oXXXXXUUUU",
"UUUUX*KIIIIIIIIIPv  oo$  o oo         XoXXXXUUUU",
"UUUXXuIIIIIIIIIIIIaoXXXXoXXXoXoXo  $oooo  $oXUUU",
"UUUXXPIIIIIIIIIIIII$XXXXXoXXXoXoo$    $    oXUUU",
"UUUo4PPPIIIIIIIIIP6 X-fZvf X  o   o$ oo  o  XUUU",
"UUoouPPPIIIIIIIIIh$$vKKIIIIf      o  $   o$ X$UU",
"UUXXfPPPIIIIPPIIGXXvIGhUUhGKh  $    oXXo    $oUU",
"UUXXavvGIIIIPPIIaXwPIUUUUUUGP$        oXo$   oUU",
"UUXXXo   $6wahvG6ovGZUUUUUUvPa$X    XoXoo  o $UU",
"UUXXXX$  XoooXo ooGGUUUUUUUUPZ o   oX oX  $o  UU",
"UUXXXoXo   o    XXZIUUUUUUUUIGXX   XXXoooXXoXXUU",
"UUXXXXoX o$o  ooXXuIkUUUUUUBIkX8IPGvffw6$XoXXXUU",
"UUXXXoXo$o  $  $XX-IGUUUUUUIIwXuIIIIPIIIIIGjXXUU",
"UUXXoXoX    oo  oXXhIGkUUhKKvXXBIIIIPIIIIIPfXXUU",
"UUXX  Xo    X  oXoXofPPIPPIk-XfIIIIIIIIIIIIwXXUU",
"UUUXXoX     ooXXoXoXX$fvvu4XX8IIIIIIIIIIIII$XUUU",
"UUUXoXo    o Xo X XooXoXXXXX$BIIIIIIIIIIPGGoXUUU",
"UUUX  oX oXX oX ooX XoXXXXXXX8IIIIIIIIIIIGwXXUUU",
"UUUUXXXXoX   oo   $      o  o fPPPPIIIIIIGXXUUUU",
"UUUUXXXXXo   $    oo$  o$o  o$ ZPPIIIIIIGfXXUUUU",
"UUUUUXXXo      $oo  o  o  $o  $$PIIIIIPPvXXUUUUU",
"UUUUUXXXXo    oo$  oo  $$  ooX$ 6IIIIIPG4XoUUUUU",
"UUUUUUXX  o$$      oo$  oooo    $jIIIIGwXXUUUUUU",
"UUUUUUUX  o oo$ oo $o  o  $   oooovGIIfXXUUUUUUU",
"UUUUUUUU$o  $ oo $oo  $o oo $  $oo$GIaXoUUUUUUUU",
"UUUUUUUU o oo      $     $  oo  oXXwwXoXUUUUUUUU",
"UUUUUUUUUU  $XXX   o    oo  oXXXXXXXXXUUUUUUUUUU",
"UUUUUUUUUUU XXXXoX$o  oo $  XXXXXXXXXUUUUUUUUUUU",
"UUUUUUUUUUUUXXXXXXXX$  $    oXXXoXXXUUUUUUUUUUUU",
"UUUUUUUUUUUUUUXoXXXXoo  $  oXoXXXoUUUUUUUUUUUUUU",
"UUUUUUUUUUUUUUUUXXXXXXXXo   XXXXUUUUUUUUUUUUUUUU",
"UUUUUUUUUUUUUUUUUUUXXXXXo o$$UUUUUUUUUUUUUUUUUUU",
"UUUUUUUUUUUUUUUUUUUUUUUUUUUUUUUUUUUUUUUUUUUUUUUU",
"UUUUUUUUUUUUUUUUUUUUUUUUUUUUUUUUUUUUUUUUUUUUUUUU"
};
