/* XPM */
static char *drop[] = {
/* columns rows colors chars-per-pixel */
"48 48 54 1 ",
"  c #2880B8",
". c #2980B8",
"X c #2880B9",
"o c #2980B9",
"O c #2A80B8",
"+ c #2A80B9",
"@ c #2980BA",
"# c #2981BA",
"$ c #2A80BA",
"% c #2A81BB",
"& c #2A82BB",
"* c #2A82BC",
"= c #2A83BD",
"- c #2B83BE",
"; c #2B83BF",
": c #2B84BE",
"> c #2B84BF",
", c #2B85C0",
"< c #2C86C2",
"1 c #2C86C3",
"2 c #2C87C3",
"3 c #2D88C4",
"4 c #2D88C5",
"5 c #2D89C5",
"6 c #2D89C6",
"7 c #2D8AC7",
"8 c #2E8AC7",
"9 c #2E8AC8",
"0 c #2E8BC9",
"q c #2E8CCA",
"w c #2F8CCA",
"e c #2F8DCB",
"r c #2F8DCC",
"t c #2F8ECC",
"y c #2F8ECD",
"u c #308ECD",
"i c #308FCE",
"p c #308FCF",
"a c #3090CF",
"s c #3090D0",
"d c #3191D0",
"f c #3191D1",
"g c #3192D2",
"h c #3192D3",
"j c #3293D4",
"k c #3294D5",
"l c #3295D6",
"z c #3395D7",
"x c #3396D8",
"c c #3396D9",
"v c #3397D9",
"b c #3498DA",
"n c #3498DB",
"m c None",
/* pixels */
"mmmmmmmmmmmmmmmmmmmmmmmmmmmmmmmmmmmmmmmmmmmmmmmm",
"mmmmmmmmmmmmmmmmmmmmmmmmmmmmmmmmmmmmmmmmmmmmmmmm",
"mmmmmmmmmmmmmmmmmmmmmmm@1mmmmmmmmmmmmmmmmmmmmmmm",
"mmmmmmmmmmmmmmmmmmmmmmmeemmmmmmmmmmmmmmmmmmmmmmm",
"mmmmmmmmmmmmmmmmmmmmmmmffmmmmmmmmmmmmmmmmmmmmmmm",
"mmmmmmmmmmmmmmmmmmmmmm@vn@mmmmmmmmmmmmmmmmmmmmmm",
"mmmmmmmmmmmmmmmmmmmmmm1nn8mmmmmmmmmmmmmmmmmmmmmm",
"mmmmmmmmmmmmmmmmmmmmmmennammmmmmmmmmmmmmmmmmmmmm",
"mmmmmmmmmmmmmmmmmmmmm@fnnfOmmmmmmmmmmmmmmmmmmmmm",
"mmmmmmmmmmmmmmmmmmmmm@nnnn1mmmmmmmmmmmmmmmmmmmmm",
"mmmmmmmmmmmmmmmmmmmm@ennnnu@mmmmmmmmmmmmmmmmmmmm",
"mmmmmmmmmmmmmmmmmmmm@fnnnnv@mmmmmmmmmmmmmmmmmmmm",
"mmmmmmmmmmmmmmmmmmmm8nnnnnn8mmmmmmmmmmmmmmmmmmmm",
"mmmmmmmmmmmmmmmmmmm@fnnnnnnv@mmmmmmmmmmmmmmmmmmm",
"mmmmmmmmmmmmmmmmmm@8nnnnnnnn8@mmmmmmmmmmmmmmmmmm",
"mmmmmmmmmmmmmmmmmmOfnnnnnnnnf@mmmmmmmmmmmmmmmmmm",
"mmmmmmmmmmmmmmmmm@@nnnnnnnnnn8@mmmmmmmmmmmmmmmmm",
"mmmmmmmmmmmmmmmmm@fnnnnnnnnnnf@mmmmmmmmmmmmmmmmm",
"mmmmmmmmmmmmmmmm@@nnnnnnnnnnnn@@mmmmmmmmmmmmmmmm",
"mmmmmmmmmmmmmmmm@annnnnnnnnnnnf@mmmmmmmmmmmmmmmm",
"mmmmmmmmmmmmmmm@@nnnnnnnnnnnnnn@Ommmmmmmmmmmmmmm",
"mmmmmmmmmmmmmm@@8nnnnnnnnnnnnnnt@@mmmmmmmmmmmmmm",
"mmmmmmmmmmmmmm@ ennnnnnnnnnnnnnt@Ommmmmmmmmmmmmm",
"mmmmmmmmmmmmmO@OtnnnnnnnnnnnnnnaO@@mmmmmmmmmmmmm",
"mmmmmmmmmmmm@@@@gnnnnnnnnnnnnnnf@O Ommmmmmmmmmmm",
"mmmmmmmmmmmm@O Otnnnnnnnnnnnnnna@ @@mmmmmmmmmmmm",
"mmmmmmmmmmm O@O@8nnnnnnnnnnnnnn8@O@@@mmmmmmmmmmm",
"mmmmmmmmmmm@@O @@nnnnnnnnnnnnnx8@ O @mmmmmmmmmmm",
"mmmmmmmmmm@O O O@fnnnnnnnnnnnnf@@O O@@mmmmmmmmmm",
"mmmmmmmmmm@@@@@@@8nnnnnnnnnnnne@@ @@O@mmmmmmmmmm",
"mmmmmmmmmm O@O@O@@fnnnnnnnnnnfO@@O@@@Ommmmmmmmmm",
"mmmmmmmmmm@@@ O@@@@nnnnnnnnnn@ O@ O O@mmmmmmmmmm",
"mmmmmmmmmmO@O@O O @@fnnnnnnf@@@@O @@O@mmmmmmmmmm",
"mmmmmmmmmm@O@O@@@@@O 8tfxt8@ O@@@O O@Ommmmmmmmmm",
"mmmmmmmmmm@@@ O O O@@@@@@ O @@@ O@@@@@mmmmmmmmmm",
"mmmmmmmmmm@@@O@@@@ @O O @O@@ O@O @ O@@mmmmmmmmmm",
"mmmmmmmmmmm@O@O O @ O@O@O @@O @@@@O @mmmmmmmmmmm",
"mmmmmmmmmmm@ @@@@@@O @ @@@ O@@ O O@@@mmmmmmmmmmm",
"mmmmmmmmmmmm@ O O O@@@O O@O@O@O@@ @ mmmmmmmmmmmm",
"mmmmmmmmmmmm@O@@@@ @ O@@ @ @ @ @@O@Ommmmmmmmmmmm",
"mmmmmmmmmmmmm@@@O @ @@O @@@@@@@O@@@mmmmmmmmmmmmm",
"mmmmmmmmmmmmmm@O@@@O O@@O O O O@O@mmmmmmmmmmmmmm",
"mmmmmmmmmmmmmmm@O O@@ @  @@O @@O@mmmmmmmmmmmmmmm",
"mmmmmmmmmmmmmmmm@O@@@O@OO@@ O@@@mmmmmmmmmmmmmmmm",
"mmmmmmmmmmmmmmmmmm@@@O@@ O@O@@mmmmmmmmmmmmmmmmmm",
"mmmmmmmmmmmmmmmmmmmmm@O@@@ mmmmmmmmmmmmmmmmmmmmm",
"mmmmmmmmmmmmmmmmmmmmmmmmmmmmmmmmmmmmmmmmmmmmmmmm",
"mmmmmmmmmmmmmmmmmmmmmmmmmmmmmmmmmmmmmmmmmmmmmmmm"
};
