/* XPM */
static const char *file_word[] = {
/* columns rows colors chars-per-pixel */
"48 48 71 1 ",
"  c #3498DB",
". c #3598DB",
"X c #3699DB",
"o c #3799DB",
"O c #399ADA",
"+ c #3A9ADA",
"@ c #3B9ADA",
"# c #3C9BDA",
"$ c #3E9BDA",
"% c #409CD9",
"& c #449DD9",
"* c #489ED8",
"= c #4DA0D7",
"- c #4EA0D7",
"; c #4FA1D7",
": c #50A1D7",
"> c #55A2D6",
", c #5DA5D5",
"< c #5FA5D5",
"1 c #60A6D5",
"2 c #65A7D4",
"3 c #65A8D4",
"4 c #68A8D3",
"5 c #6DAAD3",
"6 c #70ABD2",
"7 c #76ADD1",
"8 c #77ADD1",
"9 c #78ADD1",
"0 c #79AED1",
"q c #7EAFD0",
"w c #95A5A6",
"e c #96A5A6",
"r c #97A7A8",
"t c #99A8A9",
"y c #9AA9AA",
"u c #9AAAAB",
"i c #A2AFB1",
"p c #A3AFB1",
"a c #AFB9BC",
"s c #86B2CF",
"d c #87B2CF",
"f c #88B2CF",
"g c #8BB3CE",
"h c #8DB4CE",
"j c #8EB4CE",
"k c #91B5CD",
"l c #96B7CD",
"z c #9FBACB",
"x c #98B8CC",
"c c #9EB9CC",
"v c #A0BACB",
"b c #A1BACB",
"n c #A3BBCB",
"m c #A6BCCA",
"M c #AEBEC9",
"N c #AFBFC9",
"B c #B8BFC3",
"V c #B0BFC9",
"C c #B9C0C4",
"Z c #BBC1C5",
"A c #BAC2C7",
"S c #BBC2C7",
"D c #BCC3C6",
"F c #BCC3C7",
"G c #BDC3C7",
"H c #BDC4C7",
"J c #B4C0C8",
"K c #B5C1C8",
"L c #B7C1C8",
"P c #B9C2C8",
"I c None",
/* pixels */
"IIIIIIIIIIIIIIIIIIIIIIIIIIIIIIIIIIIIIIIIIIIIIIII",
"IIIIIIIIIIIIIIIIIIIIIIIIIIIIIIIIIIIIIIIIIIIIIIII",
"IIIIIIIIGHGGGGGGGGGGGGGGGGGGGGpIIIIIIIIIIIIIIIII",
"IIIIIIIHGGGGGGGGGGGGGGGGGGGGGGwpIIIIIIIIIIIIIIII",
"IIIIIIHHGGGGGGGGGGGGGGGGGGGGGGwwiIIIIIIIIIIIIIII",
"IIIIIIHHGGGGGGGGGGGGGGGGGGGGGGwwwiIIIIIIIIIIIIII",
"IIIIIIHHGGGGGGGGGGGGGGGGGGGGGGwwwwiIIIIIIIIIIIII",
"IIIIIIBHGGGGGGGGGGGGGGGGGGGGGGwwwwwiIIIIIIIIIIII",
"IIIIIIGGGGGGGGGGGGGGGGGGGGGGGGwwwwwwiIIIIIIIIIII",
"IIIIIIGGGGGGGGGGGGGGGGGGGGGGGGwwwwwwwiIIIIIIIIII",
"IIIIIIGGGGGGGGGGGGGGGGGGGGGGGGtwwwwwwwiIIIIIIIII",
"IIIIIIGGGGGGGGGGGGGGGGGGGGGGGGpwwwwwwwwiIIIIIIII",
"IIIIIIGGGG*.bGGb@@fGGG.@GGGGGGCrwwwwwwwwiIIIIIII",
"IIIIIIGGGG5.8GG0..1GGk.,GGGGGGHBitwwwwwwwiIIIIII",
"IIIIIIGGGGx.-GG:..@GG4.dGGGGBHHHGGGGGGGGGGIIIIII",
"IIIIIIGGGGG@.MM.@-.kG@.MGGGGGHHHGGGGGGGGGGIIIIII",
"IIIIIIGGHHH,.ss.30.5x.-GGGGGGGGGGGGGGGGGGGIIIIII",
"IIIIIIGGHHHs.,,.fb.&8.8GGGGGGGGGGGGGGGGGGGIIIIII",
"IIIIIIGGHHHJ....JG&.&.xGGGGGGGGGGGGGGGGGGGIIIIII",
"IIIIIIGGHHHH;..;GG3..@GGGGGGGGGGGGGGGGGGGGIIIIII",
"IIIIIIGGHHHH8..8GGk..3GG    ......  GGGGGGIIIIII",
"IIIIIIGGHHGBb..JGGJ..jGG   .......  GGGGGGIIIIII",
"IIIIIIGGGGGGJJJGGGGJJGGGGGGGGGGGGGGGGGGGGGIIIIII",
"IIIIIIGGGGGGGGGGGGGGGGGGGGGGGGGGGGGGGGGGGGIIIIII",
"IIIIIIGGGGGGGGGGGGGGGGGGGGGGGGGGGGGGGGGGGGIIIIII",
"IIIIIIGGGGGGGGGGGGGGGGGGGGGGGGGGGGGGGGGGGGIIIIII",
"IIIIIIGGGGGG                    ....GGGGGGIIIIII",
"IIIIIIGGGGGG                    ....GGGGGGIIIIII",
"IIIIIIGGGGGGGGGGGGGGGGGGGGGGGGGGGGGGGGGGGGIIIIII",
"IIIIIIGGGGGGGGGGGGGGGGGGGGGGGGGGGGGGGGGGGGIIIIII",
"IIIIIIGGGGGGGGGGGGGGGGGGGGGGGGGGGGGGGGGGGGIIIIII",
"IIIIIIGGGGGGGGGGGGGGGGGGGGGGGGGGGGGGGGGGGGIIIIII",
"IIIIIIGGGGGG....                    GGGGGGIIIIII",
"IIIIIIGGGGGG....                    GGGGGGIIIIII",
"IIIIIIGGGGGGGGGGGGGGGGGGGGGGGGGGGGGGGGGGGGIIIIII",
"IIIIIIGGGGGGGGGGGGGGGGGGGGGGGGGGGGGGGGGGGGIIIIII",
"IIIIIIGGGGGGGGGGGGGGGGGGGGGGGGGGGGGGGGGGGGIIIIII",
"IIIIIIGGGGGGGGGGGGGGGGGGGGGGGGGGGGGGGGGGGGIIIIII",
"IIIIIIGGGGGG ...  ......            GGGGGGIIIIII",
"IIIIIIGGGGGG ...   .....            GGGGGGIIIIII",
"IIIIIIBHGGGGGGGGGGGGGGGGGGGGGGGGGGGGGGGGGGIIIIII",
"IIIIIIGHGGGGGGGGGGGGGGGGGGGGGGGGGGGGGGGGGGIIIIII",
"IIIIIIHHGGGGGGGGGGGGGGGGGGGGGGGGGGGGGGBGGHIIIIII",
"IIIIIIaGGGGGGGGGGGGGGGGGGGGGGGGGGGGGGGHHGaIIIIII",
"IIIIIItHHHGGGGGGGGGGGGGGGGGGGGGGGGGGGGGHHtIIIIII",
"IIIIIIwtaHGJGGGGGGGGGGGGGGGGGGGGGGGGGGHatwIIIIII",
"IIIIIIIwwwwwwwrwwwwwwwwwwwwwwwwwwwwwwwwwwIIIIIII",
"IIIIIIIIwwwwwwwwwwwwwwwwwwwwwwwwwwwwwwwwIIIIIIII"
};
