/* XPM */
static const char *file_sound[] = {
/* columns rows colors chars-per-pixel */
"48 48 64 1 ",
"  c #74A1B8",
". c #3498DB",
"X c #3598DB",
"o c #399ADA",
"O c #3A9ADA",
"+ c #3B9ADA",
"@ c #3C9ADA",
"# c #3C9BDA",
"$ c #3D9BDA",
"% c #409AD5",
"& c #409CD9",
"* c #419CD9",
"= c #429CD9",
"- c #499FD8",
"; c #4B9FD8",
": c #4CA0D7",
"> c #4DA0D7",
", c #4EA0D7",
"< c #50A1D7",
"1 c #56A3D6",
"2 c #5EA5D5",
"3 c #60A6D5",
"4 c #69A9D3",
"5 c #6AA9D3",
"6 c #73ACD2",
"7 c #76ADD1",
"8 c #77ADD1",
"9 c #74ACD2",
"0 c #78ADD1",
"q c #7BAED1",
"w c #8CA4AB",
"e c #95A5A6",
"r c #96A5A6",
"t c #91A5A9",
"y c #99A8A9",
"u c #9AA9AA",
"i c #9AAAAB",
"p c #A2AFB1",
"a c #A3AFB1",
"s c #AFB9BC",
"d c #82AECB",
"f c #89B3CF",
"g c #8AB3CE",
"h c #94B6CD",
"j c #95B6CD",
"k c #96B7CD",
"l c #97B7CD",
"z c #9EB9CB",
"x c #9FBACB",
"c c #80B0D0",
"v c #A9BDCA",
"b c #AABDCA",
"n c #AEBEC9",
"m c #ACBECA",
"M c #B2BFC9",
"N c #B9C0C4",
"B c #BBC1C5",
"V c #BCC3C6",
"C c #BCC3C7",
"Z c #BDC3C7",
"A c #BDC4C7",
"S c #B8C1C8",
"D c #B9C2C8",
"F c None",
/* pixels */
"FFFFFFFFFFFFFFFFFFFFFFFFFFFFFFFFFFFFFFFFFFFFFFFF",
"FFFFFFFFFFFFFFFFFFFFFFFFFFFFFFFFFFFFFFFFFFFFFFFF",
"FFFFFFFFZZZZZZZZZZZZZZZZZZZZZZaFFFFFFFFFFFFFFFFF",
"FFFFFFFAZZZZZZZZZZZZZZZZZZZZZZraFFFFFFFFFFFFFFFF",
"FFFFFFAAZZZZZZZZZZZZZZZZZZZZZZrrpFFFFFFFFFFFFFFF",
"FFFFFFAAZZZZZZZZZZZZZZZZZZZZZZrrrpFFFFFFFFFFFFFF",
"FFFFFFAAZZZZZZZZZZZZZZZZZZAMAArrrraFFFFFFFFFFFFF",
"FFFFFFMAZZZZZZZZZZZZZZZZZZAAAArrrrraFFFFFFFFFFFF",
"FFFFFFZZZZZZZZZZZZZZZZZZZZZZZZrrrrrriFFFFFFFFFFF",
"FFFFFFZZZZZZZZZZZZZZZZZZZZZZZZrrtrrtraFFFFFFFFFF",
"FFFFFFZZZZZZZZZZZZZZZZZZZZZZAAyrrrrrrrpFFFFFFFFF",
"FFFFFFZZZZZZZZZZZZZZZZZZZZZZAAarrtrrrrrpFFFFFFFF",
"FFFFFFZZZZZZZZZZZZZZZZZZMAAAMbdtrrrrrrrraFFFFFFF",
"FFFFFFZZZZZZZZZZZZZZMAZZZAz5,oX% wrrrrrrraFFFFFF",
"FFFFFFZZZZZZZZZZZZZZAAMj5=X.XXXXXXZZZZAMAAFFFFFF",
"FFFFFFZZZZZZZZZZZZZMg3@XXoXXXXXXXoZZZZAAAAFFFFFF",
"FFFFFFZZZZZZZZZZZZdX............XXAZZZZZZZFFFFFF",
"FFFFFFZZZZZZZZZZZZ+X............XXAMZZZZZZFFFFFF",
"FFFFFFZZZZZZZZZZAAXX..XX........XXZZZZZZZZFFFFFF",
"FFFFFFZZZZZZZZZZAAXX.XXX........XoZZZZZZZZFFFFFF",
"FFFFFFZZZZZZZZZZMZXXXXXXXXXo.X2gXXAZZZZZZZFFFFFF",
"FFFFFFZZZZZZZZZZZZXXXXXXXX=5jSAAXXAMZZZZZZFFFFFF",
"FFFFFFZZZZZZZZZZZZoXXXX;7zZZAAAAXXZZZZZZZZFFFFFF",
"FFFFFFZZZZZZZZZZZZXX<qbAAAZZMAAAXoZZZZZZZZFFFFFF",
"FFFFFFZZZZZZZZZZZZ..ZZZZAMZZZZZZXXAAMZZZAAFFFFFF",
"FFFFFFZZZZZZZZZZZZ..ZZZZZZZZZZZZXXAAZZZZAAFFFFFF",
"FFFFFFZZZZZZZZZZZZ..ZZZZZZZZZZZZXXZZZZZZAAFFFFFF",
"FFFFFFZZZZZZZZZZZZ.+ZZZZZZZZZZZZXXZZZZZZMAFFFFFF",
"FFFFFFZZZZZZZZZZZZ..ZZZZAb7===2qXXDZZZZZZZFFFFFF",
"FFFFFFZZZZZZZZZZZZ..ZZZZj@..XXXXXXDZZZZZZZFFFFFF",
"FFFFFFZZZZZZZZZZZZ..AMAA;X..XXXXoXZZZZZZZZFFFFFF",
"FFFFFFZZZZZZZZZZZZ..AAAA,X..XXXXo<ZZZZZZZZFFFFFF",
"FFFFFFZZZZDb9;+*2qXXAAZZz=XX....+zMZZZZZZZFFFFFF",
"FFFFFFZZZZz+XXXXXXXXAAZZZb7;+=;7bAZZZZZZZZFFFFFF",
"FFFFFFZZZZ<XXXXXXXXXAAAZZZAMZZZZZZZZZZZZZZFFFFFF",
"FFFFFFZZZZ,X.XXXXXX;MAAMZZZZZZZZZZZZZZZZZZFFFFFF",
"FFFFFFZZZMz+.XXXXX+jZZZZZZZZZZZZZZZZZZZZZZFFFFFF",
"FFFFFFZZZAAM9,++,qMAZZZZZZZZZZZZZZZZZZZZZZFFFFFF",
"FFFFFFZZZZAMAAAAZZZZZZZZZZZZZZZZZZZZZZZZZZFFFFFF",
"FFFFFFZZZZAAAAAAZZZZZZZZZZZZZZZZZZZZZZZZZZFFFFFF",
"FFFFFFZZZZZZZZZZZZZZZZZZZZZZZZZZZZZZZZZZZZFFFFFF",
"FFFFFFZZZZZZZZZZZZZZZZZZZZZZZZZZZZZZZZZZZZFFFFFF",
"FFFFFFMZZZZZZZZZZZZZZZZZZZZZZZZZZZZZZZMZZAFFFFFF",
"FFFFFFsZZZZZZZZZZZZZZZZZZZZZZZZZZZZZZZAAZsFFFFFF",
"FFFFFFiZMAAAZZZZAAMZAAAAZZZZZZZZZZZZAAAAAiFFFFFF",
"FFFFFFrisMAAZZZZAAZZMAAAZZZZZZZZZZZZAAMsyrFFFFFF",
"FFFFFFFrrrrrrrrrrrrrrrrrrrrrrrrrrrrrrrrrrFFFFFFF",
"FFFFFFFFrrrrrrrrrrrrrrrrrrrrrrrrrrrrrrrrFFFFFFFF"
};
