/* XPM */
static const char *file_photoshop[] = {
/* columns rows colors chars-per-pixel */
"48 48 32 1 ",
"  c #2980B9",
". c #2A81BB",
"X c #2A82BC",
"o c #2B82BD",
"O c #2A83BD",
"+ c #2D87C5",
"@ c #2D88C5",
"# c #3090CF",
"$ c #3395D7",
"% c #3396D8",
"& c #3397D9",
"* c #3398DB",
"= c #3499DA",
"- c #3498DB",
"; c #3498DC",
": c #389ADB",
"> c #57A9DF",
", c #59AADF",
"< c #5EACE0",
"1 c #68B1E1",
"2 c #7AB9E3",
"3 c #8BC1E5",
"4 c #A3CDE8",
"5 c #A7CFE9",
"6 c #B2D4EA",
"7 c #B9D7EB",
"8 c #C6DEED",
"9 c #D9E7EF",
"0 c #E8EEF1",
"q c #EBEFF1",
"w c #ECF0F1",
"e c None",
/* pixels */
"eeeeeeeeeeeeeeeeeeeeeeeeeeeeeeeeeeeeeeeeeeeeeeee",
"eeeeeeeeeeeeeeeeeeeeeeeeeeeeeeeeeeeeeeeeeeeeeeee",
"eeeeeeee----------------------@eeeeeeeeeeeeeeeee",
"eeeeeee----------------------- @eeeeeeeeeeeeeeee",
"eeeeee------------------------  +eeeeeeeeeeeeeee",
"eeeeee------------------------   +eeeeeeeeeeeeee",
"eeeeee------------------------    +eeeeeeeeeeeee",
"eeeeee------------------------     +eeeeeeeeeeee",
"eeeeee------------------------      @eeeeeeeeeee",
"eeeeee------------------------       @eeeeeeeeee",
"eeeeee------------------------        +eeeeeeeee",
"eeeeee------------------------@        +eeeeeeee",
"eeeeee------------------------%         @eeeeeee",
"eeeeee-------------------------%@        +eeeeee",
"eeeeee------------------------------------eeeeee",
"eeeeee------------------------------------eeeeee",
"eeeeee------------------------------------eeeeee",
"eeeeee------------------------------------eeeeee",
"eeeeee------------------------------------eeeeee",
"eeeeee------------------------------------eeeeee",
"eeeeee------------------------------------eeeeee",
"eeeeee------------------------------------eeeeee",
"eeeeee------------------------------------eeeeee",
"eeeeee------------------------------------eeeeee",
"eeeeee------------------------------------eeeeee",
"eeeeee------------------------------------eeeeee",
"eeeeee--------------wwww96<---------------eeeeee",
"eeeeee--------------wwwwwww3--------------eeeeee",
"eeeeee--------------ww--<50q<-------------eeeeee",
"eeeeee--------------ww--*%4q6-------------eeeeee",
"eeeeee--------------ww--*%<09-:28wwww7----eeeeee",
"eeeeee--------------ww----<w9-2wwwwww7----eeeeee",
"eeeeee--------------ww----4w6-8w1---------eeeeee",
"eeeeee--------------ww-->4qw<-8w1---------eeeeee",
"eeeeee--------------wwwwwwq3--2wwww82:----eeeeee",
"eeeeee--------------wwww96<---:28wwww2----eeeeee",
"eeeeee--------------ww-------------1w8----eeeeee",
"eeeeee--------------ww-------------1w8----eeeeee",
"eeeeee--------------ww--------7wwwwww2----eeeeee",
"eeeeee--------------ww--------7wwww82:----eeeeee",
"eeeeee------------------------------------eeeeee",
"eeeeee------------------------------------eeeeee",
"eeeeee$----------------------------------$eeeeee",
"eeeeee$--------------------------------%-$eeeeee",
"eeeeee --------------------------------%- eeeeee",
"eeeeee  $%-----------------------------$  eeeeee",
"eeeeeee                                  eeeeeee",
"eeeeeeee                                eeeeeeee"
};
