/* XPM */
static const char *file_code[] = {
/* columns rows colors chars-per-pixel */
"48 48 81 1 ",
"  c #16A085",
". c #17A085",
"X c #18A086",
"o c #1AA187",
"O c #1BA187",
"+ c #1CA187",
"@ c #1EA288",
"# c #20A289",
"$ c #24A38A",
"% c #26A38B",
"& c #28A48C",
"* c #29A48D",
"= c #2AA48D",
"- c #2BA48D",
"; c #2CA58E",
": c #2DA58E",
"> c #30A58F",
", c #34A691",
"< c #37A792",
"1 c #39A793",
"2 c #3BA894",
"3 c #3DA894",
"4 c #43A997",
"5 c #46AA98",
"6 c #49AB99",
"7 c #4AAB99",
"8 c #4AAB9A",
"9 c #4EAC9B",
"0 c #53AD9D",
"q c #5AAEA0",
"w c #5DAFA1",
"e c #60B0A2",
"r c #65B0A4",
"t c #67B1A5",
"y c #69B1A6",
"u c #6DB2A7",
"i c #71B3A9",
"p c #74B4AA",
"a c #77B4AB",
"s c #7AB5AD",
"d c #7BB5AD",
"f c #7FB6AE",
"g c #95A5A6",
"h c #96A5A6",
"j c #97A7A8",
"k c #99A8A9",
"l c #9AA9AA",
"z c #9AAAAB",
"x c #83B7B0",
"c c #86B7B1",
"v c #8AB8B3",
"b c #8BB8B3",
"n c #8DB9B4",
"m c #90BAB5",
"M c #95BBB7",
"N c #98BBB8",
"B c #9ABCB9",
"V c #A2AFB1",
"C c #A3AFB1",
"Z c #A4BEBD",
"A c #A6BEBE",
"S c #A7BEBE",
"D c #AFB9BC",
"F c #A8BFBF",
"G c #A9BFBF",
"H c #AABFBF",
"J c #ABBFC0",
"K c #B8BFC3",
"L c #AFC0C1",
"P c #B2C1C3",
"I c #B6C1C4",
"U c #B9C0C4",
"Y c #BBC1C5",
"T c #B8C2C5",
"R c #B9C2C5",
"E c #BAC2C6",
"W c #BCC3C6",
"Q c #BCC3C7",
"! c #BDC3C7",
"~ c #BDC4C7",
"^ c None",
/* pixels */
"^^^^^^^^^^^^^^^^^^^^^^^^^^^^^^^^^^^^^^^^^^^^^^^^",
"^^^^^^^^^^^^^^^^^^^^^^^^^^^^^^^^^^^^^^^^^^^^^^^^",
"^^^^^^^^!!!!!!!!!!!!!!!!!!!!!!C^^^^^^^^^^^^^^^^^",
"^^^^^^^~!!!!!!!!!!!!!!!!!!!!!!hC^^^^^^^^^^^^^^^^",
"^^^^^^~~!!!!!!!!!!!!!!!!!!!!!!hhV^^^^^^^^^^^^^^^",
"^^^^^^~~!!!!!!!!!!!!!!!!!!!!!!hhgV^^^^^^^^^^^^^^",
"^^^^^^~~!!!!!!!!!!!!!!!!!!!!!!hhggV^^^^^^^^^^^^^",
"^^^^^^K~!!!!!!!!!!!!!!!!!!!!!!hhgggV^^^^^^^^^^^^",
"^^^^^^!!!!!!!!!!!!!!!!!!!!!!!!hhggggV^^^^^^^^^^^",
"^^^^^^!!!!!!!!!!!!!!!!!!!!!!!!ghgggggV^^^^^^^^^^",
"^^^^^^!!!!!!!!!!!!!!!!!!!!!!!!jgggggggV^^^^^^^^^",
"^^^^^^!!!!!!!!!!!!!!!!!!!!!!!!zggggggggV^^^^^^^^",
"^^^^^^!!!!!!!!!!!!!!!!!!!!!!!!!jgggghhhhC^^^^^^^",
"^^^^^^!!!!!!!!!!!!!!!!!!!!!!!!!IVjgghhhhhC^^^^^^",
"^^^^^^!!!!!!!!!!!!!!!!!!!!!!!!!!!!!!!!!!!!^^^^^^",
"^^^^^^!!!!!!!!!!!!!!!!!!!!ic!!!!!!!!!!!!!!^^^^^^",
"^^^^^^!!!!!!!!!!!!!!!!!!!L o!!!!!!!!!!!!!!^^^^^^",
"^^^^^^!!!!!!!!!K!!!!!!!!!a 8!!!!!!!!!!!!!!^^^^^^",
"^^^^^^!!!!!!!!~~ItJ!!!!!!8 s!ItL!!~~!!!!!!^^^^^^",
"^^^^^^!!!!!!!!~~8 ,!!!!!Io L!t &JK~~!!!!!!^^^^^^",
"^^^^^^!!!!!!!!I8 ov!!!!!v ,!!L& *F~~!!!!!!^^^^^^",
"^^^^^^!!!!!!!K8 ov!!!!!!t t!!!L* *F~!!!!!!^^^^^^",
"^^^^^^!!!K!!~6 ov!!!!!!!: M!!!!L*O*F!!!!!!^^^^^^",
"^^^^^^!!!~~~8 ov!!!!!!!JooI!!!!IJ* *J!!!!!^^^^^^",
"^^^^^^!!!!~6  v!!!!!K~~a 8!!!!!!!J*X*J!!!!^^^^^^",
"^^^^^^!!!~6 ov!!!!!!!~~6 x!!!!!!K~J*X*J!!!^^^^^^",
"^^^^^^!!!K*X&Z!!!!!!!!~o L!!!!!!~~I6 OM!!!^^^^^^",
"^^^^^^!!!!J* &Z!!!!!!!v 2!!!!!!!~~8 Ov!!!!^^^^^^",
"^^^^^^!!!!!J* *F!!!!K!q y!!!!!!!~6 ov!!!!!^^^^^^",
"^^^^^^!!!!!!F* *J!!!~~*XB!!!!!~~8  v!!!!!!^^^^^^",
"^^^^^^!!!!!!~F* *Z!!~Z &~~!!!!I6 ov!!!!!!!^^^^^^",
"^^^^^^!!!!!!K~J* *J!~a 0~~!!!I6 ov!!!!!!!!^^^^^^",
"^^^^^^!!!!!!!!!J& ,!!6 x!!!!!t ov!!!!!!!!!^^^^^^",
"^^^^^^!!!!!!!!!!L,v!I  I!!!!TL,v!!!!!!!!!!^^^^^^",
"^^^^^^!!!!!!!!!!!!!!v 2!!!!!!!!!!!!!!!!!!!^^^^^^",
"^^^^^^!!!!!!!!!!!!!!q i!!!!!!!!!!!!!!!!!!!^^^^^^",
"^^^^^^!!!!!!!!!!!!!!d2Z!!!!!!!!!!!!!!!!!!!^^^^^^",
"^^^^^^!!!!!!!!!!!!!!!!!!!!!!!!!!!!!!!!!!!!^^^^^^",
"^^^^^^!!!!!!!!!!!!!!!!!!!!!!!!!!!!!!!!!!!!^^^^^^",
"^^^^^^!!!!!!!!!!!!!!!!!!!!!!!!!!!!!!!!!!!!^^^^^^",
"^^^^^^K~!!!!!!!!!!!!!!!!!!!!!!!!!!!!!!!!!!^^^^^^",
"^^^^^^!~!!!!!!!!!!!!!!!!!!!!!!!!!!!!!!!!!!^^^^^^",
"^^^^^^K~!!!!!!!!!!!!!!!!!!!!!!!!!!!!!!K!!K^^^^^^",
"^^^^^^D~!!!!!!!!!!!!!!!!!!!!!!!!!!!!!!~~!F^^^^^^",
"^^^^^^z~!!!!!!!!!!!!!!!!!!!!!!!!!!!!!!!~Kz^^^^^^",
"^^^^^^hzFI!!!!!!!!!!!!!T!!!!!!!!!!!!!!~Dzk^^^^^^",
"^^^^^^^hhhgggggggggggggghhhhhhhhhhhhhhhhh^^^^^^^",
"^^^^^^^^hhgggggggggggghhhhhhhhhhhhhhhhhh^^^^^^^^"
};
