/* XPM */
static const char *flask[] = {
/* columns rows colors chars-per-pixel */
"48 48 46 1 ",
"  c #27AE60",
". c #28AE61",
"X c #28B162",
"o c #33B068",
"O c #2FCA71",
"+ c #2ECC71",
"@ c #36CB76",
"# c #3CCB79",
"$ c #39CE79",
"% c #42C97B",
"& c #41D07E",
"* c #59B582",
"= c #6AB78E",
"- c #72B893",
"; c #5FC98F",
": c #5BCD8C",
"> c #55D38B",
", c #63C88F",
"< c #70D89D",
"1 c #8BBCA5",
"2 c #81D5A6",
"3 c #A7C0B8",
"4 c #ACC4BD",
"5 c #B1C1BF",
"6 c #BDC3C7",
"7 c #BEC4C8",
"8 c #A4E2C0",
"9 c #C0C6CA",
"0 c #C1C7CB",
"q c #C3CACD",
"w c #C4C9CD",
"e c #C6CBCF",
"r c #C8CED1",
"t c #CACFD3",
"y c #CDD2D5",
"u c #CED4D6",
"i c #D0D6DA",
"p c #C2E4D2",
"a c #CEE8DB",
"s c #D5ECE1",
"d c #E8EFEE",
"f c #EBEFF1",
"g c #ECF0F0",
"h c #ECF0F1",
"j c #ECF1F1",
"k c None",
/* pixels */
"kkkkkkkkkkkkkkkkkkkkkkkkkkkkkkkkkkkkkkkkkkkkkkkk",
"kkkkkkkkkkkkkkkkkkkkkkkkkkkkkkkkkkkkkkkkkkkkkkkk",
"kkkkkkkkkkkkkkkkkkkkkkkkkkkkkkkkkkkkkkkkkkkkkkkk",
"kkkkkkkkkkkkkkkkkkkkkkkkkkkkkkkkkkkkkkkkkkkkkkkk",
"kkkkkkkkkkkkkkkkkk666666hhhhhhkkkkkkkkkkkkkkkkkk",
"kkkkkkkkkkkkkkkkkk666666hhhhhhkkkkkkkkkkkkkkkkkk",
"kkkkkkkkkkkkkkkkkk666666hhhhhhkkkkkkkkkkkkkkkkkk",
"kkkkkkkkkkkkkkkkkk666666hhhhhhkkkkkkkkkkkkkkkkkk",
"kkkkkkkkkkkkkkkkkk666666hhhhhhkkkkkkkkkkkkkkkkkk",
"kkkkkkkkkkkkkkkkkk666666hhhhhhkkkkkkkkkkkkkkkkkk",
"kkkkkkkkkkkkkkkkkk666666hhhhhhkkkkkkkkkkkkkkkkkk",
"kkkkkkkkkkkkkkkkkk666666hhhhhhkkkkkkkkkkkkkkkkkk",
"kkkkkkkkkkkkkkkkkk666666hhhhhhkkkkkkkkkkkkkkkkkk",
"kkkkkkkkkkkkkkkkkk666666hhhhhhkkkkkkkkkkkkkkkkkk",
"kkkkkkkkkkkkkkkkkk666666hhhhhhkkkkkkkkkkkkkkkkkk",
"kkkkkkkkkkkkkkkkkk666666hhhhhhkkkkkkkkkkkkkkkkkk",
"kkkkkkkkkkkkkkkkkk666666hhhhhhkkkkkkkkkkkkkkkkkk",
"kkkkkkkkkkkkkkkkkk666666hhhhhhkkkkkkkkkkkkkkkkkk",
"kkkkkkkkkkkkkkkkkk666666hhhhhhkkkkkkkkkkkkkkkkkk",
"kkkkkkkkkkkkkkkkkk666666hhhhhhkkkkkkkkkkkkkkkkkk",
"kkkkkkkkkkkkkkkkki666666hhhhhhkkkkkkkkkkkkkkkkkk",
"kkkkkkkkkkkkkkkkk0666666hhhhhhhkkkkkkkkkkkkkkkkk",
"kkkkkkkkkkkkkkkkt6666666hhhhhhhhkkkkkkkkkkkkkkkk",
"kkkkkkkkkkkkkkkk66666666hhhhhhhhkkkkkkkkkkkkkkkk",
"kkkkkkkkkkkkkkke66666666hhhhhhhhhkkkkkkkkkkkkkkk",
"kkkkkkkkkkkkkky666666666hhhhhhhhhhkkkkkkkkkkkkkk",
"kkkkkkkkkkkkkk666664;$$,shhhhhhhhhkkkkkkkkkkkkkk",
"kkkkkkkkkkkkke66664@++++$shhhhhhhhhkkkkkkkkkkkkk",
"kkkkkkkkkkkky66666,++++++<hd8>>8dhhkkkkkkkkkkkkk",
"kkkkkkkkkkkk066666$++++++&h8++++8hhhkkkkkkkkkkkk",
"kkkkkkkkkkkt6=                    ,hhkkkkkkkkkkk",
"kkkkkkkkkki63                    XXphkkkkkkkkkkk",
"kkkkkkkkkk06*           +++++++++++%hhkkkkkkkkkk",
"kkkkkkkkky61            ++++++++++++2dhkkkkkkkkk",
"kkkkkkkkk64o            +++++++++++++ahkkkkkkkkk",
"kkkkkkkke6*             ++++++++++++@%hfkkkkkkkk",
"kkkkkkky61              ++++++++++++++2fhkkkkkkk",
"kkkkkkk65o              +++++++++++++++ahkkkkkkk",
"kkkkkke6*               +++++++++++++++%hfkkkkkk",
"kkkkky61                ++++++++++++++++2hkkkkkk",
"kkkkk65o                +++++++++++++++++ahkkkkk",
"kkkkt6*                 +++++++++++++++++%hhkkkk",
"kkkky6-                 +++++++++++++++++;dhkkkk",
"kkkkky6-                ++++++++++++++++;dhkkkkk",
"kkkkkke6666666666666666666666666666666666ykkkkkk",
"kkkkkkke66666666666666666666666666666666ykkkkkkk",
"kkkkkkkkkkkkkkkkkkkkkkkkkkkkkkkkkkkkkkkkkkkkkkkk",
"kkkkkkkkkkkkkkkkkkkkkkkkkkkkkkkkkkkkkkkkkkkkkkkk"
};
