/* XPM */
static char *gamepad[] = {
/* columns rows colors chars-per-pixel */
"48 48 65 1 ",
"  c #C0392B",
". c #C96055",
"X c #27AE60",
"o c #51BC7F",
"O c #F39C12",
"+ c #F2AE41",
"@ c #2980B9",
"# c #7F8C8D",
"$ c #5298C5",
"% c #909B9D",
"& c #96A1A2",
"* c #95A5A5",
"= c #95A4A6",
"- c #95A5A6",
"; c #96A5A7",
": c #94A6A6",
"> c #95A6A6",
", c #97A6A7",
"< c #97A6A8",
"1 c #98A7A9",
"2 c #99A7A9",
"3 c #99A8A9",
"4 c #9AA8AA",
"5 c #9FACAE",
"6 c #A1AEB0",
"7 c #A2AFB0",
"8 c #A3AFB2",
"9 c #A4B1B3",
"0 c #A7B2B4",
"q c #A7B3B5",
"w c #A8B4B6",
"e c #A9B4B6",
"r c #A9B4B7",
"t c #ADB7BA",
"y c #AEB8BB",
"u c #AFB9BB",
"i c #B1BABD",
"p c #EEDCBD",
"a c #B5BDC0",
"s c #B6BEC1",
"d c #B8C0C4",
"f c #B9C0C4",
"g c #BAC1C5",
"h c #BBC1C5",
"j c #BBC2C5",
"k c #BBC2C6",
"l c #BCC2C6",
"z c #BDC2C6",
"x c #BDC2C7",
"c c #BDC3C7",
"v c #BCC4C6",
"b c #BEC4C7",
"n c #BEE0CF",
"m c #BED6E4",
"M c #C1C7CB",
"N c #CCD1D4",
"B c #D2D8D9",
"V c #D3D8DA",
"C c #D6DBDE",
"Z c #E2C5C2",
"A c #DDE1E3",
"S c #E7EBED",
"D c #E8ECEE",
"F c #ECF0F1",
"G c None",
/* pixels */
"GGGGGGGGGGGGGGGGGGGGGGGGGGGGGGGGGGGGGGGGGGGGGGGG",
"GGGGGGGGGGGGGGGGGGGGGGGGGGGGGGGGGGGGGGGGGGGGGGGG",
"GGGGGGGGGGGGGGGGGGGGGGGGGGGGGGGGGGGGGGGGGGGGGGGG",
"GGGGGGGGGGGGGGGGGGGGGGGGGGGGGGGGGGGGGGGGGGGGGGGG",
"GGGGGGGGGGGGGGGGGGGGGGGGGGGGGGGGGGGGGGGGGGGGGGGG",
"GGGGGGGGGGGGGGGGGGGGGGGGGGGGGGGGGGGGGGGGGGGGGGGG",
"GGGGGGGGGGGGGGGGGGGGGGGGGGGGGGGGGGGGGGGGGGGGGGGG",
"GGGGGGGGGGGGGGGGGGGGGGGGGGGGGGGGGGGGGGGGGGGGGGGG",
"GGGGGGGGGGGGGGGGGGGGGGGGGGGGGGGGGGGGGGGGGGGGGGGG",
"GGGGGGGGGGGGGGGGGGGGGGGGGGGGGGGGGGGGGGGGGGGGGGGG",
"GGGGGGGGGbbxvvvvxbxbxbccvxxxbxxxxxMxMxxGGGGGGGGG",
"GGGGGGbxxbxbvvvbbxbxbxccvvxxxxxxxMsxxxxxvMGGGGGG",
"GGGGGxxbbxbxbxbbxbxbccccxxxxbxbxxMsMMxxMvMMGGGGG",
"GGGGxxbxxbxxxbbbbxbxcbccxxxxxbxbxxMssxxsvsvvGGGG",
"GGGxxxbbbBADSABbxbxbbxbxbxxxvvbxMVASFAVMxMxMvGGG",
"GGxxxxxNFFFFFFFSNxbxxbxbxbxxvvvBSFFFFFFFNsMsvvGG",
"GGxxxxVFFFZ%&BFFFAkkMsMxxMsMsxCFFFm$$mFFFAMxxMGG",
"GxxxxNFFFF&#%&FFFFNkxxsMMsMxMNFFFF$@@$FFFFNxxxvG",
"GMxxxFFFFF##o#DFFFDbMxxxxMsxMFFFFF$@@$FFFFDMsMMG",
"xMxxCFFFFF####DSFFFCsMxxxxMxVFFFFFm$$mFFFFFBMMsx",
"xxxxAFV&########:BFAsvsxbbxbAFNoonFFFFZ..pFAssMs",
"xxMxSF&##########=FDvvsaxgbxSFoXXoFFFF.  .FSxMsM",
"sMsMSF&##########&FDvM&##%xxDFoXXoFFFF.  .DSxMxs",
"ixxxAFV&#######%=BFAvs%%#%xgAFnoonFFFFZ..ZFAMsxs",
"iMxxBFFFFF%###FFFFFVMxsMbgvvCFFFFFp++pFFFFFBxxxy",
"0xxxMDFFFF####FFFFSMsxMsbbvvMDFFFF+OO+FFFFSbxxxq",
"<xMxxNFFFF%%#%FFFFNMMxxMvvvvsBFFFF+OO+FFFFNxxxx5",
"G0xxxxCFDDN&%NFFFCsMxxxxvvvvMsCFFFZ++pFFFCbxbx0G",
"G:xxxxxNSFFFFFFSNMsMxxxMxxMxsMsVDFFFFFFFNbbbxx=G",
"GG5xxxxbMVASSAVMxxxxMsMsxMsxMxMsMCADSAVMbbvvx5GG",
"GG:7xxbxsMMsxxsMxMxMsa8<48assMxxxxMMsMvvvvvv8=GG",
"GGG:7xxbMxxMsMMxxsMi6<<::<:8sxxxxMssMsvvvvg7=GGG",
"GGGG=5qxxxxxxxxbxxq===GGGG==:0xxxxxxxxxxxq5=GGGG",
"GGGGG:=:qysxxxxyq5==GGGGGGGG=:5qyxxxxxeq::=GGGGG",
"GGGGGG=:===:=:::=:GGGGGGGGGGGG==:=:==::=::GGGGGG",
"GGGGGGGGG::=::::GGGGGGGGGGGGGGGG::=::=:GGGGGGGGG",
"GGGGGGGGGGGGGGGGGGGGGGGGGGGGGGGGGGGGGGGGGGGGGGGG",
"GGGGGGGGGGGGGGGGGGGGGGGGGGGGGGGGGGGGGGGGGGGGGGGG",
"GGGGGGGGGGGGGGGGGGGGGGGGGGGGGGGGGGGGGGGGGGGGGGGG",
"GGGGGGGGGGGGGGGGGGGGGGGGGGGGGGGGGGGGGGGGGGGGGGGG",
"GGGGGGGGGGGGGGGGGGGGGGGGGGGGGGGGGGGGGGGGGGGGGGGG",
"GGGGGGGGGGGGGGGGGGGGGGGGGGGGGGGGGGGGGGGGGGGGGGGG",
"GGGGGGGGGGGGGGGGGGGGGGGGGGGGGGGGGGGGGGGGGGGGGGGG",
"GGGGGGGGGGGGGGGGGGGGGGGGGGGGGGGGGGGGGGGGGGGGGGGG",
"GGGGGGGGGGGGGGGGGGGGGGGGGGGGGGGGGGGGGGGGGGGGGGGG",
"GGGGGGGGGGGGGGGGGGGGGGGGGGGGGGGGGGGGGGGGGGGGGGGG",
"GGGGGGGGGGGGGGGGGGGGGGGGGGGGGGGGGGGGGGGGGGGGGGGG",
"GGGGGGGGGGGGGGGGGGGGGGGGGGGGGGGGGGGGGGGGGGGGGGGG"
};
