/* XPM */
static char *gift[] = {
/* columns rows colors chars-per-pixel */
"48 48 22 1 ",
"  c #BF382B",
". c #BF392B",
"X c #BF3A2C",
"o c #C0382B",
"O c #C0392B",
"+ c #C1392B",
"@ c #C03A2A",
"# c #C03A2B",
"$ c #C0382C",
"% c #C0392C",
"& c #E74C3C",
"* c #E67E22",
"= c #F39C12",
"- c #F3A112",
"; c #F3A212",
": c #F2B610",
"> c #F1C00F",
", c #F1C20F",
"< c #F1C30F",
"1 c #F1C40F",
"2 c #F1C410",
"3 c None",
/* pixels */
"333333333333333333333333333333333333333333333333",
"333333333333333333333333333333333333333333333333",
"3333333333333OOOOO333333333333OOOOO3333333333333",
"333333333333OOOOOOO3333333333OOOOOOO333333333333",
"33333333333OOOOOOOOO33333333OOOOOOOOO33333333333",
"3333333333OOO33333OOO333333OOO33333OOO3333333333",
"3333333333OOO333333OOO3333OOO333333OOO3333333333",
"3333333333OOO333333OOO3333OOO333333OOO3333333333",
"3333333333OOO3333333OOO33OOO3333333OOO3333333333",
"33333333333OOOOOXXOOOOOOOOOOOOXXOOOOO33333333333",
"333333333333OOOOOOOOOOOOOOOOOOOOOOOO333333333333",
"3333333333333OOOOOOOOOOOOOOOOOOOOOO3333333333333",
"331211111111111121&&&&&&&&&&&&221111111111112133",
"311111111111111122&&&&&&&&&&&&221111111111111113",
"111111111111111111&&&&&&&&&&&&221111111111111111",
"211111111111111111&&&&&&&&&&&&111111111111111112",
"111111111111111111&&&&&&&&&&&&221111111111111111",
"111111111111111111&&&&&&&&&&&&221111111111111111",
"111111111111111111&&&&&&&&&&&&211111111111111111",
"111111111111111111&&&&&&&&&&&&111111111111111111",
"33**************=*    $$OOOOOO****************33",
"33****************    $$OOOOOO****************33",
"33================   $$$OOOOOO================33",
"33================  $$$$OOOOOO================33",
"33================OOOOOOOOOOOO================33",
"33================OOOOOOOOOOOO================33",
"331111111111111111&&&&&&&&&&&&111111111111111133",
"331111111111111111&&&&&&&&&&&&111111111111111133",
"331111111111111111&&&&&&&&&&&&111111111111111133",
"331111111111111111&&&&&&&&&&&&111111111111111133",
"331111111111111111&&&&&&&&&&&&111111111111111133",
"331111111111111111&&&&&&&&&&&&111111111111111133",
"331111111111111111&&&&&&&&&&&&111111111111111133",
"331111111111111111&&&&&&&&&&&&111111111111111133",
"331111111111111111&&&&&&&&&&&&111111111111111133",
"331111111111111111&&&&&&&&&&&&111111111111111133",
"331111111111111111&&&&&&&&&&&&111111111111111133",
"331111111111111111&&&&&&&&&&&&111111111111111133",
"331111111111111111&&&&&&&&&&&&111111111111111133",
"331111111111111111&&&&&&&&&&&&111111111111111133",
"33:111111111111111&&&&&&&&&&&&111111111111111:33",
"33:111111111111111&&&&&&&&&&&&111111111111111:33",
"33;111111111111111&&&&&&&&&&&&111111111111111;33",
"33==:1111111111111&&&&&&&&&&&&1111111111111:;;33",
"333;==============OOOOOOOOOOOO===============333",
"3333==============OOOOOOOOOOOO==============3333",
"333333333333333333333333333333333333333333333333",
"333333333333333333333333333333333333333333333333"
};
