/* XPM */
static const char *heart[] = {
/* columns rows colors chars-per-pixel */
"48 48 12 1 ",
"  c #E64B3B",
". c #E74C3B",
"X c #E64B3C",
"o c #E74B3C",
"O c #E64C3C",
"+ c #E74C3C",
"@ c #E74D3C",
"# c #E74C3D",
"$ c #E74D3D",
"% c #E84B3C",
"& c #E84D3C",
"* c None",
/* pixels */
"************************************************",
"************************************************",
"************************************************",
"************************************************",
"************************************************",
"************************************************",
"***********&&& &&**************&&&&& ***********",
"*********&&&&&  &&&**********&&&&&& &  *********",
"******* & &         $******$$$o$o$o$o$  $*******",
"******&  &&&        $$****$$$$$o$o$o$o  $$******",
"*****   &&&&  o$    $$$o&$$$    o$o$    $$$*****",
"****    &&&&  $o&  $$$o$#$$$    $o$o    $$$$****",
"****$$  &&o$o$o$ &&&$o$o$#&&    o$o$&&&&$   ****",
"***$$$  &&$o$o$o& &&o$o$oo&&    $o$o&&& $   $***",
"***$$$$ &$o$o$o$&&&&$o$o$o&&&&&&o$&&&& &    $***",
"**$$$$  #$$o$o$o&&&&o$o$o$&&&&&&$#&&&&&     $$**",
"**o$o$o$$o$o$o$o&$o$&&&#$o$o$o$o      &&&&&&$$**",
"**$o$o$oo$o$o$o$#$$o&&&oo$o$o$o$      &&&&&&$$**",
"**$$o$o$$ $o$o$oo$o$&&&&$o$o$o$oo$o$  &&$o&&$$**",
"**$o$o$#  o$o$o$$o$o&&&&o$o$ $o$$o$o   &o$#o$$**",
"***$&&&o    &&ooo$    &&&&&&    o$o$o$&&$o$o$***",
"***$&&&&    &&#$$o$o    &&&&    $o$o$#o&o$o$$***",
"***$&&&& &  &&&&o$o$    &&&&    o$o$o$&&$o$o$***",
"****&&&&&   &&&&$o$o    &&& &   $o$o$o&&o$o$****",
"****$$$$      &&    $o$o&oo$o$o$      &&&&  ****",
"*****$$$$     &&   $o$o$$#$o$o$o      &&&&&*****",
"******$$ $o$      $o$o$oo$o$o$o$  $o &&&&&******",
"****** $$ $o   &  o$o$o$$o$o$o$o $ $& &&&&******",
"******* $$$$o$&&   &$o$o&&&&o   $o$o$$&&&*******",
"********$$$o$#o&  & o$o$&&&&$   o$o$$$#&********",
"*********$o$o$&&&&&&$o&&&&&     $o$o$$ *********",
"**********oo$o&&&&&&#o&&&&      o$o$oo**********",
"***********    &o$o$o$o$o$o$$o$o$o$  ***********",
"************  &&$o$o$o$o$o  o$o$o$  ************",
"*************&&&#$&&o$o$    $o$$   *************",
"**************&&o&&&$o$o    o$$$  **************",
"***************&&&&&      &&&&$$ ***************",
"****************&&&&      &&&&$#****************",
"*****************&&       &&&&o*****************",
"******************&&     &&&&&******************",
"*******************$$$$$$$$$&*******************",
"********************$$$$$$$$********************",
"*********************$$$$$#*********************",
"**********************$$$o**********************",
"***********************$o***********************",
"************************************************",
"************************************************",
"************************************************"
};
