/* XPM */
static const char *house[] = {
/* columns rows colors chars-per-pixel */
"48 48 39 1 ",
"  c #C0392B",
". c #D35400",
"X c #D86009",
"o c #D44334",
"O c #E64B3C",
"+ c #E74C3C",
"@ c #E74D3C",
"# c #E67E22",
"$ c #E45243",
"% c #E45244",
"& c #EBAB0D",
"* c #EDAD15",
"= c #2980B9",
"- c #2A82BB",
"; c #2B83BC",
": c #2A83BD",
"> c #2C84BD",
", c #2E8CCA",
"< c #3D8DC2",
"1 c #3891CD",
"2 c #3294D5",
"3 c #3295D6",
"4 c #3498DB",
"5 c #3C9BDA",
"6 c #419CD9",
"7 c #63A7D4",
"8 c #A7928F",
"9 c #A79290",
"0 c #A79390",
"q c #95A5A6",
"w c #A3B0B2",
"e c #A4B0B2",
"r c #A4B0B3",
"t c #A4B1B3",
"y c #A5B1B3",
"u c #9CB6C7",
"i c #ACBEC9",
"p c #BDC3C7",
"a c None",
/* pixels */
"aaaaaaaaaaaaaaaaaaaaaaaaaaaaaaaaaaaaaaaaaaaaaaaa",
"aaaaaaaaaaaaaaaaaaaaaaaaaaaaaaaaaaaaaaaaaaaaaaaa",
"aaaaaaaaaaaaaaaaaaaaaaa++aaaaaaaaaaaaaaaaaaaaaaa",
"aaaaaaaaaaaaaaaaaaaaaa++++aaaaaaaaaaaaaaaaaaaaaa",
"aaaaaaaaaaaaaaaaaaaaa++++++aaaaaaaaaaaaaaaaaaaaa",
"aaaaaaaaaaaaaaaaaaaa++++++++aaaaaaaaaaaaaaaaaaaa",
"aaaaaaaaaaaaaaaaaaa++++++++++aaaaa      aaaaaaaa",
"aaaaaaaaaaaaaaaaaa+++++%%+++++aaaa      aaaaaaaa",
"aaaaaaaaaaaaaaaaa+++++%00%+++++aaa      aaaaaaaa",
"aaaaaaaaaaaaaaaa+++++%0qq0%+++++aa      aaaaaaaa",
"aaaaaaaaaaaaaaa+++++%0qqqq0%+++++a      aaaaaaaa",
"aaaaaaaaaaaaaa+++++%0qqewqq0%+++++      aaaaaaaa",
"aaaaaaaaaaaaa+++++%0qqeppeqq0%++++o     aaaaaaaa",
"aaaaaaaaaaaa+++++%0qqeppppeqq0%++++o    aaaaaaaa",
"aaaaaaaaaaa+++++%0qqeppppppeqq0%++++o   aaaaaaaa",
"aaaaaaaaaa+++++%0qqwppppppppeqq0%++++o  aaaaaaaa",
"aaaaaaaaa+++++%0qqeppu<>><uppeqq0%++++o aaaaaaaa",
"aaaaaaaa+++++%0qqeppu>====-uppeqq0%++++oaaaaaaaa",
"aaaaaaa+++++%0qqeppp<>,22,=<pppeqq0%+++++aaaaaaa",
"aaaaaa+++++%0qqypppp>244442>ppppyqq0%+++++aaaaaa",
"aaaaa+++++%0qqwppppp14444441pppppwqq8%+++++aaaaa",
"aaaa+++++%0qqypppppp74444447ppppppyqq8%+++++aaaa",
"aaa+++++%0qqwpppppppi544445ipppppppyqq8%+++++aaa",
"aa+++++%0qqypppppppppi7657ipppppppppyqq8%+++++aa",
"aa++++%8qqwppppppppppppppppppppppppppyqq8%++++aa",
"aa++++8qqwppppppppppppppppppppppppppppyqq8++++aa",
"aaa++aqqwppppppppppppppppppppppppppppppyqqa++aaa",
"aaaaaaqyppppppppppppppppppppppppppppppppwqaaaaaa",
"aaaaaayppppppppppppp........pppppppppppppyaaaaaa",
"aaaaaapppppppppppppp........ppppppppppppppaaaaaa",
"aaaaaapppppppppppppp########ppppppppppppppaaaaaa",
"aaaaaapppppppppppppp########ppppppppppppppaaaaaa",
"aaaaaapppppppppppppp########ppppppppppppppaaaaaa",
"aaaaaapppppppppppppp########ppppppppppppppaaaaaa",
"aaaaaapppppppppppppp########ppppppppppppppaaaaaa",
"aaaaaapppppppppppppp#####**#ppppppppppppppaaaaaa",
"aaaaaapppppppppppppp#####&&#ppppppppppppppaaaaaa",
"aaaaaapppppppppppppp#####XX#ppppppppppppppaaaaaa",
"aaaaaapppppppppppppp########ppppppppppppppaaaaaa",
"aaaaaapppppppppppppp########ppppppppppppppaaaaaa",
"aaaaaapppppppppppppp########ppppppppppppppaaaaaa",
"aaaaaapppppppppppppp########ppppppppppppppaaaaaa",
"aaaaaaaaaaaaaaaaaaaaaaaaaaaaaaaaaaaaaaaaaaaaaaaa",
"aaaaaaaaaaaaaaaaaaaaaaaaaaaaaaaaaaaaaaaaaaaaaaaa",
"aaaaaaaaaaaaaaaaaaaaaaaaaaaaaaaaaaaaaaaaaaaaaaaa",
"aaaaaaaaaaaaaaaaaaaaaaaaaaaaaaaaaaaaaaaaaaaaaaaa",
"aaaaaaaaaaaaaaaaaaaaaaaaaaaaaaaaaaaaaaaaaaaaaaaa",
"aaaaaaaaaaaaaaaaaaaaaaaaaaaaaaaaaaaaaaaaaaaaaaaa"
};
