/* XPM */
static char *lightning[] = {
/* columns rows colors chars-per-pixel */
"48 48 43 1 ",
"  c #E67E22",
". c #E9881E",
"X c #EB8D1C",
"o c #F39C12",
"O c #F39D12",
"+ c #F39E12",
"@ c #F39F12",
"# c #F1BE0F",
"$ c #F1BF0F",
"% c #EEAE14",
"& c #F3A111",
"* c #F3A112",
"= c #F3A212",
"- c #F2A312",
"; c #F3A411",
": c #F2A511",
"> c #F2A711",
", c #F2A910",
"< c #F2A811",
"1 c #F3A811",
"2 c #F2A911",
"3 c #F2AB10",
"4 c #F2AB11",
"5 c #F4AA11",
"6 c #F3AC10",
"7 c #F2AD11",
"8 c #F2AE11",
"9 c #F2AC12",
"0 c #F2B210",
"q c #F2B310",
"w c #F3B311",
"e c #F2B510",
"r c #F2B810",
"t c #F2B910",
"y c #F1BC10",
"u c #F1C10F",
"i c #F1C30F",
"p c #F1C40E",
"a c #F1C40F",
"s c #F1C210",
"d c #F1C310",
"f c #F1C410",
"g c None",
/* pixels */
"ggggggggggggggooooo:aaaaaaaaaaaaaagggggggggggggg",
"ggggggggggggg:oooooeaaaaaaaaaaaafggggggggggggggg",
"gggggggggggggooooo:saaaaaaaaaaaagggggggggggggggg",
"gggggggggggg5ooooo5saaaaaaaaaaaggggggggggggggggg",
"gggggggggggg:oooooaaaaaaaaaaaaaggggggggggggggggg",
"ggggggggggggooooo5aaaaaaaaaaasgggggggggggggggggg",
"ggggggggggg:oooooeaaaaaaaaaaaggggggggggggggggggg",
"gggggggggggooooo:saaaaaaaaaagggggggggggggggggggg",
"gggggggggg5oooooeaaaaaaaaaaagggggggggggggggggggg",
"ggggggggggooooooaaaaaaaaaasggggggggggggggggggggg",
"ggggggggg5oooo:5aaaaaaaaaagggggggggggggggggggggg",
"ggggggggg:oooootaaaaaaaaaggggggggggggggggggggggg",
"gggggggggooooo:aaaaaaaaaaggggggggggggggggggggggg",
"gggggggg5oooootaaaaaaaasgggggggggggggggggggggggg",
"ggggggggooooo:uuaaaaaaaggggggggggggggggggggggggg",
"ggggggg5ooooo5uuaaaaaagggggggggggggggggggggggggg",
"ggggggg:oooooaaaaaaaaaaaaaaaaaaaaaaaaaafgggggggg",
"gggggggooooo5aaaaaaaaaaaaaaaaaaaaaaaaasggggggggg",
"gggggg:oooooeaaaaaaaaaaaaaaaaaaaaaaaafgggggggggg",
"ggggggooooo:aaaaaaaaaaaaaaaaaaaaaaaasggggggggggg",
"ggggg5oooooeaaaaaaaaaaaaaaaaaaaaaaafgggggggggggg",
"gggggooooootaaaaaaaaaaaaaaaaaaaaaasggggggggggggg",
"gggg5ooooo5aaaasaaaaaaaaaaaaaaaafsgggggggggggggg",
"gggg:oooo:taaaasaaaaaaaaaaaaaaaasggggggggggggggg",
"gggggggggggggggggggg     .aaaaasgggggggggggggggg",
"gggggggggggggggggggX     %aaaasggggggggggggggggg",
"ggggggggggggggggggg:oooo5aaaasgggggggggggggggggg",
"gggggggggggggggggg5oooooaaaasggggggggggggggggggg",
"gggggggggggggggggg:ooooeaaasgggggggggggggggggggg",
"ggggggggggggggggggoooo:saasggggggggggggggggggggg",
"ggggggggggggggggg:ooootaasgggggggggggggggggggggg",
"gggggggggggggggggoooo5aasggggggggggggggggggggggg",
"gggggggggggggggg5ooootssgggggggggggggggggggggggg",
"gggggggggggggggg:ooo5fsggggggggggggggggggggggggg",
"ggggggggggggggggoooofsgggggggggggggggggggggggggg",
"ggggggggggggggg5oooefggggggggggggggggggggggggggg",
"gggggggggggggggooo:sgggggggggggggggggggggggggggg",
"gggggggggggggg5oooeggggggggggggggggggggggggggggg",
"gggggggggggggg:oo5gggggggggggggggggggggggggggggg",
"ggggggggggggggoo5ggggggggggggggggggggggggggggggg",
"ggggggggggggg5o5gggggggggggggggggggggggggggggggg",
"gggggggggggggo5ggggggggggggggggggggggggggggggggg",
"gggggggggggg55gggggggggggggggggggggggggggggggggg",
"gggggggggggg5ggggggggggggggggggggggggggggggggggg",
"gggggggggggggggggggggggggggggggggggggggggggggggg",
"gggggggggggggggggggggggggggggggggggggggggggggggg",
"gggggggggggggggggggggggggggggggggggggggggggggggg",
"gggggggggggggggggggggggggggggggggggggggggggggggg"
};
