/* XPM */
static const char *lock_open[] = {
/* columns rows colors chars-per-pixel */
"48 48 55 1 ",
"  c #E67E22",
". c #E8881F",
"X c #E9941C",
"o c #EB9B1A",
"O c #F39C12",
"+ c #F39E12",
"@ c #F1BF0F",
"# c #F3A012",
"$ c #F2AA11",
"% c #E5BE1C",
"& c #F0BD11",
"* c #F1C30F",
"= c #F1C40F",
"- c #F1C410",
"; c #AFA358",
": c #8F947C",
"> c #A29D66",
", c #7F8C8D",
"< c #95A5A6",
"1 c #96A5A7",
"2 c #96A6A7",
"3 c #97A6A8",
"4 c #98A7A8",
"5 c #9AA8A9",
"6 c #99A9AA",
"7 c #9AA8AA",
"8 c #9AA9AA",
"9 c #9CAAAC",
"0 c #A1AEB1",
"q c #A2AFB1",
"w c #A3AFB1",
"e c #A4AFB2",
"r c #A3B0B1",
"t c #A4B0B3",
"y c #A5B0B3",
"u c #A4B1B3",
"i c #A5B1B3",
"p c #A7B3B5",
"a c #A8B3B6",
"s c #A9B4B7",
"d c #B2BBBE",
"f c #B3BCBF",
"g c #B5BDC1",
"h c #B7BEC2",
"j c #BAC1C4",
"k c #BBC1C5",
"l c #BBC2C5",
"z c #BDC3C6",
"x c #BCC3C7",
"c c #BDC3C7",
"v c #BEC2C7",
"b c #BEC3C7",
"n c #BDC3C8",
"m c #BEC4C8",
"M c None",
/* pixels */
"MMMMMMMMMMMMMMMMMMMMMMMMMMMMMMMMMMMMMMMMMMMMMMMM",
"MMMMMMMMMMMMMMMMMMMMMMMMMMMMMMMMMMMMMMMMMMMMMMMM",
"MMMMMMMMMMMMMMMMMMMMbbcccccMMMMMMMMMMMMMMMMMMMMM",
"MMMMMMMMMMMMMMMMMMncccccccccccMMMMMMMMMMMMMMMMMM",
"MMMMMMMMMMMMMMMMcccccchhhcccccccMMMMMMMMMMMMMMMM",
"MMMMMMMMMMMMMMMccccda522223phccccMMMMMMMMMMMMMMM",
"MMMMMMMMMMMMMMcccc022222222220ccccMMMMMMMMMMMMMM",
"MMMMMMMMMMMMMcccd52222222222223dcccMMMMMMMMMMMMM",
"MMMMMMMMMMMMcccd22224pMMMMp32222gcccMMMMMMMMMMMM",
"MMMMMMMMMMMMccc3222wMMMMMMMM02224cccMMMMMMMMMMMM",
"MMMMMMMMMMMnccw<22pMMMMMMMMMMp222acccMMMMMMMMMMM",
"MMMMMMMMMMMccc4<20MMMMMMMMMMMM5224cccMMMMMMMMMMM",
"MMMMMMMMMMcccp<<2MMMMMMMMMMMMMM422pccMMMMMMMMMMM",
"MMMMMMMMMMcdw2<20MMMMMMMMMMMMMMp222wdcMMMMMMMMMM",
"MMMMMMMMMM422222MMMMMMMMMMMMMMMMMMMMMMMMMMMMMMMM",
"MMMMMMMMMM222222MMMMMMMMMMMMMMMMMMMMMMMMMMMMMMMM",
"MMMMMMMMMM<<2222MMMMMMMMMMMMMMMMMMMMMMMMMMMMMMMM",
"MMMMMMMMMM<<<222MMMMMMMMMMMMMMMMMMMMMMMMMMMMMMMM",
"MMMMMMMM=-<<<<22======================-=MMMMMMMM",
"MMMMMMM===<<<<22=========================MMMMMMM",
"MMMMMM====>,,,,>================X    X====MMMMMM",
"MMMMMM-===%;::;%================&o..o&===-MMMMMM",
"MMMMMM====================================MMMMMM",
"MMMMMM====================================MMMMMM",
"MMMMMM=@$#OOOOOOOOOOOOOOOOOOOOOOOOOOOO#$@=MMMMMM",
"MMMMMM=OOOOOOOOOOOOOOOOOOOOOOOOOOOOOOOOOO=MMMMMM",
"MMMMMM$OOOOOOOOOOOOOOOOOOOOOOOOOOOOOOOOOO$MMMMMM",
"MMMMMMOOOOOOOOOOOOOOOOOOOOOOOOOOOOOOOOOOOOMMMMMM",
"MMMMMMOOOO                            OOOOMMMMMM",
"MMMMMMOOOO                            OOOOMMMMMM",
"MMMMMMOOOOOOOOOOOOOOOOOOOOOOOOOOOOOOOOOOOOMMMMMM",
"MMMMMMOOOOOOOOOOOOOOOOOOOOOOOOOOOOOOOOOOOOMMMMMM",
"MMMMMMOOOO                            OOOOMMMMMM",
"MMMMMMOOOO                            OOOOMMMMMM",
"MMMMMMOOOOOOOOOOOOOOOOOOOOOOOOOOOOOOOOOOOOMMMMMM",
"MMMMMMOOOOOOOOOOOOOOOOOOOOOOOOOOOOOOOOOOOOMMMMMM",
"MMMMMMOOOO                            OOOOMMMMMM",
"MMMMMMOOOO                            OOOOMMMMMM",
"MMMMMMOOOOOOOOOOOOOOOOOOOOOOOOOOOOOOOOOOOOMMMMMM",
"MMMMMMOOOOOOOOOOOOOOOOOOOOOOOOOOOOOOOOOOOOMMMMMM",
"MMMMMMOOOO                            OOOOMMMMMM",
"MMMMMMOOOO                            OOOOMMMMMM",
"MMMMMMOOOOOOOOOOOOOOOOOOOOOOOOOOOOOOOOOOOOMMMMMM",
"MMMMMMOOOOOOOOOOOOOOOOOOOOOOOOOOOOOOOOOOOOMMMMMM",
"MMMMMMOOOOOOOOOOOOOOOOOOOOOOOOOOOOOOOOOOOOMMMMMM",
"MMMMMMOOOOOOOOOOOOOOOOOOOOOOOOOOOOOOOOOOOOMMMMMM",
"MMMMMMMOOOOOOOOOOOOOOOOOOOOOOOOOOOOOOOOOOMMMMMMM",
"MMMMMMMMOOOOOOOOOOOOOOOOOOOOOOOOOOOOOOOOMMMMMMMM"
};
