/* XPM */
static const char *map_map_marker[] = {
/* columns rows colors chars-per-pixel */
"48 48 178 2 ",
"   c #C0392B",
".  c #C23A2C",
"X  c #C43B2D",
"o  c #9E5C3B",
"O  c #CD4031",
"+  c #DA533E",
"@  c #DD533F",
"#  c #E24A3A",
"$  c #E64C3C",
"%  c #E74C3C",
"&  c #E64D3C",
"*  c #E74D3C",
"=  c #E74C3D",
"-  c #E54E3D",
";  c #8F794D",
":  c #9C724A",
">  c #9F7E51",
",  c #B66E4A",
"<  c #CD5E43",
"1  c #DB5540",
"2  c #DE5747",
"3  c #D55941",
"4  c #E84F40",
"5  c #C06043",
"6  c #C16647",
"7  c #CA6044",
"8  c #CA645A",
"9  c #DF6358",
"0  c #C17558",
"q  c #DA6F65",
"w  c #29AE5F",
"e  c #2BAE5E",
"r  c #2EAD5D",
"t  c #2DAD5E",
"y  c #3DAC57",
"u  c #38A65D",
"i  c #35AD5B",
"p  c #31AD5C",
"a  c #39AC59",
"s  c #27AE60",
"d  c #28AE60",
"f  c #36B06A",
"g  c #7F945A",
"h  c #43AC55",
"j  c #42AC56",
"k  c #49AB53",
"l  c #41A15B",
"z  c #64A949",
"x  c #4DAD62",
"c  c #56AE68",
"v  c #4EB668",
"b  c #47BA6A",
"n  c #54B47F",
"m  c #63A762",
"M  c #67A461",
"N  c #3EC16C",
"B  c #3CC26D",
"V  c #33CC6E",
"C  c #36CC6D",
"Z  c #3ACB6B",
"A  c #2ECC71",
"S  c #2FCC71",
"D  c #32C970",
"F  c #31CA70",
"G  c #30CC70",
"H  c #39CE79",
"J  c #53CA5F",
"K  c #5DCA5A",
"L  c #7EC949",
"P  c #7CC94A",
"I  c #65CA55",
"U  c #6BC952",
"Y  c #6DC951",
"T  c #6CC952",
"R  c #43CB66",
"E  c #43CB67",
"W  c #4FCB60",
"Q  c #4ECB61",
"!  c #8DA539",
"~  c #A6A32F",
"^  c #AFA22C",
"/  c #B6A129",
"(  c #B8A129",
")  c #D49F1E",
"_  c #D59F1E",
"`  c #DF9E1A",
"'  c #D89E1C",
"]  c #D99E1C",
"[  c #ED9B17",
"{  c #ED9D14",
"}  c #E39E19",
"|  c #F39C12",
" . c #CD9F20",
".. c #CE9F20",
"X. c #D89828",
"o. c #C7A023",
"O. c #C0A126",
"+. c #C5A331",
"@. c #CDBC35",
"#. c #9CC73A",
"$. c #95C83D",
"%. c #9AC83B",
"&. c #B5C62D",
"*. c #BBC62A",
"=. c #B8C62C",
"-. c #A4C736",
";. c #A8C734",
":. c #D2C51E",
">. c #D3C51E",
",. c #D5C51D",
"<. c #DFC518",
"1. c #F0C40F",
"2. c #F1C40F",
"3. c #E3C516",
"4. c #E6C415",
"5. c #EAC412",
"6. c #EDC411",
"7. c #EEC411",
"8. c #E8C414",
"9. c #E9C414",
"0. c #E5C11C",
"q. c #C6C625",
"w. c #CDC521",
"e. c #C8C624",
"r. c #928754",
"t. c #9A8152",
"y. c #839159",
"u. c #A99549",
"i. c #B79444",
"p. c #B6B64F",
"a. c #B4AA52",
"s. c #8E8E65",
"d. c #8E8E66",
"f. c #9EB169",
"g. c #AEB37A",
"h. c #84C846",
"j. c #8BC842",
"k. c #3C84A6",
"l. c #368FA8",
"z. c #2A85B1",
"x. c #2F81B4",
"c. c #2980B9",
"v. c #658887",
"b. c #6FA69C",
"n. c #72B994",
"m. c #4484A3",
"M. c #4D9CA6",
"N. c #57A0B5",
"B. c #71ABAD",
"V. c #51D389",
"C. c #69D799",
"Z. c #3F9BCF",
"A. c #349BD5",
"S. c #3498DB",
"D. c #39A3CC",
"F. c #44ACC7",
"G. c #56B6C5",
"H. c #6DC0C8",
"J. c #86AB82",
"K. c #8EB98E",
"L. c #90BDA8",
"P. c #A1BBBD",
"I. c #E99E96",
"U. c #AEC1BD",
"Y. c #B0C0B8",
"T. c #B0C0B9",
"R. c #89CDCF",
"E. c #BCC3C7",
"W. c #BDC3C7",
"Q. c #BEC3C7",
"!. c #ACDAD9",
"~. c #E3C9C7",
"^. c #EBD0CB",
"/. c #D5E9E8",
"(. c #ECF0F1",
"). c #ECF1F1",
"_. c #EDF0F2",
"`. c None",
/* pixels */
"`.`.`.`.`.`.`.`.`.`.`.`.`.`.`.`.`.`.`.`.`.`.`.% % % % % % `.`.`.`.`.`.`.`.`.`.`.`.`.`.`.`.`.`.`.",
"`.`.`.`.`.`.`.`.`.`.`.`.`.`.`.`.`.`.`.`.`.`.% % % % % % % % `.`.`.`.`.`.`.`.`.`.`.`.`.`.`.`.`.`.",
"`.`.`.`.`.`.`.`.`.`.`.`.`.`.`.`.`.`.`.`.$ $ $ $ % % % % % % % % `.`.`.`.`.`.`.`.`.`.`.`.`.`.`.`.",
"`.`.`.`.`.`.`.`.`.`.`.`.`.`.`.`.`.`.`.`.$ $ $ $ % % % % % % % % `.`.`.`.`.`.`.`.`.`.`.`.`.`.`.`.",
"`.`.`.`.`.`.`.`.`.`.`.`.`.Q.Q.Q.).).^.4 % % $ $ X X X X $ $ $ $ % `.`.`.`.`.`.`.`.E.Q.E.`.`.`.`.",
"`.`.`.`.`.`.`.E.Q.Q.Q.Q.E.Q.Q.Q._._.I.% % % $ X X X X X X # $ $ % 9 `.Q.E.E.E.E.Q.Q.Q.E.`.`.`.`.",
"`.`.`.`.E.E.E.E.Q.Q.Q.P.L.n.V.u H V.0 $ % % X X 8 ~.~.8 X X $ % % q Q.Q.E.Y.L.n.n f E.Q.`.`.`.`.",
"`.`.`.`.Q.E.Y.g.a.+.{ ) u s s d A A 3 $ % % X X c V.C.K.X X % % % 1 b.V.f s s s d d E.E.`.`.`.`.",
"`.`.`.`.E.Q.d ~ | | | |  .i s d A G @ % % % X   x G A x   X $ $ $ + s s s s s s s s Q.Q.`.`.`.`.",
"`.`.`.`.Q.E.d e / | | | {  .e d A G 6 % % % X   o x x o   O % $ $ < s s s s s s s s Q.Q.`.`.`.`.",
"`.`.`.`.E.E.s s e ( | | | | o.e A A r.% % % # X X       X $ % % $ ; s s s s s s s s Q.Q.`.`.`.`.",
"`.`.`.`.E.E.s s d e ( | | | | ( G A b % % % % # O X X O # % % % $ u s s s s s s s s Q.Q.`.`.`.`.",
"`.`.`.`.E.Q.s s d d i o.| | | | T A A t.% % % % % % % % $ $ $ $ : s s s s s s s s s Q.Q.`.`.`.`.",
"`.`.`.`.Q.E.s s s d s i  .| | | q.A F E @ % % % % % % % $ $ % @ u s s s s s s s s s E.Q.`.`.`.`.",
"`.`.`.`.E.Q.d d s s s s i ) | | 2.K A A y.% % % % % % % % % % y.s s s s s s s s s s Q.E.`.`.`.`.",
"`.`.`.`.Q.E.d d s s s s s y ] | 2.&.A A D < % % % % % % % % < D s s s s s s s s s s E.Q.`.`.`.`.",
"`.`.`.`.E.E.s s s s s s s s h } 2.2.W A S m - % % % % % % % M G s s s s s s s s s s Q.Q.`.`.`.`.",
"`.`.`.`.E.E.s s s s s s s s s h 9.2.;.A S S , - % % % % % , A G s s s s s s s s s s Q.Q.`.`.`.`.",
"`.`.`.`.E.Q.s s s s s s s s s s -.2.9.R S S v - % % % % % b A A s s s s s s s s s s Q.Q.`.`.`.`.",
"`.`.`.`.Q.E.s d s s s s s s s s W 2.2.#.S S S t.% % % % t.A A A s s s s s s s s s s Q.Q.`.`.`.`.",
"`.`.`.`.Q.E.d d s s s s s s s s A *.2.9.Z A A f 1 = 4 1 E A A A s s s s d d s s y / Q.E.`.`.`.`.",
"`.`.`.`.E.E.d d s s s s s s s s A I 2.2.j.A A A g = = g A A A A s s s s d d d ! { | Q.Q.`.`.`.`.",
"`.`.`.`.E.E.s s s s s s s s s s A G >.2.<.G A A D < < A A A A A s s s s d z ] | | | Q.Q.`.`.`.`.",
"`.`.`.`.E.E.s s s s s s s s s s A A L 2.2.L A A A m m A A A A A s s s h / | | | | | Q.Q.`.`.`.`.",
"`.`.`.`.E.Q.d d s s s s s s s s A A Z 4.2.>.A A A A A A A A A A e e ! { | | | | X.v.Q.E.`.`.`.`.",
"`.`.`.`.Q.E.d d s s s s s s s s A A A $.2.2.Y A A A A A A A A A z X.| | | | [ d.x.c.E.Q.`.`.`.`.",
"`.`.`.`.E.E.s s s s s s s s s s A A Z Z 9.2.w.A Z J Y h.#.&.w.4.| | | | | i.m.c.c.c.Q.E.`.`.`.`.",
"`.`.`.`.E.E.s s s s s s s s s s Z W Y h.>.2.2.9.9.2.2.2.2.2.2.2.| | | X.v.z.c.c.c.c.E.Q.`.`.`.`.",
"`.`.`.`.E.Q.d d s s s s w e h ( 9.2.2.2.2.2.2.2.2.2.2.2.2.2.2.2.| | d.z.c.c.c.c.c.c.Q.E.`.`.`.`.",
"`.`.`.`.Q.E.d d s s s s e ! { | 2.2.2.2.2.2.2.2.2.2.2.2.2.2.2.2.i.m.c.c.c.c.c.c.c.c.E.Q.`.`.`.`.",
"`.`.`.`.E.E.s s s s e z ) | | | 2.2.2.2.2.2.2.2.0.@.p.f.J.b.N.Z.c.c.c.c.c.c.c.c.c.c.Q.E.`.`.`.`.",
"`.`.`.`.E.E.s s s h / | | | | | 0.@.p.f.J.b.N.Z.S.S.S.S.S.S.S.S.c.c.c.c.c.c.c.c.c.c.E.Q.`.`.`.`.",
"`.`.`.`.Q.Q.s e ! { | | | | X.v.S.S.S.S.S.S.S.S.S.S.S.S.S.S.S.S.c.c.c.c.c.c.c.c.c.c.E.Q.`.`.`.`.",
"`.`.`.`.Q.Q.z ) | | | | [ d.x.c.S.S.S.S.S.S.S.S.S.S.S.S.S.S.S.S.c.c.c.c.c.c.c.c.c.c.E.E.`.`.`.`.",
"`.`.`.`.Q.Q.| | | | | i.m.c.c.c.S.S.S.S.S.S.S.S.S.S.S.S.S.S.S.S.c.c.c.c.c.c.c.c.c.c.E.E.`.`.`.`.",
"`.`.`.`.Q.Q.| | | X.v.c.c.c.c.c.S.S.S.S.S.S.S.S.S.S.S.S.S.S.S.S.c.c.c.c.c.c.c.c.c.c.E.E.`.`.`.`.",
"`.`.`.`.E.Q.| { d.x.c.c.c.c.c.c.S.S.S.S.S.S.S.S.S.S.S.S.S.S.S.S.c.c.c.c.c.c.c.c.c.c.E.Q.`.`.`.`.",
"`.`.`.`.Q.E.u.k.c.c.c.c.c.c.c.c.S.S.S.S.S.S.S.S.S.S.S.S.S.S.S.S.c.c.c.c.c.c.c.c.c.c.Q.E.`.`.`.`.",
"`.`.`.`.E.Q.c.c.c.c.c.c.c.c.c.c.S.S.S.S.S.S.S.S.S.S.S.S.S.S.S.S.c.c.c.c.c.c.c.c.c.c.E.Q.`.`.`.`.",
"`.`.`.`.Q.E.c.c.c.c.c.c.c.c.c.c.S.S.S.S.S.S.S.S.S.S.S.S.S.S.S.S.c.c.c.c.c.c.c.c.c.c.Q.E.`.`.`.`.",
"`.`.`.`.Q.E.c.c.c.c.c.z.l.M.B.P./.!.R.H.G.F.D.A.S.S.S.S.S.S.S.S.c.c.c.c.c.z.l.M.B.P.E.Q.`.`.`.`.",
"`.`.`.`.E.Q.z.l.M.B.P.E.Q.E.E.Q._.)._._.(.(._._./.!.R.H.G.F.D.A.z.l.M.B.P.E.Q.E.Q.E.Q.E.`.`.`.`.",
"`.`.`.`.Q.E.Q.E.E.E.E.Q.E.`.`.`.`.`.`.`.(.).).)._._.).)._.(._._.Q.E.Q.E.Q.E.E.Q.E.`.`.`.`.`.`.`.",
"`.`.`.`.E.Q.E.`.`.`.`.`.`.`.`.`.`.`.`.`.`.`.`.`.`.`.`.`.(.(._.).E.Q.E.`.`.`.`.`.`.`.`.`.`.`.`.`.",
"`.`.`.`.`.`.`.`.`.`.`.`.`.`.`.`.`.`.`.`.`.`.`.`.`.`.`.`.`.`.`.`.`.`.`.`.`.`.`.`.`.`.`.`.`.`.`.`.",
"`.`.`.`.`.`.`.`.`.`.`.`.`.`.`.`.`.`.`.`.`.`.`.`.`.`.`.`.`.`.`.`.`.`.`.`.`.`.`.`.`.`.`.`.`.`.`.`.",
"`.`.`.`.`.`.`.`.`.`.`.`.`.`.`.`.`.`.`.`.`.`.`.`.`.`.`.`.`.`.`.`.`.`.`.`.`.`.`.`.`.`.`.`.`.`.`.`.",
"`.`.`.`.`.`.`.`.`.`.`.`.`.`.`.`.`.`.`.`.`.`.`.`.`.`.`.`.`.`.`.`.`.`.`.`.`.`.`.`.`.`.`.`.`.`.`.`."
};
