/* XPM */
static const char *map[] = {
/* columns rows colors chars-per-pixel */
"48 48 133 2 ",
"   c #29AE5F",
".  c #2BAE5E",
"X  c #2EAD5D",
"o  c #2DAD5E",
"O  c #3DAC57",
"+  c #35AD5B",
"@  c #31AD5C",
"#  c #39AC59",
"$  c #27AE60",
"%  c #28AE60",
"&  c #36B06A",
"*  c #43AC55",
"=  c #42AC56",
"-  c #49AB53",
";  c #64A949",
":  c #54B47F",
">  c #33CC6E",
",  c #36CC6D",
"<  c #3ACB6B",
"1  c #2ECC71",
"2  c #2FCC71",
"3  c #30CC70",
"4  c #39CE79",
"5  c #53CA5F",
"6  c #5DCA5A",
"7  c #7EC949",
"8  c #7CC94A",
"9  c #65CA55",
"0  c #6BC952",
"q  c #6DC951",
"w  c #6CC952",
"e  c #43CB66",
"r  c #43CB67",
"t  c #4FCB60",
"y  c #4ECB61",
"u  c #8DA539",
"i  c #A6A32F",
"p  c #AFA22C",
"a  c #B6A129",
"s  c #B8A129",
"d  c #D49F1E",
"f  c #D59F1E",
"g  c #DF9E1A",
"h  c #D89E1C",
"j  c #D99E1C",
"k  c #ED9B17",
"l  c #ED9D14",
"z  c #E39E19",
"x  c #F39C12",
"c  c #CD9F20",
"v  c #CE9F20",
"b  c #D89828",
"n  c #C7A023",
"m  c #C0A126",
"M  c #C5A331",
"N  c #CDBC35",
"B  c #9CC73A",
"V  c #95C83D",
"C  c #9AC83B",
"Z  c #B5C62D",
"A  c #BBC62A",
"S  c #B8C62C",
"D  c #A4C736",
"F  c #A8C734",
"G  c #D2C51E",
"H  c #D3C51E",
"J  c #D5C51D",
"K  c #DFC518",
"L  c #F0C40F",
"P  c #F1C40F",
"I  c #E3C516",
"U  c #E6C415",
"Y  c #EAC412",
"T  c #EDC411",
"R  c #EEC411",
"E  c #E8C414",
"W  c #E9C414",
"Q  c #E5C11C",
"!  c #C6C625",
"~  c #CDC521",
"^  c #C8C624",
"/  c #A99549",
"(  c #B79444",
")  c #B6B64F",
"_  c #B4AA52",
"`  c #8E8E65",
"'  c #8E8E66",
"]  c #9EB169",
"[  c #AEB37A",
"{  c #84C846",
"}  c #8BC842",
"|  c #3C84A6",
" . c #368FA8",
".. c #2A85B1",
"X. c #2F81B4",
"o. c #2980B9",
"O. c #658887",
"+. c #6FA69C",
"@. c #72B994",
"#. c #4484A3",
"$. c #4D9CA6",
"%. c #57A0B5",
"&. c #71ABAD",
"*. c #51D389",
"=. c #69D799",
"-. c #3F9BCF",
";. c #349BD5",
":. c #3498DB",
">. c #39A3CC",
",. c #44ACC7",
"<. c #56B6C5",
"1. c #6DC0C8",
"2. c #86AB82",
"3. c #90BDA8",
"4. c #A1BBBD",
"5. c #81DCA9",
"6. c #AEC1BD",
"7. c #B0C0B8",
"8. c #B0C0B9",
"9. c #99E0B9",
"0. c #89CDCF",
"q. c #BCC3C7",
"w. c #BDC3C7",
"e. c #BEC3C7",
"r. c #ACDAD9",
"t. c #B0E5C9",
"y. c #C8E9D9",
"u. c #D5E9E8",
"i. c #E0EEE9",
"p. c #ECF0F1",
"a. c #ECF1F1",
"s. c #EDF0F2",
"d. c None",
/* pixels */
"d.d.d.d.d.d.d.d.d.d.d.d.d.d.d.d.d.d.d.d.d.d.d.d.d.d.d.d.d.d.d.d.d.d.d.d.d.d.d.d.d.d.d.d.d.d.d.d.",
"d.d.d.d.d.d.d.d.d.d.d.d.d.d.d.d.d.d.d.d.d.d.d.d.d.d.d.d.d.d.d.d.d.d.d.d.d.d.d.d.d.d.d.d.d.d.d.d.",
"d.d.d.d.d.d.d.d.d.d.d.d.d.d.d.d.d.d.d.d.d.d.d.d.d.d.d.d.d.d.d.d.d.d.d.d.d.d.d.d.d.d.d.d.d.d.d.d.",
"d.d.d.d.d.d.d.d.d.d.d.d.d.d.d.d.d.d.d.d.d.d.d.d.d.d.d.d.d.d.d.d.d.d.d.d.d.d.d.d.d.d.d.d.d.d.d.d.",
"d.d.d.d.d.d.d.d.d.d.d.d.d.e.e.e.s.s.p.p.d.d.d.d.d.d.d.d.d.d.d.d.d.d.d.d.d.d.d.d.d.e.e.q.d.d.d.d.",
"d.d.d.d.d.d.d.q.e.q.q.q.w.e.e.e.s.s.p.s.s.s.a.a.a.a.a.a.d.d.d.d.d.d.d.e.e.q.q.q.e.e.e.q.d.d.d.d.",
"d.d.d.d.q.q.q.q.q.q.e.4.3.@.*.+ 4 *.=.5.9.t.y.u.s.s.a.a.a.a.a.a.e.e.e.e.q.7.3.@.: & e.e.d.d.d.d.",
"d.d.d.d.e.q.7.[ _ M l b # $ $ % 3 1 1 1 1 1 1 1 4 *.=.5.9.t.y.i.4.3.+.*.& % $ $ % % e.e.d.d.d.d.",
"d.d.d.d.q.e.% i x x x x c + $ % 1 1 1 1 1 1 1 1 3 3 1 1 1 1 1 1 $ $ $ $ $ $ $ $ % % e.q.d.d.d.d.",
"d.d.d.d.e.q.% . a x x x l c . % 1 1 1 1 1 1 1 1 1 3 1 1 1 1 1 1 $ $ $ $ $ $ $ $ % % q.e.d.d.d.d.",
"d.d.d.d.q.q.$ $ . s x x x x n . 1 1 1 1 1 1 1 1 1 1 1 1 1 1 1 1 $ $ $ $ $ $ $ $ % $ e.q.d.d.d.d.",
"d.d.d.d.q.q.$ $ % . s x x x x s 3 1 1 1 1 1 1 1 1 1 1 1 1 1 1 1 $ $ $ $ $ $ $ $ $ $ q.e.d.d.d.d.",
"d.d.d.d.q.e.$ $ % % + n x x x x w 1 1 1 1 1 1 1 1 1 1 1 1 1 1 1 $ $ $ $ $ $ $ $ $ $ q.q.d.d.d.d.",
"d.d.d.d.e.q.$ $ $ % $ + c x x x ! 1 1 1 1 1 1 1 1 1 1 1 1 1 1 1 $ $ $ $ $ $ $ $ $ $ q.q.d.d.d.d.",
"d.d.d.d.q.e.% % $ $ $ $ + d x x P 6 1 1 1 1 1 1 1 1 1 1 1 1 1 1 $ $ $ $ $ $ $ $ % % q.e.d.d.d.d.",
"d.d.d.d.e.q.% % $ $ $ $ $ O j x P S 1 1 1 1 1 1 1 1 1 1 1 1 1 1 $ $ $ $ $ $ $ $ % % e.q.d.d.d.d.",
"d.d.d.d.q.q.$ $ $ $ $ $ % % * j P P t 1 1 1 1 1 1 1 1 1 1 1 1 1 $ $ $ $ $ $ $ $ $ $ q.q.d.d.d.d.",
"d.d.d.d.q.q.$ $ $ $ $ $ % % % - Y P F 1 1 1 1 1 1 1 1 1 1 1 1 1 $ $ $ $ $ $ $ $ $ $ q.q.d.d.d.d.",
"d.d.d.d.e.q.$ $ $ $ $ $ $ $ $ $ D P Y r 1 1 1 1 1 1 1 1 1 1 1 1 $ $ $ $ $ $ $ $ % % q.q.d.d.d.d.",
"d.d.d.d.q.e.$ $ $ $ $ $ $ $ $ $ t P P B 1 1 1 1 1 1 1 1 1 1 1 1 $ $ $ $ $ $ $ $ % % q.e.d.d.d.d.",
"d.d.d.d.e.q.% % $ $ $ $ $ $ $ $ 1 S P Y < 1 1 1 1 1 1 1 1 1 1 1 $ $ $ $ % % $ $ = a e.q.d.d.d.d.",
"d.d.d.d.q.e.% % $ $ $ $ $ $ $ $ 3 9 P P } 1 1 1 1 1 1 1 1 1 1 1 $ $ $ $ $ % % u l x q.e.d.d.d.d.",
"d.d.d.d.q.q.$ $ $ $ $ $ $ $ $ $ 1 3 G P K 3 1 1 1 1 1 1 1 1 1 1 $ $ $ $ $ ; j x x x q.q.d.d.d.d.",
"d.d.d.d.q.q.$ $ $ $ $ $ $ $ $ $ 1 1 7 P P 7 1 1 1 1 1 1 1 1 1 1 $ $ $ * a x x x x x q.q.d.d.d.d.",
"d.d.d.d.e.q.% % $ $ $ $ $ $ $ $ 1 1 , Q P G 3 1 1 1 1 1 1 1 1 1     u x x x x x b O.e.q.d.d.d.d.",
"d.d.d.d.q.e.% % $ $ $ $ $ $ $ $ 1 1 1 V P P w 1 1 1 1 1 1 1 1 1 ; b x x x x k ' X.o.q.e.d.d.d.d.",
"d.d.d.d.q.q.$ $ $ $ $ $ $ $ $ $ 1 1 1 r P P ! 1 < 5 w { B Z ~ U x x x x x ( #.o.o.o.e.q.d.d.d.d.",
"d.d.d.d.q.q.$ $ $ $ $ $ $ $ $ $ < 5 w { H P P Y P P P P P P P P x x x b O...o.o.o.o.q.e.d.d.d.d.",
"d.d.d.d.e.q.% % $ $ $ $ $ $ * s L L L L P P P P P P P P P P P P x x ' ..o.o.o.o.o.o.e.q.d.d.d.d.",
"d.d.d.d.q.e.% % $ $ $ $ . u x x L L L L P P P P P P P P P P P P ( #.o.o.o.o.o.o.o.o.q.e.d.d.d.d.",
"d.d.d.d.q.q.$ $ $ $ % ; j x x x L L L L P P P P Q N ) ] 2.+.%.-.o.o.o.o.o.o.o.o.o.o.e.q.d.d.d.d.",
"d.d.d.d.q.q.$ $ $ * a x x x x x Q N ) ] 2.+.%.-.:.:.:.:.:.:.:.:.o.o.o.o.o.o.o.o.o.o.q.e.d.d.d.d.",
"d.d.d.d.q.e.% % u x x x x x b O.:.:.:.:.:.:.:.:.:.:.:.:.:.:.:.:.o.o.o.o.o.o.o.o.o.o.q.q.d.d.d.d.",
"d.d.d.d.q.q.; j x x x x k ' X.o.:.:.:.:.:.:.:.:.:.:.:.:.:.:.:.:.o.o.o.o.o.o.o.o.o.o.q.q.d.d.d.d.",
"d.d.d.d.q.q.x x x x x ( #.o.o.o.:.:.:.:.:.:.:.:.:.:.:.:.:.:.:.:.o.o.o.o.o.o.o.o.o.o.q.q.d.d.d.d.",
"d.d.d.d.q.q.x x x b O.o.o.o.o.o.:.:.:.:.:.:.:.:.:.:.:.:.:.:.:.:.o.o.o.o.o.o.o.o.o.o.q.q.d.d.d.d.",
"d.d.d.d.e.q.x x ' X.o.o.o.o.o.o.:.:.:.:.:.:.:.:.:.:.:.:.:.:.:.:.o.o.o.o.o.o.o.o.o.o.q.e.d.d.d.d.",
"d.d.d.d.q.e./ | o.o.o.o.o.o.o.o.:.:.:.:.:.:.:.:.:.:.:.:.:.:.:.:.o.o.o.o.o.o.o.o.o.o.e.q.d.d.d.d.",
"d.d.d.d.e.q.o.o.o.o.o.o.o.o.o.o.:.:.:.:.:.:.:.:.:.:.:.:.:.:.:.:.o.o.o.o.o.o.o.o.o.o.q.e.d.d.d.d.",
"d.d.d.d.q.e.o.o.o.o.o.o.o.o.o.o.:.:.:.:.:.:.:.:.:.:.:.:.:.:.:.:.o.o.o.o.o.o.o.o.o.o.e.q.d.d.d.d.",
"d.d.d.d.q.e.o.o.o.o.o... .$.&.4.u.r.0.1.<.,.>.;.:.:.:.:.:.:.:.:.o.o.o.o.o... .$.&.4.q.e.d.d.d.d.",
"d.d.d.d.e.q... .$.&.4.e.q.e.e.q.s.s.s.p.p.p.s.s.u.r.0.1.<.,.>.;... .$.&.4.q.e.q.e.q.e.q.d.d.d.d.",
"d.d.d.d.q.e.q.e.q.q.q.q.q.d.d.d.d.d.d.d.p.s.s.s.s.p.s.s.s.s.s.s.e.q.e.q.e.q.q.e.q.d.d.d.d.d.d.d.",
"d.d.d.d.e.q.q.d.d.d.d.d.d.d.d.d.d.d.d.d.d.d.d.d.d.d.d.d.s.s.s.s.q.e.q.d.d.d.d.d.d.d.d.d.d.d.d.d.",
"d.d.d.d.d.d.d.d.d.d.d.d.d.d.d.d.d.d.d.d.d.d.d.d.d.d.d.d.d.d.d.d.d.d.d.d.d.d.d.d.d.d.d.d.d.d.d.d.",
"d.d.d.d.d.d.d.d.d.d.d.d.d.d.d.d.d.d.d.d.d.d.d.d.d.d.d.d.d.d.d.d.d.d.d.d.d.d.d.d.d.d.d.d.d.d.d.d.",
"d.d.d.d.d.d.d.d.d.d.d.d.d.d.d.d.d.d.d.d.d.d.d.d.d.d.d.d.d.d.d.d.d.d.d.d.d.d.d.d.d.d.d.d.d.d.d.d.",
"d.d.d.d.d.d.d.d.d.d.d.d.d.d.d.d.d.d.d.d.d.d.d.d.d.d.d.d.d.d.d.d.d.d.d.d.d.d.d.d.d.d.d.d.d.d.d.d."
};
