/* XPM */
const static char *new_file[] = {
/* columns rows colors chars-per-pixel */
"48 48 125 2 ",
"   c #24511C",
".  c #245B1C",
"X  c #347E1F",
"o  c #2F5E22",
"O  c #37642F",
"+  c #2F7822",
"@  c #337B22",
"#  c #777675",
"$  c #797877",
"%  c #7D7C7B",
"&  c #807F7F",
"*  c #39841C",
"=  c #3E8622",
"-  c #418C1C",
";  c #49931C",
":  c #4F9B1B",
">  c #509D1C",
",  c #57A31E",
"<  c #59A51B",
"1  c #5FAB1A",
"2  c #65AE1C",
"3  c #6AB412",
"4  c #6CB41D",
"5  c #77BC16",
"6  c #7CBD16",
"7  c #71B71C",
"8  c #75BA1B",
"9  c #7ABC18",
"0  c #458E22",
"q  c #4D9522",
"w  c #559F22",
"e  c #5AA421",
"r  c #5FA821",
"t  c #64AD20",
"y  c #6CBA21",
"u  c #73BF20",
"i  c #7EBE30",
"p  c #79C51E",
"a  c #7EC02B",
"s  c #629553",
"d  c #6C9D57",
"f  c #75AE46",
"g  c #76B246",
"h  c #7FB849",
"j  c #71A357",
"k  c #74A25C",
"l  c #7AAB5B",
"z  c #73A260",
"x  c #80BE14",
"c  c #81BF32",
"v  c #85C20E",
"b  c #84C112",
"n  c #85C239",
"m  c #97C936",
"M  c #83B161",
"N  c #8BBF66",
"B  c #8BC245",
"V  c #8EC24C",
"C  c #92C94C",
"Z  c #8EC553",
"A  c #95CA50",
"S  c #A0CC4A",
"D  c #A3CE53",
"F  c #9AC077",
"G  c #A6CE61",
"H  c #A5CE6C",
"J  c #A9CF6E",
"K  c #A6D267",
"L  c #AFD866",
"P  c #ACD16C",
"I  c #B0D668",
"U  c #B1D471",
"Y  c #848382",
"T  c #888787",
"R  c #898887",
"E  c #8C8B8B",
"W  c #908E8E",
"Q  c #949393",
"!  c #999897",
"~  c #9B9A98",
"^  c #9EBC83",
"/  c #AFAFAE",
"(  c #B0AFAE",
")  c #B1B1AF",
"_  c #B5B4B3",
"`  c #BDBCBC",
"'  c #C1BEBE",
"]  c #A6C28D",
"[  c #B2D196",
"{  c #BCD3A6",
"}  c #C3D5A6",
"|  c #D1DEB6",
" . c #D6E1BE",
".. c #C4C3C3",
"X. c #C8C7C7",
"o. c #CAC6C9",
"O. c #CCCBCB",
"+. c #D0CFCF",
"@. c #D6DDCA",
"#. c #D8DEC9",
"$. c #D1CDD1",
"%. c #D4D3D3",
"&. c #D8D7D7",
"*. c #DBDFD2",
"=. c #D9D3DC",
"-. c #DDDDDC",
";. c #E0DFDF",
":. c #DCE1D4",
">. c #E1E0DF",
",. c #E0DEE2",
"<. c #E4E4E3",
"1. c #E9E7E7",
"2. c #E7E8E6",
"3. c #E8E8E7",
"4. c #E9E6EB",
"5. c #ECEBEB",
"6. c #F0EFEF",
"7. c #F2F8E4",
"8. c #F0F0EF",
"9. c #EFEDF1",
"0. c #F0EEF2",
"q. c #F2F2F1",
"w. c #F8FBF1",
"e. c #FCFCFD",
"r. c None",
/* pixels */
"r.r.r.r.r.r.r.r.r.r.r.r.r.r.r.r.r.r.r.r.r.r.r.r.r.r.r.r.r.r.r.r.r.r.r.r.r.r.r.r.r.r.r.r.r.r.r.r.",
"r.r.r.r.r.r.r.r.r.r.r.r.r.r.r.r.r.r.r.r.r.r.r.r.r.r.r.r.r.r.r.r.r.r.r.r.r.r.r.r.r.r.r.r.r.r.r.r.",
"r.r.r.r.r.r.r.r.r.r.r.r.r.r.r.r.r.r.r.r.r.r.r.r.r.r.r.r.r.r.r.r.r.r.r.r.r.r.r.r.r.r.r.r.r.r.r.r.",
"r.r.r.r.r.r.r.r.r.r.r.r.r.r.r.r.r.r.r.r.r.r.r.r.r.r.r.r.r.r.r.r.r.r.r.r.r.r.r.r.r.r.r.r.r.r.r.r.",
"r.r.r.r.r.r.r.r.r.8.3.9.5.3.3.3.5.5.5.5.5.5.5.5.5.5.' r.r.r.r.r.r.r.r.r.r.r.r.r.r.r.r.r.r.r.r.r.",
"r.r.r.r.r.r.r.r.5.q.3.3.3.3.3.1.2.3.1.1.1.1.1.1.5.1._ Y r.r.r.r.r.r.r.r.r.r.r.r.r.r.r.r.r.r.r.r.",
"r.r.r.r.r.r.r.r.3.3.2.2.3.2.1.1.<.<.1.<.1.<.2.<.5.1._ Y E r.r.r.r.r.r.r.r.r.r.r.r.r.r.r.r.r.r.r.",
"r.r.r.r.r.r.r.<.9.2.1.3.3.3.3.3.5.5.5.5.5.5.5.5.3.1._ % T E r.r.r.r.r.r.r.r.r.r.r.r.r.r.r.r.r.r.",
"r.r.r.r.r.r.r.<.8.3.q.e.e.e.e.e.e.e.e.e.e.e.e.e.5.3.( % Y E W r.r.r.r.r.r.r.r.r.r.r.r.r.r.r.r.r.",
"r.r.r.r.r.r.r.<.q.<.<.1.3.3.1.3.1.1.1.1.1.1.1.1.3.3.( $ & Y E Q r.r.r.r.r.r.r.r.r.r.r.r.r.r.r.r.",
"r.r.r.r.r.r.r.<.8.1.<.;.>.>.>.>.;.>.;.;.;.;.,.<.3.5.' $ % Y Y E ! r.r.r.r.r.r.r.r.r.r.r.r.r.r.r.",
"r.r.r.r.r.r.r.<.8.1.3.5.3.3.9.3.6.5.5.5.5.6.5.5.5.1.&.! # % Y E W ! r.r.r.r.r.r.r.r.r.r.r.r.r.r.",
"r.r.r.r.r.r.r.<.8.3.8.e.e.e.e.e.e.e.e.e.e.e.e.e.5.1.3.%.~ Y Y R E Q ! r.r.r.r.r.r.r.r.r.r.r.r.r.",
"r.r.r.r.r.r.r.<.8.3.<.3.1.3.1.3.1.<.<.1.1.<.1.<.1.3.3.3.&.+.........o.+.r.r.r.r.r.r.r.r.r.r.r.r.",
"r.r.r.r.r.r.r.<.8.3.<.>.>.>.<.>.>.<.<.<.,.1.<.<.1.5.5.5.5.5.5.3.5.5.5.5.r.r.r.r.r.r.r.r.r.r.r.r.",
"r.r.r.r.r.r.r.<.8.3.3.8.5.5.8.5.6.5.6.5.5.6.6.6.6.5.5.5.5.5.5.5.5.3.5.<.r.r.r.r.r.r.r.r.r.r.r.r.",
"r.r.r.r.r.r.r.<.q.<.q.e.e.e.e.e.e.e.e.e.e.e.e.e.e.e.e.e.e.e.e.e.e.5.5.2.r.r.r.r.r.r.r.r.r.r.r.r.",
"r.r.r.r.r.r.r.<.q.5.<.:.<.&.<.&.>.;.&.<.<.:.<.;.&.<.>.>.<.;.&.<.>.>.5.2.r.r.r.r.r.r.r.r.r.r.r.r.",
"r.r.r.r.r.r.r.<.9.<.<.<.<.<.<.<.<.<.2.<.<.<.<.<.2.<.2.<.<.<.<.<.<.3.5.<.r.r.r.r.r.r.r.r.r.r.r.r.",
"r.r.r.r.r.r.r.<.q.<.3.5.5.5.5.5.5.5.5.5.5.5.5.5.5.5.5.5.8.5.5.5.5.3.3.2.r.r.r.r.r.r.r.r.r.r.r.r.",
"r.r.r.r.r.r.r.<.6.<.q.e.e.e.e.e.e.e.e.e.e.e.e.e.e.e.e.e.e.e.e.e.e.8.3.2.r.r.r.r.r.r.r.r.r.r.r.r.",
"r.r.r.r.r.r.r.<.5.<.:.<.,.<.>.>.<.<.>.>.>.>.<.<.&.<.,.<.:.#.#.#.&.<.3.3.r.r.r.r.r.r.r.r.r.r.r.r.",
"r.r.r.r.r.r.r.<.5.<.<.<.<.<.<.<.<.<.<.<.<.<.<.<.<.<.<.| S m m m D #.5.1.r.r.r.r.r.r.r.r.r.r.r.r.",
"r.r.r.r.r.r.r.&.5.<.1.5.5.5.5.5.5.5.5.5.5.5.5.5.5.6.q.L b v v b b U 5.<.r.r.r.r.r.r.r.r.r.r.r.r.",
"r.r.r.r.r.r.r.&.5.>.8.e.e.e.e.e.e.e.e.e.e.e.e.e.e.e.e.L 6 x x v x K 9.<.r.r.r.r.r.r.r.r.r.r.r.r.",
"r.r.r.r.r.r.r.<.3.>.&.<.>.&.,.:.;.<.:.<.;.>.;.>.>.<.<.G 6 x x x x J 1.,.r.r.r.r.r.r.r.r.r.r.r.r.",
"r.r.r.r.r.r.r.&.3.>.<.&.>.;.>.>.;.<.<.<.<.>.,.<.<.<.<.G 6 6 x 6 9 J 1.<.r.r.r.r.r.r.r.r.r.r.r.r.",
"r.r.r.r.r.r.r.&.5.&.<.5.5.3.5.5.5.5.5.6.5.5.0.0.9.9.9.K 5 6 9 6 8 J 1.<.r.r.r.r.r.r.r.r.r.r.r.r.",
"r.r.r.r.r.r.r.:.1.&.q.e.e.e.e.e.e.e.e.e.e.w.7.7.7.7.7.K 8 8 8 8 9 H &.#.r.r.r.r.r.r.r.r.r.r.r.r.",
"r.r.r.r.r.r.r.;.1.&.&.&.;.,.&.>.&.;.&.<.} C C C C C C c 8 8 8 8 8 n B B n a a a r.r.r.r.r.r.r.r.",
"r.r.r.r.r.r.r.&.<.&.&.&.&.&.&.&.&.&.<.,.V 3 4 4 8 4 4 4 8 8 8 8 8 4 4 8 8 u 8 p 8 r.r.r.r.r.r.r.",
"r.r.r.r.r.r.r.=.;.&.<.3.3.5.5.5.5.3.5.5.B 4 8 4 8 4 4 4 4 4 4 4 4 4 4 y 4 4 4 a 4 r.r.r.r.r.r.r.",
"r.r.r.r.r.r.r.%.&.%.5.e.e.e.e.e.e.e.e.e.Z 2 2 y y 2 y t y t 4 y 4 t t 4 y t 4 y 4 r.r.r.r.r.r.r.",
"r.r.r.r.r.r.r.$.&.%.%.&.&.&.&.&.&.&.;.&.h 1 2 2 t t t t t t t t t t t t t t t y t r.r.r.r.r.r.r.",
"r.r.r.r.r.r.r.o.=.+.+.%.+.%.%.&.%.&.&.&.F < < < < < < < e r r e e t < < r r t t r.r.r.r.r.r.r.r.",
"r.r.r.r.r.r.r...%.o.%.:.;.;.<.<.<.<.<.2.>.{ [ [ [ [ [ f e e e e > f ] ^ r.r.r.r.r.r.r.r.r.r.r.r.",
"r.r.r.r.r.r.r...+.X.,.e.e.e.e.e.e.e.e.e.e.e.e.e.e.e.e.Z q e e w > M =.$.r.r.r.r.r.r.r.r.r.r.r.r.",
"r.r.r.r.r.r.r...O.X.o.$.+.+.$.$.%.%.%.%.&.%.%.&.&.%.%.l 0 q q q ; M $.X.r.r.r.r.r.r.r.r.r.r.r.r.",
"r.r.r.r.r.r.r.r.X.' { ....X.X.X.X.X.o.o.o.o.o.o.o.o.+.j * 0 0 0 - k $.X.r.r.r.r.r.r.r.r.r.r.r.r.",
"r.r.r.r.r.r.r.r.X.o.....X.X.X.X.X.+.+.+.+.%.+.+.$.+.$.d * 0 = = X k $.r.r.r.r.r.r.r.r.r.r.r.r.r.",
"r.r.r.r.r.r.r.r.r._ ' ` ` ' ................X.....X.o.s @ @ @ @ X s r.r.r.r.r.r.r.r.r.r.r.r.r.r.",
"r.r.r.r.r.r.r.r.r.r.r.r.r.r.r.r.r.r.r.r.r.r.r.r.r.r.r.O @ @ @ + + o r.r.r.r.r.r.r.r.r.r.r.r.r.r.",
"r.r.r.r.r.r.r.r.r.r.r.r.r.r.r.r.r.r.r.r.r.r.r.r.r.r.r.r.  . . . r.r.r.r.r.r.r.r.r.r.r.r.r.r.r.r.",
"r.r.r.r.r.r.r.r.r.r.r.r.r.r.r.r.r.r.r.r.r.r.r.r.r.r.r.r.r.r.r.r.r.r.r.r.r.r.r.r.r.r.r.r.r.r.r.r.",
"r.r.r.r.r.r.r.r.r.r.r.r.r.r.r.r.r.r.r.r.r.r.r.r.r.r.r.r.r.r.r.r.r.r.r.r.r.r.r.r.r.r.r.r.r.r.r.r.",
"r.r.r.r.r.r.r.r.r.r.r.r.r.r.r.r.r.r.r.r.r.r.r.r.r.r.r.r.r.r.r.r.r.r.r.r.r.r.r.r.r.r.r.r.r.r.r.r.",
"r.r.r.r.r.r.r.r.r.r.r.r.r.r.r.r.r.r.r.r.r.r.r.r.r.r.r.r.r.r.r.r.r.r.r.r.r.r.r.r.r.r.r.r.r.r.r.r.",
"r.r.r.r.r.r.r.r.r.r.r.r.r.r.r.r.r.r.r.r.r.r.r.r.r.r.r.r.r.r.r.r.r.r.r.r.r.r.r.r.r.r.r.r.r.r.r.r."
};
