/* XPM */
static const char *news[] = {
/* columns rows colors chars-per-pixel */
"48 48 27 1 ",
"  c #7F8C8D",
". c #849192",
"X c #8C9799",
"o c #8E9A9B",
"O c #949EA0",
"+ c #95A5A6",
"@ c #96A6A7",
"# c #98A7A8",
"$ c #9AA9AA",
"% c #9DAAAC",
"& c #9DABAC",
"* c #9FACAF",
"= c #A5AEB1",
"- c #A6B2B4",
"; c #A8B1B4",
": c #ABB3B7",
"> c #ADB5B8",
", c #AFB9BC",
"< c #B3BBBF",
"1 c #B7BEC2",
"2 c #B8BEC2",
"3 c #B9C0C4",
"4 c #BAC1C4",
"5 c #BBC1C5",
"6 c #BCC2C6",
"7 c #BDC3C7",
"8 c None",
/* pixels */
"888888888888888888888888888888888888888888888888",
"888888888888888888888888888888888888888888888888",
"888888888888888888888888888888888888888888888888",
"888888888888888888888888888888888888888888888888",
"777777777777777777777777777777777777776677777788",
"777777777777777777777777777777777777776677777788",
"777777777777777777777777777777777777776677777788",
"777777777777777777777777777777777777776<77777788",
"7777  ;777  77        77  7777  776=X..   777788",
"7777  .277  77        77  7777  77=.  .. .777788",
"7777   O77  77  77777777  7>>7  66. =77777777788",
"7777    ;7  77  77777777  7oo7  66X.=77777777788",
"7777  O .2  77      7777  >  >  77=.  .X*2777788",
"7777  2. O  77      7777  o  o  776=X  ..*777788",
"7777  7;    77  77777777   oo   7777267;.X777788",
"7777  77O   77  77777777   >>   7777666=.X777788",
"7777  772.  77        77  o77o  77.      *777788",
"7777  777;  77        77  >77>  77     X*7777788",
"777777777777777777777777777777777777777777777788",
"777777777777777777777777777777777777777777777788",
"777777777777777777777777777777777777777777777788",
"777777777777777777777777777777777777777777777788",
"7777++++++++++++++++++77++++++++++++++++@+7777++",
"7777++++++++++++++++++77++++++++++++++++@@7777++",
"7777++++++++++++++++++777777777777777777777777++",
"7777++++++++++++++++++777777777777777777777777++",
"7777++++++++++++++++++77++++++++++++++++++7777++",
"7777++++++++++++++++++77++++++++++++++++++7777++",
"7777++++++++++++++++++777777777777777777777777++",
"7777++++++++++++++++++777777777777777777777777++",
"7777++++++++++++++++++77++++++++++++++++++7777++",
"7777++++++++++++++++++77++++++++++++++++++7777++",
"7777++++++++++++++++++777777777777777777777777++",
"7777++++++++++++++++++777777777777777777777777++",
"7777++++++++++++++++++77++++++++++++++++++7777++",
"7777++++++++++++++++++77++++++++++++++++++7777++",
"7777777777777777777777777777777777777777777777++",
"7777777777777777777777777777777777777777777777++",
"7777++++++++++++++++++77++++++++++++++++++7777++",
"7777++++++++++++++++++77++++++++++++++++++7777++",
"7777777777777777777777777777777777777777777777++",
",777777777777777777777777777777777777777777777++",
"$777777777777777777777777777777777777777777771++",
"$#>7777777777777777777777777777777777777777<-++8",
"8$#+++++++++++++++++++++++++++++++++++++++++++88",
"88*#++++++++++++++++++++++++++++++++++++++$$8888",
"888888888888888888888888888888888888888888888888",
"888888888888888888888888888888888888888888888888"
};
