/* XPM */
const static char *open[] = {
/* columns rows colors chars-per-pixel */
"48 48 120 2 ",
"   c #997B38",
".  c #AB843A",
"X  c #AE893E",
"o  c #B28C3F",
"O  c #BF943D",
"+  c #C0953D",
"@  c #B68F41",
"#  c #B69143",
"$  c #BB9444",
"%  c #C29741",
"&  c #C39B46",
"*  c #CA9E46",
"=  c #C69E4A",
"-  c #CA9F48",
";  c #D09E40",
":  c #C49E51",
">  c #CDA147",
",  c #CCA34A",
"<  c #D2A345",
"1  c #DAA241",
"2  c #DEAA47",
"3  c #D3A548",
"4  c #D9A74A",
"5  c #D6AA4B",
"6  c #DBAB49",
"7  c #DDB44F",
"8  c #CAA456",
"9  c #CFA855",
"0  c #D4AA57",
"q  c #D9AE58",
"w  c #DCB453",
"e  c #D6B058",
"r  c #DDB35A",
"t  c #DFB85B",
"y  c #E1AE49",
"u  c #E4B34C",
"i  c #E8B74E",
"p  c #E7B84E",
"a  c #E9BA4E",
"s  c #E6B750",
"d  c #E2BB53",
"f  c #ECBD51",
"g  c #E1B55B",
"h  c #E3BC5D",
"j  c #EABF5C",
"k  c #D1AE63",
"l  c #CEB96A",
"z  c #D5B163",
"x  c #DBB463",
"c  c #D9B975",
"v  c #E4BB64",
"b  c #E8BE68",
"n  c #EEC152",
"m  c #E4C25C",
"M  c #EFC35E",
"N  c #F2C554",
"B  c #F5CA56",
"V  c #F1C55F",
"C  c #F7CD5A",
"Z  c #F8CE5B",
"A  c #F7D05E",
"S  c #F8D15E",
"D  c #E5C464",
"F  c #EAC561",
"G  c #E7C966",
"H  c #EECA65",
"J  c #E5C66A",
"K  c #ECC36B",
"L  c #E6CA6C",
"P  c #EEC86D",
"I  c #F5CC63",
"U  c #F1CB6F",
"Y  c #F7D263",
"T  c #F9D465",
"R  c #FFDA66",
"E  c #F8D66A",
"W  c #F9D96E",
"Q  c #EBCE73",
"!  c #E9D174",
"~  c #E6D078",
"^  c #F6D473",
"/  c #F8D773",
"(  c #F8DB73",
")  c #F5D978",
"_  c #F9DE7A",
"`  c #FFE174",
"'  c #FAE17E",
"]  c #72BFF2",
"[  c #D4BD85",
"{  c #DDC289",
"}  c #F3DC82",
"|  c #F6E285",
" . c #FAE383",
".. c #FFEB85",
"X. c #FBE68A",
"o. c #FBE98D",
"O. c #FDE694",
"+. c #FCEB93",
"@. c #FCED9A",
"#. c #FDF396",
"$. c #FEF29C",
"%. c #FEEEA3",
"&. c #FFE4AB",
"*. c #FEF3A2",
"=. c #FFFBA5",
"-. c #FFF2AC",
";. c #FFF8AA",
":. c #FFF6B5",
">. c #FFFDB6",
",. c #FFFCB9",
"<. c #9FD3EF",
"1. c #C1D7CC",
"2. c #D4DCC3",
"3. c #FAEECE",
"4. c #FFF1CF",
"5. c #F7EBD0",
"6. c #FFF2D2",
"7. c #EEF8FD",
"8. c #FFFFFE",
"9. c None",
/* pixels */
"9.9.9.9.9.9.9.9.9.9.9.9.9.9.9.9.9.9.9.9.9.9.9.9.9.9.9.9.9.9.9.9.9.9.9.9.9.9.9.9.9.9.9.9.9.9.9.9.",
"9.9.9.9.9.9.9.9.9.9.9.9.9.9.9.9.9.9.9.9.9.9.9.9.9.9.9.9.9.9.9.9.9.9.9.9.9.9.9.9.9.9.9.9.9.9.9.9.",
"9.9.9.9.9.9.9.9.9.9.9.9.9.9.9.9.9.9.9.9.9.9.9.9.9.9.9.9.9.9.9.9.9.9.9.9.9.9.9.9.9.9.9.9.9.9.9.9.",
"9.9.9.9.9.9.9.9.9.9.9.9.9.9.9.9.9.9.9.9.9.9.9.9.9.9.9.9.9.9.9.9.9.9.9.9.9.9.9.9.9.9.9.9.9.9.9.9.",
"9.9.9.9.9.9.9.9.9.9.9.9.9.9.9.9.9.9.9.9.9.9.9.9.9.9.9.9.9.9.9.9.9.9.9.9.9.9.9.9.9.9.9.9.9.9.9.9.",
"9.9.9.9.9.9.9.9.9.9.9.9.9.9.9.9.9.9.9.9.9.9.9.9.9.9.9.9.9.9.9.9.9.9.9.9.9.9.9.9.9.9.9.9.9.9.9.9.",
"9.9.9.9.9.9.9.9.9.9.9.9.9.9.9.9.9.9.9.9.9.9.9.9.9.9.9.9.9.9.9.9.9.9.9.9.9.9.9.9.9.9.9.9.9.9.9.9.",
"9.9.9.9.9.9.9.9.9.9.9.9.9.9.9.9.9.9.9.9.9.9.9.9.9.9.9.9.9.9.9.9.9.9.9.9.9.9.9.9.9.9.9.9.9.9.9.9.",
"9.9.9.9.9.9.9.9.9.9.9.9.9.9.9.9.9.9.9.9.9.9.9.9.9.9.9.9.9.9.9.9.9.9.9.9.9.9.9.9.9.9.9.9.9.9.9.9.",
"9.9.9.9.9.9.9.9.9.9.9.9.9.9.9.9.9.9.9.9.9.9.9.9.9.9.9.9.9.9.9.9.9.9.9.9.9.9.9.9.9.9.9.9.9.9.9.9.",
"9.9.9.9.9.9.9.9.9.9.9.9.9.9.9.9.9.9.9.9.9.9.9.9.9.9.9.< < < < + + ; y ; 9.9.9.9.9.9.9.9.9.9.9.9.",
"9.9.9.9.9.9.9.9.9.9.9.9.9.9.9.9.9.9.9.9.9.9.9.9.9.9.u &.4.4.4.4.3.3.1.2.j 9.9.9.9.9.9.9.9.9.9.9.",
"9.9.9.9.9.9.9.9.9.9.9.9.9.9.9.9.9.9.9.9.9.9.9.9.9.9.6 3.8.8.8.8.8.7.] <.v 9.9.9.9.9.9.9.9.9.9.9.",
"9.9.9.9.9.9.9.9.9.9.9.< 6 6 6 < < < 4 4 < < < > < * > c { { { { { [ [ [ < & 9.9.9.9.9.9.9.9.9.9.",
"9.9.9.9.9.9.9.9.9.9.< 4 < < < > > > > > * > = > > = & + + + O O O O O O = = & 9.9.9.9.9.9.9.9.9.",
"9.9.9.9.9.9.9.| } } Q Q L L L v D D x v h r < $ $ & & $ $ $ $ $ $ $ $ $ $ $ & o 9.9.9.9.9.9.9.9.",
"9.9.9.9.9._ $.>.,.,.:.-.-.%.%.@.+.O.X.X.}  ./ < # $ @ $ @ @ # @ @ # # # # # $ @ 9.9.9.9.9.9.9.9.",
"9.9.9.9.9.#.,.-.*.-.*.%.@.O.X.X. ._ _ ) ( ( _ I = @ o o @ @ @ @ o o X X X X o   9.9.9.9.9.9.9.9.",
"9.9.9.9.9.#.-.#.*.*.*.+.o.X. .' ' / / W E Y E _ / H H H v h r t g r r q 0 9 9 9 : $ 9.9.9.9.9.9.",
"9.9.9.9.9.@.=.*.*.#.#.+.+.X. .' ' / / W E E I Y / _ / U / U P Q K K v v v x k k k z = 9.9.9.9.9.",
"9.9.9.9.9.X.*.*.%.*.@.+.+.X. .' ' ( ( E E E Y A Z B B N n f f a u u u y y 4 * * & : 9 X 9.9.9.9.",
"9.9.9.9.9.9.=.*.*.*.@.+.o.X.| ' ' ( ( E E Y Y A Z B B N N f f a a u u y 2 < > = & & & 9.9.9.9.9.",
"9.9.9.9.9.9.#.*.*.*.@.+.X.X.| ' ( ( ( E E Y Y A Z Z B N N n f a a u u y 2 < > * $ & & 9.9.9.9.9.",
"9.9.9.9.9.9.O.=.*.#.@.+.o. . ._ / ` ( E E Y Y A Z B B N n f f a u u u 6 6 < > & & = $ 9.9.9.9.9.",
"9.9.9.9.9.9.| =.*.*.@.+.X.| ' _ ` ( ( E E Y A A Z B B n n n a a u u u y 4 < * = & = o 9.9.9.9.9.",
"9.9.9.9.9.9.9.=.%.#.+.+.o. .' _ ( ( E E T Y A A Z B B n n n a a u u y y 6 > & = & & 9.9.9.9.9.9.",
"9.9.9.9.9.9.9.#.*.#.+.X.X. .' _ _ ( ( E T Y A A Z B B B n f a i u u y 6 < < , = & $ 9.9.9.9.9.9.",
"9.9.9.9.9.9.9.+.=.@.@.+.X. .' _ ( E E E T Y A C B B B n n f a a u u y 6 < < = $ & $ 9.9.9.9.9.9.",
"9.9.9.9.9.9.9.X.;.#.+.o.| ' ' ' ( ( E E T Y A A B B B N n a a a u u y 4 < > & & > o 9.9.9.9.9.9.",
"9.9.9.9.9.9.9.9.;.#.+.o.X.| _ ( ( ( E E T S A A B B N n n a a i u u y 6 < > * & & 9.9.9.9.9.9.9.",
"9.9.9.9.9.9.9.9.#.#.o.o.X.' ' ( ( ( E E T S Z Z Z B n n n a a i y y 6 5 < > & & $ 9.9.9.9.9.9.9.",
"9.9.9.9.9.9.9.9.#.#.+.o.| ' ' ( ( E E E T S Z Z B N n n n a a u s u y 6 > > & & $ 9.9.9.9.9.9.9.",
"9.9.9.9.9.9.9.9.o.#.+.X. . ._ / W W W Y Y Y S Z Z N N N f a a u u y 2 < < * & , @ 9.9.9.9.9.9.9.",
"9.9.9.9.9.9.9.9.} #.o.X. .' _ ` W W W Y Y S Z Z N N N n f a a u u y 2 4 > & & = 9.9.9.9.9.9.9.9.",
"9.9.9.9.9.9.9.9.9.#.+.o.X.' ' ( / W W W Y S S S Z B N N n f s a s y 7 5 4 8 > & 9.9.9.9.9.9.9.9.",
"9.9.9.9.9.9.9.9.9.X.#.+.....X.' ' ' ` ` ` ` W T T T Y S I I I I V V j h t e e $ 9.9.9.9.9.9.9.9.",
"9.9.9.9.9.9.9.9.9.9.l ~ ! ! L L G D G m m m m m a 7 7 7 7 5 5 5 < > = = & @   9.9.9.9.9.9.9.9.9.",
"9.9.9.9.9.9.9.9.9.9.9.9.9.9.9.9.9.9.9.9.9.9.9.9.9.9.9.9.9.9.9.9.9.9.9.9.9.9.9.9.9.9.9.9.9.9.9.9.",
"9.9.9.9.9.9.9.9.9.9.9.9.9.9.9.9.9.9.9.9.9.9.9.9.9.9.9.9.9.9.9.9.9.9.9.9.9.9.9.9.9.9.9.9.9.9.9.9.",
"9.9.9.9.9.9.9.9.9.9.9.9.9.9.9.9.9.9.9.9.9.9.9.9.9.9.9.9.9.9.9.9.9.9.9.9.9.9.9.9.9.9.9.9.9.9.9.9.",
"9.9.9.9.9.9.9.9.9.9.9.9.9.9.9.9.9.9.9.9.9.9.9.9.9.9.9.9.9.9.9.9.9.9.9.9.9.9.9.9.9.9.9.9.9.9.9.9.",
"9.9.9.9.9.9.9.9.9.9.9.9.9.9.9.9.9.9.9.9.9.9.9.9.9.9.9.9.9.9.9.9.9.9.9.9.9.9.9.9.9.9.9.9.9.9.9.9.",
"9.9.9.9.9.9.9.9.9.9.9.9.9.9.9.9.9.9.9.9.9.9.9.9.9.9.9.9.9.9.9.9.9.9.9.9.9.9.9.9.9.9.9.9.9.9.9.9.",
"9.9.9.9.9.9.9.9.9.9.9.9.9.9.9.9.9.9.9.9.9.9.9.9.9.9.9.9.9.9.9.9.9.9.9.9.9.9.9.9.9.9.9.9.9.9.9.9.",
"9.9.9.9.9.9.9.9.9.9.9.9.9.9.9.9.9.9.9.9.9.9.9.9.9.9.9.9.9.9.9.9.9.9.9.9.9.9.9.9.9.9.9.9.9.9.9.9.",
"9.9.9.9.9.9.9.9.9.9.9.9.9.9.9.9.9.9.9.9.9.9.9.9.9.9.9.9.9.9.9.9.9.9.9.9.9.9.9.9.9.9.9.9.9.9.9.9.",
"9.9.9.9.9.9.9.9.9.9.9.9.9.9.9.9.9.9.9.9.9.9.9.9.9.9.9.9.9.9.9.9.9.9.9.9.9.9.9.9.9.9.9.9.9.9.9.9.",
"9.9.9.9.9.9.9.9.9.9.9.9.9.9.9.9.9.9.9.9.9.9.9.9.9.9.9.9.9.9.9.9.9.9.9.9.9.9.9.9.9.9.9.9.9.9.9.9."
};
