/* XPM */
static char *paperclip[] = {
/* columns rows colors chars-per-pixel */
"48 48 13 1 ",
"  c #94A5A5",
". c #95A5A5",
"X c #96A5A5",
"o c #94A4A6",
"O c #95A4A6",
"+ c #94A5A6",
"@ c #95A5A6",
"# c #94A5A7",
"$ c #95A5A7",
"% c #96A5A7",
"& c #94A6A6",
"* c #95A6A6",
"= c None",
/* pixels */
"================================================",
"================================================",
"================================================",
"================================================",
"=================================++%+%+=========",
"================================%+%+%+%%========",
"==============================+++%+%+%%++%======",
"=============================+++%+%+%++%%+======",
"============================+%+%+%====%++%+=====",
"===========================%%+%+%======+%+%%====",
"==========================%+%++%========+%%+====",
"=========================++%+%+=========%++%====",
"========================+%+%%%==========+%+%====",
"=======================%%+%++===========%+%+====",
"======================+%+%+%===========%+%++====",
"=====================+%+%+%===+=======%+%+%=====",
"====================+%+%+%===+%+=====+%+%%======",
"===================+%+%++===+%+%%===+%+%++======",
"==================%++%+%===%+%%+===%%+%++=======",
"=================%+%%+%===%+%+%===+++%+%========",
"================+%%+%+===+%+++===%+%+%%=========",
"===============%%++%%===%%+%%===+%%+%+==========",
"==============+%+%++===++%%+===%%+%++===========",
"=============+%+%+%===+%%++===%++%+%============",
"============%++%%+===%+%+%===+%+%+%===%+========",
"===========++%%++===++%++===+%+%+%===++%+=======",
"==========%+%+%%===%%++%===%%+%++===%+%+%=======",
"=========%+%+%+===+%+%%===%++%+%===%+%+%========",
"=========+%++%===+%+%+===%+%%+%===%+%++=========",
"========%++%%====%+%+===++%++%===++%+%==========",
"=======++%+%=====+%+%==+%++%%===+%+%%===========",
"=======+%+%+=====%+%+%+%+%%+===+%+%+============",
"=======%+%%======%+%+%+%+%+===%+%+%=============",
"=======+%++=======%+%+%+%+===++%+%==============",
"=======%+%+========++%+%+===+%+%+===============",
"=======+%+%================%%+%+================",
"=======%%+%===============+%+%%=================",
"=======++%+==============%%+%+==================",
"=======%%+%+============+%+%+===================",
"========+%+%+==========%%+%+====================",
"=========%%+%+=======+%++%%=====================",
"=========++%+%+%%=+%+%+%%+======================",
"==========%+%+%+%+%+%+%++=======================",
"===========++%+%+%+%+%+%========================",
"=============%%+%+%++%==========================",
"=================+==============================",
"================================================",
"================================================"
};
