/* XPM */
static const char *pencil[] = {
/* columns rows colors chars-per-pixel */
"48 48 63 1 ",
"  c #2C3E50",
". c #304357",
"X c #304457",
"o c #34495E",
"O c #586776",
"+ c #596977",
"@ c #5B6A78",
"# c #D35400",
"$ c #D55B08",
"% c #D55E0B",
"& c #D55E0C",
"* c #D56414",
"= c #D56415",
"- c #DC6911",
"; c #D5681B",
": c #D66F26",
"> c #DD7728",
", c #DC7E34",
"< c #E67E22",
"1 c #E78C3B",
"2 c #E78C3C",
"3 c #E78D3C",
"4 c #E88D3C",
"5 c #E79247",
"6 c #E79E5E",
"7 c #E89C58",
"8 c #E9A66A",
"9 c #7F8B8D",
"0 c #7F8C8D",
"q c #808C8D",
"w c #808C8E",
"e c #869294",
"r c #8A999A",
"t c #8D9B9D",
"y c #8F9E9F",
"u c #8E9FA0",
"i c #909FA0",
"p c #90A0A1",
"a c #92A1A2",
"s c #93A3A4",
"d c #95A5A6",
"f c #97A3AD",
"g c #98A4AE",
"h c #9AA6B0",
"j c #C1B5AA",
"k c #C1B5AB",
"l c #C1B6AC",
"z c #C0BCBA",
"x c #C0BDBB",
"c c #BBC2C6",
"v c #BDC3C7",
"b c #C0C6C9",
"n c #C2C8CC",
"m c #C3C9CC",
"M c #CCD3D6",
"N c #D4D9DC",
"B c #DCE1E2",
"V c #DDE3E4",
"C c #ECE7E0",
"Z c #ECECE9",
"A c #ECF0F1",
"S c #EDF0F1",
"D c None",
/* pixels */
"DDDDDDDDDDDDDDDDDDDDDDDDDDDDDDDDDDDDDDDDDDDDDDDD",
"DDDDDDDDDDDDDDDDDDDDDDDDDDDDDDDDDDDDDDDDDDDDDDDD",
"DDDDDDDDDDDDDDDDDDDDDDDDDDDDDDDDDDDDDDDDDDDDDDDD",
"DDDDDDDDDDDDDDDDDDDDDDDDDDDDDDDDDDDDDDDDDDDDDDDD",
"DDDDDDDDDDDDDDDDDDDDDDDDDDDDDDDDDDDttsssDDDDDDDD",
"DDDDDDDDDDDDDDDDDDDDDDDDDDDDDDDDDDddddsdduDDDDDD",
"DDDDDDDDDDDDDDDDDDDDDDDDDDDDDDDDDddddddddt0DDDDD",
"DDDDDDDDDDDDDDDDDDDDDDDDDDDDDDDDsdddddddt00DDDDD",
"DDDDDDDDDDDDDDDDDDDDDDDDDDDDDDDBsddddddr000wDDDD",
"DDDDDDDDDDDDDDDDDDDDDDDDDDDDDDAABdddddr0000wDDDD",
"DDDDDDDDDDDDDDDDDDDDDDDDDDDDD6CAAVdddr0000wwDDDD",
"DDDDDDDDDDDDDDDDDDDDDDDDDDDD4<5CAZBdr00000wwDDDD",
"DDDDDDDDDDDDDDDDDDDDDDDDDDD4<<<5CZZMe000000DDDDD",
"DDDDDDDDDDDDDDDDDDDDDDDDDD4<<<<<5CNvve0000wDDDDD",
"DDDDDDDDDDDDDDDDDDDDDDDDD3<<<<<<1;lvvve00wDDDDDD",
"DDDDDDDDDDDDDDDDDDDDDDDD3<<<<<<<-#%jvvvewDDDDDDD",
"DDDDDDDDDDDDDDDDDDDDDDD3<<<<<<<-###$lvvvDDDDDDDD",
"DDDDDDDDDDDDDDDDDDDDDD3<<<<<<<-#####$lmDDDDDDDDD",
"DDDDDDDDDDDDDDDDDDDDD3<<<<<<<-#######;DDDDDDDDDD",
"DDDDDDDDDDDDDDDDDDDD3<<<<<<<-#######$DDDDDDDDDDD",
"DDDDDDDDDDDDDDDDDDD3<<<<<<<-#######$DDDDDDDDDDDD",
"DDDDDDDDDDDDDDDDDD3<<<<<<<-#######$DDDDDDDDDDDDD",
"DDDDDDDDDDDDDDDDD3<<<<<<<-#######$DDDDDDDDDDDDDD",
"DDDDDDDDDDDDDDDD3<<<<<<<-#######$DDDDDDDDDDDDDDD",
"DDDDDDDDDDDDDDD3<<<<<<<-#######$DDDDDDDDDDDDDDDD",
"DDDDDDDDDDDDDD3<<<<<<<-#######$DDDDDDDDDDDDDDDDD",
"DDDDDDDDDDDDD3<<<<<<<-#######$DDDDDDDDDDDDDDDDDD",
"DDDDDDDDDDDD3<<<<<<<-#######$DDDDDDDDDDDDDDDDDDD",
"DDDDDDDDDDD3<<<<<<<-#######$DDDDDDDDDDDDDDDDDDDD",
"DDDDDDDDDD3<<<<<<<-#######$DDDDDDDDDDDDDDDDDDDDD",
"DDDDDDDDD3<<<<<<<-#######$DDDDDDDDDDDDDDDDDDDDDD",
"DDDDDDDD3<<<<<<<-#######$DDDDDDDDDDDDDDDDDDDDDDD",
"DDDDDDD4<<<<<<<-#######$DDDDDDDDDDDDDDDDDDDDDDDD",
"DDDDDD8<<<<<<<-#######$DDDDDDDDDDDDDDDDDDDDDDDDD",
"DDDDDAZ7<<<<<-#######$DDDDDDDDDDDDDDDDDDDDDDDDDD",
"DDDDAAAZ7<<<-#######$DDDDDDDDDDDDDDDDDDDDDDDDDDD",
"DDDDAAAAZ7<-#######$DDDDDDDDDDDDDDDDDDDDDDDDDDDD",
"DDDDAAAAAZ,#######$DDDDDDDDDDDDDDDDDDDDDDDDDDDDD",
"DDDDfAAAANx=#####$DDDDDDDDDDDDDDDDDDDDDDDDDDDDDD",
"DDDDogAANvvx=###$DDDDDDDDDDDDDDDDDDDDDDDDDDDDDDD",
"DDDDoohNvvvvx=#$DDDDDDDDDDDDDDDDDDDDDDDDDDDDDDDD",
"DDDDooX@vvvvvx:DDDDDDDDDDDDDDDDDDDDDDDDDDDDDDDDD",
"DDDDoX  +vvvvmDDDDDDDDDDDDDDDDDDDDDDDDDDDDDDDDDD",
"DDDDX    OvvmDDDDDDDDDDDDDDDDDDDDDDDDDDDDDDDDDDD",
"DDDDDDDDDDDDDDDDDDDDDDDDDDDDDDDDDDDDDDDDDDDDDDDD",
"DDDDDDDDDDDDDDDDDDDDDDDDDDDDDDDDDDDDDDDDDDDDDDDD",
"DDDDDDDDDDDDDDDDDDDDDDDDDDDDDDDDDDDDDDDDDDDDDDDD",
"DDDDDDDDDDDDDDDDDDDDDDDDDDDDDDDDDDDDDDDDDDDDDDDD"
};
