/* XPM */
const static char *process[] = {
/* columns rows colors chars-per-pixel */
"48 48 47 1 ",
"  c gray23",
". c #494846",
"X c #4E4C4C",
"o c #5B5857",
"O c #5B5958",
"+ c #615F5F",
"@ c #61605E",
"# c #656362",
"$ c #696666",
"% c #6A6867",
"& c #6D6B6A",
"* c #716F6E",
"= c #72706F",
"- c #747272",
"; c #787675",
": c #7A7877",
"> c #7C7B7A",
", c #817E7E",
"< c #83807F",
"1 c #817F80",
"2 c #858382",
"3 c #898786",
"4 c #898887",
"5 c #8C8A8A",
"6 c #908E8E",
"7 c #91908F",
"8 c #949392",
"9 c #989696",
"0 c #999897",
"q c #9D9B9B",
"w c #A09E9E",
"e c #A19FA0",
"r c #A5A3A3",
"t c #A8A7A7",
"y c #A9A8A7",
"u c #ACABAB",
"i c #B0AFAE",
"p c #B1B0AF",
"a c #B4B3B3",
"s c #B8B7B7",
"d c #BCBBBB",
"f c #C0BEBE",
"g c #C4C3C3",
"h c #C8C6C6",
"j c #CCCBCB",
"k c #D2D1D1",
"l c None",
/* pixels */
"llllllllllllllllllllllllllllllllllllllllllllllll",
"llllllllllllllllllllllllllllllllllllllllllllllll",
"llllllllllllllllllllllllllllllllllllllllllllllll",
"llllllllllllllllllllllljllllllllllllllllllllllll",
"lllllllllllllllllllllljkkhllllllllllllllllllllll",
"lllllllllllllllllllllhjddgllllllllllllllllllllll",
"llllllllllllllhjjllllfgdddllllgjjhllllllllllllll",
"lllllllllllllgfsfglllddsagdlllfdshglllllllllllll",
"llllllllllllldasssgfgspsaadgfdsssddlllllllllllll",
"llllllllllllladspssdsusssssddsusssllllllllllllll",
"llllllllllllllapiippippiupppiiiissllllllllllllll",
"llllllllllllllpiuuuiuuuuuuuuuiuuusllllllllllllll",
"lllllllldgflaauyyyyuuututuuuuuuytpslddhdllllllll",
"lllllllsstpfgiryyttttuttruryrtyrttsgduudalllllll",
"llllllltrrrrettrrrrteqqllrqerrrryterrrruilllllll",
"lllllllrureeeeeeeeeqllllllllqrrreeewrrrurlllllll",
"llllllllrwwwwweqeqqlllllllllleeqwwwwwwrwllllllll",
"lllllllllqwwqqqqeellllllllllllqr0ww0wwwlllllllll",
"lllllllllww0q0qqellllllllllllllqw0000wllllllllll",
"lllllllll00000qqlllllllllllllllrw0008w0lllllllll",
"llllll878088888qllllllllllllllllw870880088llllll",
"lllll0008887880qllllllllllllllllw77786888q0lllll",
"lllll066665656qqllllllllllllllll00666676688lllll",
"lllll6665555558ellllllllllllllll06555555586lllll",
"lllll5855555557qllllllllllllllllq555525576llllll",
"lllllllll422225qllllllllllllllleq222254lllllllll",
"lllllllll3522228rllllllllllllllq522225llllllllll",
"lllllllll22222,2qllllllllllllll82<2222llllllllll",
"lllllllll2>>>2>>2qllllllllllllq<>>,>>,2lllllllll",
"lllllll,<>>>>>>>>5qlllllllllr02>>>>>>>,2llllllll",
"lllllll;>>>:>>::>;28elllllrq7>;>>>;>>>>>>lllllll",
"lllllll;;;;::;;;;;;>2588875>;;;;;;;;;;;>>lllllll",
"lllllll;>>;;=;=;;;=;=;;>;;==;;=;;;==;;;;llllllll",
"llllllll*;lll;;**;==;&==;=;=*;*=*;llll;lllllllll",
"llllllllllllll&=****&=====&==**&;;llllllllllllll",
"llllllllllllll*&&&**&&&&&&&*=&&&&=llllllllllllll",
"lllllllllllll&&&&&*&&&&%&&&&&&&&&*&lllllllllllll",
"lllllllllllll&&&%%lll%%%$&&ll&&%$&&lllllllllllll",
"lllllllllllll#&%&%lll%&%#$llll&&&&llllllllllllll",
"llllllllllllll#+@llll@%@##lllll+#lllllllllllllll",
"lllllllllllllllllllllX###+llllllllllllllllllllll",
"llllllllllllllllllllllXOO llllllllllllllllllllll",
"llllllllllllllllllllllllllllllllllllllllllllllll",
"llllllllllllllllllllllllllllllllllllllllllllllll",
"llllllllllllllllllllllllllllllllllllllllllllllll",
"llllllllllllllllllllllllllllllllllllllllllllllll",
"llllllllllllllllllllllllllllllllllllllllllllllll",
"llllllllllllllllllllllllllllllllllllllllllllllll"
};
