/* XPM */
static char *rss[] = {
/* columns rows colors chars-per-pixel */
"48 48 158 2 ",
"   c #D35400",
".  c #D35501",
"X  c #D45501",
"o  c #D45602",
"O  c #D45703",
"+  c #D55703",
"@  c #D35604",
"#  c #D35705",
"$  c #D55803",
"%  c #D55804",
"&  c #D55904",
"*  c #D55A04",
"=  c #D65A05",
"-  c #D75C06",
";  c #D75C07",
":  c #D75D07",
">  c #D45A09",
",  c #D45B0A",
"<  c #D45B0B",
"1  c #D85F09",
"2  c #D86009",
"3  c #D9600A",
"4  c #D9610A",
"5  c #D9610B",
"6  c #D9620B",
"7  c #DA640D",
"8  c #DC670F",
"9  c #D56013",
"0  c #D56317",
"q  c #D96613",
"w  c #DC6911",
"e  c #DD6911",
"r  c #DF6E15",
"t  c #DF6F16",
"y  c #D7671A",
"u  c #D6661B",
"i  c #D6671D",
"p  c #DF7016",
"a  c #DE711B",
"s  c #E07117",
"d  c #E17319",
"f  c #E1741A",
"g  c #E2761B",
"h  c #E3771C",
"j  c #E3781D",
"k  c #E4791E",
"l  c #E47A1F",
"z  c #E57B1F",
"x  c #D76B24",
"c  c #D76C25",
"v  c #D76E28",
"b  c #D8732F",
"n  c #DC752C",
"m  c #DF7D32",
"M  c #D9793A",
"N  c #D97B3C",
"B  c #E27923",
"V  c #E57C20",
"C  c #E57C21",
"Z  c #E57D21",
"A  c #E67D21",
"S  c #E67E22",
"D  c #E77F22",
"F  c #E67F24",
"G  c #DA7E41",
"H  c #E68025",
"J  c #E6822A",
"K  c #E6832C",
"L  c #E6842D",
"P  c #E6852F",
"I  c #E68630",
"U  c #E68631",
"Y  c #E78935",
"T  c #E78E3E",
"R  c #DC8142",
"E  c #DB854C",
"W  c #DB864D",
"Q  c #DC8D58",
"!  c #DC8F5B",
"~  c #E79144",
"^  c #E79247",
"/  c #E7944B",
"(  c #E79A55",
")  c #E89F5E",
"_  c #DE9462",
"`  c #DFA177",
"'  c #E8A060",
"]  c #E8AA72",
"[  c #E8AB74",
"{  c #E8AB75",
"}  c #E8AC76",
"|  c #E9AF7A",
" . c #E9B07D",
".. c #E1A983",
"X. c #E6B186",
"o. c #E9B687",
"O. c #E9B88B",
"+. c #E9BA8F",
"@. c #E3B697",
"#. c #E8BA92",
"$. c #E9BD94",
"%. c #E9BD95",
"&. c #E3B798",
"*. c #E7BD9A",
"=. c #E4BDA3",
"-. c #E4BEA4",
";. c #EAC19C",
":. c #E7C2A4",
">. c #E4C0A6",
",. c #EAC3A0",
"<. c #E5C2A9",
"1. c #E5C2AA",
"2. c #E5C3AB",
"3. c #E5C4AC",
"4. c #E5C5AF",
"5. c #EAC8A9",
"6. c #E6C9B5",
"7. c #EACEB3",
"8. c #E7CEBD",
"9. c #E8CEB9",
"0. c #EAD1BB",
"q. c #EAD2BB",
"w. c #EBD4BE",
"e. c #E7D1C2",
"r. c #E7D2C3",
"t. c #E7D3C4",
"y. c #E7D3C5",
"u. c #EBD7C4",
"i. c #E9DBCF",
"p. c #EBDDCF",
"a. c #EBDED0",
"s. c #EBDFD2",
"d. c #E9DDD4",
"f. c #EBDFD4",
"g. c #E9DED6",
"h. c #EBE0D4",
"j. c #EBE1D5",
"k. c #EAE0D7",
"l. c #EAE1DA",
"z. c #EAE3DC",
"x. c #EAE3DD",
"c. c #EBE5DD",
"v. c #EAE4DE",
"b. c #EAE4DF",
"n. c #EBE7E0",
"m. c #EBE7E2",
"M. c #ECE7E1",
"N. c #ECE8E2",
"B. c #EBE9E6",
"V. c #ECEBE7",
"C. c #EBEAE8",
"Z. c #EBEBE9",
"A. c #ECECEA",
"S. c #ECECEB",
"D. c #ECEEEE",
"F. c #ECEFEF",
"G. c #ECF0F1",
"H. c None",
/* pixels */
"H.H.H.H.H.H.H.H.H.H.H.H.H.H.H.H.H.H.H.H.H.H.H.H.H.H.H.H.H.H.H.H.H.H.H.H.H.H.H.H.H.H.H.H.H.H.H.H.",
"H.H.H.H.H.H.H.H.H.H.H.H.H.H.H.H.H.H.H.H.H.H.H.H.H.H.H.H.H.H.H.H.H.H.H.H.H.H.H.H.H.H.H.H.H.H.H.H.",
"H.H.H.H.H.H.H.H.H.H.H.H.H.H.H.H.H.H.H.H.H.H.H.H.H.H.H.H.H.H.H.H.H.H.H.H.H.H.H.H.H.H.H.H.H.H.H.H.",
"H.H.H.H.H.H.H.H.H.H.H.H.H.H.H.H.H.H.H.H.H.H.H.H.H.H.H.H.H.H.H.H.H.H.H.H.H.H.H.H.H.H.H.H.H.H.H.H.",
"H.H.H.H.H.H.S S S S S S S S S S S S S S S S S S S S S S S S S S S S S S S S S S S S H.H.H.H.H.H.",
"H.H.H.H.H.S S S S S S S S S S S S S S S S S S S S S S S S S S S S S S S S S S S S S S H.H.H.H.H.",
"H.H.H.H.H S S S S S S S S S S S S S S S S S S S S S S S S S S S S S S S S S S S S S S H H.H.H.H.",
"H.H.H.H.S S S S S S S S S S S S S S S S S S S S S S S S S S S S S S S S S S S S S S S S H.H.H.H.",
"H.H.H.H.S S S S S S S S S S S S S S S S S S S S S S S S S S S S S S S S S S S S S S S S H.H.H.H.",
"H.H.H.H.S S S S S S S S S S S S S S S S S S S S S S S S S S S S S S S S S S S S S S S S H.H.H.H.",
"H.H.H.H.S S S S S S V.s.w.5.%.| ^ S S S S S S S S S S S S S S S S S S S S S S S S S S S H.H.H.H.",
"H.H.H.H.S S S S S S G.G.G.G.G.G.G.j.%.( H S S S S S S S S S S S S S S S S S S S S S S S H.H.H.H.",
"H.H.H.H.S S S S S S G.G.G.G.G.G.G.G.G.G.M.o.J S S S S S S S S S S S S S S S S S S S S S H.H.H.H.",
"H.H.H.H.S S S S S S G.G.G.G.G.G.G.G.G.G.G.G.l.} S S S S S S S S S S S S S S S S S S S S H.H.H.H.",
"H.H.H.H.S S S S S S 1.e.l.G.G.G.G.G.G.G.G.G.G.G.s.) S S S S S S S S S S S S S S S S S S H.H.H.H.",
"H.H.H.H.S S S S S S X X X X u ! >.V.G.G.G.G.G.G.G.G.%.S S S S S S S S S S S S S S S S S H.H.H.H.",
"H.H.H.H.S S S S S S 3 > X X X X X > E 1.G.G.G.G.G.G.G.7.I S S S S S S S S S S S S S S S H.H.H.H.",
"H.H.H.H.S S S S S S H S S S l w 3 X X X G e.G.G.G.G.G.G.s.T S S S S S S S S S S S S S S H.H.H.H.",
"H.H.H.H.S S S S S S S S S S S S S S a 2 X X ! l.G.G.G.G.Z.V.T S S S S S S S S S S S S S H.H.H.H.",
"H.H.H.H.S S S S S S ,.+.] ' I S S S S S d - X i e.G.G.G.G.G.s.J S S S S S S S S S S S S H.H.H.H.",
"H.H.H.H.S S S S S S G.G.G.G.Z.w.| Y S S S S p X > -.G.G.G.G.G.7.S S S S S S S S S S S S H.H.H.H.",
"H.H.H.H.S S S S S S G.G.G.G.G.G.G.Z.%.J S S S l > X ..G.G.G.G.G.+.S S S S S S S S S S S H.H.H.H.",
"H.H.H.H.S S S S S S G.G.G.G.G.G.G.G.G.M.] H S S S 3 X -.G.G.G.G.G.) S S S S S S S S S S H.H.H.H.",
"H.H.H.H.S S S S S S G.G.G.G.G.G.G.G.G.G.Z.;.H S S H w > e.G.G.G.G.s.H S S S S S S S S S H.H.H.H.",
"H.H.H.H.S S S S S S > c N ` e.G.G.G.G.G.G.G.w.J S S S 3 i l.G.G.G.G.] H S S S S S S S S H.H.H.H.",
"H.H.H.H.S S S S S S X X X X X c -.G.G.G.G.G.G.w.H S H l - Q G.G.G.G.l.J S S S S S S S S H.H.H.H.",
"H.H.H.H.S S S S S S S d a 8 - X X M s.G.G.G.G.G.;.S S S l - e.G.G.G.G.o.S S S S S S S S H.H.H.H.",
"H.H.H.H.S S S S S S S S S S S l > X 9 6.G.G.G.G.G.] S S S p R G.G.G.G.M.H S S S S S S S H.H.H.H.",
"H.H.H.H.S S S S S S S S S S S S H d - X 6.G.G.G.Z.V.J S S S - 1.G.G.G.G.( S S S S S S S H.H.H.H.",
"H.H.H.H.S S S S S S S S S J I S S S S 2 9 s.G.G.G.G.%.S S S a E G.G.G.G.%.S S S S S S S H.H.H.H.",
"H.H.H.H.S S S S S S S / u.G.G.j.) S S S > N G.G.G.G.Z.Y S S H w Z.G.G.G.s.S S S S S S S H.H.H.H.",
"H.H.H.H.S S S S S S / Z.G.G.G.G.Z.) S S l - -.G.G.G.G.| S S S p 1.G.G.G.G./ S S S S S S H.H.H.H.",
"H.H.H.H.S S S S S S 7.G.G.G.G.G.G.j.S S S a c G.G.G.G.w.S S S S _ G.G.G.G.| H S S S S S H.H.H.H.",
"H.H.H.H.S S S S S S M.G.G.G.G.G.G.G.I S S H 3 e.G.G.G.Z.I S S S n G.G.G.G.#.S S S S S S H.H.H.H.",
"H.H.H.H.S S S S S S j.G.G.G.G.G.G.Z.J S S S l ` G.G.G.G.' S S S a G.G.G.G.>.S S S S S S H.H.H.H.",
"H.H.H.H.S S S S S S &.G.G.G.G.G.G.8.l S S S S R G.G.G.G.] S S S l l.G.G.Z.8.S S S S S S H.H.H.H.",
"H.H.H.H.S S S S S H u l.G.G.G.G.V.b S S S S S m G.G.G.G...H S S S e.G.G.G.i.S S S S S S H.H.H.H.",
"H.H.H.H.S S S S S H 2 u &.s.M.1.n > S S S S S S G.G.G.G.*.S S S H 1.G.G.G.V.S S S S S S H.H.H.H.",
"H.H.H.H.S S S S S S l X X X X   X d S S S S S a X X X   w H S S S > X X X - S S S S S S H.H.H.H.",
"H.H.H.H.S S S S S S S S 2 X - > a S S S S S S S X X X   3 H S S S 2 X X X X S S S S S S H.H.H.H.",
"H.H.H.H.l S S S S S S S S S S S S S S S S S S S S S S S S S S S S S S S S S S S S S S l H.H.H.H.",
"H.H.H.H.p S S S S S S S S S S S S S S S S S S S S S S S S S S S S S S S S S S S S S S p H.H.H.H.",
"H.H.H.H.- l S S S S S S S S S S S S S S S S S S S S S S S S S S S S S S S S S S S S S X H.H.H.H.",
"H.H.H.H.X - a d S S S S S S S S S S S S S S S S S S S S S S S S S S S S S S S S l p - X H.H.H.H.",
"H.H.H.H.H.X X X X X X X X X     X X X   X X X X         X X X           X X X   X X X H.H.H.H.H.",
"H.H.H.H.H.H.X X   X X X X X     X X X X   X X X         X X X X         X X X X X X H.H.H.H.H.H.",
"H.H.H.H.H.H.H.H.H.H.H.H.H.H.H.H.H.H.H.H.H.H.H.H.H.H.H.H.H.H.H.H.H.H.H.H.H.H.H.H.H.H.H.H.H.H.H.H.",
"H.H.H.H.H.H.H.H.H.H.H.H.H.H.H.H.H.H.H.H.H.H.H.H.H.H.H.H.H.H.H.H.H.H.H.H.H.H.H.H.H.H.H.H.H.H.H.H."
};
