/* XPM */
static const char *safe[] = {
/* columns rows colors chars-per-pixel */
"48 48 128 2 ",
"   c #2C3F4F",
".  c #2C3E50",
"X  c #2D3F50",
"o  c #2C3F51",
"O  c #2D3F51",
"+  c #2D3F52",
"@  c #2D4052",
"#  c #2E4052",
"$  c #2E4053",
"%  c #2E4154",
"&  c #2F4255",
"*  c #304356",
"=  c #304357",
"-  c #344557",
";  c #304458",
":  c #314559",
">  c #324558",
",  c #31465A",
"<  c #32465A",
"1  c #32465B",
"2  c #354658",
"3  c #33485D",
"4  c #33495E",
"5  c #34485D",
"6  c #34495E",
"7  c #35495E",
"8  c #34495F",
"9  c #354A5F",
"0  c #384D61",
"q  c #3E5062",
"w  c #415261",
"e  c #435462",
"r  c #435463",
"t  c #405365",
"y  c #415468",
"u  c #425569",
"i  c #546576",
"p  c #5E6E79",
"a  c #5D6E7D",
"s  c #5F6F7C",
"d  c #5E6E7E",
"f  c #60707F",
"g  c #62717E",
"h  c #657782",
"j  c #687981",
"k  c #697882",
"l  c #6D7B85",
"z  c #738387",
"x  c #728288",
"c  c #72808E",
"v  c #7F8C8D",
"b  c #798693",
"n  c #798793",
"m  c #7A8794",
"M  c #7E8B97",
"N  c #828F90",
"B  c #808E95",
"V  c #818F96",
"C  c #859394",
"Z  c #879596",
"A  c #889597",
"S  c #849299",
"D  c #859399",
"F  c #85929B",
"G  c #89979C",
"H  c #8A9899",
"J  c #8D999F",
"K  c #8F9C9F",
"L  c #909D9E",
"P  c #8B97A1",
"I  c #929FA1",
"U  c #909EA2",
"Y  c #939DA6",
"T  c #93A1A4",
"R  c #93A1A5",
"E  c #94A1A5",
"W  c #95A2A6",
"Q  c #96A3A7",
"!  c #95A5A6",
"~  c #96A4A7",
"^  c #96A6A7",
"/  c #97A6A7",
"(  c #96A0A8",
")  c #96A1A9",
"_  c #97A7A8",
"`  c #9AA3AB",
"'  c #98A7A8",
"]  c #98A7A9",
"[  c #9AA4AC",
"{  c #99A8A9",
"}  c #99A8AA",
"|  c #9AA9AA",
" . c #9FACAE",
".. c #A1ACB0",
"X. c #A1AEB0",
"o. c #A2AEB0",
"O. c #A7AFB6",
"+. c #A3B0B2",
"@. c #A6B1B4",
"#. c #A7B3B5",
"$. c #A8B0B7",
"%. c #A8B3B6",
"&. c #A9B4B7",
"*. c #AAB5B7",
"=. c #AAB5B8",
"-. c #ABB5B8",
";. c #ADB5BB",
":. c #ADB6BA",
">. c #AEB8BB",
",. c #B1BABD",
"<. c #B1B8BE",
"1. c #B2B9BE",
"2. c #B2BBBE",
"3. c #B3BCBF",
"4. c #B5BCC1",
"5. c #B6BDC2",
"6. c #B7BFC2",
"7. c #B8BFC2",
"8. c #B8BFC3",
"9. c #B9BFC3",
"0. c #B9C0C4",
"q. c #BAC0C4",
"w. c #BAC1C5",
"e. c #BBC1C5",
"r. c #BBC2C5",
"t. c #BCC3C7",
"y. c #BDC3C7",
"u. c None",
/* pixels */
"u.u.u.u.u.u.u.u.u.u.u.u.u.u.u.u.u.u.u.u.u.u.u.u.u.u.u.u.u.u.u.u.u.u.u.u.u.u.u.u.u.u.u.u.u.u.u.u.",
"u.u.u.u.u.u.u.u.u.u.u.u.u.u.u.u.u.u.u.u.u.u.u.u.u.u.u.u.u.u.u.u.u.u.u.u.u.u.u.u.u.u.u.u.u.u.u.u.",
"u.u.u.u.u.u.u.u.u.u.u.u.u.u.u.u.u.u.u.u.u.u.u.u.u.u.u.u.u.u.u.u.u.u.u.u.u.u.u.u.u.u.u.u.u.u.u.u.",
"u.u.u.u.u.u.u.u.u.u.u.u.u.u.u.u.u.u.u.u.u.u.u.u.u.u.u.u.u.u.u.u.u.u.u.u.u.u.u.u.u.u.u.u.u.u.u.u.",
"u.u.6 6 6 6 6 6 6 6 6 6 6 6 6 6 6 6 6 6 6 6 6 6 6 6 6 6 6 6 6 6 4 6 6 6 8 8 0 1 6 6 6 6 6 0 u.u.",
"u.6 6 6 6 6 6 6 6 6 6 6 6 6 6 6 6 6 6 6 6 6 6 6 6 6 6 6 6 6 6 6 4 8 6 6 8 8 1 1 6 6 6 6 3 3 6 u.",
"0 3 6 6 6 6 6 6 6 6 6 6 6 6 6 6 6 6 6 6 6 6 6 6 6 6 6 6 6 6 6 6 8 8 8 8 8 8 1 0 6 6 6 6 6 6 6 0 ",
"6 3 6 6 6 6 6 6 6 6 6 6 6 6 6 6 6 6 6 6 6 6 6 6 6 6 6 6 6 6 6 6 8 8 8 8 8 8 1 0 6 6 6 6 6 6 6 6 ",
"6 6 6 6 3 - . + 3 3 3 3 6 6 6 6 0 3 0 3 6 6 6 6 i B | $.4.9.$.| N i 0 0 0 0 1 1 6 6 6 6 4 8 8 8 ",
"6 6 6 6 3 . . .   3 3 3 6 6 6 6 3 3 3 3 6 0 c ,.y.y.t.t.y.y.9.9.y.y.<.l 0 ; 0 1 6 6 6 6 6 8 8 8 ",
"6 6 6 6 + + y.y.+ + 6 6 6 6 6 6 3 3 0 3 h ;.t.t.9.4.$.X._ | X.;.,.t.y.t.;.h 1 1 6 6 6 6 6 6 8 8 ",
"6 6 6 6 + . y.y.+ + 6 6 6 6 6 6 3 0 3 b y.9.t.,.| _ ! ! Y _ _ _ Q ' ,.t.y.y.b 0 6 6 6 6 6 6 8 8 ",
"6 6 6 6 ; . t.y.  3 6 6 6 6 6 6 3 0 P 9.t.9.X.! ! | B h r r k F ! ! !  .y.y.y.P 6 6 6 6 8 8 8 8 ",
"6 6 6 6 3 3 t.t.- 3 6 6 6 6 6 6 3 b y.y.t.| | Y r . .   . . . . @ e ! ! _ 4.y.y.b 6 6 6 8 8 8 8 ",
"6 6 6 6 3 6 t.t.3 6 6 6 6 6 6 6 h y.y.y.X.| J . . . 3 - 3 3 3 & & @ & J _ @.y.y.4.h 6 6 1 8 8 8 ",
"6 6 6 6 6 6 t.t.3 3 6 6 6 6 6 0 $.y.y.<.Q C N k 3 0 6 6 6 6 3 3 6 6 g v F _ 4.y.y.;.0 6 0 1 8 1 ",
"6 6 6 6 8 8 ! ! 1 0 0 1 ; 0 0 l y.y.9.| ! v C ! h 6 6 6 6 6 6 6 6 h ! C v L ! t.t.t.l 0 1 8 8 0 ",
"6 6 6 6 8 8 ! ! 8 1 1 1 0 0 0 4.y.y.4.Y . z v A ! h 6 6 6 6 6 6 h ! J v z @ ! ,.t.t.<.0 0 1 8 1 ",
"6 6 6 6 8 8 ! ! 8 1 1 0 1 0 i 9.y.y.@.r - 6 c N J ! g 6 6 6 6 j ! A v z 6 - q @.y.y.t.i 8 8 1 8 ",
"6 6 4 4 4 8 ! ! 1 0 1 0 1 1 N y.y.y.! . 6 6 6 l v A ^ j 6 6 j ! G v z 6 6 6 & ! y.y.9.N 8 1 0 1 ",
"6 6 6 6 8 8 _ ! 8 1 0 1 6 6 | y.y.y.M 3 3 3 3 3 x v G ! j j ! G v z 6 6 6 6 3 M y.y.y.| 0 0 1 0 ",
"6 6 6 6 8 8 ! ! 8 8 8 8 6 6 O.y.y.y.h 3 3 3 0 3 4 x G ! R ! ! G c 6 6 6 6 6 6 h y.y.y.O.0 + 1 0 ",
"6 6 6 6 8 8 ! ! 8 8 8 1 6 6 ,.t.y.y.0 3 3 3 3 3 4 4 j ! C C ! j 6 6 6 6 6 6 1 0 y.y.y.4.0 1 1 1 ",
"6 6 6 6 8 1 ! _ 8 8 1 0 6 6 :.t.y.y.r 0 0 3 0 3 6 6 j _ v v R h 6 6 6 6 6 6 0 q y.y.y.;.1 0 0 1 ",
"6 6 6 6 6 6 ! ! 6 6 6 6 6 6  .t.y.y.a 6 6 6 6 6 6 j ^ H v v H ^ j 6 6 6 6 6 3 a y.t.t. .6 6 6 6 ",
"6 6 6 6 6 6 ! ! 6 6 6 6 6 6 ! t.y.y.n 6 6 6 6 6 h ! H v x x v H ! j 6 6 6 6 0 b y.t.t.! 6 6 6 6 ",
"6 6 6 6 6 6 ! ! 6 6 6 6 6 6 F t.y.y._ 6 6 6 6 j ! H v x 6 4 x v H ! j 6 6 6 6 _ y.y.t.G 6 6 6 6 ",
"6 6 6 6 6 6 ! ! 6 6 6 6 6 6 p $.y.y.0.q 6 6 g ^ G v x 4 6 4 4 x v H ! g 6 6 q 4.y.y.$.a 6 6 6 6 ",
"6 6 6 6 6 6 ! ! 6 6 6 6 6 6 - ' 0.t.t.Y 6 j ! G v x 6 6 6 6 6 6 c N A ! h 3 Y y.y.9.| - 6 6 6 6 ",
"6 6 6 6 6 6 ! ! 6 6 6 6 6 6 6 M X.t.t.t.C ^ G v x 6 6 6 6 6 6 6 3 z N A ! G y.t.y. .N 3 6 6 6 6 ",
"6 6 6 6 6 6 v v 6 6 6 6 6 6 6 - ! ;.t.t.0.J v x 6 6 6 6 6 6 6 6 6 6 z N L 9.t.t.$.| 3 3 6 6 6 6 ",
"6 6 6 6 6 6 v v 6 6 6 6 6 6 6 3 l ! >.t.t.0.J 6 6 6 6 6 6 6 6 6 6 6 3 P 9.y.t.;.! l - 3 6 6 6 6 ",
"6 6 6 6 0 ; M v & 6 6 6 6 6 6 6   N _ $.t.t.t.Y r 0 3 3 0 3 3 0 3 y Y y.y.y.;.! C & 6 6 6 6 6 6 ",
"6 6 6 6 ; . v v & ; 6 6 6 6 6 6 3   Y ! X.9.t.t.4._ l h y r a b Y 4.y.y.9. .! Y   ; 6 6 6 6 6 6 ",
"6 6 6 6 . . v v   & 6 6 6 6 6 6 3 3 . N ! ! $.9.y.y.y.y.t.t.t.t.y.y.9.%.Q ! G . & 6 6 6 6 6 6 6 ",
"6 6 6 6 . o v v   . 6 6 6 6 6 6 3 3 3   l | ! ! X.;.4.9.t.t.4.4.;.| _ _ | k   + 6 6 6 6 6 6 6 6 ",
"6 6 8 8 ; o o o   ; 6 6 6 6 6 6 6 6 6 3 . 3 N ! _ _ _ _ _ Y _ ! ! ! | M -   3 3 6 6 6 6 6 6 6 6 ",
"6 6 8 8 0 ; . & ; 6 6 6 6 6 6 6 6 6 6 6 3 . . . a F _ | ! _ _ _ G a .     3 6 6 6 6 6 6 6 6 6 6 ",
"; 0 ; 8 ; 8 8 8 6 6 6 6 6 6 6 6 6 6 6 6 3 3 3     . . . . . . .     . 3 3 3 3 6 6 6 6 6 6 6 6 6 ",
"; 0 0 1 0 1 8 8 6 6 6 6 6 6 6 6 6 6 6 6 6 3 6 6 3 . . . . . . & & 3 3 3 3 3 6 6 6 6 6 6 6 6 3 3 ",
". 3 6 6 6 6 6 6 6 6 6 6 6 6 6 6 6 6 6 6 6 6 6 6 6 6 6 6 6 6 6 6 6 6 6 6 6 6 6 6 6 6 3 0 3 3 3 . ",
"  . 3 6 6 6 6 6 6 6 6 6 6 6 6 6 6 6 6 6 6 6 6 6 6 6 6 6 6 6 6 6 6 6 6 6 6 6 6 6 6 6 3 3 3 3 .   ",
"u.. . . . . . . . . . . . . . . . . . . . . . . . . . . . . . . . . . . . . . .   . . . . . . u.",
"u.u.  . . . . . . . . . . . . . . . . . . . . . . . . . . . . . . . . . . . . .     . . . . u.u.",
"u.u.u.u.u.u.. . . . . . . . u.u.u.u.u.u.u.u.u.u.u.u.u.u.u.u.u.u.u.u.. . . . . . . . u.u.u.u.u.u.",
"u.u.u.u.u.u.. . . . . . . . u.u.u.u.u.u.u.u.u.u.u.u.u.u.u.u.u.u.u.u.. . . . . . . . u.u.u.u.u.u.",
"u.u.u.u.u.u.u.u.u.u.u.u.u.u.u.u.u.u.u.u.u.u.u.u.u.u.u.u.u.u.u.u.u.u.u.u.u.u.u.u.u.u.u.u.u.u.u.u.",
"u.u.u.u.u.u.u.u.u.u.u.u.u.u.u.u.u.u.u.u.u.u.u.u.u.u.u.u.u.u.u.u.u.u.u.u.u.u.u.u.u.u.u.u.u.u.u.u."
};
