/* XPM */
const static char *search[] = {
/* columns rows colors chars-per-pixel */
"48 48 56 1 ",
"  c #0F1F4F",
". c #111D45",
"X c #111F4C",
"o c #111F53",
"O c #112154",
"+ c #11255B",
"@ c #0F2A63",
"# c #0F2F69",
"$ c #122D64",
"% c #0F316D",
"& c #10326B",
"* c #0E3571",
"= c #0E3977",
"- c #0D3E7E",
"; c #0D4386",
": c #0C4489",
"> c #0D498E",
", c #0C4C92",
"< c #144F90",
"1 c #0D5097",
"2 c #0D559E",
"3 c #155699",
"4 c #0C57A1",
"5 c #0C5BA6",
"6 c #0E5EAB",
"7 c #0D63B3",
"8 c #0866BB",
"9 c #0F68BA",
"0 c #226EB0",
"q c #5A789F",
"w c #4F81AD",
"e c #6D8AA6",
"r c #7192AD",
"t c #6A95B8",
"y c #879BAE",
"u c #ACB1B6",
"i c #A6B3BD",
"p c #B6B6B6",
"a c #B9B7B7",
"s c #BCBCBB",
"d c #C1BFBE",
"f c #C0BFC0",
"g c #C4C3C3",
"h c #C8C7C7",
"j c #C8C8C7",
"k c #CBCBCA",
"l c #D0CFCF",
"z c #D1D0CF",
"x c #D3D3D3",
"c c #DBDBDB",
"v c #E0E0DF",
"b c #E4E4E3",
"n c #EEEEED",
"m c #F4F4F3",
"M c #FCFCFC",
"N c None",
/* pixels */
"NNNNNNNNNNNNNNNNNNNNNNNNNNNNNNNNNNNNNNNNNNNNNNNN",
"NNNNNNNNNNNNNNNNNNNNNNNNNNNNNNNNNNNNNNNNNNNNNNNN",
"NNNNNNNNNNNNNNNNNNNNNNNNNNNNNNNNNNNNNNNNNNNNNNNN",
"NNNNNNNNNNNNNNNNNNNNNNNNNNNNNNNNNNNNNNNNNNNNNNNN",
"NNNNNNNNNNNNNNNNNNNNNNNNNNNNNNNNNNNNNNNNNNNNNNNN",
"NNNNNNNNNNNNNNNNNNNNNNNNNNNNNNNNNNNNNNNNNNNNNNNN",
"NNNNNNNNNNNNNNNNNNNNNNNNNNNNNNNNNNNNNNNNNNNNNNNN",
"NNNNNNNNNNNNNNNNNaaNNNNNNNNNNNNNNNNNNNNNNNNNNNNN",
"NNNNNNNNNNNNNaggkcxxkgfNNNNNNNNNNNNNNNNNNNNNNNNN",
"NNNNNNNNNNNakxcxxkkxxcxkaNNNNNNNNNNNNNNNNNNNNNNN",
"NNNNNNNNNNglxlhhgghgggkxxgaNNNNNNNNNNNNNNNNNNNNN",
"NNNNNNNNagxkggggaaaaggggkxkaNNNNNNNNNNNNNNNNNNNN",
"NNNNNNNNgxkgggakbnbbxafhggxkpNNNNNNNNNNNNNNNNNNN",
"NNNNNNNgzjgjakmMMMMMMmcagggxgNNNNNNNNNNNNNNNNNNN",
"NNNNNNakkghabMMMMMMMMMMnakggxaNNNNNNNNNNNNNNNNNN",
"NNNNNNgkggabMMMMMMMMMMMMnaggkgpNNNNNNNNNNNNNNNNN",
"NNNNNakggdjMmMmMmmMmMmMmMxahglaNNNNNNNNNNNNNNNNN",
"NNNNNgkgjanMMmMmmMmMmMmMMmfhgjgNNNNNNNNNNNNNNNNN",
"NNNNNghgggMmmmmMmmmmmmmmmMkfgghNNNNNNNNNNNNNNNNN",
"NNNNNgggaxMmmmmmmMmmmMmmmMvahfkpNNNNNNNNNNNNNNNN",
"NNNNNjgjdcMmmmmmmmmmmmmmmmbfhfjfNNNNNNNNNNNNNNNN",
"NNNNNgfgacMmmnnmmmmmmnnmmMbahfhaNNNNNNNNNNNNNNNN",
"NNNNNfgjaxMmmmnmmmnmnmmnmMcahfgaNNNNNNNNNNNNNNNN",
"NNNNNafgjgmMmnnnnnnnnnnmMMjfhfgNNNNNNNNNNNNNNNNN",
"NNNNNaggjavMMMnnnnnnnnmMMnfggfdNNNNNNNNNNNNNNNNN",
"NNNNNaggjfgnMMMMnmnmmMMMmjahgdiNNNNNNNNNNNNNNNNN",
"NNNNNNfagjaxmMMMMMMMMMMmcajgadt89NNNNNNNNNNNNNNN",
"NNNNNNagfgjpxnMMMMMMMMncagjfdu0777NNNNNNNNNNNNNN",
"NNNNNNNfffgjagcnmmmmnvjajgddaw56566NNNNNNNNNNNNN",
"NNNNNNNNffggkgaakxxkfadjggadr2222255NNNNNNNNNNNN",
"NNNNNNNNagggggkggaaggjggdddy3111,2,32NNNNNNNNNNN",
"NNNNNNNNNNagaggggghggggdgae<>>>>,:,>,,,NNNNNNNNN",
"NNNNNNNNNNNagggfdgdaggggdq::;:;;;;:;::>;NNNNNNNN",
"NNNNNNNNNNNNNafddgfgafaNNN;;---;--;----;;NNNNNNN",
"NNNNNNNNNNNNNNNNNNNNNNNNNNNN--==========--NNNNNN",
"NNNNNNNNNNNNNNNNNNNNNNNNNNNNN***%=%%*%=%%=*NNNNN",
"NNNNNNNNNNNNNNNNNNNNNNNNNNNNNN&%%#%######*&NNNNN",
"NNNNNNNNNNNNNNNNNNNNNNNNNNNNNNN$@@@@@@@@@@$NNNNN",
"NNNNNNNNNNNNNNNNNNNNNNNNNNNNNNNNN+++O++++++NNNNN",
"NNNNNNNNNNNNNNNNNNNNNNNNNNNNNNNNNN+OOOOOo+ONNNNN",
"NNNNNNNNNNNNNNNNNNNNNNNNNNNNNNNNNNNoooooooNNNNNN",
"NNNNNNNNNNNNNNNNNNNNNNNNNNNNNNNNNNNN.XO XNNNNNNN",
"NNNNNNNNNNNNNNNNNNNNNNNNNNNNNNNNNNNNNNNNNNNNNNNN",
"NNNNNNNNNNNNNNNNNNNNNNNNNNNNNNNNNNNNNNNNNNNNNNNN",
"NNNNNNNNNNNNNNNNNNNNNNNNNNNNNNNNNNNNNNNNNNNNNNNN",
"NNNNNNNNNNNNNNNNNNNNNNNNNNNNNNNNNNNNNNNNNNNNNNNN",
"NNNNNNNNNNNNNNNNNNNNNNNNNNNNNNNNNNNNNNNNNNNNNNNN",
"NNNNNNNNNNNNNNNNNNNNNNNNNNNNNNNNNNNNNNNNNNNNNNNN"
};
