/* XPM */
static char *shield_ok[] = {
/* columns rows colors chars-per-pixel */
"48 48 127 2 ",
"   c #27AE60",
".  c #28AE60",
"X  c #2EAF65",
"o  c #27B061",
"O  c #2DB065",
"+  c #34B069",
"@  c #35B36A",
"#  c #3DB16F",
"$  c #3FB170",
"%  c #4DB37A",
"&  c #4EB47B",
"*  c #4EBB7C",
"=  c #50B47C",
"-  c #2DC66E",
";  c #2DC96F",
":  c #2FCA71",
">  c #2ECB71",
",  c #2ECC71",
"<  c #31C972",
"1  c #32C972",
"2  c #39C976",
"3  c #3AC977",
"4  c #3EC979",
"5  c #46CA7E",
"6  c #41D07E",
"7  c #55B480",
"8  c #5EB686",
"9  c #58BF84",
"0  c #62B688",
"q  c #78B998",
"w  c #7ABA99",
"e  c #49CA81",
"r  c #50C783",
"t  c #5FC189",
"y  c #68C490",
"u  c #64CF92",
"i  c #66CF94",
"p  c #95A5A5",
"a  c #96A5A5",
"s  c #95A5A6",
"d  c #95A5A7",
"f  c #96A5A7",
"g  c #95A6A6",
"h  c #96A6A7",
"j  c #96A7A7",
"k  c #97A7A8",
"l  c #97A7A9",
"z  c #98A8A9",
"x  c #99AAAB",
"c  c #9DABAC",
"v  c #9CABAD",
"b  c #8ABCA4",
"n  c #99BEAE",
"m  c #9BBEB0",
"M  c #A0ADAE",
"N  c #A6B3B4",
"B  c #A8B6B7",
"V  c #AAB6B8",
"C  c #AAB7B8",
"Z  c #ACB8B9",
"A  c #ADB9BA",
"S  c #ADB9BB",
"D  c #AEBABB",
"F  c #AFBABC",
"G  c #B0BBBD",
"H  c #B1BCBE",
"J  c #B2BDBE",
"K  c #B3BCBF",
"L  c #8ACFA9",
"P  c #80D5A5",
"I  c #8DDEB1",
"U  c #99DBB7",
"Y  c #9BDBB8",
"T  c #9EDCBA",
"R  c #A8C0B9",
"E  c #AEC1BD",
"W  c #B2C1BF",
"Q  c #B4C2C1",
"!  c #BAC3C5",
"~  c #BDC3C7",
"^  c #B9C4C5",
"/  c #BBC4C6",
"(  c #BAC5C6",
")  c #BEC4C8",
"_  c #BFC5C9",
"`  c #BFC7CA",
"'  c #B5DEC9",
"]  c #B8DFCB",
"[  c #BBE3CE",
"{  c #C0C6CA",
"}  c #C1C7CA",
"|  c #C1C7CB",
" . c #C2C8CC",
".. c #C2C9CC",
"X. c #C3C9CC",
"o. c #C3C9CD",
"O. c #C3CACC",
"+. c #C3CACD",
"@. c #C4CACD",
"#. c #C2CCCD",
"$. c #C9D2D3",
"%. c #CAD3D4",
"&. c #D5DDDE",
"*. c #D6DDDE",
"=. c #D7DDDE",
"-. c #C6E3D5",
";. c #C8E7D8",
":. c #D1E7DD",
">. c #D0E9DD",
",. c #D8DFE0",
"<. c #D9E0E1",
"1. c #DAE0E1",
"2. c #DEE4E5",
"3. c #D5EAE1",
"4. c #DFECE7",
"5. c #DFEEE8",
"6. c #E2E7E8",
"7. c #E3E8E9",
"8. c #E3E9EA",
"9. c #E4EAEB",
"0. c #E4EEEC",
"q. c #E8ECED",
"w. c #E9EDEE",
"e. c #E9EFEF",
"r. c #EBEFF0",
"t. c #ECF0F1",
"y. c None",
/* pixels */
"y.y.y.y.y.y.y.y.y.y.y.y.y.y.y.y.y.y.y.y.y.y.y.y.y.y.y.y.y.y.y.y.y.y.y.y.y.y.y.y.y.y.y.y.y.y.y.y.",
"y.y.y.y.y.y.y.y.y.y.y.y.y.y.y.y.y.y.y.y.y.y.y.y.y.y.y.y.y.y.y.y.y.y.y.y.y.y.y.y.y.y.y.y.y.y.y.y.",
"y.y.y.y.y.y.y.y.y.y.y.y.y.y.y.y.y.y.y.y.y.y.y.y.y.y.y.y.y.y.y.y.y.y.y.y.y.y.y.y.y.y.y.y.y.y.y.y.",
"y.y.y.y.y.y.y.y.y.y.y.y.y.y.y.y.y.y.y.y.y.y.y.y.y.y.y.y.y.y.y.y.y.y.y.y.y.y.y.y.y.y.y.y.y.y.y.y.",
"y.y.y.y.y.y.~ ~ ~ ~ ~ ~ ~ ~ ~ ~ ~ ~ ~ ~ ~ ~ ~ ~ t.t.t.t.t.t.t.t.t.t.t.t.t.t.t.t.t.t.y.y.y.y.y.y.",
"y.y.y.y.y.y.~ ~ ~ ~ ~ ~ ~ ~ ~ ~ ~ ~ ~ ~ ~ ~ ~ ~ t.t.t.t.t.t.t.t.t.t.t.t.t.t.t.t.t.t.y.y.y.y.y.y.",
"y.y.y.y.y.y.~ ~ ~ ~ ~ ~ ~ ~ ~ ~ ~ ~ ~ ~ ~ ~ ~ ~ t.t.t.t.t.t.t.t.t.t.t.t.t.t.t.t.t.t.y.y.y.y.y.y.",
"y.y.y.y.y.y.~ ~ ~ ~ ~ ~ ~ ~ ~ ~ ~ ~ ~ ~ ~ ~ ~ ~ t.t.t.t.t.t.t.t.t.t.t.t.t.t.t.t.t.t.y.y.y.y.y.y.",
"y.y.y.y.y.y.~ ~ ~ ~                             , , , , , , , , , , , , , , t.t.t.t.y.y.y.y.y.y.",
"y.y.y.y.y.y.~ ~ ~ ~                             , , , , , , , , , , , , , , t.t.t.t.y.y.y.y.y.y.",
"y.y.y.y.y.y.~ ~ ~ ~                             , , , , , , , , , , , , , , t.t.t.t.y.y.y.y.y.y.",
"y.y.y.y.y.y.~ ~ ~ ~                             , , , , , , , , , , , , , , t.t.t.t.y.y.y.y.y.y.",
"y.y.y.y.y.y.~ ~ ~ ~                             , , , , , , , , , , , , , , t.t.t.t.y.y.y.y.y.y.",
"y.y.y.y.y.y.~ ~ ~ ~                             , , , , , , , , , , , , , , t.t.t.t.y.y.y.y.y.y.",
"y.y.y.y.y.y.~ ~ ~ ~                             , , , , , , , , , , , , , , t.t.t.t.y.y.y.y.y.y.",
"y.y.y.y.y.y.~ ~ ~ ~                             , , , , , , , , , , , , , , t.t.t.t.y.y.y.y.y.y.",
"y.y.y.y.y.y.~ ~ ~ ~                             , , , , , , , I I , , , , , t.t.t.t.y.y.y.y.y.y.",
"y.y.y.y.y.y.~ ~ ~ ~                             , , , , , , I t.t.I , , , , t.t.t.t.y.y.y.y.y.y.",
"y.y.y.y.y.y.~ ~ ~ ~                             , , , , , I t.t.t.t.I , , , t.t.t.t.y.y.y.y.y.y.",
"y.y.y.y.y.y.~ ~ ~ ~                             , , , , I t.t.t.t.t.5.4 , , t.t.t.t.y.y.y.y.y.y.",
"y.y.y.y.y.y.~ ~ ~ ~                             , , , I t.t.t.t.t.4.e , , , t.t.t.t.y.y.y.y.y.y.",
"y.y.y.y.y.y.~ ~ ~ ~                 9 O         , , I t.t.t.t.t.4.* O ; , , t.t.t.t.y.y.y.y.y.y.",
"y.y.y.y.y.y.~ ~ ~ ~               y e.' O       , I t.t.t.t.t.4.* o , , , , t.t.t.t.y.y.y.y.y.y.",
"y.y.y.y.y.y.~ ~ ~ ~             y e.t.t.' O     I t.t.t.t.t.4.* O , , , , , t.t.t.t.y.y.y.y.y.y.",
"y.y.y.y.y.y.` ~ ~ ~ X         t e.t.t.t.t.' O L t.t.t.t.t.4.* o , , , , , , t.t.t.r.y.y.y.y.y.y.",
"y.y.y.y.y.y.| ~ ~ ~ #         @ -.t.t.t.t.t.:.t.t.t.t.t.4.* o - , , , , , , t.t.t.1.y.y.y.y.y.y.",
"y.y.y.y.y.y.@.~ ~ ~ =           @ -.t.t.t.t.t.t.t.t.t.4.* o - , , , , , , 4 t.t.t.,.y.y.y.y.y.y.",
"y.y.y.y.y.y.@.~ ~ ~ w             @ -.t.t.t.t.t.t.t.4.* o - , , , , , , , i t.t.r.$.y.y.y.y.y.y.",
"y.y.y.y.y.y.J ` ~ ~ R               @ -.t.t.t.t.t.4.* o - , , , , , , , , [ t.t.t.V y.y.y.y.y.y.",
"y.y.y.y.y.y.p | ~ ~ ~ 8               @ -.t.t.t.4.* o - , , , , , , , , 5 t.t.t.0.l y.y.y.y.y.y.",
"y.y.y.y.y.y.y.` ~ ~ ~ J @               @ -.t.4.* o - , , , , , , , , , >.t.r.r.@.y.y.y.y.y.y.y.",
"y.y.y.y.y.y.y.v ` ~ ~ ~ b                 @ ] * o - , , , , , , , , , w t.t.r.0.v y.y.y.y.y.y.y.",
"y.y.y.y.y.y.y.p ~ ~ ~ ~ ~ 7 o o                 - , , , , , , , , , 4 t.r.r.r.~ p y.y.y.y.y.y.y.",
"y.y.y.y.y.y.y.y.k @.~ ~ ~ Z $                   ; , , , , , , , , 1 ;.t.r.e.,.f y.y.y.y.y.y.y.y.",
"y.y.y.y.y.y.y.y.y.M @.~ ~ ~ Q &                 , , , , , , , , 4 3.t.t.t.0.v y.y.y.y.y.y.y.y.y.",
"y.y.y.y.y.y.y.y.y.p Z ` ~ ~ ~ ~ 0               , , , , , , , e 0.t.t.t.e.V p y.y.y.y.y.y.y.y.y.",
"y.y.y.y.y.y.y.y.y.y.p V ` ` ~ ~ ~ q X           , , , , , , i t.t.t.t.6.N p y.y.y.y.y.y.y.y.y.y.",
"y.y.y.y.y.y.y.y.y.y.y.p v @.~ ~ ~ ~ n %         , , , , 4 Y t.t.t.t.,.v p y.y.y.y.y.y.y.y.y.y.y.",
"y.y.y.y.y.y.y.y.y.y.y.y.p l @.~ ~ ~ ~ ~ n %     , , 2 Y r.t.t.t.t.$.k p y.y.y.y.y.y.y.y.y.y.y.y.",
"y.y.y.y.y.y.y.y.y.y.y.y.y.p p ~ ~ ~ ~ ~ ~ ~ n % 2 Y r.r.r.r.t.r.~ p l y.y.y.y.y.y.y.y.y.y.y.y.y.",
"y.y.y.y.y.y.y.y.y.y.y.y.y.y.l p Z @.` ` ` ~ ~ ~ t.t.t.t.t.t.1.V p p y.y.y.y.y.y.y.y.y.y.y.y.y.y.",
"y.y.y.y.y.y.y.y.y.y.y.y.y.y.y.y.p p J | ~ ~ ~ ~ t.t.t.t.1.Z p p y.y.y.y.y.y.y.y.y.y.y.y.y.y.y.y.",
"y.y.y.y.y.y.y.y.y.y.y.y.y.y.y.y.y.p p p F | ` ` t.t.,.Z l p p y.y.y.y.y.y.y.y.y.y.y.y.y.y.y.y.y.",
"y.y.y.y.y.y.y.y.y.y.y.y.y.y.y.y.y.y.y.l p p F | ,.Z p p l y.y.y.y.y.y.y.y.y.y.y.y.y.y.y.y.y.y.y.",
"y.y.y.y.y.y.y.y.y.y.y.y.y.y.y.y.y.y.y.y.y.l p p p p l y.y.y.y.y.y.y.y.y.y.y.y.y.y.y.y.y.y.y.y.y.",
"y.y.y.y.y.y.y.y.y.y.y.y.y.y.y.y.y.y.y.y.y.y.y.p l y.y.y.y.y.y.y.y.y.y.y.y.y.y.y.y.y.y.y.y.y.y.y.",
"y.y.y.y.y.y.y.y.y.y.y.y.y.y.y.y.y.y.y.y.y.y.y.y.y.y.y.y.y.y.y.y.y.y.y.y.y.y.y.y.y.y.y.y.y.y.y.y.",
"y.y.y.y.y.y.y.y.y.y.y.y.y.y.y.y.y.y.y.y.y.y.y.y.y.y.y.y.y.y.y.y.y.y.y.y.y.y.y.y.y.y.y.y.y.y.y.y."
};
