/* XPM */
static const char *shop[] = {
/* columns rows colors chars-per-pixel */
"48 48 46 1 ",
"  c #C0392B",
". c #C93D2E",
"X c #E0761C",
"o c #CA4D26",
"O c #E74C3C",
"+ c #E85B3A",
"@ c #E96C3F",
"# c #BF5C52",
"$ c #C44E40",
"% c #C76556",
"& c #C76B5C",
"* c #E96E4E",
"= c #EA7F4B",
"- c #C97D6D",
"; c #F29A12",
": c #F39C12",
"> c #F29D16",
", c #F1C40F",
"< c #DEAB57",
"1 c #EA8C61",
"2 c #EBA676",
"3 c #EBA878",
"4 c #2980B9",
"5 c #7F8C8D",
"6 c #3498DB",
"7 c #95A5A6",
"8 c #95A5A7",
"9 c #BEA1A0",
"0 c #EBBF9A",
"q c #C8BBA2",
"w c #C8B3A9",
"e c #C6BAB5",
"r c #C6C0BB",
"t c #ECCFA3",
"y c #ECDEBC",
"u c #BCC3C6",
"i c #BDC3C7",
"p c #BCC3C8",
"a c #BCC4C8",
"s c #C2C5C6",
"d c #C6CDD0",
"f c #ECD7C3",
"g c #ECE9D6",
"h c #ECF0F0",
"j c #ECF0F1",
"k c None",
/* pixels */
"kkkkkkkkkkkkkkkkkkkkkkkkkkkkkkkkkkkkkkkkkkkkkkkk",
"kkkkkkkkkkkkkkkkkkkkkkkkkkkkkkkkkkkkkkkkkkkkkkkk",
"kkkkkkkkpiiiiiiiiiiiiiiiiiiiiiiiiiiiiiipkkkkkkkk",
"kkkkkkkiiiiiiiiiiiiiiiiiiiiiiiiiiiiiiiiiikkkkkkk",
"kkkkkiiiiiiiiiiiiiiiiiiiiiiiiiiiiiiiiiiiiiikkkkk",
"kkkpiiiiiiiiiiiiiiiiiiiiiiiiiiiiiiiiiiiiiiiipkkk",
"kk55555555555555555555555555555555555555555555kk",
"kk55555555555555555555555555555555555555555555kk",
"kkkk     %iiiii9   $iiii    siii%     riiiiikkkk",
"kkk.     eiiiii#   -iiii    wiiie     &iiiiidkkk",
"kkkOOOOO@jjjjj0OOOO3jjjjOOOO2jjjj@OOOOOyjjjjjkkk",
"kkOOOOOO0jjjjj@OOOOfjjjjOOOO*jjjj0OOOOO1jjjjjjkk",
"kkOOOOO@jjjjj0OOOO+jjjjjOOOOOgjjjj@OOOOOyjjjjjkk",
"kOOOOOO0jjjjj@OOOO1jjjjjOOOOOtjjjj0OOOOO1jjjjjjk",
"kOOOOO@jjjjj0OOOOO2hjjjjOOOOO2jjjjj@OOOOOyjjjjjk",
"OOOOOO0jjjjj@OOOOOyhjjjjOOOOO*jjjjj0OOOOO1jjjjjh",
"      spiiii      uuiiii      iiiiii      iiiiii",
"      ppiiii      uuiiii      iiiiii      iiiiii",
"      ppiiii      uiiiii      iiiipp      iiiiii",
"     oqpiiiqo    oqiiiiqo    oqiippqo    oqiiiii",
"k    X<siii<X    X<iiii<X    X<iiii<X    X<ppsik",
"kk  X;:<qq<;;XooX;;<qq<;;XooX;;<qq<:;XooX;:<ipkk",
"kkkk::;;ipppiiiiiiiiiiiisp;;iiiiiiiiiiii::::kkkk",
"kkkk:::;ippsiiiiiiiiiiiips;;iiiiiiiiiiii::::kkkk",
"kkkk;:::ii444444ip444444pp;;sp44444444pi::;;kkkk",
"kkkk;:::ii444444ip444444pp;;ps44444444sp::;;kkkk",
"kkkk,,,,jj666666jj666666jj,,jj66666666jj,,,,kkkk",
"kkkk,,,,jj666666jj666666jj,,jj66666666jj,,,,kkkk",
"kkkk,,,,jj666666jj666666jj,,jj66666666jj,,,,kkkk",
"kkkk,,,,jj666666jj666666jj,,jj66666666jj,,,,kkkk",
"kkkk,,,,jjjjjjjjjjjjjjjjjj,,jj66666666jj,,,,kkkk",
"kkkk,,,,jjjjjjjjjjjjjjjjjj,,jj66666666jj,,,,kkkk",
"kkkk,,,,jj666666jj666666jj,,jjjjjjjjjjjj,,,,kkkk",
"kkkk,,,,jj666666jj666666jj,,jjjjjjjjjjjj,,,,kkkk",
"kkkk,,,,jj666666jj666666jj,,jj66666666jj,,,,kkkk",
"kkkk,,,,jj666666jj666666jj,,jj66666666jj,,,,kkkk",
"kkkk,,,,jj444444jj444444jj,,jj44444444jj,,,,kkkk",
"kkkk,,,,jj444444jj444444jj,,jj44444444jj,,,,kkkk",
"kkkk,,,,jjjjjjjjjjjjjjjjjj,,jj44444444jj,,,,kkkk",
"kkk7,,,,jjjjjjjjjjjjjjjjjj,,jj44444444jj,,,,7kkk",
"kk77,,,,,,,,,,,,,,,,,,,,,,,,jj44444444jj,,,,78kk",
"kk77,,,,,,,,,,,,,,,,,,,,,,,,jj44444444jj,,,,77kk",
"k7777777777777777777777777777777777777777777777k",
"877777777777777777777777777777777777777777777778",
"555555555555755555555555555555555555555555555555",
"555555555555555555555555555555555555555555555555",
"kkkkkkkkkkkkkkkkkkkkkkkkkkkkkkkkkkkkkkkkkkkkkkkk",
"kkkkkkkkkkkkkkkkkkkkkkkkkkkkkkkkkkkkkkkkkkkkkkkk"
};
