/* XPM */
static char *sign_up[] = {
/* columns rows colors chars-per-pixel */
"48 48 65 1 ",
"  c #2980B8",
". c #2980B9",
"X c #2A80B9",
"o c #2980BA",
"O c #2981BA",
"+ c #2A80BA",
"@ c #2A81BA",
"# c #2A81BB",
"$ c #2A82BC",
"% c #2A82BD",
"& c #2B83BE",
"* c #2B84BF",
"= c #3184BB",
"- c #2C85C0",
"; c #2C86C1",
": c #2D88C4",
"> c #2D89C6",
", c #2E8AC8",
"< c #2E8BC8",
"1 c #2F8CCA",
"2 c #2E8CCB",
"3 c #2F8CCB",
"4 c #308FCE",
"5 c #3090CF",
"6 c #3090D0",
"7 c #3191D0",
"8 c #3192D2",
"9 c #3292D2",
"0 c #3294D5",
"q c #3294D6",
"w c #3295D7",
"e c #3396D7",
"r c #3396D8",
"t c #3397D9",
"y c #3397DA",
"u c #3496D8",
"i c #3497DA",
"p c #3497DB",
"a c #3597DB",
"s c #3398DB",
"d c #3499DA",
"f c #3498DB",
"g c #3699DB",
"h c #3D9CDC",
"j c #4992C2",
"k c #5A9CC7",
"l c #47A1DD",
"z c #57A9DF",
"x c #72AACE",
"c c #62AEE1",
"v c #6BB2E2",
"b c #83BEE4",
"n c #A3C6DC",
"m c #9DCAE8",
"M c #BCD4E3",
"N c #BDD6E6",
"B c #B5D6EA",
"V c #CCDEE8",
"C c #C9DFED",
"Z c #D9E7EF",
"A c #E4ECEF",
"S c #E3ECF0",
"D c #EAEFF1",
"F c #ECF0F1",
"G c None",
/* pixels */
"GGGGGGGGGGGGGGGGGGGGGGGGGGGGGGGGGGGGGGGGGGGGGGGG",
"GGGGGGGGGGGGGGGGGGGGGGGGGGGGGGGGGGGGGGGGGGGGGGGG",
"GGGGGGGGGGGGGGGGGGGGGGGGGGGGGGGGGGGGGGGGGGGGGGGG",
"GGGGGGGGGGGGGGGGGGGGGGGGGGGGGGGGGGGGGGGGGGGGGGGG",
"GGGGGGGGGGGGGGGGGGGGgassssagGGGGGGGGGGGGGGGGGGGG",
"GGGGGGGGGGGGGGGGsssssaagssassgssGGGGGGGGGGGGGGGG",
"GGGGGGGGGGGGGGassgsasgasgaassasgssGGGGGGGGGGGGGG",
"GGGGGGGGGGGGGagssssgssssssgssgsssagGGGGGGGGGGGGG",
"GGGGGGGGGGGsssgsssgssssssgssgssgsssssGGGGGGGGGGG",
"GGGGGGGGGGsssaasgsassagssasaassaaggagsGGGGGGGGGG",
"GGGGGGGGGgsssggsasasgagasasgsssssssssasGGGGGGGGG",
"GGGGGGGGsssgssasssgssssssgssgsagsagssgssGGGGGGGG",
"GGGGGGGGsggassasgssggasbbsgsasgaassagsagGGGGGGGG",
"GGGGGGGassssgsgsassassvDDvasssssgssgasssaGGGGGGG",
"GGGGGGssgsssasgsssssszSFFAzsgssgssssssssssGGGGGG",
"GGGGGGssasgassasgsaglZFFFFZlassaagsagsagssGGGGGG",
"GGGGGsssssgsssssasglVFFFFFFVhsssssssssssssuGGGGG",
"GGGGGgsagsassagsssaBFFFFFFFFBsssssgaagaggasGGGGG",
"GGGGGssgasasgagasamDFFFFFFFFSmsssssssgasgssGGGGG",
"GGGGGgssssgssssssbDDFFFFFFFFDSmsssssssssssgGGGGG",
"GGGGugsagssgasssvDFFFnFFFDnDFFDvaaasagsasgsgGGGG",
"GGGGqssgassaaaszAFFFV=FFFD=VFFFSzaassssgsssqGGGG",
"GGGGqsssssssgalZFFFAj>FFFF,jSFFFZlssssssgssqGGGG",
"GGGGagsagsagggVFFFFx*aFFFFa;xFFFFClsagsaasgaGGGG",
"GGGGasssgasggBFFFFn*qaFFFFsq*nFFFFBaassgssssGGGG",
"GGGGqssgssssmFFFFV=4sgFFFFsa4=VFFFFmsssssssqGGGG",
"GGGGqssgassacVAFAj>sssFFFFsgs>jAAFVcsssassa5GGGG",
"GGGG4ssagssg>XkBx*asagFFFFssgq*xMk >sssggsaqGGGG",
"GGGG4aassgasq* * qsssgDFFFagasq*XX*qssssasg4GGGG",
"GGGG*assssssss5*4qsgssFFFFssssq4*qsssagsssa*GGGG",
"GGGGGqsggaaggaassasggaFFFFssssgsgaaggassaaqGGGGG",
"GGGGG4sassssssgssgssssFFFFagsagssssssssssa4GGGGG",
"GGGGG*asssgasgasssgssgFFFFssgasgasgasgasga*GGGGG",
"GGGGG*,ssssssssssaassaFFFFgsssssssssssssq4*GGGGG",
"GGGGGG*qgsssaggasggssaFFFFasassagssggassq GGGGGG",
"GGGGGG ;asgassssssassgFFFFssgssgassasssq>*GGGGGG",
"GGGGGGG*4sgssasssssssaFFFFsssgssssasssa4*GGGGGGG",
"GGGGGGGG 5assggsaggasaFFFFagsasagsgsag4 GGGGGGGG",
"GGGGGGGG X4asaasssssss  XXsssasgasgss4X*GGGGGGGG",
"GGGGGGGGGX 4sgsssagsag *XXsssgssssas4 XGGGGGGGGG",
"GGGGGGGGGGXX;qsssssssssssssssssassa; *GGGGGGGGGG",
"GGGGGGGGGGG**X,asssssggssagssssaa>*  GGGGGGGGGGG",
"GGGGGGGGGGGGG **,qaasaasgaasssq,* *GGGGGGGGGGGGG",
"GGGGGGGGGGGGGG    *>5qqqqqq5>*    GGGGGGGGGGGGGG",
"GGGGGGGGGGGGGGGG*  *X   *   *  *GGGGGGGGGGGGGGGG",
"GGGGGGGGGGGGGGGGGGGGXX *  X GGGGGGGGGGGGGGGGGGGG",
"GGGGGGGGGGGGGGGGGGGGGGGGGGGGGGGGGGGGGGGGGGGGGGGG",
"GGGGGGGGGGGGGGGGGGGGGGGGGGGGGGGGGGGGGGGGGGGGGGGG"
};
