/* XPM */
static char *sign_info[] = {
/* columns rows colors chars-per-pixel */
"48 48 40 1 ",
"  c #2980B8",
". c #2980B9",
"X c #2A80B9",
"o c #2980BA",
"O c #2981BA",
"+ c #2A80BA",
"@ c #2A81BA",
"# c #2A81BB",
"$ c #2A82BC",
"% c #2A82BD",
"& c #2B83BE",
"* c #2C85C0",
"= c #2D88C4",
"- c #2E8BC8",
"; c #2E8CCA",
": c #2F8CCA",
"> c #2E8CCB",
", c #2F8CCB",
"< c #3090CF",
"1 c #3090D0",
"2 c #3191D0",
"3 c #3192D2",
"4 c #3292D2",
"5 c #3294D5",
"6 c #3294D6",
"7 c #3295D7",
"8 c #3396D7",
"9 c #3396D8",
"0 c #3397D9",
"q c #3397DA",
"w c #3496D8",
"e c #3497DA",
"r c #3497DB",
"t c #3597DB",
"y c #3398DB",
"u c #3499DA",
"i c #3498DB",
"p c #90C4E6",
"a c #ECF0F1",
"s c None",
/* pixels */
"ssssssssssssssssssssssssssssssssssssssssssssssss",
"ssssssssssssssssssssssssssssssssssssssssssssssss",
"ssssssssssssssssssssssssssssssssssssssssssssssss",
"ssssssssssssssssssssssssssssssssssssssssssssssss",
"sssssssssssssssssssstuttiiiissssssssssssssssssss",
"ssssssssssssssssuuuuutttiiiittuissssssssssssssss",
"ssssssssssssssuuuuuuttttiiyyyyttiissssssssssssss",
"sssssssssssssutyuuuuttttiiyyyyyyiiisssssssssssss",
"sssssssssssyytuuiiiiiiiiiiiiiiiiyyyyisssssssssss",
"ssssssssssyyutytiiiiiiiiiiiiiiiiyyyyiissssssssss",
"sssssssssyyyuytyiiiiiiiiiiiiiiiiyyytiiisssssssss",
"ssssssssttyttyuuiiiiiiiiiiiiiiiitytyiiiissssssss",
"ssssssssytytytytiiiiiiaaaaiiiiiiytytututssssssss",
"sssssssttytytyutiiiiiiaaaaiiiiiitytytutuusssssss",
"ssssssyyytytuuyyiiiiiiaaaaiiiiiiytytttututssssss",
"ssssssyytytyyttuiiiiiiaaaaiiiiiitytytttutussssss",
"sssssuutiiiiiiiiiiiiyt#XXXytytytiiiiiiiiiiisssss",
"sssssutuiiiiiiiiiiiity#XXXtytytyiiiiiiiiiiisssss",
"ssssstutiiiiiiiiiiiiyyyyyyyyytytiiiiiiiiiiisssss",
"sssssttuiiiiiiiiiiiiyyytyyyytytyiiiiiiiiiiisssss",
"ssssuuutiiiiiiiiiiypaaaaaautytytiiiiyyyyiiuussss",
"ssssuutuiiiiiiiiiipaaaaaaayytytyiiiiyyyyiiuussss",
"ssssuuiiiiiiiiiiiii>#.aaaatuyuytiiiiyyyyiiiussss",
"ssssiiiiiiiiiiiiii6*#.aaaayuttyuiiiiiyyyiiiissss",
"ssssututiiiiiiiiiiyyyyaaaatuyytuuuuttttyyyyyssss",
"sssstttuiiiiiiiiiiiyyyaaaayututyuuutttytyyy6ssss",
"ssssqyutiiiiiiiiiiyyyyaaaattutuyuuuuttttyyt<ssss",
"ssss6tuyiiiiiiiiiiyyyyaaaauyuyutuuuutttttyt6ssss",
"ssss>yytiiiiiiiiiiiityaaaattuuuutuyuytytyty:ssss",
"ssss*ytyiiiiiiiiiiiiytaaaattuuuuyututytytyt#ssss",
"sssssqytiiiiiiiiiiiittaaaatttuuuytutuyytyt8sssss",
"sssss>tyiiiiiiiiiiiittaaaatttuuuutyyuttyty:sssss",
"sssss#tyyyytytytuyttuyaaaaytuyttuuytyyyyyt#sssss",
"sssss#>yyytytytytyuyutaaaayutyuyytyuyyyyy:#sssss",
"ssssss#tytytytytyyaaaaaaaaaaaatytytuyyttt#ssssss",
"ssssss#*tytytytyyyaaaaaaaaaaaauuuutyyttt*#ssssss",
"sssssss#<tyyuuytytXXXXXX##XXXXytytuuuut>#sssssss",
"ssssssssX<tyytyutyXXXXX#XXXXXXutyuuuuu4.ssssssss",
"ssssssssXX6ytytuytyyyyytyytyyyyytuuuu4%.ssssssss",
"sssssssssX#<uutytyyyyytyyyytyyyyuuuu4%.sssssssss",
"ssssssssss#X=8yyyyyytyytytytyyyyyyt*.#ssssssssss",
"sssssssssss#X#>yyyytyttytytyyyytt>##.sssssssssss",
"sssssssssssss#X#>6yytyytyttyyy6>###sssssssssssss",
"ssssssssssssss#X###=<668866<:#. XXssssssssssssss",
"ssssssssssssssss##X#  X#XXXX####ssssssssssssssss",
"ssssssssssssssssssss#  #XXXXssssssssssssssssssss",
"ssssssssssssssssssssssssssssssssssssssssssssssss",
"ssssssssssssssssssssssssssssssssssssssssssssssss"
};
