/* XPM */
static const char *sign_add[] = {
/* columns rows colors chars-per-pixel */
"48 48 36 1 ",
"  c #27AE5F",
". c #27AD60",
"X c #27AE60",
"o c #27AF60",
"O c #27AE61",
"+ c #27AF61",
"@ c #28AE60",
"# c #28AE61",
"$ c #27B061",
"% c #28B162",
"& c #28B262",
"* c #28B563",
"= c #29B866",
"- c #2ABB68",
"; c #2BBD68",
": c #2BBD69",
"> c #2BBE69",
", c #2BC26B",
"< c #2CC16B",
"1 c #2CC36C",
"2 c #2DC46C",
"3 c #2CC46D",
"4 c #2DC76E",
"5 c #2DC86E",
"6 c #2DC86F",
"7 c #2DCA70",
"8 c #2DCB71",
"9 c #2ECA70",
"0 c #2ECB70",
"q c #2ECB71",
"w c #2DCC71",
"e c #2ECC70",
"r c #2ECD70",
"t c #2ECC71",
"y c #ECF0F1",
"u c None",
/* pixels */
"uuuuuuuuuuuuuuuuuuuuuuuuuuuuuuuuuuuuuuuuuuuuuuuu",
"uuuuuuuuuuuuuuuuuuuuuuuuuuuuuuuuuuuuuuuuuuuuuuuu",
"uuuuuuuuuuuuuuuuuuuuuuuuuuuuuuuuuuuuuuuuuuuuuuuu",
"uuuuuuuuuuuuuuuuuuuuuuuuuuuuuuuuuuuuuuuuuuuuuuuu",
"uuuuuuuuuuuuuuuuuuuuttttttttuuuuuuuuuuuuuuuuuuuu",
"uuuuuuuuuuuuuuuuwtttttttttttttwwuuuuuuuuuuuuuuuu",
"uuuuuuuuuuuuuuttwtttttttttttttetttuuuuuuuuuuuuuu",
"uuuuuuuuuuuuutttettttttttttttttttttuuuuuuuuuuuuu",
"uuuuuuuuuuuettttttttttttttttttttttttwuuuuuuuuuuu",
"uuuuuuuuuueettttttttttttttttttttttttteuuuuuuuuuu",
"uuuuuuuuueeetttttttttttttttttttttttttttuuuuuuuuu",
"uuuuuuuueeeettttttttttttttttttttttttttteuuuuuuuu",
"uuuuuuuueettttttttttttyyyyttttttttttttttuuuuuuuu",
"uuuuuuueeettttttttttttyyyytttttttttttttttuuuuuuu",
"uuuuuuwwetttttttttttttyyyyttttttttttttttttuuuuuu",
"uuuuuuwwttttttttttttttyyyyttttttttttttttteuuuuuu",
"uuuuuettttttttttttttttyyyytttttttttttttttteuuuuu",
"uuuuuqttttttttttttttttyyyytttttttttttttttttuuuuu",
"uuuuutttttttttttttttttyyyytttttttttttttttttuuuuu",
"uuuuutttttttttttttttttyyyytttttttttttttttttuuuuu",
"uuuuqeetttttweetttttttyyyyttttttttttttttttteuuuu",
"uuuu6ttttttt66eettttttyyyytttttttttttttttte6uuuu",
"uuuu6tttttttyyyyyyyyyyyyyyyyyyyyyyyyttttttt6uuuu",
"uuuuetttttttyyyyyyyyyyyyyyyyyyyyyyyyttttttteuuuu",
"uuuuttttttttyyyyyyyyyyyyyyyyyyyyyyyywwtteewwuuuu",
"uuuu6tttttttyyyyyyyyyyyyyyyyyyyyyyyyewtteew4uuuu",
"uuuu6ttttttt#+++++++##yyyy%+++++++##eeeteew4uuuu",
"uuuu>ttttttt##++.++++#yyyy#++++++++#eeeeee54uuuu",
"uuuu:weetttttttt6eeettyyyytt6eeetttttttteee:uuuu",
"uuuu=weettttttttwweettyyyyttwweetttttttteew=uuuu",
"uuuuu6ettttttttttteettyyyyttteeettttttttee6uuuuu",
"uuuuu>tttttttttttteettyyyyttteeetttttteeee:uuuuu",
"uuuuu%wweettttttttttttyyyyttttttttttttttte=uuuuu",
"uuuuu+:weettttttttttttyyyyttttttttttttttt>#uuuuu",
"uuuuuu+6etttttttttttttyyyytttttttttttteew#uuuuuu",
"uuuuuu#:ttttttttttttttyyyyttttttttttttew=#uuuuuu",
"uuuuuuu#:6eettttttttww####ttttttttttttw:+uuuuuuu",
"uuuuuuuu#6ewtttttttte6+#+#tttttttttttt>+uuuuuuuu",
"uuuuuuuu##6wtttttttteeeeweetttttttttt6#+uuuuuuuu",
"uuuuuuuuu+#>ttttttttteeewweetttttttt>#+uuuuuuuuu",
"uuuuuuuuuu++=wwweeeeeeeeeeeeeewwwww=++uuuuuuuuuu",
"uuuuuuuuuuu+++:wwweeeeeeeeeweeeww:+++uuuuuuuuuuu",
"uuuuuuuuuuuuu###:5wwewweee6wee4:##+uuuuuuuuuuuuu",
"uuuuuuuuuuuuuu####%=666qq644:% +##uuuuuuuuuuuuuu",
"uuuuuuuuuuuuuuuu+# + + +#+++++#+uuuuuuuuuuuuuuuu",
"uuuuuuuuuuuuuuuuuuuu+ ++##++uuuuuuuuuuuuuuuuuuuu",
"uuuuuuuuuuuuuuuuuuuuuuuuuuuuuuuuuuuuuuuuuuuuuuuu",
"uuuuuuuuuuuuuuuuuuuuuuuuuuuuuuuuuuuuuuuuuuuuuuuu"
};
