/* XPM */
static const char *sign_right[] = {
/* columns rows colors chars-per-pixel */
"48 48 92 1 ",
"  c #2980B8",
". c #2980B9",
"X c #2A80B9",
"o c #2980BA",
"O c #2981BA",
"+ c #2A80BA",
"@ c #2A81BA",
"# c #2B81BA",
"$ c #2A81BB",
"% c #2A82BC",
"& c #2A82BD",
"* c #2A83BD",
"= c #2B83BE",
"- c #2B84BF",
"; c #2B85BF",
": c #3184BB",
"> c #3285BC",
", c #3E8CBF",
"< c #2C85C0",
"1 c #2C86C1",
"2 c #2C87C3",
"3 c #2D88C4",
"4 c #2D89C6",
"5 c #2E8AC8",
"6 c #2E8BC8",
"7 c #2F8CCA",
"8 c #2E8CCB",
"9 c #2F8CCB",
"0 c #2F8ECC",
"q c #308FCE",
"w c #3090CF",
"e c #3090D0",
"r c #3191D0",
"t c #3191D1",
"y c #3192D2",
"u c #3292D2",
"i c #3293D5",
"p c #3294D5",
"a c #3294D6",
"s c #3295D7",
"d c #3395D7",
"f c #3396D7",
"g c #3396D8",
"h c #3397D9",
"j c #3397DA",
"k c #3496D8",
"l c #3497DA",
"z c #3497DB",
"x c #3597DB",
"c c #3398DB",
"v c #3499DA",
"b c #3498DB",
"n c #3699DB",
"m c #3B9BDC",
"M c #3D9CDC",
"N c #4992C2",
"B c #4E95C4",
"V c #5A9CC7",
"C c #47A1DD",
"Z c #5FA7D7",
"A c #52A6DF",
"S c #57A9DF",
"D c #63A1CA",
"F c #72AACE",
"G c #7CB0D1",
"H c #77B5DE",
"J c #62AEE1",
"K c #6BB2E2",
"L c #79B9E3",
"P c #83BEE4",
"I c #99C0D9",
"U c #A3C6DC",
"Y c #9DCAE8",
"T c #A7CFE9",
"R c #B2CFE0",
"E c #BCD4E3",
"W c #B5D6EA",
"Q c #BFDAEC",
"! c #C7DBE6",
"~ c #CCDEE8",
"^ c #C9DFED",
"/ c #CEE2ED",
"( c #D7E4EB",
") c #D9E7EF",
"_ c #E3EBEE",
"` c #E4ECEF",
"' c #E3ECF0",
"] c #E5EDF0",
"[ c #EAEFF0",
"{ c #EAEFF1",
"} c #ECF0F1",
"| c None",
/* pixels */
"||||||||||||||||||||||||||||||||||||||||||||||||",
"||||||||||||||||||||||||||||||||||||||||||||||||",
"||||||||||||||||||||||||||||||||||||||||||||||||",
"||||||||||||||||||||||||||||||||||||||||||||||||",
"||||||||||||||||||||nxccccxn||||||||||||||||||||",
"||||||||||||||||cccccxxnccxccncc||||||||||||||||",
"||||||||||||||xccncxcnxcnxxccxcncc||||||||||||||",
"|||||||||||||xnccccnccccccnccnccccx|||||||||||||",
"|||||||||||cccncxnccccxccnccnccnccncc|||||||||||",
"||||||||||cccxxccccccxcxcxcxxccxcxxccn||||||||||",
"|||||||||ncccnncccccccxccxcncccccnncccc|||||||||",
"||||||||cccnccxcxncccccxcnccncxnccxcnxcn||||||||",
"||||||||cnnxccxccnxccccJYxcxxcnxccccxncx||||||||",
"|||||||xccccncncccccccc^[WCnccccxnnxcccnx|||||||",
"||||||ccncccxcncxnnxccJ}[[^Cnccncccccccccc||||||",
"||||||ccxcnxccxccccccx!}}}[)Sccxcxncxncccc||||||",
"|||||kccxncxncxncxccccH`[[}}]Knxnxcnxcnxcnc|||||",
"|||||ncxcccnxccccnnccc1B~[[[[[Pxccccccccccc|||||",
"|||||ccncccccccccxxcccq+>U[[}}}Yccncncccxnn|||||",
"|||||cccxncxncxncncccxxx<+F[}}}}Qnxcxcnxccc|||||",
"||||kxxccnxccccccnnxccccx4+B^[}}}^Ccncxnccxk||||",
"||||kccccccccccccxccncxnxx0#>U}}}})Sxcccxnxk||||",
"||||kcncxnnx}}}}}}}}[}}}[}}}}}}}}}}`Kccccnxk||||",
"||||xcxccccc}}}}}}}}}}}}}}}}}}}}}}}}[Pxncccx||||",
"||||ccnxxccx}}}}}}}}}}}}}}}}}}}}}}}[[Pccccxx||||",
"||||kcccnccn}}}[}}}[}}}[}}}[}}}}}}}`Dqcxccxk||||",
"||||kccncccc#++ #   #+++#   >U}}[})B qxnccxw||||",
"||||qccxxncx++ +  + +++#   N^}}}[!,#wccccckk||||",
"||||qxccnxcnccncxcccccncxxL[[}}}R>#kcxcccccq||||",
"||||#xccccccncxccccccxxcnT[}[}}I##cccnccccc#||||",
"|||||kcnxccxxcxccxcccncA([[}[[G#<cnccnccxxk|||||",
"|||||qcxnccnccnccnccccL]}[[[`D qccxccxcccxq|||||",
"|||||#xccccnxcnxcccccc![[}})B+0cccccccncck#|||||",
"|||||#0xccccccccxnnxxnZ[[[!,#wxcccxnccxckq#|||||",
"||||||#xcccxnccncccccn<E}R>#kxccccccccxxk#||||||",
"||||||#<cccnxccxcxnccckVI##xxncxcxnccccx3#||||||",
"|||||||#qkcccnxcxccxccc##<xccccnnxcnxccq#|||||||",
"|||||||| kncccccnccnccck0cccccccccccccw+||||||||",
"||||||||  qxxnnxccccncccxccccccxcccxnq#+||||||||",
"|||||||||  qccccxncxncccxcccnxcnnxcnq +|||||||||",
"||||||||||#+<xccccccccccccccxcxxcxx<+#||||||||||",
"|||||||||||###0xcxcccccxcccccxcxx0## |||||||||||",
"|||||||||||||# O0yxxcxxxcccccck0OO#|||||||||||||",
"||||||||||||||   O#0kqkkkky00# + O||||||||||||||",
"||||||||||||||||#+ #   +#+ +#+ #||||||||||||||||",
"||||||||||||||||||||+  #  + ||||||||||||||||||||",
"||||||||||||||||||||||||||||||||||||||||||||||||",
"||||||||||||||||||||||||||||||||||||||||||||||||"
};
