/* XPM */
static char *star_alt[] = {
/* columns rows colors chars-per-pixel */
"48 48 48 1 ",
"  c #F39B12",
". c #F39C11",
"X c #F29C12",
"o c #F39C12",
"O c #F39D12",
"+ c #F39C13",
"@ c #F39E12",
"# c #F49C12",
"$ c #F3B00F",
"% c #F1B50F",
"& c #F1BB0F",
"* c #F1BC0F",
"= c #F1BD0F",
"- c #F1BE0F",
"; c #F1BF0F",
": c #F3A012",
"> c #F3A112",
", c #F3A212",
"< c #F3A312",
"1 c #F3A411",
"2 c #F2A711",
"3 c #F2AB10",
"4 c #F2AB11",
"5 c #F1AE11",
"6 c #F2AE11",
"7 c #F2AF11",
"8 c #F2B010",
"9 c #F2B011",
"0 c #F2B210",
"q c #F2B310",
"w c #F2B311",
"e c #F1B410",
"r c #F2B510",
"t c #F1B710",
"y c #F2B610",
"u c #F1B810",
"i c #F2B810",
"p c #F2B910",
"a c #F1BC10",
"s c #F1BD10",
"d c #F2BE10",
"f c #F1C00F",
"g c #F2C00F",
"h c #F1C20F",
"j c #F1C30F",
"k c #F2C30F",
"l c #F1C40F",
"z c None",
/* pixels */
"zzzzzzzzzzzzzzzzzzzzzzzzzzzzzzzzzzzzzzzzzzzzzzzz",
"zzzzzzzzzzzzzzzzzzzzzzzopzzzzzzzzzzzzzzzzzzzzzzz",
"zzzzzzzzzzzzzzzzzzzzzzzolzzzzzzzzzzzzzzzzzzzzzzz",
"zzzzzzzzzzzzzzzzzzzzzzoolpzzzzzzzzzzzzzzzzzzzzzz",
"zzzzzzzzzzzzzzzzzzzzzzoollzzzzzzzzzzzzzzzzzzzzzz",
"zzzzzzzzzzzzzzzzzzzzzzoollezzzzzzzzzzzzzzzzzzzzz",
"zzzzzzzzzzzzzzzzzzzzzoooll;zzzzzzzzzzzzzzzzzzzzz",
"zzzzzzzzzzzzzzzzzzzzzooolllezzzzzzzzzzzzzzzzzzzz",
"zzzzzzzzzzzzzzzzzzzzoooolllpzzzzzzzzzzzzzzzzzzzz",
"zzzzzzzzzzzzzzzzzzzzoooollllzzzzzzzzzzzzzzzzzzzz",
"zzzzzzzzzzzzzzzzzzzooooollllpzzzzzzzzzzzzzzzzzzz",
"zzzzzzzzzzzzzzzzzzzooooolllllzzzzzzzzzzzzzzzzzzz",
"zzzzzzzzzzzzzzzzzzoooooolllllpzzzzzzzzzzzzzzzzzz",
"zzzzzzzzzzzzzzzzzzoooooollllllzzzzzzzzzzzzzzzzzz",
"zzzzzzzzzzzzzzzzzzoooooollllllezzzzzzzzzzzzzzzzz",
"zzzzzzzzzzzzzzzzzooooooolllllllzzzzzzzzzzzzzzzzz",
"zzzzzzzzzzzzzzzzzooooooolllllllezzzzzzzzzzzzzzzz",
"zzzzzzzzzzzzzzzzoooooooolllllllpzzzzzzzzzzzzzzzz",
"zzzzzzzzzzppppgl6ooooooollllllleoooozzzzzzzzzzzz",
"zzepppplgglllgllleoooooollllll6ooooooooooooozzzz",
"z6epllllllllllllll6ooooolllll6oooooooooooooo:6ee",
"zzooo6eglllllllllll$oooollll$oooooooooooo6ellgzz",
"zzzooooo:6pggllgllll$ooollleoooooooo:6pgglllgzzz",
"zzzzoooooooo:6ppllllleooll$ooooo:6ellgllgllgzzzz",
"zzzzzooooooooooo:6ppgg6ol6oo:6e;lllllllllgpzzzzz",
"zzzzzzzooooooooooooo:6e6$6elllllllllllllgezzzzzz",
"zzzzzzzzooooooooooooo:e666;llllllllllllgzzzzzzzz",
"zzzzzzzzzooooooooo:ell;:l:o:6;llllllllgzzzzzzzzz",
"zzzzzzzzzzooooo:6;llgl:olpoooo:eplllggzzzzzzzzzz",
"zzzzzzzzzzzo:e;lllllge:olgeooooo::eppzzzzzzzzzzz",
"zzzzzzzzzzzzglllllllpooollg6oooooooozzzzzzzzzzzz",
"zzzzzzzzzzztlllllll;:oo:llggooooooo:zzzzzzzzzzzz",
"zzzzzzzzzzzpgllllll6ooooglllpoooooooozzzzzzzzzzz",
"zzzzzzzzzzzglllllleooooollllgeooooooozzzzzzzzzzz",
"zzzzzzzzzzzlllllggoooooollllll:oooooozzzzzzzzzzz",
"zzzzzzzzzzzgllllg:oooooollllllgoooooozzzzzzzzzzz",
"zzzzzzzzzzelllll6ooooooollllllleooooozzzzzzzzzzz",
"zzzzzzzzzzplllgpoooooooollllllll6ooooozzzzzzzzzz",
"zzzzzzzzzzlllll:ooooooozeggllllll:oooozzzzzzzzzz",
"zzzzzzzzzzllll:ooooooozzzzpllllll;oooozzzzzzzzzz",
"zzzzzzzzzelll6oooooozzzzzzzzgllllleooozzzzzzzzzz",
"zzzzzzzzzpllpooooozzzzzzzzzzzpggllg6ooozzzzzzzzz",
"zzzzzzzzzplg:oooozzzzzzzzzzzzzzplllg:oozzzzzzzzz",
"zzzzzzzzzgl6ooozzzzzzzzzzzzzzzzzellgpoozzzzzzzzz",
"zzzzzzzzzgeooozzzzzzzzzzzzzzzzzzzzpgleozzzzzzzzz",
"zzzzzzzzppoozzzzzzzzzzzzzzzzzzzzzzzzpg:zzzzzzzzz",
"zzzzzzzzp:zzzzzzzzzzzzzzzzzzzzzzzzzzzpp:zzzzzzzz",
"zzzzzzzz6zzzzzzzzzzzzzzzzzzzzzzzzzzzzzz6zzzzzzzz"
};
