/* XPM */
static const char *star[] = {
/* columns rows colors chars-per-pixel */
"48 48 42 1 ",
"  c #F39B12",
". c #F39C11",
"X c #F39C12",
"o c #F39D12",
"O c #F39C13",
"+ c #F39E12",
"@ c #F39F12",
"# c #F1BE0F",
"$ c #F1BF0F",
"% c #F3A311",
"& c #F3A012",
"* c #F3A212",
"= c #F3A411",
"- c #F2A711",
"; c #F2A811",
": c #F2A911",
"> c #F3AB10",
", c #F2AB11",
"< c #F2AD11",
"1 c #F2AE11",
"2 c #F2B210",
"3 c #F2B310",
"4 c #F1B410",
"5 c #F2B410",
"6 c #F3B410",
"7 c #F2B510",
"8 c #F2B511",
"9 c #F1B710",
"0 c #F2B610",
"q c #F1B810",
"w c #F2B810",
"e c #F2B910",
"r c #F1BA10",
"t c #F2BA10",
"y c #F1BC10",
"u c #F1BD10",
"i c #F2BE10",
"p c #F1C00F",
"a c #F1C20F",
"s c #F1C30F",
"d c #F1C40F",
"f c None",
/* pixels */
"ffffffffffffffffffffffffffffffffffffffffffffffff",
"fffffffffffffffffffffffyyfffffffffffffffffffffff",
"fffffffffffffffffffffffdsfffffffffffffffffffffff",
"ffffffffffffffffffffffyss7ffffffffffffffffffffff",
"ffffffffffffffffffffffssssffffffffffffffffffffff",
"fffffffffffffffffffff7ssss7fffffffffffffffffffff",
"fffffffffffffffffffff$sssssfffffffffffffffffffff",
"ffffffffffffffffffff7ssssss7ffffffffffffffffffff",
"ffffffffffffffffffffpdddsddpffffffffffffffffffff",
"ffffffffffffffffffffpdddddddffffffffffffffffffff",
"fffffffffffffffffffyddddddddyfffffffffffffffffff",
"fffffffffffffffffffdddddddddpfffffffffffffffffff",
"ffffffffffffffffffypddddddddpyffffffffffffffffff",
"ffffffffffffffffffppdddddddddpffffffffffffffffff",
"fffffffffffffffffyddddddddddssyfffffffffffffffff",
"fffffffffffffffffpddddddddddssyfffffffffffffffff",
"ffffffffffffffff7ddddddddddddddyffffffffffffffff",
"ffffffffffffffffypddddddddddddpyffffffffffffffff",
"ffffffffffyyyyppddddddddddddddpdppyyyyffffffffff",
"fff7yyppppddppddddddddddddddddddddpdpdpppiiy6fff",
"fO=ppdddddddddddddddddddddddddddddddddddppppp=Of",
"ffOOypddddddddddddddddddddddddddddddddddddpyO=ff",
"fffO 7dddddddddddddddddddddddddddddddddddpyOOfff",
"ffff  7dddddddddddddddddddddddddddddddddd6OOffff",
"fffffOO>pdddddddddddddddddddddddddddddpp>  fffff",
"fffffff &yddddddddddddddddddddddddddddp& fffffff",
"ffffffff &ypdddddddddddddddddddddddddy  ffffffff",
"fffffffff  7ddddddddddddddddddddddddy  fffffffff",
"ffffffffff &dddddddddddddddddddddddd& ffffffffff",
"fffffffffff>dddddddddddddddddddddddd>fffffffffff",
"ffffffffffffdddddddddddddddddddddddpffffffffffff",
"fffffffffffydddddddddddddddddddddddp7fffffffffff",
"fffffffffffypdddddddddddddddddddddddyfffffffffff",
"fffffffffffppdddddddddddddddddddddddpfffffffffff",
"fffffffffffpddddddddddddddddddddddddpfffffffffff",
"fffffffffffpdddddddddddddddddddddddddfffffffffff",
"ffffffffffydddddddddss$>>sssdddddddddyffffffffff",
"ffffffffffyddddddsdds6OO  7dddddddddpyffffffffff",
"ffffffffffpdddddsss$& Off &&pppdddddppffffffffff",
"ffffffffffddddddss>&  ffff   7pdddddddffffffffff",
"fffffffff6dddddd$OOOffffffffOOO$dddddp7fffffffff",
"fffffffffyddddp>OOffffffffffffO >pdpdpyfffffffff",
"fffffffffyppp7=OOffffffffffffff&&&7pddpfffffffff",
"fffffffffpdp=OOffffffffffffffffff O=pdpfffffffff",
"fffffffffs>OOOffffffffffffffffffff   7pfffffffff",
"ffffffff>& Offffffffffffffffffffffff&  >ffffffff",
"ffffffff  ffffffffffffffffffffffffffff  ffffffff",
"ffffffff ffffffffffffffffffffffffffffff ffffffff"
};
