/* XPM */
static char *tag_alt[] = {
/* columns rows colors chars-per-pixel */
"48 48 29 1 ",
"  c #8D43AD",
". c #8D44AD",
"X c #8E44AD",
"o c #8E45AD",
"O c #8E44AE",
"+ c #8F45AE",
"@ c #8F46AE",
"# c #9047AE",
"$ c #9148AF",
"% c #914AAF",
"& c #924BB0",
"* c #934CB0",
"= c #944EB1",
"- c #954FB2",
"; c #9854B4",
": c #9956B5",
"> c #9B5AB5",
", c #9A58B6",
"< c #9B58B6",
"1 c #9A59B6",
"2 c #9B59B6",
"3 c #9A59B7",
"4 c #9C59B6",
"5 c #7F8C8D",
"6 c #B5BEBF",
"7 c #BD9ACF",
"8 c #C4A5D4",
"9 c #ECF0F1",
"0 c None",
/* pixels */
"002222222222222222230000000000000000000000000000",
"022222222222222222222000000000000000000000000000",
"222222222222222222222220000000000000000000000000",
"222222222222222222222222000000000000000000000000",
"222222222222222222222222200000000000000000000000",
"222222222222222222222222220000000000000000000000",
"2222222:&X#&:22222222222222000000000000000000000",
"222222:#XXXXX:2222222222222200000000000000000000",
"222222&X0000X&2222222222222220000000000000000000",
"222222#000000#2222222222222222000000000000000000",
"222222000000002222222228822222200000000000000000",
"2222220000000022222222899822222>0000000000000000",
"222222200000022222222899998222222000000000000000",
"222222220000222222228999999822222200000000000000",
"222222222222222222289999999982222220000000000000",
"222222222222222222899999999998222222000000000000",
"2222222222222222289999966999997.2222200000000000",
"222222222222222289999965699999972222220000000000",
"222222222222222899999656999999998222222000000000",
",22222222222228999996569999999999822222200000000",
"#22222222222389999965699999669999982222220000000",
"X&2222222222899999656999996569999998222222000000",
"0X,,22222228999996569999965699999999822222200000",
"00X&22222289999966699999656999999999982222200000",
"00XX&:223,89999966999996569999966999998222220000",
"000XX,22>3&7999999999965699999656999999822220000",
"0000XX&2>>=X799999999656999996569999999822220000",
"00000XX,>>>=X79999996569999965699999997%22220000",
"000000XX=>>>%o799999669999965699999997#&222&0000",
"0000000X#=>>>%o7999999999965699999997#&222&X0000",
"00000000##=>>>%o79999999965699999997X&22:,X00000",
"000000000oo=>>>o.799999965699999997X,322&XX00000",
"0000000000XX&:22%#7999996699999997X%222,XX000000",
"00000000000XX,22:,X79999999999997X&22:&XX0000000",
"000000000000XX&222&X799999999997X,222,XX00000000",
"0000000000000XX,222&X7999999997#%222&XX000000000",
"00000000000000XX,::2,X79999997X%222,XX0000000000",
"000000000000000XX&22:&X799997X,222&XX00000000000",
"0000000000000000XX,2:2&X7997X&222&#X000000000000",
"00000000000000000XX&22:,X77X%222&##0000000000000",
"000000000000000000XX,:22%X#&222&XX00000000000000",
"0000000000000000000XX&222,&22:,XX000000000000000",
"00000000000000000000XX&322222&XX0000000000000000",
"000000000000000000000XX&:222&XX00000000000000000",
"0000000000000000000000XXX&#XXX000000000000000000",
"000000000000000000000000XXXX00000000000000000000",
"000000000000000000000000000000000000000000000000",
"000000000000000000000000000000000000000000000000"
};
