/* XPM */
static const char *tag[] = {
/* columns rows colors chars-per-pixel */
"48 48 27 1 ",
"  c #27AE60",
". c #27AF61",
"X c #28AD60",
"o c #28AE60",
"O c #27B061",
"+ c #27B162",
"@ c #28B162",
"# c #28B464",
"$ c #29B665",
"% c #29B866",
"& c #2AB966",
"* c #2ABD68",
"= c #2BBD69",
"- c #2CC56D",
"; c #2DC86F",
": c #2ECA70",
"> c #2ECB70",
", c #2ECB72",
"< c #2DCC71",
"1 c #2ECC71",
"2 c #2ECD71",
"3 c #7F8C8D",
"4 c #B5BEBF",
"5 c #8ACFA9",
"6 c #8DDEB1",
"7 c #ECF0F1",
"8 c None",
/* pixels */
"881111111111111111118888888888888888888888888888",
"811111111111111111111888888888888888888888888888",
"111111111111111111111118888888888888888888888888",
"111111111111111111111111888888888888888888888888",
"111111111111111111111111188888888888888888888888",
"111111111111111111111111118888888888888888888888",
"1111111;$++&-11111111111111888888888888888888888",
"111111;+     11111111111111188888888888888888888",
"111111&+8888 &1111111111111118888888888888888888",
"111111+888888+1111111111111111888888888888888888",
"111111888888881111111116611111188888888888888888",
"1111118888888811111111677611111,8888888888888888",
"111111;8888881111111167777611111,888888888888888",
"111111118888111111116777777611111188888888888888",
"111111111111111111167777777761111118888888888888",
"111111111111111111677777777776111111888888888888",
"111111111111111116777774477777611111188888888888",
"111111111111111167777743477777761111118888888888",
"111111111111111677777434777777776111111888888888",
"-11111111111116777774347777777777611111188888888",
"+11111111111167777743477777447777761111118888888",
" =1111111111677777434777774347777776111111888888",
"8 =111111116777774347777743477777777611111188888",
"88 =11111167777743477777434777777777761111188888",
"88o =1111167777744777774347777744777776111118888",
"888o =1111=5777777777743477777434777777611118888",
"8888o =111= 577777777434777774347777777611118888",
"88888o =111= 57777774347777743477777775&11118888",
"888888o =111= 577777447777743477777775 =111&8888",
"8888888o =111= 5777777777743477777775 &111= 8888",
"88888888  =111= 57777777743477777775 =111= 88888",
"888888888  =111= 577777743477777775 =111= o88888",
"8888888888o =111=+5777774477777775 &111= o888888",
"88888888888o =111& 57777777777775 -111= o8888888",
"888888888888o =111= 577777777775 -;;1= o88888888",
"8888888888888o =111= 5777777775 &22;= o888888888",
"88888888888888o =111& 57777775 &;21=  8888888888",
"888888888888888o =111= 577775 -111= o88888888888",
"8888888888888888o =111= 5775 -;11&  888888888888",
"88888888888888888  =111= 55 &1;1-  8888888888888",
"888888888888888888o =111=  =111= o88888888888888",
"8888888888888888888o =111==111= o888888888888888",
"88888888888888888888o =111111= o8888888888888888",
"888888888888888888888o &;11;= o88888888888888888",
"8888888888888888888888o  +++ o888888888888888888",
"888888888888888888888888   +88888888888888888888",
"888888888888888888888888888888888888888888888888",
"888888888888888888888888888888888888888888888888"
};
