/* XPM */
static char *user_female[] = {
/* columns rows colors chars-per-pixel */
"48 48 95 2 ",
"   c #2C3E50",
".  c #2D3F53",
"X  c #2D4051",
"o  c #2E4154",
"O  c #304558",
"+  c #32475B",
"@  c #33495E",
"#  c #334A5E",
"$  c #34495E",
"%  c #35495E",
"&  c #34495F",
"*  c #35495F",
"=  c #344A5E",
"-  c #344A5F",
";  c #364B5F",
":  c #364B60",
">  c #374C60",
",  c #384D61",
"<  c #394E61",
"1  c #394D62",
"2  c #394E62",
"3  c #3A4F62",
"4  c #3B4F63",
"5  c #3C5064",
"6  c #3E5366",
"7  c #425362",
"8  c #415468",
"9  c #46596B",
"0  c #46596C",
"q  c #47596C",
"w  c #475A6C",
"e  c #485B6D",
"r  c #4F6273",
"t  c #5B6976",
"y  c #586A7A",
"u  c #D35400",
"i  c #D35501",
"p  c #D35907",
"a  c #D45806",
"s  c #D8702B",
"d  c #D87533",
"f  c #D97A3C",
"g  c #DA8349",
"h  c #DB874E",
"j  c #CE9167",
"k  c #617181",
"l  c #6D7985",
"z  c #6F7D8B",
"x  c #707E8B",
"c  c #707F8C",
"v  c #7A8691",
"b  c #7A8794",
"n  c #85919C",
"m  c #BCA794",
"M  c #8A95A0",
"N  c #8D98A3",
"B  c #8F9AA4",
"V  c #95A5A6",
"C  c #9AA4AC",
"Z  c #9DA5AD",
"A  c #9BAAAB",
"S  c #9EABAB",
"D  c #9EACAE",
"F  c #9FADAE",
"G  c #A0AEAF",
"H  c #ADB0A9",
"J  c #A7AFB7",
"K  c #A3B1B2",
"L  c #A9B4B6",
"P  c #AAB2B9",
"I  c #AAB7B9",
"U  c #B1B9BD",
"Y  c #B1B8BE",
"T  c #B4BBBF",
"R  c #E2B392",
"E  c #E3B799",
"W  c #E6CAB6",
"Q  c #B5BCC1",
"!  c #B9C0C4",
"~  c #B9C0C5",
"^  c #B8C2C4",
"/  c #BBC2C6",
"(  c #BCC2C6",
")  c #BDC3C7",
"_  c #B8C4C4",
"`  c #CFD6D5",
"'  c #CED7D8",
"]  c #E6D4C6",
"[  c #E8D6C9",
"{  c #DDE3E4",
"}  c #EAE6E2",
"|  c #E5EAEB",
" . c #E9EDEF",
".. c #ECF0F1",
"X. c None",
/* pixels */
"X.X.X.X.X.X.X.X.X.X.X.X.X.X.X.X.X.X.X.X.X.r w % : 8 r X.X.X.X.X.X.X.X.X.X.X.X.X.X.X.X.X.X.X.X.X.",
"X.X.X.X.X.X.X.X.X.X.X.X.X.X.X.X.X.X.e 5 % % # # : : % % 5 w X.X.X.X.X.X.X.X.X.X.X.X.X.X.X.X.X.X.",
"X.X.X.X.X.X.X.X.X.X.X.X.X.X.X.X.X.8 # % % % # # % # # % % # 8 X.X.X.X.X.X.X.X.X.X.X.X.X.X.X.X.X.",
"X.X.X.X.X.X.X.X.X.X.X.X.X.X.X.X.1 % % % % % % w 8 : # % % # # 1 X.X.X.X.X.X.X.X.X.X.X.X.X.X.X.X.",
"X.X.X.X.X.X.X.X.X.X.X.X.X.X.# @ # # @ % @ % # N N @ @ % % % % % % # X.X.X.X.X.X.X.X.X.X.X.X.X.X.",
"X.X.X.X.X.X.X.X.X.X.X.X.X.X.% % % % % @ % @ y ) ) y % % % % % % % % X.X.X.X.X.X.X.X.X.X.X.X.X.X.",
"X.X.X.X.X.X.X.X.X.X.X.X.X.# % @ % % % % @ # J ) ) J : # % @ % @ % % # X.X.X.X.X.X.X.X.X.X.X.X.X.",
"X.X.X.X.X.X.X.X.X.X.X.X.# # @ % % % % % % n ) ) ) ) n % @ % @ % % # # # X.X.X.X.X.X.X.X.X.X.X.X.",
"X.X.X.X.X.X.X.X.X.X.X.# % @ % @ @ % : : b ) ) ) ) ) ) b # # % % % @ % @ @ X.X.X.X.X.X.X.X.X.X.X.",
"X.X.X.X.X.X.X.X.X.X.X.# % % @ % % % : z ) ) ) ) ) ) ) ) z : % % % % @ % # X.X.X.X.X.X.X.X.X.X.X.",
"X.X.X.X.X.X.X.X.X.X.X.# % % % # @ 5 N ) ) ) ) ) ) ) ) ) ) N 5 : % % % % # X.X.X.X.X.X.X.X.X.X.X.",
"X.X.X.X.X.X.X.X.X.X.# # % % % # k Q ) ) ) ) ) ) ) ) ) ) ) ) I k % % % % # % X.X.X.X.X.X.X.X.X.X.",
"X.X.X.X.X.X.X.X.X.X.% % % % : z ~ ) ) ) ) ) ) ) ) ) ) ) ) ) ) ) c # # % # # X.X.X.X.X.X.X.X.X.X.",
"X.X.X.X.X.X.X.X.X.X.1 # % % w ) ) ) ) ) ) ) ) ) ) ) ) ) ) ) ) ) ~ e % % # : X.X.X.X.X.X.X.X.X.X.",
"X.X.X.X.X.X.X.X.X.X.; # % % z ) ) ) ) ) ) ) ) ) ) ) ) ) ) ) ) ) ) c % % # 1 X.X.X.X.X.X.X.X.X.X.",
"X.X.X.X.X.X.X.X.X.X.1 # % % n ) ) ) ) ) ) ) ) ) ) ) ) ) ) ) ) ) ) n % % % 1 X.X.X.X.X.X.X.X.X.X.",
"X.X.X.X.X.X.X.X.X.X.1 % % % B ` ) ) ) ) ) ) ) ) ) ) ) ) ) ) ) ) ` B % % % 1 X.X.X.X.X.X.X.X.X.X.",
"X.X.X.X.X.X.X.X.X.X.# % % % J ( ) ) ) ) ) ) ) ) ) ) ) ) ) ) ) ) Q J % % % % X.X.X.X.X.X.X.X.X.X.",
"X.X.X.X.X.X.X.X.X.X.X.# % % Y Q ) ) ) ) ) ) ) ) ) ) ) ) ) ) ) ) Q Q % % % X.X.X.X.X.X.X.X.X.X.X.",
"X.X.X.X.X.X.X.X.X.X.X.% % % ` ~ ) ) ) ) ) ) ) ) ) ) ) ) ) ) ) ) ` ~ # % % X.X.X.X.X.X.X.X.X.X.X.",
"X.X.X.X.X.X.X.X.X.X.X.# % 1 ~ Q ) ) ) ) ) ) ) ) ) ) ) ) ) ) ) ) ` Q * % : X.X.X.X.X.X.X.X.X.X.X.",
"X.X.X.X.X.X.X.X.X.X.X.# % 1 ` Q ) ) ) ) ) ) ) ) ) ) ) ) ) ) ) ) Q Q 1 % : X.X.X.X.X.X.X.X.X.X.X.",
"X.X.X.X.X.X.X.X.X.X.X.# % % Q ` ) ) ) ) ) ) ) ) ) ) ) ) ) ) ) ) ~ ` # % % X.X.X.X.X.X.X.X.X.X.X.",
"X.X.X.X.X.X.X.X.X.X.X.# % O C ~ ) ) ) ) ) ) ) ) ) ) ) ) ) ) ) ) ~ Z % # # X.X.X.X.X.X.X.X.X.X.X.",
"X.X.X.X.X.X.X.X.X.X.X.X.# % 7 Q ) ) ) ) Q ` Q Q ) ) ) ) ) ) ) ) Q 7 X : X.X.X.X.X.X.X.X.X.X.X.X.",
"X.X.X.X.X.X.X.X.X.X.X.X.#     t ) ) ) ) Q ( ( ` ) ) ) ) ) ) ) ) t   X : X.X.X.X.X.X.X.X.X.X.X.X.",
"X.X.X.X.X.X.X.X.X.X.X.X.%       b ( ) ) ( ( Q ~ ) ) ) ) ) ) ) b       % X.X.X.X.X.X.X.X.X.X.X.X.",
"X.X.X.X.X.X.X.X.X.X.X.X.          l ( ) ) ( T ` ) ) ) ) ) ~ l         X X.X.X.X.X.X.X.X.X.X.X.X.",
"X.X.X.X.X.X.X.X.X.X.X.X.X.X.        G T ~ ~ ` ~ ` ~ ) ~ Q A     X X X.X.X.X.X.X.X.X.X.X.X.X.X.X.",
"X.X.X.X.X.X.X.X.X.X.X.X.X.X.X.X.X.X.V V A J L Q T T L G V V X.X.X.X.X.X.X.X.X.X.X.X.X.X.X.X.X.X.",
"X.X.X.X.X.X.X.X.X.X.X.X.X.X.X.X.X.X.V V V V V V V V V V V V X.X.X.X.X.X.X.X.X.X.X.X.X.X.X.X.X.X.",
"X.X.X.X.X.X.X.X.X.X.X.X.X.X.X.X.X.X.V V V V V V V V V V V V X.X.X.X.X.X.X.X.X.X.X.X.X.X.X.X.X.X.",
"X.X.X.X.X.X.X.X.X.X.X.X.X.X.X.u A V V V V V V V V V V V V V V A u X.X.X.X.X.X.X.X.X.X.X.X.X.X.X.",
"X.X.X.X.X.X.X.X.X.X.X.X.X.u u u H V V V V V V V V V V V V V V H u u u X.X.X.X.X.X.X.X.X.X.X.X.X.",
"X.X.X.X.X.X.X.X.X.X.X.u u u u u m V V V V V V V V V V V V V V m u u u u u X.X.X.X.X.X.X.X.X.X.X.",
"X.X.X.X.X.X.X.X.X.u u u u u u u j V V V V V V V V V V V V V V j u u u u u u u X.X.X.X.X.X.X.X.X.",
"X.X.X.X.X.X.X.u u u u u u u u u s I V V V V V V V V V V V V I s u u u u u u u u u X.X.X.X.X.X.X.",
"X.X.X.X.X.u u u u u u u u u u u a ' V V V V V V V V V V V V ` a u u u u u u u u u u u X.X.X.X.X.",
"X.X.X.u u u u u u u u u u u u u u ] F V V V V V V V V V V G ] u u u u u u u u u u u u u u X.X.X.",
"X.u u u u u u u u u u u u u u u u E ' V V V V V V V V V V ' E u u u u u u u u u u u u u u u X.X.",
"X.u u u u u u u u u u u u u u u u h ..^ V V V V V V V V ~ ..h u u u u u u u u u u u u u u u u X.",
"u u u u u u u u u u u u u u u u u p } ..K V V V V V V K  .} p u u u u u u u u u u u u u u u u u ",
"u u u u u u u u u u u u u u u u u u R ..{ A V V V V A | ..R u u u u u u u u u u u u u u u u u u ",
"u u u u u u u u u u u u u u u u u u f ....| ~ K A ^ | ....f u u u u u u u u u u u u u u u u u u ",
"u u u u u u u u u u u u u u u u u u u [ ................[ u u u u u u u u u u u u u u u u u u u ",
"u u u u u u u u u u u u u u u u u u u g ................g u u u u u u u u u u u u u u u u u u u ",
"u u u u u u u u u u u u u u u u u u u u W ............W u u u u u u u u u u u u u u u u u u u u ",
"X.u u u u u u u u u u u u u u u u u u u d ............d u u u u u u u u u u u u u u u u u u u X."
};
