/* XPM */
static const char *window_system[] = {
/* columns rows colors chars-per-pixel */
"48 48 68 1 ",
"  c #C0392B",
". c #BF564C",
"X c #27AE60",
"o c #47B276",
"O c #F39C12",
"+ c #E8A438",
"@ c #9ABEAF",
"# c #BEA3A2",
"$ c #CABA9C",
"% c #BCC3C6",
"& c #BDC3C7",
"* c #BDC4C7",
"= c #BEC4C7",
"- c #BEC4C8",
"; c #BFC5C9",
": c #C0C5C9",
"> c #C0C6CA",
", c #C1C7CA",
"< c #C2C7CB",
"1 c #C2C8CB",
"2 c #C2C8CC",
"3 c #C3C8CC",
"4 c #C3C9CD",
"5 c #C9CED1",
"6 c #C9CED2",
"7 c #C9CFD2",
"8 c #CACFD2",
"9 c #CCD1D4",
"0 c #CCD2D5",
"q c #CED3D6",
"w c #CFD4D7",
"e c #D0D5D8",
"r c #D1D6D8",
"t c #D1D7D9",
"y c #D5DADC",
"u c #D6DBDD",
"i c #D7DCDE",
"p c #D7DCDF",
"a c #D8DDDF",
"s c #D9DDE0",
"d c #DADFE1",
"f c #DBDFE2",
"g c #DBE0E2",
"h c #DCE0E2",
"j c #DCE0E3",
"k c #DCE1E3",
"l c #DDE1E3",
"z c #DDE2E3",
"x c #DDE2E4",
"c c #DEE2E4",
"v c #DEE3E4",
"b c #DEE3E5",
"n c #DFE4E6",
"m c #E0E4E6",
"M c #E1E5E7",
"N c #E2E6E8",
"B c #E2E7E8",
"V c #E4E9EA",
"C c #E5E9EB",
"Z c #E6EAEB",
"A c #E7EBED",
"S c #E7ECED",
"D c #E8ECED",
"F c #E8ECEE",
"G c #E9EDEE",
"H c #E9EDEF",
"J c #ECF0F1",
"K c None",
/* pixels */
"KKKKKKKKKKKKKKKKKKKKKKKKKKKKKKKKKKKKKKKKKKKKKKKK",
"KKKKKKKKKKKKKKKKKKKKKKKKKKKKKKKKKKKKKKKKKKKKKKKK",
"KKKKKKKKKKKKKKKKKKKKKKKKKKKKKKKKKKKKKKKKKKKKKKKK",
"KKKKKKKKKKKKKKKKKKKKKKKKKKKKKKKKKKKKKKKKKKKKKKKK",
"KKKK&&&&&&&&&&&&&&&&&&&&&&&&&&&&&&&&&&&&&&&&KKKK",
"KKK&&&&&&&&&&&&&&&&&&&&&&&&&&&&&&&&&&&&&&&&&&KKK",
"KK&&#..#&&@oo@&&$++$&&&&&&&&&&&&&&&&&&&&&&&&&&KK",
"KK&&.  .&&oXXo&&+OO+&&&&&&&&&&&&&&&&&&&&&&&&&&KK",
"KK&&.  .&&oXXo&&+OO+&&&&&&&&&&&&&&&&&&&&&&&&&&KK",
"KK&&#..#&&@oo@&&$++$&&&&&&&&&&&&&&&&&&&&&&&&&&KK",
"KK&&&&&&&&&&&&&&&&&&&&&&&&&&&&&&&&&&&&&&&&&&&&KK",
"KK&&&&&&&&&&&&&&&&&&&&&&&&&&&&&&&&&&&&&&&&&&&&KK",
"KKJJJJJJJJJJJJJJJJJJJJJJJJJJJJJJJJJJJJJJJJJJJJKK",
"KKJJJJJJJJJJJJJJJJJJJJJJJJJJJJJJJJJJJJJJJJJJJJKK",
"KKJJJJJJJJJJJJJJJJJJJJJJJJJJJJJJJJJJJJJJJJJJJJKK",
"KKJJJJJJJJJJJJJJJJJJJJJJJJJJJJJJJJJJJJJJJJJJJJKK",
"KKJJJJJJJJJJJJJJJJJJJN&&&&mJJJJJJJJJJJJJJJJJJJKK",
"KKJJJJJJJJJJJJJJJJJJJu&&&&sJJJJJJJJJJJJJJJJJJJKK",
"KKJJJJJJJJJJJJJJz7CJJq&&&&eJJC7fJJJJJJJJJJJJJJKK",
"KKJJJJJJJJJJJJJu&&:zz3&&&&3zz&&&zJJJJJJJJJJJJJKK",
"KKJJJJJJJJJJJJz&&&&&&&&&&&&&&&&&&zJJJJJJJJJJJJKK",
"KKJJJJJJJJJJJJ7&&&&&&&&&&&&&&&&&&qJJJJJJJJJJJJKK",
"KKJJJJJJJJJJJJC&&&&&&&&&&&&&&&&&3CJJJJJJJJJJJJKK",
"KKJJJJJJJJJJJJJz&&&&&&&&&&&&&&&&nJJJJJJJJJJJJJKK",
"KKJJJJJJJJJJJJJz&&&&&3zFCz:&&&&&zJJJJJJJJJJJJJKK",
"KKJJJJJJJJJJzuq:&&&&3FJJJJJ:&&&&3esnJJJJJJJJJJKK",
"KKJJJJJJJJJJ&&&&&&&&zJJJJJJz&&&&&&&&JJJJJJJJJJKK",
"KKJJJJJJJJJJ&&&&&&&&FJJJJJJF&&&&&&&&JJJJJJJJJJKK",
"KKJJJJJJJJJJ&&&&&&&&FJJJJJJC&&&&&&&&JJJJJJJJJJKK",
"KKJJJJJJJJJJ&&&&&&&&zJJJJJJz&&&&&&&&JJJJJJJJJJKK",
"KKJJJJJJJJJJNfe3&&&&3FJJJJF3&&&&:esnJJJJJJJJJJKK",
"KKJJJJJJJJJJJJJz&&&&&3zFFz3&&&&&zJJJJJJJJJJJJJKK",
"KKJJJJJJJJJJJJJz&&&&&&&&&&&&&&&&zJJJJJJJJJJJJJKK",
"KKJJJJJJJJJJJJC3&&&&&&&&&&&&&&&&&CJJJJJJJJJJJJKK",
"KKJJJJJJJJJJJJq&&&&&&&&&&&&&&&&&&qJJJJJJJJJJJJKK",
"KKJJJJJJJJJJJJz&&&&&&&&&&&&&&&&&&zJJJJJJJJJJJJKK",
"KKJJJJJJJJJJJJJz&&&zz3&&&&:zz&&&uJJJJJJJJJJJJJKK",
"KKJJJJJJJJJJJJJJf7CJJe&&&&eJJC7zJJJJJJJJJJJJJJKK",
"KKJJJJJJJJJJJJJJJJJJJu&&&&fJJJJJJJJJJJJJJJJJJJKK",
"KKJJJJJJJJJJJJJJJJJJJn&&&&NJJJJJJJJJJJJJJJJJJJKK",
"KKCJJJJJJJJJJJJJJJJJJJJJJJJJJJJJJJJJJJJJJJJJJFKK",
"KKzJJJJJJJJJJJJJJJJJJJJJJJJJJJJJJJJJJJJJJJJJJzKK",
"KK3JJJJJJJJJJJJJJJJJJJJJJJJJJJJJJJJJJJJJJJJJJ3KK",
"KK&3zCJJJJJJJJJJJJJJJJJJJJJJJJJJJJJJJJJJJJCz:&KK",
"KKK&&&&&&&&&&&&&&&&&&&&&&&&&&&&&&&&&&&&&&&&&&KKK",
"KKKK&&&&&&&&&&&&&&&&&&&&&&&&&&&&&&&&&&&&&&&&KKKK",
"KKKKKKKKKKKKKKKKKKKKKKKKKKKKKKKKKKKKKKKKKKKKKKKK",
"KKKKKKKKKKKKKKKKKKKKKKKKKKKKKKKKKKKKKKKKKKKKKKKK"
};
