/* XPM */
static const char *basket[] = {
/* columns rows colors chars-per-pixel */
"96 96 40 1 ",
"  c #BF382B",
". c #C0392B",
"X c #C73D2F",
"o c #C93D2E",
"O c #C93D2F",
"+ c #D24232",
"@ c #D84536",
"# c #E14839",
"$ c #E44B3B",
"% c #E54B3B",
"& c #E74B3C",
"* c #E74C3C",
"= c #E74D3C",
"- c #E7513A",
"; c #E7523A",
": c #E7533A",
"> c #E75439",
", c #E85738",
"< c #E67E22",
"1 c #EA742D",
"2 c #E88D1E",
"3 c #F39C12",
"4 c #F1BB0F",
"5 c #EEA819",
"6 c #EEA91A",
"7 c #F3A212",
"8 c #F3A511",
"9 c #F2AE11",
"0 c #EEB413",
"q c #F2B010",
"w c #F0B614",
"e c #F2B810",
"r c #F1C00F",
"t c #F1C30F",
"y c #F0C40F",
"u c #F1C40F",
"i c #F1C310",
"p c #F1C410",
"a c #F1C510",
"s c None",
/* pixels */
"ssssssssssssssssssssssssssssssssssssssssssssssssssssssssssssssssssssssssssssssssssssssssssssssss",
"ssssssssssssssssssssssssssssssssssssssssssssssssssssssssssssssssssssssssssssssssssssssssssssssss",
"ssssssssssssssssssssssssssssssssssssssssssssssssssssssssssssssssssssssssssssssssssssssssssssssss",
"sssssssssssssssssssssssssssssssssssssssssssssssssssssssssssssssssssssss=====ssssssssssssssssssss",
"ssssssssssssssssssssssssssssssssssssssssssssssssssssssssssssssssssssss=====&=sssssssssssssssssss",
"sssssssssssssssssssssssssssssssssssssssssssssssssssssssssssssssssssss=&&==&==sssssssssssssssssss",
"ssssssssssssssssssssssssssssssssssssssssssssssssssssssssssssssssssss==&==&=&=@ssssssssssssssssss",
"sssssssssssssssssssssssssssssssssssssssssssssssssssssssssssssssssss====&==&==Ossssssssssssssssss",
"ssssssssssssssssssssssssssssssssssssssssssssssssssssssssssssssssss====&=&=&==sssssssssssssssssss",
"sssssssssssssssssssssssssssssssssssssssssssssssssssssssssssssssss======&=&==X ssssssssssssssssss",
"ssssssssssssssssssssssssssssssssssssssssssssssssssssssssssssssss=&=&&=&=&==X  ssssssssssssssssss",
"sssssssssssssssssssssssssssssssssssssssssssssssssssssssssssssss=&=&==&=&=#XX sssssssssssssssssss",
"ssssssssssssssssssssssssssssssssssssssssssssssssssssssssssssss===&=&&===&X .Xsssssssssssssssssss",
"sssssssssssssssssssssssssssssssssssssssssssssssssssssssssssss===&=&=====X ..ssssssssssssssssssss",
"ssssssssssssssssssssssssssssssssssssssssssssssssssssssssssss&====&=&&==X  .sssssssssssssssssssss",
"sssssssssssssssssssssssssssssssssssssssssssssssssssssssssss&====&=&=&&X  Xssssssssssssssssssssss",
"ssssssssssssssssssssssssssssssssssssssssssssssssssssssssss=&=&=&=&==&o   sssssssssssssssssssssss",
"sssssssssssssssssssssssssssssssssssssssssssssssssssssssss=&=&=&===&&o. Xssssssssssssssssssssssss",
"ssssssssssssssssssssssssssssssssssssssssssssssssssssssss=====&=&==#X...sssssssssssssssssssssssss",
"sssssssssssssssssssssssssssssssssssssssssssssssssssssss=====&=&=,#o ..ssssssssssssssssssssssssss",
"ssssssssssssssssssssssssssssssssssssssssssssssssssssss=&&=&==&=&#oX Xsssssssssssssssssssssssssss",
"sssssssssssssssssssssssssssssssssssssssssssssssssssss=&==&=&&==&X   ssssssssssssssssssssssssssss",
"ssssssssssssssssssssssssssssssssssssssssssssssssssss====&=&=&=&X XXsssssssssssssssssssssssssssss",
"sssssssssssssssssssssssssssssssssssssssssssssssssss======&=&=&o   ssssssssssssssssssssssssssssss",
"ssssssssssssssssssssssssssssssssssssssssssssssssss=&=&=&&==&&X .Xsssssssssssssssssssssssssssssss",
"sssssssssssssssssssssssssssssssssssssssssssssssss=&=&=&==&=&X ..ssssssssssssssssssssssssssssssss",
"ssssssssssssssssssssssssssssssssssssssssssssssss===&=&=&&&&X  .sssssssssssssssssssssssssssssssss",
"sssssssssssssssssssssssssssssssssssssssssssssss===&=&====&X  Xssssssssssssssssssssssssssssssssss",
"sssssiiiuuuuuuuuuuuuuuuuuuuuuuuuuuuuuuuuuuuuu5====&=====;5uuyuuuuuuuuuuuuuuuuuuuuuuuuuuuiaisssss",
"ssssuuuuuuuuuuuuuuuuuuuuuuuuuuuuuuuuuuuuuuuuw;=&===&====5uuuyuuuuuuuuuuuuuuuuuuuuuuuuuuuuuaussss",
"ssuuuuuuuuuuuuuuuuuuuuuuuuuuuuuuuuuuuuuuuuuu1=&=&=&===;5uuuuuuuuuuuuuuuuuuuuuuuuuuuuuuuuuuuuuuss",
"ssuuuuuuuuuuuuuuuuuuuuuuuuuuuuuuuuuuuuuuuuuu>==&=&=&=;5uuuuuuuuuuuuuuuuuuuuuuuuuuuuuuuuuuuuuuuss",
"syuuuuuuuuuuuuuuuuuuuuuuuuuuuuuuuuuuuuuuuuuu,=======,5uuuuuuuuuuuuuuuuuuuuuuuuuuuuuuuuuuuuuuuuys",
"uuuuuuuuuuuuuuuuuuuuuuuuuuuuuuuuuuuuuuuuuuuu1=======5uuuuuuuuuuuuuuuuuuuuuuuuuuuuuuuuuuuuuuuuuui",
"uuuuuuuuuuuuuuuuuuuuuuuuuuuuuuuuuuuuuuuuuuuuw;====,5uuuuuuuuuuuuuuuuuuuuuuuuuuuuuuuuuuuuuuuuuuui",
"iuuuuuuuuuuuuuuuuuuuuuuuuuuuuuuuuuuuuuuuuuuuuw1>>1w4uuuuuuuuuuuuuuuuuuuuuuuuuuuuuuuuuuuuuuuuuuui",
"iuuuuuuuuuuuuuuuuuuuuuuuuuuuuuuuuuuuuuuuuuuuuuuuuuuuuuuuuuuuuuuuuuuuuuuuuuuuuuuuuuuuuuuuuuuuuuui",
"iuuuuuuuuuuuuuuuuuuuuuuuuuuuuuuuuuuuuuuuuuuuuuuuuuuuuuuuuuuuuuuuuuuuuuuuuuuuuuuuuuuuuuuuuuuuuuui",
"iuuuuuuuuuuuuuuuuuuuuuuuuuuuuuuuuuuuuuuuuuuuuuuuuuuuuuuuuuuuuuuuuuuuuuuuuuuuuuuuuuuuuuuuuuuuuuui",
"suuuuuuuuuuuuuuuuuuuuuuuuuuuuuuuuuuuuuuuuuuuuuuuuuuuuuuuuuuuuuuuuuuuuuuuuuuuuuuuuuuuuuuuuuuuuuus",
"ssuuuuuuuuuuuuuuuuuuuuuuuuuuuuuuuuuuuuuuuuuuuuuuuuuuuuuuuuuuuuuuuuuuuuuuuuuuuuuuuuuuuuuuuuuuuuss",
"ssuuuuuuuuuuuuuuuuuuuuuuuuuuuuuuuuuuuuuuuuuuuuuuuuuuuuuuuuuuuuuuuuuuuuuuuuuuuuuuuuuuuuuuuuuuuuss",
"ssssuuuuuuuuuuuuuuuuuuuuuuuuuuuuuuuuuuuuuuuuuuuuuuuuuuuuuuuuuuuuuuuuuuuuuuuuuuuuuuuuuuuuuuuussss",
"sssssiaiuuuuuuuuuuuuuuuuuuuuuuuuuuuuuuuuuuuuuuuuuuuuuuuuuuuuuuuuuuuuuuuuuuuuuuuuuuuuuuuuiuusssss",
"ssssssss33333333333333333333333333333333333333333333333333333333333333333333333333333333ssssssss",
"ssssssss33333333333333333333333333333333333333333333333333333333333333333333333333333333ssssssss",
"ssssssss33333333333333333333333333333333333333333333333333333333333333333333333333333333ssssssss",
"ssssssss33333333333333333333333333333333333333333333333333333333333333333333333333333333ssssssss",
"ssssssssuuuuuuuuuuuuuuuuuuuuuuuuuuuuuuuuuuuuuuuuuuuuuuuuuuuuuuuuuuuuuuuuuuuuuuuuuuuuuuuussssssss",
"ssssssssuuuuuuuuuuuuuuuuuuuuuuuuuuuuuuuuuuuuuuuuuuuuuuuuuuuuuuuuuuuuuuuuuuuuuuuuuuuuuuuussssssss",
"ssssssssuuuuuuuuuuuuuuuuuuuuuuuuuuuuuuuuuuuuuuuuuuuuuuuuuuuuuuuuuuuuuuuuuuuuuuuuuuuuuuuussssssss",
"ssssssssuuuuuuuuuuuuuuuuuuuuuuuuuuuuuuuuuuuuuuuuuuuuuuuuuuuuuuuuuuuuuuuuuuuuuuuuuuuuuuuussssssss",
"ssssssssuuuuuuuu0220uuuu0220uuuu0220uuuu0225uuuuuuuu0220uuuu0220uuuuw22wuuuu0220uuuuuuuussssssss",
"ssssssssuuuuuuuu2<<2uuuu2<<2uuuu2<<2uuuu22<2uuuuuuuu2<<2uuuu2<<2uuuu2<<2uuuu2<<2uuuuuuuussssssss",
"ssssssssuuuuuuuu<<<<uuuu<<<<uuuu<<<<uuuu<<<<uuuuuuuu<<<<uuuu<<<<uuuu<<<<uuuu<<<<uuuuuuuussssssss",
"ssssssssuuuuuuuu<<<<uuuu<<<<uuuu<<<<uuuu<<<<uuuuuuuu<<<<uuuu<<<<uuuu<<<<uuuu<<<<uuuuuuuussssssss",
"ssssssssuuuuuuuu3333uuuu3333uuuu3333uuuu3333uuuuuuuu3333uuuu3333uuuu3333uuuu3333uuuuuuuussssssss",
"ssssssssuuuuuuuu3333uuuu3333uuuu3333uuuu3333uuuuuuuu3333uuuu3333uuuu3333uuuu3333uuuuuuuussssssss",
"ssssssssuuuuuuuu3333uuuu3333uuuu3333uuuu3333uuuuuuuu3333uuuu3333uuuu3333uuuu3333uuuuuuuussssssss",
"ssssssssuuuuuuuu3333uuuu3333uuuu3333uuuu3333uuuuuuuu3333uuuu3333uuuu3333uuuu3333uuuuuuuussssssss",
"ssssssssuuuuuuuu3333uuuu3333uuuu3333uuuu3333uuuuuuuu3333uuuu3333uuuu3333uuuu3333uuuuuuuussssssss",
"ssssssssuuuuuuuu3333uuuu3333uuuu3333uuuu3333uuuuuuuu3333uuuu3333uuuu3333uuuu3333uuuuuuuussssssss",
"ssssssssuuuuuuuu8338uuuu8338uuuu8338uuuu8338uuuuuuuu8338uuuu8337uuuu8338uuuu7337uuuuuuuussssssss",
"ssssssssuuuuuuuu4884uuuu4884uuuu4884uuuu4884uuuuuuuu4884uuuu4774uuuu4884uuuu4974uuuuuuuussssssss",
"ssssssssuuuuuuuuuuuuuuuuuuuuuuuuuuuuuuuuuuuuuuuuuuuuuuuuuuuuuuuuuuuuuuuuuuuuuuuuuuuuuuuussssssss",
"ssssssssuuuuuuuuuuuuuuuuuuuuuuuuuuuuuuuuuuuuuuuuuuuuuuuuuuuuuuuuuuuuuuuuuuuuuuuuuuuuuuuussssssss",
"ssssssssuuuuuuuuuuuuuuuuuuuuuuuuuuuuuuuuuuuuuuuuuuuuuuuuuuuuuuuuuuuuuuuuuuuuuuuuuuuuuuuussssssss",
"ssssssssuuuuuuuuuuuuuuuuuuuuuuuuuuuuuuuuuuuuuuuuuuuuuuuuuuuuuuuuuuuuuuuuuuuuuuuuuuuuuuuussssssss",
"ssssssssuuuuuuuu0225uuuu0225uuuuw220uuuu0220uuuuuuuu0220uuuu0220uuuu0220uuuu0220uuuuuuuussssssss",
"ssssssssuuuuuuuu22<2uuuu2<<2uuuu2<<2uuuu2<<2uuuuuuuu2<<2uuuu2<<2uuuu2<<2uuuu2<<2uuuuuuuussssssss",
"ssssssssuuuuuuuu<<<<uuuu<<<<uuuu<<<<uuuu<<<<uuuuuuuu<<<<uuuu<<<<uuuu<<<<uuuu<<<<uuuuuuuussssssss",
"ssssssssuuuuuuuu<<<<uuuu<<<2uuuu<<<<uuuu<<<<uuuuuuuu<<<<uuuu<<<<uuuu<<<<uuuu<<<<uuuuuuuussssssss",
"ssssssssuuuuuuuu3333uuuu3333yuuu3333uuuu3333uuuuuuuu3333uuuu3333uuuu3333uuuu3333uuuuuuuussssssss",
"ssssssssuuuuuuuu3333uuuu3333yuuu3333uuuu3333uuuuuuuu3333uuuu3333uuuu3333uuuu3333uuuuuuuussssssss",
"ssssssssuuuuuuuu3333uuuu3333uuuu3333uuuu3333uuuuuuuu3333uuuu3333uuuu3333uuuu3333uuuuuuuussssssss",
"ssssssssuuuuuuuu3333uuuu3333uuuu3333uuuu3333uuuuuuuu3333uuuu3333uuuu3333uuuu3333uuuuuuuussssssss",
"ssssssssuuuuuuuu3333uuuu3333uuuu3333uuuu3333uuuuuuuu3333uuuu3333uuuu3333uuuu3333uuuuuuuussssssss",
"ssssssssuuuuuuuu3333uuuu3333uuuu3333uuuu3333uuuuuuuu3333uuuu3333uuuu3333uuuu3333uuuuuuuussssssss",
"ssssssssuuuuuuuu8338uuuu8338uuuu8338uuuu7337uuuuuuuu8338uuuu8338uuuu8338uuuu8338uuuuuuuussssssss",
"ssssssssuuuuuuuu4884uuuu4884uuuu4884uuuu4974uuuuuuuu4884uuuu4884uuuu4884uuuu4884uuuuuuuussssssss",
"ssssssss4uuuuuuuuuuuuuuuuuuuuuuuuuuuuuuuuuuuuuuuuuuuuuuuuuuuuuuuuuuuuuuuuuuuuuuuuuuuuuu4ssssssss",
"ssssssss4uuuuuuuuuuuuuuuuuuuuuuuuuuuuuuuuuuuuuuuuuuuuuuuuuuuuuuuuuuuuuuuuuuuuuuuuuuuuuuessssssss",
"ssssssssquuuuuuuuuuuuuuuuuuuuuuuuuuuuuuuuuuuuuuuuuuuuuuuuuuuuuuuuuuuuuuuuuuuuuuuuuuuuuuqssssssss",
"ssssssss7uuuuuuuuuuuuuuuuuuuuuuuuuuuuuuuuuuuuuuuuuuuuuuuuuuuuuuuuuuuuuuuuuuuuuuuuuuuuuu7ssssssss",
"ssssssss3quuuuuuuuuuuuuuuuuuuuuuuuuuuuuuuuuuuuuuuuuuuuuuuuuuuuuuuuuuuuuuuuuuuuuuuuuuuu93ssssssss",
"ssssssss33euuuuuuuuuuuuuuuuuuuuuuuuuuuuuuuuuuuuuuuuuuuuuuuuuuuuuuuuuuuuuuuuuuuuuuuuuue33ssssssss",
"ssssssss3339uuuuuuuuuuuuuuuuuuuuuuuuuuuuuuuuuuuuuuuuuuuuuuuuuuuuuuuuuuuuuuuuuuuuuuuuq333ssssssss",
"sssssssss3337qwuuuuuuuuuuuuuuuuuuuuuuuuuuuuuuuuuuuuuuuuuuuuuuuuuuuuuuuuuuuuuuuuuuwq7333sssssssss",
"ssssssssss3333333333333333333333333333333333333333333333333333333333333333333333333333ssssssssss",
"ssssssssss3333333333333333333333333333333333333333333333333333333333333333333333333333ssssssssss",
"ssssssssssss333333333333333333333333333333333333333333333333333333333333333333333333ssssssssssss",
"sssssssssssss3333333333333333333333333333333333333333333333333333333333333333333333sssssssssssss",
"ssssssssssssssssssssssssssssssssssssssssssssssssssssssssssssssssssssssssssssssssssssssssssssssss",
"ssssssssssssssssssssssssssssssssssssssssssssssssssssssssssssssssssssssssssssssssssssssssssssssss",
"ssssssssssssssssssssssssssssssssssssssssssssssssssssssssssssssssssssssssssssssssssssssssssssssss",
"ssssssssssssssssssssssssssssssssssssssssssssssssssssssssssssssssssssssssssssssssssssssssssssssss"
};
