/* XPM */
static const char *book[] = {
/* columns rows colors chars-per-pixel */
"96 96 49 1 ",
"  c #16A085",
". c #17A085",
"X c #19B294",
"o c #18B394",
"O c #19B597",
"+ c #19B697",
"@ c #19BA9A",
"# c #1BBA9B",
"$ c #1ABB9B",
"% c #1ABC9C",
"& c #2CA890",
"* c #36AC95",
"= c #2ABA9F",
"- c #2CBB9F",
"; c #5BB1A2",
": c #62BDAB",
"> c #4DC2AB",
", c #5BC6B2",
"< c #6BC0B0",
"1 c #74C3B4",
"2 c #8BB9B3",
"3 c #81C8BB",
"4 c #ADC0C1",
"5 c #AEC1C1",
"6 c #BDC3C7",
"7 c #BFC5C8",
"8 c #A7D3CD",
"9 c #ACD8D1",
"0 c #AED9D2",
"q c #B2DED6",
"w c #B6DCD6",
"e c #C2C7CB",
"r c #C4CACD",
"t c #CBD0D3",
"y c #CBD0D4",
"u c #D2D7D9",
"i c #D4D9DC",
"p c #D5DADC",
"a c #D7DCDF",
"s c #DEE3E4",
"d c #DEE3E5",
"f c #D7E8E6",
"g c #E5E9EB",
"h c #E4EDED",
"j c #E7ECED",
"k c #EAEEF0",
"l c #EAF0F1",
"z c #ECF0F1",
"x c None",
/* pixels */
"xxxxxxxxxxxxxxxxxxxxxxxxxxxxxxxxxxxxxxxxxxxxxxxxxxxxxxxxxxxxxxxxxxxxxxxxxxxxxxxxxxxxxxxxxxxxxxxx",
"xxxxxxxxxxxxxxxxxxxxxxxxxxxxxxxxxxxxxxxxxxxxxxxxxxxxxxxxxxxxxxxxxxxxxxxxxxxxxxxxxxxxxxxxxxxxxxxx",
"xxxxxxxxxxxxxxxxxxxxxxxxxxxxxxxxxxxxxxxxxxxxxxxxxxxxxxxxxxxxxxxxxxxxxxxxxxxxxxxxxxxxxxxxxxxxxxxx",
"xxxxxxxxxxxxxxxxxxxxxxxxxxxxxxxxxxxxxxxxxxxxxxxxxxxxxxxxxxxxxxxxxxxxxxxxxxxxxxxxxxxxxxxxxxxxxxxx",
"xxxxxxxxxxxxxxxxx               %%%%%%%%%%%%%%%%%%%%%%%%%%%%%%%%%%%%%%%%%%%%%OXxxxxxxxxxxxxxxxxx",
"xxxxxxxxxxxxxxxx                %%%%%%%%%%%%%%%%%%%%%%%%%%%%%%%%%%%%%%%%%%%%%%%%Xxxxxxxxxxxxxxxx",
"xxxxxxxxxxxxxx                  %%%%%%%%%%%%%%%%%%%%%%%%%%%%%%%%%%%%%%%%%%%%%%%%%Oxxxxxxxxxxxxxx",
"xxxxxxxxxxxxxx                  %%%%%%%%%%%%%%%%%%%%%%%%%%%%%%%%%%%%%%%%%%%%%%%%%%Xxxxxxxxxxxxxx",
"xxxxxxxxxxxxx                   %%%%%%%%%%%%%%%%%%%%%%%%%%%%%%%%%%%%%%%%%%%%%%%%%%%xxxxxxxxxxxxx",
"xxxxxxxxxxxx                    %%%%%%%%%%%%%%%%%%%%%%%%%%%%%%%%%%%%%%%%%%%%%%%%%%%Xxxxxxxxxxxxx",
"xxxxxxxxxxxx                    %%%%%%%%%%%%%%%%%%%%%%%%%%%%%%%%%%%%%%%%%%%%%%%%%%%Oxxxxxxxxxxxx",
"xxxxxxxxxxxx                    %%%%%%%%%%%%%%%%%%%%%%%%%%%%%%%%%%%%%%%%%%%%%%%%%%%%xxxxxxxxxxxx",
"xxxxxxxxxxxx                    %%%%%%%%%%%%%%%%%%%%%%%%%%%%%%%%%%%%%%%%%%%%%%%%%%%%xxxxxxxxxxxx",
"xxxxxxxxxxxx                    %%%%%%%%%%%%%%%%%%%%%%%%%%%%%%%%%%%%%%%%%%%%%%%%%%%%xxxxxxxxxxxx",
"xxxxxxxxxxxx                    %%%%%%%%%%%%%%%%%%%%%%%%%%%%%%%%%%%%%%%%%%%%%%%%%%%%xxxxxxxxxxxx",
"xxxxxxxxxxxx                    %%%%%%%%%%%%%%%%%%%%%%%%%%%%%%%%%%%%%%%%%%%%%%%%%%%%xxxxxxxxxxxx",
"xxxxxxxxxxxx                    %%%%%%%%%%%%%%%%%%%%%%%%%%%%%%%%%%%%%%%%%%%%%%%%%%%%xxxxxxxxxxxx",
"xxxxxxxxxxxx                    %%%%%%%%%%%%%%%%%%%%%%%%%%%%%%%%%%%%%%%%%%%%%%%%%%%%xxxxxxxxxxxx",
"xxxxxxxxxxxx                    %%%%%%%%%%%%%%%%%%%%%%%%%%%%%%%%%%%%%%%%%%%%%%%%%%%%xxxxxxxxxxxx",
"xxxxxxxxxxxx                    %%%%%%%%%%%%%%%%%%%%%%%%%%%%%%%%%%%%%%%%%%%%%%%%%%%%xxxxxxxxxxxx",
"xxxxxxxxxxxx                    %%%%%%%%%%%%%%%%%%%%%%%%%%%%%%%%%%%%%%%%%%%%%%%%%%%%xxxxxxxxxxxx",
"xxxxxxxxxxxx                    %%%%%%%%%%%%%%%%%%%%%%%%%%%%%%%%%%%%%%%%%%%%%%%%%%%%xxxxxxxxxxxx",
"xxxxxxxxxxxx                    %%%%%%%%%%%%%%%%%%%%%%%%%%%%%%%%%%%%%%%%%%%%%%%%%%%%xxxxxxxxxxxx",
"xxxxxxxxxxxx                    %%%%%%%%%%%%%%%%%%%%%%%%%%%%%%%%%%%%%%%%%%%%%%%%%%%%xxxxxxxxxxxx",
"xxxxxxxxxxxx                    %%%%%%%%%%%%%%%%%%%%%%%%%%%%%%%%%%%%%%%%%%%%%%%%%%%%xxxxxxxxxxxx",
"xxxxxxxxxxxx                    %%%%%%%%%%%%%%%%%%%%%%%%%%%%%%%%%%%%%%%%%%%%%%%%%%%%xxxxxxxxxxxx",
"xxxxxxxxxxxx                    %%%%%%%%%%%%%%%%%%%%%%%%%%%%%%%%%%%%%%%%%%%%%%%%%%%%xxxxxxxxxxxx",
"xxxxxxxxxxxx                    %%%%%%%%%%%%%%%%%%%%%%%%%%%%%%%%%%%%%%%%%%%%%%%%%%%%xxxxxxxxxxxx",
"xxxxxxxxxxxx                    %%%%%%%%%%%%%%%%%%%%%%%%%%%%%%%%%%%%%%%%%%%%%%%%%%%%xxxxxxxxxxxx",
"xxxxxxxxxxxx                    %%%%%%%%%%%%%%%%%%%%%%%%%%%%%%%%%%%%%%%%%%%%%%%%%%%%xxxxxxxxxxxx",
"xxxxxxxxxxxx                    %%%%%%%%%%%%%%%%%%%%%%%%%%%%%%%%%%%%%%%%%%%%%%%%%%%%xxxxxxxxxxxx",
"xxxxxxxxxxxx                    %%%%%%%%%%%%%%%%%%%%%%%%%%%%%%%%%%%%%%%%%%%%%%%%%%%%xxxxxxxxxxxx",
"xxxxxxxxxxxx                    %%%%%%%%%%%%%%%%%%%%%%%%%%%%%%%%%%%%%%%%%%%%%%%%%%%%xxxxxxxxxxxx",
"xxxxxxxxxxxx                    %%%%%%%%%%%%%%%%%%%%%%%%%%%%%%%%%%%%%%%%%%%%%%%%%%%%xxxxxxxxxxxx",
"xxxxxxxxxxxx                    %%%%%%%%%%%%%%%%%%%%%%%%%%%%%%%%%%%%%%%%%%%%%%%%%%%%xxxxxxxxxxxx",
"xxxxxxxxxxxx                    %%%%%%%%%%%%%%%%%%%%%%%%%%%%%%%%%%%%%%%%%%%%%%%%%%%%xxxxxxxxxxxx",
"xxxxxxxxxxxx                    %%%%%%%%%%%%%%%%%%%%%%%%%%%%%%%%%%%%%%%%%%%%%%%%%%%%xxxxxxxxxxxx",
"xxxxxxxxxxxx                    %%%%%%%%%%%%%%%%%%%%%%%%%%%%%%%%%%%%%%%%%%%%%%%%%%%%xxxxxxxxxxxx",
"xxxxxxxxxxxx                    %%%%%%%%%%%%%%%%%%%%%%%%%%%%%%%%%%%%%%%%%%%%%%%%%%%%xxxxxxxxxxxx",
"xxxxxxxxxxxx                    %%%%%%%%%%%%%%%%%%%%%%%%%%%%%%%%%%%%%%%%%%%%%%%%%%%%xxxxxxxxxxxx",
"xxxxxxxxxxxx                    %%%%%%%%%%%%%%%%%%%%%%%%%%%%%%%%%%%%%%%%%%%%%%%%%%%%xxxxxxxxxxxx",
"xxxxxxxxxxxx                    %%%%%%%%%%%%%%%%%%%%%%%%%%%%%%%%%%%%%%%%%%%%%%%%%%%%xxxxxxxxxxxx",
"xxxxxxxxxxxx                    %%%%%%%%%%%%%%%%%%%%%%%%%%%%%%%%%%%%%%%%%%%%%%%%%%%%xxxxxxxxxxxx",
"xxxxxxxxxxxx                    %%%%%%%%%%%%%%%%%%%%%%%%%%%%%%%%%%%%%%%%%%%%%%%%%%%%xxxxxxxxxxxx",
"xxxxxxxxxxxx                    %%%%%%%%%%%%%%%%%%%%%%%%%%%%%%%%%%%%%%%%%%%%%%%%%%%%xxxxxxxxxxxx",
"xxxxxxxxxxxx                    %%%%%%%%%%%%%%%%%%%%%%%%%%%%%%%%%%%%%%%%%%%%%%%%%%%%xxxxxxxxxxxx",
"xxxxxxxxxxxx                    %%%%%%%%%%%%%%%%%%%%%%%%%%%%%%%%%%%%%%%%%%%%%%%%%%%%xxxxxxxxxxxx",
"xxxxxxxxxxxx                    %%%%%%%%%%%%%%%%%%%%%%%%%%%%%%%%%%%%%%%%%%%%%%%%%%%%xxxxxxxxxxxx",
"xxxxxxxxxxxx                    %%%%%%%%%%%%%%%%%%%%%%%%%%%%%%%%%%%%%%%%%%%%%%%%%%%%xxxxxxxxxxxx",
"xxxxxxxxxxxx                    %%%%%%%%%%%%%%%%%%%%%%%%%%%%%%%%%%%%%%%%%%%%%%%%%%%%xxxxxxxxxxxx",
"xxxxxxxxxxxx                    %%%%%%%%%%%%%%%%%%%%%%%%%%%%%%%%%%%%%%%%%%%%%%%%%%%%xxxxxxxxxxxx",
"xxxxxxxxxxxx                    %%%%%%%%%%%%%%%%%%%%%%%%%%%%%%%%%%%%%%%%%%%%%%%%%%%%xxxxxxxxxxxx",
"xxxxxxxxxxxx                    %%%%%%%%%%%%%%%%%%%%%%%%%%%%%%%%%%%%%%%%%%%%%%%%%%%%xxxxxxxxxxxx",
"xxxxxxxxxxxx                    %%%%%%%%%%%%%%%%%%%%%%%%%%%%%%%%%%%%%%%%%%%%%%%%%%%%xxxxxxxxxxxx",
"xxxxxxxxxxxx                    %%%%%%%%%%%%%%%%%%%%%%%%%%%%%%%%%%%%%%%%%%%%%%%%%%%%xxxxxxxxxxxx",
"xxxxxxxxxxxx                    %%%%%%%%%%%%%%%%%%%%%%%%%%%%%%%%%%%%%%%%%%%%%%%%%%%%xxxxxxxxxxxx",
"xxxxxxxxxxxx                    %%%%%%%%%%%%%%%%%%%%%%%%%%%%%%%%%%%%%%%%%%%%%%%%%%%%xxxxxxxxxxxx",
"xxxxxxxxxxxx                    %%%%%%%%%%%%%%%%%%%%%%%%%%%%%%%%%%%%%%%%%%%%%%%%%%%%xxxxxxxxxxxx",
"xxxxxxxxxxxx                    %%%%%%%%%%%%%%%%%%%%%%%%%%%%%%%%%%%%%%%%%%%%%%%%%%%%xxxxxxxxxxxx",
"xxxxxxxxxxxx                    %%%%%%%%%%%%%%%%%%%%%%%%%%%%%%%%%%%%%%%%%%%%%%%%%%%%xxxxxxxxxxxx",
"xxxxxxxxxxxx                    %%%%%%%%%%%%%%%%%%%%%%%%%%%%%%%%%%%%%%%%%%%%%%%%%%%%xxxxxxxxxxxx",
"xxxxxxxxxxxx                    %%%%%%%%%%%%%%%%%%%%%%%%%%%%%%%%%%%%%%%%%%%%%%%%%%%%xxxxxxxxxxxx",
"xxxxxxxxxxxx                    %%%%%%%%%%%%%%%%%%%%%%%%%%%%%%%%%%%%%%%%%%%%%%%%%%%%xxxxxxxxxxxx",
"xxxxxxxxxxxx                    %%%%%%%%%%%%%%%%%%%%%%%%%%%%%%%%%%%%%%%%%%%%%%%%%%%%xxxxxxxxxxxx",
"xxxxxxxxxxxx                    %%%%%%%%%%%%%%%%%%%%%%%%%%%%%%%%%%%%%%%%%%%%%%%%%%%%xxxxxxxxxxxx",
"xxxxxxxxxxxx                    %%%%%%%%%%%%%%%%%%%%%%%%%%%%%%%%%%%%%%%%%%%%%%%%%%%%xxxxxxxxxxxx",
"xxxxxxxxxxxx                    %%%%%%%%%%%%%%%%%%%%%%%%%%%%%%%%%%%%%%%%%%%%%%%%%%%%xxxxxxxxxxxx",
"xxxxxxxxxxxx                    %%%%%%%%%%%%%%%%%%%%%%%%%%%%%%%%%%%%%%%%%%%%%%%%%%%%xxxxxxxxxxxx",
"xxxxxxxxxxxx                    %%%%%%%%%%%%%%%%%%%%%%%%%%%%%%%%%%%%%%%%%%%%%%%%%%%%xxxxxxxxxxxx",
"xxxxxxxxxxxx                    %%%%%%%%%%%%%%%%%%%%%%%%%%%%%%%%%%%%%%%%%%%%%%%%%%%=xxxxxxxxxxxx",
"xxxxxxxxxxxx                    %%%%%%%%%%%%%%%%%%%%%%%%%%%%%%%%%%%%%%%%%%%%%%%%%%%>xxxxxxxxxxxx",
"xxxxxxxxxxxx                    %%%%%%%%%%%%%%%%%%%%%%%%%%%%%%%%%%%%%%%%%%%%%%%%%%%wxxxxxxxxxxxx",
"xxxxxxxxxxxx                    %%%%%%%%%%%%%%%%%%%%%%%%%%%%%%%%%%%%%%%%%%%%%%%%%%,jxxxxxxxxxxxx",
"xxxxxxxxxxxx                    %%%%%%%%%%%%%%%%%%%%%%%%%%%%%%%%%%%%%%%%%%%%%%%%%=zsxxxxxxxxxxxx",
"xxxxxxxxxxxx                    %%%%%%%%%%%%%%%%%%%%%%%%%%%%%%%%%%%%%%%%%%%%%%%%,zzpxxxxxxxxxxxx",
"xxxxxxxxxxxx                    %%%%%%%%%%%%%%%%%%%%%%%%%%%%%%%%%%%%%%%%%%%%%=>wzzkrxxxxxxxxxxxx",
"xxxxxxxxxxxx       <9fzzzzzzzzzzzzzzzzzzzzzzzzzzzzzzzzzzzzzzzzzzzzzzzzzzzzzzzzzzzzuexxxxxxxxxxxx",
"xxxxxxxxxxxx     &wzzzzzzzzzzzzzzzzzzzzzzzzzzzzzzzzzzzzzzzzzzzzzzzzzzzzzzzzzzzzzzs6yxxxxxxxxxxxx",
"xxxxxxxxxxxx    .wzzzzzzzzzzzzzzzzzzzzzzzzzzzzzzzzzzzzzzzzzzzzzzzzzzzzzzzzzzzzzku66pxxxxxxxxxxxx",
"xxxxxxxxxxxx    ;psjzzzzzzzzzzzzzzzzzzzzzzzzzzzzzzzzzzzzzzzzzzzzzzzzzzzzzzzzjspr666jxxxxxxxxxxxx",
"xxxxxxxxxxxx    266666666666666666666666666666666666666666666666666666666666666666pfxxxxxxxxxxxx",
"xxxxxxxxxxxx    46666666666666666666666666666666666666666666666666666666666666666tz9xxxxxxxxxxxx",
"xxxxxxxxxxxx    4666666666666666666666666666666666666666666666666666666666666666azz1xxxxxxxxxxxx",
"xxxxxxxxxxxx    8pye666666666666666666666666666666666666666666666666666666666uihzzz*xxxxxxxxxxxx",
"xxxxxxxxxxxx    <zzzzzzzzzzzzzzzzzzzzzzzzzzzzzzzzzzzzzzzzzzzzzzzzzzzzzzzkzzzzzzzzz1.xxxxxxxxxxxx",
"xxxxxxxxxxxx    .wzzzzzzzzzzzzzzzzzzzzzzzzzzzzzzzzzzzzzzzzzzzzzzzzzzzzzzkzzzzzzzz9..xxxxxxxxxxxx",
"xxxxxxxxxxxx     &wzzzzzzzzzzzzzzzzzzzzzzzzzzzzzzzzzzzzzzzzzzzzzzzzzzzzzzzzzzzlh1...xxxxxxxxxxxx",
"xxxxxxxxxxxxx     .:9fzzzzzzzzzzzzzzzzzzzzzzzzzzzzzzzzzzzzzzzzzzzzzzzzzzzzzzfq1*...xxxxxxxxxxxxx",
"xxxxxxxxxxxxx                                                   ....    ...   ....xxxxxxxxxxxxxx",
"xxxxxxxxxxxxxx                                                  ....    ..    ....xxxxxxxxxxxxxx",
"xxxxxxxxxxxxxxx                                                 ....    ....   .xxxxxxxxxxxxxxxx",
"xxxxxxxxxxxxxxxxx                                               ....    ....   xxxxxxxxxxxxxxxxx",
"xxxxxxxxxxxxxxxxxxxxxxxxxxxxxxxxxxxxxxxxxxxxxxxxxxxxxxxxxxxxxxxxxxxxxxxxxxxxxxxxxxxxxxxxxxxxxxxx",
"xxxxxxxxxxxxxxxxxxxxxxxxxxxxxxxxxxxxxxxxxxxxxxxxxxxxxxxxxxxxxxxxxxxxxxxxxxxxxxxxxxxxxxxxxxxxxxxx",
"xxxxxxxxxxxxxxxxxxxxxxxxxxxxxxxxxxxxxxxxxxxxxxxxxxxxxxxxxxxxxxxxxxxxxxxxxxxxxxxxxxxxxxxxxxxxxxxx",
"xxxxxxxxxxxxxxxxxxxxxxxxxxxxxxxxxxxxxxxxxxxxxxxxxxxxxxxxxxxxxxxxxxxxxxxxxxxxxxxxxxxxxxxxxxxxxxxx"
};
