/* XPM */
static const char *brick[] = {
/* columns rows colors chars-per-pixel */
"96 96 67 1 ",
"  c #E67F21",
". c #E67E22",
"X c #E67F22",
"o c #E67E23",
"O c #E88B1E",
"+ c #E88A1F",
"@ c #E88B1F",
"# c #E98E1D",
"$ c #E88D1E",
"% c #E88D1F",
"& c #E98E1E",
"* c #E98F1E",
"= c #E9951C",
"- c #EA971C",
"; c #E9981A",
": c #EB991B",
"> c #EA9A1A",
", c #EB9A1A",
"< c #EB9E1A",
"1 c #EC9F19",
"2 c #F39C12",
"3 c #F39C13",
"4 c #F39F12",
"5 c #F1BE0F",
"6 c #ECA417",
"7 c #ECA916",
"8 c #EDA817",
"9 c #EEAD15",
"0 c #EBA318",
"q c #ECA818",
"w c #F2AC11",
"e c #EEB313",
"r c #EEB413",
"t c #EFB513",
"y c #EFB712",
"u c #EFB713",
"i c #EEB414",
"p c #EFBB11",
"a c #EFB812",
"s c #EFB912",
"d c #F1BC11",
"f c #F0BF10",
"g c #F0BE11",
"h c #E68021",
"j c #E68121",
"k c #E78121",
"l c #E68221",
"z c #E78221",
"x c #E78321",
"c c #E68122",
"v c #E78122",
"b c #E78420",
"n c #E78520",
"m c #F1C10F",
"M c #F0C30F",
"N c #F1C30F",
"B c #F2C30F",
"V c #F1C40E",
"C c #F0C40F",
"Z c #F1C40F",
"A c #F1C50F",
"S c #F2C40F",
"D c #F0C010",
"F c #F1C010",
"G c #F1C011",
"H c #F1C210",
"J c None",
/* pixels */
"JJJJJJJJJJJJJJJJJJJJJJJJJJJJJJJJJJJJJJJJJJJJCSCSCSSCJJJJJJJJJJJJJJJJJJJJJJJJJJJJJJJJJJJJJJJJJJJJ",
"JJJJJJJJJJJJJJJJJJJJJJJJJJJJJJJJJJJJJJJJJCCSSCSCSCSCSCCJJJJJJJJJJJJJJJJJJJJJJJJJJJJJJJJJJJJJJJJJ",
"JJJJJJJJJJJJJJJJJJJJJJJJJJJJJJJJJJJJJJCSCSCSCSCSCSCSCSCSCCJJJJJJJJJJJJJJJJJJJJJJJJJJJJJJJJJJJJJJ",
"JJJJJJJJJJJJJJJJJJJJJJJJJJJJJJJJJJJJJCSCSCSCSCSCSCSCSCSCSCSJJJJJJJJJJJJJJJJJJJJJJJJJJJJJJJJJJJJJ",
"JJJJJJJJJJJJJJJJJJJJJJJJJJJJJJJJJJJJSCSCCSCSCSCSCSCSCSCSSCSCJJJJJJJJJJJJJJJJJJJJJJJJJJJJJJJJJJJJ",
"JJJJJJJJJJJJJJJJJJJJJJJJJJJJJJJJJJJSCSCSSCSCSCSCSCSCSCSCCSCSSJJJJJJJJJJJJJJJJJJJJJJJJJJJJJJJJJJJ",
"JJJJJJJJJJJJJJJJJJJJJJJJJJJJJJJJJJJSSCSCCSCSCSCSCSCSCSCSSCSCSJJJJJJJJJJJJJJJJJJJJJJJJJJJJJJJJJJJ",
"JJJJJJJJJJJJJJJJJJJJJJJJJJJJJJJJJJCSCSCSSCSCSCSCSCSCSCSCCSCSCCJJJJJJJJJJJJJJJJJJJJJJJJJJJJJJJJJJ",
"JJJJJJJJJJJJJJJJJJJJJJJJJJJJJJJJJJSCCSCSCSCSCSCSSCSCSCSCSCSCSCJJJJJJJJJJJJJJJJJJJJJJJJJJJJJJJJJJ",
"JJJJJJJJJJJJJJJJJJJJJJJJJJJJJJJJJCdSSCSCSCSCSCSCCSCSCSCSCSCSCdSJJJJJJJJJJJJJJJJJJJJJJJJJJJJJJJJJ",
"JJJJJJJJJJJJJJJJJJJJJJJJJJJJJJJJCStCCSCSCSCSCSCSSCSCSCSCSCSCCtCSJJJJJJJJJJJJJJJJJJJJJJJJJJJJJJJJ",
"JJJJJJJJJJJJJJJJJJJJJJJJJJJJJJSCSC:CSCSCSCSCSCSCCSCSCSCSCSCSC:SCSCJJJJJJJJJJJJJJJJJJJJJJJJJJJJJJ",
"JJJJJJJJJJJJJJJJJJJJJJJJJJJJCSCSCSztCCCSCSCSCSCSSCSCSCSCCSCCt.CSCSCSJJJJJJJJJJJJJJJJJJJJJJJJJJJJ",
"JJJJJJJJJJJJJJJJJJJJJJJJJJJCSCSCSC.ztSCCSCSCSCSCCSCSCSCSSCCtzzSCSCSCSJJJJJJJJJJJJJJJJJJJJJJJJJJJ",
"JJJJJJJJJJJJJJJJJJCSSCSCSCSCCSCSCS..ztCCCSCSCSCSSCSCSCSCCStz..CSCSCSCSCJJJJJJJJJJJJJJJJJJJJJJJJJ",
"JJJJJJJJJJJJJJJCCSCSCSCSCSCSSCSCSC...z65SCSCSCSCCSCSCSCCd6...+SCSCSCSCSCJJJJJJJJJJJJJJJJJJJJJJJJ",
"JJJJJJJJJJJJCCSCSCSCSCSCCSCSCSCSCC+ooooo,tDDSDCCSCSCDDd,zoo o=CCCSCSCSCSCSCSSCJJJJJJJJJJJJJJJJJJ",
"JJJJJJJJJJJSCSCSCSCSCSCSSCSCSCSCCC=ooooo.z=,6wtdCtw6,#z.oo o 6CCSCSCSCSCSCSCSCCSCJJJJJJJJJJJJJJJ",
"JJJJJJJJJJSCSCSCSCSCSCSCCSCSCSCSCC5oo oo....z...........oooo#CCCCSCSCSCSCSCSCSCSCSSCJJJJJJJJJJJJ",
"JJJJJJJJJSCSCSCSCSCSCSCSSCSCSCSCCCCy+oob................ooo#dCCCSCSCSCSCSCSCSCSCSCCSCJJJJJJJJJJJ",
"JJJJJJJJJCSCCSCSSCSCSCSCCSCSCSCSCCCSDz.z.................z#5CCSCCSCSCSCSCSCSCSCSCSCSCSJJJJJJJJJJ",
"JJJJJJJJSCCSSCSCCSCSCSCSSCSCSCSCCCSCSDnz..............zzz:5SCCCSSCSCSCSCSCSCSCSCSCSCSCSJJJJJJJJJ",
"JJJJJJJJCSCSCSCSSCSCSCSCCSCSCSCSCSCSSSDD,z.......z.z..n8CCSCSCSCCSCSCSCSCSCSCSCSCSCSCSCJJJJJJJJJ",
"JJJJJJJJdCSCSCSCCSCSCSCSSCSCSCSCSCC5SSSSDD0,#+..zn=:8tDSCSCSCSCSSCSCSCSCSCSCSCSCSCSCSCSSJJJJJJJJ",
"JJJJJJJJtCSCCSCSSCSCAAACCCCCCCCSCSCtCSCSSCSCSCSCSCSCSCSCSCSCSCSCCSCSCSCSSCSCSCSCCSCSCSCSJJJJJJJJ",
"JJJJJJJJ:CCSSCSCCSCSAAAsCCCCCCSCSC5:SCSCCSCSCSCSCSCSCSCSCSCSdCCSSCSCSCSCCSCSCSCSSCSCSCCdJJJJJJJJ",
"JJJJJJJSztSCCSCCSCSCAAAACSCCCCCCCCt.CSCSSCSCSCSCSCSCSCSCSCSCtCSCCSCSCSCSSCSCSCSCCSCSSCCtCJJJJJJJ",
"JJJJJSCC.ztSSCCCCSCSAAAASCCCCCCCSt+.SCSCCSCSCSCSCSCSCSCSCSCS:SCSSCSCSCSCCSCSCSCSSCSCCSC:SCSJJJJJ",
"JJJCCCCS..ztCCCCSCSSSSAACSSSSSDCt...CSCSSCSCSCSCSCSCSCSCSCSC.dCCCSCSSCSCSCSCSCSCSCCCSStzSCSCSJJJ",
"JJCCCCSC...z65CDCSSSSSSSSCSSSSA0z..+SCSCCSCSCSCSCSCSCSCSCSCS.ztCSCSCCSCSCSCSCSCSCSCCCtz.CSCSCCJJ",
"DCCCCSCSz.....,dSCCDSDSSCDDDd,oo...#CSCSSCSCSCSCSCSCSCSCSCSC..ztCSSCSCSCSCSCSCSCSCCCt...SCSCSCS5",
"bsCCSCSC,.......#:6wsDDsw6,=booo...6SCSCCSCSCSCSCSCSCSCSCSCC....65CSCSCSCSCSCSCSCSd6z..+CSCSCSC2",
"..:5CSCCdz........o o o ..........#dDCSCCSCSCSCSCSCSCSCSCSCSz.....:tCCDSSDDSCCCCy1.....#CSCCSw22",
"...+dCSCDdz....... o o o.........#CSCSCSSCSCSCSCSCSCSCSCSCSC,.......#:0wdDDd91;#.......6SCS52222",
".....:CCCCdz......o o o ........#dCCSCSCCSCSCSCSCSCSCSCSCSCSdz..........oozoo o ......#CCSw22222",
"......zdCCCd#..... o ooo......+:5CCCCSCSSCSCSCSCSCSCSCSCSCSCCdz.........oooo o o.....#5CC4222222",
"........:CSCC5:z.oo oooo....+65SCSCSSCSCCSCSAAAACSCSCSCSSCSCCCdz........oo o oo ....#DCw22222222",
"........zzdSCCDS6=++obb+=2qtSCSCSCSCCSCSCCSCAAAASCSCSCSCCSCSCCC5#.......o o o  o..z2d56222222222",
"...........:CCCCCC5MAASSSSDDCSCSCSCSSCSCCCCCsCAACSCSCSCSSCSCSCSCS5:.....  oo  o n8CSw22222222222",
"............zdCCCCCCAAASSSSSSCSCSCDSCSCSCCCCCCAASCSCSCSCCSCSCdCSCCCC6:#+ o++#16iSD52222222222222",
"..............,DCCCCCSCSCSCSCSCSCStCCSCSCSCSAAAACCCCAAAASCCSCtCCCSCSCSCSSCSCCSCSSw22222222222222",
"..............zzdCCCSCSCSCSCSCSCSC:CSCSCSCSCSSAACCCCAAAACSSCS:CSSCSCSCSCCSCSSCS56322222222222222",
".................=CCCSCSCSCSCSCSCSztCSCCCSCSSSSSCCAsAAAASCSStzSCCSCSCSCSSCSCCSw22222222222222222",
"..................+tSCSCSCSCSCSCSC.ztCCCSCSCSSSSCCAAAAAACSCtz.CSSCSCSCSCCSCSC2222222222222222222",
"....................2DDCCSCSSCSCCS..ztCCCSCSCSSSCCSCSSSSDDtz.zCCCSCSCSCSSSCw22222222222222222222",
".....................zdCSCSCCSCSSC...z6dSCCCSCSDCSCSSSSSD0z..zCSSCSCSCSCC52222222222222222222222",
".......................,CSSCSCSCCSz....z:dCCCDDDDDSCDDt,zz..znSCCSCSCSCSw22222222222222222222222",
"........................+tCSCSCSSC,.......#,6wdDDdw6,#...z...wCSSCSCSCS2222222222222222222222222",
"..........................:CSCSCSCdz............z...........nDSSSCSSCw22222222222222222222222222",
"...........................+tCCSCCCd.......................=DDSSCSC52222222222222222222222222222",
".............................:5CSCCSd.....................nDSSSSCCw22222222222222222222222222222",
"..............................+tCSSCS5#.................z0DSSSSSC2222222222222222222222222222222",
"................................:CSCCSC5:.........booo#85CSCSAAt22222222222222222222222222222222",
".................................+tSSCSCCC6:#+..zn=00iCCSSCCSD2222222222222222222222222222222222",
"...................................:CSSCSCCCCSCSSSSSDAACCSCCw22222222222222222222222222222222222",
"....................................+tCSCSCSSCSCSSSSDAACSC56222222222222222222222222222222222222",
"......................................:CCSCSCSCSCSCSCSCSCw22222222222222222222222222222222222222",
".......................................+tCSCSCSCSCSCSCS52222222222222222222222222222222222222222",
".........................................:CCCSCSCSCSCSw22222222222222222222222222222222222222222",
"..........................................+tSCSCSCSC54222222222222222222222222222222222222222222",
"............................................:5CSCCSw22222222222222222222222222222222222222222222",
".............................................+5CS54222222222222222222222222222222222222222222223",
".............................................. :w22222222222222222222222222222222222222222222233",
"..............................................  222222222222222222222222222222222222222222222233",
"J...............................................33222222222222222222222222222222222222222232223J",
"JJ..............................................3322222222222222222222222222222222222222223322JJ",
"JJJJ............................................33322222222222222222222222222222222222222223JJJJ",
"JJJJJ...........................................3332222222222222222222222222222222222223222JJJJJ",
"JJJJJJJ.........................................22222222222222222222222222222222222222333JJJJJJJ",
"JJJJJJJJ........................................2222222222222222222222222222222222222233JJJJJJJJ",
"JJJJJJJJJJ......................................22222222222222222222222222222222222223JJJJJJJJJJ",
"JJJJJJJJJJJ.....................................2222222222222222222222222222222222222JJJJJJJJJJJ",
"JJJJJJJJJJJJJ...................................22222222222222222222222222222222333JJJJJJJJJJJJJ",
"JJJJJJJJJJJJJJ..................................2222222222222222222222222222222233JJJJJJJJJJJJJJ",
"JJJJJJJJJJJJJJJJ................................22222222222222222222222222223233JJJJJJJJJJJJJJJJ",
"JJJJJJJJJJJJJJJJJ...............................2222222222222222222222222222333JJJJJJJJJJJJJJJJJ",
"JJJJJJJJJJJJJJJJJJJ.............................22222222222222222222222222333JJJJJJJJJJJJJJJJJJJ",
"JJJJJJJJJJJJJJJJJJJJ............................2222222222222222222222222233JJJJJJJJJJJJJJJJJJJJ",
"JJJJJJJJJJJJJJJJJJJJJJ..........................22222222222222222222222223JJJJJJJJJJJJJJJJJJJJJJ",
"JJJJJJJJJJJJJJJJJJJJJJJ.........................2222222222222222222222222JJJJJJJJJJJJJJJJJJJJJJJ",
"JJJJJJJJJJJJJJJJJJJJJJJJJ.......................22222222222222222233333JJJJJJJJJJJJJJJJJJJJJJJJJ",
"JJJJJJJJJJJJJJJJJJJJJJJJJJ......................2222222222222222222333JJJJJJJJJJJJJJJJJJJJJJJJJJ",
"JJJJJJJJJJJJJJJJJJJJJJJJJJJJ....................22222222222222222233JJJJJJJJJJJJJJJJJJJJJJJJJJJJ",
"JJJJJJJJJJJJJJJJJJJJJJJJJJJJJo..................2222222222222222223JJJJJJJJJJJJJJJJJJJJJJJJJJJJJ",
"JJJJJJJJJJJJJJJJJJJJJJJJJJJJJJJ.................22222222222233333JJJJJJJJJJJJJJJJJJJJJJJJJJJJJJJ",
"JJJJJJJJJJJJJJJJJJJJJJJJJJJJJJJJ................2222222222223333JJJJJJJJJJJJJJJJJJJJJJJJJJJJJJJJ",
"JJJJJJJJJJJJJJJJJJJJJJJJJJJJJJJJJJ..............22222222222233JJJJJJJJJJJJJJJJJJJJJJJJJJJJJJJJJJ",
"JJJJJJJJJJJJJJJJJJJJJJJJJJJJJJJJJJJ.............2222222222223JJJJJJJJJJJJJJJJJJJJJJJJJJJJJJJJJJJ",
"JJJJJJJJJJJJJJJJJJJJJJJJJJJJJJJJJJJJJ...........22222222333JJJJJJJJJJJJJJJJJJJJJJJJJJJJJJJJJJJJJ",
"JJJJJJJJJJJJJJJJJJJJJJJJJJJJJJJJJJJJJJ..........2222222233JJJJJJJJJJJJJJJJJJJJJJJJJJJJJJJJJJJJJJ",
"JJJJJJJJJJJJJJJJJJJJJJJJJJJJJJJJJJJJJJJJ........22222323JJJJJJJJJJJJJJJJJJJJJJJJJJJJJJJJJJJJJJJJ",
"JJJJJJJJJJJJJJJJJJJJJJJJJJJJJJJJJJJJJJJJJ.......2222233JJJJJJJJJJJJJJJJJJJJJJJJJJJJJJJJJJJJJJJJJ",
"JJJJJJJJJJJJJJJJJJJJJJJJJJJJJJJJJJJJJJJJJJJ.....22333JJJJJJJJJJJJJJJJJJJJJJJJJJJJJJJJJJJJJJJJJJJ",
"JJJJJJJJJJJJJJJJJJJJJJJJJJJJJJJJJJJJJJJJJJJJ....2333JJJJJJJJJJJJJJJJJJJJJJJJJJJJJJJJJJJJJJJJJJJJ",
"JJJJJJJJJJJJJJJJJJJJJJJJJJJJJJJJJJJJJJJJJJJJJJ..23JJJJJJJJJJJJJJJJJJJJJJJJJJJJJJJJJJJJJJJJJJJJJJ",
"JJJJJJJJJJJJJJJJJJJJJJJJJJJJJJJJJJJJJJJJJJJJJJJ.3JJJJJJJJJJJJJJJJJJJJJJJJJJJJJJJJJJJJJJJJJJJJJJJ"
};
