/* XPM */
static char *bullhorn[] = {
/* columns rows colors chars-per-pixel */
"96 96 39 1 ",
"  c #C0392B",
". c #C13A2B",
"X c #C23A2B",
"o c #C33A2D",
"O c #C93D2F",
"+ c #CA3E2F",
"@ c #C83D30",
"# c #CD3F31",
"$ c #CC4031",
"% c #E74C3C",
"& c #E74D3C",
"* c #E74C3D",
"= c #7F8C8D",
"- c #808C8D",
"; c #808D8E",
": c #818F90",
"> c #849192",
", c #879596",
"< c #8A989A",
"1 c #8D9C9D",
"2 c #90A0A1",
"3 c #93A2A3",
"4 c #94A4A5",
"5 c #95A5A5",
"6 c #95A4A6",
"7 c #94A5A6",
"8 c #95A5A6",
"9 c #95A5A7",
"0 c #96A4A6",
"q c #95A6A6",
"w c #96A6A6",
"e c #BDC2C6",
"r c #BDC3C6",
"t c #BDC2C7",
"y c #BDC3C7",
"u c #BEC2C7",
"i c #BEC3C7",
"p c #BCC4C8",
"a c None",
/* pixels */
"aaaaaaaaaaaaaaaaaaaaaaaaaaaaaaaaaaaaaaaaaaaaaaaaaaaaaaaaaaaaaaaaaaaaaaaaaaaaaaaaaaaaaaaaaaaaaaaa",
"aaaaaaaaaaaaaaaaaaaaaaaaaaaaaaaaaaaaaaaaaaaaaaaaaaaaaaaaaaaaaaaaaaaaaaaaaaaaaaaaaaaaaaaaaaaaaaaa",
"aaaaaaaaaaaaaaaaaaaaaaaaaaaaaaaaaaaaaaaaaaaaaaaaaaaaaaaaaaaaaaaaaaaaaaaaaaaaaaaaaaaaaaaaaaaaaaaa",
"aaaaaaaaaaaaaaaaaaaaaaaaaaaaaaaaaaaaaaaaaaaaaaaaaaaaaaaaaaaaaaaaaaaaaaaaaaaaaaaaaaaaaaaaaaaaaaaa",
"aaaaaaaaaaaaaaaaaaaaaaaaaaaaaaaaaaaaaaaaaaaaaaaaaaaaaaaaaaaaaaaaaaaaaaaaaaaaaaaaaaaaaaaaaaaaaaaa",
"aaaaaaaaaaaaaaaaaaaaaaaaaaaaaaaaaaaaaaaaaaaaaaaaaaaaaaaaaaaaaaaaaaaaaaaaaaaaaaaaaaaaaaaaaaaaaaaa",
"aaaaaaaaaaaaaaaaaaaaaaaaaaaaaaaaaaaaaaaaaaaaaaaaaaaaaaaaaaaaaaaaaaaaaaaaaaaaaaaaaaaaaaaaaaaaaaaa",
"aaaaaaaaaaaaaaaaaaaaaaaaaaaaaaaaaaaaaaaaaaaaaaaaaaaaaaaaaaaaaaaaaaaaaaaaaaaaaaaaaaaaaaaaaaaaaaaa",
"aaaaaaaaaaaaaaaaaaaaaaaaaaaaaaaaaaaaaaaaaaaaaaaaaaaaaaaaaaaaaaaaaaaaaaaaaaaaaaaaaaaaaaaaaaaaaaaa",
"aaaaaaaaaaaaaaaaaaaaaaaaaaaaaaaaaaaaaaaaaaaaaaaaaaaaaaaaaaaaaaaaaaaaaaaaaaaaaaaaaaaaaaaaaaaaaaaa",
"aaaaaaaaaaaaaaaaaaaaaaaaaaaaaaaaaaaaaaaaaaaaaaaaaaaaaaaaaaaaaaaaaaaaaaaaaaaaaaaaaaaaaaaaaaaaaaaa",
"aaaaaaaaaaaaaaaaaaaaaaaaaaaaaaaaaaaaaaaaaaaaaaaaaaaaaaaaaaaaaaaaaaaaaaaaaaaaaaaaaaaaaaaaaaaaaaaa",
"aaaaaaaaaaaaaaaaaaaaaaaaaaaaaaaaaaaaaaaaaaaaaaaaaaaaaaaaaaaaaaaaaaaaaaaaaaaaaaaaaaay;;==aaaaaaaa",
"aaaaaaaaaaaaaaaaaaaaaaaaaaaaaaaaaaaaaaaaaaaaaaaaaaaaaaaaaaaaaaaaaaaaaaaaaaaaaaaaaaiy=;==aaaaaaaa",
"aaaaaaaaaaaaaaaaaaaaaaaaaaaaaaaaaaaaaaaaaaaaaaaaaaaaaaaaaaaaaaaaaaaaaaaaaaaaaaaaayyy====aaaaaaaa",
"aaaaaaaaaaaaaaaaaaaaaaaaaaaaaaaaaaaaaaaaaaaaaaaaaaaaaaaaaaaaaaaaaaaaaaaaaaaaaaaayyyy====aaaaaaaa",
"aaaaaaaaaaaaaaaaaaaaaaaaaaaaaaaaaaaaaaaaaaaaaaaaaaaaaaaaaaaaaaaaaaaaaaaaaaaaaaayyyyy====aaaaaaaa",
"aaaaaaaaaaaaaaaaaaaaaaaaaaaaaaaaaaaaaaaaaaaaaaaaaaaaaaaaaaaaaaaaaaaaaaaaaaaaayyyyyyy====aaaaaaaa",
"aaaaaaaaaaaaaaaaaaaaaaaaaaaaaaaaaaaaaaaaaaaaaaaaaaaaaaaaaaaaaaaaaaaaaaaaaaaayyyyyyyy====aaaaaaaa",
"aaaaaaaaaaaaaaaaaaaaaaaaaaaaaaaaaaaaaaaaaaaaaaaaaaaaaaaaaaaaaaaaaaaaaaaaaaayyyyyyyyy====aaaaaaaa",
"aaaaaaaaaaaaaaaaaaaaaaaaaaaaaaaaaaaaaaaaaaaaaaaaaaaaaaaaaaaaaaaaaaaaaaaaayyyyyyyyyyy====aaaaaaaa",
"aaaaaaaaaaaaaaaaaaaaaaaaaaaaaaaaaaaaaaaaaaaaaaaaaaaaaaaaaaaaaaaaaaaaaaaayyyyyyyyyyyy====aaaaaaaa",
"aaaaaaaaaaaaaaaaaaaaaaaaaaaaaaaaaaaaaaaaaaaaaaaaaaaaaaaaaaaaaaaaaaaaaayyyyyyyyyyyyyy====aaaaaaaa",
"aaaaaaaaaaaaaaaaaaaaaaaaaaaaaaaaaaaaaaaaaaaaaaaaaaaaaaaaaaaaaaaaaaaayyyyyyyyyyyyyyyy====aaaaaaaa",
"aaaaaaaaaaaaaaaaaaaaaaaaaaaaaaaaaaaaaaaaaaaaaaaaaaaaaaaaaaaaaaaaaayyyyyyyyyyyyyyyyyy====aaaaaaaa",
"aaaaaaaaaaaaaaaaaaaaaaaaaaaaaaaaaaaaaaaaaaaaaaaaaaaaaaaaaaaaaaaayyyyyyyyyyyyyyyyyyyy====aaaaaaaa",
"aaaaaaaaaaaaaaaaaaaaaaaaaaaaaaaaaaaaaaaaaaaaaaaaaaaaaaaaaaaaapyyyyyyyyyyyyyyyyyyyyyy====aaaaaaaa",
"aaaaaaaaaaaaaaaaaaaaaaaaaaaaaaaaaaaaaaaaaaaaaaaaaaaaaaaaaayyyyyyyyyyyyyyyyyyyyyyyyyy====aaaaaaaa",
"aaaaaaaaaaaaa*%%**%%%%%%**%%%%%%%%%%**aaaaaaaaaaaaaaaayyyyyyyyyyyyyyyyyyyyyyyyyyyyyy====aaaaaaaa",
"aaaaaaaaaaaa**%%**%%%%%%**%%%%%%%%%%***aaaaaaaaaaaayyyyyyyyyyyyyyyyyyyyyyyyyyyyyyyyy====aaaaaaaa",
"aaaaaaaaaa*****%***%%%%%***%%%%%%%%%****aaaaaaayyyyyyyyyyyyyyyyyyyyyyyyyyyyyyyyyyyyy====aaaaaaaa",
"aaaaaaaaaa*****%**%%%%%%**%%%%%%%%%%****aayyyyyyyyyyyyyyyyyyyyyyyyyyyyyyyyyyyyyyyyyy====aaaaaaaa",
"aaaaaaaaa%%%%%%%%%%%%%%%%%%%%%%%%%%%%%%%yyyyyyyyyyyyyyyyyyyyyyyyyyyyyyyyyyyyyyyyyyyy;===aaaaaaaa",
"aaaaaaaa*%%%%%%%%%%%%%%%%%%%%%%%%%%%%%%%yyyyyyyyyyyyyyyyyyyyyyyyyyyyyyyyyyyyyyyyyyyy;;==aaaaaaaa",
"aaaaaaaa**%%%%%%%%%%%%%%%%%%%%%%%%%%%%%%yyyyyyyyyyyyyyyyyyyyyyyyyyyyyyyyyyyyyyyyyyyy====aaaaaaaa",
"aaaaaaaa**%%%%%%%%%%%%%%%%%%%%%%%%%%%%%%yyyyyyyyyyyyyyyyyyyyyyyyyyyyyyyyyyyyyyyyyyyy====aaaaaaaa",
"aaaaaaaa%%%%%%%%%%%%%%%%%%%%%%%%%%%%%%%%yyyyyyyyyyyyyyyyyyyyyyyyyyyyyyyyyyyyyyyyyyyy========aaaa",
"aaaaaaaa%%%%%%%%%%%%%%%%%%%%%%%%%%%%%%%%yyyyyyyyyyyyyyyyyyyyyyyyyyyyyyyyyyyyyyyyyyyy========aaaa",
"aaaaaaaa%%%%%%%%%%%%%%%%%%%%%%%%%%%%%%%%yyyyyyyyyyyyyyyyyyyyyyyyyyyyyyyyyyyyyyyyyyyy========aaaa",
"aaaaaaaa%%%%%%%%%%%%%%%%%%%%%%%%%%%%%%%%yyyyyyyyyyyyyyyyyyyyyyyyyyyyyyyyyyyyyyyyyyyy========aaaa",
"55595959%%%%%%%%%%%%%%%%%%%%%%%%%%%%%%%%yyyyyyyyyyyyyyyyyyyyyyyyyyyyyyyyyyyyyyyyyyyy========aaaa",
"95959595%%%%%%%%%%%%%%%%%%%%%%%%%%%%%%%%yyyyyyyyyyyyyyyyyyyyyyyyyyyyyyyyyyyyyyyyyyyy========aaaa",
"59595959%%%%%%%%%%%%%%%%%%%%%%%%%%%%%%%%yyyyyyyyyyyyyyyyyyyyyyyyyyyyyyyyyyyyyyyyyyyy========aaaa",
"95959595%%%%%%%%%%%%%%%%%%%%%%%%%%%%%%%%yyyyyyyyyyyyyyyyyyyyyyyyyyyyyyyyyyyyyyyyyyyy========aaaa",
"59595959%%%%%%%%%%%%%%%%%%%%****%%%%%%%%yyyyyyyyyyyyyyyyyyyyyyyyyyyyyyyyyyyyyyyyyyyy========aaaa",
"95959595%%%%%%%%%%%%%%%%%%%%****%%%%%%%%yyyyyyyyyyyyyyyyyyyyyyyyyyyyyyyyyyyyyyyyyyyy========aaaa",
"59595959%%%%%%%%%%%%%%%%%%%%%%**%%%%%%%%yyyyyyyyyyyyyyyyyyyyyyyyyyyyyyyyyyyyyyppyyyy========aaaa",
"95959595%%%%%%%%%%%%%%%%%%%%%%**%%%%%%%%yyyyyyyyyyyyyyyyyyyyyyyyyyyyyyyyyyyyyyypyyyy========aaaa",
"========.                               59595959555559595959595995959595959595959595========aaaa",
"========                                95959595555595959595959559595959595959595959========aaaa",
"========                                59595959595559595959595995959595959595959595========aaaa",
"========                                95959595955595959595959559595959595959595959========aaaa",
"========                                59595959595959595959595995959595959595959595========aaaa",
"========                                95959595959595959595959559595959595959595959========aaaa",
"========                                59595959595959595959595995959595959595959595========aaaa",
"========                               .95959595959595959595959559595959595959595959========aaaa",
"aaaaaaaa                                59595959595959595959595995959595959595959595========aaaa",
"aaaaaaaa                                95959595959595959595959559595959595959595959========aaaa",
"aaaaaaaa                                59595959595959595959595995959595959595959595========aaaa",
"aaaaaaaa                                95959595959595959595959559595959595959595959========aaaa",
"aaaaaaaa.                               59595959595959595959595995959595959595959595====aaaaaaaa",
"aaaaaaaa@                               95959595959595959595959559595959595959595959====aaaaaaaa",
"aaaaaaaa$.                              59595959595959595959595995959595959595959595====aaaaaaaa",
"aaaaaaaaa.                              95959595959595959595959559595959595959595959====aaaaaaaa",
"aaaaaaaaa@....                        ..aa959959599595955959595959595959595959595959====aaaaaaaa",
"aaaaaaaaaa@.  ..                      .@aaaaaaa5955959599595959595959595959595959595====aaaaaaaa",
"aaaaaaaaaaa$....       .             ..aaaaaaaaaaaa595955959595959595959595959595959====aaaaaaaa",
"aaaaaaaaaaaaa@@.       .            .@aaaaaaaaaaaaaaaa959595959595959595959595959595====aaaaaaaa",
"aaaaaaaaaaaaaaaa9959595959595959>===aaaaaaaaaaaaaaaaaaaaaa59955959595959595959595959;;==aaaaaaaa",
"aaaaaaaaaaaaaaaaa9959595959595951===;aaaaaaaaaaaaaaaaaaaaaaaa09595959595959595959595=;==aaaaaaaa",
"aaaaaaaaaaaaaaaaa9595959595959595====aaaaaaaaaaaaaaaaaaaaaaaaaaa55595959595959595959====aaaaaaaa",
"aaaaaaaaaaaaaaaaaa9595959595959551===aaaaaaaaaaaaaaaaaaaaaaaaaaaaa959595959595959595====aaaaaaaa",
"aaaaaaaaaaaaaaaaaa5959595959595995====aaaaaaaaaaaaaaaaaaaaaaaaaaaaaa9595959559595959====aaaaaaaa",
"aaaaaaaaaaaaaaaaaa9595959595959559>:==aaaaaaaaaaaaaaaaaaaaaaaaaaaaaaaa59595995959595====aaaaaaaa",
"aaaaaaaaaaaaaaaaaaa9595959595959952====aaaaaaaaaaaaaaaaaaaaaaaaaaaaaaaaa959559595959====aaaaaaaa",
"aaaaaaaaaaaaaaaaaaa5959595959595599:===aaaaaaaaaaaaaaaaaaaaaaaaaaaaaaaaaa95995959555====aaaaaaaa",
"aaaaaaaaaaaaaaaaaaaa5959595959595951===;aaaaaaaaaaaaaaaaaaaaaaaaaaaaaaaaaaa595595959====aaaaaaaa",
"aaaaaaaaaaaaaaaaaaaa9595959595959595:===aaaaaaaaaaaaaaaaaaaaaaaaaaaaaaaaaaaa09959595====aaaaaaaa",
"aaaaaaaaaaaaaaaaaaaaa959595959595955<===aaaaaaaaaaaaaaaaaaaaaaaaaaaaaaaaaaaaa5995959====aaaaaaaa",
"aaaaaaaaaaaaaaaaaaaaa5959595959595955;===aaaaaaaaaaaaaaaaaaaaaaaaaaaaaaaaaaaaaa59595====aaaaaaaa",
"aaaaaaaaaaaaaaaaaaaaa5959595959595959>===aaaaaaaaaaaaaaaaaaaaaaaaaaaaaaaaaaaaaaa5595====aaaaaaaa",
"aaaaaaaaaaaaaaaaaaaaaa5959595959595955====aaaaaaaaaaaaaaaaaaaaaaaaaaaaaaaaaaaaaaa959====aaaaaaaa",
"aaaaaaaaaaaaaaaaaaaaaa9595959595959595:===aaaaaaaaaaaaaaaaaaaaaaaaaaaaaaaaaaaaaaaa95====aaaaaaaa",
"aaaaaaaaaaaaaaaaaaaaaaa9595959595959591===:aaaaaaaaaaaaaaaaaaaaaaaaaaaaaaaaaaaaaaaa9====aaaaaaaa",
"aaaaaaaaaaaaaaaaaaaaaaa5959595959595955:===aaaaaaaaaaaaaaaaaaaaaaaaaaaaaaaaaaaaaaaaaaaaaaaaaaaaa",
"aaaaaaaaaaaaaaaaaaaaaaaa595959595959599<===aaaaaaaaaaaaaaaaaaaaaaaaaaaaaaaaaaaaaaaaaaaaaaaaaaaaa",
"aaaaaaaaaaaaaaaaaaaaaaaa9595959595959592====aaaaaaaaaaaaaaaaaaaaaaaaaaaaaaaaaaaaaaaaaaaaaaaaaaaa",
"aaaaaaaaaaaaaaaaaaaaaaaa5959595959595959,===aaaaaaaaaaaaaaaaaaaaaaaaaaaaaaaaaaaaaaaaaaaaaaaaaaaa",
"aaaaaaaaaaaaaaaaaaaaaaaaa9959595959595952====aaaaaaaaaaaaaaaaaaaaaaaaaaaaaaaaaaaaaaaaaaaaaaaaaaa",
"aaaaaaaaaaaaaaaaaaaaaaaaa5595959595959595>===aaaaaaaaaaaaaaaaaaaaaaaaaaaaaaaaaaaaaaaaaaaaaaaaaaa",
"aaaaaaaaaaaaaaaaaaaaaaaaaa9595959595959551===;aaaaaaaaaaaaaaaaaaaaaaaaaaaaaaaaaaaaaaaaaaaaaaaaaa",
"aaaaaaaaaaaaaaaaaaaaaaaaaa5959595959595995:===aaaaaaaaaaaaaaaaaaaaaaaaaaaaaaaaaaaaaaaaaaaaaaaaaa",
"aaaaaaaaaaaaaaaaaaaaaaaaaaa995959595959559<===aaaaaaaaaaaaaaaaaaaaaaaaaaaaaaaaaaaaaaaaaaaaaaaaaa",
"aaaaaaaaaaaaaaaaaaaaaaaaaaa5595959595959955====aaaaaaaaaaaaaaaaaaaaaaaaaaaaaaaaaaaaaaaaaaaaaaaaa",
"aaaaaaaaaaaaaaaaaaaaaaaaaaa9959595959595955>===aaaaaaaaaaaaaaaaaaaaaaaaaaaaaaaaaaaaaaaaaaaaaaaaa",
"aaaaaaaaaaaaaaaaaaaaaaaaaaaa5959595959595955====aaaaaaaaaaaaaaaaaaaaaaaaaaaaaaaaaaaaaaaaaaaaaaaa"
};
