/* XPM */
static char *calendar[] = {
/* columns rows colors chars-per-pixel */
"96 96 30 1 ",
"  c #C0392B",
". c #C43B2D",
"X c #CD3F31",
"o c #CE3F31",
"O c #BB463A",
"+ c #DB4637",
"@ c #E44B3B",
"# c #E74C3C",
"$ c #E75142",
"% c #E75B4C",
"& c #E87165",
"* c #A4807C",
"= c #E98278",
"- c #E8867D",
"; c #979E9F",
": c #999B9A",
"> c #95A5A6",
", c #B3BCBE",
"< c #B9C0C4",
"1 c #BBC2C5",
"2 c #BDC3C7",
"3 c #C4CACD",
"4 c #D2D7D9",
"5 c #D5DADC",
"6 c #DEE3E4",
"7 c #DEE3E5",
"8 c #E7ECED",
"9 c #EAEEF0",
"0 c #ECF0F1",
"q c None",
/* pixels */
"qqqqqqqqqqqqqqqqqqqqqqqqqqqqqqqqqqqqqqqqqqqqqqqqqqqqqqqqqqqqqqqqqqqqqqqqqqqqqqqqqqqqqqqqqqqqqqqq",
"qqqqqqqqqqqqqqqqqqqqqqqqqqqqqqqqqqqqqqqqqqqqqqqqqqqqqqqqqqqqqqqqqqqqqqqqqqqqqqqqqqqqqqqqqqqqqqqq",
"qqqqqqqqqqqqqqqqqqqqqqqqqqqqqqqqqqqqqqqqqqqqqqqqqqqqqqqqqqqqqqqqqqqqqqqqqqqqqqqqqqqqqqqqqqqqqqqq",
"qqqqqqqqqqqqqqqqqqqqqqqqqqqqqqqqqqqqqqqqqqqqqqqqqqqqqqqqqqqqqqqqqqqqqqqqqqqqqqqqqqqqqqqqqqqqqqqq",
"qqqqqqqqqqqqqqqqqqqqqq,22,qqqqqqqqqqqqqqqqqqqqqqqqqqqqqqqqqqqqqqqqqqqq,22,qqqqqqqqqqqqqqqqqqqqqq",
"qqqqqqqqqqqqqqqqqqqqq222222qqqqqqqqqqqqqqqqqqqqqqqqqqqqqqqqqqqqqqqqqq222222qqqqqqqqqqqqqqqqqqqqq",
"qqqqqqqqqqqqqqqqqqqq,222222,qqqqqqqqqqqqqqqqqqqqqqqqqqqqqqqqqqqqqqqq,222222,qqqqqqqqqqqqqqqqqqqq",
"qqqqqqqqqqqqqqqqqqqq2222222<qqqqqqqqqqqqqqqqqqqqqqqqqqqqqqqqqqqqqqqq2222222<qqqqqqqqqqqqqqqqqqqq",
"qqqqqqqqqqqqqqqqqqqq22222222qqqqqqqqqqqqqqqqqqqqqqqqqqqqqqqqqqqqqqqq22222222qqqqqqqqqqqqqqqqqqqq",
"qqqqqqqqqqqqqqqqqqqq22222222qqqqqqqqqqqqqqqqqqqqqqqqqqqqqqqqqqqqqqqq22222222qqqqqqqqqqqqqqqqqqqq",
"qqqqqqqqqqqqqqqqqqqq22222222qqqqqqqqqqqqqqqqqqqqqqqqqqqqqqqqqqqqqqqq22222222qqqqqqqqqqqqqqqqqqqq",
"qqqqqqqqqqqqqqqqqqqq22222222qqqqqqqqqqqqqqqqqqqqqqqqqqqqqqqqqqqqqqqq22222222qqqqqqqqqqqqqqqqqqqq",
"qqqqqqqqqqqqqqqqq-&%22222222########################################22222222%&=qqqqqqqqqqqqqqqqq",
"qqqqqqqqqqqqqqq-$###22222222########################################22222222###$-qqqqqqqqqqqqqqq",
"qqqqqqqqqqqqqq&#####22222222########################################22222222#####&qqqqqqqqqqqqqq",
"qqqqqqqqqqqqq-######22222222########################################22222222######-qqqqqqqqqqqqq",
"qqqqqqqqqqqqq$######>>>>>>>>########################################>>>>>>>>######$qqqqqqqqqqqqq",
"qqqqqqqqqqqq-#######>>>>>>>>+#######################################>>>>>>>>#######-qqqqqqqqqqqq",
"qqqqqqqqqqqq&######o>>>>>>>>++####################################++>>>>>>>>++#####&qqqqqqqqqqqq",
"qqqqqqqqqqqq%#####+ >>>>>>>> +####################################+ >>>>>>>> +#####%qqqqqqqqqqqq",
"qqqqqqqqqqqq######X :>>>>>>: o####################################X :>>>>>>: X######qqqqqqqqqqqq",
"qqqqqqqqqqqq######. *>>>>>>* .####################################  *>>>>>>*  ######qqqqqqqqqqqq",
"qqqqqqqqqqqq######. O:>>>>:O .####################################. O:>>>>;O  +#####qqqqqqqqqqqq",
"qqqqqqqqqqqq######X  O*::*O  o###################################++  O*::*O  +######qqqqqqqqqqqq",
"qqqqqqqqqqqq######+          +####################################+         .+######qqqqqqqqqqqq",
"qqqqqqqqqqqq#######X        o######################################o        X#######qqqqqqqqqqqq",
"qqqqqqqqqqqq########X      X########################################o      o########qqqqqqqqqqqq",
"qqqqqqqqqqqq#########+X..X+##########################################+o .o+#########qqqqqqqqqqqq",
"qqqqqqqqqqqq########################################################################qqqqqqqqqqqq",
"qqqqqqqqqqqq########################################################################qqqqqqqqqqqq",
"qqqqqqqqqqqq########################################################################qqqqqqqqqqqq",
"qqqqqqqqqqqq########################################################################qqqqqqqqqqqq",
"qqqqqqqqqqqq########################################################################qqqqqqqqqqqq",
"qqqqqqqqqqqq########################################################################qqqqqqqqqqqq",
"qqqqqqqqqqqq########################################################################qqqqqqqqqqqq",
"qqqqqqqqqqqq########################################################################qqqqqqqqqqqq",
"qqqqqqqqqqqq000000000000000000000000000000000000000000000000000000000000000000000000qqqqqqqqqqqq",
"qqqqqqqqqqqq000000000000000000000000000000000000000000000000000000000000000000000000qqqqqqqqqqqq",
"qqqqqqqqqqqq000000000000000000000000000000000000000000000000000000000000000000000000qqqqqqqqqqqq",
"qqqqqqqqqqqq000000000000000000000000000000000000000000000000000000000000000000000000qqqqqqqqqqqq",
"qqqqqqqqqqqq000000000000000000000000000000000000000000000000000000000000000000000000qqqqqqqqqqqq",
"qqqqqqqqqqqq000000000000000000000000000000000000000000000000000000000000000000000000qqqqqqqqqqqq",
"qqqqqqqqqqqq000000000000000000000000000000000000000000000000000000000000000000000000qqqqqqqqqqqq",
"qqqqqqqqqqqq000000000000000000000000000000000000000000000000000000000000000000000000qqqqqqqqqqqq",
"qqqqqqqqqqqq000000002222222200002222222200002222222200002222222200002222222200000000qqqqqqqqqqqq",
"qqqqqqqqqqqq000000002222222200002222222200002222222200002222222200002222222200000000qqqqqqqqqqqq",
"qqqqqqqqqqqq000000002222222200002222222200002222222200002222222200002222222200000000qqqqqqqqqqqq",
"qqqqqqqqqqqq000000002222222200002222222200002222222200002222222200002222222200000000qqqqqqqqqqqq",
"qqqqqqqqqqqq000000002222222200002222222200002222222200002222222200002222222200000000qqqqqqqqqqqq",
"qqqqqqqqqqqq000000002222222200002222222200002222222200002222222200002222222200000000qqqqqqqqqqqq",
"qqqqqqqqqqqq000000002222222200002222222200002222222200002222222200002222222200000000qqqqqqqqqqqq",
"qqqqqqqqqqqq000000002222222200002222222200002222222200002222222200002222222200000000qqqqqqqqqqqq",
"qqqqqqqqqqqq000000000000000000000000000000000000000000000000000000000000000000000000qqqqqqqqqqqq",
"qqqqqqqqqqqq000000000000000000000000000000000000000000000000000000000000000000000000qqqqqqqqqqqq",
"qqqqqqqqqqqq000000000000000000000000000000000000000000000000000000000000000000000000qqqqqqqqqqqq",
"qqqqqqqqqqqq000000000000000000000000000000000000000000000000000000000000000000000000qqqqqqqqqqqq",
"qqqqqqqqqqqq000000002222222200002222222200002222222200002222222200002222222200000000qqqqqqqqqqqq",
"qqqqqqqqqqqq000000002222222200002222222200002222222200002222222200002222222200000000qqqqqqqqqqqq",
"qqqqqqqqqqqq000000002222222200002222222200002222222200002222222200002222222200000000qqqqqqqqqqqq",
"qqqqqqqqqqqq000000002222222200002222222200002222222200002222222200002222222200000000qqqqqqqqqqqq",
"qqqqqqqqqqqq000000002222222200002222222200002222222200002222222200002222222200000000qqqqqqqqqqqq",
"qqqqqqqqqqqq000000002222222200002222222200002222222200002222222200002222222200000000qqqqqqqqqqqq",
"qqqqqqqqqqqq000000002222222200002222222200002222222200002222222200002222222200000000qqqqqqqqqqqq",
"qqqqqqqqqqqq000000002222222200002222222200002222222200002222222200002222222200000000qqqqqqqqqqqq",
"qqqqqqqqqqqq000000000000000000000000000000000000000000000000000000000000000000000000qqqqqqqqqqqq",
"qqqqqqqqqqqq000000000000000000000000000000000000000000000000000000000000000000000000qqqqqqqqqqqq",
"qqqqqqqqqqqq000000000000000000000000000000000000000000000000000000000000000000000000qqqqqqqqqqqq",
"qqqqqqqqqqqq000000000000000000000000000000000000000000000000000000000000000000000000qqqqqqqqqqqq",
"qqqqqqqqqqqq000000002222222200002222222200002222222200002222222200002222222200000000qqqqqqqqqqqq",
"qqqqqqqqqqqq000000002222222200002222222200002222222200002222222200002222222200000000qqqqqqqqqqqq",
"qqqqqqqqqqqq000000002222222200002222222200002222222200002222222200002222222200000000qqqqqqqqqqqq",
"qqqqqqqqqqqq000000002222222200002222222200002222222200002222222200002222222200000000qqqqqqqqqqqq",
"qqqqqqqqqqqq000000002222222200002222222200002222222200002222222200002222222200000000qqqqqqqqqqqq",
"qqqqqqqqqqqq000000002222222200002222222200002222222200002222222200002222222200000000qqqqqqqqqqqq",
"qqqqqqqqqqqq000000002222222200002222222200002222222200002222222200002222222200000000qqqqqqqqqqqq",
"qqqqqqqqqqqq000000002222222200002222222200002222222200002222222200002222222200000000qqqqqqqqqqqq",
"qqqqqqqqqqqq800000000000000000000000000000000000000000000000000000000000000000000008qqqqqqqqqqqq",
"qqqqqqqqqqqq600000000000000000000000000000000000000000000000000000000000000000000006qqqqqqqqqqqq",
"qqqqqqqqqqqq500000000000000000000000000000000000000000000000000000000000000000000005qqqqqqqqqqqq",
"qqqqqqqqqqqq390000000000000000000000000000000000000000000000000000000000000000000093qqqqqqqqqqqq",
"qqqqqqqqqqqq240000000000000000000000000000000000000000000000000000000000000000000042qqqqqqqqqqqq",
"qqqqqqqqqqqq226000000000000000000000000000000000000000000000000000000000000000000622qqqqqqqqqqqq",
"qqqqqqqqqqqq222490000000000000000000000000000000000000000000000000000000000000094222qqqqqqqqqqqq",
"qqqqqqqqqqqqq2223568000000000000000000000000000000000000000000000000000000008653222qqqqqqqqqqqqq",
"qqqqqqqqqqqqqq22222222222222222222222222222222222222222222222222222222222222222222qqqqqqqqqqqqqq",
"qqqqqqqqqqqqqq22222222222222222222222222222222222222222222222222222222222222222222qqqqqqqqqqqqqq",
"qqqqqqqqqqqqqqqq2222222222222222222222222222222222222222222222222222222222222222qqqqqqqqqqqqqqqq",
"qqqqqqqqqqqqqqqqq22222222222222222222222222222222222222222222222222222222222222qqqqqqqqqqqqqqqqq",
"qqqqqqqqqqqqqqqqqqqqqqqqqqqqqqqqqqqqqqqqqqqqqqqqqqqqqqqqqqqqqqqqqqqqqqqqqqqqqqqqqqqqqqqqqqqqqqqq",
"qqqqqqqqqqqqqqqqqqqqqqqqqqqqqqqqqqqqqqqqqqqqqqqqqqqqqqqqqqqqqqqqqqqqqqqqqqqqqqqqqqqqqqqqqqqqqqqq",
"qqqqqqqqqqqqqqqqqqqqqqqqqqqqqqqqqqqqqqqqqqqqqqqqqqqqqqqqqqqqqqqqqqqqqqqqqqqqqqqqqqqqqqqqqqqqqqqq",
"qqqqqqqqqqqqqqqqqqqqqqqqqqqqqqqqqqqqqqqqqqqqqqqqqqqqqqqqqqqqqqqqqqqqqqqqqqqqqqqqqqqqqqqqqqqqqqqq",
"qqqqqqqqqqqqqqqqqqqqqqqqqqqqqqqqqqqqqqqqqqqqqqqqqqqqqqqqqqqqqqqqqqqqqqqqqqqqqqqqqqqqqqqqqqqqqqqq",
"qqqqqqqqqqqqqqqqqqqqqqqqqqqqqqqqqqqqqqqqqqqqqqqqqqqqqqqqqqqqqqqqqqqqqqqqqqqqqqqqqqqqqqqqqqqqqqqq",
"qqqqqqqqqqqqqqqqqqqqqqqqqqqqqqqqqqqqqqqqqqqqqqqqqqqqqqqqqqqqqqqqqqqqqqqqqqqqqqqqqqqqqqqqqqqqqqqq",
"qqqqqqqqqqqqqqqqqqqqqqqqqqqqqqqqqqqqqqqqqqqqqqqqqqqqqqqqqqqqqqqqqqqqqqqqqqqqqqqqqqqqqqqqqqqqqqqq"
};
