/* XPM */
static char *cloud_up[] = {
/* columns rows colors chars-per-pixel */
"96 96 61 1 ",
"  c #2980B9",
". c #2C82BA",
"X c #3886BB",
"o c #4A8FBC",
"O c #659BBF",
"+ c #95A5A6",
"@ c #96A6A7",
"# c #97A7A8",
"$ c #98A7A8",
"% c #99A8A9",
"& c #9AA9AA",
"* c #9BA9AB",
"= c #9BAAAB",
"- c #9DABAD",
"; c #9EACAD",
": c #9FACAE",
"> c #9FADAF",
", c #A0ADAF",
"< c #A1AEB0",
"1 c #A2AFB1",
"2 c #A6B2B4",
"3 c #A7B2B4",
"4 c #A7B2B5",
"5 c #A7B3B5",
"6 c #A8B3B6",
"7 c #A8B4B6",
"8 c #A9B4B6",
"9 c #A9B4B7",
"0 c #AAB5B7",
"q c #AAB5B8",
"w c #ACB6B9",
"e c #ADB7BA",
"r c #AEB8BB",
"t c #AFB8BB",
"y c #B0B9BC",
"u c #B0B9BD",
"i c #B1BABD",
"p c #B2BBBE",
"a c #B3BBBF",
"s c #B4BCBF",
"d c #81A8C1",
"f c #9CB4C4",
"g c #AEBDC5",
"h c #B5BDC0",
"j c #B5BDC1",
"k c #B6BEC1",
"l c #B6BEC2",
"z c #B7BEC2",
"x c #B7BFC2",
"c c #B9C0C3",
"v c #B9C0C4",
"b c #BAC0C4",
"n c #BAC1C4",
"m c #BAC1C5",
"M c #BBC1C5",
"N c #BBC2C5",
"B c #BAC1C6",
"V c #BBC2C6",
"C c #BCC2C6",
"Z c #BDC3C7",
"A c None",
/* pixels */
"AAAAAAAAAAAAAAAAAAAAAAAAAAAAAAAAAAAAAAAAAAAAAAAAAAAAAAAAAAAAAAAAAAAAAAAAAAAAAAAAAAAAAAAAAAAAAAAA",
"AAAAAAAAAAAAAAAAAAAAAAAAAAAAAAAAAAAAAAAAAAAAAAAAAAAAAAAAAAAAAAAAAAAAAAAAAAAAAAAAAAAAAAAAAAAAAAAA",
"AAAAAAAAAAAAAAAAAAAAAAAAAAAAAAAAAAAAAAAAAAAAAAAAAAAAAAAAAAAAAAAAAAAAAAAAAAAAAAAAAAAAAAAAAAAAAAAA",
"AAAAAAAAAAAAAAAAAAAAAAAAAAAAAAAAAAAAAAAAAAAAAAAAAAAAAAAAAAAAAAAAAAAAAAAAAAAAAAAAAAAAAAAAAAAAAAAA",
"AAAAAAAAAAAAAAAAAAAAAAAAAAAAAAAAAAAAAAAAAAAAAAAAAAAAAAAAAAAAAAAAAAAAAAAAAAAAAAAAAAAAAAAAAAAAAAAA",
"AAAAAAAAAAAAAAAAAAAAAAAAAAAAAAAAAAAAAAAAAAAAAAAAAAAAAAAAAAAAAAAAAAAAAAAAAAAAAAAAAAAAAAAAAAAAAAAA",
"AAAAAAAAAAAAAAAAAAAAAAAAAAAAAAAAAAAAAAAAAAAAAAAAAAAAAAAAAAAAAAAAAAAAAAAAAAAAAAAAAAAAAAAAAAAAAAAA",
"AAAAAAAAAAAAAAAAAAAAAAAAAAAAAAAAAAAAAAAAAAAAAAAAAAAAAAAAAAAAAAAAAAAAAAAAAAAAAAAAAAAAAAAAAAAAAAAA",
"AAAAAAAAAAAAAAAAAAAAAAAAAAAAAAAAAAAAAAAAAAAAAAAAAAAAAAAAAAAAAAAAAAAAAAAAAAAAAAAAAAAAAAAAAAAAAAAA",
"AAAAAAAAAAAAAAAAAAAAAAAAAAAAAAAAAAAAAAAAAAAAAAAAAAAAAAAAAAAAAAAAAAAAAAAAAAAAAAAAAAAAAAAAAAAAAAAA",
"AAAAAAAAAAAAAAAAAAAAAAAAAAAAAAAAAAAAAAAAAAAAAAAAAAAAAAAAAAAAAAAAAAAAAAAAAAAAAAAAAAAAAAAAAAAAAAAA",
"AAAAAAAAAAAAAAAAAAAAAAAAAAAAAAAAAAAAAAAAAAAAAAAAAAAAAAAAAAAAAAAAAAAAAAAAAAAAAAAAAAAAAAAAAAAAAAAA",
"AAAAAAAAAAAAAAAAAAAAAAAAAAAAAAAAAAAAAAAAAAAAAAAAAAAAAAAAAAAAAAAAAAAAAAAAAAAAAAAAAAAAAAAAAAAAAAAA",
"AAAAAAAAAAAAAAAAAAAAAAAAAAAAAAAAAAAAAAAAAAAAAAAAAAAAAAAAAAAAAAAAAAAAAAAAAAAAAAAAAAAAAAAAAAAAAAAA",
"AAAAAAAAAAAAAAAAAAAAAAAAAAAAAAAAAAAAAAAAAAAAAAAAAAAAAAAAAAAAAAAAAAAAAAAAAAAAAAAAAAAAAAAAAAAAAAAA",
"AAAAAAAAAAAAAAAAAAAAAAAAAAAAAAAAAAAAAAAAAAAAAAAAAAAAAAAAAAAAAAAAAAAAAAAAAAAAAAAAAAAAAAAAAAAAAAAA",
"AAAAAAAAAAAAAAAAAAAAAAAAAAAAAAAAAZZZZZZZZZZAAAAAAAAAAAAAAAAAAAAAAAAAAAAAAAAAAAAAAAAAAAAAAAAAAAAA",
"AAAAAAAAAAAAAAAAAAAAAAAAAAAAAAZZZZZZZZZZZZZZZZZAAAAAAAAAAAAAAAAAAAAAAAAAAAAAAAAAAAAAAAAAAAAAAAAA",
"AAAAAAAAAAAAAAAAAAAAAAAAAAAZZZZZZZZZZZZZZZZZZZZZZAAAAAAAAAAAAAAAAAAAAAAAAAAAAAAAAAAAAAAAAAAAAAAA",
"AAAAAAAAAAAAAAAAAAAAAAAAAZZZZZZZZZZZZZZZZZZZZZZZZZZAAAAAAAAAAAAAAAAAAAAAAAAAAAAAAAAAAAAAAAAAAAAA",
"AAAAAAAAAAAAAAAAAAAAAAAZZZZZZZZZZZZZZZZZZZZZZZZZZZZZAAAAAAAAAAAAAAAAAAAAAAAAAAAAAAAAAAAAAAAAAAAA",
"AAAAAAAAAAAAAAAAAAAAAAZZZZZZZZZZZZZZZZZZZZZZZZZZZZZZZZAAAAAAAAAAAAAAAAAAAAAAAAAAAAAAAAAAAAAAAAAA",
"AAAAAAAAAAAAAAAAAAAAAZZZZZZZZZZZZZZZZZZZZZZZZZZZZZZZZZZAAAAAAAAAAAAAAAAAAAAAAAAAAAAAAAAAAAAAAAAA",
"AAAAAAAAAAAAAAAAAAAAZZZZZZZZZZZZZZZZZZZZZZZZZZZZZZZZZZZZAAAAAAAAAAAAAAAAAAAAAAAAAAAAAAAAAAAAAAAA",
"AAAAAAAAAAAAAAAAAAAZZZZZZZZZZZZZZZZZZZZZZZZZZZZZZZZZZZZZZAAAAAAAAAAAAAAAAAAAAAAAAAAAAAAAAAAAAAAA",
"AAAAAAAAAAAAAAAAAAZZZZZZZZZZZZZZZZZZZZZZZZZZZZZZZZZZZZZZZZAAAAAAAAAAAAAAAAAAAAAAAAAAAAAAAAAAAAAA",
"AAAAAAAAAAAAAAAAAZZZZZZZZZZZZZZZZZZZZZZZZZZZZZZZZZZZZZZZZZZAAAAAAAAAAAAAAAAAAAAAAAAAAAAAAAAAAAAA",
"AAAAAAAAAAAAAAAAZZZZZZZZZZZZZZZZZZZZZZZZZZZZZZZZZZZZZZZZZZZZAAAAAAAAAAAAAAAAAAAAAAAAAAAAAAAAAAAA",
"AAAAAAAAAAAAAAAAZZZZZZZZZZZZZZZZZZZZZZZZZZZZZZZZZZZZZZZZZZZZAAAAAAAZZZZZZZAAAAAAAAAAAAAAAAAAAAAA",
"AAAAAAAAAAAAAAAZZZZZZZZZZZZZZZZZZZZZZZZZZZZZZZZZZZZZZZZZZZZZZAAAZZZZZZZZZZZZAAAAAAAAAAAAAAAAAAAA",
"AAAAAAAAAAAAAAAZZZZZZZZZZZZZZZZZZZZZZZZZZZZZZZZZZZZZZZZZZZZZZAZZZZZZZZZZZZZZZZAAAAAAAAAAAAAAAAAA",
"AAAAAAAAAAAAAAZZZZZZZZZZZZZZZZZZZZZZZZZZZZZZZZZZZZZZZZZZZZZZZZZZZZZZZZZZZZZZZZZAAAAAAAAAAAAAAAAA",
"AAAAAAAAAAAAAAZZZZZZZZZZZZZZZZZZZZZZZZZZZZZZZZZZZZZZZZZZZZZZZZZZZZZZZZZZZZZZZZZZAAAAAAAAAAAAAAAA",
"AAAAAAAAAAAAAAZZZZZZZZZZZZZZZZZZZZZZZZZZZZZZZZZZZZZZZZZZZZZZZZZZZZZZZZZZZZZZZZZZZAAAAAAAAAAAAAAA",
"AAAAAAAAAAAAAZZZZZZZZZZZZZZZZZZZZZZZZZZZZZZZZZZZZZZZZZZZZZZZZZZZZZZZZZZZZZZZZZZZZZAAAAAAAAAAAAAA",
"AAAAAAAAAAAAAZZZZZZZZZZZZZZZZZZZZZZZZZZZZZZZZZZZZZZZZZZZZZZZZZZZZZZZZZZZZZZZZZZZZZAAAAAAAAAAAAAA",
"AAAAAAAAAAAAAZZZZZZZZZZZZZZZZZZZZZZZZZZZZZZZZZZddZVZZZZZZZZZZZZZZZZZZZZZZZZZZZZZZZZAAAAAAAAAAAAA",
"AAAAAAAAAAAAZZZZZZZZZZZZZZZZZZZZZZZZZZZZZZZZZZf..fVVZZZZZZZZZZZZZZZZZZZZZZZZZZZZZZZAAAAAAAAAAAAA",
"AAAAAAAAAAAAZZZZZZZZZZZZZZZZZZZZZZZZZZZZZZVVZgX .XgVZZZZZZZZZZZZZZZZZZZZZZZZZZZZZZZZAAAAAAAAAAAA",
"AAAAAAAAAAAAZZZZZZZZZZZZZZZZZZZZZZZZZZZZZZVVxo  . oVZZZZZZZZZZZZZZZZZZZZZZZZZZZZZZZZAAAAAAAAAAAA",
"AAAAAAAAAAAAVVZZZZZZZZZZZZZZZZZZZZZZZZZZZZZZO      OZZZZZZZZZZZZZZZZZZZZZZZZZZZZZZZZAAAAAAAAAAAA",
"AAAAAAAAAAAAVZZZZZZZZZZZZZZZZZZZZZZZZZZZZZZd        dZZZZZZZZZZZZZZZZZZZZZZZZZZZZZZZAAAAAAAAAAAA",
"AAAAAAAAAAAAZZZZZZZZZZZZZZZZZZZZZZZZZZZZZZf.        .fVZZZZZZZZZZZZZZZZZZZZZZZZZZZZZAAAAAAAAAAAA",
"AAAAAAAAAAZZZZZZZZZZZZZZZZZZZZZZZZZZZZZZZgX.        .XgVZZZZZZZZZZZZZZZZZZZZZZZZZZZxAAAAAAAAAAAA",
"AAAAAAAAAZZZZZZZZZZZZZZZZZZZZZZZZZZZZZZZZo            oVZZZZZZZZZZZZZZZZZZZZZZZZZZZtAAAAAAAAAAAA",
"AAAAAAAZZZZZZZZZZZZZZZZZZZZZZZZZZZZZZZZZO              OZZZZZZZZZZZZZZZZZZZZZZZZZZZtAAAAAAAAAAAA",
"AAAAAAAZZZZZZZZZZZZZZZZZZZZZZZZZZZZZZZZd                dZZZZZZZZZZZZZZZZZZZZZZZZZZZVAAAAAAAAAAA",
"AAAAAAZZZZZZZZZZZZZZZZZZZZZZZZZZZZZZZZf.               ..fZZZZZZZZZZZZZZZZZZZZZZZZZZVVZAAAAAAAAA",
"AAAAAZZZZZZZZZZZZZZZZZZZZZZZZZZZZZZZZgX                  XgVVZZZZZZZZZZZZZZZZZZZZZZZZZZZAAAAAAAA",
"AAAAZZZZZZZZZZZZZZZZZZZZZZZZZZZZZZZZVo                    oVZZZZZZZZZZZZZZZZZZZZZZZZZZZZZAAAAAAA",
"AAAZZZZZZZZZZZZZZZZZZZZZZZZZZZZZZZZZO                      OZZZZZZZZZZZZZZZZZZZZZZZZZZZZZZAAAAAA",
"AAAZZZZZZZZZZZZZZZZZZZZZZZZZZZZZZZVd                        dZZZZZZZZZZZZZZZZZZZZZZZZZZZZZZAAAAA",
"AAZZZZZZZZZZZZZZZZZZZZZZZZZZZZZZZZf.                        .fZZZZZZZZZZZZZZZZZZZZZZZZZZZZZZAAAA",
"AAZZZZZZZZZZZZZZZZZZZZZZZZZZZZZZZgX                          XgZZZZZZZZZZZZZZZZZZZZZZZZZZZZZZAAA",
"AZZZZZZZZZZZZZZZZZZZZZZZZZZZZZZZVo                            oVZZZZZZZZZZZZZZZZZZZZZZZZZZZZZAAA",
"AZZZZZZZZZZZZZZZZZZZZZZZZZZZZZZZO                              OZZZZZZZZZZZZZZZZZZZZZZZZZZZZZZAA",
"AZZZZZZZZZZZZZZZZZZZZZZZZZZZZZZZZZZZZZZZ                ZZZZZZZZZZZZZZZZZZZZZZZZZZZZZZZZZZZZZZAA",
"AZZZZZZZZZZZZZZZZZZZZZZZZZZZZZZZZZZZZZZZ                ZZZZZZZZZZZZZZZZZZZZZZZZZZZZZZZZZZZZZZZA",
"ZZZZZZZZZZZZZZZZZZZZZZZZZZZZZZZZZZZZZZZZ                ZZZZZZZZZZZZZZZZZZZZZZZZZZZZZZZZZZZZZZZA",
"VZZZZZZZZZZZZZZZZZZZZZZZZZZZZZZZZZZZZZZZ                ZZZZZZZZZZZZZZZZZZZZZZZZZZZZZZZZZZZZZZZA",
"VZZZZZZZZZZZZZZZZZZZZZZZZZZZZZZZZZZZZZZZ                ZZZZZZZZZZZZZZZZZZZZZZZZZZZZZZZZZZZZZZZA",
"ZZZZZZZZZZZZZZZZZZZZZZZZZZZZZZZZZZZZZZZZ                ZZZZZZZZZZZZZZZZZZZZZZZZZZZZZZZZZZZZZZZZ",
"VZZZZZZZZZZZZZZZZZZZZZZZZZZZZZZZZZZZZZZZ                ZZZZZZZZZZZZZZZZZZZZZZZZZZZZZZZZZZZZZZZZ",
"xZZZZZZZZZZZZZZZZZZZZZZZZZZZZZZZZZZZZZZZ                ZZZZZZZZZZZZZZZZZZZZZZZZZZZZZZZZZZZZZZZZ",
"zZZZZZZZZZZZZZZZZZZZZZZZZZZZZZZZZZZZZZZZ                ZZZZZZZZZZZZZZZZZZZZZZZZZZZZZZZZZZZZZZZZ",
"xZZZZZZZZZZZZZZZZZZZZZZZZZZZZZZZZZZZZZZZ                ZZZZZZZZZZZZZZZZZZZZZZZZZZZZZZZZZZZZZZZx",
"9ZZZZZZZZZZZZZZZZZZZZZZZZZZZZZZZZZZZZZZZ                ZZZZZZZZZZZZZZZZZZZZZZZZZZZZZZZZZZZZZZZx",
"<xZZZZZZZZZZZZZZZZZZZZZZZZZZZZZZZZZZZZZZ                ZZZZZZZZZZZZZZZZZZZZZZZZZZZZZZZZZZZZZZV9",
"$zZZZZZZZZZZZZZZZZZZZZZZZZZZZZZZZZZZZZZZ                ZZZZZZZZZZZZZZZZZZZZZZZZZZZZZZZZZZZZZZZ9",
"$uZZZZZZZZZZZZZZZZZZZZZZZZZZZZZZZZZZZZZZ                ZZZZZZZZZZZZZZZZZZZZZZZZZZZZZZZZZZZZZZZ:",
"+<xZZZZZZZZZZZZZZZZZZZZZZZZZZZZZZZZZZZZZ                ZZZZZZZZZZZZZZZZZZZZZZZZZZZZZZZZZZZZZZx+",
"A+xZZZZZZZZZZZZZZZZZZZZZZZZZZZZZZZZZZZZZ                ZZZZZZZZZZZZZZZZZZZZZZZZZZZZZZZZZZZZZZ9+",
"A+:VZZZZZZZZZZZZZZZZZZZZZZZZZZZZZZZZZZZZ                ZZZZZZZZZZZZZZZZZZZZZZZZZZZZZZZZZZZZZZ+A",
"A++iZZZZZZZZZZZZZZZZZZZZZZZZZZZZZZZZZZZZ                ZZZZZZZZZZZZZZZZZZZZZZZZZZZZZZZZZZZZZ9+A",
"AA+:ZZZZZZZZZZZZZZZZZZZZZZZZZZZZZZZZZZZZ                ZZZZZZZZZZZZZZZZZZZZZZZZZZZZZZZZZZZZx:+A",
"AA++<ZZZZZZZZZZZZZZZZZZZZZZZZZZZZZZZZZZZ       .        ZZZZZZZZZZZZZZZZZZZZZZZZZZZZZZZZZZZZ,++A",
"AAA++2VZZZZZZZZZZZZZZZZZZZZZZZZZZZZZZZZZZZZZZZZZZZZZZZZZZZZZZZZZZZZZZZZZZZZZZZZZZZZZZZZZZVV9++AA",
"AAA+++9ZZZZZZZZZZZZZZZZZZZZZZZZZZZZZZZZZZZZZZZZZZZZZZZZZZZZZZZZZZZZZZZZZZZZZZZZZZZZZZZZZZVi++AAA",
"AAAA+++2ZZZZZZZZZZZZZZZZZZZZZZZZZZZZZZZZZZZZZZZZZZZZZZZZZZZZZZZZZZZZZZZZZZZZZZZZZZZZZZZZZi+++AAA",
"AAAAA+++,ZZZZZZZZZZZZZZZZZZZZZZZZZZZZZZZZZZZZZZZZZZZZZZZZZZZZZZZZZZZZZZZZZZZZZZZZZZZZZZZ9$++AAAA",
"AAAAAA+++:iZZZZZZZZZZZZZZZZZZZZZZZZZZZZZZZZZZZZZZZZZZZZZZZZZZZZZZZZZZZZZZZZZZZZZZZZZZZx<+++AAAAA",
"AAAAAA+++++:iZZZZZZZZZZZZZZZZZZZZZZZZZZZZZZZZZZZZZZZZZZZZZZZZZZZZZZZZZZZZZZZZZZZZZZZZ9+++++AAAAA",
"AAAAAAAA+++++,9ZZZZZZZZZZZZZZZZZZZZZZZZZZZZZZZZZZZZZZZZZZZZZZZZZZZZZZZZZZZZZZZVVZZx9$+++++AAAAAA",
"AAAAAAAAA+++++++,99izZZZZZZZZZZZZZZZZZZZZZZZZZZZZZZZZZZZZZZZZZZZZZZZZZZZZZZZZZit<:++++++AAAAAAAA",
"AAAAAAAAAA+++++++++++++++++++++++++++++++++++++++++++++++++++++++++++++++++++++++++++++AAAAAAAAA",
"AAAAAAAAAAAA+++++++++++++++++++++++++++++++++++++++++++++++++++++++++++++++++++++++++AAAAAAAAAAA",
"AAAAAAAAAAAAAA+++++++++++++++++++++++++++++++++++++++++++++++++++++++++++++++++++++AAAAAAAAAAAAA",
"AAAAAAAAAAAAAAAAAA++++++++++++++++++++++++++++++++++++++++++++++++++++++++++++++AAAAAAAAAAAAAAAA",
"AAAAAAAAAAAAAAAAAAAAAAAAAAAAAAAAAAAAAAAAAAAAAAAAAAAAAAAAAAAAAAAAAAAAAAAAAAAAAAAAAAAAAAAAAAAAAAAA",
"AAAAAAAAAAAAAAAAAAAAAAAAAAAAAAAAAAAAAAAAAAAAAAAAAAAAAAAAAAAAAAAAAAAAAAAAAAAAAAAAAAAAAAAAAAAAAAAA",
"AAAAAAAAAAAAAAAAAAAAAAAAAAAAAAAAAAAAAAAAAAAAAAAAAAAAAAAAAAAAAAAAAAAAAAAAAAAAAAAAAAAAAAAAAAAAAAAA",
"AAAAAAAAAAAAAAAAAAAAAAAAAAAAAAAAAAAAAAAAAAAAAAAAAAAAAAAAAAAAAAAAAAAAAAAAAAAAAAAAAAAAAAAAAAAAAAAA",
"AAAAAAAAAAAAAAAAAAAAAAAAAAAAAAAAAAAAAAAAAAAAAAAAAAAAAAAAAAAAAAAAAAAAAAAAAAAAAAAAAAAAAAAAAAAAAAAA",
"AAAAAAAAAAAAAAAAAAAAAAAAAAAAAAAAAAAAAAAAAAAAAAAAAAAAAAAAAAAAAAAAAAAAAAAAAAAAAAAAAAAAAAAAAAAAAAAA",
"AAAAAAAAAAAAAAAAAAAAAAAAAAAAAAAAAAAAAAAAAAAAAAAAAAAAAAAAAAAAAAAAAAAAAAAAAAAAAAAAAAAAAAAAAAAAAAAA",
"AAAAAAAAAAAAAAAAAAAAAAAAAAAAAAAAAAAAAAAAAAAAAAAAAAAAAAAAAAAAAAAAAAAAAAAAAAAAAAAAAAAAAAAAAAAAAAAA"
};
