/* XPM */
static char *disc_vinyl[] = {
/* columns rows colors chars-per-pixel */
"96 96 67 1 ",
"  c #64643D",
". c #2C3E50",
"X c #2C3E51",
"o c #2C3F51",
"O c #2D3F51",
"+ c #2D3F52",
"@ c #33424D",
"# c #32414E",
"$ c #34444F",
"% c #3F4A49",
"& c #2D4052",
"* c #2E4053",
"= c #2E4153",
"- c #2E4154",
"; c #2F4154",
": c #2F4255",
"> c #2F4256",
", c #2F4356",
"< c #304356",
"1 c #304357",
"2 c #304457",
"3 c #304458",
"4 c #314458",
"5 c #314558",
"6 c #314559",
"7 c #32465A",
"8 c #32465B",
"9 c #32475B",
"0 c #33475B",
"q c #33475C",
"w c #33485C",
"e c #33485D",
"r c #34485D",
"t c #34495D",
"y c #34495E",
"u c #3A4C5B",
"i c #3A4D5B",
"p c #404B49",
"a c #4F5645",
"s c #465456",
"d c #475556",
"f c #565F50",
"g c #6A6C47",
"h c #92832F",
"j c #968835",
"k c #A28E29",
"l c #A18D2A",
"z c #A4922F",
"x c #A5922F",
"c c #C1A31E",
"v c #C6A71D",
"b c #C7A81F",
"n c #DCB516",
"m c #DDB617",
"M c #D4B119",
"N c #D5B219",
"B c #E7BD12",
"V c #EABE11",
"C c #E8BE12",
"Z c #E8BE13",
"A c #EABF12",
"S c #C2A622",
"D c #C3A622",
"F c #C8A920",
"G c #C8AA20",
"H c #F1C40F",
"J c None",
/* pixels */
"JJJJJJJJJJJJJJJJJJJJJJJJJJJJJJJJJJJJJJJJJJJJJJJJJJJJJJJJJJJJJJJJJJJJJJJJJJJJJJJJJJJJJJJJJJJJJJJJ",
"JJJJJJJJJJJJJJJJJJJJJJJJJJJJJJJJJJJJJJJJJJJJJJJJJJJJJJJJJJJJJJJJJJJJJJJJJJJJJJJJJJJJJJJJJJJJJJJJ",
"JJJJJJJJJJJJJJJJJJJJJJJJJJJJJJJJJJJJJJJJJJJJJJJJJJJJJJJJJJJJJJJJJJJJJJJJJJJJJJJJJJJJJJJJJJJJJJJJ",
"JJJJJJJJJJJJJJJJJJJJJJJJJJJJJJJJJJJJJJJJJJJJJJJJJJJJJJJJJJJJJJJJJJJJJJJJJJJJJJJJJJJJJJJJJJJJJJJJ",
"JJJJJJJJJJJJJJJJJJJJJJJJJJJJJJJJJJJJJJJJJJJ..........JJJJJJJJJJJJJJJJJJJJJJJJJJJJJJJJJJJJJJJJJJJ",
"JJJJJJJJJJJJJJJJJJJJJJJJJJJJJJJJJJJJJ......................JJJJJJJJJJJJJJJJJJJJJJJJJJJJJJJJJJJJJ",
"JJJJJJJJJJJJJJJJJJJJJJJJJJJJJJJJJJ............................JJJJJJJJJJJJJJJJJJJJJJJJJJJJJJJJJJ",
"JJJJJJJJJJJJJJJJJJJJJJJJJJJJJJJ..................................JJJJJJJJJJJJJJJJJJJJJJJJJJJJJJJ",
"JJJJJJJJJJJJJJJJJJJJJJJJJJJJJ......................................JJJJJJJJJJJJJJJJJJJJJJJJJJJJJ",
"JJJJJJJJJJJJJJJJJJJJJJJJJJJ..........................................JJJJJJJJJJJJJJJJJJJJJJJJJJJ",
"JJJJJJJJJJJJJJJJJJJJJJJJJ..............................................JJJJJJJJJJJJJJJJJJJJJJJJJ",
"JJJJJJJJJJJJJJJJJJJJJJJ..................................................JJJJJJJJJJJJJJJJJJJJJJJ",
"JJJJJJJJJJJJJJJJJJJJJJ....................................................JJJJJJJJJJJJJJJJJJJJJJ",
"JJJJJJJJJJJJJJJJJJJJJ......................................................JJJJJJJJJJJJJJJJJJJJJ",
"JJJJJJJJJJJJJJJJJJJJ........................................................JJJJJJJJJJJJJJJJJJJJ",
"JJJJJJJJJJJJJJJJJJJ..........................................................JJJJJJJJJJJJJJJJJJJ",
"JJJJJJJJJJJJJJJJJ......6<......................................................JJJJJJJJJJJJJJJJJ",
"JJJJJJJJJJJJJJJJ......yyy<......................................................JJJJJJJJJJJJJJJJ",
"JJJJJJJJJJJJJJJJ....:6yyyy:.....................................................JJJJJJJJJJJJJJJJ",
"JJJJJJJJJJJJJJJ....:6yyyyy6......................................................JJJJJJJJJJJJJJJ",
"JJJJJJJJJJJJJJ....:yyyyyyyy6......................................................JJJJJJJJJJJJJJ",
"JJJJJJJJJJJJJ....:6yyyyyyyyy<......................................................JJJJJJJJJJJJJ",
"JJJJJJJJJJJJ.....6yyyyyyyyyy6:......................................................JJJJJJJJJJJJ",
"JJJJJJJJJJJ.....6yyyyyyyyyyyy6.......................................................JJJJJJJJJJJ",
"JJJJJJJJJJJ....:yyyyyyyyyyyyyy<......................................................JJJJJJJJJJJ",
"JJJJJJJJJJ.....yyyyyyyyyyyyyyyy<......................................................JJJJJJJJJJ",
"JJJJJJJJJJ....6yyyyyyyyyyyyyyyyy:.....................................................JJJJJJJJJJ",
"JJJJJJJJJ....<yyyyyyyyyyyyyyyyyy6......................................................JJJJJJJJJ",
"JJJJJJJJJ....yyyyyyyyyyyyyyyyyyyy<.....................................................JJJJJJJJJ",
"JJJJJJJJ....<yyyyyyyyyyyyyyyyyyyyy<.....................................................JJJJJJJJ",
"JJJJJJJJ....yyyyyyyyyyyyyyyyyyyyyyy.....................................................JJJJJJJJ",
"JJJJJJJ....:yyyyyyyyyyyyyyyyyyyyyyyy.....................................................JJJJJJJ",
"JJJJJJJ....6yyyyyyyyyyyyyyyyyyyyyyyy<&....$ kcMBCMck O...................................JJJJJJJ",
"JJJJJJJ...<yyyyyyyyyyyyyyyyyyyyyyyyyy<..pkBHHHHHHHHHHCkp.................................JJJJJJJ",
"JJJJJJ....6yyyyyyyyyyyyyyyyyyyyyyyyyyy$hCHHHHHHHHHHHHHHCh$................................JJJJJJ",
"JJJJJJ....yyyyyyyyyyyyyyyyyyyyyyyyyyydbHHHHHHHHHHHHHHHHHHvp...............................JJJJJJ",
"JJJJJJ...<6yyyyyyyyyyyyyyyyyyyyyyyyyfmHHHHHHHHHHHHHHHHHHHHna..............................JJJJJJ",
"JJJJJ....<yyyyyyyyyyyyyyyyyyyyyyyyydmHHHHHHHHHHHHHHHHHHHHHVBp..............................JJJJJ",
"JJJJJ....6yyyyyyyyyyyyyyyyyyyyyyyyibHHHHHHHHHHHHHHHHHHHHHHHHvO.............................JJJJJ",
"JJJJJ....yyyyyyyyyyyyyyyyyyyyyyyyyjHHHHHHHHHHHHHHHHHHHHHHHHHHh.............................JJJJJ",
"JJJJJ....yyyyyyyyyyyyyyyyyyyyyyyydHHHHHHHHHHHHHHHHHHHHHHHHHHHVp............................JJJJJ",
"JJJJJ...<yyyyyyyyyyyyyyyyyyyyyyyyxHHHHHHHHHHHHHHHHHHHHHHHHHHHHk............................JJJJJ",
"JJJJJ...<yyyyyyyyyyyyyyyyyyyyyyyyBHHHHHHHHHHHHHHHHHHHHHHHHHHHHVO...........................JJJJJ",
"JJJJ......<<666yyyyyyyyyyyyyyyyygHHHHHHHHHHHHHHHHHHHHHHHHHHHHHH ............................JJJJ",
"JJJJ.............++<<<6yyyyyy66uxHHHHHHHHHHHHHJJJJHHHHHHHHHHHHHk............................JJJJ",
"JJJJ...................+.++<666<DHHHHHHHHHHHHJJJJJJHHHHHHHHHHHHc............................JJJJ",
"JJJJ............................MHHHHHHHHHHHJJJJJJJJHHHHHHHHHHHM............................JJJJ",
"JJJJ............................CHHHHHHHHHHHJJJJJJJJHHHHHHHHHHHV............................JJJJ",
"JJJJ............................CHHHHHHHHHHHJJJJJJJJHHHHHHHHHHHC............................JJJJ",
"JJJJ............................MHHHHHHHHHHHJJJJJJJJHHHHHHHHHHHM::..........................JJJJ",
"JJJJ............................cHHHHHHHHHHHHJJJJJJHHHHHHHHHHHHDyyy66666:<..................JJJJ",
"JJJJ............................kHHHHHHHHHHHHHJJJJHHHHHHHHHHHHHxyyyyyyyyyyy66666<<..........JJJJ",
"JJJJ............................ HHHHHHHHHHHHHHHHHHHHHHHHHHHHHHgyyyyyyyyyyyyyyyy6yyy6666....JJJJ",
"JJJJJ...........................$CHHHHHHHHHHHHHHHHHHHHHHHHHHHHCiyyyyyyyyyyyyyyyyyyyyyyy6...JJJJJ",
"JJJJJ............................kHHHHHHHHHHHHHHHHHHHHHHHHHHHHxyyyyyyyyyyyyyyyyyyyyyyyy<...JJJJJ",
"JJJJJ............................pCHHHHHHHHHHHHHHHHHHHHHHHHHHCdyyyyyyyyyyyyyyyyyyyyyyyy....JJJJJ",
"JJJJJ.............................hHHHHHHHHHHHHHHHHHHHHHHHHHHjyyyyyyyyyyyyyyyyyyyyyyyy6....JJJJJ",
"JJJJJ.............................$cHHHHHHHHHHHHHHHHHHHHHHHHDiyyyyyyyyyyyyyyyyyyyyyyyy6....JJJJJ",
"JJJJJ..............................pmHHHHHHHHHHHHHHHHHHHHHHnsyyyyyyyyyyyyyyyyyyyyyyyyy6....JJJJJ",
"JJJJJJ..............................amHHHHHHHHHHHHHHHHHHHHBfyyyyyyyyyyyyyyyyyyyyyyyyyy....JJJJJJ",
"JJJJJJ...............................pvHHHHHHHHHHHHHHHHHHbdyyyyyyyyyyyyyyyyyyyyyyyyyy6....JJJJJJ",
"JJJJJJ................................OhVHHHHHHHHHHHHHHCh<6yyyyyyyyyyyyyyyyyyyyyyyyyy6....JJJJJJ",
"JJJJJJJ...............................OOpkCHHHHHHHHHHCkp...6yyyyyyyyyyyyyyyyyyyyyyyyy....JJJJJJJ",
"JJJJJJJ................................OOOO kcMCCMck $.....:yyyyyyyyyyyyyyyyyyyyyyyy6....JJJJJJJ",
"JJJJJJJ.....................................................<yyyyyyyyyyyyyyyyyyyyyyy.....JJJJJJJ",
"JJJJJJJJ.....................................................6yyyyyyyyyyyyyyyyyyyyy6....JJJJJJJJ",
"JJJJJJJJ......................................................yyyyyyyyyyyyyyyyyyyyy:....JJJJJJJJ",
"JJJJJJJJJ.....................................................<6yyyyyyyyyyyyyyyyyy6....JJJJJJJJJ",
"JJJJJJJJJ......................................................6yyyyyyyyyyyyyyyyy6.....JJJJJJJJJ",
"JJJJJJJJJJ......................................................6yyyyyyyyyyyyyyyy6....JJJJJJJJJJ",
"JJJJJJJJJJ......................................................<6yyyyyyyyyyyyyy6.....JJJJJJJJJJ",
"JJJJJJJJJJJ......................................................<yyyyyyyyyyyyyy.....JJJJJJJJJJJ",
"JJJJJJJJJJJ.......................................................66yyyyyyyyyyy......JJJJJJJJJJJ",
"JJJJJJJJJJJJ.......................................................6yyyyyyyyyy6.....JJJJJJJJJJJJ",
"JJJJJJJJJJJJJ......................................................<6yyyyyyyy6.....JJJJJJJJJJJJJ",
"JJJJJJJJJJJJJJ......................................................6yyyyyyy6.....JJJJJJJJJJJJJJ",
"JJJJJJJJJJJJJJJ......................................................6yyyy66.....JJJJJJJJJJJJJJJ",
"JJJJJJJJJJJJJJJJ......................................................6yyy<.....JJJJJJJJJJJJJJJJ",
"JJJJJJJJJJJJJJJJ.......................................................6y<......JJJJJJJJJJJJJJJJ",
"JJJJJJJJJJJJJJJJJ......................................................+6......JJJJJJJJJJJJJJJJJ",
"JJJJJJJJJJJJJJJJJJJ..........................................................JJJJJJJJJJJJJJJJJJJ",
"JJJJJJJJJJJJJJJJJJJJ........................................................JJJJJJJJJJJJJJJJJJJJ",
"JJJJJJJJJJJJJJJJJJJJJ......................................................JJJJJJJJJJJJJJJJJJJJJ",
"JJJJJJJJJJJJJJJJJJJJJJ....................................................JJJJJJJJJJJJJJJJJJJJJJ",
"JJJJJJJJJJJJJJJJJJJJJJJ..................................................JJJJJJJJJJJJJJJJJJJJJJJ",
"JJJJJJJJJJJJJJJJJJJJJJJJJ..............................................JJJJJJJJJJJJJJJJJJJJJJJJJ",
"JJJJJJJJJJJJJJJJJJJJJJJJJJJ..........................................JJJJJJJJJJJJJJJJJJJJJJJJJJJ",
"JJJJJJJJJJJJJJJJJJJJJJJJJJJJJ......................................JJJJJJJJJJJJJJJJJJJJJJJJJJJJJ",
"JJJJJJJJJJJJJJJJJJJJJJJJJJJJJJJ..................................JJJJJJJJJJJJJJJJJJJJJJJJJJJJJJJ",
"JJJJJJJJJJJJJJJJJJJJJJJJJJJJJJJJJJ............................JJJJJJJJJJJJJJJJJJJJJJJJJJJJJJJJJJ",
"JJJJJJJJJJJJJJJJJJJJJJJJJJJJJJJJJJJJJ......................JJJJJJJJJJJJJJJJJJJJJJJJJJJJJJJJJJJJJ",
"JJJJJJJJJJJJJJJJJJJJJJJJJJJJJJJJJJJJJJJJJJJ..........JJJJJJJJJJJJJJJJJJJJJJJJJJJJJJJJJJJJJJJJJJJ",
"JJJJJJJJJJJJJJJJJJJJJJJJJJJJJJJJJJJJJJJJJJJJJJJJJJJJJJJJJJJJJJJJJJJJJJJJJJJJJJJJJJJJJJJJJJJJJJJJ",
"JJJJJJJJJJJJJJJJJJJJJJJJJJJJJJJJJJJJJJJJJJJJJJJJJJJJJJJJJJJJJJJJJJJJJJJJJJJJJJJJJJJJJJJJJJJJJJJJ",
"JJJJJJJJJJJJJJJJJJJJJJJJJJJJJJJJJJJJJJJJJJJJJJJJJJJJJJJJJJJJJJJJJJJJJJJJJJJJJJJJJJJJJJJJJJJJJJJJ",
"JJJJJJJJJJJJJJJJJJJJJJJJJJJJJJJJJJJJJJJJJJJJJJJJJJJJJJJJJJJJJJJJJJJJJJJJJJJJJJJJJJJJJJJJJJJJJJJJ"
};
