/* XPM */
static char *drop[] = {
/* columns rows colors chars-per-pixel */
"96 96 77 1 ",
"  c #2980B9",
". c #2980BA",
"X c #2981BA",
"o c #2981BB",
"O c #2A80BA",
"+ c #2A81BA",
"@ c #2A81BB",
"# c #2982BB",
"$ c #2A82BB",
"% c #2982BC",
"& c #2A82BC",
"* c #2A82BD",
"= c #2A83BD",
"- c #2B83BD",
"; c #2A82BE",
": c #2A83BE",
"> c #2B83BE",
", c #2B84BE",
"< c #2B84BF",
"1 c #2B85C0",
"2 c #2B85C1",
"3 c #2B86C1",
"4 c #2C85C0",
"5 c #2C85C1",
"6 c #2C86C1",
"7 c #2C86C2",
"8 c #2C87C2",
"9 c #2C87C3",
"0 c #2C88C4",
"q c #2D88C5",
"w c #2D89C5",
"e c #2E89C5",
"r c #2D89C6",
"t c #2D8AC7",
"y c #2E8AC8",
"u c #2E8BC8",
"i c #2E8BC9",
"p c #2E8CC9",
"a c #2E8CCA",
"s c #2F8CCA",
"d c #2F8DCA",
"f c #2F8CCB",
"g c #2F8DCB",
"h c #2F8DCC",
"j c #2F8ECD",
"k c #2F8FCF",
"l c #308FCE",
"z c #308FCF",
"x c #3090CE",
"c c #3090CF",
"v c #3090D0",
"b c #3190D0",
"n c #3091D0",
"m c #3091D1",
"M c #3191D1",
"N c #3191D2",
"B c #3192D2",
"V c #3192D3",
"C c #3193D3",
"Z c #3293D3",
"A c #3193D4",
"S c #3293D4",
"D c #3294D5",
"F c #3294D6",
"G c #3395D6",
"H c #3295D7",
"J c #3396D6",
"K c #3396D7",
"L c #3396D8",
"P c #3396D9",
"I c #3397D9",
"U c #3496D9",
"Y c #3497DA",
"T c #3398DA",
"R c #3498DA",
"E c #3498DB",
"W c None",
/* pixels */
"WWWWWWWWWWWWWWWWWWWWWWWWWWWWWWWWWWWWWWWWWWWWWWWWWWWWWWWWWWWWWWWWWWWWWWWWWWWWWWWWWWWWWWWWWWWWWWWW",
"WWWWWWWWWWWWWWWWWWWWWWWWWWWWWWWWWWWWWWWWWWWWWWWWWWWWWWWWWWWWWWWWWWWWWWWWWWWWWWWWWWWWWWWWWWWWWWWW",
"WWWWWWWWWWWWWWWWWWWWWWWWWWWWWWWWWWWWWWWWWWWWWWW  WWWWWWWWWWWWWWWWWWWWWWWWWWWWWWWWWWWWWWWWWWWWWWW",
"WWWWWWWWWWWWWWWWWWWWWWWWWWWWWWWWWWWWWWWWWWWWWWW  WWWWWWWWWWWWWWWWWWWWWWWWWWWWWWWWWWWWWWWWWWWWWWW",
"WWWWWWWWWWWWWWWWWWWWWWWWWWWWWWWWWWWWWWWWWWWWWWW eWWWWWWWWWWWWWWWWWWWWWWWWWWWWWWWWWWWWWWWWWWWWWWW",
"WWWWWWWWWWWWWWWWWWWWWWWWWWWWWWWWWWWWWWWWWWWWWW elOWWWWWWWWWWWWWWWWWWWWWWWWWWWWWWWWWWWWWWWWWWWWWW",
"WWWWWWWWWWWWWWWWWWWWWWWWWWWWWWWWWWWWWWWWWWWWWW lb WWWWWWWWWWWWWWWWWWWWWWWWWWWWWWWWWWWWWWWWWWWWWW",
"WWWWWWWWWWWWWWWWWWWWWWWWWWWWWWWWWWWWWWWWWWWWWW mE WWWWWWWWWWWWWWWWWWWWWWWWWWWWWWWWWWWWWWWWWWWWWW",
"WWWWWWWWWWWWWWWWWWWWWWWWWWWWWWWWWWWWWWWWWWWWW  EEe WWWWWWWWWWWWWWWWWWWWWWWWWWWWWWWWWWWWWWWWWWWWW",
"WWWWWWWWWWWWWWWWWWWWWWWWWWWWWWWWWWWWWWWWWWWWW eEEy WWWWWWWWWWWWWWWWWWWWWWWWWWWWWWWWWWWWWWWWWWWWW",
"WWWWWWWWWWWWWWWWWWWWWWWWWWWWWWWWWWWWWWWWWWWWW lEEy WWWWWWWWWWWWWWWWWWWWWWWWWWWWWWWWWWWWWWWWWWWWW",
"WWWWWWWWWWWWWWWWWWWWWWWWWWWWWWWWWWWWWWWWWWWWW mETT WWWWWWWWWWWWWWWWWWWWWWWWWWWWWWWWWWWWWWWWWWWWW",
"WWWWWWWWWWWWWWWWWWWWWWWWWWWWWWWWWWWWWWWWWWWW  TETTeOWWWWWWWWWWWWWWWWWWWWWWWWWWWWWWWWWWWWWWWWWWWW",
"WWWWWWWWWWWWWWWWWWWWWWWWWWWWWWWWWWWWWWWWWWWW 0TTTTyOWWWWWWWWWWWWWWWWWWWWWWWWWWWWWWWWWWWWWWWWWWWW",
"WWWWWWWWWWWWWWWWWWWWWWWWWWWWWWWWWWWWWWWWWWW  mTTEEm  WWWWWWWWWWWWWWWWWWWWWWWWWWWWWWWWWWWWWWWWWWW",
"WWWWWWWWWWWWWWWWWWWWWWWWWWWWWWWWWWWWWWWWWWW  TTTETT  WWWWWWWWWWWWWWWWWWWWWWWWWWWWWWWWWWWWWWWWWWW",
"WWWWWWWWWWWWWWWWWWWWWWWWWWWWWWWWWWWWWWWWWWW qEEEEEEl WWWWWWWWWWWWWWWWWWWWWWWWWWWWWWWWWWWWWWWWWWW",
"WWWWWWWWWWWWWWWWWWWWWWWWWWWWWWWWWWWWWWWWWWO lEEEEETm  WWWWWWWWWWWWWWWWWWWWWWWWWWWWWWWWWWWWWWWWWW",
"WWWWWWWWWWWWWWWWWWWWWWWWWWWWWWWWWWWWWWWWWW OEEEEEETE  WWWWWWWWWWWWWWWWWWWWWWWWWWWWWWWWWWWWWWWWWW",
"WWWWWWWWWWWWWWWWWWWWWWWWWWWWWWWWWWWWWWWWW  eEEEEEEEE0  WWWWWWWWWWWWWWWWWWWWWWWWWWWWWWWWWWWWWWWWW",
"WWWWWWWWWWWWWWWWWWWWWWWWWWWWWWWWWWWWWWWWW  lEEEEEEEEm  WWWWWWWWWWWWWWWWWWWWWWWWWWWWWWWWWWWWWWWWW",
"WWWWWWWWWWWWWWWWWWWWWWWWWWWWWWWWWWWWWWWWW OEEEEEEEEEEeOWWWWWWWWWWWWWWWWWWWWWWWWWWWWWWWWWWWWWWWWW",
"WWWWWWWWWWWWWWWWWWWWWWWWWWWWWWWWWWWWWWWW  0EEEEEEEEEEl  WWWWWWWWWWWWWWWWWWWWWWWWWWWWWWWWWWWWWWWW",
"WWWWWWWWWWWWWWWWWWWWWWWWWWWWWWWWWWWWWWWW  mEEEEEEEEEEEO WWWWWWWWWWWWWWWWWWWWWWWWWWWWWWWWWWWWWWWW",
"WWWWWWWWWWWWWWWWWWWWWWWWWWWWWWWWWWWWWWW   TEEEEEEEEEEEqO WWWWWWWWWWWWWWWWWWWWWWWWWWWWWWWWWWWWWWW",
"WWWWWWWWWWWWWWWWWWWWWWWWWWWWWWWWWWWWWWW  lTEEEEEEEEEEEmO WWWWWWWWWWWWWWWWWWWWWWWWWWWWWWWWWWWWWWW",
"WWWWWWWWWWWWWWWWWWWWWWWWWWWWWWWWWWWWWW  OEEEEEEEEEEEEETq  WWWWWWWWWWWWWWWWWWWWWWWWWWWWWWWWWWWWWW",
"WWWWWWWWWWWWWWWWWWWWWWWWWWWWWWWWWWWWWW  lEEEEEEEEEEEEETb  WWWWWWWWWWWWWWWWWWWWWWWWWWWWWWWWWWWWWW",
"WWWWWWWWWWWWWWWWWWWWWWWWWWWWWWWWWWWWW   EEEEEEEEEEEEEEETe  WWWWWWWWWWWWWWWWWWWWWWWWWWWWWWWWWWWWW",
"WWWWWWWWWWWWWWWWWWWWWWWWWWWWWWWWWWWWW  yEEEEEEEEEEEEEEEEy  WWWWWWWWWWWWWWWWWWWWWWWWWWWWWWWWWWWWW",
"WWWWWWWWWWWWWWWWWWWWWWWWWWWWWWWWWWWW   EEEEEEEEEEEEEEETTT   WWWWWWWWWWWWWWWWWWWWWWWWWWWWWWWWWWWW",
"WWWWWWWWWWWWWWWWWWWWWWWWWWWWWWWWWWWW  yEEEEEEEEEEEEEEETTTm  WWWWWWWWWWWWWWWWWWWWWWWWWWWWWWWWWWWW",
"WWWWWWWWWWWWWWWWWWWWWWWWWWWWWWWWWWW  OEEEEEEEEEEEEEEEEEEEEe  WWWWWWWWWWWWWWWWWWWWWWWWWWWWWWWWWWW",
"WWWWWWWWWWWWWWWWWWWWWWWWWWWWWWWWWWW  lEEEEEEEEEEEEEEEEEEEEyO WWWWWWWWWWWWWWWWWWWWWWWWWWWWWWWWWWW",
"WWWWWWWWWWWWWWWWWWWWWWWWWWWWWWWWWW  OEEEEEEEEEEEEEEEEEEEEEEe  WWWWWWWWWWWWWWWWWWWWWWWWWWWWWWWWWW",
"WWWWWWWWWWWWWWWWWWWWWWWWWWWWWWWWWW  yEEEEEEEEEEEEEEEEEEEEEEb  WWWWWWWWWWWWWWWWWWWWWWWWWWWWWWWWWW",
"WWWWWWWWWWWWWWWWWWWWWWWWWWWWWWWWW OeTTTTEEEEEEEEEEEEEEEEEEEEe  WWWWWWWWWWWWWWWWWWWWWWWWWWWWWWWWW",
"WWWWWWWWWWWWWWWWWWWWWWWWWWWWWWWWOOOmTTEEEEEEEEEEEEEEEEEEEEETm   WWWWWWWWWWWWWWWWWWWWWWWWWWWWWWWW",
"WWWWWWWWWWWWWWWWWWWWWWWWWWWWWWWWO eTEEEEEEEEEEEEEEEEEEEEEETTTy  WWWWWWWWWWWWWWWWWWWWWWWWWWWWWWWW",
"WWWWWWWWWWWWWWWWWWWWWWWWWWWWWWW   mEEEEEEEEEEEEEEEEEEEEEEETTTE   WWWWWWWWWWWWWWWWWWWWWWWWWWWWWWW",
"WWWWWWWWWWWWWWWWWWWWWWWWWWWWWW    TTEEEEEEEEEEEEEEEEEEEEEEEEEEqO  WWWWWWWWWWWWWWWWWWWWWWWWWWWWWW",
"WWWWWWWWWWWWWWWWWWWWWWWWWWWWWW   0TTEEEEEEEEEEEEEEEEEEEEEEEEEElO  WWWWWWWWWWWWWWWWWWWWWWWWWWWWWW",
"WWWWWWWWWWWWWWWWWWWWWWWWWWWWW    mTTEEEEEEEEEEEEEEEEEEEEEEEEEEm    WWWWWWWWWWWWWWWWWWWWWWWWWWWWW",
"WWWWWWWWWWWWWWWWWWWWWWWWWWWW     ETTEEEEEEEEEEEEEEEEEEEEEEEEEET     WWWWWWWWWWWWWWWWWWWWWWWWWWWW",
"WWWWWWWWWWWWWWWWWWWWWWWWWWWW     EEEEEEEEEEEEEEEEEEEEEEEEEEEEEEe    WWWWWWWWWWWWWWWWWWWWWWWWWWWW",
"WWWWWWWWWWWWWWWWWWWWWWWWWWW     eEEEEEEEEEEEEEEEEEEEEEEEEEEEEEE0     WWWWWWWWWWWWWWWWWWWWWWWWWWW",
"WWWWWWWWWWWWWWWWWWWWWWWWWW      eEEEEEEEEEEEEEEEEEEEEEEEEEEEEEEl      WWWWWWWWWWWWWWWWWWWWWWWWWW",
"WWWWWWWWWWWWWWWWWWWWWWWWWW      eEEEEEEEEEEEEEEEEEEEEEEEEEEEEEEl      WWWWWWWWWWWWWWWWWWWWWWWWWW",
"WWWWWWWWWWWWWWWWWWWWWWWWW       eEEEEEEEEEEEEEEEEEEEEEEEEEEEEEE0       WWWWWWWWWWWWWWWWWWWWWWWWW",
"WWWWWWWWWWWWWWWWWWWWWWWW        eEEEEEEEEEEEEEEEEEEEEEEEEEEEEEEl        WWWWWWWWWWWWWWWWWWWWWWWW",
"WWWWWWWWWWWWWWWWWWWWWWW         eEEEEEEEEEEEEEEEEEEEEEEEEEEEEEE0         WWWWWWWWWWWWWWWWWWWWWWW",
"WWWWWWWWWWWWWWWWWWWWWWW          EEEEEEEEEEEEEEEEEEEEEEEEEEEEEEe         WWWWWWWWWWWWWWWWWWWWWWW",
"WWWWWWWWWWWWWWWWWWWWWWW          EEEEEEEEEEEEEEEEEEEEEEEEEEEEEE          WWWWWWWWWWWWWWWWWWWWWWW",
"WWWWWWWWWWWWWWWWWWWWWW           EEEEEEEEEEEEEEEEEEEEEEEEEEEEEEO          WWWWWWWWWWWWWWWWWWWWWW",
"WWWWWWWWWWWWWWWWWWWWWW           yEEEEEEEEEEEEEEEEEEEEEEEEEETTm           WWWWWWWWWWWWWWWWWWWWWW",
"WWWWWWWWWWWWWWWWWWWWW            eEEEEEEEEEEEEEEEEEEEEEEEEEEETy            WWWWWWWWWWWWWWWWWWWWW",
"WWWWWWWWWWWWWWWWWWWWW             EEEEEEEEEEEEEEEEEEEEEEEEEEEE O           WWWWWWWWWWWWWWWWWWWWW",
"WWWWWWWWWWWWWWWWWWWWW             kEEEEEEEEEEEEEEEEEEEEEEEEEEEOO           WWWWWWWWWWWWWWWWWWWWW",
"WWWWWWWWWWWWWWWWWWWWW             eTEEEEEEEEEEEEEEEEEEEEEEEEEeOO           WWWWWWWWWWWWWWWWWWWWW",
"WWWWWWWWWWWWWWWWWWWW               yEEEEEEEEEEEEEEEEEEEEEEEEmOOO            WWWWWWWWWWWWWWWWWWWW",
"WWWWWWWWWWWWWWWWWWWW               1TEEEEEEEEEEEEEEEEEEEEETTe               WWWWWWWWWWWWWWWWWWWW",
"WWWWWWWWWWWWWWWWWWWW                eEEEEEEEEEEEEEEEEEEEEETy                WWWWWWWWWWWWWWWWWWWW",
"WWWWWWWWWWWWWWWWWWWW                %yEEEEEEEEEEEEEEEEEEEEy%                WWWWWWWWWWWWWWWWWWWW",
"WWWWWWWWWWWWWWWWWWWW                  kEEEEEEEEEEEEEEEEEEE                  WWWWWWWWWWWWWWWWWWWW",
"WWWWWWWWWWWWWWWWWWWW                   yTTTTEEEEEETTEEEEm                   WWWWWWWWWWWWWWWWWWWW",
"WWWWWWWWWWWWWWWWWWWW                    yETTEEEEEETTEEEl                    WWWWWWWWWWWWWWWWWWWW",
"WWWWWWWWWWWWWWWWWWWW                     OlEEEEEEEETTy O                    WWWWWWWWWWWWWWWWWWWW",
"WWWWWWWWWWWWWWWWWWWW                     OOOelymmky0 OOO                    WWWWWWWWWWWWWWWWWWWW",
"WWWWWWWWWWWWWWWWWWWWW                                                      WWWWWWWWWWWWWWWWWWWWW",
"WWWWWWWWWWWWWWWWWWWWW                                                      WWWWWWWWWWWWWWWWWWWWW",
"WWWWWWWWWWWWWWWWWWWWW                                                      WWWWWWWWWWWWWWWWWWWWW",
"WWWWWWWWWWWWWWWWWWWWW                                                      WWWWWWWWWWWWWWWWWWWWW",
"WWWWWWWWWWWWWWWWWWWWW                                                      WWWWWWWWWWWWWWWWWWWWW",
"WWWWWWWWWWWWWWWWWWWWWW                                                    WWWWWWWWWWWWWWWWWWWWWW",
"WWWWWWWWWWWWWWWWWWWWWW                                                    WWWWWWWWWWWWWWWWWWWWWW",
"WWWWWWWWWWWWWWWWWWWWWWW                                                  WWWWWWWWWWWWWWWWWWWWWWW",
"WWWWWWWWWWWWWWWWWWWWWWW                                                  WWWWWWWWWWWWWWWWWWWWWWW",
"WWWWWWWWWWWWWWWWWWWWWWW                                                  WWWWWWWWWWWWWWWWWWWWWWW",
"WWWWWWWWWWWWWWWWWWWWWWWW                                                WWWWWWWWWWWWWWWWWWWWWWWW",
"WWWWWWWWWWWWWWWWWWWWWWWWW                                              WWWWWWWWWWWWWWWWWWWWWWWWW",
"WWWWWWWWWWWWWWWWWWWWWWWWW                                              WWWWWWWWWWWWWWWWWWWWWWWWW",
"WWWWWWWWWWWWWWWWWWWWWWWWWW                                            WWWWWWWWWWWWWWWWWWWWWWWWWW",
"WWWWWWWWWWWWWWWWWWWWWWWWWWW                                          WWWWWWWWWWWWWWWWWWWWWWWWWWW",
"WWWWWWWWWWWWWWWWWWWWWWWWWWWW                                        WWWWWWWWWWWWWWWWWWWWWWWWWWWW",
"WWWWWWWWWWWWWWWWWWWWWWWWWWWWW                                      WWWWWWWWWWWWWWWWWWWWWWWWWWWWW",
"WWWWWWWWWWWWWWWWWWWWWWWWWWWWWW                                    WWWWWWWWWWWWWWWWWWWWWWWWWWWWWW",
"WWWWWWWWWWWWWWWWWWWWWWWWWWWWWWW                                  WWWWWWWWWWWWWWWWWWWWWWWWWWWWWWW",
"WWWWWWWWWWWWWWWWWWWWWWWWWWWWWWWWW                              WWWWWWWWWWWWWWWWWWWWWWWWWWWWWWWWW",
"WWWWWWWWWWWWWWWWWWWWWWWWWWWWWWWWWW                            WWWWWWWWWWWWWWWWWWWWWWWWWWWWWWWWWW",
"WWWWWWWWWWWWWWWWWWWWWWWWWWWWWWWWWWWWW                      WWWWWWWWWWWWWWWWWWWWWWWWWWWWWWWWWWWWW",
"WWWWWWWWWWWWWWWWWWWWWWWWWWWWWWWWWWWWWWW                  WWWWWWWWWWWWWWWWWWWWWWWWWWWWWWWWWWWWWWW",
"WWWWWWWWWWWWWWWWWWWWWWWWWWWWWWWWWWWWWWWWWWW          WWWWWWWWWWWWWWWWWWWWWWWWWWWWWWWWWWWWWWWWWWW",
"WWWWWWWWWWWWWWWWWWWWWWWWWWWWWWWWWWWWWWWWWWWWWWWWWWWWWWWWWWWWWWWWWWWWWWWWWWWWWWWWWWWWWWWWWWWWWWWW",
"WWWWWWWWWWWWWWWWWWWWWWWWWWWWWWWWWWWWWWWWWWWWWWWWWWWWWWWWWWWWWWWWWWWWWWWWWWWWWWWWWWWWWWWWWWWWWWWW",
"WWWWWWWWWWWWWWWWWWWWWWWWWWWWWWWWWWWWWWWWWWWWWWWWWWWWWWWWWWWWWWWWWWWWWWWWWWWWWWWWWWWWWWWWWWWWWWWW",
"WWWWWWWWWWWWWWWWWWWWWWWWWWWWWWWWWWWWWWWWWWWWWWWWWWWWWWWWWWWWWWWWWWWWWWWWWWWWWWWWWWWWWWWWWWWWWWWW"
};
