/* XPM */
static const char *file_photoshop[] = {
/* columns rows colors chars-per-pixel */
"96 96 43 1 ",
"  c #2980B9",
". c #2A80BA",
"X c #2A82BC",
"o c #2B84BE",
"O c #2C87C3",
"+ c #2D88C4",
"@ c #2E8BC8",
"# c #2E8CCA",
"$ c #2F8CCA",
"% c #2F8DCC",
"& c #3191D1",
"* c #3294D6",
"= c #3396D8",
"- c #3497DA",
"; c #3498DB",
": c #3598DB",
"> c #379ADC",
", c #439FDD",
"< c #46A1DE",
"1 c #47A1DE",
"2 c #52A7DF",
"3 c #5BABE0",
"4 c #60ACE0",
"5 c #64AFE0",
"6 c #66B0E1",
"7 c #6BB2E2",
"8 c #6BB3E2",
"9 c #7CBBE3",
"0 c #87BFE5",
"q c #90C4E6",
"w c #A4CDE9",
"e c #A5CEE8",
"r c #B5D5EA",
"t c #BEDAEC",
"y c #C0DCEC",
"u c #C5DDEC",
"i c #C7DEED",
"p c #DAE7EE",
"a c #DCE8EF",
"s c #E7EDF0",
"d c #EBF0F1",
"f c #ECF0F1",
"g c None",
/* pixels */
"gggggggggggggggggggggggggggggggggggggggggggggggggggggggggggggggggggggggggggggggggggggggggggggggg",
"gggggggggggggggggggggggggggggggggggggggggggggggggggggggggggggggggggggggggggggggggggggggggggggggg",
"gggggggggggggggggggggggggggggggggggggggggggggggggggggggggggggggggggggggggggggggggggggggggggggggg",
"gggggggggggggggggggggggggggggggggggggggggggggggggggggggggggggggggggggggggggggggggggggggggggggggg",
"ggggggggggggggggg;;;;;;;;;;;;;;;;;;;;;;;;;;;;;;;;;;;;;;;;;;;+ggggggggggggggggggggggggggggggggggg",
"gggggggggggggggg;;;;;;;;;;;;;;;;;;;;;;;;;;;;;;;;;;;;;;;;;;;; +gggggggggggggggggggggggggggggggggg",
"gggggggggggggg;;;;;;;;;;;;;;;;;;;;;;;;;;;;;;;;;;;;;;;;;;;;;;  +ggggggggggggggggggggggggggggggggg",
"gggggggggggggg;;;;;;;;;;;;;;;;;;;;;;;;;;;;;;;;;;;;;;;;;;;;;;   +gggggggggggggggggggggggggggggggg",
"ggggggggggggg;;;;;;;;;;;;;;;;;;;;;;;;;;;;;;;;;;;;;;;;;;;;;;;    +ggggggggggggggggggggggggggggggg",
"gggggggggggg;;;;;;;;;;;;;;;;;;;;;;;;;;;;;;;;;;;;;;;;;;;;;;;;     +gggggggggggggggggggggggggggggg",
"gggggggggggg;;;;;;;;;;;;;;;;;;;;;;;;;;;;;;;;;;;;;;;;;;;;;;;;      +ggggggggggggggggggggggggggggg",
"gggggggggggg;;;;;;;;;;;;;;;;;;;;;;;;;;;;;;;;;;;;;;;;;;;;;;;;       +gggggggggggggggggggggggggggg",
"gggggggggggg;;;;;;;;;;;;;;;;;;;;;;;;;;;;;;;;;;;;;;;;;;;;;;;;        +ggggggggggggggggggggggggggg",
"gggggggggggg;;;;;;;;;;;;;;;;;;;;;;;;;;;;;;;;;;;;;;;;;;;;;;;;         +gggggggggggggggggggggggggg",
"gggggggggggg;;;;;;;;;;;;;;;;;;;;;;;;;;;;;;;;;;;;;;;;;;;;;;;;          +ggggggggggggggggggggggggg",
"gggggggggggg;;;;;;;;;;;;;;;;;;;;;;;;;;;;;;;;;;;;;;;;;;;;;;;;           +gggggggggggggggggggggggg",
"gggggggggggg;;;;;;;;;;;;;;;;;;;;;;;;;;;;;;;;;;;;;;;;;;;;;;;;            +ggggggggggggggggggggggg",
"gggggggggggg;;;;;;;;;;;;;;;;;;;;;;;;;;;;;;;;;;;;;;;;;;;;;;;;             +gggggggggggggggggggggg",
"gggggggggggg;;;;;;;;;;;;;;;;;;;;;;;;;;;;;;;;;;;;;;;;;;;;;;;;              +ggggggggggggggggggggg",
"gggggggggggg;;;;;;;;;;;;;;;;;;;;;;;;;;;;;;;;;;;;;;;;;;;;;;;;               +gggggggggggggggggggg",
"gggggggggggg;;;;;;;;;;;;;;;;;;;;;;;;;;;;;;;;;;;;;;;;;;;;;;;;                +ggggggggggggggggggg",
"gggggggggggg;;;;;;;;;;;;;;;;;;;;;;;;;;;;;;;;;;;;;;;;;;;;;;;;+                +gggggggggggggggggg",
"gggggggggggg;;;;;;;;;;;;;;;;;;;;;;;;;;;;;;;;;;;;;;;;;;;;;;;;%                 +ggggggggggggggggg",
"gggggggggggg;;;;;;;;;;;;;;;;;;;;;;;;;;;;;;;;;;;;;;;;;;;;;;;;*                  +gggggggggggggggg",
"gggggggggggg;;;;;;;;;;;;;;;;;;;;;;;;;;;;;;;;;;;;;;;;;;;;;;;;;%                  +ggggggggggggggg",
"gggggggggggg;;;;;;;;;;;;;;;;;;;;;;;;;;;;;;;;;;;;;;;;;;;;;;;;;;O                  +gggggggggggggg",
"gggggggggggg;;;;;;;;;;;;;;;;;;;;;;;;;;;;;;;;;;;;;;;;;;;;;;;;;;;%                  +ggggggggggggg",
"gggggggggggg;;;;;;;;;;;;;;;;;;;;;;;;;;;;;;;;;;;;;;;;;;;;;;;;;;;;*%+                +gggggggggggg",
"gggggggggggg;;;;;;;;;;;;;;;;;;;;;;;;;;;;;;;;;;;;;;;;;;;;;;;;;;;;;;;;;;;;;;;;;;;;;;;;gggggggggggg",
"gggggggggggg;;;;;;;;;;;;;;;;;;;;;;;;;;;;;;;;;;;;;;;;;;;;;;;;;;;;;;;;;;;;;;;;;;;;;;;;gggggggggggg",
"gggggggggggg;;;;;;;;;;;;;;;;;;;;;;;;;;;;;;;;;;;;;;;;;;;;;;;;;;;;;;;;;;;;;;;;;;;;;;;;gggggggggggg",
"gggggggggggg;;;;;;;;;;;;;;;;;;;;;;;;;;;;;;;;;;;;;;;;;;;;;;;;;;;;;;;;;;;;;;;;;;;;;;;;gggggggggggg",
"gggggggggggg;;;;;;;;;;;;;;;;;;;;;;;;;;;;;;;;;;;;;;;;;;;;;;;;;;;;;;;;;;;;;;;;;;;;;;;;gggggggggggg",
"gggggggggggg;;;;;;;;;;;;;;;;;;;;;;;;;;;;;;;;;;;;;;;;;;;;;;;;;;;;;;;;;;;;;;;;;;;;;;;;gggggggggggg",
"gggggggggggg;;;;;;;;;;;;;;;;;;;;;;;;;;;;;;;;;;;;;;;;;;;;;;;;;;;;;;;;;;;;;;;;;;;;;;;;gggggggggggg",
"gggggggggggg;;;;;;;;;;;;;;;;;;;;;;;;;;;;;;;;;;;;;;;;;;;;;;;;;;;;;;;;;;;;;;;;;;;;;;;;gggggggggggg",
"gggggggggggg;;;;;;;;;;;;;;;;;;;;;;;;;;;;;;;;;;;;;;;;;;;;;;;;;;;;;;;;;;;;;;;;;;;;;;;;gggggggggggg",
"gggggggggggg;;;;;;;;;;;;;;;;;;;;;;;;;;;;;;;;;;;;;;;;;;;;;;;;;;;;;;;;;;;;;;;;;;;;;;;;gggggggggggg",
"gggggggggggg;;;;;;;;;;;;;;;;;;;;;;;;;;;;;;;;;;;;;;;;;;;;;;;;;;;;;;;;;;;;;;;;;;;;;;;;gggggggggggg",
"gggggggggggg;;;;;;;;;;;;;;;;;;;;;;;;;;;;;;;;;;;;;;;;;;;;;;;;;;;;;;;;;;;;;;;;;;;;;;;;gggggggggggg",
"gggggggggggg;;;;;;;;;;;;;;;;;;;;;;;;;;;;;;;;;;;;;;;;;;;;;;;;;;;;;;;;;;;;;;;;;;;;;;;;gggggggggggg",
"gggggggggggg;;;;;;;;;;;;;;;;;;;;;;;;;;;;;;;;;;;;;;;;;;;;;;;;;;;;;;;;;;;;;;;;;;;;;;;;gggggggggggg",
"gggggggggggg;;;;;;;;;;;;;;;;;;;;;;;;;;;;;;;;;;;;;;;;;;;;;;;;;;;;;;;;;;;;;;;;;;;;;;;;gggggggggggg",
"gggggggggggg;;;;;;;;;;;;;;;;;;;;;;;;;;;;;;;;;;;;;;;;;;;;;;;;;;;;;;;;;;;;;;;;;;;;;;;;gggggggggggg",
"gggggggggggg;;;;;;;;;;;;;;;;;;;;;;;;;;;;;;;;;;;;;;;;;;;;;;;;;;;;;;;;;;;;;;;;;;;;;;;;gggggggggggg",
"gggggggggggg;;;;;;;;;;;;;;;;;;;;;;;;;;;;;;;;;;;;;;;;;;;;;;;;;;;;;;;;;;;;;;;;;;;;;;;;gggggggggggg",
"gggggggggggg;;;;;;;;;;;;;;;;;;;;;;;;;;;;;;;;;;;;;;;;;;;;;;;;;;;;;;;;;;;;;;;;;;;;;;;;gggggggggggg",
"gggggggggggg;;;;;;;;;;;;;;;;;;;;;;;;;;;;;;;;;;;;;;;;;;;;;;;;;;;;;;;;;;;;;;;;;;;;;;;;gggggggggggg",
"gggggggggggg;;;;;;;;;;;;;;;;;;;;;;;;;;;;;;;;;;;;;;;;;;;;;;;;;;;;;;;;;;;;;;;;;;;;;;;;gggggggggggg",
"gggggggggggg;;;;;;;;;;;;;;;;;;;;;;;;;;;;;;;;;;;;;;;;;;;;;;;;;;;;;;;;;;;;;;;;;;;;;;;;gggggggggggg",
"gggggggggggg;;;;;;;;;;;;;;;;;;;;;;;;;;;;;;;;;;;;;;;;;;::;;;;;;;;;;;;;;;;;;;;;;;;;;;;gggggggggggg",
"gggggggggggg;;;;;;;;;;;;;;;;;;;;;;;;;;;;;;;;;;;;;;;;;:::;;;;;;;;;;;;;;;;;;;;;;;;;;;;gggggggggggg",
"gggggggggggg;;;;;;;;;;;;;;;;;;;;;;;;;;;;ffffffffprq8;;::;;;;;;;;;;;;;;;;;;;;;;;;;;;;gggggggggggg",
"gggggggggggg;;;;;;;;;;;;;;;;;;;;;;;;;;;;ffffffffffffu3::;;;;;;;;;;;;;;;;;;;;;;;;;;;;gggggggggggg",
"gggggggggggg;;;;;;;;;;;;;;;;;;;;;;;;;;;;ffffffffffffds0:;;;;;;;;;;;;;;;;;;;;;;;;;;;;gggggggggggg",
"gggggggggggg;;;;;;;;;;;;;;;;;;;;;;;;;;;;ffffffffffffddd0;;;;;;;;;;;;;;;;;;;;;;;;;;;;gggggggggggg",
"gggggggggggg;;;;;;;;;;;;;;;;;;;;;;;;;;;;ffff;;;;,8wffffs2;;;;;;;:::::;;;;;;;;;;;;;;;gggggggggggg",
"gggggggggggg;;;;;;;;;;;;;;;;;;;;;;;;;;;;ffff;;;;;;;6pfffu;;;;;;;::::;;;;;;;;;;;;;;;;gggggggggggg",
"gggggggggggg;;;;;;;;;;;;;;;;;;;;;;;;;;;;ffff;;;;;;;;6ffff8;;;;;;::::;;;;;;;;;;;;;;;;gggggggggggg",
"gggggggggggg;;;;;;;;;;;;;;;;;;;;;;;;;;;;ffff;;;;;;;;;wfffq;;;;;;::::;;;;;;;;;;;;;;;;gggggggggggg",
"gggggggggggg;;;;;;;;;;;;;;;;;;;;;;;;;;;;ffff;;;;;;;;;8fffr;;;;;9rpffffddffu5;;;;;;;;gggggggggggg",
"gggggggggggg;;;;;;;;;;;;;;;;;;;;;;;;;;;;ffff;;;;;;;;;<fffp;;;<tfffffffddfffu;;;;;;;;gggggggggggg",
"gggggggggggg;;;;;;;;;;;;;;;;;;;;;;;;;;;;ffff;;;;;;;;;<fffp;;;tffffffffddddfu;;;;;;;;gggggggggggg",
"gggggggggggg;;;;;;;;;;;;;;;;;;;;;;;;;;;;ffff;;;;;;;;;8fffr;;9fffffffffddddu5;;;;;;;;gggggggggggg",
"gggggggggggg;;;;;;;;;;;;;;;;;;;;;;;;;;;;ffff;;;;;;;;;wfffq;;rfffu2;;;;;;;;;;;;;;;;;;gggggggggggg",
"gggggggggggg;;;;;;;;;;;;;;;;;;;;;;;;;;;;ffff;;;;;;;;5ffff8;;pfff3;;;;;;;;;;;;;;;;;;;gggggggggggg",
"gggggggggggg;;;;;;;;;;;;;;;;;;;;;;;;;;;;ffff;;;;;;;6afffi>;;pfff3;;;;;;;;;;;;;;;;;;;gggggggggggg",
"gggggggggggg;;;;;;;;;;;;;;;;;;;;;;;;;;;;ffff;;;;,8wffffs2;;;rfffu3;;;;;;;;;;;;;;;;;;gggggggggggg",
"gggggggggggg;;;;;;;;;;;;;;;;;;;;;;;;;;;;fffffffffffffff0;;;;9fffffffffar9;;;;;;;;;;;gggggggggggg",
"gggggggggggg;;;;;;;;;;;;;;;;;;;;;;;;;;;;fffffffffffffs0;;;;;;tffffffffffft1;;;;;;;;;gggggggggggg",
"gggggggggggg;;;;;;;;;;;;;;;;;;;;;;;;;;;;ffffffffffffu2;;;;;;;1tffffffffffft;;;;;;;;;gggggggggggg",
"gggggggggggg;;;;;;;;;;;;;;;;;;;;;;;;;;;;ffffffffarq8>;;;;;;;;;;9rafffffffff9;;;;;;;;gggggggggggg",
"gggggggggggg;;;;;;;;;;;;;;;;;;;;;;;;;;;;ffff;;;;;;;;;;;;;;;;;;;;;;;;;;2ufffr;;;;;;;;gggggggggggg",
"gggggggggggg;;;;;;;;;;;;;;;;;;;;;;;;;;;;ffff;;;;;;;;;;;;;;;;;;;;;;;;;;>4fffa;;;;;;;;gggggggggggg",
"gggggggggggg;;;;;;;;;;;;;;;;;;;;;;;;;;;;ffff;;;;;;;;;;;;;;;;;;;;;;;;>;>2fffa;;;;;;;;gggggggggggg",
"gggggggggggg;;;;;;;;;;;;;;;;;;;;;;;;;;;;ffff;;;;;;;;;;;;;;;;;;;;;;;;>>2tfffr;;;;;;;;gggggggggggg",
"gggggggggggg;;;;;;;;;;;;;;;;;;;;;;;;;;;;ffff;;;;;;;;;;;;;;;;4ufffffffffffff9;;;;;;;;gggggggggggg",
"gggggggggggg;;;;;;;;;;;;;;;;;;;;;;;;;;;;ffff;;;;;;;;;;;;;;;;uffffffffffffft;;;;;;;;;gggggggggggg",
"gggggggggggg;;;;;;;;;;;;;;;;;;;;;;;;;;;;ffff;;;;;;;;;;;;;;;;ufffffffffffft<;;;;;;;;;gggggggggggg",
"gggggggggggg;;;;;;;;;;;;;;;;;;;;;;;;;;;;ffff;;;;;;;;;;;;;;;;4uffffffffpr9;;;;;;;;;;;gggggggggggg",
"gggggggggggg;;;;;;;;;;;;;;;;;;;;;;;;;;;;;;;;;;;;;;;;;;;;;;;;;;;;;;;;;;;;;;;;;;;;;;;;gggggggggggg",
"gggggggggggg;;;;;;;;;;;;;;;;;;;;;;;;;;;;;;;;;;;;;;;;;;;;;;;;;;;;;;;;;;;;;;;;;;;;;;;;gggggggggggg",
"gggggggggggg;;;;;;;;;;;;;;;;;;;;;;;;;;;;;;;;;;;;;;;;;;;;;;;;;;;;;;;;;;;;;;;;;;;;;;;;gggggggggggg",
"gggggggggggg;;;;;;;;;;;;;;;;;;;;;;;;;;;;;;;;;;;;;;;;;;;;;;;;;;;;;;;;;;;;;;;;;;;;;;;;gggggggggggg",
"gggggggggggg*;;;;;;;;;;;;;;;;;;;;;;;;;;;;;;;;;;;;;;;;;;;;;;;;;;;;;;;;;;;;;;;;;;;;;;*gggggggggggg",
"gggggggggggg*;;;;;;;;;;;;;;;;;;;;;;;;;;;;;;;;;;;;;;;;;;;;;;;;;;;;;;;;;;;;;;;;;;;;;;*gggggggggggg",
"gggggggggggg%;;;;;;;;;;;;;;;;;;;;;;;;;;;;;;;;;;;;;;;;;;;;;;;;;;;;;;;;;;;;;;;;;;;;;;%gggggggggggg",
"gggggggggggg :;;;;;;;;;;;;;;;;;;;;;;;;;;;;;;;;;;;;;;;;;;;;;;;;;;;;;;;;;;;;;;;;;;;;: gggggggggggg",
"gggggggggggg %;;;;::;;;;;;;;;;;;;;;;;;;;;;;;;;;;;;;;;;;;;;;;;;;;;;;;;;;;;;;;;;;;;;% gggggggggggg",
"gggggggggggg  *;;;::;;;;;;;;;;;;;;;;;;;;;;;;;;;;;;;;;;;;;;;;;;;;;;;;;;;;;;;;;;;;;&  gggggggggggg",
"gggggggggggg   +*:::;;;;;;;;;;;;;;;;;;;;;;;;;;;;;;;;;;;;;;;;;;;;;;;;;;;;;;;;;;;;+   gggggggggggg",
"ggggggggggggg   X%*:;;;;;;;;;;;;;;;;;;;;;;;;;;;;;;;;;;;;;;;;;;;;;;;;;;;;;;;;:&%    ggggggggggggg",
"gggggggggggggg                                                                    gggggggggggggg",
"gggggggggggggg                                                                    gggggggggggggg",
"gggggggggggggggg                                                                gggggggggggggggg",
"ggggggggggggggggg                                                              ggggggggggggggggg"
};
