/* XPM */
static const char *file_excel[] = {
/* columns rows colors chars-per-pixel */
"96 96 22 1 ",
"  c #16A085",
". c #1ABC9C",
"X c #20A289",
"o c #27A38C",
"O c #4FAC9C",
"+ c #95A5A6",
"@ c #97A6A7",
"# c #99A8AA",
"$ c #9BA9AB",
"% c #A1AEB0",
"& c #A3AFB1",
"* c #A7B2B4",
"= c #A9B4B6",
"- c #A9B4B7",
"; c #ABB5B9",
": c #A9BEBF",
"> c #B1BABD",
", c #B7BFC2",
"< c #B9C0C4",
"1 c #BCC2C6",
"2 c #BDC3C7",
"3 c None",
/* pixels */
"333333333333333333333333333333333333333333333333333333333333333333333333333333333333333333333333",
"333333333333333333333333333333333333333333333333333333333333333333333333333333333333333333333333",
"333333333333333333333333333333333333333333333333333333333333333333333333333333333333333333333333",
"333333333333333333333333333333333333333333333333333333333333333333333333333333333333333333333333",
"333333333333333332222222222222222222222222222222222222222222&33333333333333333333333333333333333",
"333333333333333322222222222222222222222222222222222222222222+&3333333333333333333333333333333333",
"333333333333332222222222222222222222222222222222222222222222++&333333333333333333333333333333333",
"333333333333332222222222222222222222222222222222222222222222+++&33333333333333333333333333333333",
"333333333333322222222222222222222222222222222222222222222222++++&3333333333333333333333333333333",
"333333333333222222222222222222222222222222222222222222222222+++++&333333333333333333333333333333",
"333333333333222222222222222222222222222222222222222222222222++++++&33333333333333333333333333333",
"333333333333222222222222222222222222222222222222222222222222+++++++&3333333333333333333333333333",
"333333333333222222222222222222222222222222222222222222222222++++++++&333333333333333333333333333",
"333333333333222222222222222222222222222222222222222222222222+++++++++&33333333333333333333333333",
"333333333333222222222222222222222222222222222222222222222222++++++++++&3333333333333333333333333",
"333333333333222222222222222222222222222222222222222222222222+++++++++++&333333333333333333333333",
"3333333333332222222222222:Oo                                ++++++++++++&33333333333333333333333",
"333333333333222222222222:o                                  +++++++++++++&3333333333333333333333",
"333333333333222222222222O                                   ++++++++++++++&333333333333333333333",
"333333333333222222222222o                                   +++++++++++++++&33333333333333333333",
"333333333333222222222222    ........    222222222222    2222#+++++++++++++++&3333333333333333333",
"333333333333222222222222    ........    222222222222    2222&++++++++++++++++&333333333333333333",
"333333333333222222222222    ........    222222222222    2222-+++++++++++++++++&33333333333333333",
"333333333333222222222222    ........    222222222222    2222,++++++++++++++++++&3333333333333333",
"333333333333222222222222    ........    222222222222    22222;++++++++++++++++++&333333333333333",
"333333333333222222222222    ........    222222222222    222222&++++++++++++++++++&33333333333333",
"333333333333222222222222    ........    222222222222    2222222;@+++++++++++++++++&3333333333333",
"333333333333222222222222    ........    222222222222    22222222,-&#+++++++++++++++&333333333333",
"333333333333222222222222                                                222222222222333333333333",
"333333333333222222222222                                                222222222222333333333333",
"333333333333222222222222                                                222222222222333333333333",
"333333333333222222222222                                                222222222222333333333333",
"333333333333222222222222    ........    222222222222    222222222222    222222222222333333333333",
"333333333333222222222222    ........    222222222222    222222222222    222222222222333333333333",
"333333333333222222222222    ........    222222222222    222222222222    222222222222333333333333",
"333333333333222222222222    ........    222222222222    222222222222    222222222222333333333333",
"333333333333222222222222    ........    222222222222    222222222222    222222222222333333333333",
"333333333333222222222222    ........    222222222222    222222222222    222222222222333333333333",
"333333333333222222222222    ........    222222222222    222222222222    222222222222333333333333",
"333333333333222222222222    ........    222222222222    222222222222    222222222222333333333333",
"333333333333222222222222                                                222222222222333333333333",
"333333333333222222222222                                                222222222222333333333333",
"333333333333222222222222                                                222222222222333333333333",
"333333333333222222222222                                                222222222222333333333333",
"333333333333222222222222    ........    222222222222    222222222222    222222222222333333333333",
"333333333333222222222222    ........    222222222222    222222222222    222222222222333333333333",
"333333333333222222222222    ........    222222222222    222222222222    222222222222333333333333",
"333333333333222222222222    ........    222222222222    222222222222    222222222222333333333333",
"333333333333222222222222    ........    222222222222    222222222222    222222222222333333333333",
"333333333333222222222222    ........    222222222222    222222222222    222222222222333333333333",
"333333333333222222222222    ........    222222222222    222222222222    222222222222333333333333",
"333333333333222222222222    ........    222222222222    222222222222    222222222222333333333333",
"333333333333222222222222                                                222222222222333333333333",
"333333333333222222222222                                                222222222222333333333333",
"333333333333222222222222                                                222222222222333333333333",
"333333333333222222222222                                                222222222222333333333333",
"333333333333222222222222    ........    222222222222    222222222222    222222222222333333333333",
"333333333333222222222222    ........    222222222222    222222222222    222222222222333333333333",
"333333333333222222222222    ........    222222222222    222222222222    222222222222333333333333",
"333333333333222222222222    ........    222222222222    222222222222    222222222222333333333333",
"333333333333222222222222    ........    222222222222    222222222222    222222222222333333333333",
"333333333333222222222222    ........    222222222222    222222222222    222222222222333333333333",
"333333333333222222222222    ........    222222222222    222222222222    222222222222333333333333",
"333333333333222222222222    ........    222222222222    222222222222    222222222222333333333333",
"333333333333222222222222                                                222222222222333333333333",
"333333333333222222222222                                                222222222222333333333333",
"333333333333222222222222                                                222222222222333333333333",
"333333333333222222222222                                                222222222222333333333333",
"333333333333222222222222    ........    222222222222    222222222222    222222222222333333333333",
"333333333333222222222222    ........    222222222222    222222222222    222222222222333333333333",
"333333333333222222222222    ........    222222222222    222222222222    222222222222333333333333",
"333333333333222222222222    ........    222222222222    222222222222    222222222222333333333333",
"333333333333222222222222    ........    222222222222    222222222222    222222222222333333333333",
"333333333333222222222222    ........    222222222222    222222222222    222222222222333333333333",
"333333333333222222222222    ........    222222222222    222222222222    222222222222333333333333",
"333333333333222222222222    ........    222222222222    222222222222    222222222222333333333333",
"333333333333222222222222o                                              o222222222222333333333333",
"333333333333222222222222O                                              O222222222222333333333333",
"333333333333222222222222:o                                            o:222222222222333333333333",
"3333333333332222222222222:Oo                                        oO:2222222222222333333333333",
"333333333333222222222222222222222222222222222222222222222222222222222222222222222222333333333333",
"333333333333222222222222222222222222222222222222222222222222222222222222222222222222333333333333",
"333333333333222222222222222222222222222222222222222222222222222222222222222222222222333333333333",
"333333333333222222222222222222222222222222222222222222222222222222222222222222222222333333333333",
"333333333333222222222222222222222222222222222222222222222222222222222222222222222222333333333333",
"333333333333>2222222222222222222222222222222222222222222222222222222222222222222222>333333333333",
"333333333333-2222222222222222222222222222222222222222222222222222222222222222222222-333333333333",
"333333333333#2222222222222222222222222222222222222222222222222222222222222222222222#333333333333",
"333333333333+-22222222222222222222222222222222222222222222222222222222222222222222*+333333333333",
"333333333333++>222222222222222222222222222222222222222222222222222222222222222222>++333333333333",
"333333333333+++*2222222222222222222222222222222222222222222222222222222222222,22*+++333333333333",
"3333333333333+++$-:,222222222222222222222222222222222222222222222222222222222:-$+++3333333333333",
"33333333333333++++++++++++++++++++++++++++++++++++++++++++++++++++++@+++++++++++++33333333333333",
"33333333333333++++++++++++++++++++++++++++++++++++++++++++++++++++++@@++++++++++++33333333333333",
"3333333333333333++++++++++++++++++++++++++++++++++++++++++++++++++++++++++++++++3333333333333333",
"33333333333333333++++++++++++++++++++++++++++++++++++++++++++++++++++++++++++++33333333333333333"
};
