/* XPM */
static const char *file_note[] = {
/* columns rows colors chars-per-pixel */
"96 96 27 1 ",
"  c #95A5A6",
". c #97A6A7",
"X c #98A7A8",
"o c #99A8A9",
"O c #99A8AA",
"+ c #9BA9AB",
"@ c #9DABAD",
"# c #9EACAE",
"$ c #9FADAE",
"% c #A1AEB0",
"& c #A3AFB1",
"* c #A6B1B4",
"= c #A7B2B4",
"- c #A9B4B6",
"; c #A9B4B7",
": c #ABB5B9",
"> c #ADB7BA",
", c #AEB8BB",
"< c #B1BABD",
"1 c #B6BEC2",
"2 c #B7BFC2",
"3 c #B9C0C4",
"4 c #BAC1C5",
"5 c #BCC2C6",
"6 c #BCC3C6",
"7 c #BDC3C7",
"8 c None",
/* pixels */
"888888888888888888888888888888888888888888888888888888888888888888888888888888888888888888888888",
"888888888888888888888888888888888888888888888888888888888888888888888888888888888888888888888888",
"888888888888888888888888888888888888888888888888888888888888888888888888888888888888888888888888",
"888888888888888888888888888888888888888888888888888888888888888888888888888888888888888888888888",
"888888888888888887777777777777777777777777777777777777777777*88888888888888888888888888888888888",
"888888888888888877777777777777777777777777777777777777777777 %8888888888888888888888888888888888",
"888888888888887777777777777777777777777777777777777777777777  *888888888888888888888888888888888",
"888888888888887777777777777777777777777777777777777777777777   %88888888888888888888888888888888",
"888888888888877777777777777777777777777777777777777777777777    %8888888888888888888888888888888",
"888888888888777777777777777777777777777777777777777777777777    .%888888888888888888888888888888",
"888888888888777777777777777777777777777777777777777777777777      %88888888888888888888888888888",
"888888888888777777777777777777777777777777777777777777777777     ..%8888888888888888888888888888",
"88888888888877777777777>ooo%,7777777777777777777777777777777        *888888888888888888888888888",
"8888888888887777777777o      %777777777777777777777777777777         %88888888888888888888888888",
"888888888888777777777o        o77777777777777777777777777777          %8888888888888888888888888",
"88888888888877777777,X        o>7777777777777777777777777777           *888888888888888888888888",
"888888888888            8888   %7777777777777777777777777777            %88888888888888888888888",
"888888888888          88888888 o7777777777777777777777777777             %8888888888888888888888",
"888888888888         8888888888o7777777777777777777777777777              %888888888888888888888",
"888888888888         8888888888*7777777777777777777777777777               *88888888888888888888",
"888888888888777777777888888888817777777777777777777777777777o               %8888888888888888888",
"888888888888777777777888888888877777777777777777777777777777%               .%888888888888888888",
"888888888888777777777788888888777777777777777777777777777777;                 %88888888888888888",
"8888888888887777777777778888777777777777777777777777777777771X                .%8888888888888888",
"8888888888887777777777777777777777777777777777777777777777777>                  %888888888888888",
"88888888888877777777777777777777777777777777777777777777777777%                  *88888888888888",
"888888888888777777777777777777777777777777777777777777777777777>                  %8888888888888",
"88888888888877777777777777777777777777777777777777777777777777777;%o               %888888888888",
"888888888888777777777777777777777777777777777777777777777777777777777777777777777777888888888888",
"888888888888777777777777777777777777777777777777777777777777777777777777777777777777888888888888",
"888888888888777777777777777777777777777777777777777777777777777777777777777777777777888888888888",
"888888888888777777777777777777777777777777777777777777777777777777777777777777777777888888888888",
"88888888888877777777777,o o%,7777777777777777777777777777777777777777777777777777777888888888888",
"8888888888887777777777o o    %777777777777777777777777777777777777777777777777777777888888888888",
"888888888888777777777o  X     o77777777777777777777777777777777777777777777777777777888888888888",
"88888888888877777777,X         >7777777777777777777777777777777777777777777777777777888888888888",
"888888888888    X       8888   %7777777777777777777777777777777777777777777777777777888888888888",
"888888888888          88888888 o7777777777777777777777777777777777777777777777777777888888888888",
"888888888888         8888888888o7777777777777777777777777777777777777777777777777777888888888888",
"888888888888         8888888888*7777777777777777777777777777777777777777777777777777888888888888",
"888888888888777777777888888888817777777777777777777777777777777777777777777777777777888888888888",
"888888888888777777777888888888877777777777777777777777777777777777777777777777777777888888888888",
"888888888888777777777788888888777777777777777777777777777777777777777777777777777777888888888888",
"888888888888777777777777888877777777777777777777777777777777777777777777777777777777888888888888",
"888888888888777777777777777777777777777777777777777777777777777777777777777777777777888888888888",
"888888888888777777777777777777777777777777777777777777777777777777777777777777777777888888888888",
"888888888888777777777777777777777777777777777777777777777777777777777777777777777777888888888888",
"888888888888777777777777777777777777777777777777777777777777777777777777777777777777888888888888",
"888888888888777777777777777777777777777777777777777777777777777777777777777777777777888888888888",
"888888888888777777777777777777777777777777777777777777777777777777777777777777777777888888888888",
"888888888888777777777777777777777777777777777777777777777777777777777777777777777777888888888888",
"888888888888777777777777777777777777777777777777777777777777777777777777777777777777888888888888",
"88888888888877777777777>$oo%>7777777777777777777777777777777777777777777777777777777888888888888",
"8888888888887777777777o     oo777777777777777777777777777777777777777777777777777777888888888888",
"888888888888777777777o      X o77777777777777777777777777777777777777777777777777777888888888888",
"88888888888877777777,X        O,7777777777777777777777777777777777777777777777777777888888888888",
"888888888888            8888   %7777777777777777777777777777777777777777777777777777888888888888",
"888888888888          88888888 o7777777777777777777777777777777777777777777777777777888888888888",
"888888888888         8888888888o7777777777777777777777777777777777777777777777777777888888888888",
"888888888888         8888888888*7777777777777777777777777777777777777777777777777777888888888888",
"888888888888777777777888888888817777777777777777777777777777777777777777777777777777888888888888",
"888888888888777777777888888888877777777777777777777777777777777777777777777777777777888888888888",
"888888888888777777777788888888777777777777777777777777777777777777777777777777777777888888888888",
"888888888888777777777777888877777777777777777777777777777777777777777777777777777777888888888888",
"888888888888777777777777777777777777777777777777777777777777777777777777777777777777888888888888",
"888888888888777777777777777777777777777777777777777777777777777777777777777777777777888888888888",
"888888888888777777777777777777777777777777777777777777777777777777777777777777777777888888888888",
"888888888888777777777777777777777777777777777777777777777777777777777777777777777777888888888888",
"888888888888777777777777777777777777777777777777777777777777777777777777777777777777888888888888",
"888888888888777777777777777777777777777777777777777777777777777777777777777777777777888888888888",
"888888888888777777777777777777777777777777777777777777777777777777777777777777777777888888888888",
"888888888888777777777777777777777777777777777777777777777777777777777777777777777777888888888888",
"88888888888877777777777>ooX%>7777777777777777777777777777777777777777777777777777777888888888888",
"8888888888887777777777o XX   o777777777777777777777777777777777777777777777777777777888888888888",
"888888888888777777777o        %77777777777777777777777777777777777777777777777777777888888888888",
"88888888888877777777,X         ,7777777777777777777777777777777777777777777777777777888888888888",
"888888888888    X       8888   %7777777777777777777777777777777777777777777777777777888888888888",
"888888888888          88888888 o7777777777777777777777777777777777777777777777777777888888888888",
"888888888888         8888888888o7777777777777777777777777777777777777777777777777777888888888888",
"888888888888         8888888888*7777777777777777777777777777777777777777777777777777888888888888",
"888888888888777777777888888888817777777777777777777777777777777777777777777777777777888888888888",
"888888888888777777777888888888877777777777777777777777777777777777777777777777777777888888888888",
"888888888888777777777788888888777777777777777777777777777777777777777777777777777777888888888888",
"888888888888777777777777888877777777777777777777777777777777777777777777777777777777888888888888",
"888888888888277777777777777777777777777777777777777777777777777777777777777777777772888888888888",
"888888888888<7777777777777777777777777777777777777777777777777777777777777777777777<888888888888",
"888888888888;7777777777777777777777777777777777777777777777777777777777777777777777>888888888888",
"888888888888o7777777777777777777777777777777777777777777777777777777777777777777777o888888888888",
"888888888888 *77777777777777777777777777777777777777777777777777777777777777777777; 888888888888",
"888888888888  <777777777777777777777777777777777777777777777777777777777777777777<  888888888888",
"888888888888   ;7777777777777777777777777777777777777777777777777777777777777777*   888888888888",
"8888888888888   o;,7777777777777777777777777777777777777777777777777777777777,;o   8888888888888",
"88888888888888                                                                    88888888888888",
"88888888888888                                                                    88888888888888",
"8888888888888888                                                                8888888888888888",
"88888888888888888                                                              88888888888888888"
};
