/* XPM */
static const char *file_premiere[] = {
/* columns rows colors chars-per-pixel */
"96 96 55 1 ",
"  c #8E44AD",
". c #8E45AD",
"X c #8F46AE",
"o c #9047AE",
"O c #924BAF",
"+ c #924AB0",
"@ c #924BB0",
"# c #944DB1",
"$ c #954FB1",
"% c #944EB2",
"& c #954FB2",
"* c #9550B2",
"= c #9753B3",
"- c #9956B5",
"; c #9A57B5",
": c #9B58B6",
"> c #9B59B6",
", c #9B5AB6",
"< c #9D5CB7",
"1 c #9F61B9",
"2 c #A062BA",
"3 c #A166BB",
"4 c #A368BC",
"5 c #A66CBD",
"6 c #A872C0",
"7 c #AA75C1",
"8 c #AC79C2",
"9 c #AF7FC5",
"0 c #B081C5",
"q c #B182C6",
"w c #B386C8",
"e c #BD99CF",
"r c #BF9ED1",
"t c #C09CD1",
"y c #C3A4D3",
"u c #C3A4D4",
"i c #C7ABD6",
"p c #CCB4DA",
"a c #CDB6DA",
"s c #CFB9DC",
"d c #D4C3DF",
"f c #D4C4E0",
"g c #D8CBE2",
"h c #D9CCE2",
"j c #DCD1E5",
"k c #DED7E7",
"l c #E4E1EB",
"z c #E5E2EB",
"x c #E6E3EC",
"c c #E6E5ED",
"v c #E8E8EE",
"b c #EAEBEF",
"n c #ECEFF1",
"m c #ECF0F1",
"M c None",
/* pixels */
"MMMMMMMMMMMMMMMMMMMMMMMMMMMMMMMMMMMMMMMMMMMMMMMMMMMMMMMMMMMMMMMMMMMMMMMMMMMMMMMMMMMMMMMMMMMMMMMM",
"MMMMMMMMMMMMMMMMMMMMMMMMMMMMMMMMMMMMMMMMMMMMMMMMMMMMMMMMMMMMMMMMMMMMMMMMMMMMMMMMMMMMMMMMMMMMMMMM",
"MMMMMMMMMMMMMMMMMMMMMMMMMMMMMMMMMMMMMMMMMMMMMMMMMMMMMMMMMMMMMMMMMMMMMMMMMMMMMMMMMMMMMMMMMMMMMMMM",
"MMMMMMMMMMMMMMMMMMMMMMMMMMMMMMMMMMMMMMMMMMMMMMMMMMMMMMMMMMMMMMMMMMMMMMMMMMMMMMMMMMMMMMMMMMMMMMMM",
"MMMMMMMMMMMMMMMMM>>>>>>>>>>>>>>>>>>>>>>>>>>>>>>>>>>>>>>>>>>>@MMMMMMMMMMMMMMMMMMMMMMMMMMMMMMMMMMM",
"MMMMMMMMMMMMMMMM>>>>>>>>>>>>>>>>>>>>>>>>>>>>>>>>>>>>>>>>>>>> @MMMMMMMMMMMMMMMMMMMMMMMMMMMMMMMMMM",
"MMMMMMMMMMMMMM>>>>>>>>>>>>>>>>>>>>>>>>>>>>>>>>>>>>>>>>>>>>>>  @MMMMMMMMMMMMMMMMMMMMMMMMMMMMMMMMM",
"MMMMMMMMMMMMMM>>>>>>>>>>>>>>>>>>>>>>>>>>>>>>>>>>>>>>>>>>>>>>   @MMMMMMMMMMMMMMMMMMMMMMMMMMMMMMMM",
"MMMMMMMMMMMMM>>>>>>>>>>>>>>>>>>>>>>>>>>>>>>>>>>>>>>>>>>>>>>>    @MMMMMMMMMMMMMMMMMMMMMMMMMMMMMMM",
"MMMMMMMMMMMM>>>>>>>>>>>>>>>>>>>>>>>>>>>>>>>>>>>>>>>>>>>>>>>>     @MMMMMMMMMMMMMMMMMMMMMMMMMMMMMM",
"MMMMMMMMMMMM>>>>>>>>>>>>>>>>>>>>>>>>>>>>>>>>>>>>>>>>>>>>>>>>      @MMMMMMMMMMMMMMMMMMMMMMMMMMMMM",
"MMMMMMMMMMMM>>>>>>>>>>>>>>>>>>>>>>>>>>>>>>>>>>>>>>>>>>>>>>>>       @MMMMMMMMMMMMMMMMMMMMMMMMMMMM",
"MMMMMMMMMMMM>>>>>>>>>>>>>>>>>>>>>>>>>>>>>>>>>>>>>>>>>>>>>>>>        @MMMMMMMMMMMMMMMMMMMMMMMMMMM",
"MMMMMMMMMMMM>>>>>>>>>>>>>>>>>>>>>>>>>>>>>>>>>>>>>>>>>>>>>>>>         @MMMMMMMMMMMMMMMMMMMMMMMMMM",
"MMMMMMMMMMMM>>>>>>>>>>>>>>>>>>>>>>>>>>>>>>>>>>>>>>>>>>>>>>>>          @MMMMMMMMMMMMMMMMMMMMMMMMM",
"MMMMMMMMMMMM>>>>>>>>>>>>>>>>>>>>>>>>>>>>>>>>>>>>>>>>>>>>>>>>           @MMMMMMMMMMMMMMMMMMMMMMMM",
"MMMMMMMMMMMM>>>>>>>>>>>>>>>>>>>>>>>>>>>>>>>>>>>>>>>>>>>>>>>>            @MMMMMMMMMMMMMMMMMMMMMMM",
"MMMMMMMMMMMM>>>>>>>>>>>>>>>>>>>>>>>>>>>>>>>>>>>>>>>>>>>>>>>>             @MMMMMMMMMMMMMMMMMMMMMM",
"MMMMMMMMMMMM>>>>>>>>>>>>>>>>>>>>>>>>>>>>>>>>>>>>>>>>>>>>>>>>              @MMMMMMMMMMMMMMMMMMMMM",
"MMMMMMMMMMMM>>>>>>>>>>>>>>>>>>>>>>>>>>>>>>>>>>>>>>>>>>>>>>>>               @MMMMMMMMMMMMMMMMMMMM",
"MMMMMMMMMMMM>>>>>>>>>>>>>>>>>>>>>>>>>>>>>>>>>>>>>>>>>>>>>>>>                @MMMMMMMMMMMMMMMMMMM",
"MMMMMMMMMMMM>>>>>>>>>>>>>>>>>>>>>>>>>>>>>>>>>>>>>>>>>>>>>>>>@                @MMMMMMMMMMMMMMMMMM",
"MMMMMMMMMMMM>>>>>>>>>>>>>>>>>>>>>>>>>>>>>>>>>>>>>>>>>>>>>>>>*                 @MMMMMMMMMMMMMMMMM",
"MMMMMMMMMMMM>>>>>>>>>>>>>>>>>>>>>>>>>>>>>>>>>>>>>>>>>>>>>>>>;                  @MMMMMMMMMMMMMMMM",
"MMMMMMMMMMMM>>>>>>>>>>>>>>>>>>>>>>>>>>>>>>>>>>>>>>>>>>>>>>>>>*                  @MMMMMMMMMMMMMMM",
"MMMMMMMMMMMM>>>>>>>>>>>>>>>>>>>>>>>>>>>>>>>>>>>>>>>>>>>>>>>>>>O                  @MMMMMMMMMMMMMM",
"MMMMMMMMMMMM>>>>>>>>>>>>>>>>>>>>>>>>>>>>>>>>>>>>>>>>>>>>>>>>>>>*                  @MMMMMMMMMMMMM",
"MMMMMMMMMMMM>>>>>>>>>>>>>>>>>>>>>>>>>>>>>>>>>>>>>>>>>>>>>>>>>>>>;@Oo               @MMMMMMMMMMMM",
"MMMMMMMMMMMM>>>>>>>>>>>>>>>>>>>>>>>>>>>>>>>>>>>>>>>>>>>>>>>>>>>>>>>>>>>>>>>>>>>>>>>>MMMMMMMMMMMM",
"MMMMMMMMMMMM>>>>>>>>>>>>>>>>>>>>>>>>>>>>>>>>>>>>>>>>>>>>>>>>>>>>>>>>>>>>>>>>>>>>>>>>MMMMMMMMMMMM",
"MMMMMMMMMMMM>>>>>>>>>>>>>>>>>>>>>>>>>>>>>>>>>>>>>>>>>>>>>>>>>>>>>>>>>>>>>>>>>>>>>>>>MMMMMMMMMMMM",
"MMMMMMMMMMMM>>>>>>>>>>>>>>>>>>>>>>>>>>>>>>>>>>>>>>>>>>>>>>>>>>>>>>>>>>>>>>>>>>>>>>>>MMMMMMMMMMMM",
"MMMMMMMMMMMM>>>>>>>>>>>>>>>>>>>>>>>>>>>>>>>>>>>>>>>>>>>>>>>>>>>>>>>>>>>>>>>>>>>>>>>>MMMMMMMMMMMM",
"MMMMMMMMMMMM>>>>>>>>>>>>>>>>>>>>>>>>>>>>>>>>>>>>>>>>>>>>>>>>>>>>>>>>>>>>>>>>>>>>>>>>MMMMMMMMMMMM",
"MMMMMMMMMMMM>>>>>>>>>>>>>>>>>>>>>>>>>>>>>>>>>>>>>>>>>>>>>>>>>>>>>>>>>>>>>>>>>>>>>>>>MMMMMMMMMMMM",
"MMMMMMMMMMMM>>>>>>>>>>>>>>>>>>>>>>>>>>>>>>>>>>>>>>>>>>>>>>>>>>>>>>>>>>>>>>>>>>>>>>>>MMMMMMMMMMMM",
"MMMMMMMMMMMM>>>>>>>>>>>>>>>>>>>>>>>>>>>>>>>>>>>>>>>>>>>>>>>>>>>>>>>>>>>>>>>>>>>>>>>>MMMMMMMMMMMM",
"MMMMMMMMMMMM>>>>>>>>>>>>>>>>>>>>>>>>>>>>>>>>>>>>>>>>>>>>>>>>>>>>>>>>>>>>>>>>>>>>>>>>MMMMMMMMMMMM",
"MMMMMMMMMMMM>>>>>>>>>>>>>>>>>>>>>>>>>>>>>>>>>>>>>>>>>>>>>>>>>>>>>>>>>>>>>>>>>>>>>>>>MMMMMMMMMMMM",
"MMMMMMMMMMMM>>>>>>>>>>>>>>>>>>>>>>>>>>>>>>>>>>>>>>>>>>>>>>>>>>>>>>>>>>>>>>>>>>>>>>>>MMMMMMMMMMMM",
"MMMMMMMMMMMM>>>>>>>>>>>>>>>>>>>>>>>>>>>>>>>>>>>>>>>>>>>>>>>>>>>>>>>>>>>>>>>>>>>>>>>>MMMMMMMMMMMM",
"MMMMMMMMMMMM>>>>>>>>>>>>>>>>>>>>>>>>>>>>>>>>>>>>>>>>>>>>>>>>>>>>>>>>>>>>>>>>>>>>>>>>MMMMMMMMMMMM",
"MMMMMMMMMMMM>>>>>>>>>>>>>>>>>>>>>>>>>>>>>>>>>>>>>>>>>>>>>>>>>>>>>>>>>>>>>>>>>>>>>>>>MMMMMMMMMMMM",
"MMMMMMMMMMMM>>>>>>>>>>>>>>>>>>>>>>>>>>>>>>>>>>>>>>>>>>>>>>>>>>>>>>>>>>>>>>>>>>>>>>>>MMMMMMMMMMMM",
"MMMMMMMMMMMM>>>>>>>>>>>>>>>>>>>>>>>>>>>>>>>>>>>>>>>>>>>>>>>>>>>>>>>>>>>>>>>>>>>>>>>>MMMMMMMMMMMM",
"MMMMMMMMMMMM>>>>>>>>>>>>>>>>>>>>>>>>>>>>>>>>>>>>>>>>>>>>>>>>>>>>>>>>>>>>>>>>>>>>>>>>MMMMMMMMMMMM",
"MMMMMMMMMMMM>>>>>>>>>>>>>>>>>>>>>>>>>>>>>>>>>>>>>>>>>>>>>>>>>>>>>>>>>>>>>>>>>>>>>>>>MMMMMMMMMMMM",
"MMMMMMMMMMMM>>>>>>>>>>>>>>>>>>>>>>>>>>>>>>>>>>>>>>>>>>>>>>>>>>>>>>>>>>>>>>>>>>>>>>>>MMMMMMMMMMMM",
"MMMMMMMMMMMM>>>>>>>>>>>>>>>>>>>>>>>>>>>>>>>>>>>>>>>>>>>>>>>>>>>>>>>>>>>>>>>>>>>>>>>>MMMMMMMMMMMM",
"MMMMMMMMMMMM>>>>>>>>>>>>>>>>>>>>>>>>>>>>>>>>>>>>>>>>>>>>>>>>>>>>>>>>>>>>>>>>>>>>>>>>MMMMMMMMMMMM",
"MMMMMMMMMMMM>>>>>>>>>>>>>>>>>>>>>>>>>>>>>>>>>>>>>>>>>>>>>>>>>>>>>>>>>>>>>>>>>>>>>>>>MMMMMMMMMMMM",
"MMMMMMMMMMMM>>>>>>>>>>>>>>>>>>>>>>>>>>>>>>>>>>>>>>>>>>>>>>>>>>>>>>>>>>>>>>>>>>>>>>>>MMMMMMMMMMMM",
"MMMMMMMMMMMM>>>>>>>>>>>>>>>>>>>>>>>>>>>>mmmmmmmmlduw>>>>>>>>>>>>>>>>>>>>>>>>>>>>>>>>MMMMMMMMMMMM",
"MMMMMMMMMMMM>>>>>>>>>>>>>>>>>>>>>>>>>>>>mmmmmmmmmmmmj7>>>>>>>>>>>>>>>>>>>>>>>>>>>>>>MMMMMMMMMMMM",
"MMMMMMMMMMMM>>>>>>>>>>>>>>>>>>>>>>>>>>>>mmmmmmmmmmmmmbt>>>>>>>>>>>>>>>>>>>>>>>>>>>>>MMMMMMMMMMMM",
"MMMMMMMMMMMM>>>>>>>>>>>>>>>>>>>>>>>>>>>>mmmmmmmmmmmmmmmt>>>>>>>>>>>>>>>>>>>>>>>>>>>>MMMMMMMMMMMM",
"MMMMMMMMMMMM>>>>>>>>>>>>>>>>>>>>>>>>>>>>mmmm>>>>3qanmmmb7>>>>>>>>>>>>>>>>>>>>>>>>>>>MMMMMMMMMMMM",
"MMMMMMMMMMMM>>>>>>>>>>>>>>>>>>>>>>>>>>>>mmmm>>>>>>>qlmmmj>>>>>>>>>>>>>>>>>>>>>>>>>>>MMMMMMMMMMMM",
"MMMMMMMMMMMM>>>>>>>>>>>>>>>>>>>>>>>>>>>>mmmm>>>>>>>>qmmmmw>>>>>>>>>>>>>>>>>>>>>>>>>>MMMMMMMMMMMM",
"MMMMMMMMMMMM>>>>>>>>>>>>>>>>>>>>>>>>>>>>mmmm>>>>>>>>>ammmu>>>>>>>>>>>>>>>>>>>>>>>>>>MMMMMMMMMMMM",
"MMMMMMMMMMMM>>>>>>>>>>>>>>>>>>>>>>>>>>>>mmmm>>>>>>>>>wmmmd>>mmmm>>>>>4rfkb;>>>>>>>>>MMMMMMMMMMMM",
"MMMMMMMMMMMM>>>>>>>>>>>>>>>>>>>>>>>>>>>>mmmm>>>>>>>>>4mmml>>mmmm>>>8hmmmmm>>>>>>>>>>MMMMMMMMMMMM",
"MMMMMMMMMMMM>>>>>>>>>>>>>>>>>>>>>>>>>>>>mmmm>>>>>>>>>4mmml>>mmmm>3smmmmmmm>>>>>>>>>>MMMMMMMMMMMM",
"MMMMMMMMMMMM>>>>>>>>>>>>>>>>>>>>>>>>>>>>mmmm>>>>>>>>>wmmmd>>mmmm5kmmmmmmmn>>>>>>>>>>MMMMMMMMMMMM",
"MMMMMMMMMMMM>>>>>>>>>>>>>>>>>>>>>>>>>>>>mmmm>>>>>>>>>annmu>>mmmmlmmmlu0337>>>>>>>>>>MMMMMMMMMMMM",
"MMMMMMMMMMMM>>>>>>>>>>>>>>>>>>>>>>>>>>>>mmmm>>>>>>>>qnmnmw>>mmmmmmni1>>>>>>>>>>>>>>>MMMMMMMMMMMM",
"MMMMMMMMMMMM>>>>>>>>>>>>>>>>>>>>>>>>>>>>mmmm>>>>>>>qlmmmj>>>mmmmmne>>>>>>>>>>>>>>>>>MMMMMMMMMMMM",
"MMMMMMMMMMMM>>>>>>>>>>>>>>>>>>>>>>>>>>>>mmmm>>>>3wanmmmb7>>>mmmmmu>>>>>>>>>>>>>>>>>>MMMMMMMMMMMM",
"MMMMMMMMMMMM>>>>>>>>>>>>>>>>>>>>>>>>>>>>mmmmmmmmmmmmmmmt>>>>mmmmh>>>>>>>>>>>>>>>>>>>MMMMMMMMMMMM",
"MMMMMMMMMMMM>>>>>>>>>>>>>>>>>>>>>>>>>>>>mmmmmmmmmmmmmbt>>>>>mmmm4>>>>>>>>>>>>>>>>>>>MMMMMMMMMMMM",
"MMMMMMMMMMMM>>>>>>>>>>>>>>>>>>>>>>>>>>>>mmmmmmmmmmmmj5>>>>>>mmmm>>>>>>>>>>>>>>>>>>>>MMMMMMMMMMMM",
"MMMMMMMMMMMM>>>>>>>>>>>>>>>>>>>>>>>>>>>>mmmmmmmmlduw1>>>>>>>mmmm>>>>>>>>>>>>>>>>>>>>MMMMMMMMMMMM",
"MMMMMMMMMMMM>>>>>>>>>>>>>>>>>>>>>>>>>>>>mmmm>>>>>>>>>>>>>>>>mmmm>>>>>>>>>>>>>>>>>>>>MMMMMMMMMMMM",
"MMMMMMMMMMMM>>>>>>>>>>>>>>>>>>>>>>>>>>>>mmmm>>>>>>>>>>>>>>>>mmmm>>>>>>>>>>>>>>>>>>>>MMMMMMMMMMMM",
"MMMMMMMMMMMM>>>>>>>>>>>>>>>>>>>>>>>>>>>>mmmm>>>>>>>>>>>>>>>>mmmm>>>>>>>>>>>>>>>>>>>>MMMMMMMMMMMM",
"MMMMMMMMMMMM>>>>>>>>>>>>>>>>>>>>>>>>>>>>mmmm>>>>>>>>>>>>>>>>mmmm>>>>>>>>>>>>>>>>>>>>MMMMMMMMMMMM",
"MMMMMMMMMMMM>>>>>>>>>>>>>>>>>>>>>>>>>>>>mmmm>>>>>>>>>>>>>>>>mmmm>>>>>>>>>>>>>>>>>>>>MMMMMMMMMMMM",
"MMMMMMMMMMMM>>>>>>>>>>>>>>>>>>>>>>>>>>>>mmmm>>>>>>>>>>>>>>>>mmmm>>>>>>>>>>>>>>>>>>>>MMMMMMMMMMMM",
"MMMMMMMMMMMM>>>>>>>>>>>>>>>>>>>>>>>>>>>>mmmm>>>>>>>>>>>>>>>>mmmm>>>>>>>>>>>>>>>>>>>>MMMMMMMMMMMM",
"MMMMMMMMMMMM>>>>>>>>>>>>>>>>>>>>>>>>>>>>mmmm>>>>>>>>>>>>>>>>mmmm>>>>>>>>>>>>>>>>>>>>MMMMMMMMMMMM",
"MMMMMMMMMMMM>>>>>>>>>>>>>>>>>>>>>>>>>>>>>>>>>>>>>>>>>>>>>>>>>>>>>>>>>>>>>>>>>>>>>>>>MMMMMMMMMMMM",
"MMMMMMMMMMMM>>>>>>>>>>>>>>>>>>>>>>>>>>>>>>>>>>>>>>>>>>>>>>>>>>>>>>>>>>>>>>>>>>>>>>>>MMMMMMMMMMMM",
"MMMMMMMMMMMM>>>>>>>>>>>>>>>>>>>>>>>>>>>>>>>>>>>>>>>>>>>>>>>>>>>>>>>>>>>>>>>>>>>>>>>>MMMMMMMMMMMM",
"MMMMMMMMMMMM>>>>>>>>>>>>>>>>>>>>>>>>>>>>>>>>>>>>>>>>>>>>>>>>>>>>>>>>>>>>>>>>>>>>>>>>MMMMMMMMMMMM",
"MMMMMMMMMMMM;>>>>>>>>>>>>>>>>>>>>>>>>>>>>>>>>>>>>>>>>>>>>>>>>>>>>>>>>>>>>>>>>>>>>>>;MMMMMMMMMMMM",
"MMMMMMMMMMMM;>>>>>>>>>>>>>>>>>>>>>>>>>>>>>>>>>>>>>>>>>>>>>>>>>>>>>>>>>>>>>>>>>>>>>;;MMMMMMMMMMMM",
"MMMMMMMMMMMM@>>>>>>>>>>>>>>>>>>>>>>>>>>>>>>>>>>>>>>>>>>>>>>>>>>>>>>>>>>>>>>>>>>>>>>@MMMMMMMMMMMM",
"MMMMMMMMMMMMo>>>>>>>>>>>>>>>>>>>>>>>>>>>>>>>>>>>>>>>>>>>>>>>>>>>>>>>>>>>>>>>>>>>>>>OMMMMMMMMMMMM",
"MMMMMMMMMMMM @>>>>>>>>>>>>>>>>>>>>>>>>>>>>>>>>>>>>>>>>>>>>>>>>>>>>>>>>>>>>>>>>>>>>@ MMMMMMMMMMMM",
"MMMMMMMMMMMM  ;>>>>>>>>>>>>>>>>>>>>>>>>>>>>>>>>>>>>>>>>>>>>>>>>>>>>>>>>>>>>>>>>>>;  MMMMMMMMMMMM",
"MMMMMMMMMMMM   @>>>>>>>>>>>>>>>>>>>>>>>>>>>>>>>>>>>>>>>>>>>>>>>>>>>>>>>>>>>>>;>;@   MMMMMMMMMMMM",
"MMMMMMMMMMMMM   O**>>>>>>>>>>>>>>>>>>>>>>>>>>>>>>>>>>>>>>>>>>>>>>>>>>>>>>>>>;;@O   MMMMMMMMMMMMM",
"MMMMMMMMMMMMMM                                                                    MMMMMMMMMMMMMM",
"MMMMMMMMMMMMMM                                                                    MMMMMMMMMMMMMM",
"MMMMMMMMMMMMMMMM                                                                MMMMMMMMMMMMMMMM",
"MMMMMMMMMMMMMMMMM                                                              MMMMMMMMMMMMMMMMM"
};
