/* XPM */
static char *flower[] = {
/* columns rows colors chars-per-pixel */
"96 96 76 1 ",
"  c #C0392B",
". c #C1392B",
"X c #C13A2B",
"o c #C13A2C",
"O c #C23A2C",
"+ c #C33A2C",
"@ c #C33B2C",
"# c #C43B2D",
"$ c #C53B2D",
"% c #C53C2D",
"& c #C63C2D",
"* c #C63C2E",
"= c #C73C2E",
"- c #C73D2E",
"; c #C83D2E",
": c #C83D2F",
"> c #C93D2F",
", c #C93E2F",
"< c #CA3E2F",
"1 c #C93D30",
"2 c #CB3E30",
"3 c #CB3F30",
"4 c #CC3F30",
"5 c #CD3F30",
"6 c #CD3F31",
"7 c #C5442A",
"8 c #D15727",
"9 c #D35B26",
"0 c #D35C27",
"q c #CD4031",
"w c #CE4031",
"e c #CF4031",
"r c #CF4032",
"t c #CF4132",
"y c #D04132",
"u c #D14132",
"i c #D24233",
"p c #D34233",
"a c #D24333",
"s c #D44334",
"d c #D54334",
"f c #D64434",
"g c #D64435",
"h c #D74435",
"j c #D84536",
"k c #D94536",
"l c #DA4636",
"z c #DB4637",
"x c #DC4637",
"c c #DD4737",
"v c #DD4738",
"b c #DE4738",
"n c #DE4838",
"m c #DF4838",
"M c #DF4839",
"N c #E04939",
"B c #E14939",
"V c #E24A39",
"C c #E1493A",
"Z c #E2493A",
"A c #E24A3A",
"S c #E34A3A",
"D c #E44A3B",
"F c #E44B3B",
"G c #E54B3B",
"H c #E64B3B",
"J c #E64C3B",
"K c #E64B3C",
"L c #E64C3C",
"P c #E74C3C",
"I c #DA6925",
"U c #DB6A24",
"Y c #E27823",
"T c #E57C23",
"R c #E67E22",
"E c None",
/* pixels */
"EEEEEEEEEEEEEEEEEEEEEEEEEEEEEEEEEEEEEEEEEEEEEEEEEEEEEEEEEEEEEEEEEEEEEEEEEEEEEEEEEEEEEEEEEEEEEEEE",
"EEEEEEEEEEEEEEEEEEEEEEEEEEEEEEEEEEEEEEEEEEEEEEEEEEEEEEEEEEEEEEEEEEEEEEEEEEEEEEEEEEEEEEEEEEEEEEEE",
"EEEEEEEEEEEEEEEEEEEEEEEEEEEEEEEEEEEEEEEEEEEEEEEEEEEEEEEEEEEEEEEEEEEEEEEEEEEEEEEEEEEEEEEEEEEEEEEE",
"EEEEEEEEEEEEEEEEEEEEEEEEEEEEEEEEEEEEEEEEEEEEEEEEEEEEEEEEEEEEEEEEEEEEEEEEEEEEEEEEEEEEEEEEEEEEEEEE",
"EEEEEEEEEEEEEEEEEEEEEEEEEEEEEEEEEEEEEEEEEEEEEEPPPPEEEEEEEEEEEEEEEEEEEEEEEEEEEEEEEEEEEEEEEEEEEEEE",
"EEEEEEEEEEEEEEEEEEEEEEEEEEEEE     EEEEEEEEEEPPPPPPPPEEEEEEEE  EEEEEEEEEEEEEEEEEEEEEEEEEEEEEEEEEE",
"EEEEEEEEEEEEEEEEEEEEEEEEEEE        EEEEEEEEPPPPPPPPPPEEEEE      EEEEEEEEEEEEEEEEEEEEEEEEEEEEEEEE",
"EEEEEEEEEEEEEEEEEEEEEEEEEEE          EEEEEEPPPPPPPPPPEEE         EEEEEEEEEEEEEEEEEEEEEEEEEEEEEEE",
"EEEEEEEEEEEEEEEEEEEEEEEEEE            EEEEPPPPPPPPPPPPE           EEEEEEEEEEEEEEEEEEEEEEEEEEEEEE",
"EEEEEEEEEEEEEEEEEEEEEEEEEE            EEEEPPPPPPPPPPPPt           EEEEEEEEEEEEEEEEEEEEEEEEEEEEEE",
"EEEEEEEEEEEEEEEEEEEEEEEEEE             EEPPPPPPPPPPPPPg           EEEEEEEEEEEEEEEEEEEEEEEEEEEEEE",
"EEEEEEEEEEEEEEEEEEEEEEEEEE              EPPPPPPPPPPPPPP           EEEEEEEEEEEEEEEEEEEEEEEEEEEEEE",
"EEEEEEEEEEEEEEEEEEEEEEEEEE              EPPPPPPPPPPPPPP            EEEEEEEEEEEEEEEEEEEEEEEEEEEEE",
"EEEEEEEEEEEEEEEEEEEEEEEEEE              4PPPPPPPPPPPPPP            EEEEEEEEEEEEEEEEEEEEEEEEEEEEE",
"EEEEEEEEEEEEEEEEEEEPPPEEEE              ;PPPPPPPPPPPPPP4           EEEEEEEPPPEEEEEEEEEEEEEEEEEEE",
"EEEEEEEEEEEEEEEEEPPPPPPPPE              4PPPPPPPPPPPPPP4          EEEEEPPPPPPPPEEEEEEEEEEEEEEEEE",
"EEEEEEEEEEEEEEEEPPPPPPPPPPv             ;PPPPPPPPPPPPPP;          EEEPPPPPPPPPPPEEEEEEEEEEEEEEEE",
"EEEEEEEEEEEEEEEPPPPPPPPPPPPP            ;PPPPPPPPPPPPPP;          EEPPPPPPPPPPPPPEEEEEEEEEEEEEEE",
"EEEEEEEEEEEEEEEPPPPPPPPPPPPPP4          ;PPPPPPPPPPPPPP           EPPPPPPPPPPPPPPEEEEEEEEEEEEEEE",
"EEEEEEEEEEEEEEEPPPPPPPPPPPPPPPt          PPPPPPPPPPPPPP          zPPPPPPPPPPPPPPPEEEEEEEEEEEEEEE",
"EEEEEEEEEEEEEEEPPPPPPPPPPPPPPPP;         PPPPPPPPPPPPPP         tPPPPPPPPPPPPPPPPEEEEEEEEEEEEEEE",
"EEEEEEEEEEEEEEEPPPPPPPPPPPPPPPPP         vPPPPPPPPPPPPz         PPPPPPPPPPPPPPPPPEEEEEEEEEEEEEEE",
"EEEEEEEEEEEEEEEPPPPPPPPPPPPPPPPPP        gPPPPPPPPPPPPg        PPPPPPPPPPPPPPPPPPEEEEEEEEEEEEEEE",
"EEEEEEEEEEEEEEEEPPPPPPPPPPPPPPPPPz       tPPPPPPPPPPPPt       zPPPPPPPPPPPPPPPPPEEEEEEEEEEEEEEEE",
"EEEEEEEEEEEEEEEEPPPPPPPPPPPPPPPPPPg      ;PPPPPPPPPPPP;      gPPPPPPPPPPPPPPPPPPEEEEEEEEEEEEEEEE",
"EEEEEEEEEEEEEEEEEPPPPPPPPPPPPPPPPPP       PPPPPPPPPPPP      ;PPPPPPPPPPPPPPPPPP     EEEEEEEEEEEE",
"EEEEEEEEEEEEEEEEEPPPPPPPPPPPPPPPPPPP      PPPPPPPPPPPP      zPPPPPPPPPPPPPPPPPz       EEEEEEEEEE",
"EEEEEEEEE         PPPPPPPPPPPPPPPPPPz     zPPPPPPPPPPP     zPPPPPPPPPPPPPPPPPP         EEEEEEEEE",
"EEEEEEE            PPPPPPPPPPPPPPPPPP;    zPPPPPPPPPPz    4PPPPPPPPPPPPPPPPPP           EEEEEEEE",
"EEEEEE             ;PPPPPPPPPPPPPPPPPP;   gPPPPPPPPPPg    PPPPPPPPPPPPPPPPPP;           EEEEEEEE",
"EEEEEE               PPPPPPPPPPPPPPPPPB   ;PPPPPPPPPP6   PPPPPPPPPPPPPPPPPM             EEEEEEEE",
"EEEEEE                PPPPPPPPPPPPPPPPPg  ;PPPPPPPPPP;  gPPPPPPPPPPPPPPPPP              EEEEEEEE",
"EEEEE                  vPPPPPPPPPPPPPPPP4  v644  =44v= 4PPPPPPPPPPPPPPPPg               EEEEEEEE",
"EEEEE                   4PPPPPPPPPPPPPPPP              BPPPPPPPPPPPPPPPg               EEEEEEEEE",
"EEEEEE                    MPPPPPPPPPPPPg                gPPPPPPPPPPPPM                 EEEEEEEEE",
"EEEEEE                     gPPPPPPPPPP                   4BPPPPPPPPPz                 EEEEEEEEEE",
"EEEEEEE                     tPPPPPPPB                      PPPPPPPPg                 EEEEEEEEEEE",
"EEEEEEEE                     =PPPPPP                        BPPPPP                  EEEEEEEEEEEE",
"EEEEEEEEE                      gPPP;                        =PPPn                 EEEEEEEEEEEEEE",
"EEEEEEEEEE                      gPg                          gP6                EEEEEEEEEEEEEEEE",
"EEEEEEEEEEEE  4t4 4                         79IYYI97          4              ;EEEEEEEEEEEEEEEEEE",
"EEEEEEEEEEPPPPPPPPPPPvgt4                  9RRRRRRRR8                   tgPPPPPPPPPPPPEEEEEEEEEE",
"EEEEEEEEPPPPPPPPPPPPPPPPPPPMvgt4;         URRRRRRRRRRI         =;ggzzPPPPPPPPPPPPPPPPPPPEEEEEEEE",
"EEEEEEPPPPPPPPPPPPPPPPPPPPPPPPPPz        8RRRRRRRRRRRR8        vPPPPPPPPPPPPPPPPPPPPPPPPPPEEEEEE",
"EEEEEPPPPPPPPPPPPPPPPPPPPPPPPPPPg       7RRRRRRRRRRRRRR7       4PPPPPPPPPPPPPPPPPPPPPPPPPPPEEEEE",
"EEEEEPPPPPPPPPPPPPPPPPPPPPPPPPPP        9RRRRRRRRRRRRRR8       =PPPPPPPPPPPPPPPPPPPPPPPPPPPEEEEE",
"EEEEPPPPPPPPPPPPPPPPPPPPPPPPPPPP;       IRRRRRRRRRRRRRRI       =PPPPPPPPPPPPPPPPPPPPPPPPPPPPEEEE",
"EEEEPPPPPPPPPPPPPPPPPPPPPPPPPPPP        YRRRRRRRRRRRRRRR        PPPPPPPPPPPPPPPPPPPPPPPPPPPPEEEE",
"EEEEPPPPPPPPPPPPPPPPPPPPPPPPPPPP        YRRRRRRRRRRRRRRY       oPPPPPPPPPPPPPPPPPPPPPPPPPPPPEEEE",
"EEEEPPPPPPPPPPPPPPPPPPPPPPPPPPPP=       IRRRRRRRRRRRRRRI       =PPPPPPPPPPPPPPPPPPPPPPPPPPPPEEEE",
"EEEEEPPPPPPPPPPPPPPPPPPPPPPPPPPP=       9RRRRRRRRRRRRRR9       =PPPPPPPPPPPPPPPPPPPPPPPPPPPEEEEE",
"EEEEEPPPPPPPPPPPPPPPPPPPPPPPPPPP4       7RRRRRRRRRRRRRR7     oo6PPPPPPPPPPPPPPPPPPPPPPPPPPPEEEEE",
"EEEEEEPPPPPPPPPPPPPPPPPPPPPPPPPPv        8RRRRRRRRRRRR8        vPPPPPPPPPPPPPPPPPPPPPPPPPPEEEEEE",
"EEEEEEEEPPPPPPPPPPPPPPPPPPPPsgt4=         IRRRRRRRRRRI        oo4tgzvPPPPPPPPPPPPPPPPPPPEEEEEEEE",
"EEEEEEEEEEPPPPPPPPPPPvsg4                  8RRRRRRRR8         o        44gzPPPPPPPPPPPEEEEEEEEEE",
"EEEEEEEEEE    444==              =o         79IYYI97          =                44t   EEEEEEEEEEE",
"EEEEEEEEE                       4Kt                          sK6                      EEEEEEEEEE",
"EEEEEEEE                       vPPP4                        4BPPv                      EEEEEEEEE",
"EEEEEEE                      =MPPPPP=                      =PPPPPv4                    EEEEEEEEE",
"EEEEEE                      tPPPPPPPv=                    oBKPPPPPP4                    EEEEEEEE",
"EEEEEE                     sPPPPPPPPPP=                  =PPKPPPPPPPz                   EEEEEEEE",
"EEEEE                    =PKPPPPPPPPPPPt                gPPPPPPPPPPPPP                  EEEEEEEE",
"EEEEE                   4PPPPPPPPPPPPPPPP              vPPPPPPPPPPPPPPP4                EEEEEEEE",
"EEEEE                  gPPPPPPPPPPPPPPPP4 =v44=  ==gv= 4PPPPPPPPPPPPPPPPz              EEEEEEEEE",
"EEEEE                 PPPPPPPPPPPPPPPPPz  ;PPPPPPPPPP4  gPPPPPPPPPPPPPPPPP             EEEEEEEEE",
"EEEEEE               PPPPPPPPPPPPPPPPPB   4PPPPPPPPPP6   BPPPPPPPPPPPPPPPPP          EEEEEEEEEEE",
"EEEEEEE            4PPPPPPPPPPPPPPPPPP    gPPPPPPPPPPg   ;PPPPPPPPPPPPPPPPPPEE    EEEEEEEEEEEEEE",
"EEEEEEEE          EPPPPPPPPPPPPPPPPPP4    gPPPPPPPPPPz    4PPPPPPPPPPPPPPPPPPEEEEEEEEEEEEEEEEEEE",
"EEEEEEEEEEEE EEEEEPPPPPPPPPPPPPPPPPPz     vPPPPPPPPPPv     zPPPPPPPPPPPPPPPPPPEEEEEEEEEEEEEEEEEE",
"EEEEEEEEEEEEEEEEEPPPPPPPPPPPPPPPPPPP      PPPPPPPPPPPP      BPPPPPPPPPPPPPPPPPPEEEEEEEEEEEEEEEEE",
"EEEEEEEEEEEEEEEEEPPPPPPPPPPPPPPPPPP       PPPPPPPPPPPP      ;PPPPPPPPPPPPPPPPPPEEEEEEEEEEEEEEEEE",
"EEEEEEEEEEEEEEEEPPPPPPPPPPPPPPPPPPg      ;PPPPPPPPPPPP4      6PPPPPPPPPPPPPPPPPPEEEEEEEEEEEEEEEE",
"EEEEEEEEEEEEEEEEPPPPPPPPPPPPPPPPPv       4PPPPPPPPPPPPg       zPPPPPPPPPPPPPPPPPEEEEEEEEEEEEEEEE",
"EEEEEEEEEEEEEEEPPPPPPPPPPPPPPPPPP        gPPPPPPPPPPPPz        BPPPPPPPPPPPPPPPPPEEEEEEEEEEEEEEE",
"EEEEEEEEEEEEEEEPPPPPPPPPPPPPPPPP         vPPPPPPPPPPPPB         PPPPPPPPPPPPPPPPPEEEEEEEEEEEEEEE",
"EEEEEEEEEEEEEEEPPPPPPPPPPPPPPPP;         PPPPPPPPPPPPPP         ;PPPPPPPPPPPPPPPPEEEEEEEEEEEEEEE",
"EEEEEEEEEEEEEEEPPPPPPPPPPPPPPP4          PPPPPPPPPPPPPP          4PPPPPPPPPPPPPPPEEEEEEEEEEEEEEE",
"EEEEEEEEEEEEEEEPPPPPPPPPPPPPP;           PPPPPPPPPPPPPP;          4PPPPPPPPPPPPPPEEEEEEEEEEEEEEE",
"EEEEEEEEEEEEEEEPPPPPPPPPPPPP;           ;PPPPPPPPPPPPPP4           4PPPPPPPPPPPPPEEEEEEEEEEEEEEE",
"EEEEEEEEEEEEEEEEPPPPPPPPPPP             4PPPPPPPPPPPPPP4            EPPPPPPPPPPPEEEEEEEEEEEEEEEE",
"EEEEEEEEEEEEEEEEEPPPPPPPPEE             4PPPPPPPPPPPPPPt            EEEPPPPPPPPEEEEEEEEEEEEEEEEE",
"EEEEEEEEEEEEEEEEEEEPPPEEEEE             4PPPPPPPPPPPPPP4            EEEEEEPPPEEEEEEEEEEEEEEEEEEE",
"EEEEEEEEEEEEEEEEEEEEEEEEEEE             EPPPPPPPPPPPPPP             EEEEEEEEEEEEEEEEEEEEEEEEEEEE",
"EEEEEEEEEEEEEEEEEEEEEEEEEEE            EEPPPPPPPPPPPPPP            EEEEEEEEEEEEEEEEEEEEEEEEEEEEE",
"EEEEEEEEEEEEEEEEEEEEEEEEEEEE           EEPPPPPPPPPPPPPP            EEEEEEEEEEEEEEEEEEEEEEEEEEEEE",
"EEEEEEEEEEEEEEEEEEEEEEEEEEEE          EEEPPPPPPPPPPPPPPE           EEEEEEEEEEEEEEEEEEEEEEEEEEEEE",
"EEEEEEEEEEEEEEEEEEEEEEEEEEEEE       EEEEEEPPPPPPPPPPPPEEE         EEEEEEEEEEEEEEEEEEEEEEEEEEEEEE",
"EEEEEEEEEEEEEEEEEEEEEEEEEEEEEE     EEEEEEEPPPPPPPPPPPPEEEEE      EEEEEEEEEEEEEEEEEEEEEEEEEEEEEEE",
"EEEEEEEEEEEEEEEEEEEEEEEEEEEEEEEEEEEEEEEEEEEPPPPPPPPPPEEEEEEEE EEEEEEEEEEEEEEEEEEEEEEEEEEEEEEEEEE",
"EEEEEEEEEEEEEEEEEEEEEEEEEEEEEEEEEEEEEEEEEEEPPPPPPPPPPEEEEEEEEEEEEEEEEEEEEEEEEEEEEEEEEEEEEEEEEEEE",
"EEEEEEEEEEEEEEEEEEEEEEEEEEEEEEEEEEEEEEEEEEEEPPPPPPPPEEEEEEEEEEEEEEEEEEEEEEEEEEEEEEEEEEEEEEEEEEEE",
"EEEEEEEEEEEEEEEEEEEEEEEEEEEEEEEEEEEEEEEEEEEEEEPPPPEEEEEEEEEEEEEEEEEEEEEEEEEEEEEEEEEEEEEEEEEEEEEE",
"EEEEEEEEEEEEEEEEEEEEEEEEEEEEEEEEEEEEEEEEEEEEEEEEEEEEEEEEEEEEEEEEEEEEEEEEEEEEEEEEEEEEEEEEEEEEEEEE",
"EEEEEEEEEEEEEEEEEEEEEEEEEEEEEEEEEEEEEEEEEEEEEEEEEEEEEEEEEEEEEEEEEEEEEEEEEEEEEEEEEEEEEEEEEEEEEEEE",
"EEEEEEEEEEEEEEEEEEEEEEEEEEEEEEEEEEEEEEEEEEEEEEEEEEEEEEEEEEEEEEEEEEEEEEEEEEEEEEEEEEEEEEEEEEEEEEEE",
"EEEEEEEEEEEEEEEEEEEEEEEEEEEEEEEEEEEEEEEEEEEEEEEEEEEEEEEEEEEEEEEEEEEEEEEEEEEEEEEEEEEEEEEEEEEEEEEE"
};
