/* XPM */
static char *folder[] = {
/* columns rows colors chars-per-pixel */
"96 96 27 1 ",
"  c #2980B9",
". c #2A80B9",
"X c #2B84BE",
"o c #3F8ABB",
"O c #6A9EBF",
"+ c #2E8BC8",
"@ c #2F8CCA",
"# c #3D8CC0",
"$ c #308FCF",
"% c #3090D0",
"& c #3191D1",
"* c #3192D3",
"= c #3293D3",
"- c #3396D8",
"; c #3497DA",
": c #3498DB",
"> c #3698DA",
", c #419CD9",
"< c #5DA5D5",
"1 c #73A2C0",
"2 c #75ACD1",
"3 c #91AFC3",
"4 c #92AFC3",
"5 c #AEBDC5",
"6 c #B7C1C7",
"7 c #BDC3C7",
"8 c None",
/* pixels */
"888888888888888888888888888888888888888888888888888888888888888888888888888888888888888888888888",
"888888888888888888888888888888888888888888888888888888888888888888888888888888888888888888888888",
"888888888888888888888888888888888888888888888888888888888888888888888888888888888888888888888888",
"888888888888888888888888888888888888888888888888888888888888888888888888888888888888888888888888",
"888888888                                8888888888888888888888888888888888888888888888888888888",
"88888888                                  888888888888888888888888888888888888888888888888888888",
"888888                                      8888888888888888888888888888888888888888888888888888",
"888888                                       888888888888888888888888888888888888888888888888888",
"88888                                          8888888888888888888888888888888888888888888888888",
"88888                                           888888888888888888888888888888888888888888888888",
"8888                                              8888888888888888888888888888888888888888888888",
"8888                                               888888888888888888888888888888888888888888888",
"8888                                                                                   888888888",
"8888                                                                                    88888888",
"8888                                                                                      888888",
"8888                                                                                      888888",
"8888    o14666777777777777777777777777777777777777777777777777777777777777777777777754O,   88888",
"8888   O67777777777777777777777777777777777777777777777777777777777777777777777777777776O   8888",
"8888  477766777777777777777777777777777777777777777777777777777777667777777777777777777764  8888",
"8888 O777776777777777777777677777777777777777777777777777777777777767777777777777777777677O 8888",
"8888#2<,::::::::::::>>>:::::::::::::::::::::::::::::::::::::::::::::::::>>::::::=>>>::::,<2#8888",
"888*>>>>::::::::::::>>::::::::::::::::::::::::::::::::::::::::::::::::::::::::::=>>>::::>>>>*888",
"88*:::>>::::::::::::::::::::::::::::::::::::::::::::::::::::::::::::::::::::::::>>>>::::::::>%88",
"8%:::::>:::::::::::::::::::::::::::::::::::::::::::::::::::::::::::::::::::::::::>>>::::::::>;%8",
"8;>>::::::::::::::::::::::::::::::::::::::::::::::::::::::::::::::::::::::::::::::::::::::::::;8",
"%>>>::::::::::::::::::::::::::::::::::::::::::::::::::::::::::::::::::::::::::::::::::::::::::;*",
"*::::::::::::::::::::::::::::::::::::::::::::::::::::::::::::::::::::::::::::::::::::::::::::::*",
"-::::::::::::::::::::::::::::::::::::::::::::::::::::::::::::::::::::::::::::::::::::::::::::::;",
"::::::::::::::::::::::::::::::::::::::::::::::::::::::::::::::::::::::::::::::::::::::::::::::::",
"::::::::::::::::::::::::::::::::::::::::::::::::::::::::::::::::::::::::::::::::::::::::::::::::",
"::::::::::::::::::::::::::::::::::::::::::::::::::::::::::::::::::::::::::::::::::::::::::::::::",
"::::::::::::::::::::::::::::::::::::::::::::::::::::::::::::::::::::::::::::::::::::::::::::::::",
"::::::::::::::::::::::::::::::::::::::::::::::::::::::::::::::::::::::::::::::::::::::::::::::::",
"::::::::::::::::::::::::::::::::::::::::::::::::::::::::::::::::::::::::::::::::::::::::::::::::",
"::::::::::::::::::::::::::::::::::::::::::::::::::::::::::::::::::::::::::::::::::::::::::::::::",
"::::::::::::::::::::::::::::::::::::::::::::::::::::::::::::::::::::::::::::::::::::::::::::::::",
"::::::::::::::::::::::::::::::::::::::::::::::::::::::::::::::::::::::::::::::::::::::::::::::::",
"::::::::::::::::::::::::::::::::::::::::::::::::::::::::::::::::::::::::::::::::::::::::::::::::",
"::::::::::::::::::::::::::::::::::::::::::::::::::::::::::::::::::::::::::::::::::::::::::::::::",
"::::::::::::::::::::::::::::::::::::::::::::::::::::::::::::::::::::::::::::::::::::::::::::::::",
"::::::::::::::::::::::::::::::::::::::::::::::::::::::::::::::::::::::::::::::::::::::::::::::::",
"::::::::::::::::::::::::::::::::::::::::::::::::::::::::::::::::::::::::::::::::::::::::::::::::",
"::::::::::::::::::::::::::::::::::::::::::::::::::::::::::::::::::::::::::::::::::::::::::::::::",
"::::::::::::::::::::::::::::::::::::::::::::::::::::::::::::::::::::::::::::::::::::::::::::::::",
"::::::::::::::::::::::::::::::::::::::::::::::::::::::::::::::::::::::::::::::::::::::::::::::::",
"::::::::::::::::::::::::::::::::::::::::::::::::::::::::::::::::::::::::::::::::::::::::::::::::",
"::::::::::::::::::::::::::::::::::::::::::::::::::::::::::::::::::::::::::::::::::::::::::::::::",
"::::::::::::::::::::::::::::::::::::::::::::::::::::::::::::::::::::::::::::::::::::::::::::::::",
"::::::::::::::::::::::::::::::::::::::::::::::::::::::::::::::::::::::::::::::::::::::::::::::::",
"::::::::::::::::::::::::::::::::::::::::::::::::::::::::::::::::::::::::::::::::::::::::::::::::",
"::::::::::::::::::::::::::::::::::::::::::::::::::::::::::::::::::::::::::::::::::::::::::::::::",
"::::::::::::::::::::::::::::::::::::::::::::::::::::::::::::::::::::::::::::::::::::::::::::::::",
"::::::::::::::::::::::::::::::::::::::::::::::::::::::::::::::::::::::::::::::::::::::::::::::::",
"::::::::::::::::::::::::::::::::::::::::::::::::::::::::::::::::::::::::::::::::::::::::::::::::",
"::::::::::::::::::::::::::::::::::::::::::::::::::::::::::::::::::::::::::::::::::::::::::::::::",
"::::::::::::::::::::::::::::::::::::::::::::::::::::::::::::::::::::::::::::::::::::::::::::::::",
"::::::::::::::::::::::::::::::::::::::::::::::::::::::::::::::::::::::::::::::::::::::::::::::::",
"::::::::::::::::::::::::::::::::::::::::::::::::::::::::::::::::::::::::::::::::::::::::::::::::",
"::::::::::::::::::::::::::::::::::::::::::::::::::::::::::::::::::::::::::::::::::::::::::::::::",
"::::::::::::::::::::::::::::::::::::::::::::::::::::::::::::::::::::::::::::::::::::::::::::::::",
"::::::::::::::::::::::::::::::::::::::::::::::::::::::::::::::::::::::::::::::::::::::::::::::::",
"::::::::::::::::::::::::::::::::::::::::::::::::::::::::::::::::::::::::::::::::::::::::::::::::",
"::::::::::::::::::::::::::::::::::::::::::::::::::::::::::::::::::::::::::::::::::::::::::::::::",
"::::::::::::::::::::::::::::::::::::::::::::::::::::::::::::::::::::::::::::::::::::::::::::::>>",
"::::::::::::::::::::::::::::::::::::::::::::::::::::::::::::::::::::::::::::::::::::::::::::::::",
"::::::::::::::::::::::::::::::::::::::::::::::::::::::::::::::::::::::::::::::::::::::::::::::::",
"::::::::::::::::::::::::::::::::::::::::::::::::::::::::::::::::::::::::::::::::::::::::::::::::",
"::::::::::::::::::::::::::::::::::::::::::::::::::::::::::::::::::::::::::::::::::::::::::::::::",
"::::::::::::::::::::::::::::::::::::::::::::::::::::::::::::::::::::::::::::::::::::::::::::::::",
"::::::::::::::::::::::::::::::::::::::::::::::::::::::::::::::::::::::::::::::::::::::::::::::::",
"::::::::::::::::::::::::::::::::::::::::::::::::::::::::::::::::::::::::::::::::::::::::::::::::",
"::::::::::::::::::::::::::::::::::::::::::::::::::::::::::::::::::::::::::::::::::::::::::::::::",
"::::::::::::::::::::::::::::::::::::::::::::::::::::::::::::::::::::::::::::::::::::::::::::::::",
"::::::::::::::::::::::::::::::::::::::::::::::::::::::::::::::::::::::::::::::::::::::::::::::::",
"::::::::::::::::::::::::::::::::::::::::::::::::::::::::::::::::::::::::::::::::::::::::::::::::",
"::::::::::::::::::::::::::::::::::::::::::::::::::::::::::::::::::::::::::::::::::::::::::::::::",
"::::::::::::::::::::::::::::::::::::::::::::::::::::::::::::::::::::::::::::::::::::::::::::::::",
"::::::::::::::::::::::::::::::::::::::::::::::::::::::::::::::::::::::::::::::::::::::::::::::::",
"::::::::::::::::::::::::::::::::::::::::::::::::::::::::::::::::::::::::::::::::::::::::::::::::",
"::::::::::::::::::::::::::::::::::::::::::::::::::::::::::::::::::::::::::::::::::::::::::::::::",
":::::::::::::::::::::::::::::::::::::::::::::::::::::::::::::::::::::::::::::::::::::::::::::::;",
"*:::::::::::::::::::::::::::::::::::::::::::::::::::::::::::::::::::::::::::::::::::::::::::::;*",
"@:::::::::::::::::::::::::::::::::::::::::::::::::::::::::::::::::::::::::::::::::::::::::::;;;@",
"+-::::::::::::::::::::::::::::::::::::::::::::::::::::::::::::::::::::::::::::::::::::::::::;--+",
" +-->:::::::::::::::::::::::::::::::::::::::::::::::::::::::::::::::::::::::::::::::::::>;;;;-@ ",
"  *->>:::::::::::::::::::::::::::::::::::::::::::::::::::::::::::::::::::::::::::::::::::;;;>*  ",
"   @%>>>::::::::::::::::::::::::::::::>:::::::::::::::::::::::>>::::::::::::::>>::::::::::;;@   ",
"8   +$%>::::::::::::::::::::::::::::::>>:::::::::::::::::::::>>>:::::::::::::>>>::::::::-*++   8",
"88                                                                                            88",
"88                                                                                            88",
"8888                                                                                        8888",
"88888                                                                                      88888",
"888888888888888888888888888888888888888888888888888888888888888888888888888888888888888888888888",
"888888888888888888888888888888888888888888888888888888888888888888888888888888888888888888888888",
"888888888888888888888888888888888888888888888888888888888888888888888888888888888888888888888888",
"888888888888888888888888888888888888888888888888888888888888888888888888888888888888888888888888"
};
