/* XPM */
static const char *headphone[] = {
/* columns rows colors chars-per-pixel */
"96 96 65 1 ",
"  c #2C3E4F",
". c #2D3E4F",
"X c #2C3D50",
"o c #2C3E50",
"O c #2D3E50",
"+ c #2C3F50",
"@ c #2C3E51",
"# c #2D3E51",
"$ c #2C3F51",
"% c #2D3F51",
"& c #2C3F52",
"* c #2D3F52",
"= c #2D4052",
"- c #2E4052",
"; c #2E4152",
": c #2E4053",
"> c #2E4153",
", c #2E4154",
"< c #2F4154",
"1 c #2F4155",
"2 c #2E4254",
"3 c #2F4255",
"4 c #2F4355",
"5 c #2F4157",
"6 c #2F4256",
"7 c #2E4356",
"8 c #2F4356",
"9 c #304255",
"0 c #304355",
"q c #304356",
"w c #304357",
"e c #304457",
"r c #304458",
"t c #314558",
"y c #314559",
"u c #314659",
"i c #32455A",
"p c #31465A",
"a c #32465A",
"s c #32465B",
"d c #32475C",
"f c #33475C",
"g c #33485C",
"h c #33485D",
"j c #33495D",
"k c #33495E",
"l c #33495F",
"z c #34485D",
"x c #34495D",
"c c #344A5D",
"v c #34485E",
"b c #34495E",
"n c #35495E",
"m c #34495F",
"M c #344A5E",
"N c #40505E",
"B c #E67E22",
"V c #EA861E",
"C c #F39C12",
"Z c #E68021",
"A c #E78121",
"S c #F1C40F",
"D c #6D7B80",
"F c #7F8C8D",
"G c None",
/* pixels */
"GGGGGGGGGGGGGGGGGGGGGGGGGGGGGGGGGGGGGGMbbbbbbbbbbbbbbbbbbbGGGGGGGGGGGGGGGGGGGGGGGGGGGGGGGGGGGGGG",
"GGGGGGGGGGGGGGGGGGGGGGGGGGGGGGGGGGbbbbbbbbbbbbbbbbbbbbbbbbbbbbGGGGGGGGGGGGGGGGGGGGGGGGGGGGGGGGGG",
"GGGGGGGGGGGGGGGGGGGGGGGGGGGGGGGbbbbbbbbbbbbbbbbbbbbbbbbbbbbbbbbbbGGGGGGGGGGGGGGGGGGGGGGGGGGGGGGG",
"GGGGGGGGGGGGGGGGGGGGGGGGGGGGGbbbbbbbbbbbbbbbbbbbbbbbbbbbbbbbbbbbbbbGGGGGGGGGGGGGGGGGGGGGGGGGGGGG",
"GGGGGGGGGGGGGGGGGGGGGGGGGGGbbbbbbbbbbbbbbbbbbbbbbbbbbbbbbbbbbbbbbbbbbGGGGGGGGGGGGGGGGGGGGGGGGGGG",
"GGGGGGGGGGGGGGGGGGGGGGGGGbbbbbbbbbbbbbbbbbbbbbbbbbbbbbbbbbbbbbbbbbbbbbbGGGGGGGGGGGGGGGGGGGGGGGGG",
"GGGGGGGGGGGGGGGGGGGGGGGGbbbbbbbbbbbbbbb33r333@33333@333a0abbbbbbbbbbbbbbGGGGGGGGGGGGGGGGGGGGGGGG",
"GGGGGGGGGGGGGGGGGGGGGGbbbbbbbbbbbb333  =@      @ @    @@ @@@3abbbbbbbbbbbbGGGGGGGGGGGGGGGGGGGGGG",
"GGGGGGGGGGGGGGGGGGGGGbbbbbbbbbba3=  @ @ @ @ @ @  @ @ @ @@ @ @ @3abbbbbbbbbbGGGGGGGGGGGGGGGGGGGGG",
"GGGGGGGGGGGGGGGGGGGGbbbbbbbbb33@  @  @ @ @ @@@ @@ @@@ @@ @ @ @  @@3bbbbbbbbbGGGGGGGGGGGGGGGGGGGG",
"GGGGGGGGGGGGGGGGGGGbbbbbbbbr3 @ @  @@ @33303GGGGGGGG303333   @@  @ 3rbbbbbbbbGGGGGGGGGGGGGGGGGGG",
"GGGGGGGGGGGGGGGGGGbbbbbbba@       @33GGGGGGGGGGGGGGGGGGGGGG33@ @   @@3abbbbbbbGGGGGGGGGGGGGGGGGG",
"GGGGGGGGGGGGGGGGGbbbbbbb3 @ @ @ 33GGGGGGGGGGGGGGGGGGGGGGGGGGGG0@@ @ @ @0bbbbbbbGGGGGGGGGGGGGGGGG",
"GGGGGGGGGGGGGGGGbbbbbba@@@ @@@33GGGGGGGGGGGGGGGGGGGGGGGGGGGGGGGG33 @ @  30bbbbbbGGGGGGGGGGGGGGGG",
"GGGGGGGGGGGGGGGbbbbbb3 @ @@ @3GGGGGGGGGGGGGGGGGGGGGGGGGGGGGGGGGGGG3@@  @ @0bbbbbbGGGGGGGGGGGGGGG",
"GGGGGGGGGGGGGGbbbbbb3@@ @ @3GGGGGGGGGGGGGGGGGGGGGGGGGGGGGGGGGGGGGGGG3@@ @@@3bbbbbbGGGGGGGGGGGGGG",
"GGGGGGGGGGGGGbbbbbb3 @ @ @GGGGGGGGGGGGGGGGGGGGGGGGGGGGGGGGGGGGGGGGGGGG@ @ @ 3bbbbbbGGGGGGGGGGGGG",
"GGGGGGGGGGGGbbbbba@@  @ 3GGGGGGGGGGGGGGGGGGGGGGGGGGGGGGGGGGGGGGGGGGGGGG3 @ @@@abbbbbGGGGGGGGGGGG",
"GGGGGGGGGGGGbbbbb@   @ 3GGGGGGGGGGGGGGGGGGGGGGGGGGGGGGGGGGGGGGGGGGGGGGGG3@@  @@bbbbbGGGGGGGGGGGG",
"GGGGGGGGGGGbbbbb3  @@@3GGGGGGGGGGGGGGGGGGGGGGGGGGGGGGGGGGGGGGGGGGGGGGGGGG3 @@ @@bbbbbGGGGGGGGGGG",
"GGGGGGGGGGbbbba3 @   3GGGGGGGGGGGGGGGGGGGGGGGGGGGGGGGGGGGGGGGGGGGGGGGGGGGG3@ @@ 3bbbbbGGGGGGGGGG",
"GGGGGGGGGGbbbb3@@ @ 3GGGGGGGGGGGGGGGGGGGGGGGGGGGGGGGGGGGGGGGGGGGGGGGGGGGGGG3@  @ 3abbbGGGGGGGGGG",
"GGGGGGGGGbbbb3@  @ 3GGGGGGGGGGGGGGGGGGGGGGGGGGGGGGGGGGGGGGGGGGGGGGGGGGGGGGGG3    @0bbbbGGGGGGGGG",
"GGGGGGGGbbbba@ @@ 3GGGGGGGGGGGGGGGGGGGGGGGGGGGGGGGGGGGGGGGGGGGGGGGGGGGGGGGGGG3 @@@@abbbbGGGGGGGG",
"GGGGGGGGbbbb3    @GGGGGGGGGGGGGGGGGGGGGGGGGGGGGGGGGGGGGGGGGGGGGGGGGGGGGGGGGGGG3@ @@@bbbbGGGGGGGG",
"GGGGGGGGbbb3@   @3GGGGGGGGGGGGGGGGGGGGGGGGGGGGGGGGGGGGGGGGGGGGGGGGGGGGGGGGGGGG3@@  @3bbbGGGGGGGG",
"GGGGGGGbbba  @ @3GGGGGGGGGGGGGGGGGGGGGGGGGGGGGGGGGGGGGGGGGGGGGGGGGGGGGGGGGGGGGG3    @3bbbGGGGGGG",
"GGGGGGGbbb@ @ @@GGGGGGGGGGGGGGGGGGGGGGGGGGGGGGGGGGGGGGGGGGGGGGGGGGGGGGGGGGGGGGGG3  @@3abbGGGGGGG",
"GGGGGGbbb3 @ @ 3GGGGGGGGGGGGGGGGGGGGGGGGGGGGGGGGGGGGGGGGGGGGGGGGGGGGGGGGGGGGGGGG3@@  @3bbbGGGGGG",
"GGGGGGbba @ @ 3GGGGGGGGGGGGGGGGGGGGGGGGGGGGGGGGGGGGGGGGGGGGGGGGGGGGGGGGGGGGGGGGGG@ @@ @abbGGGGGG",
"GGGGGbbb3@ @ @3GGGGGGGGGGGGGGGGGGGGGGGGGGGGGGGGGGGGGGGGGGGGGGGGGGGGGGGGGGGGGGGGGG3   @ 3bbbGGGGG",
"GGGGGbba@ @ @@GGGGGGGGGGGGGGGGGGGGGGGGGGGGGGGGGGGGGGGGGGGGGGGGGGGGGGGGGGGGGGGGGGGG3 @ @ abbGGGGG",
"GGGGGGa3 @ @@GGGGGGGGGGGGGGGGGGGGGGGGGGGGGGGGGGGGGGGGGGGGGGGGGGGGGGGGGGGGGGGGGGGGGG@ @ @3aGGGGGG",
"GGGGGGa @ @ 3GGGGGGGGGGGGGGGGGGGGGGGGGGGGGGGGGGGGGGGGGGGGGGGGGGGGGGGGGGGGGGGGGGGGGG3@ @  aGGGGGG",
"GGGGGGa@ @  GGGGGGGGGGGGGGGGGGGGGGGGGGGGGGGGGGGGGGGGGGGGGGGGGGGGGGGGGGGGGGGGGGGGGGGG @ @@aGGGGGG",
"GGGGGGGG3@33GGGGGGGGGGGGGGGGGGGGGGGGGGGGGGGGGGGGGGGGGGGGGGGGGGGGGGGGGGGGGGGGGGGGGGGG@ @ GGGGGGGG",
"GGGGGGGG @ @GGGGGGGGGGGGGGGGGGGGGGGGGGGGGGGGGGGGGGGGGGGGGGGGGGGGGGGGGGGGGGGGGGGGGGGG @ @GGGGGGGG",
"GGGGGGGG@ @ GGGGGGGGGGGGGGGGGGGGGGGGGGGGGGGGGGGGGGGGGGGGGGGGGGGGGGGGGGGGGGGGGGGGGGGG@ @ GGGGGGGG",
"GGGGGGGG @ @GGGGGGGGGGGGGGGGGGGGGGGGGGGGGGGGGGGGGGGGGGGGGGGGGGGGGGGGGGGGGGGGGGGGGGGG @ @GGGGGGGG",
"GGGGGGGG@ @ GGGGGGGGGGGGGGGGGGGGGGGGGGGGGGGGGGGGGGGGGGGGGGGGGGGGGGGGGGGGGGGGGGGGGGGG@ @ GGGGGGGG",
"GGGGGGGG@ @ GGGGGGGGGGGGGGGGGGGGGGGGGGGGGGGGGGGGGGGGGGGGGGGGGGGGGGGGGGGGGGGGGGGGGGGG@ @ GGGGGGGG",
"GGGGGG@@ @ @ @GGGGGGGGGGGGGGGGGGGGGGGGGGGGGGGGGGGGGGGGGGGGGGGGGGGGGGGGGGGGGGGGGGGG @ @ @@ GGGGGG",
"GGGGG3 @@ @ @ 3GGGGGGGGGGGGGGGGGGGGGGGGGGGGGGGGGGGGGGGGGGGGGGGGGGGGGGGGGGGGGGGGGG=@ @ @ @ 3GGGGG",
"GGGGG @  @ @ @ GGGGGGGGGGGGGGGGGGGGGGGGGGGGGGGGGGGGGGGGGGGGGGGGGGGGGGGGGGGGGGGGGG@ @ @ @ @ GGGGG",
"GGGG @ @NDDN@ @ GGGGGGGGSSSSSSSSbbbbGGGGGGGGGGGGGGGGGGGGGGGGbbbbSSSSSSSSGGGGGGGG@ @ NDDN@ @ GGGG",
"GGGG@ @ DFFD @ @GGGGGGGGSSSSSSSSbbbbbbGGGGGGGGGGGGGGGGGGGGbbbbbbSSSSSSSSGGGGGGGG @ @DFFD @ @GGGG",
"GGGG @ @DFFD@ @ GGGGGGGGSSSSSSSSbbbbbbbGGGGGGGGGGGGGGGGGGbbbbbbbSSSSSSSSGGGGGGGG@ @ DFFD@ @ GGGG",
"GGGG@ @ NDDN @ @GGGGGGGGSSSSSSSSbbbbbbbGGGGGGGGGGGGGGGGGGbbbbbbbSSSSSSSSGGGGGGGG @ @NDDN @ @GGGG",
"GGGGG@ @ @ @ @ GGGGGGGCCSSSSSSSSbbbbbbbbGGGGGGGGGGGGGGGGbbbbbbbbSSSSSSSSCCGGGGGGG @ @ @ @ @GGGGG",
"GGGGG@@ @ @ @ @GGGGGGCCCSSSSSSSSbbbbbbbbGGGGGGGGGGGGGGGGbbbbbbbbSSSSSSSSCCCGGGGGG@ @ @ @ @ GGGGG",
"GGGGGG @ @ @@   GGGGCCCCSSSSSSSSbbbbbbbbGGGGGGGGGGGGGGGGbbbbbbbbSSSSSSSSCCCCGGGG @@ @ @ @ GGGGGG",
"GGGGGGGG@ @  @ @GGGGCCCCSSSSSSSSbbbbbbbbGGGGGGGGGGGGGGGGbbbbbbbbSSSSSSSSCCCCGGGG@  @ @ @GGGGGGGG",
"GGGGGGGGGGG @ @ .GGGCCCCSSSSSSSSbbbbbbbbGGGGGGGGGGGGGGGGbbbbbbbbSSSSSSSSCCCCGGG  @ @ GGGGGGGGGGG",
"GGGGGGGGGGG@ @ @@GGGCCCCSSSSSSSSbbbbbbbbGGGGGGGGGGGGGGGGbbbbbbbbSSSSSSSSCCCCGGG@@ @ @GGGGGGGGGGG",
"GGGGGGGGGGGG@ @ @ GGCCCCSSSSSSSSbbbbbbbbGGGGGGGGGGGGGGGGbbbbbbbbSSSSSSSSCCCCGG@  @ @GGGGGGGGGGGG",
"GGGGGGGGGGGG @ @ @GGCCCCSSSSSSSSbbbbbbbbGGGGGGGGGGGGGGGGbbbbbbbbSSSSSSSSCCCCGG @@ @ GGGGGGGGGGGG",
"GGGGGGGGGGGGG@ @@ @GCCCCSSSSSSSSbbbbbbbbGGGGGGGGGGGGGGGGbbbbbbbbSSSSSSSSCCCCG@ @ @@GGGGGGGGGGGGG",
"GGGGGGGGGGGGG@@  @  CCCCSSSSSSSSbbbbbbbbGGGGGGGGGGGGGGGGbbbbbbbbSSSSSSSSCCCC  @ @ @GGGGGGGGGGGGG",
"GGGGGGGGGGGGGG @@ @ CCCCSSSSSSSSbbbbbbbbGGGGGGGGGGGGGGGGbbbbbbbbSSSSSSSSCCCC@  @ @GGGGGGGGGGGGGG",
"GGGGGGGGGGGGGGG  @ @CCCCSSSSSSSSbbbbbbbbGGGGGGGGGGGGGGGGbbbbbbbbSSSSSSSSCCCC @@ @GGGGGGGGGGGGGGG",
"GGGGGGGGGGGGGGG@@ @ CCCCSSSSSSSSbbbbbbbbGGGGGGGGGGGGGGGGbbbbbbbbSSSSSSSSCCCC @ @@GGGGGGGGGGGGGGG",
"GGGGGGGGGGGGGGGG @ @CCCCSSSSSSSSbbbbbbbbGGGGGGGGGGGGGGGGbbbbbbbbSSSSSSSSCCCC@ @ GGGGGGGGGGGGGGGG",
"GGGGGGGGGGGGGGGG@ @ CCCCSSSSSSSSbbbbbbbbGGGGGGGGGGGGGGGGbbbbbbbbSSSSSSSSCCCC @ @GGGGGGGGGGGGGGGG",
"GGGGGGGGGGGGGGGGG@ @CCCCSSSSSSSSbbbbbbbbGGGGGGGGGGGGGGGGbbbbbbbbSSSSSSSSCCCC@ @GGGGGGGGGGGGGGGGG",
"GGGGGGGGGGGGGGGGG @ CCCCSSSSSSSSbbbbbbbbGGGGGGGGGGGGGGGGbbbbbbbbSSSSSSSSCCCC@  GGGGGGGGGGGGGGGGG",
"GGGGGGGGGGGGGGGGGG @CCCCSSSSSSSSbbbbbbbbGGGGGGGGGGGGGGGGbbbbbbbbSSSSSSSSCCCC @GGGGGGGGGGGGGGGGGG",
"GGGGGGGGGGGGGGGGGGG@CCCCSSSSSSSSbbbbbbbbGGGGGGGGGGGGGGGGbbbbbbbbSSSSSSSSCCCC@GGGGGGGGGGGGGGGGGGG",
"GGGGGGGGGGGGGGGGGGG CCCCSSSSSSSSbbbbbbbbGGGGGGGGGGGGGGGGbbbbbbbbSSSSSSSSCCCC GGGGGGGGGGGGGGGGGGG",
"GGGGGGGGGGGGGGGGGGGGBBBBCCCCCCCC@ @ @ @ GGGGGGGGGGGGGGGG@ @ @ @ CCCCCCCCBBBBGGGGGGGGGGGGGGGGGGGG",
"GGGGGGGGGGGGGGGGGGGGBBBBCCCCCCCC @ @ @ @GGGGGGGGGGGGGGGG @ @ @ @CCCCCCCCBBBBGGGGGGGGGGGGGGGGGGGG",
"GGGGGGGGGGGGGGGGGGGGBBBBCCCCCCCC@ @ @ @ GGGGGGGGGGGGGGGG@ @ @ @ CCCCCCCCBBBBGGGGGGGGGGGGGGGGGGGG",
"GGGGGGGGGGGGGGGGGGGGBBBBCCCCCCCC @ @ @ @GGGGGGGGGGGGGGGG @ @ @ @CCCCCCCCBBBBGGGGGGGGGGGGGGGGGGGG",
"GGGGGGGGGGGGGGGGGGGGBBBBCCCCCCCC@ @ @ @ GGGGGGGGGGGGGGGG@ @ @ @ CCCCCCCCBBBBGGGGGGGGGGGGGGGGGGGG",
"GGGGGGGGGGGGGGGGGGGGBBBBCCCCCCCC @ @ @ @GGGGGGGGGGGGGGGG @ @ @ @CCCCCCCCBBBBGGGGGGGGGGGGGGGGGGGG",
"GGGGGGGGGGGGGGGGGGGGBBBBCCCCCCCC@ @ @ @ GGGGGGGGGGGGGGGG@ @ @ @ CCCCCCCCBBBBGGGGGGGGGGGGGGGGGGGG",
"GGGGGGGGGGGGGGGGGGGGBBBBCCCCCCCC @ @ @ @GGGGGGGGGGGGGGGG @ @ @ @CCCCCCCCBBBBGGGGGGGGGGGGGGGGGGGG",
"GGGGGGGGGGGGGGGGGGGGBBBBCCCCCCCC@ @ @ @ GGGGGGGGGGGGGGGG@ @ @ @ CCCCCCCCBBBBGGGGGGGGGGGGGGGGGGGG",
"GGGGGGGGGGGGGGGGGGGGBBBBCCCCCCCC @ @ @ @GGGGGGGGGGGGGGGG @ @ @ @CCCCCCCCBBBBGGGGGGGGGGGGGGGGGGGG",
"GGGGGGGGGGGGGGGGGGGGBBBBCCCCCCCC@ @ @ @ GGGGGGGGGGGGGGGG@ @ @ @ CCCCCCCCBBBBGGGGGGGGGGGGGGGGGGGG",
"GGGGGGGGGGGGGGGGGGGGBBBBCCCCCCCC @ @ @ @GGGGGGGGGGGGGGGG @ @ @ @CCCCCCCCBBBBGGGGGGGGGGGGGGGGGGGG",
"GGGGGGGGGGGGGGGGGGGGBBBBCCCCCCCC @ @ @ @GGGGGGGGGGGGGGGG@ @ @ @ CCCCCCCCBBBBGGGGGGGGGGGGGGGGGGGG",
"GGGGGGGGGGGGGGGGGGGGBBBBCCCCCCCC@ @ @ @ GGGGGGGGGGGGGGGG @ @ @ @CCCCCCCCBBBBGGGGGGGGGGGGGGGGGGGG",
"GGGGGGGGGGGGGGGGGGGGBBBBCCCCCCCC @ @ @ @GGGGGGGGGGGGGGGG@ @ @ @ CCCCCCCCBBBBGGGGGGGGGGGGGGGGGGGG",
"GGGGGGGGGGGGGGGGGGGGBBBBCCCCCCCC@ @ @ @ GGGGGGGGGGGGGGGG @ @ @ @CCCCCCCCBBBBGGGGGGGGGGGGGGGGGGGG",
"GGGGGGGGGGGGGGGGGGGGABBBCCCCCCCC @ @ @ @GGGGGGGGGGGGGGGG@ @ @ @ CCCCCCCCBBBAGGGGGGGGGGGGGGGGGGGG",
"GGGGGGGGGGGGGGGGGGGGVBBBCCCCCCCC@ @ @ @ GGGGGGGGGGGGGGGG @ @ @ @CCCCCCCCBBBVGGGGGGGGGGGGGGGGGGGG",
"GGGGGGGGGGGGGGGGGGGGGABBCCCCCCCC @ @ @ @GGGGGGGGGGGGGGGG@ @ @ @ CCCCCCCCBBAGGGGGGGGGGGGGGGGGGGGG",
"GGGGGGGGGGGGGGGGGGGGGGVACCCCCCCC@ @ @  3GGGGGGGGGGGGGGGG3@ @ @ @CCCCCCCCAVGGGGGGGGGGGGGGGGGGGGGG",
"GGGGGGGGGGGGGGGGGGGGGGGGCCCCCCCC@ @ @  3GGGGGGGGGGGGGGGG3 @ @ @ CCCCCCCCGGGGGGGGGGGGGGGGGGGGGGGG",
"GGGGGGGGGGGGGGGGGGGGGGGGCCCCCCCC @ @ @3GGGGGGGGGGGGGGGGGG3 @ @ @CCCCCCCCGGGGGGGGGGGGGGGGGGGGGGGG",
"GGGGGGGGGGGGGGGGGGGGGGGGCCCCCCCC@   @3GGGGGGGGGGGGGGGGGGGG3@@ @ CCCCCCCCGGGGGGGGGGGGGGGGGGGGGGGG",
"GGGGGGGGGGGGGGGGGGGGGGGGCCCCCCCC @@33GGGGGGGGGGGGGGGGGGGGGG03  @CCCCCCCCGGGGGGGGGGGGGGGGGGGGGGGG",
"GGGGGGGGGGGGGGGGGGGGGGGGGGGGGGGGGGGGGGGGGGGGGGGGGGGGGGGGGGGGGGGGGGGGGGGGGGGGGGGGGGGGGGGGGGGGGGGG",
"GGGGGGGGGGGGGGGGGGGGGGGGGGGGGGGGGGGGGGGGGGGGGGGGGGGGGGGGGGGGGGGGGGGGGGGGGGGGGGGGGGGGGGGGGGGGGGGG",
"GGGGGGGGGGGGGGGGGGGGGGGGGGGGGGGGGGGGGGGGGGGGGGGGGGGGGGGGGGGGGGGGGGGGGGGGGGGGGGGGGGGGGGGGGGGGGGGG",
"GGGGGGGGGGGGGGGGGGGGGGGGGGGGGGGGGGGGGGGGGGGGGGGGGGGGGGGGGGGGGGGGGGGGGGGGGGGGGGGGGGGGGGGGGGGGGGGG"
};
