/* XPM */
static const char *institution[] = {
/* columns rows colors chars-per-pixel */
"96 96 17 1 ",
"  c #17A184",
". c #16A085",
"X c #16A186",
"o c #17A287",
"O c #17A68A",
"+ c #17A88B",
"@ c #18AC8F",
"# c #18AE91",
"$ c #19B899",
"% c #1ABB9B",
"& c #1ABC9B",
"* c #19BB9C",
"= c #1ABC9C",
"- c #1BBC9C",
"; c #1ABC9D",
": c #1BBC9D",
"> c None",
/* pixels */
">>>>>>>>>>>>>>>>>>>>>>>>>>>>>>>>>>>>>>>>>>>>>>>>>>>>>>>>>>>>>>>>>>>>>>>>>>>>>>>>>>>>>>>>>>>>>>>>",
">>>>>>>>>>>>>>>>>>>>>>>>>>>>>>>>>>>>>>>>>>>>>>>>>>>>>>>>>>>>>>>>>>>>>>>>>>>>>>>>>>>>>>>>>>>>>>>>",
">>>>>>>>>>>>>>>>>>>>>>>>>>>>>>>>>>>>>>>>>>>>>>>>>>>>>>>>>>>>>>>>>>>>>>>>>>>>>>>>>>>>>>>>>>>>>>>>",
">>>>>>>>>>>>>>>>>>>>>>>>>>>>>>>>>>>>>>>>>>>>>>>>>>>>>>>>>>>>>>>>>>>>>>>>>>>>>>>>>>>>>>>>>>>>>>>>",
">>>>>>>>>>>>>>>>>>>>>>>>>>>>>>>>>>>>>>>>>>>>>>>==>>>>>>>>>>>>>>>>>>>>>>>>>>>>>>>>>>>>>>>>>>>>>>>",
">>>>>>>>>>>>>>>>>>>>>>>>>>>>>>>>>>>>>>>>>>>>========>>>>>>>>>>>>>>>>>>>>>>>>>>>>>>>>>>>>>>>>>>>>",
">>>>>>>>>>>>>>>>>>>>>>>>>>>>>>>>>>>>>>>>>>============>>>>>>>>>>>>>>>>>>>>>>>>>>>>>>>>>>>>>>>>>>",
">>>>>>>>>>>>>>>>>>>>>>>>>>>>>>>>>>>>>>>>================>>>>>>>>>>>>>>>>>>>>>>>>>>>>>>>>>>>>>>>>",
">>>>>>>>>>>>>>>>>>>>>>>>>>>>>>>>>>>>>======================>>>>>>>>>>>>>>>>>>>>>>>>>>>>>>>>>>>>>",
">>>>>>>>>>>>>>>>>>>>>>>>>>>>>>>>>>>==========================>>>>>>>>>>>>>>>>>>>>>>>>>>>>>>>>>>>",
">>>>>>>>>>>>>>>>>>>>>>>>>>>>>>>>================================>>>>>>>>>>>>>>>>>>>>>>>>>>>>>>>>",
">>>>>>>>>>>>>>>>>>>>>>>>>>>>>>====================================>>>>>>>>>>>>>>>>>>>>>>>>>>>>>>",
">>>>>>>>>>>>>>>>>>>>>>>>>>>>========================================>>>>>>>>>>>>>>>>>>>>>>>>>>>>",
">>>>>>>>>>>>>>>>>>>>>>>>>==============================================>>>>>>>>>>>>>>>>>>>>>>>>>",
">>>>>>>>>>>>>>>>>>>>>>>==================================================>>>>>>>>>>>>>>>>>>>>>>>",
">>>>>>>>>>>>>>>>>>>>========================================================>>>>>>>>>>>>>>>>>>>>",
">>>>>>>>>>>>>>>>>>============================================================>>>>>>>>>>>>>>>>>>",
">>>>>>>>>>>>>>>>================================================================>>>>>>>>>>>>>>>>",
">>>>>>>>>>>>>======================================================================>>>>>>>>>>>>>",
">>>>>>>>>>>==========================================================================>>>>>>>>>>>",
">>>>>>>>================================================================================>>>>>>>>",
">>>>>>====================================================================================>>>>>>",
">>>>========================================================================================>>>>",
">==============================================================================================>",
"================================================================================================",
"================================================================================================",
"================================================================================================",
"================================================================================================",
">>>>>>>>>>.................................................. ....................... .>>>>>>>>>>",
">>>>>>>>>>. ........................................................................X.>>>>>>>>>>",
">>>>>>>>>>> ........................................................................ >>>>>>>>>>>",
">>>>>>>>>>>>....................................................................oo#=>>>>>>>>>>>>",
">>>>>>>>>>>>.....X======>>>>>>>>......======>>>>>>>>......======>>>>>>>> .....======>>>>>>>>>>>>",
">>>>>>>>>>>>..... ======>>>>>>>>......======>>>>>>>>......======>>>>>>>>X.....======>>>>>>>>>>>>",
">>>>>>>>>>>>......======>>>>>>>>......======>>>>>>>>......======>>>>>>>>......======>>>>>>>>>>>>",
">>>>>>>>>>>>......======>>>>>>>>......======>>>>>>>>......======>>>>>>>>......======>>>>>>>>>>>>",
">>>>>>>>>>>>......======>>>>>>>>......======>>>>>>>> .....======>>>>>>>>......======>>>>>>>>>>>>",
">>>>>>>>>>>>......======>>>>>>>>......======>>>>>>>>......======>>>>>>>>......======>>>>>>>>>>>>",
">>>>>>>>>>>>......======>>>>>>>>......======>>>>>>>>......======>>>>>>>>......======>>>>>>>>>>>>",
">>>>>>>>>>>>......======>>>>>>>>......======>>>>>>>>......======>>>>>>>>......======>>>>>>>>>>>>",
">>>>>>>>>>>> X....======>>>>>>>>......======>>>>>>>>......======>>>>>>>>......======>>>>>>>>>>>>",
">>>>>>>>>>>>......======>>>>>>>>......======>>>>>>>>......======>>>>>>>>......======>>>>>>>>>>>>",
">>>>>>>>>>>>......======>>>>>>>>......======>>>>>>>>......======>>>>>>>>......======>>>>>>>>>>>>",
">>>>>>>>>>>>......======>>>>>>>>......======>>>>>>>>......======>>>>>>>>......======>>>>>>>>>>>>",
">>>>>>>>>>>>......======>>>>>>>>......======>>>>>>>>......======>>>>>>>>......======>>>>>>>>>>>>",
">>>>>>>>>>>>......======>>>>>>>>......======>>>>>>>>......======>>>>>>>>......======>>>>>>>>>>>>",
">>>>>>>>>>>>......======>>>>>>>>......======>>>>>>>>......======>>>>>>>>......======>>>>>>>>>>>>",
">>>>>>>>>>>>......======>>>>>>>>......======>>>>>>>>......======>>>>>>>>......======>>>>>>>>>>>>",
">>>>>>>>>>>> .....======>>>>>>>>......======>>>>>>>>......======>>>>>>>> .....======>>>>>>>>>>>>",
">>>>>>>>>>>>X.....======>>>>>>>>......======>>>>>>>>......======>>>>>>>>X.....======>>>>>>>>>>>>",
">>>>>>>>>>>>......======>>>>>>>>......======>>>>>>>>......======>>>>>>>>......======>>>>>>>>>>>>",
">>>>>>>>>>>>......======>>>>>>>>......======>>>>>>>>......======>>>>>>>>......======>>>>>>>>>>>>",
">>>>>>>>>>>>......======>>>>>>>>......======>>>>>>>> .....======>>>>>>>>......======>>>>>>>>>>>>",
">>>>>>>>>>>>......======>>>>>>>>......======>>>>>>>>......======>>>>>>>>......======>>>>>>>>>>>>",
">>>>>>>>>>>>......======>>>>>>>>......======>>>>>>>>......======>>>>>>>>......======>>>>>>>>>>>>",
">>>>>>>>>>>>......======>>>>>>>>....X ======>>>>>>>>......======>>>>>>>>......======>>>>>>>>>>>>",
">>>>>>>>>>>> .....======>>>>>>>>......======>>>>>>>>......======>>>>>>>>......======>>>>>>>>>>>>",
">>>>>>>>>>>>X.....======>>>>>>>>......======>>>>>>>>......======>>>>>>>>......======>>>>>>>>>>>>",
">>>>>>>>>>>>......======>>>>>>>>......======>>>>>>>>......======>>>>>>>>......======>>>>>>>>>>>>",
">>>>>>>>>>>>......======>>>>>>>>......======>>>>>>>>......======>>>>>>>>......======>>>>>>>>>>>>",
">>>>>>>>>>>>......======>>>>>>>>......======>>>>>>>>......======>>>>>>>>......======>>>>>>>>>>>>",
">>>>>>>>>>>>......======>>>>>>>>......======>>>>>>>>......======>>>>>>>>......======>>>>>>>>>>>>",
">>>>>>>>>>>>......======>>>>>>>>......======>>>>>>>>......======>>>>>>>>......======>>>>>>>>>>>>",
">>>>>>>>>>>>....X ======>>>>>>>>......======>>>>>>>>......======>>>>>>>>....X ======>>>>>>>>>>>>",
">>>>>>>>>>>> X....======>>>>>>>>......======>>>>>>>> .....======>>>>>>>>......======>>>>>>>>>>>>",
">>>>>>>>>>>>......======>>>>>>>>......======>>>>>>>>X.....======>>>>>>>>......======>>>>>>>>>>>>",
">>>>>>>>>>>>......======>>>>>>>>......======>>>>>>>>......======>>>>>>>>......======>>>>>>>>>>>>",
">>>>>>>>>>>>......======>>>>>>>>......======>>>>>>>>......======>>>>>>>>......======>>>>>>>>>>>>",
">>>>>>>>>>>>......======>>>>>>>>......======>>>>>>>>......======>>>>>>>>......======>>>>>>>>>>>>",
">>>>>>>>>>>>......======>>>>>>>>......======>>>>>>>>......======>>>>>>>>......======>>>>>>>>>>>>",
">>>>>>>>>>>>......======>>>>>>>>......======>>>>>>>>......======>>>>>>>>......======>>>>>>>>>>>>",
">>>>>>>>>>>>......======>>>>>>>>......======>>>>>>>>......======>>>>>>>>......======>>>>>>>>>>>>",
">>>>>>>>>>>>......======>>>>>>>>......======>>>>>>>>......======>>>>>>>> .....======>>>>>>>>>>>>",
">>>>>>>>>>>>......======>>>>>>>>......======>>>>>>>>......======>>>>>>>>X.....======>>>>>>>>>>>>",
">>>>>>>>>>>>......======>>>>>>>>......======>>>>>>>>......======>>>>>>>>......======>>>>>>>>>>>>",
">>>>>>>>>>>>......======>>>>>>>>......======>>>>>>>>......======>>>>>>>>......======>>>>>>>>>>>>",
">>>>>>>>>>>> X.............. ........... ....... X.............. X..............oo#=>>>>>>>>>>>>",
">>>>>>>>>>>>................X...........X....................................... X.o>>>>>>>>>>>>",
">>>>>>>>>> .......................................................................... >>>>>>>>>>",
">>>>>>>>>> X........................................................................X >>>>>>>>>>",
">>>>>======================================================================================>>>>>",
">>>>========================================================================================>>>>",
">>============================================================================================>>",
">>============================================================================================>>",
">==============================================================================================>",
"================================================================================================",
"================================================================================================",
"================================================================================================",
"................................................................................................",
"................................................................................................",
"...........X.......................X............................................................",
"........... ..........X ........... ........... ........... ............... ........... ........",
">>>>>>>>>>>>>>>>>>>>>>>>>>>>>>>>>>>>>>>>>>>>>>>>>>>>>>>>>>>>>>>>>>>>>>>>>>>>>>>>>>>>>>>>>>>>>>>>",
">>>>>>>>>>>>>>>>>>>>>>>>>>>>>>>>>>>>>>>>>>>>>>>>>>>>>>>>>>>>>>>>>>>>>>>>>>>>>>>>>>>>>>>>>>>>>>>>",
">>>>>>>>>>>>>>>>>>>>>>>>>>>>>>>>>>>>>>>>>>>>>>>>>>>>>>>>>>>>>>>>>>>>>>>>>>>>>>>>>>>>>>>>>>>>>>>>",
">>>>>>>>>>>>>>>>>>>>>>>>>>>>>>>>>>>>>>>>>>>>>>>>>>>>>>>>>>>>>>>>>>>>>>>>>>>>>>>>>>>>>>>>>>>>>>>>"
};
