/* XPM */
static const char *light_bulb[] = {
/* columns rows colors chars-per-pixel */
"96 96 54 1 ",
"  c #E67E22",
". c #E8831F",
"X c #EB8C1A",
"o c #EC8D1A",
"O c #ED8D1A",
"+ c #E8891E",
"@ c #EB9E19",
"# c #F19715",
"$ c #F39C12",
"% c #F1B70F",
"& c #F2B70F",
"* c #F1B80F",
"= c #F1BA0F",
"- c #F1BB0F",
"; c #F2BC0F",
": c #F2BD0F",
"> c #F1BF0F",
", c #F2BE0F",
"< c #EBA118",
"1 c #ECA119",
"2 c #EFB913",
"3 c #F3B311",
"4 c #F1B510",
"5 c #F1B411",
"6 c #F2B410",
"7 c #F2B510",
"8 c #F2B411",
"9 c #F1B610",
"0 c #F2B610",
"q c #F2B710",
"w c #F1B910",
"e c #F2B810",
"r c #F2B910",
"t c #F1BB10",
"y c #F2BA10",
"u c #F2BB10",
"i c #F1BD10",
"p c #F2BC10",
"a c #F1BE10",
"s c #F1BF10",
"d c #F1C10F",
"f c #F1C20F",
"g c #F1C30F",
"h c #F2C20F",
"j c #F1C40F",
"k c #F1C010",
"l c #F1C110",
"z c #7F8C8D",
"x c #808B8D",
"c c #808C8C",
"v c #808C8D",
"b c #95A5A6",
"n c #BDC3C7",
"m c None",
/* pixels */
"mmmmmmmmmmmmmmmmmmmmmmmmmmmmmmmmmmmmmmmmmmmmmmmmmmmmmmmmmmmmmmmmmmmmmmmmmmmmmmmmmmmmmmmmmmmmmmmm",
"mmmmmmmmmmmmmmmmmmmmmmmmmmmmmmmmmmmmmmmmmmmmmmmmmmmmmmmmmmmmmmmmmmmmmmmmmmmmmmmmmmmmmmmmmmmmmmmm",
"mmmmmmmmmmmmmmmmmmmmmmmmmmmmmmmmmmmmmmmmmmmmmmmmmmmmmmmmmmmmmmmmmmmmmmmmmmmmmmmmmmmmmmmmmmmmmmmm",
"mmmmmmmmmmmmmmmmmmmmmmmmmmmmmmmmmmmmmmmmmmmmmmmmmmmmmmmmmmmmmmmmmmmmmmmmmmmmmmmmmmmmmmmmmmmmmmmm",
"mmmmmmmmmmmmmmmmmmmmmmmmmmmmmmmmmmmmmmmmmmmmmmmmmmmmmmmmmmmmmmmmmmmmmmmmmmmmmmmmmmmmmmmmmmmmmmmm",
"mmmmmmmmmmmmmmmmmmmmmmmmmmmmmmmmmmmmmmmmmmmmmmmmmmmmmmmmmmmmmmmmmmmmmmmmmmmmmmmmmmmmmmmmmmmmmmmm",
"mmmmmmmmmmmmmmmmmmmmmmmmmmmmmmmmmmmmmmmmmmmmmmmmmmmmmmmmmmmmmmmmmmmmmmmmmmmmmmmmmmmmmmmmmmmmmmmm",
"mmmmmmmmmmmmmmmmmmmmmmmmmmmmmmmmmmmmmmmmmmmmmmmmmmmmmmmmmmmmmmmmmmmmmmmmmmmmmmmmmmmmmmmmmmmmmmmm",
"mmmmmmmmmmmmmmmmmmmmmmmmmmmmmmmmmmmmmmmmmmm$$$$$jss::8mmmmmmmmmmmmmmmmmmmmmmmmmmmmmmmmmmmmmmmmmm",
"mmmmmmmmmmmmmmmmmmmmmmmmmmmmmmmmmmmmmmmm$$$$$$$$jj:jjjj:&mmmmmmmmmmmmmmmmmmmmmmmmmmmmmmmmmmmmmmm",
"mmmmmmmmmmmmmmmmmmmmmmmmmmmmmmmmmmmmm$$$$$$$$$$$jjjjjjjjjjs8mmmmmmmmmmmmmmmmmmmmmmmmmmmmmmmmmmmm",
"mmmmmmmmmmmmmmmmmmmmmmmmmmmmmmmmmmm$$$$$$$$$$$$$jjjjjjjjjjjj:mmmmmmmmmmmmmmmmmmmmmmmmmmmmmmmmmmm",
"mmmmmmmmmmmmmmmmmmmmmmmmmmmmmmmmm$$$$$$$$$$$$$$$jjjjjjjjjjjjjj:mmmmmmmmmmmmmmmmmmmmmmmmmmmmmmmmm",
"mmmmmmmmmmmmmmmmmmmmmmmmmmmmmmmm$$$$$$$$$$$$$$$$jjjjjjjjjjjjjjjj8mmmmmmmmmmmmmmmmmmmmmmmmmmmmmmm",
"mmmmmmmmmmmmmmmmmmmmmmmmmmmmmmm$$$$$$$$$$$$$$$$$jjjjjjjjjjjjjjjj:8mmmmmmmmmmmmmmmmmmmmmmmmmmmmmm",
"mmmmmmmmmmmmmmmmmmmmmmmmmmmmm$$$$$$$$$$$$$$$$$$$jjjjjjjjjjjjjjjjjjsmmmmmmmmmmmmmmmmmmmmmmmmmmmmm",
"mmmmmmmmmmmmmmmmmmmmmmmmmmmm$$$$$$$$$$$$$$$$$$$$jjjjjjjjjjjjjjjjjjjsmmmmmmmmmmmmmmmmmmmmmmmmmmmm",
"mmmmmmmmmmmmmmmmmmmmmmmmmmm$$$$$$$$$$$$$$$$$$$$$jjjjjjjjjjjjjjjjjjjjsmmmmmmmmmmmmmmmmmmmmmmmmmmm",
"mmmmmmmmmmmmmmmmmmmmmmmmmmm$$$$$$$$$$$$$$$$$$$$$jjjjjjjjjjjjjjjjjjjjj8mmmmmmmmmmmmmmmmmmmmmmmmmm",
"mmmmmmmmmmmmmmmmmmmmmmmmmm$$$$$$$$$$$$$$$$$$$$$$jjjjjjjjjjjjjjjjjjjjj:mmmmmmmmmmmmmmmmmmmmmmmmmm",
"mmmmmmmmmmmmmmmmmmmmmmmmm$$$$$$$$$$$$$$$$$$$$$$$jjjjjjjjjjjjjjjjjjjjjj:mmmmmmmmmmmmmmmmmmmmmmmmm",
"mmmmmmmmmmmmmmmmmmmmmmmm$$$$$$$$$$$$$$$$$$$$$$$$jjjjjjjjjjjjjjjjjjjjjjj:mmmmmmmmmmmmmmmmmmmmmmmm",
"mmmmmmmmmmmmmmmmmmmmmmmm$$$$$$$$$$$$$$$$$$$$$$$$jjjjjjjjjjjjjjjjjjjjjjjjmmmmmmmmmmmmmmmmmmmmmmmm",
"mmmmmmmmmmmmmmmmmmmmmmm$$$$$$$$$$$$$$$$$$$$$$$$$jjjjjjjjjjjjjjjjjjjjjjjjsmmmmmmmmmmmmmmmmmmmmmmm",
"mmmmmmmmmmmmmmmmmmmmmmm$$$$$$$$$$$$$$$$$$$$$$$$$jjjjjjjjjjjjjjjjjjjjjjjjjmmmmmmmmmmmmmmmmmmmmmmm",
"mmmmmmmmmmmmmmmmmmmmmm$$$$$$$$$$$$$$$$$$$$$$$$$$jjjjjjjjjjjjjjjjjjjjjjjjjsmmmmmmmmmmmmmmmmmmmmmm",
"mmmmmmmmmmmmmmmmmmmmmm$$$$$$$$$$$$$$$$$$$$$$$$$$jjjjjjjjjjjjjjjjjjjjjjjjjjmmmmmmmmmmmmmmmmmmmmmm",
"mmmmmmmmmmmmmmmmmmmmmm$$$$$$$$$$$$$$$$$$$$$$$$$$jjjjjjjjjjjjjjjjjjjjjjjjjj8mmmmmmmmmmmmmmmmmmmmm",
"mmmmmmmmmmmmmmmmmmmmm$$$$$$$$$$$$$$$$$$$$$$$$$$$jjjjjjjjjjjjjjjjjjjjjjjjjj&mmmmmmmmmmmmmmmmmmmmm",
"mmmmmmmmmmmmmmmmmmmmm$$$$$$$$$$$$$$$$$$$$$$$$$$$jjjjjjjjjjjjjjjjjjjjjjjjjjlmmmmmmmmmmmmmmmmmmmmm",
"mmmmmmmmmmmmmmmmmmmmm$$$$$$$$$$$$$$$$$$$$$$$$$$$jjjjjjjjjjjjjjjjjjjjjjjjjjjmmmmmmmmmmmmmmmmmmmmm",
"mmmmmmmmmmmmmmmmmmmmm$$$$$$$$$$$$$$$$$$$$$$$$$$$jjjjjjjjjjjjjjjjjjjjjjjjjjj8mmmmmmmmmmmmmmmmmmmm",
"mmmmmmmmmmmmmmmmmmmm$$$$$$$$$$$$$$$XX$$$$$$XX$$$ljj1<jjjjjj<<jjjjjjjjjjjjjj:mmmmmmmmmmmmmmmmmmmm",
"mmmmmmmmmmmmmmmmmmmm$$$$$$$$$$$$$$X  X$$$$O. X$$lj1. <jjjj<  <jjjjjjjjjjjjj8mmmmmmmmmmmmmmmmmmmm",
"mmmmmmmmmmmmmmmmmmmm$$$$$$$$$$$$$X    X$$X    O$l1.   <jj<    <jjjjjjjjjjjj:mmmmmmmmmmmmmmmmmmmm",
"mmmmmmmmmmmmmmmmmmmm$$$$$$$$$$$$X      XO      X1      <<      <jjjjjjjjjjj:mmmmmmmmmmmmmmmmmmmm",
"mmmmmmmmmmmmmmmmmmmm$$$$$$$$$$$$.  XX      XX     .11      <<  +jjjjjjjjjjj:mmmmmmmmmmmmmmmmmmmm",
"mmmmmmmmmmmmmmmmmmmm$$$$$$$$$$$$O X$$O    O$$O    1jj<    <jj@ 1jjjjjjjjjjjjmmmmmmmmmmmmmmmmmmmm",
"mmmmmmmmmmmmmmmmmmmm$$$$$$$$$$$$# O$$$X. X$$$$X  1ljjj<  <jjj< 2jjjjjjjjjjjsmmmmmmmmmmmmmmmmmmmm",
"mmmmmmmmmmmmmmmmmmmm$$$$$$$$$$$$$..$$$$XO$$$$$$O1ljjjjj<<jjjj++jjjjjjjjjjjjsmmmmmmmmmmmmmmmmmmmm",
"mmmmmmmmmmmmmmmmmmmm$$$$$$$$$$$$$X $$$$$$$$$$$$$jjjjjjjjjjjj2 1jjjjjjjjjjjj:mmmmmmmmmmmmmmmmmmmm",
"mmmmmmmmmmmmmmmmmmmmm$$$$$$$$$$$$# O$$$$$$$$$$$$jjjjjjjjjjjj< 2jjjjjjjjjjjj8mmmmmmmmmmmmmmmmmmmm",
"mmmmmmmmmmmmmmmmmmmmm$$$$$$$$$$$$$..$$$$$$$$$$$$jjjjjjjjjjjj++jjjjjjjjjjjjjmmmmmmmmmmmmmmmmmmmmm",
"mmmmmmmmmmmmmmmmmmmmm$$$$$$$$$$$$$X #$$$$$$$$$$$jjjjjjjjjjj2 1jjjjjjjjjjjj:mmmmmmmmmmmmmmmmmmmmm",
"mmmmmmmmmmmmmmmmmmmmm$$$$$$$$$$$$$# O$$$$$$$$$$$jjjjjjjjjjj< 2jjjjjjjjjjjj8mmmmmmmmmmmmmmmmmmmmm",
"mmmmmmmmmmmmmmmmmmmmmm$$$$$$$$$$$$$..$$$$$$$$$$$jjjjjjjjjjj++jjjjjjjjjjjjjmmmmmmmmmmmmmmmmmmmmmm",
"mmmmmmmmmmmmmmmmmmmmmm$$$$$$$$$$$$$X #$$$$$$$$$$jjjjjjjjjj2 1jjjjjjjjjjjjsmmmmmmmmmmmmmmmmmmmmmm",
"mmmmmmmmmmmmmmmmmmmmmmm$$$$$$$$$$$$# O$$$$$$$$$$jjjjjjjjjj< 2jjjjjjjjjjjjmmmmmmmmmmmmmmmmmmmmmmm",
"mmmmmmmmmmmmmmmmmmmmmmm$$$$$$$$$$$$$..$$$$$$$$$$jjjjjjjjjj++jjjjjjjjjjjjsmmmmmmmmmmmmmmmmmmmmmmm",
"mmmmmmmmmmmmmmmmmmmmmmmm$$$$$$$$$$$$X #$$$$$$$$$jjjjjjjjj2 1jjjjjjjjjjjjmmmmmmmmmmmmmmmmmmmmmmmm",
"mmmmmmmmmmmmmmmmmmmmmmmm$$$$$$$$$$$$# O$$$$$$$$$jjjjjjjjj< 2jjjjjjjjjjjsmmmmmmmmmmmmmmmmmmmmmmmm",
"mmmmmmmmmmmmmmmmmmmmmmmmm$$$$$$$$$$$$..$$$$$$$$$jjjjjjjjj++jjjjjjjjjjjjmmmmmmmmmmmmmmmmmmmmmmmmm",
"mmmmmmmmmmmmmmmmmmmmmmmmm$$$$$$$$$$$$X #$$$$$$$$jjjjjjjj2 1jjjjjjjjjjj8mmmmmmmmmmmmmmmmmmmmmmmmm",
"mmmmmmmmmmmmmmmmmmmmmmmmmm$$$$$$$$$$$$ X$$$$$$$$jjjjjjjj< 2jjjjjjjjjjlmmmmmmmmmmmmmmmmmmmmmmmmmm",
"mmmmmmmmmmmmmmmmmmmmmmmmmmm$$$$$$$$$$$..$$$$$$$$jjjjjjjj++jjjjjjjjjjjmmmmmmmmmmmmmmmmmmmmmmmmmmm",
"mmmmmmmmmmmmmmmmmmmmmmmmmmm$$$$$$$$$$$X #$$$$$$$jjjjjjj2 1jjjjjjjjjj8mmmmmmmmmmmmmmmmmmmmmmmmmmm",
"mmmmmmmmmmmmmmmmmmmmmmmmmmmm$$$$$$$$$$# X$$$$$$$jjjjggg1 2jjjjjjjjjsmmmmmmmmmmmmmmmmmmmmmmmmmmmm",
"mmmmmmmmmmmmmmmmmmmmmmmmmmmmm$$$$$$$$$$..$$$$$$$jjjjggg++jjjjjjjjjjmmmmmmmmmmmmmmmmmmmmmmmmmmmmm",
"mmmmmmmmmmmmmmmmmmmmmmmmmmmmmm$$$$$$$$$O #$$$$$$jjjjgg2 1jjjjjjjjj8mmmmmmmmmmmmmmmmmmmmmmmmmmmmm",
"mmmmmmmmmmmmmmmmmmmmmmmmmmmmmm$$$$$$$$$# X$$$$$$jjjjjg1 2jjjjjjjjsmmmmmmmmmmmmmmmmmmmmmmmmmmmmmm",
"mmmmmmmmmmmmmmmmmmmmmmmmmmmmmmm$$$$$$$$$..$$$$$$jjjjjj++jjjjjjjjlmmmmmmmmmmmmmmmmmmmmmmmmmmmmmmm",
"mmmmmmmmmmmmmmmmmmmmmmmmmmmmmmmm$$$$$$$$X #$$$$$jjjjj2 1jjjjjjjjmmmmmmmmmmmmmmmmmmmmmmmmmmmmmmmm",
"mmmmmmmmmmmmmmmmmmmmmmmmmmmmmmmm$$$$$$$$$ O$$$$$jjjjj1.2jjjjjjj2mmmmmmmmmmmmmmmmmmmmmmmmmmmmmmmm",
"mmmmmmmmmmmmmmmmmmmmmmmmmmmmmmmmm$$$$$$$$..$$$$<jjjjj++jjjjjjlsmmmmmmmmmmmmmmmmmmmmmmmmmmmmmmmmm",
"mmmmmmmmmmmmmmmmmmmmmmmmmmmmmmmmmm$$$$$$$X $$$$$lljj2 1ljjjjjjmmmmmmmmmmmmmmmmmmmmmmmmmmmmmmmmmm",
"mmmmmmmmmmmmmmmmmmmmmmmmmmmmmmmmmm$$$$$$$# X$$$$jljl1.2ljjjjlsmmmmmmmmmmmmmmmmmmmmmmmmmmmmmmmmmm",
"mmmmmmmmmmmmmmmmmmmmmmmmmmmmmmmmmmm$$$$$$$..$$$$jjjl++jjjjjllmmmmmmmmmmmmmmmmmmmmmmmmmmmmmmmmmmm",
"mmmmmmmmmmmmmmmmmmmmmmmmmmmmmmmmmmmm$$$$$$X #$$$jjjs.1jjjjjl8mmmmmmmmmmmmmmmmmmmmmmmmmmmmmmmmmmm",
"mmmmmmmmmmmmmmmmmmmmmmmmmmmmmmmmmmmmbbbbbbbbbbbbnnnnnnnnnnnnmmmmmmmmmmmmmmmmmmmmmmmmmmmmmmmmmmmm",
"mmmmmmmmmmmmmmmmmmmmmmmmmmmmmmmmmmmmbbbbbbbbbbbbnnnnnnnnnnnnmmmmmmmmmmmmmmmmmmmmmmmmmmmmmmmmmmmm",
"mmmmmmmmmmmmmmmmmmmmmmmmmmmmmmmmmmmmbbbbbbbbbbbbnnnnnnnnnnnnmmmmmmmmmmmmmmmmmmmmmmmmmmmmmmmmmmmm",
"mmmmmmmmmmmmmmmmmmmmmmmmmmmmmmmmmmmmbbbbbbbbbbbbnnnnnnnnnnnnmmmmmmmmmmmmmmmmmmmmmmmmmmmmmmmmmmmm",
"mmmmmmmmmmmmmmmmmmmmmmmmmmmmmmmmmmmmzzzzzzzzzzzzbbbbbbbbbbbbmmmmmmmmmmmmmmmmmmmmmmmmmmmmmmmmmmmm",
"mmmmmmmmmmmmmmmmmmmmmmmmmmmmmmmmmmmmzzzzzzzzzzzzbbbbbbbbbbbbmmmmmmmmmmmmmmmmmmmmmmmmmmmmmmmmmmmm",
"mmmmmmmmmmmmmmmmmmmmmmmmmmmmmmmmmmmmzzzzzzzzzzzzbbbbbbbbbbbbmmmmmmmmmmmmmmmmmmmmmmmmmmmmmmmmmmmm",
"mmmmmmmmmmmmmmmmmmmmmmmmmmmmmmmmmmmmzzzzzzzzzzzzbbbbbbbbbbbbmmmmmmmmmmmmmmmmmmmmmmmmmmmmmmmmmmmm",
"mmmmmmmmmmmmmmmmmmmmmmmmmmmmmmmmmmmmbbbbbbbbbbbbnnnnnnnnnnnnmmmmmmmmmmmmmmmmmmmmmmmmmmmmmmmmmmmm",
"mmmmmmmmmmmmmmmmmmmmmmmmmmmmmmmmmmmmbbbbbbbbbbbbnnnnnnnnnnnnmmmmmmmmmmmmmmmmmmmmmmmmmmmmmmmmmmmm",
"mmmmmmmmmmmmmmmmmmmmmmmmmmmmmmmmmmmmbbbbbbbbbbbbnnnnnnnnnnnnmmmmmmmmmmmmmmmmmmmmmmmmmmmmmmmmmmmm",
"mmmmmmmmmmmmmmmmmmmmmmmmmmmmmmmmmmmmbbbbbbbbbbbbnnnnnnnnnnnnmmmmmmmmmmmmmmmmmmmmmmmmmmmmmmmmmmmm",
"mmmmmmmmmmmmmmmmmmmmmmmmmmmmmmmmmmmmzzzzzzzzzzzzbbbbbbbbbbbbmmmmmmmmmmmmmmmmmmmmmmmmmmmmmmmmmmmm",
"mmmmmmmmmmmmmmmmmmmmmmmmmmmmmmmmmmmmzzzzzzzzzzzzbbbbbbbbbbbbmmmmmmmmmmmmmmmmmmmmmmmmmmmmmmmmmmmm",
"mmmmmmmmmmmmmmmmmmmmmmmmmmmmmmmmmmmmzzzzzzzzzzzzbbbbbbbbbbbbmmmmmmmmmmmmmmmmmmmmmmmmmmmmmmmmmmmm",
"mmmmmmmmmmmmmmmmmmmmmmmmmmmmmmmmmmmmzzzzzzzzzzzzbbbbbbbbbbbbmmmmmmmmmmmmmmmmmmmmmmmmmmmmmmmmmmmm",
"mmmmmmmmmmmmmmmmmmmmmmmmmmmmmmmmmmmmbbbbbbbbbbbbnnnnnnnnnnnnmmmmmmmmmmmmmmmmmmmmmmmmmmmmmmmmmmmm",
"mmmmmmmmmmmmmmmmmmmmmmmmmmmmmmmmmmmmbbbbbbbbbbbbnnnnnnnnnnnnmmmmmmmmmmmmmmmmmmmmmmmmmmmmmmmmmmmm",
"mmmmmmmmmmmmmmmmmmmmmmmmmmmmmmmmmmmmbbbbbbbbbbbbnnnnnnnnnnnnmmmmmmmmmmmmmmmmmmmmmmmmmmmmmmmmmmmm",
"mmmmmmmmmmmmmmmmmmmmmmmmmmmmmmmmmmmmbbbbbbbbbbbbnnnnnnnnnnnnmmmmmmmmmmmmmmmmmmmmmmmmmmmmmmmmmmmm",
"mmmmmmmmmmmmmmmmmmmmmmmmmmmmmmmmmmmmmmmmmmzzzzzzvvzzzzmmmmmmmmmmmmmmmmmmmmmmmmmmmmmmmmmmmmmmmmmm",
"mmmmmmmmmmmmmmmmmmmmmmmmmmmmmmmmmmmmmmmmmmmvzzzzvvzzvmmmmmmmmmmmmmmmmmmmmmmmmmmmmmmmmmmmmmmmmmmm",
"mmmmmmmmmmmmmmmmmmmmmmmmmmmmmmmmmmmmmmmmmmmmvzzzvzzvmmmmmmmmmmmmmmmmmmmmmmmmmmmmmmmmmmmmmmmmmmmm",
"mmmmmmmmmmmmmmmmmmmmmmmmmmmmmmmmmmmmmmmmmmmmmmvvvvmmmmmmmmmmmmmmmmmmmmmmmmmmmmmmmmmmmmmmmmmmmmmm",
"mmmmmmmmmmmmmmmmmmmmmmmmmmmmmmmmmmmmmmmmmmmmmmmmmmmmmmmmmmmmmmmmmmmmmmmmmmmmmmmmmmmmmmmmmmmmmmmm",
"mmmmmmmmmmmmmmmmmmmmmmmmmmmmmmmmmmmmmmmmmmmmmmmmmmmmmmmmmmmmmmmmmmmmmmmmmmmmmmmmmmmmmmmmmmmmmmmm",
"mmmmmmmmmmmmmmmmmmmmmmmmmmmmmmmmmmmmmmmmmmmmmmmmmmmmmmmmmmmmmmmmmmmmmmmmmmmmmmmmmmmmmmmmmmmmmmmm",
"mmmmmmmmmmmmmmmmmmmmmmmmmmmmmmmmmmmmmmmmmmmmmmmmmmmmmmmmmmmmmmmmmmmmmmmmmmmmmmmmmmmmmmmmmmmmmmmm"
};
