/* XPM */
static const char *map_marker[] = {
/* columns rows colors chars-per-pixel */
"96 96 20 1 ",
"  c #BF3A2C",
". c #C0382B",
"X c #C0392B",
"o c #C1392B",
"O c #C23A2C",
"+ c #C33A2C",
"@ c #C53C2E",
"# c #C63D2E",
"$ c #CA3E2F",
"% c #CD3F31",
"& c #CE4031",
"* c #D24333",
"= c #D34334",
"- c #D64334",
"; c #DA4636",
": c #E1493A",
"> c #E34A3A",
", c #E54B3B",
"< c #E74C3C",
"1 c None",
/* pixels */
"1111111111111111111111111111111111111111111<<<<<<<<<<1111111111111111111111111111111111111111111",
"111111111111111111111111111111111111111<<<<<<<<<<<<<<<<<<111111111111111111111111111111111111111",
"111111111111111111111111111111111111<<<<<<<<<<<<<<<<<<<<<<<<111111111111111111111111111111111111",
"1111111111111111111111111111111111<<<<<<<<<<<<<<<<<<<<<<<<<<<<1111111111111111111111111111111111",
"11111111111111111111111111111111<<<<<<<<<<<<<<<<<<<<<<<<<<<<<<<<11111111111111111111111111111111",
"111111111111111111111111111111<<<<<<<<<<<<<<<<<<<<<<<<<<<<<<<<<<<<111111111111111111111111111111",
"11111111111111111111111111111<<<<<<<<<<<<<<<<<<<<<<<<<<<<<<<<<<<<<<11111111111111111111111111111",
"1111111111111111111111111111<<<<<<<<<<<<<<<<<<<<<<<<<<<<<<<<<<<<<<<<1111111111111111111111111111",
"11111111111111111111111111<<<<<<<<<<<<<<<<<<<<<<<<<<<<<<<<<<<<<<<<<<<<11111111111111111111111111",
"1111111111111111111111111<<<<<<<<<<<<<<<<<<<<<<<<<<<<<<<<<<<<<<<<<<<<<<1111111111111111111111111",
"111111111111111111111111<<<<<<<<<<<<<<<<<<<<<<<<<<<<<<<<<<<<<<<<<<<<<<<<111111111111111111111111",
"111111111111111111111111<<<<<<<<<<<<<<<<<<<<<<<<<<<<<<<<<<<<<<<<<<<<<<<<111111111111111111111111",
"11111111111111111111111<<<<<<<<<<<<<<<<<<<<==$XXXX&=;<<<<<<<<<<<<<<<<<<<<11111111111111111111111",
"1111111111111111111111<<<<<<<<<<<<<<<<<<=XXX  XXXX. XXX=<<<<<<<<<<<<<<<<<<1111111111111111111111",
"111111111111111111111<<<<<<<<<<<<<<<<<=XXXXX.XXXXXXXXXXXX=<<<<<<<<<<<<<<<<<111111111111111111111",
"111111111111111111111<<<<<<<<<<<<<<<;XXXXXXX..XXXXXXXXXXXXX;<<<<<<<<<<<<<<<111111111111111111111",
"11111111111111111111<<<<<<<<<<<<<<<=XXXXXXXXXXXXXXXXXXXXXXXX=<<<<<<<<<<<<<<<11111111111111111111",
"11111111111111111111<<<<<<<<<<<<<<%XXXXXXXXXXXXXXXXXXXXXXXXX %<<<<<<<<<<<<<<11111111111111111111",
"1111111111111111111<<<<<<<<<<<<<<%XXXXXXXXXXXXXXXXXXXXXXXXXX. %<<<<<<<<<<<<<<1111111111111111111",
"1111111111111111111<<<<<<<<<<<<<= XXXXXXXXXXXXXXXXXXXXXXXXXX.  =<<<<<<<<<<<<<1111111111111111111",
"111111111111111111<<<<<<<<<<<<<; ..XXXXXXXXXXX1111 XXXXXXXXX.XXX;<<<<<<<<<<<<<111111111111111111",
"111111111111111111<<<<<<<<<<<<<X .XXXXXXXX11111111111XXXXXXXXXXXX><<<<<<<<<<<<111111111111111111",
"111111111111111111<<<<<<<<<<<<=XXXXXXXXXX11111111111111XXXXXXXXX.=<<<<<<<<<<<<111111111111111111",
"11111111111111111<<<<<<<<<<<<<XXXXXXXXXX1111111111111111.XXXXXXX X><<<<<<<<<<<<11111111111111111",
"11111111111111111<<<<<<<<<<<<=XXXXXXXX.111111111111111111XXXXXXXXX=<<<<<<<<<<<<11111111111111111",
"11111111111111111<<<<<<<<<<<<XXXXXXXXX11111111111111111111XXXXXXXX&><<<<<<<<<<<11111111111111111",
"11111111111111111<<<<<<<<<<<< XXXXXXX 111111111111111111111XXXXXXXX><<<<<<<<<<<11111111111111111",
"1111111111111111<<<<<<<<<<<<;XXXXXXXX1111111111111111111111XXXXXXXX&<<<<<<<<<<<<1111111111111111",
"1111111111111111<<<<<<<<<<<<&XXXXXXXX1111111111111111111111XXXXX...&<<<<<<<<<<<<1111111111111111",
"1111111111111111<<<<<<<<<<<<$XXXXXXXX1111111111111111111111 XXXX...&<<<<<<<<<<<<1111111111111111",
"1111111111111111<<<<<<<<<<<<XXXXXXXX111111111111111111111111XXXX . &<<<<<<<<<<<<1111111111111111",
"1111111111111111<<<<<<<<<<<<XXXXXXXX111111111111111111111111XXXX   X<<<<<<<<<<<<1111111111111111",
"1111111111111111<<<<<<<<<<<<X...XXXX111111111111111111111111XXXX... >><<<<<<<<<<1111111111111111",
"1111111111111111<<<<<<<<<<<<X...XXXX111111111111111111111111XXXX...&<<<<<<<<<<<<1111111111111111",
"1111111111111111<<<<<<<<<<<<&X..XXXX 1111111111111111111111XXXXX.. $<<<<<<<<<<<<1111111111111111",
"1111111111111111<<<<<<<<<<<<&X..XXXXX1111111111111111111111XXXXX.  &<<<<<<<<<<<<1111111111111111",
"1111111111111111<<<<<<<<<<<<=  .XXXXX1111111111111111111111XXXXXXXX=<<<<<<<<<<<<1111111111111111",
"11111111111111111<<<<<<<<<<<<X .XXXXXX111111111111111111111XXXXXXXX<<<<<<<<<<<<11111111111111111",
"11111111111111111<<<<<<<<<<<<$XXXXXXXX11111111111111111111XXXXXXXX&<<<<<<<<<<<<11111111111111111",
"11111111111111111<<<<<<<<<<<<=XXXXXXXXX111111111111111111XXXXXXX  &<<<<<<<<<<<<11111111111111111",
"11111111111111111<<<<<<<<<<<<<XXXXXXXXX.1111111111111111XXXXXXXXXX<<<<<<<<<<<<<11111111111111111",
"111111111111111111<<<<<<<<<<<<=XXXXXXXXXX11111111111111.XXXXXXXXX=<<<<<<<<<<<<111111111111111111",
"111111111111111111<<<<<<<<<<<<<XXXXXXXXXXX11111111111 XXXXXXXXXXX<<<<<<<<<<<<<111111111111111111",
"111111111111111111<<<<<<<<<<<<<;XXXXXXXXXXXXX 1111XXXXXXXXXXXXXX;<<<<<<<<<<<<<111111111111111111",
"1111111111111111111<<<<<<<<<<<<<= ..XXXXXXXXXXXXXXXXXXXXXXXXXXX=<<<<<<<<<<<<<1111111111111111111",
"1111111111111111111<<<<<<<<<<<<<<%  XXXXXXXXXXXXXXXXXXXXXXX.XX%<<<<<<<<<<<<<<1111111111111111111",
"11111111111111111111<<<<<<<<<<<<<<% XXXXXXXXXXXXXXXXXXXXXX.. %<<<<<<<<<<<<<<11111111111111111111",
"11111111111111111111<<<<<<<<<<<<<<<=XXXXXXXXXXXXXXXXXXXXXX  =<<<<<<<<<<<<<<<11111111111111111111",
"111111111111111111111<<<<<<<<<<<<<<<;XXXXXXXXXXXXXXX..XXXXX;<<<<<<<<<<<<<<<111111111111111111111",
"111111111111111111111<<<<<<<<<<<<<<<<<=XXXXXXXXXXXXX  XXX=<<<<<<<<<<<<<<<<<111111111111111111111",
"1111111111111111111111<<<<<<<<<<<<<<<<<<=X.XXXXXXXXX  $=<<<<<<<<<<<<<<<<<<1111111111111111111111",
"1111111111111111111111<<<<<<<<<<<<<<<<<<<<>==$XXXX%&=<<<<<<<<<<<<<<<<<<<<<1111111111111111111111",
"11111111111111111111111<<<<<<<<<<<<<<<<<<<<<<<<<<<<<<<<<<<<<<<<<<<<<<<<<<11111111111111111111111",
"111111111111111111111111<<<<<<<<<<<<<<<<<<<<<<<<<<<<<<<<<<<<<<<<<<<<<<<<111111111111111111111111",
"111111111111111111111111<<<<<<<<<<<<<<<<<<<<<<<<<<<<<<<<<<<<<<<<<<<<<<<<111111111111111111111111",
"1111111111111111111111111<<<<<<<<<<<<<<<<<<<<<<<<<<<<<<<<<<<<<<<<<<<<<<1111111111111111111111111",
"1111111111111111111111111<<<<<<<<<<<<<<<<<<<<<<<<<<<<<<<<<<<<<<<<<<<<<<1111111111111111111111111",
"11111111111111111111111111<<<<<<<<<<<<<<<<<<<<<<<<<<<<<<<<<<<<<<<<<<<<11111111111111111111111111",
"11111111111111111111111111<<<<<<<<<<<<<<<<<<<<<<<<<<<<<<<<<<<<<<<<<<<<11111111111111111111111111",
"111111111111111111111111111<<<<<<<<<<<<<<<<<<<<<<<<<<<<<<<<<<<<<<<<<<111111111111111111111111111",
"1111111111111111111111111111<<<<<<<<<<<<<<<<<<<<<<<<<<<<<<<<<<<<<<<<1111111111111111111111111111",
"1111111111111111111111111111<<<<<<<<<<<<<<<<<<<<<<<<<<<<<<<<<<<<<<<<1111111111111111111111111111",
"11111111111111111111111111111<<<<<<<<<<<<<<<<<<<<<<<<<<<<<<<<<<<<<<11111111111111111111111111111",
"11111111111111111111111111111<<<<<<<<<<<<<<<<<<<<<<<<<<<<<<<<<<<<<<11111111111111111111111111111",
"111111111111111111111111111111<<<<<<<<<<<<<<<<<<<<<<<<<<<<<<<<<<<<111111111111111111111111111111",
"111111111111111111111111111111<<<<<<<<<<<<<<<<<<<<<<<<<<<<<<<<<<<<111111111111111111111111111111",
"1111111111111111111111111111111<<<<<<<<<<<<<<<<<<<<<<<<<<<<<<<<<<1111111111111111111111111111111",
"11111111111111111111111111111111<<<<<<<<<<<<<<<<<<<<<<<<<<<<<<<<11111111111111111111111111111111",
"11111111111111111111111111111111<<<<<<<<<<<<<<<<<<<<<<<<<<<<<<<<11111111111111111111111111111111",
"111111111111111111111111111111111<<<<<<<<<<<<<<<<<<<<<<<<<<<<<<111111111111111111111111111111111",
"111111111111111111111111111111111<<<<<<<<<<<<<<<<<<<<<<<<<<<<<<111111111111111111111111111111111",
"1111111111111111111111111111111111<<<<<<<<<<<<<<<<<<<<<<<<<<<<1111111111111111111111111111111111",
"1111111111111111111111111111111111<<<<<<<<<<<<<<<<<<<<<<<<<<<<1111111111111111111111111111111111",
"11111111111111111111111111111111111<<<<<<<<<<<<<<<<<<<<<<<<<<11111111111111111111111111111111111",
"111111111111111111111111111111111111<<<<<<<<<<<<<<<<<<<<<<<<111111111111111111111111111111111111",
"111111111111111111111111111111111111<<<<<<<<<<<<<<<<<<<<<<<<111111111111111111111111111111111111",
"1111111111111111111111111111111111111<<<<<<<<<<<<<<<<<<<<<<1111111111111111111111111111111111111",
"1111111111111111111111111111111111111<<<<<<<<<<<<<<<<<<<<<<1111111111111111111111111111111111111",
"11111111111111111111111111111111111111<<<<<<<<<<<<<<<<<<<<11111111111111111111111111111111111111",
"111111111111111111111111111111111111111<<<<<<<<<<<<<<<<<<111111111111111111111111111111111111111",
"111111111111111111111111111111111111111<<<<<<<<<<<<<<<<<<111111111111111111111111111111111111111",
"1111111111111111111111111111111111111111<<<<<<<<<<<<<<<<1111111111111111111111111111111111111111",
"1111111111111111111111111111111111111111<<<<<<<<<<<<<<<<1111111111111111111111111111111111111111",
"11111111111111111111111111111111111111111<<<<<<<<<<<<<<11111111111111111111111111111111111111111",
"11111111111111111111111111111111111111111<<<<<<<<<<<<<<11111111111111111111111111111111111111111",
"111111111111111111111111111111111111111111<<<<<<<<<<<<111111111111111111111111111111111111111111",
"1111111111111111111111111111111111111111111<<<<<<<<<<1111111111111111111111111111111111111111111",
"1111111111111111111111111111111111111111111<<<<<<<<<<1111111111111111111111111111111111111111111",
"11111111111111111111111111111111111111111111<<<<<<<<11111111111111111111111111111111111111111111",
"11111111111111111111111111111111111111111111<<<<<<<<11111111111111111111111111111111111111111111",
"111111111111111111111111111111111111111111111<<<<<<111111111111111111111111111111111111111111111",
"111111111111111111111111111111111111111111111<<<<<<111111111111111111111111111111111111111111111",
"1111111111111111111111111111111111111111111111<<<<1111111111111111111111111111111111111111111111",
"11111111111111111111111111111111111111111111111<<11111111111111111111111111111111111111111111111",
"11111111111111111111111111111111111111111111111<<11111111111111111111111111111111111111111111111",
"111111111111111111111111111111111111111111111111111111111111111111111111111111111111111111111111"
};
