/* XPM */
static const char *microphone[] = {
/* columns rows colors chars-per-pixel */
"96 96 28 1 ",
"  c #7F8C8D",
". c #95A5A5",
"X c #94A4A6",
"o c #95A4A6",
"O c #94A5A6",
"+ c #95A5A6",
"@ c #94A5A7",
"# c #95A5A7",
"$ c #96A4A6",
"% c #96A5A6",
"& c #96A5A7",
"* c #94A6A6",
"= c #95A6A6",
"- c #97A6A7",
"; c #96A7A7",
": c #97A7A8",
"> c #99A8A9",
", c #9AA9AA",
"< c #9CAAAC",
"1 c #9DABAD",
"2 c #A0AEAF",
"3 c #A1ADB0",
"4 c #A2AEB1",
"5 c #BDC2C7",
"6 c #BDC3C7",
"7 c #BEC3C8",
"8 c #BDC4C8",
"9 c None",
/* pixels */
"999999999999999999999999999999999999999999994<<+666899999999999999999999999999999999999999999999",
"999999999999999999999999999999999999999992:+++++666666699999999999999999999999999999999999999999",
"9999999999999999999999999999999999999994++++++++666666666999999999999999999999999999999999999999",
"99999999999999999999999999999999999999<+++++++++666666666699999999999999999999999999999999999999",
"9999999999999999999999999999999999999+++++++++++666666666669999999999999999999999999999999999999",
"999999999999999999999999999999999999<+++++++++++666666666666999999999999999999999999999999999999",
"99999999999999999999999999999999999<++++++++++++666666666666699999999999999999999999999999999999",
"99999999999999999999999999999999994+++++++++++++666666666666669999999999999999999999999999999999",
"9999999999999999999999999999999999;+++++++++++++666666666666669999999999999999999999999999999999",
"9999999999999999999999999999999992++++++++++++++666666666666666999999999999999999999999999999999",
"999999999999999999999999999999999<++++++++++++++666666666666666999999999999999999999999999999999",
"999999999999999999999999999999999+++++++++++++++666666666666666999999999999999999999999999999999",
"999999999999999999999999999999994+++++++++++++++666666666666666899999999999999999999999999999999",
"99999999999999999999999999999999<+++++++++++++++666666666666666899999999999999999999999999999999",
"99999999999999999999999999999999<+++++++++++++++666666666666666699999999999999999999999999999999",
"99999999999999999999999999999999++++++++++++++++666666666666666699999999999999999999999999999999",
"99999999999999999999999999999999....XXXX++++++++666666666666666699999999999999999999999999999999",
"99999999999999999999999999999999....XXXX++++++++666666666666666699999999999999999999999999999999",
"99999999999999999999999999999999++..XXXX++++++++666666666666666699999999999999999999999999999999",
"99999999999999999999999999999999++...XXX++++++++666666666666666699999999999999999999999999999999",
"99999999999999999999999999999999        ++++++++66666666++++++++99999999999999999999999999999999",
"99999999999999999999999999999999        ++++++++66666666++++++++99999999999999999999999999999999",
"99999999999999999999999999999999        ++++++++66666666++++++++99999999999999999999999999999999",
"99999999999999999999999999999999       X++++++++66666666++++++++99999999999999999999999999999999",
"99999999999999999999999999999999++++++++++++++++666666666666666699999999999999999999999999999999",
"99999999999999999999999999999999++++++++++++++++666666666666666699999999999999999999999999999999",
"99999999999999999999999999999999++++++++++++++++666666666666666699999999999999999999999999999999",
"99999999999999999999999999999999++++++++++++++++666666666666666699999999999999999999999999999999",
"99999999999999999999999999999999        ++++++++66666666++++++++99999999999999999999999999999999",
"99999999999999999999999999999999        ++++++++66666666++++++++99999999999999999999999999999999",
"99999999999999999999999999999999        ++++++++66666666++++++++99999999999999999999999999999999",
"99999999999999999999999999999999        ++++++++66666666++++++++99999999999999999999999999999999",
"99999999999999999999999999999999++++++++++++++++556666666666666699999999999999999999999999999999",
"99999999999999999999999999999999++++++++++++++++556666666666666699999999999999999999999999999999",
"99999999999999999999999999999999++++++++++++++++666666666666666699999999999999999999999999999999",
"99999999999999999999999999999999++++++++++++++++666666666666666699999999999999999999999999999999",
"99999999999999999999999999999999        ++++++++66666666++++++++99999999999999999999999999999999",
"99999999999999999999999999999999        ++++++++66666666++++++++99999999999999999999999999999999",
"99999999999999999999999999999999        ++++++++66666666++++++++99999999999999999999999999999999",
"99999999999999999999999999999999        ++++++++66666666++++++++99999999999999999999999999999999",
"999999999999999999+++-9999999999++++++++++++++++66666666666666669999999999++++999999999999999999",
"99999999999999999++++++999999999++++++++++++++++6666666666666666999999999++++++99999999999999999",
"9999999999999999++++++++99999999++++++++++++++++666666666666666699999999++++++++9999999999999999",
"9999999999999999++++++++99999999++++++++++++++++666666666666666699999999++++++++9999999999999999",
"9999999999999999++++++++99999999++++++++++++++++666666666666666699999999++++++++9999999999999999",
"9999999999999999++++++++99999999++++++++++++++++666666666666666699999999++++++++9999999999999999",
"9999999999999999++++++++99999999++++++++++++++++666666666666666699999999++++++++9999999999999999",
"9999999999999999++++++++99999999++++++++++++++++666666666666666699999999++++++++9999999999999999",
"9999999999999999++++++++99999999:+++++++++++++++666666666666666699999999++++++++9999999999999999",
"9999999999999999:+++++++99999999<+++++++++++++++666666666666666699999999++++++++9999999999999999",
"9999999999999999++++++++99999999<+++++++++++++++666666666666666699999999++++++++9999999999999999",
"9999999999999999++++++++999999992+++++++++++++++666666666666666699999999++++++++9999999999999999",
"9999999999999999++++++++999999999+++++++++++++++666666666666666999999999+++++++:9999999999999999",
"99999999999999999++++++++99999999:++++++++++++++66666666666666699999999++++++++99999999999999999",
"99999999999999999++++++++999999994++++++++++++++66666666666666699999999++++++++99999999999999999",
"99999999999999999++++++++999999999++++++++++++++66666666666666999999999++++++++99999999999999999",
"99999999999999999+++++++++999999994+++++++++++++6666666666666699999999+++++++++99999999999999999",
"999999999999999999++++++++999999999<++++++++++++6666666666666999999999++++++++999999999999999999",
"999999999999999999+++++++++999999999:+++++++++++666666666666999999999+++++++++999999999999999999",
"999999999999999999+++++++++9999999999<++++++++++666666666669999999999+++++++++999999999999999999",
"9999999999999999999+++++++++9999999999<+++++++++66666666669999999999:++++++++9999999999999999999",
"9999999999999999999:++++++++999999999994++++++++66666666699999999999+++++++++9999999999999999999",
"99999999999999999999+++++++++9999999999992:+++++6666666999999999999+++++++++99999999999999999999",
"99999999999999999999++++++++++999999999999992<<-668899999999999999++++++++++99999999999999999999",
"999999999999999999999++++++++++9999999999999999999999999999999999++++++++++999999999999999999999",
"999999999999999999999-++++++++++99999999999999999999999999999999+++++++++++999999999999999999999",
"9999999999999999999999+++++++++++999999999999999999999999999999+++++++++++9999999999999999999999",
"99999999999999999999999+++++++++++9999999999999999999999999999+++++++++++99999999999999999999999",
"999999999999999999999999++++++++++++999999999999999999999999++++++++++++999999999999999999999999",
"999999999999999999999999:+++++++++++++99999999999999999999+++++++++++++:999999999999999999999999",
"9999999999999999999999999+++++++++++++++9999999999999999+++++++++++++++9999999999999999999999999",
"99999999999999999999999999++++++++++++++++:9999999999+++++++++++++++++99999999999999999999999999",
"9999999999999999999999999999++++++++++++++++++++++++++++++++++++++++9999999999999999999999999999",
"99999999999999999999999999999++++++++++++++++++++++++++++++++++++++99999999999999999999999999999",
"999999999999999999999999999999++++++++++++++++++++++++++++++++++++999999999999999999999999999999",
"99999999999999999999999999999999++++++++++++++++++++++++++++++++99999999999999999999999999999999",
"9999999999999999999999999999999999++++++++++++++++++++++++++++9999999999999999999999999999999999",
"999999999999999999999999999999999999++++++++++++++++++++++++999999999999999999999999999999999999",
"99999999999999999999999999999999999999+-++++++++++++++++:+99999999999999999999999999999999999999",
"9999999999999999999999999999999999999999999++++++++++9999999999999999999999999999999999999999999",
"99999999999999999999999999999999999999999999++++++++99999999999999999999999999999999999999999999",
"99999999999999999999999999999999999999999999++++++++99999999999999999999999999999999999999999999",
"99999999999999999999999999999999999999999999++++++++99999999999999999999999999999999999999999999",
"99999999999999999999999999999999999999999999++++++++99999999999999999999999999999999999999999999",
"99999999999999999999999999999999999999999999++++++++99999999999999999999999999999999999999999999",
"99999999999999999999999999999999999999999999++++++++99999999999999999999999999999999999999999999",
"99999999999999999999999999999999999999999999++++++++99999999999999999999999999999999999999999999",
"99999999999999999999999999999999999999999999++++++++99999999999999999999999999999999999999999999",
"999999999999999999+++++++++++++++++++++++++++++++++++++++++++++++++++++++++++-999999999999999999",
"99999999999999999++++++++++++++++++++++++++++++++++++++++++++++++++++++++++++++99999999999999999",
"9999999999999999++++++++++++++++++++++++++++++++++++++++++++++++++++++++++++++++9999999999999999",
"9999999999999999++++++++++++++++++++++++++++++++++++++++++++++++++++++++++++++++9999999999999999",
"9999999999999999++++++++++++++++++++++++++++++++++++++++++++++++++++++++++++++++9999999999999999",
"9999999999999999++++++++++++++++++++++++++++++++++++++++++++++++++++++++++++++++9999999999999999",
"99999999999999999++++++++++++++++++++++++++++++++++++++++++++++++++++++++++++++99999999999999999",
"999999999999999999-+++++++++++++++++++++++++++++++++++++++++++++++++++++++++++999999999999999999"
};
