/* XPM */
static const char *news[] = {
/* columns rows colors chars-per-pixel */
"96 96 51 1 ",
"  c #7F8C8D",
". c #859091",
"X c #869193",
"o c #8D999B",
"O c #8F999B",
"+ c #8E9A9C",
"@ c #919C9E",
"# c #949EA0",
"$ c #94A5A5",
"% c #95A5A5",
"& c #95A4A6",
"* c #94A5A6",
"= c #95A5A6",
"- c #96A5A6",
"; c #96A5A7",
": c #95A6A6",
"> c #95A6A7",
", c #97A6A7",
"< c #98A7A8",
"1 c #98A7A9",
"2 c #98A8A9",
"3 c #9BA9AB",
"4 c #9CAAAC",
"5 c #9DABAC",
"6 c #9EACAE",
"7 c #9FACAE",
"8 c #9FACAF",
"9 c #A3AFB1",
"0 c #A3AFB2",
"q c #A4ADB0",
"w c #A5B2B3",
"e c #A7B3B4",
"r c #A8B1B4",
"t c #A8B4B6",
"y c #A9B4B6",
"u c #AEB5B8",
"i c #ACB7B9",
"p c #ADB7BA",
"a c #B0B8BB",
"s c #B1BABD",
"d c #B3BBBF",
"f c #B7BDC1",
"g c #B7BFC3",
"h c #B9C0C3",
"j c #B9C0C4",
"k c #B9C1C5",
"l c #BBC2C6",
"z c #BCC2C6",
"x c #BCC3C7",
"c c #BDC3C7",
"v c None",
/* pixels */
"vvvvvvvvvvvvvvvvvvvvvvvvvvvvvvvvvvvvvvvvvvvvvvvvvvvvvvvvvvvvvvvvvvvvvvvvvvvvvvvvvvvvvvvvvvvvvvvv",
"vvvvvvvvvvvvvvvvvvvvvvvvvvvvvvvvvvvvvvvvvvvvvvvvvvvvvvvvvvvvvvvvvvvvvvvvvvvvvvvvvvvvvvvvvvvvvvvv",
"vvvvvvvvvvvvvvvvvvvvvvvvvvvvvvvvvvvvvvvvvvvvvvvvvvvvvvvvvvvvvvvvvvvvvvvvvvvvvvvvvvvvvvvvvvvvvvvv",
"vvvvvvvvvvvvvvvvvvvvvvvvvvvvvvvvvvvvvvvvvvvvvvvvvvvvvvvvvvvvvvvvvvvvvvvvvvvvvvvvvvvvvvvvvvvvvvvv",
"vvvvvvvvvvvvvvvvvvvvvvvvvvvvvvvvvvvvvvvvvvvvvvvvvvvvvvvvvvvvvvvvvvvvvvvvvvvvvvvvvvvvvvvvvvvvvvvv",
"vvvvvvvvvvvvvvvvvvvvvvvvvvvvvvvvvvvvvvvvvvvvvvvvvvvvvvvvvvvvvvvvvvvvvvvvvvvvvvvvvvvvvvvvvvvvvvvv",
"vvvvvvvvvvvvvvvvvvvvvvvvvvvvvvvvvvvvvvvvvvvvvvvvvvvvvvvvvvvvvvvvvvvvvvvvvvvvvvvvvvvvvvvvvvvvvvvv",
"vvvvvvvvvvvvvvvvvvvvvvvvvvvvvvvvvvvvvvvvvvvvvvvvvvvvvvvvvvvvvvvvvvvvvvvvvvvvvvvvvvvvvvvvvvvvvvvv",
"ccccccccccccccccccccccccccccccccccccccccccccccccccccccccccccccccccccccccccccccccccccccccccccvvvv",
"ccccccccccccccccccccccccccccccccccccccccccccccccccccccccccccccccccccccccccccccccccccccccccccvvvv",
"ccccccccccccccccccccccccccccccccccccccccccccccccccccccccccccccccccccccccccccccccccccccccccccvvvv",
"ccccccccccccccccccccccccccccccccccccccccccccccccccccccccccccccccccccccccccccccccccccccccccccvvvv",
"ccccccccccccccccccccccccccccccccccccccccccccccccccccccccccccccccccccccccccccccccccccccccccccvvvv",
"ccccccccccccccccccccccccccccccccccccccccccccccccccccccccccccccccccccccccccccccccccccccccccccvvvv",
"ccccccccccccccccccccccccccccccccccccccccccccccccccccccccccccccccccccccccccccccccccccccccccccvvvv",
"ccccccccccccccccccccccccccccccccccccccccccccccccccccccccccccccccccccccccccccccccccccccccccccvvvv",
"cccccccc    rccccccc    cccc                cccc    cccccccc    ccccccc0@.          ccccccccvvvv",
"cccccccc    .gcccccc    cccc                cccc    cccccccc    cccccgO             ccccccccvvvv",
"cccccccc     #cccccc    cccc                cccc    cccccccc    cccccO              ccccccccvvvv",
"cccccccc      rccccc    cccc                cccc    cccccccc    cccc0              .ccccccccvvvv",
"cccccccc      .gcccc    cccc    cccccccccccccccc    cccuuccc    cccc@   Ouccccccccccccccccccvvvv",
"cccccccc       #cccc    cccc    cccccccccccccccc    cccOOccc    cccc.   acccccccccccccccccccvvvv",
"cccccccc        rccc    cccc    cccccccccccccccc    ccu  ucc    cccc.   acccccccccccccccccccvvvv",
"cccccccc        .gcc    cccc    cccccccccccccccc    ccO  Occ    cccc@   Oaccccccccccccccccccvvvv",
"cccccccc    #    #cc    cccc            cccccccc    cu    uc    cccc0         .@8cccccccccccvvvv",
"cccccccc    g.    rc    cccc            cccccccc    cO    Oc    cccccO           Ofcccccccccvvvv",
"cccccccc    cr    .g    cccc            cccccccc    u      u    cccccgO           Occcccccccvvvv",
"cccccccc    cc#    #    cccc            cccccccc    O      O    ccccccc0@.         8ccccccccvvvv",
"cccccccc    ccg.        cccc    cccccccccccccccc       OO       ccccccccccccccaO   Occccccccvvvv",
"cccccccc    cccr        cccc    cccccccccccccccc       uu       ccccccccccccccca   .ccccccccvvvv",
"cccccccc    cccc#       cccc    cccccccccccccccc      OccO      ccccccccccccccca   .ccccccccvvvv",
"cccccccc    ccccg.      cccc    cccccccccccccccc      uccu      ccccccccccccccaO  .@ccccccccvvvv",
"cccccccc    cccccr      cccc                cccc     OccccO     cccc               8ccccccccvvvv",
"cccccccc    cccccc#     cccc                cccc     uccccu     cccc              Occcccccccvvvv",
"cccccccc    ccccccg.    cccc                cccc    OccccccO    cccc             Ogcccccccccvvvv",
"cccccccc    cccccccr    cccc                cccc    uccccccu    cccc         ..@8cccccccccccvvvv",
"ccccccccccccccccccccccccccccccccccccccccccccccccccccccccccccccccccccccccccccccccccccccccccccvvvv",
"ccccccccccccccccccccccccccccccccccccccccccccccccccccccccccccccccccccccccccccccccccccccccccccvvvv",
"ccccccccccccccccccccccccccccccccccccccccccccccccccccccccccccccccccccccccccccccccccccccccccccvvvv",
"ccccccccccccccccccccccccccccccccccccccccccccccccccccccccccccccccccccccccccccccccccccccccccccvvvv",
"ccccccccccccccccccccccccccccccccccccccccccccccccccccccccccccccccccccccccccccccccccccccccccccvvvv",
"ccccccccccccccccccccccccccccccccccccccccccccccccccccccccccccccccccccccccccccccccccccccccccccvvvv",
"ccccccccccccccccccccccccccccccccccccccccccccccccccccccccccccccccccccccccccccccccccccccccccccvvvv",
"ccccccccccccccccccccccccccccccccccccccccccccccccccccccccccccccccccccccccccccccccccccccccccccvvvv",
"cccccccc====================================cccc====================================cccccccc====",
"cccccccc====================================cccc====================================cccccccc====",
"cccccccc====================================cccc====================================cccccccc====",
"cccccccc====================================cccc====================================cccccccc====",
"cccccccc====================================cccccccccccccccccccccccccccccccccccccccccccccccc====",
"cccccccc====================================cccccccccccccccccccccccccccccccccccccccccccccccc====",
"cccccccc====================================cccccccccccccccccccccccccccccccccccccccccccccccc====",
"cccccccc====================================cccccccccccccccccccccccccccccccccccccccccccccccc====",
"cccccccc====================================cccc====================================cccccccc====",
"cccccccc====================================cccc====================================cccccccc====",
"cccccccc====================================cccc====================================cccccccc====",
"cccccccc====================================cccc====================================cccccccc====",
"cccccccc====================================cccccccccccccccccccccccccccccccccccccccccccccccc====",
"cccccccc====================================cccccccccccccccccccccccccccccccccccccccccccccccc====",
"cccccccc====================================cccccccccccccccccccccccccccccccccccccccccccccccc====",
"cccccccc====================================cccccccccccccccccccccccccccccccccccccccccccccccc====",
"cccccccc====================================cccc====================================cccccccc====",
"cccccccc====================================cccc====================================cccccccc====",
"cccccccc====================================cccc====================================cccccccc====",
"cccccccc====================================cccc====================================cccccccc====",
"cccccccc====================================cccccccccccccccccccccccccccccccccccccccccccccccc====",
"cccccccc====================================cccccccccccccccccccccccccccccccccccccccccccccccc====",
"cccccccc====================================cccccccccccccccccccccccccccccccccccccccccccccccc====",
"cccccccc====================================cccccccccccccccccccccccccccccccccccccccccccccccc====",
"cccccccc====================================cccc====================================cccccccc====",
"cccccccc====================================cccc====================================cccccccc====",
"cccccccc====================================cccc====================================cccccccc====",
"cccccccc====================================cccc====================================cccccccc====",
"cccccccccccccccccccccccccccccccccccccccccccccccccccccccccccccccccccccccccccccccccccccccccccc====",
"cccccccccccccccccccccccccccccccccccccccccccccccccccccccccccccccccccccccccccccccccccccccccccc====",
"cccccccccccccccccccccccccccccccccccccccccccccccccccccccccccccccccccccccccccccccccccccccccccc====",
"cccccccccccccccccccccccccccccccccccccccccccccccccccccccccccccccccccccccccccccccccccccccccccc====",
"cccccccc====================================cccc====================================cccccccc====",
"cccccccc====================================cccc====================================cccccccc====",
"cccccccc====================================cccc====================================cccccccc====",
"cccccccc====================================cccc====================================cccccccc====",
"gccccccccccccccccccccccccccccccccccccccccccccccccccccccccccccccccccccccccccccccccccccccccccc====",
"sccccccccccccccccccccccccccccccccccccccccccccccccccccccccccccccccccccccccccccccccccccccccccc====",
"rccccccccccccccccccccccccccccccccccccccccccccccccccccccccccccccccccccccccccccccccccccccccccc====",
"3ccccccccccccccccccccccccccccccccccccccccccccccccccccccccccccccccccccccccccccccccccccccccccc====",
"2ecccccccccccccccccccccccccccccccccccccccccccccccccccccccccccccccccccccccccccccccccccccccccc====",
"32sccccccccccccccccccccccccccccccccccccccccccccccccccccccccccccccccccccccccccccccccccccccccr====",
"e==eccccccccccccccccccccccccccccccccccccccccccccccccccccccccccccccccccccccccccccccccccccca3====v",
"v===3eaccccccccccccccccccccccccccccccccccccccccccccccccccccccccccccccccccccccccccccccsue,=====vv",
"v0,==========================================================================================vvv",
"vv3========================================================================================,vvvv",
"vvv0==================================================================================2===vvvvvv",
"vvvvve33============================================================================333vvvvvvvvv",
"vvvvvvvvvvvvvvvvvvvvvvvvvvvvvvvvvvvvvvvvvvvvvvvvvvvvvvvvvvvvvvvvvvvvvvvvvvvvvvvvvvvvvvvvvvvvvvvv",
"vvvvvvvvvvvvvvvvvvvvvvvvvvvvvvvvvvvvvvvvvvvvvvvvvvvvvvvvvvvvvvvvvvvvvvvvvvvvvvvvvvvvvvvvvvvvvvvv",
"vvvvvvvvvvvvvvvvvvvvvvvvvvvvvvvvvvvvvvvvvvvvvvvvvvvvvvvvvvvvvvvvvvvvvvvvvvvvvvvvvvvvvvvvvvvvvvvv",
"vvvvvvvvvvvvvvvvvvvvvvvvvvvvvvvvvvvvvvvvvvvvvvvvvvvvvvvvvvvvvvvvvvvvvvvvvvvvvvvvvvvvvvvvvvvvvvvv"
};
