/* XPM */
static const char *profile_group[] = {
/* columns rows colors chars-per-pixel */
"96 96 15 1 ",
"  c #2B3D4F",
". c #2D3D4F",
"X c #2C3E4F",
"o c #2C3F4F",
"O c #2B3E50",
"+ c #2B3F50",
"@ c #2C3D50",
"# c #2D3D50",
"$ c #2C3E50",
"% c #2D3E50",
"& c #2C3F50",
"* c #2C3E51",
"= c #2D3F51",
"- c #34495E",
"; c None",
/* pixels */
";;;;;;;;;;;;;;;;;;;;;;;;;;;;;;;;;;;;;;;;;;;;;;;;;;;;;;;;;;;;;;;;;;;;;;;;;;;;;;;;;;;;;;;;;;;;;;;;",
";;;;;;;;;;;;;;;;;;;;;;;;;;;;;;;;;;;;;;;;;;;;;;;;;;;;;;;;;;;;;;;;;;;;;;;;;;;;;;;;;;;;;;;;;;;;;;;;",
";;;;;;;;;;;;;;;;;;;;;;;;;;;;;;;;;;;;;;;;;;;;;;;;;;;;;;;;;;;;;;;;;;;;;;;;;;;;;;;;;;;;;;;;;;;;;;;;",
";;;;;;;;;;;;;;;;;;;;;;;;;;;;;;;;;;;;;;;;;;;;;;;;;;;;;;;;;;;;;;;;;;;;;;;;;;;;;;;;;;;;;;;;;;;;;;;;",
";;;;;;;;;;;;;;;;;;;;;;;;;;;;;;;;;;;;;;;;;;;;;;;;;;;;;;;;;;;;;;;;;;;;;;;;;;;;;;;;;;;;;;;;;;;;;;;;",
";;;;;;;;;;;;;;;;;;;;;;;;;;;;;;;;;;;;;;;;;;;;;;;;;;;;;;;;;;;;;;;;;;;;;;;;;;;;;;;;;;;;;;;;;;;;;;;;",
";;;;;;;;;;;;;;;;;;;;;;;;;;;;;;;;;;;;;;;;;;;;;;;;;;;;;;;;;;;;;;;;;;;;;;;;;;;;;;;;;;;;;;;;;;;;;;;;",
";;;;;;;;;;;;;;;;;;;;;;;;;;;;;;;;;;;;;;;;;;;;;;;;;;;;;;;;;;;;;;;;;;;;;;;;;;;;;;;;;;;;;;;;;;;;;;;;",
";;;;;;;;;;;;;;;;;;;;;;;;;;;;;;;;;;;;;;;;;;;;;;;;;;;;;;;;;;;;;;;;;;;;;;;;;;;;;;;;;;;;;;;;;;;;;;;;",
";;;;;;;;;;;;;;;;;;;;;;;;;;;;;;;;;;;;;;;;;;;;;;;;;----------;;;;;;;;;;;;;;;;;;;;;;;;;;;;;;;;;;;;;",
";;;;;;;;;;;;;;;;;;;;;;;;;;;;;;;;;;;;;;;;;;;;;;;--------------;;;;;;;;;;;;;;;;;;;;;;;;;;;;;;;;;;;",
";;;;;;;;;;;;;;;;;;;;;;;;;;;;;;;;;;;;;;;;;;;;;------------------;;;;;;;;;;;;;;;;;;;;;;;;;;;;;;;;;",
";;;;;;;;;;;;;;;;;;;;;;;;;;;;;;;;;;;;;;;;;;;---------------------;;;;;;;;;;;;;;;;;;;;;;;;;;;;;;;;",
";;;;;;;;;;;;;;;;;;;;;;;;;;;;;;;;;;;;;;;;;;------------------------;;;;;;;;;;;;;;;;;;;;;;;;;;;;;;",
";;;;;;;;;;;;;;;;;;;;;;;;;;;;;;;;;;;;;;;;;--------------------------;;;;;;;;;;;;;;;;;;;;;;;;;;;;;",
";;;;;;;;;;;;;;;;;;;;;;;;;;;;;;;;;;;;;;;;----------------------------;;;;;;;;;;;;;;;;;;;;;;;;;;;;",
";;;;;;;;;;;;;;;;;;;;;;;;;;;;;;;;;;;;;;;------------------------------;;;;;;;;;;;;;;;;;;;;;;;;;;;",
";;;;;;;;;;;;;;;;;;;;;;;;;;;;;;;;;;;;;;;------------------------------;;;;;;;;;;;;;;;;;;;;;;;;;;;",
";;;;;;;;;;;;;;;;;;;;;;;;;;;;;;;;;;;;;;--------------------------------;;;;;;;;;;;;;;;;;;;;;;;;;;",
";;;;;;;;;;;;;;;;;;;;;;;;;;;;;;;;;;;;;----------------------------------;;;;;;;;;;;;;;;;;;;;;;;;;",
";;;;;;;;;;;;;;;;;;;;;;;;;;;;;;;;;;;;------------------------------------;;;;;;;;;;;;;;;;;;;;;;;;",
";;;;;;;;;;;;;;;;;;;;;;;;;;;;;;;;;;;;------------------------------------;;;;;;;;;;;;;;;;;;;;;;;;",
";;;;;;;;;;;;;;;;;;;;;;;;;;;;;;;;;;;--------------------------------------;;;;;;;;;;;;;;;;;;;;;;;",
";;;;;;;;;;;;;;;;;;;;;;;;;;;;;;;;;;;--------------------------------------;;;;;;;;;;;;;;;;;;;;;;;",
";;;;;;;;;;;;;;;;;;;;;;;;;;;;;;;;;;;--------------------------------------;;;;;;;;;;;;;;;;;;;;;;;",
";;;;;;;;;;;;;;;;;;;;;;;;;;;;;;;;;;----------------------------------------;;;;;;;;;;;;;;;;;;;;;;",
";;;;;;;;;;;;;;;;;;;;;;%O%O%.;;;;;;----------------------------------------;;;;;;;;;;;;;;;;;;;;;;",
";;;;;;;;;;;;;;;;;;;;O%O%O%OO%O;;;;----------------------------------------;;;;;;;;;;;;;;;;;;;;;;",
";;;;;;;;;;;;;;;;;;OO%O%O%O%O%O;;;------------------------------------------;;;;;;;;;;;;;;;;;;;;;",
";;;;;;;;;;;;;;;;;O%OO%O%O%O%%;;;;------------------------------------------;;;;;;;;;;;;;;;;;;;;;",
";;;;;;;;;;;;;;;;OOO%%O%O%O%OO;;;--------------------------------------------;;;;;;;;;;;;;;;;;;;;",
";;;;;;;;;;;;;;;;OOOOO%O%O%O%%;;----------------------------------------------;;;;;;;;;;;;;;;;;;;",
";;;;;;;;;;;;;;;%%O%O%O%O%O%O;;;----------------------------------------------;;;;;;;;;;;;;;;;;;;",
";;;;;;;;;;;;;;%OO%O%O%O%O%O%;;------------------------------------------------;;;;;;;;;;;;;;;;;;",
";;;;;;;;;;;;;;O%%O%O%O%O%O%O;;------------------------------------------------;;;;;;;;;;;;;;;;;;",
";;;;;;;;;;;;;O%OO%O%O%O%O%O%O;;----------------------------------------------;;;;;;;;;;;;;;;;;;;",
";;;;;;;;;;;;;%O%%O%O%O%O%O%OO;;----------------------------------------------;;;;;;;;;;;;;;;;;;;",
";;;;;;;;;;;;;O%OO%O%O%O%O%O%%;;----------------------------------------------;;;;;;;;;;;;;;;;;;;",
";;;;;;;;;;;;;%%O%O%O%O%O%O%OO;;----------------------------------------------;;;;;;;;;;;;;;;;;;;",
";;;;;;;;;;;OO%O%O%O%O%O%O%O%%O;;--------------------------------------------;;;;;;;;;;;;;;;;;;;;",
";;;;;;;;;;;O%O%O%O%O%O%O%O%O%O%;--------------------------------------------;;;;;;;;;;;;;;;;;;;;",
";;;;;;;;;;;%O%O%O%O%O%O%O%O%O%%;;------------------------------------------;;;;;;;;;;;;;;;;;;;;;",
";;;;;;;;;;;O%O%O%O%O%O%O%O%O%O%O;;----------------------------------------;;;;;;;;;;;;;;;;;;;;;;",
";;;;;;;;;;;%O%O%O%O%O%O%O%O%O%O%.;----------------------------------------;;;;;;;;;;;;;;;;;;;;;;",
";;;;;;;;;;;;%O%O%O%O%O%O%O%O%O%OO;;--------------------------------------;;;;;;;;;;;;;;;;;;;;;;;",
";;;;;;;;;;;;;%O%O%O%O%O%O%O%O%O%O;;--------------------------------------;;;;;;;;;;;;;;;;;;;;;;;",
";;;;;;;;;;;;;O%O%O%O%O%O%O%O%O%OO%;--------------------------------------;;;;;;;;;;;;;;;;;;;;;;;",
";;;;;;;;;;;;;;O%O%O%O%O%O%O%O%O%%O;;------------------------------------;;;;;;;;;;;;;;;;;;;;;;;;",
";;;;;;;;;;;;;;%OO%O%O%O%O%O%%O%O%OO;------------------------------------;;;;;;;;;;;;;;;;;;;;;;;;",
";;;;;;;;;;;;;;O%%O%O%O%O%O%OO%O%O%O;;----------------------------------;;;;;;;;;;;;;;;;;;;;;;;;;",
";;;;;;;;;;;;;;;%O%O%O%O%O%O%%O%O%O.;;----------------------------------;;;;;;;;;;;;;;;;;;;;;;;;;",
";;;;;;;;;;;;;;;%%O%O%O%O%O%OO%O%O%;;;;--------------------------------;;;;;;;;;;;;;;;;;;;;;;;;;;",
";;;;;;;;;;;;;;;;O%O%%O%OO%O%O%%O%.;;;;;------------------------------;;;;;;;;;;;;;;;;;;;;;;;;;;;",
";;;;;;;;;;;;;;;;;%%OO%O%%O%O%OO%-;;;;;;;----------------------------;;;;;;;;;;;;;;;;;;;;;;;;;;;;",
";;;;;;;;;;;;;;;;;;%O%O%OO%O%O%OO;;;;;;;;;--------------------------;;;;;;;;;;;;;;;;;;;;;;;;;;;;;",
";;;;;;;;;;;;;;;;;;;%O%O%%O%O%O%;;;;;;;;;;;------------------------;;;;;;;;;;;;;;;;;;;;;;;;;;;;;;",
";;;;;;;;;;;;;;;;;;;O%O%O%O%O%O%;;;;;;;;;;;;----------------------;;;;;;;;;;;;;;;;;;;;;;;;;;;;;;;",
";;;;;;;;;;;;;;;;;;O%O%O%O%O%O%OO;;;;;;;;;;;----------------------;;;;;;;;;;;;;;;;;;;;;;;;;;;;;;;",
";;;;;;;;;;;;;;;;;%%O%O%O%O%O%OO%O;;;;;;;;;;----------------------;;;;;;;;;;;;;;;;;;;;;;;;;;;;;;;",
";;;;;;;;;;;;;;;;O%O%O%O%O%O%O%%OOO;;;;;;;;;----------------------;;;;;;;;;;;;;;;;;;;;;;;;;;;;;;;",
";;;;;;;;;;;;;;-.%O%O%O%O%O%OO%O%O%.%;;;;;;;----------------------;;;;;;;;;;;;;;;;;;;;;;;;;;;;;;;",
";;;;;;;;;;;;%O..O%O%O%O%O%O%%O%O%OOOOO;;;;;----------------------;;;;;;;;;;;;;;;;;;;;;;;;;;;;;;;",
";;;;;;;;;;  . ..%O%O%O%O%O%OO%O%O%O%O;;;;;------------------------;;;;;;;;;;;;;;;;;;;;;;;;;;;;;;",
";;;;;;;;OO-. ...O%O%O%O%O%O%%O%O%OO;;;;;;--------------------------;;;;;;;;;;;;;;;;;;;;;;;;;;;;;",
";;;;;;O%%O%O%O%O%O%OO%O%O%%O%O%OO;;;;;;------------------------------;;;;;;;;;;;;;;;;;;;;;;;;;;;",
";;;;O%%OO%O%O%O%O%O%%O%O%OO%O%%;;;;;;----------------------------------;;;;;;;;;;;;;;;;;;;;;;;;;",
";;O%O%O%%O%O%O%O%O%OO%O%O%OOO;;;;;;--------------------------------------;;;;;;;;;;;;;;;;;;;;;;;",
";OOO%O%OO%O%O%O%O%O%%O%O%O%;;;;;;------------------------------------------;;;;;;;;;;;;;;;;;;;;;",
";%O%O%O%%O%O%O%O%OO%O%O%%;;;;;;----------------------------------------------;;;;;;;;;;;;;;;;;;;",
"OO%O%O%OO%O%O%O%O%%O%O%;;;;;;--------------------------------------------------;;;;;;;;;;;;;;;;;",
"%OO%O%O%%O%O%O%O%O%%O;;;;;;------------------------------------------------------;;;;;;;;;;;;;;;",
"O%%O%O%OO%O%O%O%O%O;;;;;;----------------------------------------------------------;;;;;;;;;;;;;",
"%O%OO%O%O%O%O%OO%;;;;;;--------------------------------------------------------------;;;;;;;;;;;",
"O%O%%O%O%O%O%O%;;;;;;------------------------------------------------------------------;;;;;;;;;",
"O%%OO%O%O%O%%%;;;;;----------------------------------------------------------------------;;;;;;;",
";%O%%O%O%O%OO;;;;--------------------------------------------------------------------------;;;;;",
";;;;;;;;;;;;;;;;----------------------------------------------------------------------------;;;;",
";;;;;;;;;;;;;;--------------------------------------------------------------------------------;;",
";;;;;;;;;;;;;;--------------------------------------------------------------------------------;;",
";;;;;;;;;;;;;----------------------------------------------------------------------------------;",
";;;;;;;;;;;;;----------------------------------------------------------------------------------;",
";;;;;;;;;;;;------------------------------------------------------------------------------------",
";;;;;;;;;;;;------------------------------------------------------------------------------------",
";;;;;;;;;;;;------------------------------------------------------------------------------------",
";;;;;;;;;;;;------------------------------------------------------------------------------------",
";;;;;;;;;;;;------------------------------------------------------------------------------------",
";;;;;;;;;;;;------------------------------------------------------------------------------------",
";;;;;;;;;;;;------------------------------------------------------------------------------------",
";;;;;;;;;;;;------------------------------------------------------------------------------------",
";;;;;;;;;;;;------------------------------------------------------------------------------------",
";;;;;;;;;;;;;----------------------------------------------------------------------------------;",
";;;;;;;;;;;;;;--------------------------------------------------------------------------------;;",
";;;;;;;;;;;;;;;;;;;;;;;;;;;;;;;;;;;;;;;;;;;;;;;;;;;;;;;;;;;;;;;;;;;;;;;;;;;;;;;;;;;;;;;;;;;;;;;;",
";;;;;;;;;;;;;;;;;;;;;;;;;;;;;;;;;;;;;;;;;;;;;;;;;;;;;;;;;;;;;;;;;;;;;;;;;;;;;;;;;;;;;;;;;;;;;;;;",
";;;;;;;;;;;;;;;;;;;;;;;;;;;;;;;;;;;;;;;;;;;;;;;;;;;;;;;;;;;;;;;;;;;;;;;;;;;;;;;;;;;;;;;;;;;;;;;;",
";;;;;;;;;;;;;;;;;;;;;;;;;;;;;;;;;;;;;;;;;;;;;;;;;;;;;;;;;;;;;;;;;;;;;;;;;;;;;;;;;;;;;;;;;;;;;;;;"
};
