/* XPM */
static char *puzzle[] = {
/* columns rows colors chars-per-pixel */
"96 96 48 1 ",
"  c #16A085",
". c #16A186",
"X c #16A286",
"o c #16A287",
"O c #16A387",
"+ c #16A388",
"@ c #17A488",
"# c #17A489",
"$ c #17A589",
"% c #17A58A",
"& c #17A68A",
"* c #17A78B",
"= c #17A88B",
"- c #17A88C",
"; c #17A98C",
": c #17A98D",
"> c #17AA8D",
", c #18AB8E",
"< c #18AC8E",
"1 c #18AC8F",
"2 c #18AD90",
"3 c #18AE90",
"4 c #18AE91",
"5 c #18AF91",
"6 c #18AF92",
"7 c #18B092",
"8 c #18B093",
"9 c #18B193",
"0 c #19B293",
"q c #19B294",
"w c #19B394",
"e c #19B395",
"r c #19B495",
"t c #19B496",
"y c #19B596",
"u c #19B597",
"i c #19B697",
"p c #19B798",
"a c #19B898",
"s c #19B899",
"d c #1AB999",
"f c #1AB99A",
"g c #1ABA9A",
"h c #1ABA9B",
"j c #1ABB9B",
"k c #1ABB9C",
"l c #1ABC9C",
"z c None",
/* pixels */
"zzzzzzzzzzzzzzzzzzzzzzzzzzzzzzzzzzzzzzzzzzzzzzzzzzzzzzzzzzzzzzzzzzzzzzzzzzzzzzzzzzzzzzzzzzzzzzzz",
"zzzzzzzzzzzzzzzzzzzzzzzzzzzzzzzzzzzzzzzzzzzzzzzzzzzzzzzzzzzzzzzzzzzzzzzzzzzzzzzzzzzzzzzzzzzzzzzz",
"zzzzzzzzzzzzzzzzzzzzzzzzzzzzzzzzzzzzzzzzzzzzzzzzzzzzzzzzzzzzzzzzzzzzzzzzzzzzzzzzzzzzzzzzzzzzzzzz",
"zzzzzzzzzzzzzzzzzzzzzzzzzzzzzzzzzzzzzzzzzzzzzzzzzzzzzzzzzzzzzzzzzzzzzzzzzzzzzzzzzzzzzzzzzzzzzzzz",
"zzzzzzzzzzzzzzzzzzzzzzzzzzzzzzzzzlllllllzzzzzzzzzzzzzzzzzzzzzzzzzzzzzzzzzzzzzzzzzzzzzzzzzzzzzzzz",
"zzzzzzzzzzzzzzzzzzzzzzzzzzzzzzzlllllllllllzzzzzzzzzzzzzzzzzzzzzzzzzzzzzzzzzzzzzzzzzzzzzzzzzzzzzz",
"zzzzzzzzzzzzzzzzzzzzzzzzzzzzzllllllllllllllzzzzzzzzzzzzzzzzzzzzzzzzzzzzzzzzzzzzzzzzzzzzzzzzzzzzz",
"zzzzzzzzzzzzzzzzzzzzzzzzzzzzllllllllllllllllzzzzzzzzzzzzzzzzzzzzzzzzzzzzzzzzzzzzzzzzzzzzzzzzzzzz",
"zzzzzzzzzzzzzzzzzzzzzzzzzzzzlllllllllllllllllzzzzzzzzzzzzzzzzzzzzzzzzzzzzzzzzzzzzzzzzzzzzzzzzzzz",
"zzzzzzzzzzzzzzzzzzzzzzzzzzzllllllllllllllllllzzzzzzzzzzzzzzzzzzzzzzzzzzzzzzzzzzzzzzzzzzzzzzzzzzz",
"zzzzzzzzzzzzzzzzzzzzzzzzzzzlllllllllllllllllllzzzzzzzzzzzzzzzzzzzzzzzzzzzzzzzzzzzzzzzzzzzzzzzzzz",
"zzzzzzzzzzzzzzzzzzzzzzzzzzllllllllllllllllllllzzzzzzzzzzzzzzzzzzzzzzzzzzzzzzzzzzzzzzzzzzzzzzzzzz",
"zzzzzzzzzzzzzzzzzzzzzzzzzzlllllllllllllllllllllzzzzzzzzzzzzzzzzzzzzzzzzzzzzzzzzzzzzzzzzzzzzzzzzz",
"zzzzzzzzzzzzzzzzzzzzzzzzzzlllllllllllllllllllllzzzzzzzzzzzzzzzzzzzzzzzzzzzzzzzzzzzzzzzzzzzzzzzzz",
"zzzzzzzzzzzzzzzzzzzzzzzzzzlllllllllllllllllllllzzzzzzzzzzzzzzzzzzzzzzzzzzzzzzzzzzzzzzzzzzzzzzzzz",
"zzzzzzzzzzzzzzzzzzzzzzzzzzllllllllllllllllllllizzzzzzzzzzzzzzzzzzzzzzzzzzzzzzzzzzzzzzzzzzzzzzzzz",
"zzzzzzzzzzzzzzzzzzzzzzzzzzilllllllllllllllllll@zzzzzzzzzzzzzzzzzzzzzzzzzzzzzzzzzzzzzzzzzzzzzzzzz",
"zzzzzzzzzzzzzzzzzzzzzzzzzz@lllllllllllllllllli zzzzzzzzzzzzzzzzzzzzzzzzzzzzzzzzzzzzzzzzzzzzzzzzz",
"zzzzzzzzzzzzzzzzzzzzzzzzzz 3llllllllllllllllp  zzzzzzzzzzzzzzzzzzzzzzzzzzzzzzzzzzzzzzzzzzzzzzzzz",
"zzzzzzzzzzzzzzzzzzzzzzzzzz  1lllllllllllllll@  zzzzzzzzzzzzzzzzzzzzzzzzzzzzzzzzzzzzzzzzzzzzzzzzz",
"zzzzzzzzzzzzzzzzzzzzzzzzzzz  3lllllllllllll:  zzzzzzzzzzzzzzzzzzzzzzzzzzzzzzzzzzzzzzzzzzzzzzzzzz",
"zzzzzzzzzzzzzzzzzzzzzzzzzzz   lllllllllllli   zzzzzzzzzzzzzzzzzzzzzzzzzzzzzzzzzzzzzzzzzzzzzzzzzz",
"zzzzzzzzzzzzzzzzzzzzzzzzzzzz  3lllllllllll   zzzzzzzzzzzzzzzzzzzzzzzzzzzzzzzzzzzzzzzzzzzzzzzzzzz",
"zzzzzzzzzzzzzzzzzzzzzzzzzzzzz  illllllllli  zzzzzzzzzzzzzzzzzzzzzzzzzzzzzzzzzzzzzzzzzzzzzzzzzzzz",
"zzzzzzzzzzzzzzzzzzzzzzzzzzzzzz illlllllll: zzzzzzzzzzzzzzzzzzzzzzzzzzzzzzzzzzzzzzzzzzzzzzzzzzzzz",
"zzzzzzzzzzzzzzzzzzzzzzzzzzzzzz illlllllll@ zzzzzzzzzzzzzzzzzzzzzzzzzzzzzzzzzzzzzzzzzzzzzzzzzzzzz",
"zzzzzzzzzzzzzzzzzzzzzzzzzzzzzzzilllllllll@zzzzzzzzzzzzzzzzzzzzzzzzzzzzzzzzzzzzzzzzzzzzzzzzzzzzzz",
"zzzzzzzzzzzzzzzzzzzzzzzzzzzzzzzilllllllll@zzzzzzzzzzzzzzzzzzzzzzzzzzzzzzzzzzzzzzzzzzzzzzzzzzzzzz",
"zzzzzzzzzzzzzzzzzzzzzzzzzzzzzzzllllllllllpzzzzzzzzzzzzzzzzzzzzzzzzzzzzzzzzzzzzzzzzzzzzzzzzzzzzzz",
"zzzzzzzzzzzzzzzzzzzzzzzzzzzzzzllllllllllllzzzzzzzzzzzzzzzzzzzzzzzzzzzzzzzzzzzzzzzzzzzzzzzzzzzzzz",
"zzzzzzzzzzzzzzzzzzzzzzzzzzzzzlllllllllllllllzzzzzzzzzzzzzzzzzzzzzzzzzzzzzzzzzzzzzzzzzzzzzzzzzzzz",
"zzzzzzzzzzzzzzzzzzzzzzzzzzzlllllllllllllllllllzzzzzzzzzzzzzzzzzzzzzzzzzzzzzzzzzzzzzzzzzzzzzzzzzz",
"zzzzzzzzzzzzzzlllllllllllllllllllllllllllllllllllllllllllllzzzzzzzzzzzzzzzzzzzzzzzzzzzzzzzzzzzzz",
"zzzzzzzzzzzzlllllllllllllllllllllllllllllllllllllllllllllllllzzzzzzzzzzzzzzzzzzzzzzzzzzzzzzzzzzz",
"zzzzzzzzzzllllllllllllllllllllllllllllllllllllllllllllllllllllzzzzzzzzzzzzzzzzzzzzzzzzzzzzzzzzzz",
"zzzzzzzzzzllllllllllllllllllllllllllllllllllllllllllllllllllllzzzzzzzzzzzzzzzzzzzzzzzzzzzzzzzzzz",
"zzzzzzzzzllllllllllllllllllllllllllllllllllllllllllllllllllllllzzzzzzzzzzzzzzzzzzzzzzzzzzzzzzzzz",
"zzzzzzzzzllllllllllllllllllllllllllllllllllllllllllllllllllllllzzzzzzzzzzzzzzzzzzzzzzzzzzzzzzzzz",
"zzzzzzzzllllllllllllllllllllllllllllllllllllllllllllllllllllllllzzzzzzzzzzzzzzzzzzzzzzzzzzzzzzzz",
"zzzzzzzzllllllllllllllllllllllllllllllllllllllllllllllllllllllllzzzzzzzzzzzzzzzzzzzzzzzzzzzzzzzz",
"zzzzzzzzllllllllllllllllllllllllllllllllllllllllllllllllllllllllzzzzzzzzzzzzzzzzzzzzzzzzzzzzzzzz",
"zzzzzzzzllllllllllllllllllllllllllllllllllllllllllllllllllllllllzzzzzzzzzzzzzzzzzzzzzzzzzzzzzzzz",
"zzzzzzzzllllllllllllllllllllllllllllllllllllllllllllllllllllllllzzzzzzzzzzzzzzzzzzzzzzzzzzzzzzzz",
"zzzzzzzzlllllllllllllllllllllllllllllllllllllllllllllllllllllllizzzzzzzzzzzzzzzzzzzzzzzzzzzzzzzz",
"zzzzzzzzllllllllllllllllllllllllllllllllllllllllllllllllllllllllzzzzzzzzzzzzzzzzzzzzzzzzzzzzzzzz",
"zzzzzzzzllllllllllllllllllllllllllllllllllllllllllllllllllllllllzzzzzzzzzzzzzzzzzzzzzzzzzzzzzzzz",
"zzzzzzzzllllllllllllllllllllllllllllllllllllllllllllllllllllllllzzzzzzzzzzzzzzzzzzzzzzzzzzzzzzzz",
"zzzzzzzzllllllllllllllllllllllllllllllllllllllllllllllllllllllllzzzzzzzzzzzzzzzzzzzzzzzzzzzzzzzz",
"zzzzzzzzllllllllllllllllllllllllllllllllllllllllllllllllllllllllzzzzzzzzzzzzzzzzzzzzzzzzzzzzzzzz",
"zzzzzzzzllllllllllllllllllllllllllllllllllllllllllllllllllllllllzzzzzzzzzzzzzzzzllllzzzzzzzzzzzz",
"zzzzzzzzllllllllllllllllllllllllllllllllllllllllllllllllllllllllpzzzzzzzzzzzzzllllllllzzzzzzzzzz",
"zzzzzzzzlllllllllllllllllllllllllllllllllllllllllllllllllllllllllzzzzzzzzzzzzlllllllllllzzzzzzzz",
"zzzzzzzzpllllllllllllllllllllllllllllllllllllllllllllllllllllllllzzzzzzzzzzzlllllllllllllzzzzzzz",
"zzzzzzzzllllllllllllllllllllllllllllllllllllllllllllllllllllllllllzzzzzzzzzlllllllllllllllzzzzzz",
"zzzzzzzzlllllllllllllllllllllllllllllllllllllllllllllllllllllllllllzzzzzzlllllllllllllllllzzzzzz",
"zzzzzzzzlllllllllllllllllllllllllllllllllllllllllllllllllllllllllllllllllllllllllllllllllllzzzzz",
"zzzzzzzzpllllllllllllllllllllllllllllllllllllllllllllllllllllllllllllllllllllllllllllllllllzzzzz",
"zzzzzzzzllllllllllllllllllllllllllllllllllllllllllllllllllllllllllllllllllllllllllllllllllllzzzz",
"zzzzzzzzllllllllllllllllllllllllllllllllllllllllllllllllllllllllllllllllllllllllllllllllllllzzzz",
"zzzzzzzzllllllllllllllllllllllllllllllllllllllllllllllllllllllllllllllllllllllllllllllllllllzzzz",
"zzzzzzzzllllllllllllllllllllllll3$    $3llllllllllllllllllllllllllllllllllllllllllllllllllllzzzz",
"zzzzzzzzllllllllllllllllllllll3          3llllllllllllllllllllllllllllllllllllllllllllllllllzzzz",
"zzzzzzzzlllllllllllllllllllll1            1llllllllllllllllllllllllllllllllllllllllllllllllizzzz",
"zzzzzzzzllllllllllllllllllli@              @illllllllllllllllllllllllllllllllllllllllllllll1zzzz",
"zzzzzzzzlllllllllllllllllll@    zzzzzzzz    @llllllllllllllllllllllllu4ulllllllllllllllllll zzzz",
"zzzzzzzzllllllllllllllllll1   zzzzzzzzzzzz   3lllllllllllllllllllll4@    illllllllllllllll3 zzzz",
"zzzzzzzzllllllllllllllllli@ @zzzzzzzzzzzzzz   llllllllllllllllllll@       1lllllllllllllll  zzzz",
"zzzzzzzzllllllllllllllllli  zzzzzzzzzzzzzzzz  illllllllllllllllll3@        @alllllllllllp  zzzzz",
"zzzzzzzzlllllllllllllllll3 zzzzzzzzzzzzzzzzzz 1llllllllllllllllll    zzz     4llllllllli   zzzzz",
"zzzzzzzzlllllllllllllllll1zzzzzzzzzzzzzzzzzzzz1lllllllllllllllll3  zzzzzzz    @lllllli:   zzzzzz",
"zzzzzzzzlllllllllllllllllizzzzzzzzzzzzzzzzzzzz3lllllllllllllllll: zzzzzzzzz     $111      zzzzzz",
"zzzzzzzzlllllllllllllllllizzzzzzzzzzzzzzzzzzzzplllllllllllllllll  zzzzzzzzzzz            zzzzzzz",
"zzzzzzzzllllllllllllllllllzzzzzzzzzzzzzzzzzzzzllllllllllllllllll zzzzzzzzzzzzz          zzzzzzzz",
"zzzzzzzzlllllllllllllllllllzzzzzzzzzzzzzzzzzzllllllllllllllllllp zzzzzzzzzzzzzzz      zzzzzzzzzz",
"zzzzzzzzpllllllllllllllllllzzzzzzzzzzzzzzzzzzllllllllllllllllllpzzzzzzzzzzzzzzzzzzzzzzzzzzzzzzzz",
"zzzzzzzzllllllllllllllllllllzzzzzzzzzzzzzzzzllllllllllllllllllllzzzzzzzzzzzzzzzzzzzzzzzzzzzzzzzz",
"zzzzzzzzillllllllllllllllllllzzzzzzzzzzzzzzlllllllllllllllllllllzzzzzzzzzzzzzzzzzzzzzzzzzzzzzzzz",
"zzzzzzzzpllllllllllllllllllllzzzzzzzzzzzzzllllllllllllllllllllllzzzzzzzzzzzzzzzzzzzzzzzzzzzzzzzz",
"zzzzzzzzplllllllllllllllllllllzzzzzzzzzzzzllllllllllllllllllllllzzzzzzzzzzzzzzzzzzzzzzzzzzzzzzzz",
"zzzzzzzzlllllllllllllllllllllllzzzzzzzzzzlllllllllllllllllllllllzzzzzzzzzzzzzzzzzzzzzzzzzzzzzzzz",
"zzzzzzzzullllllllllllllllllllllzzzzzzzzzzllllllllllllllllllllllpzzzzzzzzzzzzzzzzzzzzzzzzzzzzzzzz",
"zzzzzzzzullllllllllllllllllllllzzzzzzzzzzllllllllllllllllllllllizzzzzzzzzzzzzzzzzzzzzzzzzzzzzzzz",
"zzzzzzzzullllllllllllllllllllllzzzzzzzzzzllllllllllllllllllllll:zzzzzzzzzzzzzzzzzzzzzzzzzzzzzzzz",
"zzzzzzzz@llllllllllllllllllllllzzzzzzzzzzllllllllllllllllllllll@zzzzzzzzzzzzzzzzzzzzzzzzzzzzzzzz",
"zzzzzzzz ullllllllllllllllllll3zzzzzzzzzzillllllllllllllllllll@ zzzzzzzzzzzzzzzzzzzzzzzzzzzzzzzz",
"zzzzzzzz  ullllllllllllllllll3 zzzzzzzzzz illllllllllllllllll3  zzzzzzzzzzzzzzzzzzzzzzzzzzzzzzzz",
"zzzzzzzzz  @lllllllllllllllli  zzzzzzzzzz  3llllllllllllllll3  zzzzzzzzzzzzzzzzzzzzzzzzzzzzzzzzz",
"zzzzzzzzz   @@4llllllllllp3    zzzzzzzzzz    1iillllllllll3$   zzzzzzzzzzzzzzzzzzzzzzzzzzzzzzzzz",
"zzzzzzzzzz      @@@@:::@      zzzzzzzzzzzz       @  @         zzzzzzzzzzzzzzzzzzzzzzzzzzzzzzzzzz",
"zzzzzzzzzzz                  zzzzzzzzzzzzzz                  zzzzzzzzzzzzzzzzzzzzzzzzzzzzzzzzzzz",
"zzzzzzzzzzzz                zzzzzzzzzzzzzzzz                zzzzzzzzzzzzzzzzzzzzzzzzzzzzzzzzzzzz",
"zzzzzzzzzzzzzzz           zzzzzzzzzzzzzzzzzzzzz           zzzzzzzzzzzzzzzzzzzzzzzzzzzzzzzzzzzzzz",
"zzzzzzzzzzzzzzzzzzzzzzzzzzzzzzzzzzzzzzzzzzzzzzzzzzzzzzzzzzzzzzzzzzzzzzzzzzzzzzzzzzzzzzzzzzzzzzzz",
"zzzzzzzzzzzzzzzzzzzzzzzzzzzzzzzzzzzzzzzzzzzzzzzzzzzzzzzzzzzzzzzzzzzzzzzzzzzzzzzzzzzzzzzzzzzzzzzz",
"zzzzzzzzzzzzzzzzzzzzzzzzzzzzzzzzzzzzzzzzzzzzzzzzzzzzzzzzzzzzzzzzzzzzzzzzzzzzzzzzzzzzzzzzzzzzzzzz",
"zzzzzzzzzzzzzzzzzzzzzzzzzzzzzzzzzzzzzzzzzzzzzzzzzzzzzzzzzzzzzzzzzzzzzzzzzzzzzzzzzzzzzzzzzzzzzzzz"
};
