/* XPM */
static char *shop[] = {
/* columns rows colors chars-per-pixel */
"96 96 57 1 ",
"  c #C0392B",
". c #C83D2E",
"X c #DF751C",
"o c #C54229",
"O c #CF5623",
"+ c #CD5225",
"@ c #E74C3C",
"# c #E85B3A",
"$ c #E96C3F",
"% c #BF5C52",
"& c #C44D40",
"* c #C44F42",
"= c #C76556",
"- c #C76B5C",
"; c #E96E4E",
": c #EA7F4B",
"> c #C87D6D",
", c #EE9214",
"< c #F39B12",
"1 c #F39C12",
"2 c #F39C13",
"3 c #EDA024",
"4 c #F1C40F",
"5 c #DEAB5A",
"6 c #C98577",
"7 c #EA8B61",
"8 c #ECA576",
"9 c #EBA979",
"0 c #2980B9",
"q c #7F8C8D",
"w c #3498DB",
"e c #95A5A6",
"r c #95A5A7",
"t c #BDA1A1",
"y c #C9A99F",
"u c #CDB791",
"i c #CBB99A",
"p c #ECBF9A",
"a c #C9B2A9",
"s c #C6BAB5",
"d c #C2BFB5",
"f c #C6BFBB",
"g c #ECCFA3",
"h c #EDDEBB",
"j c #BCC3C6",
"k c #BDC3C7",
"l c #BEC3C7",
"z c #BDC4C7",
"x c #BCC3C8",
"c c #C2C3C4",
"v c #C2C5C6",
"b c #C6CCCF",
"n c #EBD8C3",
"m c #ECE9D7",
"M c #ECF0F0",
"N c #ECF0F1",
"B c None",
/* pixels */
"BBBBBBBBBBBBBBBBBBBBBBBBBBBBBBBBBBBBBBBBBBBBBBBBBBBBBBBBBBBBBBBBBBBBBBBBBBBBBBBBBBBBBBBBBBBBBBBB",
"BBBBBBBBBBBBBBBBBBBBBBBBBBBBBBBBBBBBBBBBBBBBBBBBBBBBBBBBBBBBBBBBBBBBBBBBBBBBBBBBBBBBBBBBBBBBBBBB",
"BBBBBBBBBBBBBBBBBBBBBBBBBBBBBBBBBBBBBBBBBBBBBBBBBBBBBBBBBBBBBBBBBBBBBBBBBBBBBBBBBBBBBBBBBBBBBBBB",
"BBBBBBBBBBBBBBBBBBBBBBBBBBBBBBBBBBBBBBBBBBBBBBBBBBBBBBBBBBBBBBBBBBBBBBBBBBBBBBBBBBBBBBBBBBBBBBBB",
"BBBBBBBBBBBBBBBBBBlxlxlxvxxlxlxllxlxlllllxjxlllllllxlxlxlxlxllllxjljxlxllllxlxBBBBBBBBBBBBBBBBBB",
"BBBBBBBBBBBBBBBBxljljljllllllxlxxlxlllllljllxjxjllxlxlxlxlxllllllllxjljlllxlxlxlBBBBBBBBBBBBBBBB",
"BBBBBBBBBBBBBBllljlxlxljllllxlxllxlxlxlllxlljllxlllxlxlxlxlxlxllxjxlllxjlllxlxlxllBBBBBBBBBBBBBB",
"BBBBBBBBBBBBllllxljljlxllllllxlxxlxlxlxlljxjxlljllllxlxlxlxlxlxllljljxllllllxlxllllzBBBBBBBBBBBB",
"BBBBBBBBBBlxlxlxljljlxljlxjxjjjjlxlxlxjxjxjllxjxlllllllllxlxjxjlxlxlxlxjllzzxxxxllllxlBBBBBBBBBB",
"BBBBBBBBBlllxlxlxlxljlxljjxjxjjjxlxlljllllxlljllxjxjxjxjxlljllxllxlxlxlxllzzxxxxlllllxlBBBBBBBBB",
"BBBBBBBllllllxlxljlxljljlxjxjxjjlljllxlllljllxlljllxjllxlxjxlljlxlxlxlxlllxzxxxxxlxlxlxllBBBBBBB",
"BBBBBxxlllllxlxlxljlxlxljlxjxjjjxjxlljxjxjxlljxjxlljxlljxlllxjxllxlllxlxllxxxxxtlxlxlxlxllxBBBBB",
"BBBBqqqqqqqqqqqqqqqqqqqqqqqqqqqqqqqqqqqqqqqqqqqqqqqqqqqqqqqqqqqqqqqqqqqqqqqqqqqqqqqqqqqqqqqqBBBB",
"BBBBqqqqqqqqqqqqqqqqqqqqqqqqqqqqqqqqqqqqqqqqqqqqqqqqqqqqqqqqqqqqqqqqqqqqqqqqqqqqqqqqqqqqqqqqBBBB",
"BBBBqqqqqqqqqqqqqqqqqqqqqqqqqqqqqqqqqqqqqqqqqqqqqqqqqqqqqqqqqqqqqqqqqqqqqqqqqqqqqqqqqqqqqqqqBBBB",
"BBBBqqqqqqqqqqqqqqqqqqqqqqqqqqqeqqqqqqqqqqqqqqqqqqqqqqqqqqqqqqqqqqqqqqqqqqqqqqqeqqqqqqqqqqqqBBBB",
"BBBBBBBB           =lllljxjlxlxt       &xlxlxlxl        jjxxvzzz=           dxxxxllllzxvBBBBBBBB",
"BBBBBBB.           sllllxjxjljx%       6lxlxlxll        alxxxxzzs           -xxxlxlllxxxvBBBBBBB",
"BBBBBBB           =llxlxxxxxxlt        yxlxlxlll        6xxxlllll=           dxlxlllllxxxBBBBBBB",
"BBBBBB.           slxlxlxxxxlj*       &tjxlxlxll        oxxxllllls           -lllxllllxxvbBBBBBB",
"BBBBBB@@@@@@@@@@@;NNMMMMMMMMMp@@@@@@@@#MMMMMNNNN@@@@@@@@@mNNNNNNNN$@@@@@@@@@@@hMMMMMNNNNNNBBBBBB",
"BBBBB@@@@@@@@@@@@gNNMMMMMMMMM$@@@@@@@@7MMMMMNNNN@@@@@@@@@gNNNNNNNNp@@@@@@@@@@@7MMMMMNNNNNNNBBBBB",
"BBBBB@@@@@@@@@@@$MNNMMMMMMMMp@@@@@@@@@9MMMMMNNNN@@@@@@@@@9NNNNNNNNN$@@@@@@@@@@@hMMMMNNNNNNNBBBBB",
"BBBB@@@@@@@@@@@@pMNMMMMMMMMM$@@@@@@@@@nMMMMMNNNN@@@@@@@@@;NNNNNNNNNp@@@@@@@@@@@7MMMMNNNNNNNNBBBB",
"BBBB@@@@@@@@@@@$MMMMNNNNNNNp@@@@@@@@@#MMNNNNNNNN@@@@@@@@@@mNNNNNNNNN$@@@@@@@@@@@nMMNNNNNNNNNBBBB",
"BBB@@@@@@@@@@@@pMMMMNNNNNNM;@@@@@@@@@:MMNNNNNNNN@@@@@@@@@@gNNNNNNNNNp@@@@@@@@@@@7MMMNNNNNNNNNBBB",
"BBB@@@@@@@@@@@$NMMMMNNNNMMp@@@@@@@@@@9MMNNNNNNNN@@@@@@@@@@8NNNNNNNNNN$@@@@@@@@@@@hMMNNNNNNNNNBBB",
"BB@@@@@@@@@@@@pNMMMMNNNNMM$@@@@@@@@@@nMMNNNNNNNN@@@@@@@@@@;MNNNNNNNNNp@@@@@@@@@@@7MMNNNNNNNNNMBB",
"BB@@@@@@@@@@@$NNMMNNNNNNMp@@@@@@@@@@#MMMNNNNNNNN@@@@@@@@@@@mNNNNNNNNNN$@@@@@@@@@@@hNNNNNNNNNNNBB",
"B@@@@@@@@@@@@pNNMMNNNNNNM;@@@@@@@@@@:MMMNNNNNNNN@@@@@@@@@@@gNNNNNNNNNNp@@@@@@@@@@@7NNNNNNNNNNNNB",
"B@@@@@@@@@@@$NNNMNNNNNNNp@@@@@@@@@@@9MMMNNNNNNNN@@@@@@@@@@@8NNNNNNNNNNM$@@@@@@@@@@@nNNNNNNNNNNMB",
"@@@@@@@@@@@@pNNNMNNNNNNN$@@@@@@@@@@@nMMMNNNNNNNN@@@@@@@@@@@;NNNNNNNNNNMg@@@@@@@@@@@7NNNNNNNNNNMM",
"            lxlxllllllll            xxxxlxjxjllx            jxjlllxlxjll            xlxjlxjxjllx",
"            xlxlxjxjxjxj            xxxxljllxllj            llxljxjllljx            jlllljllxllj",
"            jllxjllxjllx            lllllxlxjxjx            lljlllxlxlxl            ljxjlxlxjxjx",
"            xlxlxlljxllj            llllljxlllll            xjxljxlxjljl            lxllljxlllll",
"            lxlxjxjllxjx            llxllxlxlxlz            jxjlxlxlllll            xlxjlxlxlxll",
"            xlxlllxlljll            lxlxxlxlxlxz            llxllxlxllll            jlllxlxlxlll",
"           odxlxlljllxxdo         ootlxllxlxlxxdo          odljlxlxlxlzdo          odjxjlxlxlxll",
"           OulxlxjxlljxuO         oOixlxxlxlxlxuO          OujxllxlxlxzuO          Ouxllxlxlxlll",
"B          X5xxxjllxjxj5X          X5xxxzxlxxzz5X          X5xxxzzzzzzz5X          X5xxlxlxllllB",
"B         +12uxxxlljllu11+        +22uxxzlxlxxu21+        +11ulxzzzzzzi11+        O12uxxlxlxlllB",
"BB       O,123uxjllxxu321,O      +,213ulxllxlu311,O      O,123uxzzxlzi311,O      +,113uxxlxlllBB",
"BBBB    X1111125uddu5212111XOooOX2221125uddu5111111XOooOX1112225idtu5111111XOooOX1111225lxxxBBBB",
"BBBBBBBB11111111lxlxxxlxlxjxlxlxxxlxlxlxlxlxlxjlxxjl1111jxlxxxlxjllljxjxxxlxlxlx11111111BBBBBBBB",
"BBBBBBBB11111111xlxlxlxlljllxlxlxxxlxlxlxlxlljxlxlxl1111llxlxlxlxlxjllllxlxlxlxl11111111BBBBBBBB",
"BBBBBBBB11111111lxlxlxlxlxlxlxlxlxlxlxlxlxlxlllllljl1111lxlxlxlxjljxlxjljxlxlxlx11111111BBBBBBBB",
"BBBBBBBB11111111xlxlxlxlxlxlxlxlxlxlxlxlxlxlxjxjxjxl1111ljxlxlxlxlllljxlllljxlxl11111111BBBBBBBB",
"BBBBBBBB11111111lxlx000000000000xxxx000000000000jxjl1111lxlx0000000000000000lxlx11111111BBBBBBBB",
"BBBBBBBB11111111llxl000000000000xxxx000000000000llxl1111xlxl0000000000000000llxl11111111BBBBBBBB",
"BBBBBBBB11111111llzx000000000000xxxx000000000000lljl1122lxlx0000000000000000llll11111111BBBBBBBB",
"BBBBBBBB11111111llzx000000000000xxxt00000000000wxjxl2222xlxl0000000000000000llll11111111BBBBBBBB",
"BBBBBBBB44444444NNNNwwwwwwwwwwwwNNNNwwwwwwwwwwwwMMMM4444MMMMwwwwwwwwwwwwwwwwNNNN44444444BBBBBBBB",
"BBBBBBBB44444444NNNNwwwwwwwwwwwwNNNNwwwwwwwwwwwwMMMM4444MMMMwwwwwwwwwwwwwwwwNNNN44444444BBBBBBBB",
"BBBBBBBB44444444NNNNwwwwwwwwwwwwNNNNwwwwwwwwwwwwMMMM4444MMMMwwwwwwwwwwwwwwwwNNNN44444444BBBBBBBB",
"BBBBBBBB44444444NNNNwwwwwwwwwwwwNNNNwwwwwwwwwwwwMMMM4444MMMMwwwwwwwwwwwwwwwwNNNN44444444BBBBBBBB",
"BBBBBBBB44444444NNNNwwwwwwwwwwwwNNNNwwwwwwwwwwwwNNNN4444MMNNwwwwwwwwwwwwwwwwNNNN44444444BBBBBBBB",
"BBBBBBBB44444444NNNNwwwwwwwwwwwwNNNNwwwwwwwwwwwwNNNN4444MMNNwwwwwwwwwwwwwwwwNNNN44444444BBBBBBBB",
"BBBBBBBB44444444NNNNwwwwwwwwwwwwNNNNwwwwwwwwwwwwNNNN4444MMMNwwwwwwwwwwwwwwwwNNNN44444444BBBBBBBB",
"BBBBBBBB44444444NNNNwwwwwwwwwwwwNNNNwwwwwwwwwwwwNNNN4444MMMNwwwwwwwwwwwwwwwwNNNN44444444BBBBBBBB",
"BBBBBBBB44444444NNNNNNNNNNNNNNNNNNNNNNNNNNNNNNNNNNNN4444NNNNwwwwwwwwwwwwwwwwNNNN44444444BBBBBBBB",
"BBBBBBBB44444444NNNNNNNNNNNNNNNNNNNNNNNNNNNNNNNNNNNN4444NNNNwwwwwwwwwwwwwwwwNNNN44444444BBBBBBBB",
"BBBBBBBB44444444NNNNNNNNNNNNNNNNNNNNNNNNNNNNNNNNNNNN4444NNNNwwwwwwwwwwwwwwwwNNNN44444444BBBBBBBB",
"BBBBBBBB44444444NNNNNNNNNNNNNNNNNNNNNNNNNNNNNNNNNNNN4444NNNNwwwwwwwwwwwwwwwwNNNN44444444BBBBBBBB",
"BBBBBBBB44444444NNNNwwwwwwwwwwwwNNNNwwwwwwwwwwwwNNNN4444NNNNNNNNNNNNNNNNNNNNNNNN44444444BBBBBBBB",
"BBBBBBBB44444444NNNNwwwwwwwwwwwwNNNNwwwwwwwwwwwwNNNN4444NNNNNNNNNNNNNNNNNNNNNNNN44444444BBBBBBBB",
"BBBBBBBB44444444NNNNwwwwwwwwwwwwNNNNwwwwwwwwwwwwNNNN4444NNNNNNNNNNNNNNNNNNNNNNNN44444444BBBBBBBB",
"BBBBBBBB44444444NNNNwwwwwwwwwwwwNNNNwwwwwwwwwwwwNNNN4444NNNNNNNNNNNNNNNNNNNNNNNN44444444BBBBBBBB",
"BBBBBBBB44444444NNNNwwwwwwwwwwwwNNNNwwwwwwwwwwwwNNNN4444NNNNwwwwwwwwwwwwwwwwNNNN44444444BBBBBBBB",
"BBBBBBBB44444444NNNNwwwwwwwwwwwwNNNNwwwwwwwwwwwwNNNN4444NNNNwwwwwwwwwwwwwwwwNNNN44444444BBBBBBBB",
"BBBBBBBB44444444NNNNwwwwwwwwwwwwNNNNwwwwwwwwwwwwNNNN4444NNNNwwwwwwwwwwwwwwwwNNNN44444444BBBBBBBB",
"BBBBBBBB44444444NNNNwwwwwwwwwwwwNNNNwwwwwwwwwwwwNNNN4444NNNNwwwwwwwwwwwwwwwwNNNN44444444BBBBBBBB",
"BBBBBBBB44444444NNNN000000000000NNNN000000000000NNNN4444NNNN0000000000000000NNNN44444444BBBBBBBB",
"BBBBBBBB44444444NNNN000000000000NNNN000000000000NNNN4444NNNN0000000000000000NNNN44444444BBBBBBBB",
"BBBBBBBB44444444NNNN000000000000NNNN000000000000NNNN4444NNNN0000000000000000NNNN44444444BBBBBBBB",
"BBBBBBBB44444444NNNN000000000000NNNN000000000000NNNN4444NNNN0000000000000000NNNN44444444BBBBBBBB",
"BBBBBBBB44444444NNNNNNNNNNNNNNNNNNNNNNNNNNNNMNNNNNNN4444NNNN0000000000000000NNNN44444444BBBBBBBB",
"BBBBBBBr44444444NNNNNNNNNNNNNNNNNNNNNNNNNNNNMMNNNNNN4444NNNN0000000000000000NNNN44444444rBBBBBBB",
"BBBBBBrr44444444NNNNNNNNNNNNNNNNNNNNNNNNNNNNMMMMNNNN4444NNNN0000000000000000NNNN44444444rrBBBBBB",
"BBBBBBrr44444444NNNNNNNNNNNNNNNNNNNNNNNNNNNNMMMMNNNN4444NNNN0000000000000000NNNN44444444rrBBBBBB",
"BBBBBeee444444444444444444444444444444444444444444444444MMMM0000000000000000MMMM44444444eeeBBBBB",
"BBBBreee444444444444444444444444444444444444444444444444NMMM0000000000000000NMMM44444444eeerBBBB",
"BBBBrree444444444444444444444444444444444444444444444444NNMM0000000000000000NNMM44444444eeeeBBBB",
"BBBrrree444444444444444444444444444444444444444444444444NNMM0000000000000000NNMM44444444eeeerBBB",
"BBrreeeeeeeerrrerreeeeeeeeeeeeeeeeeerrrreeeeeeeeeeeeeeeerrrrrrreeeeeeeeerrrrrrrerreeeeeeeerrrrBB",
"BBrreeeeeeeerreerrereeeeeeeeeeeeeeeerrrreeeeeeeeeeeeeeeerrrrrreeeeeeeeeerrrrrreerreeeeeeeeerrrBB",
"BrrreeeeeeeerrrrrrrreeeeeeeeeeeeeeeererreeeeeeeeeeeeeeeeeerrrrrreeeeeeeeeerrrrrrrrreeeeeeerrrrrB",
"rrrreeeeeeeerrrrrrrreeeeeeeeeeeeeeeeeerreeeeeeeeeeeeeeeeeeerrrrreeeeeeeeeeerrrrrrreeeeeeeerrrrrr",
"qqqqqqqqqqqqqqqqqqqqqqqqqqqqqqqqqqqqqqqqqqqqqqqqqqqqqqqqqqqqqqqqqqqqqqqqqqqqqqqqqqqqqqqqqqqqqqqq",
"qqqqqqqqqqqqqqqqqqqqqqqqqqqqqqqqqqqqqqqqqqqqqqqqqqqqqqqqqqqqqqqqqqqqqqqqqqqqqqqqqqqqqqqqqqqqqqqq",
"qqqqqqqqqqqqqqqqqqqqqqqqqqqqqqqqqqqqqqqqqqqqqqqqqqqqqqqqqqqqqqqqqqqqqqqqqqqqqqqqqqqqqqqqqqqqqqqq",
"qqqqqqqqqqqqqqqqqqqqqqqqqqqqqqqqqqqqqqqqqqqqqqqqqqqqqqqqqqqqqqqqqqqqqqqqqqqqqqqqqqqqqqqqqqqqqqqq",
"BBBBBBBBBBBBBBBBBBBBBBBBBBBBBBBBBBBBBBBBBBBBBBBBBBBBBBBBBBBBBBBBBBBBBBBBBBBBBBBBBBBBBBBBBBBBBBBB",
"BBBBBBBBBBBBBBBBBBBBBBBBBBBBBBBBBBBBBBBBBBBBBBBBBBBBBBBBBBBBBBBBBBBBBBBBBBBBBBBBBBBBBBBBBBBBBBBB",
"BBBBBBBBBBBBBBBBBBBBBBBBBBBBBBBBBBBBBBBBBBBBBBBBBBBBBBBBBBBBBBBBBBBBBBBBBBBBBBBBBBBBBBBBBBBBBBBB",
"BBBBBBBBBBBBBBBBBBBBBBBBBBBBBBBBBBBBBBBBBBBBBBBBBBBBBBBBBBBBBBBBBBBBBBBBBBBBBBBBBBBBBBBBBBBBBBBB"
};
