/* XPM */
static const char *sign_up[] = {
/* columns rows colors chars-per-pixel */
"96 96 66 1 ",
"  c #2980B9",
". c #2980BA",
"X c #2981BB",
"o c #2A82BB",
"O c #2A83BD",
"+ c #2B83BE",
"@ c #2B84BF",
"# c #3084BB",
"$ c #2C86C1",
"% c #2C86C2",
"& c #2C87C3",
"* c #2D88C4",
"= c #2D88C5",
"- c #2D89C6",
"; c #2D8AC7",
": c #2E8AC7",
"> c #2D8AC8",
", c #2E8AC8",
"< c #2E8BC8",
"1 c #2E8CCA",
"2 c #2F8DCC",
"3 c #2F8ECD",
"4 c #2F8FCF",
"5 c #308FCE",
"6 c #3090CF",
"7 c #3191D1",
"8 c #3192D2",
"9 c #3293D3",
"0 c #3293D4",
"q c #3294D5",
"w c #3294D6",
"e c #3295D6",
"r c #3395D7",
"t c #3396D7",
"y c #3396D8",
"u c #3396D9",
"i c #3397D9",
"p c #3497D9",
"a c #3497DA",
"s c #3398DA",
"d c #3498DA",
"f c #3498DB",
"g c #3699DB",
"h c #3D9CDC",
"j c #4993C3",
"k c #5A9CC7",
"l c #5BA0CB",
"z c #47A1DE",
"x c #56A8DF",
"c c #73AACE",
"v c #62AEE0",
"b c #6BB3E2",
"n c #83BEE4",
"m c #A3C7DC",
"M c #9DCAE8",
"N c #BCD5E3",
"B c #B5D5EA",
"V c #BFDBEB",
"C c #CCDDE7",
"Z c #CAE0ED",
"A c #D9E7EE",
"S c #E5ECEF",
"D c #E3ECF0",
"F c #EAEFF1",
"G c #ECF0F1",
"H c None",
/* pixels */
"HHHHHHHHHHHHHHHHHHHHHHHHHHHHHHHHHHHHHHHHHHHHHHHHHHHHHHHHHHHHHHHHHHHHHHHHHHHHHHHHHHHHHHHHHHHHHHHH",
"HHHHHHHHHHHHHHHHHHHHHHHHHHHHHHHHHHHHHHHHHHHHHHHHHHHHHHHHHHHHHHHHHHHHHHHHHHHHHHHHHHHHHHHHHHHHHHHH",
"HHHHHHHHHHHHHHHHHHHHHHHHHHHHHHHHHHHHHHHHHHHHHHHHHHHHHHHHHHHHHHHHHHHHHHHHHHHHHHHHHHHHHHHHHHHHHHHH",
"HHHHHHHHHHHHHHHHHHHHHHHHHHHHHHHHHHHHHHHHHHHHHHHHHHHHHHHHHHHHHHHHHHHHHHHHHHHHHHHHHHHHHHHHHHHHHHHH",
"HHHHHHHHHHHHHHHHHHHHHHHHHHHHHHHHHHHHHHHHHHHHHHHHHHHHHHHHHHHHHHHHHHHHHHHHHHHHHHHHHHHHHHHHHHHHHHHH",
"HHHHHHHHHHHHHHHHHHHHHHHHHHHHHHHHHHHHHHHHHHHHHHHHHHHHHHHHHHHHHHHHHHHHHHHHHHHHHHHHHHHHHHHHHHHHHHHH",
"HHHHHHHHHHHHHHHHHHHHHHHHHHHHHHHHHHHHHHHHHHHHHHHHHHHHHHHHHHHHHHHHHHHHHHHHHHHHHHHHHHHHHHHHHHHHHHHH",
"HHHHHHHHHHHHHHHHHHHHHHHHHHHHHHHHHHHHHHHHHHHHHHHHHHHHHHHHHHHHHHHHHHHHHHHHHHHHHHHHHHHHHHHHHHHHHHHH",
"HHHHHHHHHHHHHHHHHHHHHHHHHHHHHHHHHHHHHHHHHHHffffffffffHHHHHHHHHHHHHHHHHHHHHHHHHHHHHHHHHHHHHHHHHHH",
"HHHHHHHHHHHHHHHHHHHHHHHHHHHHHHHHHHHHHHffffffffffffffffffffHHHHHHHHHHHHHHHHHHHHHHHHHHHHHHHHHHHHHH",
"HHHHHHHHHHHHHHHHHHHHHHHHHHHHHHHHHHHffffffffffffffffffffffffffHHHHHHHHHHHHHHHHHHHHHHHHHHHHHHHHHHH",
"HHHHHHHHHHHHHHHHHHHHHHHHHHHHHHHHffffffffffffffffffffffffffffffffHHHHHHHHHHHHHHHHHHHHHHHHHHHHHHHH",
"HHHHHHHHHHHHHHHHHHHHHHHHHHHHHHffffffffffffffffffffffffffffffffffffHHHHHHHHHHHHHHHHHHHHHHHHHHHHHH",
"HHHHHHHHHHHHHHHHHHHHHHHHHHHHffffffffffffffffffffffffffffffffffffffffHHHHHHHHHHHHHHHHHHHHHHHHHHHH",
"HHHHHHHHHHHHHHHHHHHHHHHHHHffffffffffffffffffffffffffffffffffffffffffffHHHHHHHHHHHHHHHHHHHHHHHHHH",
"HHHHHHHHHHHHHHHHHHHHHHHHHffffffffffffffffffffffffffffffffffffffffffffffHHHHHHHHHHHHHHHHHHHHHHHHH",
"HHHHHHHHHHHHHHHHHHHHHHHHffffffffffffffffffffffffffffffffffffffffffffffffHHHHHHHHHHHHHHHHHHHHHHHH",
"HHHHHHHHHHHHHHHHHHHHHHffffffffffffffffffffffffffffffffffffffffffffffffffffHHHHHHHHHHHHHHHHHHHHHH",
"HHHHHHHHHHHHHHHHHHHHHffffffffffffffffffffffffffffffffffffffffffffffffffffffHHHHHHHHHHHHHHHHHHHHH",
"HHHHHHHHHHHHHHHHHHHHffffffffffffffffffffffffffffffffffffffffffffffffffffffffHHHHHHHHHHHHHHHHHHHH",
"HHHHHHHHHHHHHHHHHHHffffffffffffffffffffffffffffffffffffffffffffffffffffffffffHHHHHHHHHHHHHHHHHHH",
"HHHHHHHHHHHHHHHHHHffffffffffffffffffffffffffffffffffffffffffffffffffffffffffffHHHHHHHHHHHHHHHHHH",
"HHHHHHHHHHHHHHHHHffffffffffffffffffffffffffffffffffffffffffffffffffffffffffffffHHHHHHHHHHHHHHHHH",
"HHHHHHHHHHHHHHHHHffffffffffffffffffffffffffffffffffffffffffffffffffffffffffffffHHHHHHHHHHHHHHHHH",
"HHHHHHHHHHHHHHHHfffffffffffffffffffffffffffffffnnfffffffffffffffffffffffffffffffHHHHHHHHHHHHHHHH",
"HHHHHHHHHHHHHHHfffffffffffffffffffffffffffffffbGGbfffffffffffffffffffffffffffffffHHHHHHHHHHHHHHH",
"HHHHHHHHHHHHHHfffffffffffffffffffffffffffffffxDGGDxfffffffffffffffffffffffffffffffHHHHHHHHHHHHHH",
"HHHHHHHHHHHHHHffffffffffffffffffffffffffffffzAGGGGAzffffffffffffffffffffffffffffffHHHHHHHHHHHHHH",
"HHHHHHHHHHHHHffffffffffffffffffffffffffffffhZGGGGGGZhffffffffffffffffffffffffffffffHHHHHHHHHHHHH",
"HHHHHHHHHHHHHffffffffffffffffffffffffffffffBGGGGGGGGBffffffffffffffffffffffffffffffHHHHHHHHHHHHH",
"HHHHHHHHHHHHffffffffffffffffffffffffffffffMGGGGGGGGGGMffffffffffffffffffffffffffffffHHHHHHHHHHHH",
"HHHHHHHHHHHHfffffffffffffffffffffffffffffnGGGGGGGGGGGGnfffffffffffffffffffffffffffffHHHHHHHHHHHH",
"HHHHHHHHHHHfffffffffffffffffffffffffffffbFFGGGGGGGGGGGFbfffffffffffffffffffffffffffffHHHHHHHHHHH",
"HHHHHHHHHHHffffffffffffffffffffffffffffxSGFGGGGGGGGGGGGSxffffffffffffffffffffffffffffHHHHHHHHHHH",
"HHHHHHHHHHHfffffffffffffffffffffffffffzAGGGGGGGGGGGGGGGGAzfffffffffffffffffffffffffffHHHHHHHHHHH",
"HHHHHHHHHHfffffffffffffffffffffffffffhZGGGGGGGGGGGGGGGGGGZhfffffffffffffffffffffffffffHHHHHHHHHH",
"HHHHHHHHHHfffffffffffffffffffffffffffBGGGGGGGGGGGGGGGGGGGGBfffffffffffffffffffffffffffHHHHHHHHHH",
"HHHHHHHHHHffffffffffffffffffffffffffMGGGGGGGGGGGGGGGGGGGGGGMffffffffffffffffffffffffffHHHHHHHHHH",
"HHHHHHHHHffffffffffffffffffffffffffnGGGGGGGGGGGGGGGGGGGGGGGGnffffffffffffffffffffffffffHHHHHHHHH",
"HHHHHHHHHfffffffffffffffffffffffffbGGGGGGGGGGGGGGGGGGGGGGGGGFbfffffffffffffffffffffffffHHHHHHHHH",
"HHHHHHHHHffffffffffffffffffffffffxDGGGGGGGGmGGGGGGGGmGGGGGGGGSxffffffffffffffffffffffffHHHHHHHHH",
"HHHHHHHHHfffffffffffffffffffffffzAGGGGGGGGC#GGGGGGGG#CGGGGGGGGAzfffffffffffffffffffffffHHHHHHHHH",
"HHHHHHHHHffffffffffffffffffffffhZGGGGGGGGSj GGGGGGGG jFGGGGGGGGZhffffffffffffffffffffffHHHHHHHHH",
"HHHHHHHHaffffffffffffffffffffffBGGGGGGGGGc  GGGGGGGG  cGGGGGGGGGBffffffffffffffffffffffaHHHHHHHH",
"HHHHHHHHeaffffffffffffffffffffMGGGGGGGGGm  4GGGGGGGG=  mGGGGGGGGGMfffffffffffffffffffffeHHHHHHHH",
"HHHHHHHHaffffffffffffffffffffnGGGGGGGGGC#  aGGGGGGGGa$  CGGGGGGGGGnffffffffffffffffffffeHHHHHHHH",
"HHHHHHHHafffffffffffffffffffbGGGGGGGGGSj  efGGGGGGGGfe  jSGGGGGGGGGbfffffffffffffffffffaHHHHHHHH",
"HHHHHHHHfffffffffffffffffffxDGGGGGGGGGc  4ffGGGGGGGGff6  cGGGGGGGGGDxfffffffffffffffffffHHHHHHHH",
"HHHHHHHHafffffffffffffffffzAGGGGGGGGGm  =fffGGGGGGGGfff=  mGGGGGGGGGAzfffffffffffffffffeHHHHHHHH",
"HHHHHHHHeffffffffffffffffhZGGGGGGGGGC#  ffffGGGGGGGGfffa   CGGGGGGGGGZhffffffffffffffffeHHHHHHHH",
"HHHHHHHHeffffffffffffffffBGGGGGGGGGDj  effffGGGGGGGGffffa  jFGGGGGGGGGBffffffffffffffffeHHHHHHHH",
"HHHHHHHH5affffffffffffffMGGGGGGGGGGc  5fffffGGGGGGGGfffff6  cGGGGGGGGGGMffffffffffffffa5HHHHHHHH",
"HHHHHHHH5fffffffffffffffvCDGGGGGGGm  4afffffGGGGGGGGffffff4  mGGGGGGGGVvfffffffffffffff4HHHHHHHH",
"HHHHHHHH4fffffffffffffffsskNGGGGGC#  aafffffGGGGGGGGfffffae  #CGGGGGNlaffffffffffffffff4HHHHHHHH",
"HHHHHHHH$affffffffffffffs$  kNGGSj  eaffffffGGGGGGGGfffffffe  jDGGNk  $ffffffffffffffff=HHHHHHHH",
"HHHHHHHH=fffffffffffffff4     kNc  effffffffGGGGGGGGffffffaae  cNk     =fffffffffffffff=HHHHHHHH",
"HHHHHHHH fffffffffffffffe$        =fffffffffGGGGGGGGfffffffff=        $efffffffffffffff HHHHHHHH",
"HHHHHHHHHeffffffffffffffaae$      afffffffffGGGGGGGGfffffffffa      $effffffffffffffffeHHHHHHHHH",
"HHHHHHHHH4afffffffffffffaaffe    eafffffffffGGGGGGGGffffffffffe   $eafffffffffffffffff:HHHHHHHHH",
"HHHHHHHHH affffffffffffffaffffe$eaafffffffffGGGGGGGGffffffffffae eafffffffffffffffffff HHHHHHHHH",
"HHHHHHHHH efffffffffffffffffffffffffffffffffGGGGGGGGfffffffffffffffffffffffffffffffffe HHHHHHHHH",
"HHHHHHHHH 5fffffffffffffffffffffffffffffffffGGGGGGGGfffffffffffffffffffffffffffffffff5 HHHHHHHHH",
"HHHHHHHHHH fffffffffffffffffffffffffffffffffGGGGGGGGfffffffffffffffffffffffffffffffff HHHHHHHHHH",
"HHHHHHHHHH effffffffffffffffffffffffffffffffGGGGGGGGffffffffffffffffffffffffffffffffa HHHHHHHHHH",
"HHHHHHHHHH =ffffffffffffffffffffffffffffffffGGGGGGGGffffffffffffffffffffffffffffffff= HHHHHHHHHH",
"HHHHHHHHHHH efffffffffffffffffffffffffffffffGGGGGGGGffffffffffffffffffffffffffffffee HHHHHHHHHHH",
"HHHHHHHHHHH $aafffffffffffffffffffffffffffffGGGGGGGGfffffffffffffffffffffffffffffaf$ HHHHHHHHHHH",
"HHHHHHHHHHH  effffffffffffffffffffffffffffffGGGGGGGGfffffffffffffffffffffffffffffae  HHHHHHHHHHH",
"HHHHHHHHHHHH  ffffffffffffffffffffffffffffffGGGGGGGGffffffffffffffffffffffffffffff$ HHHHHHHHHHHH",
"HHHHHHHHHHHH  6fffffffffffffffffffffffffffffGGGGGGGGfffffffffffffffffffffffffffff5  HHHHHHHHHHHH",
"HHHHHHHHHHHHH  fffffffffffffffffffffffffffffGGGGGGGGffffffffffffffffffffffffffffe  HHHHHHHHHHHHH",
"HHHHHHHHHHHHH  $ffffffffffffffffffffffffffffGGGGGGGGffffffffffffffffffffffffffff$  HHHHHHHHHHHHH",
"HHHHHHHHHHHHHH  =affffffffffffffffffffffffffGGGGGGGGfffffffffffffffffffffffffff=  HHHHHHHHHHHHHH",
"HHHHHHHHHHHHHH   5ffffffffffffffffffffffffffGGGGGGGGfffffffffffffffffffffffffa4   HHHHHHHHHHHHHH",
"HHHHHHHHHHHHHHH   eaffffffffffffffffffffffffGGGGGGGGfffffffffffffffffffffffffe   HHHHHHHHHHHHHHH",
"HHHHHHHHHHHHHHHH   effffffffffffffffffffffffGGGGGGGGfffffffffffffffffffffffff   HHHHHHHHHHHHHHHH",
"HHHHHHHHHHHHHHHHH   efffffffffffffffffffffff        fffffffffffffffffffffffe   HHHHHHHHHHHHHHHHH",
"HHHHHHHHHHHHHHHHH    effffffffffffffffffffff        ffffffffffffffffffffffe    HHHHHHHHHHHHHHHHH",
"HHHHHHHHHHHHHHHHHH    5fffffffffffffffffffff        fffffffffffffffffffff4    HHHHHHHHHHHHHHHHHH",
"HHHHHHHHHHHHHHHHHHH    =ffffffffffffffffffff        ffffffffffffffffffff=    HHHHHHHHHHHHHHHHHHH",
"HHHHHHHHHHHHHHHHHHHH    =fffffffffffffffffffffffffffffffffffffffffaaffa$    HHHHHHHHHHHHHHHHHHHH",
"HHHHHHHHHHHHHHHHHHHHH     6ffffffffffffffffffffffffffffffffffffffffaf6     HHHHHHHHHHHHHHHHHHHHH",
"HHHHHHHHHHHHHHHHHHHHHH     $eaffffaafffffffffffffffffffffffffffffffe$     HHHHHHHHHHHHHHHHHHHHHH",
"HHHHHHHHHHHHHHHHHHHHHHHH     $effffaffffffffffffffffffffffffffffae$     HHHHHHHHHHHHHHHHHHHHHHHH",
"HHHHHHHHHHHHHHHHHHHHHHHHH      $effaffffffffffffffffffffffffeaaa$      HHHHHHHHHHHHHHHHHHHHHHHHH",
"HHHHHHHHHHHHHHHHHHHHHHHHHH        5efffffffffffffffffaffffffe4        HHHHHHHHHHHHHHHHHHHHHHHHHH",
"HHHHHHHHHHHHHHHHHHHHHHHHHHHH         5eafffffaaaaaffeaffee4         HHHHHHHHHHHHHHHHHHHHHHHHHHHH",
"HHHHHHHHHHHHHHHHHHHHHHHHHHHHHH          $==56eeaeee655=$          HHHHHHHHHHHHHHHHHHHHHHHHHHHHHH",
"HHHHHHHHHHHHHHHHHHHHHHHHHHHHHHHH                                HHHHHHHHHHHHHHHHHHHHHHHHHHHHHHHH",
"HHHHHHHHHHHHHHHHHHHHHHHHHHHHHHHHHHH                          HHHHHHHHHHHHHHHHHHHHHHHHHHHHHHHHHHH",
"HHHHHHHHHHHHHHHHHHHHHHHHHHHHHHHHHHHHHH                    HHHHHHHHHHHHHHHHHHHHHHHHHHHHHHHHHHHHHH",
"HHHHHHHHHHHHHHHHHHHHHHHHHHHHHHHHHHHHHHHHHHH          HHHHHHHHHHHHHHHHHHHHHHHHHHHHHHHHHHHHHHHHHHH",
"HHHHHHHHHHHHHHHHHHHHHHHHHHHHHHHHHHHHHHHHHHHHHHHHHHHHHHHHHHHHHHHHHHHHHHHHHHHHHHHHHHHHHHHHHHHHHHHH",
"HHHHHHHHHHHHHHHHHHHHHHHHHHHHHHHHHHHHHHHHHHHHHHHHHHHHHHHHHHHHHHHHHHHHHHHHHHHHHHHHHHHHHHHHHHHHHHHH",
"HHHHHHHHHHHHHHHHHHHHHHHHHHHHHHHHHHHHHHHHHHHHHHHHHHHHHHHHHHHHHHHHHHHHHHHHHHHHHHHHHHHHHHHHHHHHHHHH",
"HHHHHHHHHHHHHHHHHHHHHHHHHHHHHHHHHHHHHHHHHHHHHHHHHHHHHHHHHHHHHHHHHHHHHHHHHHHHHHHHHHHHHHHHHHHHHHHH"
};
