/* XPM */
static char *sign_error[] = {
/* columns rows colors chars-per-pixel */
"96 96 50 1 ",
"  c #C0392B",
". c #C1392B",
"X c #C33A2C",
"o c #C43B2D",
"O c #C53B2D",
"+ c #C63C2D",
"@ c #C73C2E",
"# c #C93E2F",
"$ c #CA3E2F",
"% c #CD3F31",
"& c #CD4031",
"* c #D04132",
"= c #D14132",
"- c #D14133",
"; c #D34233",
": c #D44334",
"> c #D54334",
", c #D64334",
"< c #D64434",
"1 c #D64435",
"2 c #D94536",
"3 c #DA4636",
"4 c #DC4737",
"5 c #DD4738",
"6 c #DE4838",
"7 c #DF4838",
"8 c #DF4839",
"9 c #E14939",
"0 c #E1493A",
"q c #E24A3A",
"w c #E34A3A",
"e c #E44B3B",
"r c #E54B3B",
"t c #E64B3B",
"y c #E64C3C",
"u c #E74C3C",
"i c #CA6156",
"p c #CC6157",
"a c #E87063",
"s c #D48A83",
"d c #D58F88",
"f c #D69088",
"g c #EA948C",
"h c #E99991",
"j c #E9E5E6",
"k c #EAE6E6",
"l c #EBE6E6",
"z c #ECE6E7",
"x c #ECF0F1",
"c c None",
/* pixels */
"cccccccccccccccccccccccccccccccccccccccccccccccccccccccccccccccccccccccccccccccccccccccccccccccc",
"cccccccccccccccccccccccccccccccccccccccccccccccccccccccccccccccccccccccccccccccccccccccccccccccc",
"cccccccccccccccccccccccccccccccccccccccccccccccccccccccccccccccccccccccccccccccccccccccccccccccc",
"cccccccccccccccccccccccccccccccccccccccccccccccccccccccccccccccccccccccccccccccccccccccccccccccc",
"cccccccccccccccccccccccccccccccccccccccccccccccccccccccccccccccccccccccccccccccccccccccccccccccc",
"cccccccccccccccccccccccccccccccccccccccccccccccccccccccccccccccccccccccccccccccccccccccccccccccc",
"cccccccccccccccccccccccccccccccccccccccccccccccccccccccccccccccccccccccccccccccccccccccccccccccc",
"cccccccccccccccccccccccccccccccccccccccccccccccccccccccccccccccccccccccccccccccccccccccccccccccc",
"cccccccccccccccccccccccccccccccccccccccccccuuuuuuuuuuccccccccccccccccccccccccccccccccccccccccccc",
"ccccccccccccccccccccccccccccccccccccccuuuuuuuuuuuuuuuuuuuucccccccccccccccccccccccccccccccccccccc",
"cccccccccccccccccccccccccccccccccccuuuuuuuuuuuuuuuuuuuuuuuuuuccccccccccccccccccccccccccccccccccc",
"ccccccccccccccccccccccccccccccccuuuuuuuuuuuuuuuuuuuuuuuuuuuuuuuucccccccccccccccccccccccccccccccc",
"ccccccccccccccccccccccccccccccuuuuuuuuuuuuuuuuuuuuuuuuuuuuuuuuuuuucccccccccccccccccccccccccccccc",
"ccccccccccccccccccccccccccccuuuuuuuuuuuuuuuuuuuuuuuuuuuuuuuuuuuuuuuucccccccccccccccccccccccccccc",
"ccccccccccccccccccccccccccuuuuuuuuuuuuuuuuuuuuuuuuuuuuuuuuuuuuuuuuuuuucccccccccccccccccccccccccc",
"cccccccccccccccccccccccccuuuuuuuuuuuuuuuuuuuuuuuuuuuuuuuuuuuuuuuuuuuuuuccccccccccccccccccccccccc",
"ccccccccccccccccccccccccuuuuuuuuuuuuuuuuuuuuuuuuuuuuuuuuuuuuuuuuuuuuuuuucccccccccccccccccccccccc",
"ccccccccccccccccccccccuuuuuuuuuuuuuuuuuuuuuuuuuuuuuuuuuuuuuuuuuuuuuuuuuuuucccccccccccccccccccccc",
"cccccccccccccccccccccuuuuuuuuuuuuuuuuuuuuuuuuuuuuuuuuuuuuuuuuuuuuuuuuuuuuuuccccccccccccccccccccc",
"ccccccccccccccccccccuuuuuuuuuuuuuuuuuuuuuuuuuuuuuuuuuuuuuuuuuuuuuuuuuuuuuuuucccccccccccccccccccc",
"cccccccccccccccccccuuuuuuuuuuuuuuuuuuuuuuuuuuuuuuuuuuuuuuuuuuuuuuuuuuuuuuuuuuccccccccccccccccccc",
"ccccccccccccccccccuuuuuuuuuuuuuuuuuuuuuuuuuuuuuuuuuuuuuuuuuuuuuuuuuuuuuuuuuuuucccccccccccccccccc",
"cccccccccccccccccuuuuuuuuuuuuuuuuuuuuuuuuuuuuuuuuuuuuuuuuuuuuuuuuuuuuuuuuuuuuuuccccccccccccccccc",
"cccccccccccccccccuuuuuuuuuuuuuuuuuuuuuuuuuuuuuuuuuuuuuuuuuuuuuuuuuuuuuuuuuuuuuuccccccccccccccccc",
"ccccccccccccccccuuuuuuuuuuuuuuuuuuuuuuuuuuuuuuuuuuuuuuuuuuuuuuuuuuuuuuuuuuuuuuuucccccccccccccccc",
"cccccccccccccccuuuuuuuuuuuuuuuuuuuuuuuuuuuuuuuuuuuuuuuuuuuuuuuuuuuuuuuuuuuuuuuuuuccccccccccccccc",
"ccccccccccccccuuuuuuuuuuuuuuuuuuuuuuuuuuuuuuuuuuuuuuuuuuuuuuuuuuuuuuuuuuuuuuuuuuuucccccccccccccc",
"ccccccccccccccuuuuuuuuuuuuuuuuuuuuuuuuuuuuuuuuuuuuuuuuuuuuuuuuuuuuuuuuuuuuuuuuuuuucccccccccccccc",
"cccccccccccccuuuuuuuuuuuuuuuuuuuugauuuuuuuuuuuuuuuuuuuuuuuuuuaguuuuuuuuuuuuuuuuuuuuccccccccccccc",
"cccccccccccccuuuuuuuuuuuuuuuuuuuhxzauuuuuuuuuuuuuuuuuuuuuuuuazxhuuuuuuuuuuuuuuuuuuuccccccccccccc",
"ccccccccccccuuuuuuuuuuuuuuuuuuuhxxxzauuuuuuuuuuuuuuuuuuuuuuazxxxhuuuuuuuuuuuuuuuuuuucccccccccccc",
"ccccccccccccuuuuuuuuuuuuuuuuuuhxxxxxzauuuuuuuuuuuuuuuuuuuuazxxxxxhuuuuuuuuuuuuuuuuuucccccccccccc",
"cccccccccccuuuuuuuuuuuuuuuuuuhxxxxxxxzauuuuuuuuuuuuuuuuuuazxxxxxxxhuuuuuuuuuuuuuuuuuuccccccccccc",
"cccccccccccuuuuuuuuuuuuuuuuugxxxxxxxxxzauuuuuuuuuuuuuuuuazxxxxxxxxxguuuuuuuuuuuuuuuuuccccccccccc",
"cccccccccccuuuuuuuuuuuuuuuuuazxxxxxxxxxzauuuuuuuuuuuuuuazxxxxxxxxxzauuuuuuuuuuuuuuuuuccccccccccc",
"ccccccccccuuuuuuuuuuuuuuuuuuuajxxxxxxxxxzauuuuuuuuuuuuazxxxxxxxxxjauuuuuuuuuuuuuuuuuuucccccccccc",
"ccccccccccuuuuuuuuuuuuuuuuuuu1pjxxxxxxxxxkauuuuuuuuuuazxxxxxxxxxji1uuuuuuuuuuuuuuuuuuucccccccccc",
"ccccccccccuuuuuuuuuuuuuuuuuu1. ijxxxxxxxxxkauuuuuuuuazxxxxxxxxxzi  1uuuuuuuuuuuuuuuuuucccccccccc",
"cccccccccuuuuuuuuuuuuuuuuuuu6o  ijxxxxxxxxxkauuuuuuazxxxxxxxxxzp  .6uuuuuuuuuuuuuuuuuuuccccccccc",
"cccccccccuuuuuuuuuuuuuuuuuuuy6.  izxxxxxxxxxkauuuuazxxxxxxxxxjp. .uuuuuuuuuuuuuuuuuuuuuccccccccc",
"cccccccccuuuuuuuuuuuuuuuuuuuuu6.  izxxxxxxxxxkauuakxxxxxxxxxji  .6uuuuuuuuuuuuuuuuuuuuuccccccccc",
"cccccccccuuuuuuuuuuuuuuuuuuuuuu6.  ijxxxxxxxxxkaakxxxxxxxxxji  .6uuuuuuuuuuuuuuuuuuuuuuccccccccc",
"cccccccccuuuuuuuuuuuuuuuuuuuuuuu6.  ijxxxxxxxxxkkxxxxxxxxxji...6uuuuuuuuuuuuuuuuuuuuuuuccccccccc",
"ccccccccuuuuuuuuuuuuuuuuuuuuuuuuu6.  pjxxxxxxxxxxxxxxxxxxjp  .6uuuuuuuuuuuuuuuuuuuuuuuuucccccccc",
"ccccccccuuuuuuuuuuuuuuuuuuuuuuuuuu6...pkxxxxxxxxxxxxxxxxjp  o6uuuuuuuuuuuuuuuuuuuuuuuuu6cccccccc",
"cccccccc6uuuuuuuuuuuuuuuuuuuuuuuuuu6...pjxxxxxxxxxxxxxxjp  o6uuuuuuuuuuuuuuuuuuuuuuuuuuucccccccc",
"ccccccccuuuuuuuuuuuuuuuuuuuuuuuuuuuu6...ijxxxxxxxxxxxxkp  .6uuuuuuuuuuuuuuuuuuuuuuuuuuuucccccccc",
"ccccccccuuuuuuuuuuuuuuuuuuuuuuuuuuuuu6.. ijxxxxxxxxxxji  .6uuuuuuuuuuuuuuuuuuuuuuuuuuuuucccccccc",
"ccccccccuuuuuuuuuuuuuuuuuuuuuuuuuuuuuu6. ijxxxxxxxxxxjp .6uuuuuuuuuuuuuuuuuuuuuuuuuuuuuucccccccc",
"ccccccccuuuuuuuuuuuuuuuuuuuuuuuuuuuuuuuupjxxxxxxxxxxxxjp6uuuuuuuuuuuuuuuuuuuuuuuuuuuuuuucccccccc",
"cccccccc3uuuuuuuuuuuuuuuuuuuuuuuuuuuuuuakxxxxxxxxxxxxxxkauuuuuuuuuuuuuuuuuuuuuuuuuuuuuu3cccccccc",
"cccccccc3uuuuuuuuuuuuuuuuuuuuuuuuuuuuuakxxxxxxxxxxxxxxxxkauuuuuuuuuuuuuuuuuuuuuuuuuuuuu1cccccccc",
"cccccccc1uuuuuuuuuuuuuuuuuuuuuuuuuuuyakxxxxxxxxxxxxxxxxxxkauuuuuuuuuuuuuuuuuuuuuuuuuuuu1cccccccc",
"cccccccc1uuuuuuuuuuuuuuuuuuuuuuuuuuuakxxxxxxxxxjzxxxxxxxxxkauuuuuuuuuuuuuuuuuuuuuuuuuuu1cccccccc",
"cccccccc%uuuuuuuuuuuuuuuuuuuuuuuuuuakxxxxxxxxxkppjxxxxxxxxxkauuuuuuuuuuuuuuuuuuuuuuuuuu1cccccccc",
"cccccccc%uuuuuuuuuuuuuuuuuuuuuuuuuazxxxxxxxxxji  ijxxxxxxxxxkauuuuuuuuuuuuuuuuuuuuuuuuu%cccccccc",
"cccccccc.uuuuuuuuuuuuuuuuuuuuuuuuazxxxxxxxxxji    ijxxxxxxxxxkauuuuuuuuuuuuuuuuuuuuuuuu.cccccccc",
"ccccccccc6uuuuuuuuuuuuuuuuuuuuuuazxxxxxxxxxji  o.  pjxxxxxxxxxzauuuuuuuuuuuuuuuuuuuuuu5ccccccccc",
"ccccccccc1uuuuuuuuuuuuuuuuuuuuuazxxxxxxxxxkp  .66.  ijxxxxxxxxxzauuuuuuuuuuuuuuuuuuuuu1ccccccccc",
"ccccccccc.uuuuuuuuuuuuuuuuuuuuazxxxxxxxxxji   6yy6.  ijxxxxxxxxxzauuuuuuuuuuuuuuuuuuuu.ccccccccc",
"ccccccccc 5uuuuuuuuuuuuuuuuuuazxxxxxxxxxkp  .6uuyu6o. pjxxxxxxxxxzauuuuuuuuuuuuuuuuuu6.ccccccccc",
"ccccccccc 1uuuuuuuuuuuuuuuuuazxxxxxxxxxzp. .6uuuyuu6.  pzxxxxxxxxxzauuuuuuuuuuuuuuuuu1.ccccccccc",
"cccccccccc.uuuuuuuuuuuuuuuuugxxxxxxxxxji..o6uuuuuuuu6o  pzxxxxxxxxxguuuuuuuuuuuuuuuuu.cccccccccc",
"cccccccccc uuuuuuuuuuuuuuuuuuhxxxxxxxji ..6uuuuuuuuuy6.  pzxxxxxxxhuuuuuuuuuuuuuuuuuu.cccccccccc",
"cccccccccc.&uuuuuuuuuuuuuuuuu6fxxxxxji...6uuuuuuuuuuuu6.  pjxxxxxf6uuuuuuuuuuuuuuuuu& cccccccccc",
"ccccccccccc.6uuuuuuuuuuuuuuu6. fxxxji ..6uuuuuuuuuuuuuu6.  pjxxxf  6uuuuuuuuuuuuuuu6.ccccccccccc",
"ccccccccccc %uuuuuuuuuuuuuuu1   dxzi  .6uuuuuuuuuuuuuuuu6...ijxf   1uuuuuuuuuuuuuuu%.ccccccccccc",
"ccccccccccc. 6uuuuuuuuuuuuuuu1   si  .6uuuuuuuuuuuuuuuuuuu.. is   1uuuuuuuuuuuuuuu6 .ccccccccccc",
"cccccccccccc..uuuuuuuuuuuuuuuu1    ..3uuuuuuuuuuuuuuuuuuuu6.     1uuuuuuuuuuuuuuuuo.cccccccccccc",
"cccccccccccc. 3uuuuuuuuuuuuuuuu&   .5uuuuuuuuuuuuuuuuuuuuuu6.  .1uuuuuuuuuuuuuuuu1 .cccccccccccc",
"ccccccccccccc..uuuuuuuuuuuuuuuuu1 .6uuuuuuuuuuuuuuuuuuuuuuuu6..1uuuuuuuuuuuuuuuuuo ccccccccccccc",
"ccccccccccccc..#uuuuuuuuuuuuuuuuu16uuuuuuuuuuuuuuuuuuuuuuuuuu61uuuuuuuuuuuuuuuuuo  ccccccccccccc",
"cccccccccccccc. &uuuuuuuuuuuuuuuuuuuuuuuuuuuuuuuuuuuuuuuuuuuuuuuuuuuuuuuuuuuuuu&  cccccccccccccc",
"cccccccccccccc  .1uuuuuuuuuuuuuuuuuuuuuuuuuuuuuuuuuuuuuuuuuuuuuuuuuuuuuuuuuuuu1  .cccccccccccccc",
"ccccccccccccccc...5uuuuuuuuuuuuuuuuuuuuuuuuuuuuuuuuuuuuuuuuuuuuuuuuuuuuuuuuuu6.  ccccccccccccccc",
"cccccccccccccccc ..6uuuuuuuuuuuuuuuuuuuuuuuuuuuuuuuuuuuuuuuuuuuuuuuuuuuuuuuuu. .cccccccccccccccc",
"ccccccccccccccccc  ouuuuuuuuuuuuuuuuuuuuuuuuuuuuuuuuuuuuuuuuuuuuuuuuuuuuuuu6.. ccccccccccccccccc",
"ccccccccccccccccc....6uuuuuuuuuuuuuuuuuuuuuuuuuuuuuuuuuuuuuuuuuuuuuuuuuuuu6 ...ccccccccccccccccc",
"cccccccccccccccccc   .1uuuuuuuuuuuuuuuuuuuuuuuuuuuuuuuuuuuuuuuuuuuuuuuuuu1  ..cccccccccccccccccc",
"ccccccccccccccccccc   .&uuuuuuuuuuuuuuuuuuuuuuuuuuuuuuuuuuuuuuuuuuuuuuuu&    ccccccccccccccccccc",
"cccccccccccccccccccc.   %uuuuuuuuuuuuuuuuuuuuuuuuuuuuuuuuuuuuuuuuuuuuuu&   .cccccccccccccccccccc",
"ccccccccccccccccccccc.   .5uuuuuuuuuuuuuuuuuuuuuuuuuuuuuuuuuuuuuuuuuu1.    ccccccccccccccccccccc",
"cccccccccccccccccccccc .   o5uuuuuuuuuuuuuuuuuuuuuuuuuuuuuuuuuuuuuu6o.    cccccccccccccccccccccc",
"cccccccccccccccccccccccc     %6uuuuuuuuuuuuuuuuuuuuuuuuuuuuuuuuuu6& .. .cccccccccccccccccccccccc",
"ccccccccccccccccccccccccc.     %uuuuuuuuuuuuuuuuuuuuuuuuuuuuuuuu&      ccccccccccccccccccccccccc",
"cccccccccccccccccccccccccc .    ..15uuuuuuuuuuuuuuuuuuuuuuuu51..     .cccccccccccccccccccccccccc",
"cccccccccccccccccccccccccccc        .16uuuuuuuuuuuuuuuuuu6&.        cccccccccccccccccccccccccccc",
"cccccccccccccccccccccccccccccc        ...&1115uuu6551&&%....      cccccccccccccccccccccccccccccc",
"cccccccccccccccccccccccccccccccc.                             . cccccccccccccccccccccccccccccccc",
"ccccccccccccccccccccccccccccccccccc.                        .ccccccccccccccccccccccccccccccccccc",
"cccccccccccccccccccccccccccccccccccccc..  .          .  . cccccccccccccccccccccccccccccccccccccc",
"ccccccccccccccccccccccccccccccccccccccccccc    .     ccccccccccccccccccccccccccccccccccccccccccc",
"cccccccccccccccccccccccccccccccccccccccccccccccccccccccccccccccccccccccccccccccccccccccccccccccc",
"cccccccccccccccccccccccccccccccccccccccccccccccccccccccccccccccccccccccccccccccccccccccccccccccc",
"cccccccccccccccccccccccccccccccccccccccccccccccccccccccccccccccccccccccccccccccccccccccccccccccc",
"cccccccccccccccccccccccccccccccccccccccccccccccccccccccccccccccccccccccccccccccccccccccccccccccc"
};
