/* XPM */
static char *snow_flake[] = {
/* columns rows colors chars-per-pixel */
"96 96 2 1 ",
"  c #3498DB",
". c None",
/* pixels */
"...............................................  ...............................................",
"..............................................    ..............................................",
".............................................      .............................................",
"............................................        ............................................",
"............................................        ............................................",
"............................................         ...........................................",
"...........................................          ...........................................",
"...........................................          ...........................................",
"...........................................          ...........................................",
".................................     ......         ......    .................................",
"................................       .....        .....       ................................",
"................................        ....        ....        ................................",
".................................        ...        ...        .................................",
"................   ...............        ..        ..        ................  ................",
"..............       ..............                          ...............      ..............",
".............         ..............                        ...............        .............",
".............          ..............                      ...............         .............",
"..............          ..............                    ...............          .............",
"..............           ..............                  ...............           .............",
"..............            ..............                ...............           ..............",
"...............            .....   ......              ......   ......           ...............",
"................            ....    ......            .......    ....            ...............",
".................           ....    .......          .......     ...            ................",
"..................            ..    ........         .......     ..            .................",
"..................                  ........        ........                  ..................",
"....................                ........        ........                 ...................",
".....................               ........        ........                ....................",
"......................              ........        ........              ......................",
".......................             ........        ........             .......................",
"........................             .......        ........            ........................",
".........................            .......        .......            .........................",
".......................              .......        .......              .......................",
"....................                  ......        .......                 ....................",
"..........     .....                  ......        ......                   .....     .........",
".........       .....                   ....        ....                    .....       ........",
"........        ......                    ..        ...                   ......        ........",
".........        ..............                                   ..............        ........",
".........         ...............                              ................        .........",
"..........        ................                            ................        ..........",
"...........        ................                           ...............        ...........",
".............       ...............                          ...............       .............",
"..............        ..............                        ...............       ..............",
"..............         ..............                      ..............         ..............",
"............              ...........                      ............            .............",
"..                                                                                            ..",
".                                                                                              .",
"                                                                                                ",
"                                                                                                ",
".                                                                                               ",
".                                                                                              .",
"..                                                                                            ..",
"....                                                                                         ...",
"....... ......          .............                       .............         ......  ......",
"..............        ..............                        ..............         .............",
".............        ...............                         ..............        .............",
"............        ...............                          ...............        ............",
"...........        ................                           ...............        ...........",
"..........        ................                             ...............        ..........",
"..........       ...............           .        .           ...............        .........",
".........       ...........              ...        ..              ............       .........",
".........      ......                   ....        ....                   ......       ........",
".........     ......                    ....        .....                   ......      ........",
"..........   .......                   .....        .....                   .......    .........",
"........... .........                 ......        ......                  ........ ...........",
"........................              ......        ......              ........................",
"........................             .......        .......             ........................",
".......................              .......        .......              .......................",
".......................              .......        ........              ......................",
"......................              ........        ........               .....................",
"....................                ........        ........                ....................",
"...................                 ........        ........                 ...................",
"..................            ..    ........        ........     ..           ..................",
".................            ...    .......          ........   ...            .................",
"................            ....    ......            .......   ....            ................",
"...............            .....    .....              ......   .....            ...............",
"..............            .......   ....                .....   ......            ..............",
"..............            .............                  ..............            .............",
".............            .............                    ..............           .............",
".............          ..............                      ..............          .............",
"..............        ..............                        ..............         .............",
"..............       ..............                           .............        .............",
"...............    ...............         .         .        ...............     ..............",
".................................        ...        ...        .................................",
".................................        ...        ....       .................................",
".................................       ....        .....      .................................",
"..................................     .....        ......     .................................",
"...................................  .......        .......   ..................................",
"............................................        ............................................",
"............................................        ............................................",
"............................................        ............................................",
"............................................        ............................................",
"............................................        ............................................",
"............................................        ............................................",
".............................................      .............................................",
".............................................      .............................................",
"..............................................    .............................................."
};
