/* XPM */
static char *tag_alt[] = {
/* columns rows colors chars-per-pixel */
"96 96 27 1 ",
"  c #8E44AD",
". c #8E45AD",
"X c #8F45AD",
"o c #8F46AE",
"O c #9047AE",
"+ c #9149AF",
"@ c #924AB0",
"# c #924BB0",
"$ c #934CB0",
"% c #934CB1",
"& c #934DB1",
"* c #944EB1",
"= c #944EB2",
"- c #954FB2",
"; c #9550B2",
": c #9651B3",
"> c #9854B4",
", c #9855B4",
"< c #9956B5",
"1 c #9A58B6",
"2 c #9B59B6",
"3 c #7F8C8D",
"4 c #B6BEBF",
"5 c #BD9ACF",
"6 c #C3A4D4",
"7 c #ECF0F1",
"8 c None",
/* pixels */
"888882222222222222222222222222222222222888888888888888888888888888888888888888888888888888888888",
"888822222222222222222222222222222222222228888888888888888888888888888888888888888888888888888888",
"882222222222222222222222222222222222222222888888888888888888888888888888888888888888888888888888",
"882222222222222222222222222222222222222222228888888888888888888888888888888888888888888888888888",
"822222222222222222222222222222222222222222222888888888888888888888888888888888888888888888888888",
"222222222222222222222222222222222222222222222288888888888888888888888888888888888888888888888888",
"222222222222222222222222222222222222222222222228888888888888888888888888888888888888888888888888",
"222222222222222222222222222222222222222222222222888888888888888888888888888888888888888888888888",
"222222222222222222222222222222222222222222222222288888888888888888888888888888888888888888888888",
"222222222222222222222222222222222222222222222222228888888888888888888888888888888888888888888888",
"222222222222222222222222222222222222222222222222222888888888888888888888888888888888888888888888",
"222222222222222222222222222222222222222222222222222288888888888888888888888888888888888888888888",
"22222222222222222;+ +@@<222222222222222222222222222228888888888888888888888888888888888888888888",
"222222222222222;        ;22222222222222222222222222222888888888888888888888888888888888888888888",
"22222222222222@          @2222222222222222222222222222288888888888888888888888888888888888888888",
"2222222222222;            ;222222222222222222222222222228888888888888888888888888888888888888888",
"2222222222222     88888    222222222222222222222222222222888888888888888888888888888888888888888",
"222222222222@   88888888   ;22222222222222222222222222222288888888888888888888888888888888888888",
"222222222222@ 888888888888 @22222222222222222222222222222228888888888888888888888888888888888888",
"222222222222+ 888888888888  22222222222222222222222222222222888888888888888888888888888888888888",
"222222222222 88888888888888+22222222222222222226622222222222288888888888888888888888888888888888",
"222222222222@88888888888888@22222222222222222267762222222222228888888888888888888888888888888888",
"222222222222<88888888888888<22222222222222222677776222222222222888888888888888888888888888888888",
"222222222222288888888888888222222222222222226777777622222222222288888888888888888888888888888888",
"222222222222228888888888882222222222222222267777777762222222222228888888888888888888888888888888",
"222222222222228888888888882222222222222222677777777776222222222222888888888888888888888888888888",
"222222222222222288888888222222222222222226777777777777622222222222288888888888888888888888888888",
"222222222222222222888882222222222222222267777777777777762222222222228888888888888888888888888888",
"222222222222222222222222222222222222222677777777777777776222222222222888888888888888888888888888",
"222222222222222222222222222222222222226777777777777777777622222222222288888888888888888888888888",
"222222222222222222222222222222222222267777777777777777777762222222222228888888888888888888888888",
"222222222222222222222222222222222222677777777777777777777776222222222222888888888888888888888888",
"222222222222222222222222222222222226777777777774477777777777622222222222288888888888888888888888",
"222222222222222222222222222222222267777777777743347777777777762222222222228888888888888888888888",
"222222222222222222222222222222222677777777777433347777777777776222222222222888888888888888888888",
"222222222222222222222222222222226777777777774333477777777777777622222222222288888888888888888888",
"222222222222222222222222222222267777777777743334777777777777777762222222222228888888888888888888",
"<22222222222222222222222222222677777777777433347777777777777777776222222222222888888888888888888",
";22222222222222222222222222226777777777774333477777777777777777777622222222222288888888888888888",
"@22222222222222222222222222267777777777743334777777777777777777777762222222222228888888888888888",
"o12222222222222222222222222677777777777433347777777777744777777777776222222222222888888888888888",
" @2222222222222222222222216777777777774333477777777777433477777777777622222222222288888888888888",
"  @222222222222222222222167777777777743334777777777774333477777777777762222222222228888888888888",
"8 O@22222222222222222222677777777777433347777777777743334777777777777776222222222222888888888888",
"8   <2222222222222222226777777777774333477777777777433347777777777777777622222222222288888888888",
"88   @222222222222222267777777777743334777777777774333477777777777777777762222222222228888888888",
"888   ;22222222222222677777777777433347777777777743334777777777777777777776222222222228888888888",
"888   O;2222222222226777777777774333477777777777433347777777777777777777777622222222222888888888",
"8888    @222222222226777777777774334777777777774333477777777777447777777777762222222222288888888",
"88888    <22222222222677777777777447777777777743334777777777774334777777777776222222222288888888",
"888888    @2222222222@57777777777777777777777433347777777777743334777777777777622222222288888888",
"8888888   O@22222222;oo5777777777777777777774333477777777777433347777777777777762222222228888888",
"88888888    <2222222@o o577777777777777777743334777777777774333477777777777777762222222228888888",
"888888888    @2222222@ oo57777777777777777433347777777777743334777777777777777622222222288888888",
"8888888888    ;2222222;oo 5777777777777774333477777777777433347777777777777775@22222222288888888",
"88888888888   O;2222222@o  57777777777774333477777777777433347777777777777775 o@2222222< 8888888",
"888888888888    ;2222222;o  577777777777433477777777777433347777777777777775  O;222222<@ 8888888",
"8888888888888   o@2222222@   5777777777774477777777777433347777777777777775  O@2222222@ 88888888",
"88888888888888    ;2222222;o  57777777777777777777777433347777777777777775   @2222222@  88888888",
"888888888888888  oo@2222222@   577777777777777777777433347777777777777775  o;2222222;   88888888",
"8888888888888888    ;2222222;   5777777777777777777433347777777777777775   @2222222;O  888888888",
"88888888888888888   o;2222222;   57777777777777777433347777777777777775   ;2222222@   8888888888",
"888888888888888888  o @2222222@   577777777777777433347777777777777775o o@2222222<    8888888888",
"8888888888888888888   o;2222222;   5777777777777433347777777777777775 oo;2222222@    88888888888",
"88888888888888888888    @2222222@ooo57777777777743347777777777777775   @2222222;O   888888888888",
"888888888888888888888    <2222222;ooo577777777777447777777777777775   @1222222@    8888888888888",
"8888888888888888888888    @2222222@o  5777777777777777777777777775  o@2222222<    88888888888888",
"88888888888888888888888   O@2222222;   57777777777777777777777775   @2222222@o   888888888888888",
"888888888888888888888888    <2222222@o o577777777777777777777775ooo>2222222;    8888888888888888",
"8888888888888888888888888    @2222222@ o 5777777777777777777775ooo@2222222;o   88888888888888888",
"88888888888888888888888888    ;2222222;o  57777777777777777775ooo@2222222;    888888888888888888",
"888888888888888888888888888   O;2222222@   577777777777777775 oo@1222222@    8888888888888888888",
"8888888888888888888888888888    ;2222222@o  5777777777777775ooo@2222222@oO  88888888888888888888",
"88888888888888888888888888888   o@2222222@ o 57777777777775 oo@1222222;ooo 888888888888888888888",
"888888888888888888888888888888    ;2222222;o  577777777775  o;2222222;    8888888888888888888888",
"8888888888888888888888888888888  oo@2222222@   5777777775   @2222222@    88888888888888888888888",
"88888888888888888888888888888888    ;2222222;oo 57777775  o;2222221@oo  888888888888888888888888",
"888888888888888888888888888888888   o;2222222@   577775   @2222222@ oo 8888888888888888888888888",
"8888888888888888888888888888888888  oo@2222222;o  5775   @2222222<o   88888888888888888888888888",
"88888888888888888888888888888888888  oo;2222222@   55   @2222222@ooo 888888888888888888888888888",
"888888888888888888888888888888888888    ;2222222@o    O@2222222@    8888888888888888888888888888",
"8888888888888888888888888888888888888    @2222222@ o o@2222222<    88888888888888888888888888888",
"88888888888888888888888888888888888888    <2222222;o ;2222222@    888888888888888888888888888888",
"888888888888888888888888888888888888888  Oo@2222222;@2222222@O   8888888888888888888888888888888",
"8888888888888888888888888888888888888888    @22222222222222<    88888888888888888888888888888888",
"88888888888888888888888888888888888888888   o;222222222222@    888888888888888888888888888888888",
"888888888888888888888888888888888888888888  O @<2222222<2@O   8888888888888888888888888888888888",
"8888888888888888888888888888888888888888888    @1222222<@    88888888888888888888888888888888888",
"88888888888888888888888888888888888888888888    oo@@;@o     888888888888888888888888888888888888",
"888888888888888888888888888888888888888888888       oo     8888888888888888888888888888888888888",
"88888888888888888888888888888888888888888888888          888888888888888888888888888888888888888",
"888888888888888888888888888888888888888888888888        8888888888888888888888888888888888888888",
"888888888888888888888888888888888888888888888888888  8888888888888888888888888888888888888888888",
"888888888888888888888888888888888888888888888888888888888888888888888888888888888888888888888888",
"888888888888888888888888888888888888888888888888888888888888888888888888888888888888888888888888",
"888888888888888888888888888888888888888888888888888888888888888888888888888888888888888888888888"
};
