/* XPM */
static const char *address_book_alt[] = {
/* columns rows colors chars-per-pixel */
"24 24 76 1 ",
"  c #E74C3C",
". c #E96831",
"X c #C06747",
"o c #5AAE65",
"O c #2ECC71",
"+ c #EFAB19",
"@ c #DDAB36",
"# c #F1C40F",
"$ c #AD7093",
"% c #9B59B6",
"& c #8760B6",
"* c #8368BF",
"= c #9067BA",
"- c #2DBC80",
"; c #2A92A8",
": c #2980B9",
"> c #2980BA",
", c #2981BA",
"< c #2A82BC",
"1 c #2A83BC",
"2 c #2A83BD",
"3 c #2B83BE",
"4 c #2A84BE",
"5 c #2B84BE",
"6 c #2B84BF",
"7 c #2B85BF",
"8 c #31B4A3",
"9 c #4ECF8A",
"0 c #2B85C0",
"q c #2B85C1",
"w c #2C86C1",
"e c #2C86C2",
"r c #2C87C3",
"t c #2D88C4",
"y c #2D88C5",
"u c #2D89C6",
"i c #2D8AC7",
"p c #2E8AC7",
"a c #2E8AC8",
"s c #2E8BC8",
"d c #2E8CC9",
"f c #2E8CCA",
"g c #2F8DCC",
"h c #2F8ECC",
"j c #2F8ECD",
"k c #328BC6",
"l c #308ECD",
"z c #308FCE",
"x c #308FCF",
"c c #3090CF",
"v c #3190D0",
"b c #3191D1",
"n c #3192D2",
"m c #3192D3",
"M c #3293D4",
"N c #3293D5",
"B c #3294D6",
"V c #3295D6",
"C c #3395D7",
"Z c #3893D0",
"A c #349CD4",
"S c #3396D8",
"D c #3396D9",
"F c #3397D9",
"G c #3497DA",
"H c #3498DA",
"J c #3498DB",
"K c #579AC6",
"L c #4A8BD3",
"P c #95A5A6",
"I c #BDC3C7",
"U c #BCC3C8",
"Y c #A5CAE3",
"T c #C3D8E5",
"R c #ECF0F1",
"E c None",
/* pixels */
"EEEyamGHHHJJJJJJJL*=EEEE",
"EEE4GJGHJHJJJJJJJJL%&EEE",
"EIIPJJHHJJJJJJJJJJJ%%EEE",
"EIP4JHHHJJJJJJJJJJJ%%EEE",
"EEE:GHGHJHHHJGJJHHH%$EEE",
"EUIPHHGGHaeeeaGJHHJ$@EEE",
"EUP:HHHGeeamxa>aGGH##EEE",
"EEE4HHHeeHGGGGmemHH##EEE",
"EUIPGGz4HBe,y>maeGG##EEE",
"EIP:GGezHaqBa,mm>GG#+EEE",
"EEE4GG4xHqaHm,mm4GH+.EEE",
"EUUPHHezHeyHj,maeJH  EEE",
"EUP4JJzeHm:44444GGG  EEE",
"EEE:JJG4zHmzmjmmHHG  EEE",
"EIIPHJHm4emGmz4GHHH XEEE",
"EIP:HHHHme4:44cHHHHXoEEE",
"EEE:GHHHHJHGGGJJJJJOOEEE",
"EUIPHHHHHHJJGGJJJJJOOEEE",
"EUP:JJHHHHHHGJJJJJJOOEEE",
"EEE4JJHHHHHHHHJJJJJO-EEE",
"EEE:JJJJGGGGGGGGGA89;EEE",
"EEE4ZYRRRRRRRRRRRRTK4EEE",
"EEEE444:4::44:4:::4:EEEE",
"EEEEEEEEEEEEEEEEEEEEEEEE"
};
