/* XPM */
static const char *building[] = {
/* columns rows colors chars-per-pixel */
"24 24 8 1 ",
"  c #D35400",
". c #E67E22",
"X c #2980B9",
"o c #7F8C8D",
"O c #3498DB",
"+ c #95A5A6",
"@ c #BDC3C7",
"# c None",
/* pixels */
"######@@@@@@@@@@@@######",
"#####@@@@@@@@@@@@@@#####",
"####oooooooooooooooo####",
"#####++++++++++++++#####",
"#####@@@@@@@@@@@@@@#####",
"#####@@XX@@XX@@XX@@#####",
"#####@@OO@@OO@@OO@@#####",
"#####@@OO@@OO@@OO@@#####",
"#####@@@@@@@@@@@@@@#####",
"#####@@@@@@@@@@@@@@#####",
"#####@@XX@@XX@@XX@@#####",
"#####@@OO@@OO@@OO@@#####",
"#####@@OO@@OO@@OO@@#####",
"#####@@@@@@@@@@@@@@#####",
"#####@@@@@@@@@@@@@@#####",
"#####@@XX@@XX@@XX@@#####",
"#####@@OO@@OO@@OO@@#####",
"#####@@OO@@OO@@OO@@#####",
"#####@@@@@@@@@@@@@@#####",
"#####@@@@@@@@@@@@@@#####",
"#####@@      @@XX@@#####",
"#####@@.. ...@@OO@@#####",
"#####@@.. ...@@@@@@#####",
"########################"
};
