/* XPM */
static char *calendar_clock[] = {
/* columns rows colors chars-per-pixel */
"24 24 61 1 ",
"  c #314458",
". c #34495E",
"X c #3C485B",
"o c #3D485B",
"O c #3A485C",
"+ c #3B4E5F",
"@ c #384D61",
"# c #3F5263",
"$ c #3D5264",
"% c #3F5366",
"& c #435769",
"* c #455768",
"= c #5C6D78",
"- c #5F6C79",
"; c #5D6E79",
": c #5F737E",
"> c #626E7D",
", c #646E7C",
"< c #C93D2F",
"1 c #D84535",
"2 c #E44B3B",
"3 c #E74C3C",
"4 c #824042",
"5 c #814447",
"6 c #E7695C",
"7 c #E76A5D",
"8 c #627581",
"9 c #667584",
"0 c #72808E",
"q c #7B8C92",
"w c #839498",
"e c #88989B",
"r c #88999C",
"t c #8A9A9D",
"y c #8C9C9F",
"u c #8D9D9F",
"i c #A18784",
"p c #8E9EA0",
"a c #8E9FA0",
"s c #8E9EA1",
"d c #90A0A2",
"f c #91A0A3",
"g c #91A1A3",
"h c #92A1A4",
"j c #95A5A6",
"k c #98A6AA",
"l c #9AA9AB",
"z c #A8B3B6",
"x c #A8B5B7",
"c c #B0B9BD",
"v c #B2BEC0",
"b c #B4BDC0",
"n c #B5BCC1",
"m c #B7BEC3",
"M c #BAC1C5",
"N c #BDC3C7",
"B c #C9CFD3",
"V c #E2E6E8",
"C c #E6EAEB",
"Z c #ECF0F1",
"A c None",
/* pixels */
"AAAAAAAAAAAAAAAAAAAAAAAA",
"AAAAAnnAAAAAAAAAAnMAAAAA",
"AAAAANNAAAAAAAAAANNAAAAA",
"AAAA7NN3333333333NN7AAAA",
"AAA73jj1333333333jj17AAA",
"AAA31ii1333333331ii13AAA",
"AAA33<<3333333333<<33AAA",
"AAA333333333333333333AAA",
"AAA333333333333333333AAA",
"AAAZZZZZZZZZZZZZZZZZZAAA",
"AAAZZZZZZZZZZZZZZZZZZAAA",
"AAAZZNNZNNZNNZNNZNNZZAAA",
"AAAZZNNZNNZNNZNNZNNZZAAA",
"AAAZZZZZZZZZZZZCxjffxAAA",
"AAAZZNNZNNZNNZcu=O.O=uAA",
"AAAZZNNZNNZNNCu#@@9..#rA",
"AAAZZZZZZZZZZk=...n@..=q",
"AAAZZNNZNNZNNu#..@n#..#w",
"AAAZZNNZNNZNNu...50xnn8s",
"AAAVZZZZZZZZZk#.Oo9#.@#s",
"AAABVZZZZZZZZn8O4O...@=s",
"AAAANNNNNNNNNmj*O..@.%sA",
"AAAAAAAAAAAAAAAs:#.#8sAA",
"AAAAAAAAAAAAAAAAssfssAAA"
};
