/* XPM */
static char *calendar[] = {
/* columns rows colors chars-per-pixel */
"24 24 14 1 ",
"  c #C93D2F",
". c #D84535",
"X c #E44B3B",
"o c #E74C3C",
"O c #E7695C",
"+ c #E76A5D",
"@ c #A18784",
"# c #95A5A6",
"$ c #B4BDC0",
"% c #BDC3C7",
"& c #C9CFD3",
"* c #E2E6E8",
"= c #ECF0F1",
"- c None",
/* pixels */
"------------------------",
"-----$$----------$$-----",
"-----%%----------%%-----",
"----+%%oooooooooo%%+----",
"---+o##.ooooooooo##o+---",
"---o.@@.oooooooo.@@.o---",
"---oo  oooooooooo  oo---",
"---oooooooooooooooooo---",
"---oooooooooooooooooo---",
"---==================---",
"---==================---",
"---==%%=%%=%%=%%=%%==---",
"---==%%=%%=%%=%%=%%==---",
"---==================---",
"---==%%=%%=%%=%%=%%==---",
"---==%%=%%=%%=%%=%%==---",
"---==================---",
"---==%%=%%=%%=%%=%%==---",
"---==%%=%%=%%=%%=%%==---",
"---*================*---",
"---&*==============*&---",
"----%%%%%%%%%%%%%%%%----",
"------------------------",
"------------------------"
};
