/* XPM */
static const char *cat[] = {
/* columns rows colors chars-per-pixel */
"24 24 67 1 ",
"  c #2C3E50",
". c #556472",
"X c #C0392B",
"o c #C13C2A",
"O c #D55F26",
"+ c #E57F22",
"@ c #E67E22",
"# c #DA831C",
"$ c #EC8C1A",
"% c #ED8C1A",
"& c #EC8D1B",
"* c #EA891C",
"= c #E88B1E",
"- c #E88C1E",
"; c #E98E1E",
": c #EF9317",
"> c #EF9516",
", c #EE9E17",
"< c #EA951B",
"1 c #E9911C",
"2 c #E9931C",
"3 c #EB9B1A",
"4 c #EB9C1A",
"5 c #F39B12",
"6 c #F29C12",
"7 c #F39C12",
"8 c #F29D12",
"9 c #F39F12",
"0 c #F49C12",
"q c #F49D13",
"w c #F1BD0F",
"e c #EDA117",
"r c #EDA717",
"t c #EDA916",
"y c #EDAC16",
"u c #ECA418",
"i c #EDAD1A",
"p c #F3A311",
"a c #F3A312",
"s c #F3A411",
"d c #F2A611",
"f c #F2A811",
"g c #F2AD11",
"h c #F2AE11",
"j c #EFB513",
"k c #EFB713",
"l c #F2B010",
"z c #F2B011",
"x c #F2B210",
"c c #F2B610",
"v c #F2B710",
"b c #F0B811",
"n c #F2B910",
"m c #F1BA10",
"M c #E78321",
"N c #F1C00F",
"B c #F1C30F",
"V c #F1C40F",
"C c #F1C513",
"Z c #E9C25E",
"A c #EFD366",
"S c #EFD565",
"D c #B7BEC4",
"F c #BFC6CB",
"G c #C2C9CE",
"H c #EDE7C3",
"J c None",
/* pixels */
"JJJJJJJJJJJJJJJJJJJJJJJJ",
"JJJJJJJJJJJJJJJJJJJJJJJJ",
"J7JJJJJJJJJJJJJJJJJJJJ7J",
"J77777JJJJJJJJJJJJJ7777J",
"JJ7ncs77777s777777scn7JJ",
"JJ7cNCwcgcnNNncgcNCNc7JJ",
"JJ7gNVVVCNVVVVNNVVVNg7JJ",
"JJ7sNNVVNNVVVVVNVVVNs7JJ",
"JJ77BCSHHSBBBVSHHSCB66JJ",
"JJJsBSFFGFSBBSFFFFSB7JJJ",
"JJJgBH.FF.HBBH.FF.HBgJJJ",
"JJ7bBH.  .HBBH.  .HCw7JJ",
"++%cCSF..FSVBSF..FACn%++",
"JJ>11rSHHZoXXoZHHAi21:JJ",
"JJ%uu-#4kV#XX#Bk,M%uu%JJ",
"JJ%,r1M4kVVOOVVkuMMu,%JJ",
"JJJ%%y-kCNk--kBBk-k-%JJJ",
"+++>rNy1kk%yy-kk-rNs>+++",
"JJJJ7gCr1-yNCy--rNc7JJJJ",
"JJJJJ79wVNNNBBBBb96JJJJJ",
"JJJJJJJ7gccwwwgg7JJJJJJJ",
"JJJJJJJJJ777777JJJJJJJJJ",
"JJJJJJJJJJJJJJJJJJJJJJJJ",
"JJJJJJJJJJJJJJJJJJJJJJJJ"
};
