/* XPM */
static const char *clock[] = {
/* columns rows colors chars-per-pixel */
"24 24 60 1 ",
"  c #2E4154",
". c #304355",
"X c #304356",
"o c #304357",
"O c #304457",
"+ c #334659",
"@ c #32465A",
"# c #32475B",
"$ c #364858",
"% c #33485D",
"& c #34495E",
"* c #3E4A5B",
"= c #394B5C",
"- c #374C60",
"; c #3C4F61",
": c #3D5164",
"> c #3E5265",
", c #5F444E",
"< c #4F4654",
"1 c #415362",
"2 c #425563",
"3 c #4B5D6A",
"4 c #485C6D",
"5 c #4E606F",
"6 c #516473",
"7 c #546677",
"8 c #60717B",
"9 c #61727B",
"0 c #62737D",
"q c #943E3B",
"w c #B33B30",
"e c #B55B54",
"r c #667780",
"t c #647782",
"y c #657782",
"u c #6A7C86",
"i c #76868C",
"p c #788A91",
"a c #7D8D93",
"s c #839497",
"d c #849498",
"f c #85969A",
"g c #8B9B9E",
"h c #8D9EA0",
"j c #91A1A2",
"k c #93A3A5",
"l c #94A3A5",
"z c #94A4A5",
"x c #95A5A5",
"c c #94A5A6",
"v c #95A5A6",
"b c #96A6A6",
"n c #97A1AA",
"m c #99A8A9",
"M c #A6A9AF",
"N c #A9A8AE",
"B c #A0A9B1",
"V c #B7BFC2",
"C c #BDC3C7",
"Z c None",
/* pixels */
"ZZZZZZZZZZmllmZZZZZZZZZZ",
"ZZZZZZccccccccclcZZZZZZZ",
"ZZZZZclli93++39illcZZZZZ",
"ZZZZcld:OO++++O 2dclZZZZ",
"ZZZllr #-%-%----% rllZZZ",
"ZZllrO-%%%%nn+-+%%#rclZZ",
"Zlld++-%%%%CC-%-+-++fclZ",
"Zll2+---%-%CC%%%---+2llZ",
"Zni%%-%-%%%CC%-%%%%%%icZ",
"aht-%%%%%--CC%%%-%-%%tma",
"dl5-%-%%%%7CC7-%%%-%%6na",
"hn-%%%-%%-B-+CnCCCCCn-lh",
"gc:+%%%%-+B*+CmCCCCCn:cg",
"lc6--%-%-<eBB7-+-%%%+7cc",
"Zmr--%+-<w,--%%%%%-++rcZ",
"Zhp-#--<w,%%%%%--%%--alZ",
"Znc5+-<w,%%%%-%%%-%%4kkZ",
"Zccf-+q,%--%%%-%%%%-hkZZ",
"ZZccu---%%%%%%%%%%%unmZZ",
"ZZZcnr-%%-%--%-%--uncZZZ",
"ZZZZccf5+--%%--+4gccZZZZ",
"ZZZZZcmhar6::6ralccZZZZZ",
"ZZZZZZccccccnccclZZZZZZZ",
"ZZZZZZZZZZccccZZZZZZZZZZ"
};
