/* XPM */
const static char *copy[] = {
/* columns rows colors chars-per-pixel */
"24 24 128 2 ",
"   c #797877",
".  c #838280",
"X  c #8A8988",
"o  c #8B8A89",
"O  c #908F8F",
"+  c #90908D",
"@  c #90908F",
"#  c #979695",
"$  c #9C9B9A",
"%  c #9D9C9B",
"&  c #9F9E9D",
"*  c #A09F9E",
"=  c #A3A2A1",
"-  c #A8A7A7",
";  c #A8A7A8",
":  c #ACABAB",
">  c #B0AFAF",
",  c #B2B0B0",
"<  c #B3B2B2",
"1  c #B4B3B3",
"2  c #BCBBBA",
"3  c #BDBCBC",
"4  c #C0BFBF",
"5  c #C1BFBF",
"6  c #C1C0C0",
"7  c #C2C0C0",
"8  c #C2C1C1",
"9  c #C3C2C2",
"0  c #C3C3C3",
"q  c #C4C2C2",
"w  c #C5C3C3",
"e  c #C5C4C4",
"r  c #C6C4C5",
"t  c #C6C5C5",
"y  c #C7C5C5",
"u  c #C7C6C6",
"i  c #C8C7C7",
"p  c #CAC9C9",
"a  c #CBC9C9",
"s  c #CBCACA",
"d  c #CCCBCB",
"f  c #CDCCCC",
"g  c #CDCDCC",
"h  c #CECDCD",
"j  c #CFCECE",
"k  c #D0CFCF",
"l  c #D1CFD0",
"z  c #D1D0D0",
"x  c #D2D0D0",
"c  c #D2D1D1",
"v  c #D3D2D1",
"b  c #D3D1D2",
"n  c #D3D2D2",
"m  c #D3D3D2",
"M  c #D4D2D2",
"N  c #D4D3D3",
"B  c gray83",
"V  c #D5D4D4",
"C  c #D6D5D5",
"Z  c #D7D5D5",
"A  c #D6D5D6",
"S  c #D7D6D6",
"D  c #D8D6D6",
"F  c #D8D6D7",
"G  c #D8D7D7",
"H  c #D9D8D8",
"J  c #D9D8D9",
"K  c #DAD8D8",
"L  c #DAD8D9",
"P  c #DAD9D9",
"I  c #DBD9D9",
"U  c #DBDBD9",
"Y  c #DBD9DA",
"T  c #DBDADA",
"R  c #DDDADA",
"E  c #DCDBDB",
"W  c #DDDCDC",
"Q  c #DDDDDC",
"!  c #DEDCDC",
"~  c #DEDDDC",
"^  c #DEDDDD",
"/  c #DFDDDD",
"(  c #DFDEDD",
")  c #DFDEDE",
"_  c #E0DDDD",
"`  c #E0DFDF",
"'  c #E0E0DF",
"]  c #E1E0DF",
"[  c #E1E0E0",
"{  c #E1E1E0",
"}  c #E1E1E1",
"|  c #E2E1E0",
" . c #E2E2E0",
".. c #E2E2E1",
"X. c #E3E2E1",
"o. c #E2E3E1",
"O. c #E3E3E1",
"+. c #E3E2E2",
"@. c #E3E3E2",
"#. c #E4E3E2",
"$. c #E4E4E3",
"%. c #E5E4E3",
"&. c #E5E5E4",
"*. c #E6E5E4",
"=. c #E6E5E5",
"-. c #E7E5E5",
";. c #E7E7E4",
":. c #E6E6E5",
">. c #E7E7E5",
",. c #E6E6E6",
"<. c #E7E7E6",
"1. c #E8E7E7",
"2. c #E8E8E7",
"3. c #E8E9E7",
"4. c #E9E9E7",
"5. c #E9E8E8",
"6. c #E9E9E8",
"7. c #EAE8E8",
"8. c #EBE9E9",
"9. c #EAEAE9",
"0. c #EAEAEA",
"q. c #EBEAEA",
"w. c #EBEBEA",
"e. c #ECEBEB",
"r. c #EBECE9",
"t. c #EDEDEC",
"y. c #EEEDEC",
"u. c None",
/* pixels */
"u.u.u.u.u.u.u.u.u.u.u.u.u.u.u.u.u.u.u.u.u.u.u.u.",
"u.u.u.u.u.u.u.u.u.u.u.u.u.u.u.u.u.u.u.u.u.u.u.u.",
"u.u.u.u.u.u.u.u.u.u.u.u.u.u.u.u.u.u.u.u.u.u.u.u.",
"u.u.u.u.u.u.u.u.u.N N N D D ! ! ; u.u.u.u.u.u.u.",
"u.u.u.u.u.u.u.u.u.G N N ! ! ! ! & . u.u.u.u.u.u.",
"u.u.u.u.u.u.u.u.u.! N N ! ! ' ! & . + u.u.u.u.u.",
"u.u.u.u.9.9.9.9.@.1.9.i i @.@.@.j # & : u.u.u.u.",
"u.u.u.u.9.9.9.9.9.9.9.2 o j @.@.' J N N u.u.u.u.",
"u.u.u.u.9.3.@.1.3.3.y.5   O j ! ! N N N u.u.u.u.",
"u.u.u.u.9.3.3.1.3.9.7._ * O * k J N N N u.u.u.u.",
"u.u.u.u.9.9.1.3.3.1.7.9.1.@.@.! k k j j u.u.u.u.",
"u.u.u.u.9.3.1.1.3.9.9.3.3.1.1.! j j j j u.u.u.u.",
"u.u.u.u.3.3.1.3.1.3.3.3.1.3.3.K j i i j u.u.u.u.",
"u.u.u.u.1.1.@.3.1.1.1.3.1.@.3.N i j 7 j u.u.u.u.",
"u.u.u.u.@.@.1.3.@.3.1.@.1.@.@.N i 7 7 7 u.u.u.u.",
"u.u.u.u.] ] @.@.@.1.1.1.@.@.@.N 7 7 7 7 u.u.u.u.",
"u.u.u.u._ ! ! ] @.@.@.@.' ' ' j 7 6 7 7 u.u.u.u.",
"u.u.u.u.! K ! ! ! ! ! ' ! ! ! 7 > < < : u.u.u.u.",
"u.u.u.u.j N N J ! ! J ! J J ! < u.u.u.u.u.u.u.u.",
"u.u.u.u.j j j N N N N ! N k N u.u.u.u.u.u.u.u.u.",
"u.u.u.u.: 7 7 7 j 7 u 7 7 7 2 u.u.u.u.u.u.u.u.u.",
"u.u.u.u.u.u.u.u.u.u.u.u.u.u.u.u.u.u.u.u.u.u.u.u.",
"u.u.u.u.u.u.u.u.u.u.u.u.u.u.u.u.u.u.u.u.u.u.u.u.",
"u.u.u.u.u.u.u.u.u.u.u.u.u.u.u.u.u.u.u.u.u.u.u.u."
};
