/* XPM */
static char *dashboard[] = {
/* columns rows colors chars-per-pixel */
"24 24 78 1 ",
"  c #6F6A56",
". c #557B65",
"X c #6D7A63",
"o c #BC3C2D",
"O c #C0392B",
"+ c #C93D2F",
"@ c #A24B3B",
"# c #A84C3B",
"$ c #B14233",
"% c #B34333",
"& c #A3503E",
"* c #D94B3B",
"= c #DD4A3A",
"- c #D84C3C",
"; c #D94C3C",
": c #8A5A48",
"> c #9A5744",
", c #BF5B49",
"< c #BE5C4A",
"1 c #8E604D",
"2 c #BF604D",
"3 c #C15F4C",
"4 c #26977D",
"5 c #2F9B7F",
"6 c #31977C",
"7 c #408B72",
"8 c #489077",
"9 c #4E9379",
"0 c #529075",
"q c #16A287",
"w c #1BA084",
"e c #16A488",
"r c #17A489",
"t c #17A68A",
"y c #1FA388",
"u c #18A68A",
"i c #17A88B",
"p c #17A98C",
"a c #17A98D",
"s c #17AB8E",
"d c #18AA8E",
"f c #18AB8E",
"g c #18AC8F",
"h c #18AE90",
"j c #19AE90",
"k c #18AE91",
"l c #18B093",
"z c #19B294",
"x c #19B495",
"c c #19B597",
"v c #19B697",
"b c #19B798",
"n c #1AB799",
"m c #19B998",
"M c #1AB999",
"N c #19B99A",
"B c #1AB99A",
"V c #19BA9A",
"C c #1ABA9A",
"Z c #1ABB9B",
"A c #1FB898",
"S c #1ABC9B",
"D c #1ABB9C",
"F c #1BBB9C",
"G c #1ABC9C",
"H c #22AE90",
"J c #22B597",
"K c #21B697",
"L c #2AB091",
"P c #20BC9D",
"I c #20BD9E",
"U c #4AA285",
"Y c #EBC2BF",
"T c #90D0C4",
"R c #B1DCD5",
"E c #B2E2D9",
"W c #CAE7E3",
"Q c None",
/* pixels */
"QQQQQQQQQQQQQQQQQQQQQQQQ",
"QQQQQQQQQQQQQQQQQQQQQQQQ",
"QQQQQQQQQQQQQQQQQQQQQQQQ",
"QQQQQQQQQQQQQQQQQQQQQQQQ",
"QQQQQQQQkitqqtifQQQQQQQQ",
"QQQQQQittkzGGzkiqfQQQQQQ",
"QQQQQtfGGGGEEGGGGkiQQQQQ",
"QQQftbEEGGGRRGGGEEzifQQQ",
"QQQfGGRRGGGtiGGGRRK0fQQQ",
"QQfGGGiiGGGGGGGGi5>HGfQQ",
"QfGGGGGGGGGGGGGG0$5IIGfQ",
"QzGEEGGGGGGGGGGXo7GWWGkQ",
"QGGRRGGGGGGGGG1O.zGTTGGQ",
"zGGtiGGGGGGGJ#O zGGkfGGz",
"bGGGGGGGGGU3;+:kGGGGGGGz",
"mGGGGGGGGG3YY;yGGGGGGGGG",
"GGEEGGGGGL;YY3GGGGGGEEGG",
"bGRRGGGGG@+;37GGGGGGRRGb",
"GGtiGGGGK$@4izGGGGGGiiGG",
"GGGGGGGGGwiGGGGGGGGGGGGG",
"QQQQQQQQQQQQQQQQQQQQQQQQ",
"QQQQQQQQQQQQQQQQQQQQQQQQ",
"QQQQQQQQQQQQQQQQQQQQQQQQ",
"QQQQQQQQQQQQQQQQQQQQQQQQ"
};
