/* XPM */
static char *database[] = {
/* columns rows colors chars-per-pixel */
"24 24 69 1 ",
"  c #808D8E",
". c #818E8F",
"X c #828F90",
"o c #839091",
"O c #839192",
"+ c #859293",
"@ c #859294",
"# c #869394",
"$ c #869495",
"% c #859597",
"& c #889697",
"* c #899697",
"= c #8B9899",
"- c #8D9C9D",
"; c #8F9C9D",
": c #8E9D9E",
"> c #90A0A1",
", c #92A2A3",
"< c #94A0A2",
"1 c #93A3A4",
"2 c #94A4A5",
"3 c #95A5A6",
"4 c #97A6A7",
"5 c #97A6A8",
"6 c #99A7A9",
"7 c #9DA7AA",
"8 c #99A8A9",
"9 c #9AA8AA",
"0 c #9AA9AA",
"q c #9BAAAB",
"w c #9EABAC",
"e c #9EACAE",
"r c #9FADAE",
"t c #A0AEB0",
"y c #A4AEB0",
"u c #A5B1B3",
"i c #A5B2B4",
"p c #A9B5B7",
"a c #ACB7B9",
"s c #AFB8BB",
"d c #B0B9BC",
"f c #B1BABD",
"g c #B2BABE",
"h c #B2BBBE",
"j c #B4BCBF",
"k c #B4BCC0",
"l c #B4BDC0",
"z c #B6BCC0",
"x c #B8BFC3",
"c c #BBC2C6",
"v c #BCC2C6",
"b c #BDC3C6",
"n c #BDC3C7",
"m c #BEC3C7",
"M c #BDC2C8",
"N c #C2C8CB",
"B c #C3C9CD",
"V c #C1CACC",
"C c #C9CED2",
"Z c #CBD2D3",
"A c #CFD5D7",
"S c #DCE1E3",
"D c #DEE3E4",
"F c #DFE4E6",
"G c #E1E6E8",
"H c #E2E7E8",
"J c #E6EAEB",
"K c #EAEEEF",
"L c None",
/* pixels */
"LLLLLLLLLLLLLLLLLLLLLLLL",
"LLLLLLLLnMnnnnMnLLLLLLLL",
"LLLLLnnnnnnnnnnnnnnLLLLL",
"LLLLnnnnnnnnnnnnnnnnLLLL",
"LLLnnnnnnnnnnnnnnnnnnLLL",
"LLLjnnnnnnnnnnnnnnnnnLLL",
"LLLrnnnnnnnnnnnnnnnnnLLL",
"LLL3rsnnnnnnnnnnnnnnnLLL",
"LLL3336pjjlnnnnnnnnnlLLL",
"LLL-33333333nnnnnnnxaLLL",
"LLLyo-333333MMnnnnjrALLL",
"LLLrj*oo-:33nllap3pGCLLL",
"LLL3rsj4-oo 6rrpVGSVnLLL",
"LLL3338psjcnKJSSANMMxLLL",
"LLL-33333333nnMMnnnnaLLL",
"LLLyo-333344nnnMnnarALLL",
"LLLtj*.o-333xllap6pSCLLL",
"LLL3rslr*o  5rtpVGSNMLLL",
"LLL3336pjjxlKJGSANnnxLLL",
"LLLo33333333nnnnnnnnrLLL",
"LLLL.-333333nMnnnnsr<LLL",
"LLLLLXX*-333nljap65LLLLL",
"LLLLLLL%ooX.3rrr3LLLLLLL",
"LLLLLLLLLLLLLLLLLLLLLLLL"
};
