/* XPM */
static char *file_note[] = {
/* columns rows colors chars-per-pixel */
"24 24 16 1 ",
"  c #95A4A6",
". c #94A5A6",
"X c #95A5A6",
"o c #99A8A9",
"O c #9BAAAC",
"+ c #9DABAD",
"@ c #A0ADAF",
"# c #A2AFB1",
"$ c #AAB5B7",
"% c #ABB6B8",
"& c #B4BCBF",
"* c #B5BDC0",
"= c #B9C0C5",
"- c #BAC1C5",
"; c #BDC3C7",
": c None",
/* pixels */
"::::::::::::::::::::::::",
"::::;;;;;;;;;;;#::::::::",
":::-;;;;;;;;;;;X#:::::::",
":::--%o%;;;;;;;XX#::::::",
":::XXX:+;;;;;;;XXX#:::::",
":::;;;:-;;;;;;;+XXX#::::",
":::;;;;;;;;;;;;*+XXX#:::",
":::;;;;;;;;;;;;;;;;;;:::",
":::;;%o%;;;;;;;;;;;;;:::",
":::XXX:+;;;;;;;;;;;;;:::",
":::;;;:-;;;;;;;;;;;;;:::",
":::;;;;;;;;;;;;;;;;;;:::",
":::;;;;;;;;;;;;;;;;;;:::",
":::;;%o%;;;;;;;;;;;;;:::",
":::XXX:+;;;;;;;;;;;;;:::",
":::;;;:*;;;;;;;;;;;;;:::",
":::;;;;;;;;;;;;;;;;;;:::",
":::;;;;;;;;;;;;;;;;;;:::",
":::;-$+$;;;;;;;;;;;;;:::",
":::XXX:+;;;;;;;;;;;;;:::",
":::-;;:-;;;;;;;;;;;;;:::",
":::*;;;;;;;;;;;;;;;;*:::",
":::#*;;;;;;;;;;;;;-*#:::",
"::::XXXXXXXXXXXXXXXX::::"
};
