/* XPM */
static const char *file_powerpoint[] = {
/* columns rows colors chars-per-pixel */
"24 24 19 1 ",
"  c #D35400",
". c #D25B0C",
"X c #D15F14",
"o c #E67E22",
"O c #CB7A45",
"+ c #E4822C",
"@ c #E28532",
"# c #D8965B",
"$ c #94A5A6",
"% c #95A5A6",
"& c #9DABAD",
"* c #A0ADAF",
"= c #A2AFB1",
"- c #C0B6AF",
"; c #C2BBB3",
": c #B5BDC0",
"> c #BAC1C5",
", c #BDC3C7",
"< c None",
/* pixels */
"<<<<<<<<<<<<<<<<<<<<<<<<",
"<<<<,,,,,,,,,,,=<<<<<<<<",
"<<<>,,,,,,,,,,,%=<<<<<<<",
"<<<>,,,,,,,,,,,%%=<<<<<<",
"<<<,,,,,,,,,,,,%%%=<<<<<",
"<<<,,,,,,,,,,,,&%%%=<<<<",
"<<<,,,%%%%%%%%%%%%%%=<<<",
"<<<,,,,,,,,,,,,,,,,,,<<<",
"<<<,,,%%%%%%%%%%%%,,,<<<",
"<<<,,,,,,,,,,,,,,,,,,<<<",
"<<<,,,,,,,,,,,,,,,,,,<<<",
"<<<,,,,,,,,,,,,@#;,,,<<<",
"<<<,,,%%%,,-OX,oo+;,,<<<",
"<<<,,,%%%,-.  ,ooo#,,<<<",
"<<<,,,,,,,O   ,ooo@,,<<<",
"<<<,,,%%%,X   ,,,,,,,<<<",
"<<<,,,%%%,X      X,,,<<<",
"<<<,,,,,,,O      O,,,<<<",
"<<<,,,%%%,-.    .-,,,<<<",
"<<<,,,%%%,,-OXXO-,,,,<<<",
"<<<>,,,,,,,,,,,,,,,,,<<<",
"<<<:,,,,,,,,,,,,,,,,:<<<",
"<<<=:,,,,,,,,,,,,,>:=<<<",
"<<<<%%%%%%%%%%%%%%%%<<<<"
};
