/* XPM */
static char *file_zip[] = {
/* columns rows colors chars-per-pixel */
"24 24 25 1 ",
"  c #7F8C8D",
". c #8C9899",
"X c #8F9E9F",
"o c #94A5A6",
"O c #95A5A6",
"+ c #9DABAD",
"@ c #A0ADAF",
"# c #A2AFB1",
"$ c #AEBABB",
"% c #B0BBBD",
"& c #B2BBBE",
"* c #B4BCBF",
"= c #B3BEC0",
"- c #B5BDC0",
"; c #BAC1C5",
": c #BDC3C7",
"> c #BDC4C6",
", c #C2CACC",
"< c #CAD0D3",
"1 c #CED4D5",
"2 c #D8DDDE",
"3 c #DAE0E1",
"4 c #E0E5E6",
"5 c #ECF0F1",
"6 c None",
/* pixels */
"666666666666666666666666",
"6666:::::: 5o ;#66666666",
"666;::::::.o  :o#6666666",
"666;:::::: 5o ,oO#666666",
"666::::::-.O. -oOO#66666",
"666::::::- 5X ;+OOO#6666",
"666::::::: X  ,&@XOO#666",
"666::::::: 5X.,-,-,-,666",
"666::::::: X  --:::::666",
"666:::::::.5X.-,::::,666",
"666,::::::.X .::::::-666",
"666:::::::.<..::::::,666",
"666,::::::-42-,-::::,666",
"666-::::::4--4-,::::-666",
"666,::::::5,,5::::,-,666",
"666-::::::5555:::,-,;666",
"666,-,::::5&&5:::::::666",
"666:,-::::5&&5:::::::666",
"666:::::::2<<2-:::::,666",
"666,::::,-&44$,:::::-666",
"666,::::::*@@&,;::,;,666",
"666-::::::::-,-;:,-;*666",
"666@-:::::::,:;,::,*@666",
"6666OOOOOOOOOOooOOOo6666"
};
