/* XPM */
static char *file_exe[] = {
/* columns rows colors chars-per-pixel */
"24 24 30 1 ",
"  c #7F8C8D",
". c #8C989A",
"X c #8D989A",
"o c #8D999A",
"O c #8E999B",
"+ c #8F9A9C",
"@ c #94A5A6",
"# c #95A5A6",
"$ c #9DABAD",
"% c #A0A9AC",
"& c #A1AAAC",
"* c #A1AAAD",
"= c #A0ADAF",
"- c #A2AFB1",
"; c #A7AFB2",
": c #A7B0B3",
"> c #A9B1B4",
", c #AAB2B5",
"< c #B0B7BB",
"1 c #B2B9BC",
"2 c #B2B9BD",
"3 c #B3BABE",
"4 c #B4BCBF",
"5 c #B5BDC0",
"6 c #B6BDC0",
"7 c #B6BDC1",
"8 c #B8BEC2",
"9 c #BAC1C5",
"0 c #BDC3C7",
"q c None",
/* pixels */
"qqqqqqqqqqqqqqqqqqqqqqqq",
"qqqq00000000009:qqqqqqqq",
"qqq900000000000#=qqqqqqq",
"qqq900000000000##;qqqqqq",
"qqq000000000000###:qqqqq",
"qqq000000000000$###:qqqq",
"qqq0000000990905$###;qqq",
"qqq0000000, .30000009qqq",
"qqq00004+,&  &;X80000qqq",
"qqq0000.        +0000qqq",
"qqq0000;     .  ,0000qqq",
"qqq000<#  X<,X  &3000qqq",
"qqq000.   <99<    900qqq",
"qqq000   .<89<    000qqq",
"qqq0003&  .,<X  &3000qqq",
"qqq0099&    .   ,0000qqq",
"qqq0000+.     . .4000qqq",
"qqq00008X,# .%;O48000qqq",
"qqq0000000,. <0000000qqq",
"qqq000000990380000000qqq",
"qqq000000000000000000qqq",
"qqq500000000000000008qqq",
"qqq&8000000000000005&qqq",
"qqqq################qqqq"
};
