/* XPM */
static const char *file_bookmark[] = {
/* columns rows colors chars-per-pixel */
"24 24 16 1 ",
"  c #C0392B",
". c #E74C3C",
"X c #BF5F56",
"o c #D56054",
"O c #C67066",
"+ c #A59391",
"@ c #94A5A6",
"# c #95A5A6",
"$ c #A0AAAA",
"% c #A0ADAF",
"& c #A5B1B3",
"* c #B5BDC0",
"= c #BAC1C5",
"- c #BCC2C6",
"; c #BDC3C7",
": c None",
/* pixels */
"::::::::::::::::::::::::",
"::::=o   X;;;;;;;;;;::::",
":::=;.....;;;;;;;;;;;:::",
":::=;.....;;;;;;;;;;;:::",
":::;;.....;;;;;;;;;;;:::",
":::;;.....;;;;;;;;;;;:::",
":::;;.....;;;;;;;;;;;:::",
":::;;.....;;;;;;;;;;;:::",
":::;;.....;;;;;;;;;;;:::",
":::;;.....;;;;;;;;;;;:::",
":::;;.....;;;;;;;;;;;:::",
":::;;.....;;;;;;;;;;;:::",
":::;;.....;;;;;;;;;;;:::",
":::;;.o+o.;;;;;;;;;;;:::",
":::;;O%*%O;;;;;;;;;;;:::",
":::;=&=;=&;;;;;;;;;;;:::",
":::;;;;;;;;;;;;;;;;;;:::",
":::;;;;;;;;;;;;;;;;;;:::",
":::;;;;;;;;;;;;;;;;;;:::",
":::;;;;;;;;;;;;;;;;;;:::",
":::;;;;;;;;;;;;;;;;;;:::",
":::*;;;;;;;;;;;;;;;;*:::",
":::%*;;;;;;;;;;;;;;*%:::",
"::::################::::"
};
