/* XPM */
static const char *file_indesign[] = {
/* columns rows colors chars-per-pixel */
"24 24 15 1 ",
"  c #8E44AD",
". c #8E45AD",
"X c #9148AF",
"o c #914AAF",
"O c #924CAF",
"+ c #9854B4",
"@ c #9855B4",
"# c #9A58B5",
"$ c #9B59B5",
"% c #9B59B6",
"& c #AE7DC4",
"* c #B284C7",
"= c #DBD0E5",
"- c #ECF0F1",
"; c None",
/* pixels */
";;;;;;;;;;;;;;;;;;;;;;;;",
";;;;#%%%%%%%%%%O;;;;;;;;",
";;;#%%%%%%%%%%%XO;;;;;;;",
";;;#%%%%%%%%%##  O;;;;;;",
";;;%%%%%%%%%%%%X  O;;;;;",
";;;%%%%%%%%%%%#X   O;;;;",
";;;#%%%%%%%%%%#+O   O;;;",
";;;#%%%%%%%%%%%%%%%%%;;;",
";;;%%%%%%%%%%%%%%%%%%;;;",
";;;%%%%%%%%%%%%%%%%%%;;;",
";;;%%%%%%%%%%%%%%%%%%;;;",
";;;%%%%%%%%%%%%%%%%%%;;;",
";;;%%%%%%%%%%%%%%%%%%;;;",
";;;%%%%%%%%%-%%%%%%%%;;;",
";;;%%%%%%%%%-%%%%-%%%;;;",
";;;%%%%%%%%%-%%%%-%%%;;;",
";;;%%%%%%%%%-%&=--%%%;;;",
";;;%%%%%%%%%-%=*%-%%%;;;",
";;;%%%%%%%%%-%=*%-%%%;;;",
";;;%%%%%%%%%-%&=--%%%;;;",
";;;%%%%%%%%%%%%%%%%%%;;;",
";;;+%%%%%%%%%%%%%%%%+;;;",
";;;O+%%%%%%%%%%%%%%+O;;;",
";;;;                ;;;;"
};
