/* XPM */
static char *file_code[] = {
/* columns rows colors chars-per-pixel */
"24 24 61 1 ",
"  c #20A289",
". c #27A48C",
"X c #29A48D",
"o c #2CA58E",
"O c #33A691",
"+ c #34A691",
"@ c #35A691",
"# c #35A791",
"$ c #36A792",
"% c #3FA995",
"& c #40A996",
"* c #41A996",
"= c #42A996",
"- c #43A997",
"; c #44AA97",
": c #45AA98",
"> c #46AA98",
", c #47AA98",
"< c #48AA99",
"1 c #4CAB9A",
"2 c #54AD9D",
"3 c #55AD9E",
"4 c #56AD9E",
"5 c #57AE9F",
"6 c #59AE9F",
"7 c #59AEA0",
"8 c #5DAFA1",
"9 c #61B0A3",
"0 c #70B3A8",
"q c #72B3A9",
"w c #78B5AC",
"e c #94A5A6",
"r c #95A5A6",
"t c #9DABAD",
"y c #87B8B2",
"u c #89B8B3",
"i c #8DB9B4",
"p c #8EB9B4",
"a c #95BBB7",
"s c #9DBCBA",
"d c #A0ADAF",
"f c #A2AFB1",
"g c #A0BDBC",
"h c #A3BEBD",
"j c #A7BEBE",
"k c #A9BFBF",
"l c #B4BCBF",
"z c #B5BDC0",
"x c #B0C0C2",
"c c #B1C0C2",
"v c #B1C1C2",
"b c #B3C1C3",
"n c #B4C1C3",
"m c #B7C2C5",
"M c #BAC1C5",
"N c #B8C2C5",
"B c #B9C2C5",
"V c #BCC3C6",
"C c #BCC3C7",
"Z c #BDC3C7",
"A c None",
/* pixels */
"AAAAAAAAAAAAAAAAAAAAAAAA",
"AAAAZZZZZZZZZZZfAAAAAAAA",
"AAAMZZZZZZZZZZZrfAAAAAAA",
"AAAMZZZZZZZZZZZrrfAAAAAA",
"AAAZZZZZZZZZZZZrrrfAAAAA",
"AAAZZZZZZZZZZZZtrrrfAAAA",
"AAAZZZZZZZZZZZZztrrrfAAA",
"AAAZZZZZZZZZZsZZZZZZZAAA",
"AAAZCCCCZZZZx.MZZZZZZAAA",
"AAAZCCCC9aZZq7j2MZZZZAAA",
"AAAZZZC5#cZZ<uc<;cZZZAAA",
"AAAZZC5%cZZM.cZM;<MZZAAA",
"AAAZC5#cZCCu%ZZZM;;cZAAA",
"AAAZC<;cZCC80ZZZM2#cZAAA",
"AAAZZC;;CCMogCZM2#cZZAAA",
"AAAZCCc<;MjoCCM5%cZZZAAA",
"AAAZZZZM2uq6MZj;xMZZZAAA",
"AAAZZZZCZZ;uZZZZCCZZZAAA",
"AAAZZZZZZZuMZZZZCZZZZAAA",
"AAAZZZZZZZZZZZZZCCZZZAAA",
"AAAMZZZZZZZZZZZZZZZZZAAA",
"AAAcZZZZZZZZZZZZZZZZMAAA",
"AAAdMZZZZZZZZZZZZZMcdAAA",
"AAAAerrrrrrrrrrrrreeAAAA"
};
