/* XPM */
static const char *flask[] = {
/* columns rows colors chars-per-pixel */
"24 24 37 1 ",
"  c #27AE60",
". c #33B068",
"X c #2FCA71",
"o c #2ECC71",
"O c #42C97B",
"+ c #59B582",
"@ c #6AB78E",
"# c #72B893",
"$ c #4CCA83",
"% c #5BCD8C",
"& c #55D38B",
"* c #56D48C",
"= c #63C88F",
"- c #8BBCA5",
"; c #81D5A6",
": c #9BC5B3",
"> c #B2C2BF",
", c #B3C4C1",
"< c #BDC3C7",
"1 c #BFE8D3",
"2 c #C1C7CB",
"3 c #C3CACD",
"4 c #C4C9CD",
"5 c #C6CBCF",
"6 c #C8CED1",
"7 c #CACFD3",
"8 c #CDD2D5",
"9 c #CED4D6",
"0 c #D0D6DA",
"q c #CDE8DA",
"w c #CDE8DC",
"e c #D9ECE4",
"r c #EBEFF1",
"t c #ECF0F0",
"y c #ECF0F1",
"u c #ECF1F1",
"i c None",
/* pixels */
"iiiiiiiiiiiiiiiiiiiiiiii",
"iiiiiiiiiiiiiiiiiiiiiiii",
"iiiiiiiii<<<yyyiiiiiiiii",
"iiiiiiiii<<<yyyiiiiiiiii",
"iiiiiiiii<<<yyyiiiiiiiii",
"iiiiiiiii<<<yyyiiiiiiiii",
"iiiiiiiii<<<yyyiiiiiiiii",
"iiiiiiiii<<<yyyiiiiiiiii",
"iiiiiiiii<<<yyyiiiiiiiii",
"iiiiiiiii<<<yyyiiiiiiiii",
"iiiiiiii0<<<yyyiiiiiiiii",
"iiiiiiii2<<<yyyyiiiiiiii",
"iiiiiii7<<<<yyyyyiiiiiii",
"iiiiiii<<:$$1yyyyiiiiiii",
"iiiiii3<<$oo&e&&eyiiiiii",
"iiiii9@          =iiiiii",
"iiiii,.     oooooowiiiii",
"iiii3+      ooooooOriiii",
"iii9-       ooooooo;iiii",
"iii,.       oooooooXqiii",
"ii7+        ooooooooOyii",
"ii9#        oooooooo%rii",
"iii3<<<<<<<<<<<<<<<<9iii",
"iiiiiiiiiiiiiiiiiiiiiiii"
};
