/* XPM */
static const char *folder_music[] = {
/* columns rows colors chars-per-pixel */
"24 24 25 1 ",
"  c #2980B9",
". c #2981BA",
"X c #2A81BB",
"o c #2A82BC",
"O c #2A83BD",
"+ c #2B84BE",
"@ c #2B84BF",
"# c #4C90BC",
"$ c #5293BC",
"% c #2B85C0",
"& c #2C87C2",
"* c #2E8AC7",
"= c #2E8AC8",
"- c #2E8CCA",
"; c #2F8CCA",
": c #3090D0",
"> c #3192D2",
", c #3293D4",
"< c #3293D5",
"1 c #3498DA",
"2 c #3498DB",
"3 c #4A9ED6",
"4 c #9EB5C4",
"5 c #BDC3C7",
"6 c None",
/* pixels */
"666666666666666666666666",
"66         6666666666666",
"6           666666666666",
"6                     66",
"6#45555555555555555554$6",
"632222222222222222222236",
"<2222222222222222222222<",
"2222222222222<;% 2222222",
"2222222222<;     2222222",
"222222222        2222222",
"222222222        2222222",
"222222222     *< 2222222",
"222222222  ;<222 2222222",
"222222222 222222 2222222",
"222222222 222222 2222222",
"222222222 22<  * 2222222",
"222222222 22     2222222",
"22222>% % 22<%  <2222222",
"22222     22222222222222",
"22222>%  <22222222222222",
"<2222222222222222222222<",
"*<22222222222222222222<*",
"6                      6",
"666666666666666666666666"
};
