/* XPM */
static const char *folder_picture[] = {
/* columns rows colors chars-per-pixel */
"24 24 27 1 ",
"  c #2980B9",
". c #2A81BB",
"X c #2A82BC",
"o c #2A83BD",
"O c #2B84BF",
"+ c #4C90BC",
"@ c #5293BC",
"# c #2C86C1",
"$ c #2C86C2",
"% c #2C87C2",
"& c #2D88C5",
"* c #2E8BC8",
"= c #2E8CCA",
"- c #2F8DCC",
"; c #2F8ECC",
": c #3293D4",
"> c #3293D5",
", c #3395D7",
"< c #3396D8",
"1 c #3397D9",
"2 c #3497DA",
"3 c #3498DA",
"4 c #3498DB",
"5 c #4A9ED6",
"6 c #9EB5C4",
"7 c #BDC3C7",
"8 c None",
/* pixels */
"888888888888888888888888",
"88         8888888888888",
"8           888888888888",
"8                     88",
"8+67777777777777777776@8",
"854444444444444444444458",
">4444444444444444444444>",
"444444444444444444444444",
"4444-              &4444",
"4444 44444444444443 4444",
"4444 4; -4444444444 4444",
"4444 4   4444-24444 4444",
"4444 4- -444-  4444 4444",
"4444 444444-   &444 4444",
"4444 444 4-     &44 4444",
"4444 42          -4 4444",
"4444 4            4 4444",
"4444 4            4 4444",
"4444 44444444444444 4444",
"4444-              &4444",
">4444444444444444444444>",
"&>44444444444444444444>&",
"8                      8",
"888888888888888888888888"
};
