/* XPM */
static const char *folder_video[] = {
/* columns rows colors chars-per-pixel */
"24 24 13 1 ",
"  c #2980B9",
". c #4C90BC",
"X c #5293BC",
"o c #2C87C2",
"O c #2E8BC8",
"+ c #3293D4",
"@ c #3293D5",
"# c #3396D8",
"$ c #3498DB",
"% c #4A9ED6",
"& c #9EB5C4",
"* c #BDC3C7",
"= c None",
/* pixels */
"========================",
"==         =============",
"=           ============",
"=                     ==",
"=.&******************&X=",
"=%$$$$$$$$$$$$$$$$$$$$%=",
"@$$$$$$$$$$$$$$$$$$$$$$@",
"$$$$$O            O$$$$$",
"$$$$$ ## #$$$$# ## $$$$$",
"$$$$$ ## $$$$$$ ## $$$$$",
"$$$$$    $$$$$$    $$$$$",
"$$$$$ ## $$$$$$ ## $$$$$",
"$$$$$ ## #$$$$# ## $$$$$",
"$$$$$              $$$$$",
"$$$$$ ## #$$$$# ## $$$$$",
"$$$$$ ## $$$$$$ ## $$$$$",
"$$$$$    $$$$$$    $$$$$",
"$$$$$ ## $$$$$$ ## $$$$$",
"$$$$$ ## #$$$$# ## $$$$$",
"$$$$$O            O$$$$$",
"@$$$$$$$$$$$$$$$$$$$$$$@",
"o@$$$$$$$$$$$$$$$$$$$$@o",
"=                      =",
"========================"
};
