/* XPM */
static const char *gift[] = {
/* columns rows colors chars-per-pixel */
"24 24 14 1 ",
"  c #C1392A",
". c #C0392B",
"X c #C1392B",
"o c #C03A2B",
"O c #C0382C",
"+ c #E74C3C",
"@ c #E67E22",
"# c #F39C12",
"$ c #F49C12",
"% c #F3A711",
"& c #F1BC10",
"* c #F1C30F",
"= c #F1C40F",
"- c None",
/* pixels */
"------------------------",
"------ooo------oOO------",
"-----oo--o----o--OO-----",
"-----oo--oo--oo--OO-----",
"-----oo---oooX---OO-----",
"------oooXXoooooOO------",
"-****===*++++++*=======-",
"******==*++++++*========",
"***&*****++++++*******==",
"***&*****++++++*&&****==",
"-@@@#@@@@ooo.Oo@@@@#@@@-",
"-########ooo.Xo########-",
"-###%####......########-",
"-=====***++++++*=======-",
"-=====***++++++*=======-",
"-=====***++++++*=======-",
"-========++++++========-",
"-========++++++========-",
"-========++++++========-",
"-========++++++========-",
"-&=======++++++=======&-",
"-%&======++++++======&%-",
"--#######OOOOOO#######--",
"------------------------"
};
