/* XPM */
static char *heart[] = {
/* columns rows colors chars-per-pixel */
"24 24 6 1 ",
"  c #E74C3B",
". c #E64B3C",
"X c #E74C3C",
"o c #E74D3C",
"O c #E74C3D",
"+ c None",
/* pixels */
"++++++++++++++++++++++++",
"++++++++++++++++++++++++",
"++++++++++++++++++++++++",
"+++++....++++++.ooo+++++",
"+++ooo..ooo++oooO O o+++",
"++oooo..OooO..ooOO Ooo++",
"++ooo...OOooooooOOoooo++",
"+oooo...OOooooooOOOoooo+",
"+O O O OOO O O OO O O o+",
"+ O O O OOO O O  O O Oo+",
"+o O O O O O O OO OOO  +",
"++O O O O O O O  O O O++",
"++.ooOOO O O O OOOOOo.++",
"+++oooOOO O O O ooOOo+++",
"++++oo O O O O Ooooo++++",
"+++++ O O O O O ooo+++++",
"++++++oooooOOOoooO++++++",
"+++++++oooOOOOooo+++++++",
"++++++++ooooOO o++++++++",
"+++++++++oooO O+++++++++",
"++++++++++oooo++++++++++",
"+++++++++++oo+++++++++++",
"++++++++++++++++++++++++",
"++++++++++++++++++++++++"
};
