/* XPM */
static char *lightning[] = {
/* columns rows colors chars-per-pixel */
"24 24 39 1 ",
"  c #E67E22",
". c #E9881E",
"X c #F39C12",
"o c #F39D12",
"O c #F39E12",
"+ c #F39F12",
"@ c #F1BE0F",
"# c #F1BF0F",
"$ c #F3A111",
"% c #F3A112",
"& c #F3A212",
"* c #F2A312",
"= c #F3A411",
"- c #F2A511",
"; c #F2A711",
": c #F2A910",
"> c #F2A811",
", c #F3A811",
"< c #F2A911",
"1 c #F2AB10",
"2 c #F2AB11",
"3 c #F4AA11",
"4 c #F3AC10",
"5 c #F2AD11",
"6 c #F2AE11",
"7 c #F2B210",
"8 c #F2B310",
"9 c #F3B311",
"0 c #F2B510",
"q c #F2B810",
"w c #F1BC10",
"e c #F1C10F",
"r c #F1C30F",
"t c #F1C40E",
"y c #F1C40F",
"u c #F1C210",
"i c #F1C310",
"p c #F1C410",
"a c None",
/* pixels */
"aaaaaaaXX$yyyyyyyaaaaaaa",
"aaaaaa>XXwyyyyypaaaaaaaa",
"aaaaaaXXXyyyyyyaaaaaaaaa",
"aaaaa>XX>yyyyyaaaaaaaaaa",
"aaaaa$XXyyyyyyaaaaaaaaaa",
"aaaaaXX>yyyypaaaaaaaaaaa",
"aaaa$XXwyyyyaaaaaaaaaaaa",
"aaaaXX$pyyyaaaaaaaaaaaaa",
"aaa>XX0yyyyyyyyyppypaaaa",
"aaa$XXyyyyyyyyyypppaaaaa",
"aa>$X>ppyyyyyyyyppaaaaaa",
"aa$XXwppyyyyyyyypaaaaaaa",
"aaaaaaaaaa ..yypaaaaaaaa",
"aaaaaaaaa$XX#ypaaaaaaaaa",
"aaaaaaaaaXX>ypaaaaaaaaaa",
"aaaaaaaa>XXypaaaaaaaaaaa",
"aaaaaaaa$X0paaaaaaaaaaaa",
"aaaaaaaaX$paaaaaaaaaaaaa",
"aaaaaaa>$0aaaaaaaaaaaaaa",
"aaaaaaa$>aaaaaaaaaaaaaaa",
"aaaaaa>>aaaaaaaaaaaaaaaa",
"aaaaaa>aaaaaaaaaaaaaaaaa",
"aaaaaaaaaaaaaaaaaaaaaaaa",
"aaaaaaaaaaaaaaaaaaaaaaaa"
};
