/* XPM */
static char *microphone[] = {
/* columns rows colors chars-per-pixel */
"24 24 13 1 ",
"  c #7F8C8D",
". c #95A5A5",
"X c #95A5A6",
"o c #95A5A7",
"O c #96A4A6",
"+ c #96A5A6",
"@ c #95A6A6",
"# c #98A7A8",
"$ c #9FACAF",
"% c #BCC3C6",
"& c #BDC3C7",
"* c #BDC4C7",
"= c None",
/* pixels */
"==========$#%&==========",
"=========#XX%&&=========",
"========$XXX&&&&========",
"========#XXX&&&%========",
"========..XX&&&&========",
"======== .XX&&XX========",
"========..XX&&&&========",
"========  XX&&XX========",
"========....%%%%========",
"========  ..%%..========",
"====++==....%%%%==++====",
"====XX==....%%%%==XX====",
"====XX==oooo%%%%==XX====",
"====Xo==$ooo%%&%==XX====",
"====ooo==#oo&&&==XX+====",
"=====oo===$#&&===XX=====",
"======XX========XX======",
"======oXXX====XXXo======",
"========XXXXXXXX========",
"==========oXXo==========",
"===========XX===========",
"===========XX===========",
"====+XXXXXXXXXXXXXX+====",
"====+XXXXXXXXXXXXXX+===="
};
