/* XPM */
const static char *new_file[] = {
/* columns rows colors chars-per-pixel */
"24 24 186 2 ",
"   c #2E741F",
".  c #307821",
"X  c #39702D",
"o  c #5D7C57",
"O  c #797877",
"+  c #3B871D",
"@  c #3C871D",
"#  c #4A951C",
"$  c #4A961C",
"%  c #5BA912",
"&  c #5FAB16",
"*  c #59A41E",
"=  c #59A41F",
"-  c #7DBD09",
";  c #7EBE0C",
":  c #62AC1A",
">  c #62AE1A",
",  c #64AE1D",
"<  c #68B311",
"1  c #6BB416",
"2  c #6DB519",
"3  c #6DB619",
"4  c #6EB51C",
"5  c #6FB61E",
"6  c #77BB10",
"7  c #73B817",
"8  c #78BB13",
"9  c #74B819",
"0  c #74BC1F",
"q  c #66AF20",
"w  c #65AB29",
"e  c #67B320",
"r  c #6AB721",
"t  c #75BF20",
"y  c #6DAD39",
"u  c #7AB740",
"i  c #6CA056",
"p  c #7BAD5B",
"a  c #80BE31",
"s  c #8FC527",
"d  c #93C730",
"f  c #84BE40",
"g  c #82BA55",
"h  c #8BB665",
"j  c #8CC541",
"k  c #A6D15C",
"l  c #9BC876",
"z  c #9FCA7B",
"x  c #A0D062",
"c  c #A5D063",
"v  c #A7CC78",
"b  c #878686",
"n  c #888787",
"m  c #8B8787",
"M  c #898989",
"N  c #8A8888",
"B  c gray54",
"V  c #8D8C8B",
"C  c #918A8E",
"Z  c #919090",
"A  c #949493",
"S  c #9E9C9B",
"D  c #96B389",
"F  c #A1A09F",
"G  c #A2A1A0",
"H  c #A5A4A3",
"J  c #ACA8AA",
"K  c #ACABAA",
"L  c #B4B4B2",
"P  c #B7DB87",
"I  c #BDDB86",
"U  c #BADC8D",
"Y  c #A8C596",
"T  c #BBD4A5",
"R  c #C3DC97",
"E  c #C3DB9E",
"W  c #D0DFB3",
"Q  c #CCE2AF",
"!  c #C4C2C2",
"~  c #C8C6C6",
"^  c #C8C7C7",
"/  c #C9C7C7",
"(  c #CAC9C9",
")  c #CCC8CC",
"_  c #CDCBCC",
"`  c #CECDCD",
"'  c #D0CFCE",
"]  c #D0CECF",
"[  c #D0CFCF",
"{  c #D3CCD6",
"}  c #D6D1D6",
"|  c #D7D5D6",
" . c #D7D6D6",
".. c gray85",
"X. c #DBD9D9",
"o. c #DDDCDC",
"O. c #DFDFDF",
"+. c #E0DFDF",
"@. c #E9EEDF",
"#. c gray88",
"$. c #E1E0E0",
"%. c #E2E1E1",
"&. c #E3E1E1",
"*. c #E2E2E1",
"=. c gray89",
"-. c #E4E4E3",
";. c #E4E5E3",
":. c #E6E7E3",
">. c #E5E3E6",
",. c #E6E3E7",
"<. c #E5E5E4",
"1. c gray90",
"2. c #E6E5E4",
"3. c #E6E5E5",
"4. c #E6E6E5",
"5. c #E7E6E5",
"6. c #E7E7E5",
"7. c #E6E4E6",
"8. c #E7E5E6",
"9. c #E7E7E6",
"0. c #E7E6E7",
"q. c #E7E7E7",
"w. c #E8E6E6",
"e. c #E8E7E7",
"r. c #E9E7E7",
"t. c #E7E8E6",
"y. c #E7E8E7",
"u. c #EAEEE3",
"i. c #E8E8E7",
"p. c #E9E8E7",
"a. c #E9E9E7",
"s. c #EAEAE7",
"d. c #E7E4E8",
"f. c #E8E7E8",
"g. c #E9E7E9",
"h. c #EAE5EC",
"j. c gray91",
"k. c #E9E8E8",
"l. c #E8E9E8",
"z. c #E9E9E8",
"x. c #E8E8E9",
"c. c #EAE8E8",
"v. c #EAE9E8",
"b. c #EAE8E9",
"n. c #EAE9E9",
"m. c #E9EAE8",
"M. c #EAEAE9",
"N. c #EAEBE9",
"B. c #EBEBE9",
"V. c #E8E8EA",
"C. c #EAEAEA",
"Z. c #EBEAEA",
"A. c #EBEBEA",
"S. c gray92",
"D. c #ECEBEB",
"F. c #EDEBEB",
"G. c #ECECEB",
"H. c #EDECEB",
"J. c #ECEDEB",
"K. c #ECEBEC",
"L. c #ECEAED",
"P. c #ECECEC",
"I. c #EDECEC",
"U. c #EDEDEC",
"Y. c #EFEDED",
"T. c #EEEEED",
"R. c #EDECEE",
"E. c #EEEEEE",
"W. c #EFEEEE",
"Q. c #EFEFEE",
"!. c #EFEFEF",
"~. c #F0EFEF",
"^. c #F0F0EE",
"/. c #F0F0EF",
"(. c #EAE4F0",
"). c #EEEBF0",
"_. c #EFEEF0",
"`. c #F0EEF2",
"'. c #F2EDF8",
"]. c gray94",
"[. c #F1F1F0",
"{. c #F1F1F1",
"}. c #F2F1F1",
"|. c #F2F2F1",
" X c gray95",
".X c None",
/* pixels */
".X.X.X.X.X.X.X.X.X.X.X.X.X.X.X.X.X.X.X.X.X.X.X.X",
".X.X.X.X.X.X.X.X.X.X.X.X.X.X.X.X.X.X.X.X.X.X.X.X",
".X.X.X.X.XC.C.C.C.C.C.i.C.J .X.X.X.X.X.X.X.X.X.X",
".X.X.X.XC.^.C.C.C.C.^.~.C.F n .X.X.X.X.X.X.X.X.X",
".X.X.X.XC.C.[.[.[.~.[.[.i.A N Z .X.X.X.X.X.X.X.X",
".X.X.X.XC.C.8.8.c.c.c.C.i.F O V A .X.X.X.X.X.X.X",
".X.X.X.XC.[.[.[.~.[.[.[.C.X.H S J L .X.X.X.X.X.X",
".X.X.X.X^.C.C.i.c.c.i.i.C.~.^.C.C.8..X.X.X.X.X.X",
".X.X.X.XC.C.^.^.~.~.^.^.~.~.~.[.[.C..X.X.X.X.X.X",
".X.X.X.XC.L.t.t.c.i.i.i.i.i.C.d.C.C..X.X.X.X.X.X",
".X.X.X.Xi.^.^.^.~.C.~.~.^.^.i.@.C.C..X.X.X.X.X.X",
".X.X.X.Xt.t.t.t.c.c.i.i.C.W d s I C..X.X.X.X.X.X",
".X.X.X.X8.t.L.C.L.L.L.L.`.E - - k g..X.X.X.X.X.X",
".X.X.X.X#.8.t.t.t.L.L.L.'.E 8 ; c (..X.X.X.X.X.X",
".X.X.X.X#.8.t.t.t.^.Q P U x 9 9 j v s .X.X.X.X.X",
".X.X.X.Xo.#.8.8.t.t.j < 1 4 4 4 r r r 9 .X.X.X.X",
".X.X.X.X .o.8.8.8.8.y % : : , q , , r e .X.X.X.X",
".X.X.X.X[ o.o.8.$.8.T z z g * * y h w .X.X.X.X.X",
".X.X.X.X^  .#.#.$.8.8.8.g.Y # # p { .X.X.X.X.X.X",
".X.X.X.X! ^ ^ ^ _ _ [ [  .D @ @ i ) .X.X.X.X.X.X",
".X.X.X.X.X.XV n V n N n C o   . X .X.X.X.X.X.X.X",
".X.X.X.X.X.X.X.X.X.X.X.X.X.X.X.X.X.X.X.X.X.X.X.X",
".X.X.X.X.X.X.X.X.X.X.X.X.X.X.X.X.X.X.X.X.X.X.X.X",
".X.X.X.X.X.X.X.X.X.X.X.X.X.X.X.X.X.X.X.X.X.X.X.X"
};
