/* XPM */
const static char *open[] = {
/* columns rows colors chars-per-pixel */
"24 24 190 2 ",
"   c #B28C3E",
".  c #CB993A",
"X  c #B48E41",
"o  c #B48F41",
"O  c #B68F41",
"+  c #B69041",
"@  c #B79142",
"#  c #BA9242",
"$  c #BA9443",
"%  c #BD9643",
"&  c #B99344",
"*  c #BD9644",
"=  c #BC9646",
"-  c #BD9846",
";  c #C09845",
":  c #C39945",
">  c #C19846",
",  c #C19946",
"<  c #C39A46",
"1  c #C59B46",
"2  c #C49C47",
"3  c #C59D47",
"4  c #C79E47",
"5  c #C69D48",
"6  c #C99F48",
"7  c #CCA047",
"8  c #CEA147",
"9  c #CAA048",
"0  c #CAA049",
"q  c #CDA148",
"w  c #CEA34D",
"e  c #D0A347",
"r  c #D2A547",
"t  c #D5A648",
"y  c #D4AB4F",
"u  c #D9A848",
"i  c #DAA948",
"p  c #D9A94A",
"a  c #DCAB48",
"s  c #DEAC49",
"d  c #DFAD49",
"f  c #C8A153",
"g  c #C9A556",
"h  c #D0A851",
"j  c #D7AE52",
"k  c #D6AE53",
"l  c #D8AF53",
"z  c #D2AA58",
"x  c #DAAF5A",
"c  c #DAB255",
"v  c #DEB55D",
"b  c #E1AE49",
"n  c #E3B04A",
"m  c #E3B04B",
"M  c #E3B24B",
"N  c #E4B24B",
"B  c #E4B14D",
"V  c #E5B44C",
"C  c #E5B54C",
"Z  c #E7B64D",
"A  c #E7B64E",
"S  c #E7B84E",
"D  c #E9B94E",
"F  c #E9B94F",
"G  c #EABB4F",
"H  c #ECBC4F",
"J  c #E1B454",
"K  c #E8B850",
"L  c #EBBD50",
"P  c #ECBE50",
"I  c #EDBF50",
"U  c #EDBF51",
"Y  c #EDBE53",
"T  c #EABB56",
"R  c #E0B759",
"E  c #E2BA5F",
"W  c #E2BC61",
"Q  c #E5BF61",
"!  c #EEC151",
"~  c #EEC059",
"^  c #F0C252",
"/  c #F0C352",
"(  c #F1C453",
")  c #F2C653",
"_  c #F1C455",
"`  c #F2C654",
"'  c #F3C754",
"]  c #F5C955",
"[  c #F5CA56",
"{  c #F5CB57",
"}  c #F2C65B",
"|  c #F6CA58",
" . c #F6CC58",
".. c #F7CC59",
"X. c #F6CC5D",
"o. c #F7CF5C",
"O. c #F8CF5B",
"+. c #F7D05D",
"@. c #F7D05F",
"#. c #FAD25E",
"$. c #E9C464",
"%. c #E8C564",
"&. c #F0CD6A",
"*. c #F7D160",
"=. c #F7D263",
"-. c #F7D363",
";. c #F8D362",
":. c #FDD763",
">. c #F8D465",
",. c #F8D466",
"<. c #F8D467",
"1. c #F8D668",
"2. c #F8D669",
"3. c #F9D669",
"4. c #F8D76A",
"5. c #F8D76B",
"6. c #F9D66C",
"7. c #FDDA6A",
"8. c #F8D86C",
"9. c #F8D86D",
"0. c #F8D96F",
"q. c #E9C072",
"w. c #F8D971",
"e. c #F9DA70",
"r. c #F8DA71",
"t. c #F8DA72",
"y. c #F8DB73",
"u. c #FDDD70",
"i. c #F8DB75",
"p. c #F9DC77",
"a. c #F9DD78",
"s. c #F9DD79",
"d. c #F8DE79",
"f. c #FADE78",
"g. c #FADC7B",
"h. c #F9DE7B",
"j. c #F9DF7C",
"k. c #FEE076",
"l. c #F9E07E",
"z. c #FEE57E",
"x. c #D2C18D",
"c. c #E9C885",
"v. c #F9DE80",
"b. c #E4CD9C",
"n. c #EDD29B",
"m. c #EDD49C",
"M. c #FAE180",
"N. c #FAE382",
"B. c #FBE383",
"V. c #FAE384",
"C. c #FAE484",
"Z. c #FBE586",
"A. c #FBE687",
"S. c #FFEA87",
"D. c #FAE188",
"F. c #FBE689",
"G. c #FBE88B",
"H. c #FBE98D",
"J. c #FCEA8F",
"K. c #FAED8E",
"L. c #FBEC8F",
"P. c #FBE792",
"I. c #FEED93",
"U. c #FAEE94",
"Y. c #FBEE96",
"T. c #FCEC94",
"R. c #FCEC95",
"E. c #FCEE98",
"W. c #FDEF98",
"Q. c #FCEF9A",
"!. c #FDEC9C",
"~. c #FFF094",
"^. c #FFF596",
"/. c #FDF09C",
"(. c #FCF19D",
"). c #FDF39C",
"_. c #C6D2BC",
"`. c #FFF4A1",
"'. c #FFF5A2",
"]. c #FDF5A4",
"[. c #FFF8A2",
"{. c #FFF8A4",
"}. c #FFFBA6",
"|. c #FFFBA7",
" X c #FFF4A8",
".X c #FFF8AE",
"XX c #EAE8D4",
"oX c #FBEED3",
"OX c #FBF0D5",
"+X c None",
/* pixels */
"+X+X+X+X+X+X+X+X+X+X+X+X+X+X+X+X+X+X+X+X+X+X+X+X",
"+X+X+X+X+X+X+X+X+X+X+X+X+X+X+X+X+X+X+X+X+X+X+X+X",
"+X+X+X+X+X+X+X+X+X+X+X+X+X+X+X+X+X+X+X+X+X+X+X+X",
"+X+X+X+X+X+X+X+X+X+X+X+X+X+X+X+X+X+X+X+X+X+X+X+X",
"+X+X+X+X+X+X+X+X+X+X+X+X+X+X+X+X+X+X+X+X+X+X+X+X",
"+X+X+X+X+X+X+X+X+X+X+X+X+Xq.n.n.b.x.+X+X+X+X+X+X",
"+X+X+X+X+X+X+X+X+X+X+X+X. c.OXoXXX_.q +X+X+X+X+X",
"+X+X+X+X+XW R c c j y q , , , , * 5 5 * +X+X+X+X",
"+X+X+X[..X X!.U.V.v.s.%.* + O O O O + O +X+X+X+X",
"+X+X+X.X'.!.G.V.d.w.<.9.&.$.W W v x z g f +X+X+X",
"+X+X+X/.'./.G.V.s.w.<.o.| | ` Y Y n i q j * +X+X",
"+X+X+X!.[.U.G.l.s.9.<.<.| ` ! G n b y , , +X+X+X",
"+X+X+X~.[.U.F.l.i.8.>.+.+.` ! G G b r 5 , +X+X+X",
"+X+X+X+X[.U.F.l.i.8.>.+. .` G G n i r 6 * +X+X+X",
"+X+X+X+X/.~.V.s.i.2.>.+.] ` G G n i q q * +X+X+X",
"+X+X+X+X/.~.V.i.i.2.>.| ] ` G Z n i 8 , +X+X+X+X",
"+X+X+X+XG.~.V.k.8.8.+.+. .) G Z n i q , +X+X+X+X",
"+X+X+X+X+X~.G.z.k.k.8.:.+.| } } Y J j - +X+X+X+X",
"+X+X+X+X+X+X+X+X+X+X+X+X+X+X+X+X+X+X+X+X+X+X+X+X",
"+X+X+X+X+X+X+X+X+X+X+X+X+X+X+X+X+X+X+X+X+X+X+X+X",
"+X+X+X+X+X+X+X+X+X+X+X+X+X+X+X+X+X+X+X+X+X+X+X+X",
"+X+X+X+X+X+X+X+X+X+X+X+X+X+X+X+X+X+X+X+X+X+X+X+X",
"+X+X+X+X+X+X+X+X+X+X+X+X+X+X+X+X+X+X+X+X+X+X+X+X",
"+X+X+X+X+X+X+X+X+X+X+X+X+X+X+X+X+X+X+X+X+X+X+X+X"
};
