/* XPM */
const static char *paste[] = {
/* columns rows colors chars-per-pixel */
"24 24 180 2 ",
"   c #40211A",
".  c #46231E",
"X  c #44241C",
"o  c #45241D",
"O  c #44241E",
"+  c #44241F",
"@  c #46241E",
"#  c #4B231B",
"$  c #4E231C",
"%  c #48241D",
"&  c #49241D",
"*  c #4B251E",
"=  c #48261F",
"-  c #4B261E",
";  c #4D251E",
":  c #4F251F",
">  c #4C261F",
",  c #51251C",
"<  c #52251D",
"1  c #52261F",
"2  c #54271E",
"3  c #54261F",
"4  c #56271E",
"5  c #58281E",
"6  c #59281F",
"7  c #442520",
"8  c #442620",
"9  c #462620",
"0  c #4B2820",
"q  c #4A2821",
"w  c #4B2821",
"e  c #4B2921",
"r  c #4B2922",
"t  c #4B2B25",
"y  c #4B2C25",
"u  c #562820",
"i  c #582820",
"p  c #592920",
"a  c #5B2922",
"s  c #5C2A22",
"d  c #5D2C25",
"f  c #563833",
"g  c #583933",
"h  c #5D3A33",
"j  c #593B35",
"k  c #64332F",
"l  c #65332F",
"z  c #6B362F",
"x  c #6C372F",
"c  c #673830",
"v  c #693831",
"b  c #6B3A33",
"n  c #6C3B31",
"m  c #6B3E36",
"M  c #60423C",
"N  c #6E423B",
"B  c #71463F",
"V  c #664740",
"C  c #684740",
"Z  c #6A4841",
"A  c #6B4841",
"S  c #6E4841",
"D  c #6F4D47",
"F  c #714740",
"G  c #704841",
"H  c #714841",
"J  c #724841",
"K  c #754B44",
"L  c #764B45",
"P  c #704C46",
"I  c #734C46",
"U  c #724D46",
"Y  c #754C45",
"T  c #764C45",
"R  c #7F7977",
"E  c gray50",
"W  c #8E4E23",
"Q  c #8A4A26",
"!  c #C16E17",
"~  c #C47117",
"^  c #E57A0E",
"/  c #E67A0E",
"(  c #EA7D0C",
")  c #EA7C0D",
"_  c #EC7E0E",
"`  c #EC7F0E",
"'  c #E06E18",
"]  c #E06F19",
"[  c #E0701B",
"{  c #E1701B",
"}  c #E0701C",
"|  c #E0711C",
" . c #82615F",
".. c #866563",
"X. c #817C7A",
"o. c #ED8E0E",
"O. c #EB8E10",
"+. c #ED8F10",
"@. c #F7A915",
"#. c #F6A916",
"$. c #F9BE1E",
"%. c #B68662",
"&. c #B18464",
"*. c #998884",
"=. c #ABA19F",
"-. c #A9A3A2",
";. c gray67",
":. c #B8B6B6",
">. c #D0B69F",
",. c #D4B79D",
"<. c #C2B9B7",
"1. c #C3B9B7",
"2. c #C4BCB9",
"3. c #C6BCBA",
"4. c #D7C4B8",
"5. c #DAC6B9",
"6. c #DAC7BA",
"7. c #DBC8BB",
"8. c #BDBEC0",
"9. c #C4C6C9",
"0. c #C9C7C8",
"q. c #CCCBCB",
"w. c #CDCECD",
"e. c #D2CDCA",
"r. c #D0CECF",
"t. c #D2D0CF",
"y. c #D7D1CD",
"u. c #D7D5D5",
"i. c #D8D6D5",
"p. c #DBD9D8",
"a. c #DBDADB",
"s. c #DCDAD9",
"d. c #DEDCDB",
"f. c #DBDDDF",
"g. c #DDDDDD",
"h. c #DFDDDC",
"j. c #DEDEDD",
"k. c #DFDFDE",
"l. c #E1DFDE",
"z. c #E2E0DF",
"x. c #DDDFE0",
"c. c #DEE0E1",
"v. c #DEE0E2",
"b. c #E1E1E0",
"n. c #E2E1E0",
"m. c #E3E1E0",
"M. c #E2E1E1",
"N. c #E3E1E1",
"B. c #E2E2E0",
"V. c #E3E2E1",
"C. c #E2E3E2",
"Z. c #E3E3E2",
"A. c #E4E3E2",
"S. c #E5E4E2",
"D. c #E5E4E3",
"F. c #E4E5E4",
"G. c #E5E5E4",
"H. c #E6E5E5",
"J. c #E7E5E5",
"K. c #E6E6E5",
"L. c #E7E7E6",
"P. c #E8E7E7",
"I. c #E8E8E7",
"U. c #E8E9E7",
"Y. c #E9E9E7",
"T. c gray91",
"R. c #E9E8E8",
"E. c #E8E9E8",
"W. c #EAE8E8",
"Q. c #EAE9E8",
"!. c #EBE9E9",
"~. c #EBEBEA",
"^. c #EDEBEB",
"/. c #ECECEB",
"(. c #ECEEED",
"). c #EDEEEE",
"_. c #EDEFEE",
"`. c #EEF0EF",
"'. c #F1F3F1",
"]. c None",
/* pixels */
"].].].].].].].].].].].].].].].].].].].].].].].].",
"].].].].].].].].].].].].].].].].].].].].].].].].",
"].].].].].].].].].].].].].].].].].].].].].].].].",
"].].].].].].].].].].].$.$.].].].].].].].].].].].",
"].].].].].].].].].].@.].].#.].].].].].].].].].].",
"].].].].].].m k W +.o.! ! o.+.W k x ].].].].].].",
"].].].].].c z  .%.^ ^ O.( / ( %...z m ].].].].].",
"].].].].].d m 8.>.} { { { { ' ,.9.B 6 ].].].].].",
"].].].].].6 B 0.e.4.6.6.6.6.6.u.e.J d ].].].].].",
"].].].].].d F t.a.x.x.x.C.x.l.a.u.T 6 ].].].].].",
"].].].].].d F u.a.x.M.C.C.C.M.M.p.T 1 ].].].].].",
"].].].].].1 F p.M.C.C.P.P.P.C.C.l.T 1 ].].].].].",
"].].].].].1 J l.C.L.L.L.P.P.P.P.C.U u ].].].].].",
"].].].].].1 Z l.Q.L.L.I.P.P.P.P.C.U 1 ].].].].].",
"].].].].].; Z z.Q.L.I.I.Q.Q.I.I.C.J 1 ].].].].].",
"].].].].].; Z C.E.Q.I.Q.Q.Q.Q.Q.Q.Z ; ].].].].].",
"].].].].].; M C.E.T.E.R.Q.P.:.;.-.h q ].].].].].",
"].].].].].; B C.E.E.E.I.Q.q.E X.h q q ].].].].].",
"].].].].].8 M C.`._.'.Q.'.e.R f   q q ].].].].].",
"].].].].].q q *.1.1.1.1.3.-.f ; q q q ].].].].].",
"].].].].].].8     q   q q   8 8 8 q ].].].].].].",
"].].].].].].].].].].].].].].].].].].].].].].].].",
"].].].].].].].].].].].].].].].].].].].].].].].].",
"].].].].].].].].].].].].].].].].].].].].].].].]."
};
