/* XPM */
const static char *search_page[] = {
/* columns rows colors chars-per-pixel */
"24 24 172 2 ",
"   c #111E48",
".  c #0F2054",
"X  c #102054",
"o  c #0D2B66",
"O  c #0F2C65",
"+  c #102F6D",
"@  c #063475",
"#  c #0E3B79",
"$  c #0D3C7D",
"%  c #0E3E7E",
"&  c #7B7A79",
"*  c #0B498F",
"=  c #0F4A8E",
"-  c #084890",
";  c #0D4A90",
":  c #274E85",
">  c #0657A7",
",  c #455C87",
"<  c #4780B5",
"1  c #7694B1",
"2  c #888786",
"3  c #898787",
"4  c #8D8C8B",
"5  c #8A8A8C",
"6  c gray56",
"7  c gray57",
"8  c #929090",
"9  c #979695",
"0  c #999897",
"q  c #979898",
"w  c #9D9B9B",
"e  c #9F9D9D",
"r  c #9F9E9D",
"t  c gray62",
"y  c #9F9F9F",
"u  c #A19D9D",
"i  c #A09E9E",
"p  c #8297AD",
"a  c #A4A3A1",
"s  c #A5A3A2",
"d  c #ACAAA8",
"f  c #B6BABC",
"g  c #BDBCBC",
"h  c #BEBDBD",
"j  c #BFBEBE",
"k  c #BFBFBE",
"l  c #C0BFBE",
"z  c #C0BFBF",
"x  c #C0C0BF",
"c  c #88ACC9",
"v  c #AAB8C8",
"b  c #BDBFC5",
"n  c #C1C0C0",
"m  c #C3C2C2",
"M  c #C5C3C1",
"N  c #C4C3C3",
"B  c #C5C3C3",
"V  c #C4C4C3",
"C  c #C5C4C4",
"Z  c #C6C5C5",
"A  c #C6C6C6",
"S  c #C7C6C6",
"D  c #C9C5C1",
"F  c #C8C7C6",
"G  c #C8C7C7",
"H  c #C8C8C7",
"J  c #C9C9C8",
"K  c gray79",
"L  c #CAC9C9",
"P  c #CBC9C9",
"I  c #CBCACA",
"U  c #CBCBCB",
"Y  c #CCCBCB",
"T  c #CDCCCB",
"R  c #CDCCCD",
"E  c #CDCDCD",
"W  c #CECDCD",
"Q  c #CECECE",
"!  c gray81",
"~  c #D0CFCF",
"^  c #D1CFCF",
"/  c #D1D0D0",
"(  c #D3D2D1",
")  c #D3D2D2",
"_  c #D4D2D3",
"`  c #D4D3D3",
"'  c #D5D5D4",
"]  c #D6D5D5",
"[  c #D7D5D5",
"{  c gray84",
"}  c #D7D6D6",
"|  c #D8D6D5",
" . c #DAD7D4",
".. c #DBD7D4",
"X. c #D8D7D7",
"o. c gray85",
"O. c #DBDADA",
"+. c #DDDCDC",
"@. c #DEDDDD",
"#. c #DFDDDD",
"$. c #DFDEDD",
"%. c #DEDDDE",
"&. c #DCDEDF",
"*. c #E0DFDF",
"=. c #E0DFE0",
"-. c #E1E0E0",
";. c #E2E1E1",
":. c #E2E2E1",
">. c #E3E2E2",
",. c gray89",
"<. c #E4E1E1",
"1. c #E5E3E1",
"2. c #E4E4E3",
"3. c #E4E4E4",
"4. c #E5E4E4",
"5. c #E5E5E4",
"6. c gray90",
"7. c #E6E5E5",
"8. c #E6E6E5",
"9. c #E7E6E5",
"0. c #E6E7E5",
"q. c #E7E6E6",
"w. c #E7E7E6",
"e. c #E8E7E6",
"r. c #E9E7E6",
"t. c #E8E7E7",
"y. c #E8E8E7",
"u. c #E9E9E7",
"i. c #EAEAE7",
"p. c gray91",
"a. c #E9E9E8",
"s. c #E9E9E9",
"d. c #EBE9E9",
"f. c #EAEAE9",
"g. c #EBEBE9",
"h. c #EAEBEA",
"j. c #EBEBEA",
"k. c gray92",
"l. c #ECEBEB",
"z. c #EDEBEB",
"x. c #ECECEB",
"c. c #ECECEC",
"v. c #EDECEC",
"b. c #EFEDED",
"n. c #EEEEED",
"m. c #EEEEEE",
"M. c #EFEFEE",
"N. c #EFEFEF",
"B. c #F0EFEF",
"V. c #F0F0EE",
"C. c #F0F0EF",
"Z. c gray94",
"A. c #F1F1F0",
"S. c #F1F1F1",
"D. c #F2F1F1",
"F. c #F1F2F1",
"G. c gray95",
"H. c #F3F2F2",
"J. c #F3F3F2",
"K. c #F3F3F3",
"L. c #F4F3F2",
"P. c #F4F4F3",
"I. c gray96",
"U. c #F6F6F5",
"Y. c #F6F6F6",
"T. c #F7F7F6",
"R. c gray97",
"E. c #F8F8F8",
"W. c #F9F9F9",
"Q. c gray98",
"!. c #FBFBFB",
"~. c None",
/* pixels */
"~.~.~.~.~.~.~.~.~.~.~.~.~.~.~.~.~.~.~.~.~.~.~.~.",
"~.~.~.~.~.~.~.~.~.~.~.~.~.~.~.~.~.~.~.~.~.~.~.~.",
"~.~.~.~.~.C.j.j.j.j.j.j.j.~.~.~.~.~.~.~.~.~.~.~.",
"~.~.~.~.j.Z.C.Z.C.C.B.C.C.s 3 ~.~.~.~.~.~.~.~.~.",
"~.~.~.~.j.Z.Z.Z.Z.Z.Y.Z.i.0 2 6 ~.~.~.~.~.~.~.~.",
"~.~.~.~.j.j.q.t.t.e.e.j.j.u & 3 8 ~.~.~.~.~.~.~.",
"~.~.~.~.j.j.Z.Z.Y.Z.Z.Z.j._ 0 8 r d ~.~.~.~.~.~.",
"~.~.~.~.j.j.j.q.e.j.t.e.t.j.e.q.q.q.~.~.~.~.~.~.",
"~.~.~.~.j.n.F.n.D.Z.Z.Z.Z.Z.Z.Z.F.j.~.~.~.~.~.~.",
"~.~.~.~.j.u.u.u.e.X.R B R R q.j.j.u.~.~.~.~.~.~.",
"~.~.~.~.j.n.n.F._ B B R R B B p.F.u.~.~.~.~.~.~.",
"~.~.~.~.u.u.u._ B ~ D.Q.U.*.B B q.i.~.~.~.~.~.~.",
"~.~.~.~.q.p.j.H H Z.Q.Q.U.Q.o.B O.i.~.~.~.~.~.~.",
"~.~.~.~.*.q.*.h _ E.Z.Z.Z.E.q.h _ q.~.~.~.~.~.~.",
"~.~.~.~.*.u.u.h R U.F.n.n.U.*.h X.q.~.~.~.~.~.~.",
"~.~.~.~.O.*.q.H h q.Q.U.E.U.R f c &.~.~.~.~.~.~.",
"~.~.~.~._ q.j.O.h B O.j.q.R x 1 > < ~.~.~.~.~.~.",
"~.~.~.~._ _ O.q.o.B h h h x p = = = = ~.~.~.~.~.",
"~.~.~.~.H _ q.q.q.O.R B B X.v : @ % % % ~.~.~.~.",
"~.~.~.~.B R H R R _ _ _ _ _ X.b , O O + ~.~.~.~.",
"~.~.~.~.~.q r y r y u r r u r s 3   . X ~.~.~.~.",
"~.~.~.~.~.~.~.~.~.~.~.~.~.~.~.~.~.~.~.~.~.~.~.~.",
"~.~.~.~.~.~.~.~.~.~.~.~.~.~.~.~.~.~.~.~.~.~.~.~.",
"~.~.~.~.~.~.~.~.~.~.~.~.~.~.~.~.~.~.~.~.~.~.~.~."
};
