/* XPM */
static char *shield_ok[] = {
/* columns rows colors chars-per-pixel */
"24 24 73 1 ",
"  c #27AE60",
". c #2DAF64",
"X c #36B06A",
"o c #36B06B",
"O c #36B36B",
"+ c #32B86B",
"@ c #43B273",
"# c #4DB37A",
"$ c #4FB47B",
"% c #4FBB7E",
"& c #54B47F",
"* c #2ECB70",
"= c #2FCA71",
"- c #2ECB71",
"; c #2ECC71",
": c #34C371",
"> c #33C973",
", c #39C976",
"< c #3AC977",
"1 c #3EC979",
"2 c #53BD80",
"3 c #55BE82",
"4 c #7CBA9B",
"5 c #78C99C",
"6 c #6AD196",
"7 c #76DAA2",
"8 c #95A4A6",
"9 c #95A5A6",
"0 c #95A6A6",
"q c #9AA9AA",
"w c #9CAAAC",
"e c #99BEAE",
"r c #9FBFB2",
"t c #A0BFB3",
"y c #A9B8B8",
"u c #ABB8B9",
"i c #ADBBBB",
"p c #B0BBBD",
"a c #8DDEB1",
"s c #9DD6B7",
"d c #9BDBB8",
"f c #ADC1BC",
"g c #BBC3C5",
"h c #BDC3C7",
"j c #B9C4C5",
"k c #BBC4C6",
"l c #BFC5C9",
"z c #BFC7C9",
"x c #A7DEC0",
"c c #A7DEC1",
"v c #B4DDC8",
"b c #BEE0CF",
"n c #C1C7CB",
"m c #C1C9CB",
"M c #C0CACB",
"N c #C3C9CD",
"B c #C3CACD",
"V c #C6D0D0",
"C c #CFD7D8",
"Z c #D2DBDB",
"A c #D4DBDC",
"S c #D7DDDE",
"D c #D7DEDF",
"F c #C4E6D5",
"G c #DFECE7",
"H c #E3E8E9",
"J c #E0ECE8",
"K c #E2EDEA",
"L c #E3EDEA",
"P c #E6EEED",
"I c #E8ECED",
"U c #ECF0F1",
"Y c None",
/* pixels */
"YYYYYYYYYYYYYYYYYYYYYYYY",
"YYYYYYYYYYYYYYYYYYYYYYYY",
"YYYhhhhhhhhhUUUUUUUUUYYY",
"YYYhhhhhhhhhUUUUUUUUUYYY",
"YYYhh       ;;;;;;;UUYYY",
"YYYhh       ;;;;;;;UUYYY",
"YYYhh       ;;;;;;;UUYYY",
"YYYhh       ;;;;;;;UUYYY",
"YYYhh       ;;;aa;;UUYYY",
"YYYhh       ;;aUU7;UUYYY",
"YYYhh    O  ;aUUb:;UUYYY",
"YYYhh   5J% aUUbO;;UUYYY",
"YYYnhO OJUJsUUb+;;;UJYYY",
"YYYBh&  3JUUUbO;;;1USYYY",
"YYYBh4   3JUb+;;;;6UBYYY",
"YYYizh@   2v+;;;>>IJiYYY",
"YYYYhhf     ;;;;;dUhYYYY",
"YYYYYBheO   ;;;>cUSYYYYY",
"YYYYYwBhf#  ;;<FUCwYYYYY",
"YYYYYY9zhhe#<dUUB8YYYYYY",
"YYYYYYYYpBhhUUSiYYYYYYYY",
"YYYYYYYYY9pBSy9YYYYYYYYY",
"YYYYYYYYYYY99YYYYYYYYYYY",
"YYYYYYYYYYYYYYYYYYYYYYYY"
};
