/* XPM */
static char *shield[] = {
/* columns rows colors chars-per-pixel */
"24 24 59 1 ",
"  c #2980B9",
". c #3184BB",
"X c #3B8ABE",
"o c #3C8BBE",
"O c #7F8C8C",
"+ c #3498DB",
"@ c #4A92C1",
"# c #5497C2",
"$ c #5799C3",
"% c #5C9BC3",
"& c #7CA7C0",
"* c #808B8D",
"= c #808D8D",
"- c #838F91",
"; c #849091",
": c #8F9A9A",
"> c #8F9A9C",
", c #909A9C",
"< c #919C9C",
"1 c #919D9F",
"2 c #929D9F",
"3 c #97A4A5",
"4 c #95A5A6",
"5 c #94A5A7",
"6 c #99A3A5",
"7 c #97A6A8",
"8 c #99A6A8",
"9 c #9DA7A9",
"0 c #92A8AF",
"q c #98A8A9",
"w c #9BA9AA",
"e c #9BA9AB",
"r c #9CA8A9",
"t c #9CAAAB",
"y c #8DAAB6",
"u c #8BAAB8",
"i c #A2ACAD",
"p c #A8B0B3",
"a c #ABB3B6",
"s c #ACB4B7",
"d c #AEB5B9",
"f c #AEB6B9",
"g c #B6BDC1",
"h c #BAC0C4",
"j c #BDC3C7",
"k c #BEC4C8",
"l c #C2C8CC",
"z c #C6CCCF",
"x c #C8CED1",
"c c #D1D6D9",
"v c #DEE2E4",
"b c #DFE4E6",
"n c #E0E5E6",
"m c #E3E8E9",
"M c #E7EBED",
"N c #E7ECED",
"B c #EAEEEF",
"V c #ECF0F1",
"C c None",
/* pixels */
"CCCCCCCCCCCCCCCCCCCCCCCC",
"CCCCCCCCCCCCCCCCCCCCCCCC",
"CCC444444444jjjjjjjjjCCC",
"CCC444444444jjjjjjjjjCCC",
"CCC44jjjjjjj+++++++jjCCC",
"CCC44jjjjjjj+++++++jjCCC",
"CCC44jjjjjjj+++++++jjCCC",
"CCC44jjjjjjj+++++++jjCCC",
"CCC44jjjjjjj+++++++jjCCC",
"CCC44jjjjjjj+++++++jjCCC",
"CCC44jjjjjjj+++++++jjCCC",
"CCC44jjjjjjj+++++++jjCCC",
"CCCq4X      VVVVVVNjgCCC",
"CCCq4%      VVVVVVnlsCCC",
"CCCq4&      VVVVVVcjiCCC",
"CCC274@     VVVVNnlg2CCC",
"CCCC66y.    VVVVNxj6CCCC",
"CCCCCq7yX   VVVNxjsCCCCC",
"CCCCC;q7y#  VVnljs=CCCCC",
"CCCCCC=q77y#nxjj6=CCCCCC",
"CCCCCCCC2q67jjs2CCCCCCCC",
"CCCCCCCCC=2qs2=CCCCCCCCC",
"CCCCCCCCCCC==CCCCCCCCCCC",
"CCCCCCCCCCCCCCCCCCCCCCCC"
};
