/* XPM */
static const char *shop[] = {
/* columns rows colors chars-per-pixel */
"24 24 35 1 ",
"  c #C0392B",
". c #C33E2A",
"X c #DC701D",
"o c #C54328",
"O c #E74C3C",
"+ c #E96C3F",
"@ c #C44E40",
"# c #C76556",
"$ c #E96E4E",
"% c #EA7F4B",
"& c #F39C12",
"* c #F1C40F",
"= c #EA8C61",
"- c #DBAD63",
"; c #EBA676",
": c #EBA878",
"> c #2980B9",
", c #7F8C8D",
"< c #3498DB",
"1 c #95A5A6",
"2 c #95A5A7",
"3 c #BEA1A0",
"4 c #EBBF9A",
"5 c #C3BFB5",
"6 c #C6C0BB",
"7 c #C0C1BE",
"8 c #ECCFA3",
"9 c #ECDEBC",
"0 c #BDC3C7",
"q c #BEC4C8",
"w c #C2C5C6",
"e c #ECD7C3",
"r c #ECF0F0",
"t c #ECF0F1",
"y c None",
/* pixels */
"yyyyyyyyyyyyyyyyyyyyyyyy",
"yyyy00000000000000qqyyyy",
"yyq00000000000000003qqyy",
"y,,,,,,,,,,,,,,,,,,1,,,y",
"yy  #003 @00  w0#  700yy",
"yOOO4tt+O%ttOO8t4OO=ttty",
"yOO+tt4OO:ttOO;tt+OO9tty",
"OOO4tt+OOettOO$tt4OO=ttt",
"   000   000   000   000",
"   707o  707o  707  o700",
"y X-5-XoX-6-XoX-5-XoX-qy",
"yy&&000000000&000000&&yy",
"yy&&0>>>0>>>0&0>>>>q&&yy",
"yy**t<<<t<<<r*r<<<<t**yy",
"yy**t<<<t<<<t*r<<<<t**yy",
"yy**ttttttttt*r<<<<t**yy",
"yy**t<<<t<<<t*tttttt**yy",
"yy**t<<<t<<<t*t<<<<t**yy",
"yy**t>>>t>>>t*t>>>>t**yy",
"yy**ttttttttt*t>>>>t**yy",
"y1************t>>>>t**1y",
"111111111111111111111111",
",,,,,,1,,,,,,,,,,,,,,,,,",
"yyyyyyyyyyyyyyyyyyyyyyyy"
};
