/* XPM */
static char *sign_up[] = {
/* columns rows colors chars-per-pixel */
"24 24 50 1 ",
"  c #2980B9",
". c #2981B9",
"X c #2A80B9",
"o c #2B85BE",
"O c #2C85C0",
"+ c #2C86C1",
"@ c #2C87C3",
"# c #2E8BC8",
"$ c #2E8BC9",
"% c #2E8CCA",
"& c #2F8CCA",
"* c #2F8ECC",
"= c #348DC8",
"- c #308FCE",
"; c #3191D1",
": c #3191D2",
"> c #3192D2",
", c #3193D4",
"< c #3293D4",
"1 c #3194D5",
"2 c #3294D5",
"3 c #3395D8",
"4 c #3396D8",
"5 c #3497DA",
"6 c #3497DB",
"7 c #3597DB",
"8 c #3498DB",
"9 c #3598DB",
"0 c #3699DB",
"q c #3498DC",
"w c #3D9CDC",
"e c #4B96C7",
"r c #47A1DD",
"t c #5EA4D2",
"y c #57A9DF",
"u c #72ABCF",
"i c #6BB2E2",
"p c #83BEE4",
"a c #A3C6DC",
"s c #9DCAE8",
"d c #BCD4E3",
"f c #B5D5EA",
"g c #CCDEE8",
"h c #C9DFEC",
"j c #D8E6EE",
"k c #E3ECEF",
"l c #E4ECEF",
"z c #EAEFF1",
"x c #ECF0F1",
"c c None",
/* pixels */
"cccccccccccccccccccccccc",
"cccccccccccccccccccccccc",
"cccccccccc88885ccccccccc",
"ccccccc5888888885ccccccc",
"cccccc888888888888cccccc",
"ccccc88888888888888ccccc",
"cccc5888888pp8888888cccc",
"ccc5888888izzi8888888ccc",
"ccc888008ylxxly888888ccc",
"cc<88880rjxxxxjr80888<cc",
"cc<88880hzaxxaxh00888<cc",
"cc<8880fxh=xx=hxf88885cc",
"cc5888sxle5xx0elzs588<cc",
"cc<888tdu<8xx0<udt588<cc",
"cc-588<+-88xx85-#<888#cc",
"cc#88888888xx85588888#cc",
"ccc<8888888xx8888888<ccc",
"ccc+5888888xx8888885+ccc",
"cccc#888885zx558888#cccc",
"ccccc#58555oo55585#ccccc",
"cccccco<88858585<occcccc",
"ccccccco+#<55<#+occccccc",
"cccccccccc o  occccccccc",
"cccccccccccccccccccccccc"
};
