/* XPM */
static char *sign_error[] = {
/* columns rows colors chars-per-pixel */
"24 24 37 1 ",
"  c #BF3A2C",
". c #C1382B",
"X c #C0392B",
"o c #C63C2E",
"O c #C93C2E",
"+ c #CC3F30",
"@ c #CA4B3E",
"# c #D14133",
"$ c #D24133",
"% c #D34233",
"& c #D44334",
"* c #D74435",
"= c #DB4637",
"- c #DC4738",
"; c #DF4738",
": c #DF4839",
"> c #E04938",
", c #E34A3A",
"< c #E34B3A",
"1 c #E44A3B",
"2 c #E64B3B",
"3 c #E64B3C",
"4 c #E74C3C",
"5 c #E74D3C",
"6 c #CF4E40",
"7 c #D05245",
"8 c #E5584A",
"9 c #E75A4B",
"0 c #E85E50",
"q c #DEB7B3",
"w c #E9BCB8",
"e c #EABDB8",
"r c #E4D0CE",
"t c #E5D0CF",
"y c #EBD3D1",
"u c #ECF0F1",
"i c None",
/* pixels */
"iiiiiiiiiiiiiiiiiiiiiiii",
"iiiiiiiiiiiiiiiiiiiiiiii",
"iiiiiiiiii55555iiiiiiiii",
"iiiiiii3555555555iiiiiii",
"iiiiii555353553553iiiiii",
"iiiii25535355553555iiiii",
"iiii2555535353355552iiii",
"iii25550e935359w05552iii",
"iii5552wuy9339yuw3535iii",
"ii,5522-yuy99yut65355,ii",
"ii,,5552@tuyyut@,3555,ii",
"ii,555353@tuut@,53553,ii",
"ii22535358tuut83555522ii",
"ii-235358yuttuy855552-ii",
"ii*25358yut@@tuy02222*ii",
"ii*2555wut@,,@tuw2222*ii",
"iii-5557q6,222@w@555,iii",
"iii+2522+222,83+,555Oiii",
"iiii+82555223353335+iiii",
"iiiii+255552333553+iiiii",
"iiiiiiO2225222222Oiiiiii",
"iiiiiii.O*-22=*#.iiiiiii",
"iiiiiiiiiiXX  Xiiiiiiiii",
"iiiiiiiiiiiiiiiiiiiiiiii"
};
