/* XPM */
static char *sign_sync[] = {
/* columns rows colors chars-per-pixel */
"24 24 92 1 ",
"  c #2980B9",
". c #2A80B9",
"X c #2982BC",
"o c #2A83BD",
"O c #2A84BE",
"+ c #2B84BF",
"@ c #3387BE",
"# c #2E86C0",
"$ c #2C86C2",
"% c #2C87C2",
"& c #2C87C3",
"* c #2D87C4",
"= c #2D89C5",
"- c #2D8BC8",
"; c #2E8BC8",
": c #2E8BC9",
"> c #2E8CC9",
", c #2E8CCA",
"< c #2F8CCA",
"1 c #2E8DCB",
"2 c #2F8FCD",
"3 c #2F8FCF",
"4 c #3C8EC6",
"5 c #308ECD",
"6 c #308FCE",
"7 c #3191D1",
"8 c #3392D0",
"9 c #3192D2",
"0 c #3193D3",
"q c #3193D4",
"w c #3294D5",
"e c #3295D6",
"r c #3396D6",
"t c #3396D8",
"y c #3396D9",
"u c #3397D9",
"i c #3397DA",
"p c #3497DB",
"a c #3498DA",
"s c #3498DB",
"d c #3598DB",
"f c #3699DB",
"g c #3498DC",
"h c #379ADC",
"j c #3D9CDC",
"k c #418DC0",
"l c #4592C3",
"z c #4693C5",
"x c #4A92C3",
"c c #499ACF",
"v c #439FDD",
"b c #4BA3DD",
"n c #4EA5DE",
"m c #53A6DF",
"M c #73AACE",
"N c #73AACF",
"B c #76ACCF",
"V c #70ADD3",
"C c #75B8E3",
"Z c #7CBBE3",
"A c #79B9E4",
"S c #7AB9E4",
"D c #86B6D4",
"F c #8AB8D5",
"G c #8DB9D6",
"H c #A7C8DD",
"J c #B0CEDF",
"K c #8BC2E5",
"L c #8FC2E4",
"P c #90C4E6",
"I c #92C5E6",
"U c #ABD1E9",
"Y c #B9D3E3",
"T c #BAD4E3",
"R c #B3D5EA",
"E c #B8D6E8",
"W c #B9D8EB",
"Q c #BDD9EB",
"! c #BCD9EC",
"~ c #C4D9E6",
"^ c #C7DEEC",
"/ c #D5E3EB",
"( c #D6E6EE",
") c #D6E6EF",
"_ c #DBE6EC",
"` c #DCE6EC",
"' c #DCE7EE",
"] c #DCE8EF",
"[ c #E0EAEE",
"{ c #E6ECEF",
"} c #ECF0F1",
"| c None",
/* pixels */
"||||||||||||||||||||||||",
"||||||||||||||||||||||||",
"||||||||||ssssu|||||||||",
"|||||||ssssssssss|||||||",
"||||||ssssssssssss||||||",
"|||||ssssssssssssss|||||",
"||||ussshS!])USshusu||||",
"|||usssv^}}}}}}RhIssu|||",
"|||sssh!}/GzkB`{]}sss|||",
"||rsssC}{z:rr5l{}}ssur||",
"||russE}DrusssP{}}ssuu||",
"||usss&.5ssssu5...ssgu||",
"||uusssssssssssshhuuuu||",
"||rsss}}}PsssssL{!huur||",
"||5uss}}]cssssn{{Vuuu7||",
"||:uss}`}]SnmI/}Trsuu:||",
"|||rssG@J{}{}}}^4uuur|||",
"|||.ss:u$VJ/[TB*uuuu$|||",
"||||:ssss3:. $7uuud5||||",
"|||||:usssuuuuuudu5|||||",
"||||||$rsssuuussr.||||||",
"||||||| &:rrur:$.|||||||",
"||||||||||..  .|||||||||",
"||||||||||||||||||||||||"
};
