/* XPM */
static char *sign_ban[] = {
/* columns rows colors chars-per-pixel */
"24 24 48 1 ",
"  c #BF3A2C",
". c #C1382B",
"X c #C0392B",
"o c #C1392B",
"O c #C03A2B",
"+ c #C2392C",
"@ c #C33A2C",
"# c #C43B2D",
"$ c #C63B2F",
"% c #C63C2E",
"& c #C93C2E",
"* c #C93D2F",
"= c #CC3F30",
"- c #CD3F31",
"; c #D14133",
": c #D24133",
"> c #D24232",
", c #D34233",
"< c #D44334",
"1 c #D54334",
"2 c #D64335",
"3 c #D64434",
"4 c #D74435",
"5 c #DB4637",
"6 c #DC4737",
"7 c #DC4738",
"8 c #DE4738",
"9 c #DF4738",
"0 c #DD4838",
"q c #DF4839",
"w c #E04838",
"e c #E04938",
"r c #E24A3A",
"t c #E34A3A",
"y c #E34B3A",
"u c #E44A3B",
"i c #E44B3B",
"p c #E54B3B",
"a c #E64B3A",
"s c #E64B3B",
"d c #E64C3B",
"f c #E54B3C",
"g c #E64B3C",
"h c #E64C3C",
"j c #E74C3C",
"k c #E74D3C",
"l c #E74C3D",
"z c None",
/* pixels */
"zzzzzzzzzzzzzzzzzzzzzzzz",
"zzzzzzzzzzzzzzzzzzzzzzzz",
"zzzzzzzzzllllllzzzzzzzzz",
"zzzzzzzllllllllllzzzzzzz",
"zzzzzsalsssslassllzzzzzz",
"zzzzlslls3;##>3slllzzzzz",
"zzzzllll3 zzzz #0slszzzz",
"zzzsllllsszzzzzz#0lsszzz",
"zzzsss6ssslzzzzzz$ssszzz",
"zzsss3#6ksllzzzzzz3ssszz",
"zzsss;z#0ssklzzzzz3ls0zz",
"zzssszzz#0ssllzzzzzlsszz",
"zzsslzzzz#6slllzzzzlsszz",
"zz0slzzzzz#6llllzzzss7zz",
"zz4sl0zzzzz#6allszsss3zz",
"zz3lsszzzzzz#6llsssss3zz",
"zzz0llszzzzzz#6sllss0zzz",
"zzz=slllzzzzzz#6llss*zzz",
"zzzz3sllllzzzzsslla3zzzz",
"zzzzz3slllssslllla>zzzzz",
"zzzzzz#ssslssslss#zzzzzz",
"zzzzzzz *35ss53= zzzzzzz",
"zzzzzzzzzz #   zzzzzzzzz",
"zzzzzzzzzzzzzzzzzzzzzzzz"
};
