/* XPM */
static const char *social_twitter[] = {
/* columns rows colors chars-per-pixel */
"24 24 78 1 ",
"  c #1499CA",
". c #149ACA",
"X c #1E9FCF",
"o c #15A0D2",
"O c #16A1D4",
"+ c #19A1D3",
"@ c #1AA5D7",
"# c #17A5D8",
"$ c #17A6D9",
"% c #18A7DB",
"& c #18A8DC",
"* c #18AADF",
"= c #18ABDF",
"- c #1FAADC",
"; c #29A8D6",
": c #20AADC",
"> c #19ACE1",
", c #19ADE2",
"< c #19B0E5",
"1 c #1AB0E6",
"2 c #1AB1E7",
"3 c #19B2E8",
"4 c #1AB2E8",
"5 c #1EB3E8",
"6 c #28B2E3",
"7 c #2CB2E2",
"8 c #22B4E8",
"9 c #2DB8E9",
"0 c #2FB8E9",
"q c #32B9E9",
"w c #34BAE9",
"e c #36BAE9",
"r c #48B3DA",
"t c #57B4D6",
"y c #53B7DA",
"u c #65BDDC",
"i c #6ABCDA",
"p c #4CBAE2",
"a c #47BEE8",
"s c #73C3DF",
"d c #7EC4DD",
"f c #50C2EA",
"g c #57C4EB",
"h c #74C6E3",
"j c #75C6E3",
"k c #77CDEC",
"l c #85C7DF",
"z c #86C7DF",
"x c #81CBE6",
"c c #90CBE0",
"v c #83D1EC",
"b c #93D6ED",
"n c #96D6ED",
"m c #A2D2E4",
"M c #A4D3E4",
"N c #A5D3E4",
"B c #AAD6E6",
"V c #ACD6E6",
"C c #ADD7E6",
"Z c #A0D8EB",
"A c #A5D9EB",
"S c #A4DBEE",
"D c #AEDDED",
"F c #BBDEEA",
"G c #B8E1EF",
"H c #BBE1EF",
"J c #C3E1EB",
"K c #C4E4EF",
"L c #CDE6EF",
"P c #D7E7ED",
"I c #DCEAEE",
"U c #CBE6F0",
"Y c #E1ECEF",
"T c #E5EDF0",
"R c #E4EDF1",
"E c #E8EEF0",
"W c #ECF0F1",
"Q c None",
/* pixels */
"QQQQQQQQQQQQQQQQQQQQQQQQ",
"QQQQQQQQQQQQQQQQQQQQQQQQ",
"QQQ333333333333382333QQQ",
"QQ13333283333338333333QQ",
"QQ33333822333833333333QQ",
"QQ33383338333333338333QQ",
"QQ33333333332233333333QQ",
"QQ3333q333333qvUSege33QQ",
"QQ3332Dn82333LWWWWAa33QQ",
"QQ3232JWGe33gEWWWWK733QQ",
"QQ8233iWEWLnSWWWWWu332QQ",
"QQ3333xYEWWWEWWWWEp338QQ",
"QQ3338jWWWWWWWWWWW7333QQ",
"QQ3333:xEWWWWWWWWC>883QQ",
"QQ38333jREWWWWWWWr3333QQ",
"QQ33333:VEWWWWWWc>3333QQ",
"QQ833333;NWWWWEV-,3333QQ",
"QQ3338kHYWWWWPi-113333QQ",
"QQ3322-yxNmdtX#3333333QQ",
"QQ33322>#OO-->33333338QQ",
"QQ>333333333333333333>QQ",
"QQ+>3333338338333333>XQQ",
"QQQ                 OQQQ",
"QQQQQQQQQQQQQQQQQQQQQQQQ"
};
