/* XPM */
static const char *social_google_plus[] = {
/* columns rows colors chars-per-pixel */
"24 24 92 1 ",
"  c #C0392B",
". c #C43B2D",
"X c #C73C2E",
"o c #C93F31",
"O c #CB3E30",
"+ c #CC3F30",
"@ c #CF4031",
"# c #CF4032",
"$ c #CE493B",
"% c #CA4B3E",
"& c #D04132",
"* c #D24233",
"= c #D54334",
"- c #DB4637",
"; c #D64A3C",
": c #D24D3F",
"> c #DE4838",
", c #DF4838",
"< c #DD4A3C",
"1 c #E04839",
"2 c #E04939",
"3 c #E54B3A",
"4 c #E44B3B",
"5 c #E54B3B",
"6 c #E44B3C",
"7 c #E64B3C",
"8 c #E64C3C",
"9 c #E74C3C",
"0 c #E74D3D",
"q c #E74E3E",
"w c #D65F53",
"e c #DD5D51",
"r c #E74F40",
"t c #E75141",
"y c #E75243",
"u c #E75445",
"i c #E7594A",
"p c #D26155",
"a c #D1675C",
"s c #D9665B",
"d c #E86A5D",
"f c #D4746A",
"g c #DA7B71",
"h c #E86F63",
"j c #E17368",
"k c #E77469",
"l c #E87A6E",
"z c #E47B71",
"x c #E57D73",
"c c #D78F88",
"v c #D6938C",
"b c #D79B95",
"n c #DA9E98",
"m c #DE9E98",
"M c #E9958C",
"N c #E9978F",
"B c #E39B93",
"V c #EAA49D",
"C c #DBA7A2",
"Z c #DFBAB6",
"A c #E5A7A1",
"S c #E6A9A3",
"D c #E9A9A3",
"F c #EAABA4",
"G c #EAABA5",
"H c #EAB1AB",
"J c #EAB2AD",
"K c #EAB3AE",
"L c #E3B6B2",
"P c #EAB5B0",
"I c #E0B9B5",
"U c #EABAB5",
"Y c #EABEBA",
"T c #E1C3C0",
"R c #E3C3C0",
"E c #E2C5C2",
"W c #EBC9C6",
"Q c #E4CFCD",
"! c #E9D3D1",
"~ c #EBD3D1",
"^ c #E8D9D7",
"/ c #E8DAD9",
"( c #E9DAD9",
") c #E9DCDB",
"_ c #EBDDDC",
"` c #EAE0E0",
"' c #EAE2E1",
"] c #EAE5E5",
"[ c #EBEAEA",
"{ c #ECEFF0",
"} c #ECF0F1",
"| c None",
/* pixels */
"||||||||||||||||||||||||",
"||||||||||||||||||||||||",
"|||999999999999999999|||",
"||99999999999999999990||",
"||99999999999999999999||",
"||99999999999999999999||",
"||999999zVW}WMt9999999||",
"||99999MA&#T/;99999999||",
"||3000r!g99f}j00000039||",
"||0300t[B99e}j00{00399||",
"||30003C`i9xQ900{03099||",
"||00000;cYK!%0}[{{{399||",
"||000003&o(T99  {  000||",
"||000030rdU{Ur99{30000||",
"||0000tFKxpb}S99 00300||",
"||0000KLo-<&v/99303000||",
"||0003'B0000sT99999999||",
"||0030I`h000Ds99999999||",
"||0099;n(~HFw-99999999||",
"||00999& O++3999999999||",
"||10999900000000000091||",
"||O<9999000000000000<O||",
"|||                  |||",
"||||||||||||||||||||||||"
};
