/* XPM */
static char *stamp[] = {
/* columns rows colors chars-per-pixel */
"24 24 47 1 ",
"  c #2980B9",
". c #2980BA",
"X c #2981BA",
"o c #2A81BB",
"O c #2A82BB",
"+ c #2A82BC",
"@ c #2A83BD",
"# c #2B83BE",
"$ c #2B84BE",
"% c #2B84BF",
"& c #2B85C0",
"* c #2C86C1",
"= c #2C86C2",
"- c #2C87C3",
"; c #2C88C4",
": c #2D88C4",
"> c #2D88C5",
", c #2D89C6",
"< c #2E8AC8",
"1 c #2E8CC9",
"2 c #2F8CCA",
"3 c #2F8DCB",
"4 c #2F8DCC",
"5 c #2F8ECD",
"6 c #308ECD",
"7 c #308FCE",
"8 c #3090D0",
"9 c #3190D0",
"0 c #3191D0",
"q c #3191D1",
"w c #3191D2",
"e c #3192D2",
"r c #3192D3",
"t c #3294D5",
"y c #3294D6",
"u c #3295D6",
"i c #3395D7",
"p c #3396D8",
"a c #3396D9",
"s c #3397D9",
"d c #3497DA",
"f c #3498DA",
"g c #3498DB",
"h c #95A5A6",
"j c #A0ADAF",
"k c #BDC3C7",
"l c None",
/* pixels */
"llllllllllllllllllllllll",
"lkkllkkllkkllkkllkkllkkl",
"lkkkkkkkkkkkkkkkkkkkkkkl",
"ljkkkkkkkkkkkkkkkkkkkkjl",
"llkkggggggggggggggggkkll",
"lkkkgggggggdggggggggkkkl",
"lkkkggggg8;@@;6gggggkkkl",
"ljkkgggd;@4ww4@;ggggkkjl",
"llkkggd<@wgdgdw;=gggkkll",
"lkkkgdw dg;@@@6w@fggkkkl",
"lkkkgg6@gw@w8 ;g@wggkkkl",
"ljkkgg6,g;@gd@6g@wggkkjl",
"llkkff6=f8@fw@,6@wggkkll",
"lkkkffw@fw@@@@@@wgggkkkl",
"lkkkffd,,ffwww8wggggkkkl",
"ljkkfffd@@8fgw@wggggkkjl",
"llkkggggd6@@@@6wggggkkll",
"lkkkggggggdwwdggggggkkkl",
"lkkkddggdgddgdddgddgkkkl",
"ljkk   @   @@@  @@  kkjl",
"llkkkkkkkkkkkkkkkkkkkkll",
"lkkkkkkkkkkkkkkkkkkkkkkl",
"lkkjjkkjjkkjjkkjjkkjjkkl",
"lhhllhhllhhllhhllhhllhhl"
};
