/* XPM */
static char *star_alt[] = {
/* columns rows colors chars-per-pixel */
"24 24 46 1 ",
"  c #F39B12",
". c #F39C11",
"X c #F29C12",
"o c #F39C12",
"O c #F39D12",
"+ c #F39C13",
"@ c #F39E12",
"# c #F49C12",
"$ c #F3B00F",
"% c #F1BB0F",
"& c #F1BC0F",
"* c #F1BD0F",
"= c #F1BE0F",
"- c #F1BF0F",
"; c #F3A012",
": c #F3A112",
"> c #F3A212",
", c #F3A312",
"< c #F3A411",
"1 c #F2A711",
"2 c #F2AB10",
"3 c #F2AB11",
"4 c #F1AE11",
"5 c #F2AE11",
"6 c #F2AF11",
"7 c #F2B010",
"8 c #F2B011",
"9 c #F2B210",
"0 c #F2B310",
"q c #F2B311",
"w c #F1B410",
"e c #F2B510",
"r c #F1B710",
"t c #F2B610",
"y c #F1B810",
"u c #F2B810",
"i c #F2B910",
"p c #F1BC10",
"a c #F1BD10",
"s c #F2BE10",
"d c #F1C00F",
"f c #F2C00F",
"g c #F1C20F",
"h c #F1C30F",
"j c #F1C40F",
"k c None",
/* pixels */
"kkkkkkkkkkkkkkkkkkkkkkkk",
"kkkkkkkkkkkXikkkkkkkkkkk",
"kkkkkkkkkkkXjkkkkkkkkkkk",
"kkkkkkkkkkXXjikkkkkkkkkk",
"kkkkkkkkkkXXjjkkkkkkkkkk",
"kkkkkkkkkk#Xjjekkkkkkkkk",
"kkkkkkkkk#XXjjjkkkkkkkkk",
"kkkkkkkkkXXXjjjekkkkkkkk",
"kkkkkkkk#XX#jjjikkkkkkkk",
"kkeeiiihe##XjjjeX##Xkkkk",
"k5ejjjhhj5X#jj5X#X#X:5e$",
"kkXX>5iijj$Xj$#XX5e*jjkk",
"kkkXX#X#X5$5e5e*jjjjjkkk",
"kkkk#X#X#>e555*jjjj*kkkk",
"kkkkkX>eijjXj>X>eiikkkkk",
"kkkkkkhjjj>Xji#XXXkkkkkk",
"kkkkkehhj5X#jj$XXXkkkkkk",
"kkkkkihhi##Xjjj>#XXkkkkk",
"kkkkkihh>XXXjjjj>#Xkkkkk",
"kkkkkjj>#X#keijjiX#kkkkk",
"kkkkkjeXXXkkkkijj5Xkkkkk",
"kkkkiiXXkkkkkkkkij>kkkkk",
"kkkki>kkkkkkkkkkkii>kkkk",
"kkkk5kkkkkkkkkkkkkkekkkk"
};
