/* XPM */
static const char *sun[] = {
/* columns rows colors chars-per-pixel */
"24 24 11 1 ",
"  c #F39B12",
". c #F39C12",
"X c #F39E12",
"o c #F3A511",
"O c #F4AA10",
"+ c #F2AF11",
"@ c #F2B510",
"# c #F2B810",
"$ c #F1C00F",
"% c #F1C40F",
"& c None",
/* pixels */
"&&&&&&&&&&&..&&&&&&&&&&&",
"&&&&&&&&&&....&&&&&&&&&&",
"&&&&&&&&&......&&&&&&&&&",
"&&&&&&&&OO#%%#OO&&&&&&&&",
"&&&...o@%%%%%%%%#o...&&&",
"&&&..o#%%%%%%%%%%#o..&&&",
"&&&..%%%%%%%%%%%%%%..&&&",
"&&&.@%%%%%%%%%%%%%%@.&&&",
"&&&o%%%%%%%%%%%%%%%%o&&&",
"&&.O%%%%%%%%%%%%%%%%O.&&",
"&..@%%%%%%%%%%%%%%%%#..&",
"...%%%%%%%%%%%%%%%%%%...",
"...%%%%%%%%%%%%%%%%%#...",
"&..@%%%%%%%%%%%%%%%%#..&",
"&&.O%%%%%%%%%%%%%%%%@.&&",
"&&&o%%%%%%%%%%%%%%%%o&&&",
"&&&.@%%%%%%%%%%%%%%@.&&&",
"&&&..%%%%%%%%%%%%%%..&&&",
"&&&..o%%%%%%%%%%%%o..&&&",
"&&&....@%%%%%%%%@....&&&",
"&&&.....oO#%%#Oo.....&&&",
"&&&&&&&&&......&&&&&&&&&",
"&&&&&&&&&&....&&&&&&&&&&",
"&&&&&&&&&&&..&&&&&&&&&&&"
};
