/* XPM */
static const char *switch_off[] = {
/* columns rows colors chars-per-pixel */
"24 24 61 1 ",
"  c #C0392B",
". c #C33C2E",
"X c #C73E30",
"o c #D94536",
"O c #E34A3A",
"+ c #E44B3B",
"@ c #E74C3C",
"# c #957F7C",
"$ c #C94E41",
"% c #D94F41",
"& c #CB5449",
"* c #C85F54",
"= c #E55344",
"- c #E15648",
"; c #E3584A",
": c #C66156",
"> c #CD6E64",
", c #D9756C",
"< c #E87C71",
"1 c #7F8C8D",
"2 c #898786",
"3 c #818A8B",
"4 c #9E8482",
"5 c #ACA19F",
"6 c #95A5A6",
"7 c #96A5A7",
"8 c #96A6A6",
"9 c #9BA9AA",
"0 c #9FA9AA",
"q c #A3A7A7",
"w c #B5A3A2",
"e c #A5B1B3",
"r c #A8B3B6",
"t c #BAB0B1",
"y c #B1BABD",
"u c #B2BABD",
"i c #B3BBBF",
"p c #C2A6A5",
"a c #C2B5B6",
"s c #CEBBBB",
"d c #B7BEC2",
"f c #B9C0C4",
"g c #BAC0C4",
"h c #BBC1C5",
"j c #BCC3C6",
"k c #BDC3C7",
"l c #BEC3C7",
"z c #C6CCCF",
"x c #D7DADB",
"c c #D5DBDC",
"v c #D6DBDC",
"b c #E3CAC8",
"n c #E5CECC",
"m c #EBCECB",
"M c #E5D0CE",
"N c #E7EBEC",
"B c #E8EAEA",
"V c #EBECEC",
"C c #E9EEEF",
"Z c #ECF0F1",
"A c None",
/* pixels */
"AAAAAAAAAAAAAAAAAAAAAAAA",
"AAAAAAAAAAAAAAAAAAAAAAAA",
"AAAAAAAAAAAAAAAAAAAAAAAA",
"AAAAAAAAAAAAAAAAAAAAAAAA",
"AAAAAAAAAAAAAAAAAAAAAAAA",
"AAAAAlhllllllllllhlAAAAA",
"AAAllllllllllhllllllhAAA",
"AAhhp$.      >bCZZbslhAA",
"AAlpXo@@@@@@<ZzZzZzZslAA",
"Afl&@@@@@@@@mZlZlZlZMldA",
"Ahl%@@@@@@@@NZlZhZhZNlhA",
"Ahh-@@@@@@@@cZzZzZzZclfA",
"Auh,@@@@@@@@5ZZZZZZZwluA",
"Arla=@@@@@@@:0cCZCc0tlrA",
"AAdha,;@@@@@@:#1124tldAA",
"AA0ulllhhhhzhlhhlllhd7AA",
"AAA8euhlllllllllldue8AAA",
"AAAAA78888886888877AAAAA",
"AAAAAAAAAAAAAAAAAAAAAAAA",
"AAAAAAAAAAAAAAAAAAAAAAAA",
"AAAAAAAAAAAAAAAAAAAAAAAA",
"AAAAAAAAAAAAAAAAAAAAAAAA",
"AAAAAAAAAAAAAAAAAAAAAAAA",
"AAAAAAAAAAAAAAAAAAAAAAAA"
};
