/* XPM */
static const char *terminal[] = {
/* columns rows colors chars-per-pixel */
"24 24 16 1 ",
"  c #2C3E50",
". c #2E4253",
"X c #32475B",
"o c #34495E",
"O c #384C61",
"+ c #42566A",
"@ c #4F6274",
"# c #697988",
"$ c #84929E",
"% c #98A3AE",
"& c #A0ABB4",
"* c #B7C0C6",
"= c #CFD6DA",
"- c #DCE2E4",
"; c #ECF0F1",
": c None",
/* pixels */
"::::::::::::::::::::::::",
"::::::::::::::::::::::::",
"::XooooooooooooooooooX::",
":XooooooooooooooooooooX:",
":oooooooooooooooooooooo:",
":ooo&+ooooooooooooooooo:",
":ooo%-$Oooooooooooooooo:",
":oooo@*=#oooooooooooooo:",
":oooo@*=#oooooooooooooo:",
":ooo%-$Oooooooooooooooo:",
":ooo&+ooo;;;;;ooooooooo:",
":oooooooooooooooooooooo:",
":oooooooooooooooooooooo:",
":oooooooooooooooooooooo:",
":oooooooooooooooooooooo:",
":oooooooooooooooooooooo:",
":oooooooooooooooooooooo:",
":oooooooooooooooooooooo:",
":oooooooooooooooooooooo:",
":XooooooooooooooooooooX:",
":.XooooooooooooooooooX.:",
"::                    ::",
"::::::::::::::::::::::::",
"::::::::::::::::::::::::"
};
