/* XPM */
static char *thumb_up[] = {
/* columns rows colors chars-per-pixel */
"24 24 48 1 ",
"  c #2980B9",
". c #3B88BB",
"X c #7F8C8D",
"o c #3498DB",
"O c #4AA3DE",
"+ c #808D8E",
"@ c #818E8F",
"# c #828F90",
"$ c #829091",
"% c #839192",
"& c #859293",
"* c #869395",
"= c #869696",
"- c #889696",
"; c #889698",
": c #95A4A6",
"> c #95A5A6",
", c #96A6A7",
"< c #97A6A7",
"1 c #97A7A8",
"2 c #98A8A9",
"3 c #99A8AA",
"4 c #9EACAE",
"5 c #9FADAE",
"6 c #A2AFB0",
"7 c #A3B0B2",
"8 c #A4B0B3",
"9 c #A5B1B3",
"0 c #A7B3B5",
"q c #A8B3B6",
"w c #ACB5B9",
"e c #AEB8BA",
"r c #B1BABD",
"t c #B2BBBE",
"y c #B4BBC0",
"u c #B4BCC0",
"i c #B5BDC1",
"p c #B7BFC2",
"a c #B7BEC3",
"s c #B9C0C3",
"d c #B9C0C4",
"f c #B9C1C4",
"g c #BAC1C5",
"h c #BBC1C5",
"j c #BDC3C7",
"k c #ECEFF0",
"l c #ECF0F1",
"z c None",
/* pixels */
"zzzzzzzzzzzzzzzzzzzzzzzz",
"zzzzzzzzzzzzzzzzzzzzzzzz",
"zzzzzzzzzzzzzrfwzzzzzzzz",
"zzzzzzzzzzzzzf7<zzzzzzzz",
"zzzzzzzzzzzzzi<<zzzzzzzz",
"zzzzzzzzzzzzpq<<zzzzzzzz",
"zzzzzzzzzzzzs<<<zzzzzzzz",
"zzzzzzzzzzzs7:::zzzzzzzz",
"zzzzzzzzzzii1<<<zzzzzzzz",
"oooooOlzeir1<<:<essirzzz",
"ooooooljf7<<::::>55577zz",
"ooooool>1<<<::::>>>>>>zz",
"ooooool>>>>>:>>>::::<<zz",
"ooooool>>>>>>>>>::::<<<z",
"ooooool>>>>>>>>>::::<<1z",
"      sXXXXXXXXXXXXXXX$z",
"      f#XXXXXXXXXXXXXX-z",
"      f+XXXXXXXXXXXXXX;z",
"      j#XX++XXXXXXXX++zz",
"      f+X+++XXXXXXXXXzzz",
"     .jz$$$+++++XXX+#zzz",
"zzzzzzzzzzz$+#+$XX+$zzzz",
"zzzzzzzzzzzzzzzzzzzzzzzz",
"zzzzzzzzzzzzzzzzzzzzzzzz"
};
