/* XPM */
static const char *window[] = {
/* columns rows colors chars-per-pixel */
"24 24 8 1 ",
"  c #BF645B",
". c #E2A84A",
"X c #55B580",
"o c #BDC3C7",
"O c #C9CFD3",
"+ c #E2E6E8",
"@ c #ECF0F1",
"# c None",
/* pixels */
"########################",
"########################",
"##oooooooooooooooooooo##",
"#o  oXXo..ooooooooooooo#",
"#o  oXXo..ooooooooooooo#",
"#oooooooooooooooooooooo#",
"#@@@@@@@@@@@@@@@@@@@@@@#",
"#@@@@@@@@@@@@@@@@@@@@@@#",
"#@@@@@@@@@@@@@@@@@@@@@@#",
"#@@@@@@@@@@@@@@@@@@@@@@#",
"#@@@@@@@@@@@@@@@@@@@@@@#",
"#@@@@@@@@@@@@@@@@@@@@@@#",
"#@@@@@@@@@@@@@@@@@@@@@@#",
"#@@@@@@@@@@@@@@@@@@@@@@#",
"#@@@@@@@@@@@@@@@@@@@@@@#",
"#@@@@@@@@@@@@@@@@@@@@@@#",
"#@@@@@@@@@@@@@@@@@@@@@@#",
"#@@@@@@@@@@@@@@@@@@@@@@#",
"#@@@@@@@@@@@@@@@@@@@@@@#",
"#@@@@@@@@@@@@@@@@@@@@@@#",
"#+@@@@@@@@@@@@@@@@@@@@+#",
"#O+@@@@@@@@@@@@@@@@@@+O#",
"##oooooooooooooooooooo##",
"########################"
};
