/* XPM */
static char *wine[] = {
/* columns rows colors chars-per-pixel */
"24 24 22 1 ",
"  c #C0392B",
". c #E74C3C",
"X c #E75647",
"o c #E75C4E",
"O c #E9857A",
"+ c #7F8C8D",
"@ c #95A5A6",
"# c #D0BCBE",
"$ c #B7BEC1",
"% c #BCC3C6",
"& c #BDC3C7",
"* c #BEC3C7",
"= c #CCC4C5",
"- c #DFC3C2",
"; c #E9CAC7",
": c #E8CCCA",
"> c #EBDBDA",
", c #EBDCDA",
"< c #ECE2E1",
"1 c #ECE3E2",
"2 c #ECF0F1",
"3 c None",
/* pixels */
"333333333333333333333333",
"333333&2222222222&333333",
"333333&2222222222&333333",
"333333&2222222222&333333",
"333333&2222222222&333333",
"333333&2222222222&333333",
"333333&2        2&333333",
"333333&2........2&333333",
"333333&2........2&333333",
"333333&<o......o<&333333",
"333333&:O......O:&333333",
"3333333=>X....X>=3333333",
"3333333&->OooO>-&3333333",
"33333333&#;><;#&33333333",
"3333333333$$$&3333333333",
"33333333333+@33333333333",
"33333333333@@33333333333",
"33333333333@@33333333333",
"33333333333@@33333333333",
"33333333333@@33333333333",
"33333333333@@33333333333",
"33333333333@@33333333333",
"3333333&&&&&&&&&&3333333",
"333333333333333333333333"
};
