/* XPM */
static char *wrench_screwdriver[] = {
/* columns rows colors chars-per-pixel */
"24 24 71 1 ",
"  c #E77F21",
". c #E8831F",
"X c #EA871D",
"o c #EC8D1A",
"O c #ED8D1A",
"+ c #EB891C",
"@ c #EF9317",
"# c #EB951A",
"$ c #EC9719",
"% c #F39C12",
"& c #F2BB0F",
"* c #EEA416",
"= c #EBA119",
"- c #ECB916",
"; c #F2B010",
": c #F2B610",
"> c #D08938",
", c #D38C3B",
"< c #E48524",
"1 c #DBB235",
"2 c #E0B639",
"3 c #F1C40F",
"4 c #A6906C",
"5 c #ACA26C",
"6 c #CD974D",
"7 c #C6A15D",
"8 c #7F8C8C",
"9 c #898C82",
"0 c #808B8D",
"q c #808C8D",
"w c #808C8E",
"e c #818E8F",
"r c #838F90",
"t c #849293",
"y c #859293",
"u c #859395",
"i c #869394",
"p c #8A9899",
"a c #8A999A",
"s c #8B999A",
"d c #8B9A9B",
"f c #8D9B9D",
"g c #8F9D9E",
"h c #8F9E9F",
"j c #909E9F",
"k c #9DA698",
"l c #8F9FA0",
"z c #90A0A1",
"x c #91A0A1",
"c c #91A1A3",
"v c #92A1A3",
"b c #92A2A3",
"n c #93A2A3",
"m c #93A3A4",
"M c #94A4A5",
"N c #95A4A5",
"B c #94A5A5",
"V c #95A5A5",
"C c #94A4A6",
"Z c #95A4A6",
"A c #94A5A6",
"S c #95A5A6",
"D c #96A5A6",
"F c #96A5A7",
"G c #9CAAAB",
"H c #9FACAE",
"J c #A2AFB1",
"K c #A9B4B6",
"L c #AFB9BB",
"P c #BDC3C7",
"I c None",
/* pixels */
"IIIIIIIIIIIIIIIIIIIIIIII",
"IIIIIaFFxIIIIIIIIIIIIDDI",
"IIIIIIaxGxIIIIIIIIIIDFFI",
"IIIIIIeaxGDIIIIIIIIPGFII",
"IIIIIIIedDFFIIIIIIPKJIII",
"IIIIIIIIuDDxIIIIIPKJIIII",
"IxFIIIIIbDFDIIIIPKJIIIII",
"IxFDIIIIbDFxIIIPKJIIIIII",
"IaFFFIIxDDDADIPKJIIIIIII",
"IuDFFFFGDA11ALKJIIIIIIII",
"IIuxDDFxA1331KGIIIIIIIII",
"III8abxxk333:7aDIIIIIIII",
"IIIIreee433;%%6FDIIIIIII",
"IIIIIIII&3;%%@,FDDIIIIII",
"IIIIIII&3:@<<>axDDDIIIII",
"IIII:333:@<49aFFDDDDIIII",
"III:333:%+IeaxGxGxFxFIII",
"II&333;%%IIIeaxFFFxaFIII",
"I*333;%%+IIIIeaxFl8exxII",
"I$=3;%%++IIIIIeaFbIIxxII",
"II@@%%@XIIIIIIIraxDxxuII",
"IIIX++XIIIIIIIIIeuxluIII",
"IIIIXXIIIIIIIIIIIIeeIIII",
"IIIIIIIIIIIIIIIIIIIIIIII"
};
