/* XPM */
const static char *paste[] = {
/* columns rows colors chars-per-pixel */
"32 32 85 1 ",
"  c #3F1F19",
". c #421F18",
"X c #46241E",
"o c #4A241D",
"O c #472620",
"+ c #492720",
"@ c #452822",
"# c #4C2922",
"$ c #532922",
"% c #5C2C23",
"& c #54312A",
"* c #5C332C",
"= c #63352D",
"- c #6A372F",
"; c #673631",
": c #693631",
"> c #673831",
", c #6C3C34",
"< c #614C48",
"1 c #69534F",
"2 c #6C5650",
"3 c #715A56",
"4 c #7B7B7A",
"5 c #995524",
"6 c #9F5822",
"7 c #C56F17",
"8 c #E46905",
"9 c #E26C0C",
"0 c #E97D0D",
"q c #E57C10",
"w c #B67C4D",
"e c #B17B51",
"r c #8A6E6E",
"t c #8B7471",
"y c #EA800F",
"u c #EA890F",
"i c #F38F0E",
"p c #EE990F",
"a c #EB9512",
"s c #ED9A11",
"d c #F8AE17",
"f c #F5AE1A",
"g c #F9BB1F",
"h c #FAC222",
"j c #96827E",
"k c #DD8446",
"l c #DD874B",
"z c #DD884C",
"x c #D4A77D",
"c c #848483",
"v c #888887",
"b c #8B8A8A",
"n c #988481",
"m c #939292",
"M c #A08E8B",
"N c #A89896",
"B c #A1A09F",
"V c #A7A6A6",
"C c #B0A3A0",
"Z c #BCB5B3",
"A c #D1A883",
"S c #D3B29A",
"D c #C4BDBC",
"F c #CCC5C3",
"G c #CEC9C7",
"H c #CBCDCE",
"J c #D3CDCB",
"K c #D6D0CE",
"L c #C6CDD2",
"P c #CED2D4",
"I c #CBD3D8",
"U c #D5D4D5",
"Y c #D9D3D2",
"T c #D6D8DA",
"R c #DCDCDC",
"E c #E0DFDF",
"W c #E1E0DF",
"Q c #E6E6E5",
"! c #E8E7E7",
"~ c #E7E8E7",
"^ c #E8E9E7",
"/ c #EAE9E9",
"( c #EFF0F0",
") c #F1F3F2",
"_ c None",
/* pixels */
"________________________________",
"________________________________",
"________________________________",
"________________________________",
"______________ghhh______________",
"_____________fd__dd_____________",
"_____________sa__as_____________",
"________>>:5iuu77uui6:,,________",
"_______>:>te0qq00qq0wt>->_______",
"_______=%MLA89999998AIN%=_______",
"_______%=ZHSklllzzlkSUD=%_______",
"_______%=ZUUTRRRRRRRRYF=%_______",
"_______%=DTRRREERRRRRRF=%_______",
"_______%=DRRREWWQWQWRRG-%_______",
"_______%=FREEWQQQQQWEQJ>%_______",
"_______%=FQEWQQQQQQQQQJ:%_______",
"_______%*GQQQQQQ~Q~Q//K=%_______",
"_______$*JQQQ/Q/~~Q~W/K=%_______",
"_______%*G(Q/Q/Q!!!!//T=$_______",
"_______%*J!QQ//Q!!!!Q/Y*$_______",
"_______#*K/QQ/Q/!!//!(T*$_______",
"_______%*G/Q/Q//!!!ETTG*#_______",
"_______#%K//Q///((Hbvm3o$_______",
"_______##K/Q/QQ/!(N4v2o$#_______",
"_______#&J//Q////!Bc1o###_______",
"_______#@C(((()!))V<o#@X#_______",
"_______#X&tjjjjjjn2XX####_______",
"________@X .  X XXXo@X@@________",
"________________________________",
"________________________________",
"________________________________",
"________________________________"
};
