/* XPM */
const static char *printer[] = {
/* columns rows colors chars-per-pixel */
"32 32 104 2 ",
"   c #1D1B17",
".  c #1F1C1A",
"X  c #211D1C",
"o  c #24211E",
"O  c #221B20",
"+  c #262421",
"@  c #2A2724",
"#  c #2B2926",
"$  c #2E2B29",
"%  c #312E2C",
"&  c #33302E",
"*  c #363231",
"=  c #393635",
"-  c #3B3836",
";  c #3E3B3A",
":  c #423F3F",
">  c #465526",
",  c #48433D",
"<  c #474A3B",
"1  c #45612A",
"2  c #3E254A",
"3  c #40264D",
"4  c #41284D",
"5  c #432651",
"6  c #452853",
"7  c #472659",
"8  c #48275A",
"9  c #4A295D",
"0  c #493650",
"q  c #4C3853",
"w  c #4D3559",
"e  c #4E2A64",
"r  c #512B67",
"t  c #542E69",
"y  c #5E3F64",
"u  c #5E386E",
"i  c #603971",
"p  c #62367F",
"a  c #663A7D",
"s  c #57455D",
"d  c #5D4764",
"f  c #624E68",
"g  c #654671",
"h  c #6C467A",
"j  c #71477F",
"k  c #754C7F",
"l  c #6C6969",
"z  c #817F7E",
"x  c #5C8F10",
"c  c #529A1D",
"v  c #82817F",
"b  c #663781",
"n  c #663B81",
"m  c #6B3D82",
"M  c #6F4284",
"N  c #714385",
"B  c #774C86",
"V  c #754789",
"C  c #77488A",
"Z  c #794B8B",
"A  c #7E508F",
"S  c #80518F",
"D  c #815291",
"F  c #8A5B96",
"G  c #8C5C99",
"H  c #905F9A",
"J  c #93639D",
"K  c #9D719F",
"L  c #A1769F",
"P  c #9766A0",
"I  c #9D6CA3",
"U  c #A474A6",
"Y  c #A478A1",
"T  c #AB7FAB",
"R  c #838181",
"E  c #888785",
"W  c #8A8788",
"Q  c #8C8A8A",
"!  c #918F8E",
"~  c #959293",
"^  c #9B9999",
"/  c #B384AE",
"(  c #A4A1A3",
")  c #AAA7A8",
"_  c #ADAAAB",
"`  c #B1AEAF",
"'  c #B2AFB1",
"]  c #B4B1B3",
"[  c #BBB9B9",
"{  c #CFCDCC",
"}  c #D0CFD0",
"|  c #D5D4D3",
" . c #D9D7D7",
".. c #DDDCDB",
"X. c #E0DDDD",
"o. c #E1E0DF",
"O. c #E5E5E4",
"+. c #E8E7E7",
"@. c #E7E8E7",
"#. c #E8E8E7",
"$. c #EBEBEA",
"%. c #EFF0EE",
"&. c #F0F0EE",
"*. c None",
/* pixels */
"*.*.*.*.*.*.*.*.*.*.*.*.*.*.*.*.*.*.*.*.*.*.*.*.*.*.*.*.*.*.*.*.",
"*.*.*.*.*.*.*.*.*.*.*.*.*.*.*.*.*.*.*.*.*.*.*.*.*.*.*.*.*.*.*.*.",
"*.*.*.*.*.*.*.*.*.*.*.*.*.*.*.*.*.*.*.*.*.*.*.*.*.*.*.*.*.*.*.*.",
"*.*.*.*.*.*.*.*.*.*.*.*.*.*.*.*.*.*.*.*.*.*.*.*.*.*.*.*.*.*.*.*.",
"*.*.*.*.*.*.*.*.*.o.o.+.O.%.$.%.$.$.$.O.+...o.*.*.*.*.*.*.*.*.*.",
"*.*.*.*.*.*.*.*.}  . .o.o.o.o.O.+.+.o.....| | { *.*.*.*.*.*.*.*.",
"*.*.*.*.*.*.*.*. .o.o.o.o.O.#.O.+.o.+.o... ...{ *.*.*.*.*.*.*.*.",
"*.*.*.*.*.*.*.*. .o.o.O.O.O.O.O.+.+.+.o.+.....| *.*.*.*.*.*.*.*.",
"*.*.*.*.*.*.*.*.X.+.o.+.O.O.O.$.#.+.+.+.+...X...*.*.*.*.*.*.*.*.",
"*.*.*.*.*.*.*.*.$.$.$.$.%.%.&.&.%.&.$.&.$.$.$.+.*.*.*.*.*.*.*.*.",
"*.*.*.*.*.*.U w l v v E E ! ! ! ~ ! ! E E z z l w K *.*.*.*.*.*.",
"*.*.*.*.T / U q $ $ % * = - ; - s - - = & % # # 0 L / T *.*.*.*.",
"*.*.*.*.U U J 6 . + # $ * - - s - ; - = % # X X 3 J U T *.*.*.*.",
"*.*.*.*.I I J 5 . o # $ & * - - = = = % # # + X 3 G I I *.*.*.*.",
"*.*.*.*.P P F 5   X + # $ % * * = % % % # # X   3 F J J *.*.*.*.",
"*.*.*.*.J J G 9 O   o + # # $ % % % % o + X   X 7 F G J *.*.*.*.",
"*.*.*.*.G k y u 6 2 2 2 4 2 4 2 2 4 4 4 2 2 2 8 i F F G *.*.*.*.",
"*.*.*.*.V > x , C A Z Z A Z Z A B B B B Z Z Z Z D F F D *.*.*.*.",
"*.*.*.*.k 1 c < Z D A A A A A D S D S S D A S A A A A D *.*.*.*.",
"*.*.*.*.Z g d h Z Z A C Z Z C C Z Z Z Z Z Z Z C Z Z Z Z *.*.*.*.",
"*.*.*.*.V V C V C C V V C C C V C C C C V V V V V V V V *.*.*.*.",
"*.*.*.*.M V V m M i i i i i i i i i u i i i i m M m V V *.*.*.*.",
"*.*.*.*.m m m n d ~ ( _ _ ` ] ] ] ] ] ] _ _ ( f a m m m *.*.*.*.",
"*.*.*.*.n a n t R |  .+.O.$.%.%.%.$.%.$.$.+.+.! t a p m *.*.*.*.",
"*.*.*.*.n n b t W | ....+.+.$.O.O.$.@.@.+.o.+.^ e b b n *.*.*.*.",
"*.*.*.*.*.n b e ~ ......+.+.O.O.$.O.$.O.+...+.( e p a *.*.*.*.*.",
"*.*.*.*.*.*.*.*.{ ....X.+.O.$.$.$.$.$.O.O.+.+.+.*.*.*.*.*.*.*.*.",
"*.*.*.*.*.*.*.*._  ...+.+.O.@.$.$.$.@.O.+.+.+.[ *.*.*.*.*.*.*.*.",
"*.*.*.*.*.*.*.*.*.*.*.*.*.*.*.*.*.*.*.*.*.*.*.*.*.*.*.*.*.*.*.*.",
"*.*.*.*.*.*.*.*.*.*.*.*.*.*.*.*.*.*.*.*.*.*.*.*.*.*.*.*.*.*.*.*.",
"*.*.*.*.*.*.*.*.*.*.*.*.*.*.*.*.*.*.*.*.*.*.*.*.*.*.*.*.*.*.*.*.",
"*.*.*.*.*.*.*.*.*.*.*.*.*.*.*.*.*.*.*.*.*.*.*.*.*.*.*.*.*.*.*.*."
};
