/* XPM */
const static char *new_file[] = {
/* columns rows colors chars-per-pixel */
"64 64 152 2 ",
"   c #23471D",
".  c #28641F",
"X  c #2D741F",
"o  c #337D1E",
"O  c #265822",
"+  c #2B6521",
"@  c #2F7C21",
"#  c #337B22",
"$  c #777675",
"%  c #787776",
"&  c #797877",
"*  c #7C7B7A",
"=  c #807E7E",
"-  c #37811F",
";  c #3C851E",
":  c #3D8522",
">  c #428C1E",
",  c #4A941E",
"<  c #4F9A1D",
"1  c #46911C",
"2  c #539F1F",
"3  c #56A21E",
"4  c #5AA41D",
"5  c #5DA91D",
"6  c #64AD1F",
"7  c #6CB41E",
"8  c #77BB17",
"9  c #7DBD16",
"0  c #70B71C",
"q  c #73B91B",
"w  c #7ABC19",
"e  c #458E22",
"r  c #4B9322",
"t  c #519A22",
"y  c #4E8D38",
"u  c #448533",
"i  c #559437",
"p  c #5D9C37",
"a  c #56A022",
"s  c #5CA621",
"d  c #5DA921",
"f  c #63AC20",
"g  c #69AE2B",
"h  c #66B020",
"j  c #6AB027",
"k  c #73B727",
"l  c #7ABB22",
"z  c #71B628",
"x  c #78B927",
"c  c #66A831",
"v  c #68A739",
"b  c #63A238",
"n  c #7FBF31",
"m  c #7FC02F",
"M  c #68985D",
"N  c #7FAB65",
"B  c #76A365",
"V  c #82BF15",
"C  c #80BF31",
"Z  c #85C20F",
"A  c #85C113",
"S  c #88C414",
"D  c #83C11C",
"F  c #89C51C",
"G  c #80C02D",
"H  c #8CC72A",
"J  c #81C031",
"K  c #92CA33",
"L  c #83B857",
"P  c #81807E",
"I  c #91BF70",
"U  c #8EC646",
"Y  c #97CA47",
"T  c #9ACC46",
"R  c #93C849",
"E  c #A6CD59",
"W  c #9EC87D",
"Q  c #ABCF6D",
"!  c #ABD66D",
"~  c #B3D66E",
"^  c #AFD474",
"/  c #B5D874",
"(  c #B6D377",
")  c #BDE17A",
"_  c #827F80",
"`  c #858483",
"'  c #888786",
"]  c #898887",
"[  c #8C8B8A",
"{  c #908F8F",
"}  c #939292",
"|  c #A6A6A5",
" . c #A8A7A6",
".. c #A9A8A7",
"X. c #ADACAB",
"o. c #B0AFAE",
"O. c #B1B0AF",
"+. c #B5B4B3",
"@. c #B9B6B6",
"#. c #BDBCBC",
"$. c #C0BEBE",
"%. c #ADCA81",
"&. c #B6DC80",
"*. c #ABC395",
"=. c #B0C59B",
"-. c #BED6A8",
";. c #BDD4A7",
":. c #C2D792",
">. c #C1D7AE",
",. c #C8D8AE",
"<. c #CCDEA1",
"1. c #C1C1BF",
"2. c #CBD8B8",
"3. c #C8BFC8",
"4. c #C4C3C3",
"5. c #C8C7C7",
"6. c #C7C8C5",
"7. c #C9CAC7",
"8. c #CCCBCB",
"9. c #D0CFCF",
"0. c #CDD5C5",
"q. c #D3DBC5",
"w. c #CFC9D0",
"e. c #D2CED3",
"r. c #D5D4D4",
"t. c #D9D7D7",
"y. c #D9DBD6",
"u. c #D7D5DA",
"i. c #DDDCDB",
"p. c #D9D6D9",
"a. c #E0DFDE",
"s. c #DEE0D9",
"d. c #E2F1C9",
"f. c #E0E1DD",
"g. c #E1EBD5",
"h. c #DDDBE2",
"j. c #E1DFE2",
"k. c #E5E5E4",
"l. c #E8E7E7",
"z. c #E7E9E7",
"x. c #E8E9E7",
"c. c #E8E7EB",
"v. c #EBEBEA",
"b. c #E6E3EA",
"n. c #F0EFEF",
"m. c #EEF7E0",
"M. c #EFFAE4",
"N. c #F0F0EF",
"B. c #EDEBF1",
"V. c #F3F3F2",
"C. c #FEFEFE",
"Z. c None",
/* pixels */
"Z.Z.Z.Z.Z.Z.Z.Z.Z.Z.Z.Z.Z.Z.Z.Z.Z.Z.Z.Z.Z.Z.Z.Z.Z.Z.Z.Z.Z.Z.Z.Z.Z.Z.Z.Z.Z.Z.Z.Z.Z.Z.Z.Z.Z.Z.Z.Z.Z.Z.Z.Z.Z.Z.Z.Z.Z.Z.Z.Z.Z.Z.Z.Z.",
"Z.Z.Z.Z.Z.Z.Z.Z.Z.Z.Z.Z.Z.Z.Z.Z.Z.Z.Z.Z.Z.Z.Z.Z.Z.Z.Z.Z.Z.Z.Z.Z.Z.Z.Z.Z.Z.Z.Z.Z.Z.Z.Z.Z.Z.Z.Z.Z.Z.Z.Z.Z.Z.Z.Z.Z.Z.Z.Z.Z.Z.Z.Z.Z.",
"Z.Z.Z.Z.Z.Z.Z.Z.Z.Z.Z.Z.Z.Z.Z.Z.Z.Z.Z.Z.Z.Z.Z.Z.Z.Z.Z.Z.Z.Z.Z.Z.Z.Z.Z.Z.Z.Z.Z.Z.Z.Z.Z.Z.Z.Z.Z.Z.Z.Z.Z.Z.Z.Z.Z.Z.Z.Z.Z.Z.Z.Z.Z.Z.",
"Z.Z.Z.Z.Z.Z.Z.Z.Z.Z.Z.Z.Z.Z.Z.Z.Z.Z.Z.Z.Z.Z.Z.Z.Z.Z.Z.Z.Z.Z.Z.Z.Z.Z.Z.Z.Z.Z.Z.Z.Z.Z.Z.Z.Z.Z.Z.Z.Z.Z.Z.Z.Z.Z.Z.Z.Z.Z.Z.Z.Z.Z.Z.Z.",
"Z.Z.Z.Z.Z.Z.Z.Z.Z.Z.Z.Z.Z.Z.Z.Z.Z.Z.Z.Z.Z.Z.Z.Z.Z.Z.Z.Z.Z.Z.Z.Z.Z.Z.Z.Z.Z.Z.Z.Z.Z.Z.Z.Z.Z.Z.Z.Z.Z.Z.Z.Z.Z.Z.Z.Z.Z.Z.Z.Z.Z.Z.Z.Z.",
"Z.Z.Z.Z.Z.Z.Z.Z.Z.Z.Z.Z.x.x.k.x.x.k.l.k.x.k.l.k.l.x.l.l.l.l.l.l.l.l.l.@.Z.Z.Z.Z.Z.Z.Z.Z.Z.Z.Z.Z.Z.Z.Z.Z.Z.Z.Z.Z.Z.Z.Z.Z.Z.Z.Z.Z.",
"Z.Z.Z.Z.Z.Z.Z.Z.Z.Z.Z.l.V.x.l.x.x.x.x.x.x.x.x.x.x.x.l.x.x.v.l.v.x.n.j.o.' Z.Z.Z.Z.Z.Z.Z.Z.Z.Z.Z.Z.Z.Z.Z.Z.Z.Z.Z.Z.Z.Z.Z.Z.Z.Z.Z.",
"Z.Z.Z.Z.Z.Z.Z.Z.Z.Z.k.V.k.k.x.k.l.x.k.x.k.l.l.l.l.l.l.l.l.l.l.l.l.l.a. .' [ Z.Z.Z.Z.Z.Z.Z.Z.Z.Z.Z.Z.Z.Z.Z.Z.Z.Z.Z.Z.Z.Z.Z.Z.Z.Z.",
"Z.Z.Z.Z.Z.Z.Z.Z.Z.Z.k.k.k.k.l.l.k.k.x.x.k.x.l.l.l.l.x.x.x.x.x.x.l.x.f. .= ' ] Z.Z.Z.Z.Z.Z.Z.Z.Z.Z.Z.Z.Z.Z.Z.Z.Z.Z.Z.Z.Z.Z.Z.Z.Z.",
"Z.Z.Z.Z.Z.Z.Z.Z.Z.Z.k.k.k.l.l.k.k.k.k.k.k.l.l.k.l.l.k.k.l.l.l.l.l.x.l. .= ` [ { Z.Z.Z.Z.Z.Z.Z.Z.Z.Z.Z.Z.Z.Z.Z.Z.Z.Z.Z.Z.Z.Z.Z.Z.",
"Z.Z.Z.Z.Z.Z.Z.Z.Z.Z.k.k.k.x.N.N.V.V.n.V.V.V.n.V.N.V.V.V.V.N.n.n.x.x.a. .* ` ' [ [ Z.Z.Z.Z.Z.Z.Z.Z.Z.Z.Z.Z.Z.Z.Z.Z.Z.Z.Z.Z.Z.Z.Z.",
"Z.Z.Z.Z.Z.Z.Z.Z.Z.Z.k.k.l.N.C.C.C.C.C.C.C.C.C.C.C.C.C.C.C.C.C.C.n.x.a. .& = ` ' { } Z.Z.Z.Z.Z.Z.Z.Z.Z.Z.Z.Z.Z.Z.Z.Z.Z.Z.Z.Z.Z.Z.",
"Z.Z.Z.Z.Z.Z.Z.Z.Z.Z.k.l.l.s.k.c.l.l.l.l.l.l.x.l.x.x.x.x.l.l.l.k.l.x.a. .$ = P ' ] { } Z.Z.Z.Z.Z.Z.Z.Z.Z.Z.Z.Z.Z.Z.Z.Z.Z.Z.Z.Z.Z.",
"Z.Z.Z.Z.Z.Z.Z.Z.Z.Z.k.l.l.k.i.i.i.a.i.i.a.a.a.i.i.i.a.j.a.a.a.j.l.n.l.o.$ = = ' ' [ { } Z.Z.Z.Z.Z.Z.Z.Z.Z.Z.Z.Z.Z.Z.Z.Z.Z.Z.Z.Z.",
"Z.Z.Z.Z.Z.Z.Z.Z.Z.Z.l.l.c.x.l.l.l.l.l.l.l.l.l.x.l.l.l.l.l.l.x.x.l.v.l.5.= $ = P ` ] [ } } Z.Z.Z.Z.Z.Z.Z.Z.Z.Z.Z.Z.Z.Z.Z.Z.Z.Z.Z.",
"Z.Z.Z.Z.Z.Z.Z.Z.Z.Z.l.l.l.x.x.x.x.l.n.l.n.x.n.x.n.n.x.n.n.n.n.x.l.l.l.a. .$ $ = ` ` [ [ } } Z.Z.Z.Z.Z.Z.Z.Z.Z.Z.Z.Z.Z.Z.Z.Z.Z.Z.",
"Z.Z.Z.Z.Z.Z.Z.Z.Z.Z.k.x.k.V.C.C.C.C.C.C.C.C.C.C.C.C.C.C.C.C.C.C.n.l.l.l.i.X.P * * = ` ' [ } } Z.Z.Z.Z.Z.Z.Z.Z.Z.Z.Z.Z.Z.Z.Z.Z.Z.",
"Z.Z.Z.Z.Z.Z.Z.Z.Z.Z.l.x.k.k.N.V.V.V.V.V.V.V.V.V.V.V.V.V.V.V.V.x.l.v.l.l.l.f.8.+.X.X.X.o.o.O.#.4.Z.Z.Z.Z.Z.Z.Z.Z.Z.Z.Z.Z.Z.Z.Z.Z.",
"Z.Z.Z.Z.Z.Z.Z.Z.Z.Z.k.x.k.k.r.t.r.t.r.p.t.i.t.r.p.p.t.r.t.p.p.i.l.l.l.n.l.l.x.k.k.k.k.k.k.k.x.l.Z.Z.Z.Z.Z.Z.Z.Z.Z.Z.Z.Z.Z.Z.Z.Z.",
"Z.Z.Z.Z.Z.Z.Z.Z.Z.Z.k.x.l.l.x.x.x.x.x.x.l.x.x.x.x.x.x.x.x.x.x.x.v.l.x.l.x.x.x.x.l.l.l.l.x.k.x.k.Z.Z.Z.Z.Z.Z.Z.Z.Z.Z.Z.Z.Z.Z.Z.Z.",
"Z.Z.Z.Z.Z.Z.Z.Z.Z.Z.k.l.l.l.k.k.x.l.x.x.x.l.x.x.k.l.x.x.x.l.x.x.v.n.v.v.x.x.x.x.l.l.l.x.k.l.x.l.Z.Z.Z.Z.Z.Z.Z.Z.Z.Z.Z.Z.Z.Z.Z.Z.",
"Z.Z.Z.Z.Z.Z.Z.Z.Z.Z.k.x.l.x.C.C.C.C.C.V.C.C.C.C.C.C.C.C.C.C.C.C.C.V.C.C.C.C.C.C.C.C.C.C.V.l.x.l.Z.Z.Z.Z.Z.Z.Z.Z.Z.Z.Z.Z.Z.Z.Z.Z.",
"Z.Z.Z.Z.Z.Z.Z.Z.Z.Z.k.l.k.x.C.C.C.C.C.C.C.C.C.C.C.C.C.C.C.C.C.C.C.C.C.V.C.V.C.C.C.C.C.C.n.k.x.l.Z.Z.Z.Z.Z.Z.Z.Z.Z.Z.Z.Z.Z.Z.Z.Z.",
"Z.Z.Z.Z.Z.Z.Z.Z.Z.Z.k.l.k.k.r.r.r.9.r.r.9.r.r.r.r.r.e.r.r.r.r.r.9.e.t.t.r.r.r.r.9.r.r.9.a.x.x.l.Z.Z.Z.Z.Z.Z.Z.Z.Z.Z.Z.Z.Z.Z.Z.Z.",
"Z.Z.Z.Z.Z.Z.Z.Z.Z.Z.k.l.k.l.x.x.k.x.k.x.x.l.l.l.x.l.x.x.x.x.x.x.x.x.x.x.x.l.l.l.x.l.l.l.x.l.x.x.Z.Z.Z.Z.Z.Z.Z.Z.Z.Z.Z.Z.Z.Z.Z.Z.",
"Z.Z.Z.Z.Z.Z.Z.Z.Z.Z.k.l.l.x.k.k.k.k.k.k.x.x.l.l.l.l.l.k.k.k.k.x.l.l.x.x.l.l.l.l.x.x.l.k.x.k.x.l.Z.Z.Z.Z.Z.Z.Z.Z.Z.Z.Z.Z.Z.Z.Z.Z.",
"Z.Z.Z.Z.Z.Z.Z.Z.Z.Z.f.l.k.x.V.V.V.V.V.V.V.V.V.V.C.V.V.V.V.C.V.V.V.V.V.V.C.V.V.V.V.V.V.V.x.x.x.l.Z.Z.Z.Z.Z.Z.Z.Z.Z.Z.Z.Z.Z.Z.Z.Z.",
"Z.Z.Z.Z.Z.Z.Z.Z.Z.Z.k.k.x.x.C.C.C.C.C.C.C.C.C.C.C.C.C.C.C.C.C.C.C.C.C.C.C.C.C.C.C.C.C.C.V.x.x.x.Z.Z.Z.Z.Z.Z.Z.Z.Z.Z.Z.Z.Z.Z.Z.Z.",
"Z.Z.Z.Z.Z.Z.Z.Z.Z.Z.k.k.k.i.p.i.f.a.i.a.a.i.i.a.i.i.i.a.i.a.a.i.a.i.i.j.i.j.j.j.a.a.j.j.i.x.x.k.Z.Z.Z.Z.Z.Z.Z.Z.Z.Z.Z.Z.Z.Z.Z.Z.",
"Z.Z.Z.Z.Z.Z.Z.Z.Z.Z.h.k.f.k.k.f.a.k.k.k.j.a.k.f.a.k.j.k.k.f.a.k.j.j.k.j.k.:.E E E E E ( f.x.x.k.Z.Z.Z.Z.Z.Z.Z.Z.Z.Z.Z.Z.Z.Z.Z.Z.",
"Z.Z.Z.Z.Z.Z.Z.Z.Z.Z.k.k.k.k.k.k.k.x.x.x.l.l.l.x.k.x.l.x.k.l.l.l.l.k.x.B.<.K F S S S S H ~ x.x.k.Z.Z.Z.Z.Z.Z.Z.Z.Z.Z.Z.Z.Z.Z.Z.Z.",
"Z.Z.Z.Z.Z.Z.Z.Z.Z.Z.s.k.f.k.x.x.x.x.n.x.x.n.x.n.x.n.x.n.x.n.x.n.N.x.x.V./ F A A S S S S T f.x.l.Z.Z.Z.Z.Z.Z.Z.Z.Z.Z.Z.Z.Z.Z.Z.Z.",
"Z.Z.Z.Z.Z.Z.Z.Z.Z.Z.i.k.k.x.C.C.C.C.C.C.C.C.C.C.C.C.C.C.C.C.C.C.C.C.C.C.) D A A V V A V T f.l.k.Z.Z.Z.Z.Z.Z.Z.Z.Z.Z.Z.Z.Z.Z.Z.Z.",
"Z.Z.Z.Z.Z.Z.Z.Z.Z.Z.k.i.a.f.x.B.x.V.x.x.x.V.x.x.x.V.x.x.x.n.x.x.V.x.x.B./ D V A V V V V T f.l.f.Z.Z.Z.Z.Z.Z.Z.Z.Z.Z.Z.Z.Z.Z.Z.Z.",
"Z.Z.Z.Z.Z.Z.Z.Z.Z.Z.f.k.a.i.r.r.i.r.t.y.i.i.y.i.i.i.i.i.i.i.i.i.i.i.i.h.Q G 9 9 9 V V 9 T f.f.f.Z.Z.Z.Z.Z.Z.Z.Z.Z.Z.Z.Z.Z.Z.Z.Z.",
"Z.Z.Z.Z.Z.Z.Z.Z.Z.Z.i.i.i.k.s.k.k.k.k.l.k.k.k.l.x.x.x.x.x.x.x.l.x.x.k.B.~ w 9 9 w 9 9 w Y f.l.f.Z.Z.Z.Z.Z.Z.Z.Z.Z.Z.Z.Z.Z.Z.Z.Z.",
"Z.Z.Z.Z.Z.Z.Z.Z.Z.Z.i.i.i.i.i.i.k.a.k.k.k.k.k.k.x.k.k.l.l.l.k.l.l.l.l.B.^ m 9 9 9 w 9 w Y i.k.j.Z.Z.Z.Z.Z.Z.Z.Z.Z.Z.Z.Z.Z.Z.Z.Z.",
"Z.Z.Z.Z.Z.Z.Z.Z.Z.Z.i.i.i.k.C.C.C.C.V.C.C.V.C.C.C.C.C.C.C.C.C.C.C.C.C.C./ l 8 8 q 9 q 9 Y i.l.j.Z.Z.Z.Z.Z.Z.Z.Z.Z.Z.Z.Z.Z.Z.Z.Z.",
"Z.Z.Z.Z.Z.Z.Z.Z.Z.Z.i.i.i.k.C.C.C.C.C.C.C.C.V.C.C.C.C.C.m.d.d.d.d.d.d.d.Q l 8 q q q 9 q U ,.2.,.Z.Z.Z.Z.Z.Z.Z.Z.Z.Z.Z.Z.Z.Z.Z.Z.",
"Z.Z.Z.Z.Z.Z.Z.Z.Z.Z.i.i.i.t.8.8.9.r.9.r.r.r.r.r.e.t.p.W G J C G C C J J J k 8 0 q 0 q k n n C C m J n n J l Z.Z.Z.Z.Z.Z.Z.Z.Z.Z.",
"Z.Z.Z.Z.Z.Z.Z.Z.Z.Z.i.i.i.i.i.i.i.i.i.a.a.f.f.j.j.k.y.l 7 0 0 0 0 0 0 0 0 0 0 0 0 q q 0 0 0 0 0 q q q q q q Z.Z.Z.Z.Z.Z.Z.Z.Z.Z.",
"Z.Z.Z.Z.Z.Z.Z.Z.Z.Z.r.i.i.r.i.i.y.t.i.i.i.i.i.i.i.k.q.k 0 0 7 7 0 7 7 0 7 0 0 0 0 h 0 k 0 0 7 0 h q h q 0 k Z.Z.Z.Z.Z.Z.Z.Z.Z.Z.",
"Z.Z.Z.Z.Z.Z.Z.Z.Z.Z.r.r.r.i.x.V.n.V.n.V.V.V.V.V.V.V.g.k 7 7 7 7 h 0 7 7 0 7 h 0 7 7 7 7 k 7 h 0 h m 0 h 0 h Z.Z.Z.Z.Z.Z.Z.Z.Z.Z.",
"Z.Z.Z.Z.Z.Z.Z.Z.Z.Z.r.r.r.k.C.C.C.C.C.C.C.C.C.C.C.C.M.z 7 6 7 7 h h 7 h k h h h h f 7 7 h 0 h 6 7 7 h h h 0 Z.Z.Z.Z.Z.Z.Z.Z.Z.Z.",
"Z.Z.Z.Z.Z.Z.Z.Z.Z.Z.9.9.r.8.r.i.i.i.i.i.i.i.i.i.i.i.0.f 6 f f f h h 6 6 f 6 f f h f f f 6 h f f 6 6 7 5 f h Z.Z.Z.Z.Z.Z.Z.Z.Z.Z.",
"Z.Z.Z.Z.Z.Z.Z.Z.Z.Z.8.r.w.r.r.8.8.e.r.r.r.r.r.r.r.u.0.g 5 f f f f f 5 6 f f f f f f f f f f 6 f 5 6 f d f f Z.Z.Z.Z.Z.Z.Z.Z.Z.Z.",
"Z.Z.Z.Z.Z.Z.Z.Z.Z.Z.8.8.8.9.8.r.r.r.r.t.t.t.t.t.r.i.h.%.4 4 4 4 4 4 4 4 4 s s s s s s d s 4 4 s s d d d d f Z.Z.Z.Z.Z.Z.Z.Z.Z.Z.",
"Z.Z.Z.Z.Z.Z.Z.Z.Z.Z.8.8.8.8.i.i.i.i.i.k.a.i.k.k.k.k.h.l.2.-.-.-.>.;.;.>.L 3 s s s s s t c *.=.*.Z.Z.Z.Z.Z.Z.Z.Z.Z.Z.Z.Z.Z.Z.Z.Z.",
"Z.Z.Z.Z.Z.Z.Z.Z.Z.Z.4.4.8.i.C.C.C.C.C.C.C.C.C.C.C.C.C.C.C.C.C.C.C.C.C.C.W 2 s t a a t 2 v e.e.e.Z.Z.Z.Z.Z.Z.Z.Z.Z.Z.Z.Z.Z.Z.Z.Z.",
"Z.Z.Z.Z.Z.Z.Z.Z.Z.Z.4.4.4.8.x.x.x.x.x.V.V.x.B.x.x.V.V.x.n.x.x.V.x.n.x.n.I 1 t t t t t t c 8.8.8.Z.Z.Z.Z.Z.Z.Z.Z.Z.Z.Z.Z.Z.Z.Z.Z.",
"Z.Z.Z.Z.Z.Z.Z.Z.Z.Z.4.4.4.4.4.3.4.4.4.4.4.4.4.8.5.5.8.4.5.5.5.5.8.8.5.w.N 1 r r r r r 1 p 4.8.4.Z.Z.Z.Z.Z.Z.Z.Z.Z.Z.Z.Z.Z.Z.Z.Z.",
"Z.Z.Z.Z.Z.Z.Z.Z.Z.Z.#.4.#.4.4.4.5.5.5.8.8.8.8.8.9.8.8.r.9.9.9.9.8.e.9.r.N > e e e e e e i 4.8.4.Z.Z.Z.Z.Z.Z.Z.Z.Z.Z.Z.Z.Z.Z.Z.Z.",
"Z.Z.Z.Z.Z.Z.Z.Z.Z.Z.#.5.#.#.1.4.4.4.4.4.4.8.8.8.8.8.8.8.8.8.8.8.8.8.8.e.B ; : e e e : ; i 1.8.Z.Z.Z.Z.Z.Z.Z.Z.Z.Z.Z.Z.Z.Z.Z.Z.Z.",
"Z.Z.Z.Z.Z.Z.Z.Z.Z.Z.Z.#.4.4.4.4.4.4.5.5.8.4.8.8.8.8.8.8.8.8.9.8.8.9.8.r.B o : # : # : # y 5.#.Z.Z.Z.Z.Z.Z.Z.Z.Z.Z.Z.Z.Z.Z.Z.Z.Z.",
"Z.Z.Z.Z.Z.Z.Z.Z.Z.Z.Z.Z.Z.+.+.+.@.#.#.#.#.#.#.#.#.#.$.$.$.$.$.$.$.$.$.3.M o # # # # # o u Z.Z.Z.Z.Z.Z.Z.Z.Z.Z.Z.Z.Z.Z.Z.Z.Z.Z.Z.",
"Z.Z.Z.Z.Z.Z.Z.Z.Z.Z.Z.Z.Z.Z.Z.Z.Z.Z.Z.Z.Z.Z.Z.Z.Z.Z.Z.Z.Z.Z.Z.Z.Z.Z.Z.Z.Z.@ # # # @ # # + Z.Z.Z.Z.Z.Z.Z.Z.Z.Z.Z.Z.Z.Z.Z.Z.Z.Z.Z.",
"Z.Z.Z.Z.Z.Z.Z.Z.Z.Z.Z.Z.Z.Z.Z.Z.Z.Z.Z.Z.Z.Z.Z.Z.Z.Z.Z.Z.Z.Z.Z.Z.Z.Z.Z.Z.Z.  + + + + + O Z.Z.Z.Z.Z.Z.Z.Z.Z.Z.Z.Z.Z.Z.Z.Z.Z.Z.Z.Z.",
"Z.Z.Z.Z.Z.Z.Z.Z.Z.Z.Z.Z.Z.Z.Z.Z.Z.Z.Z.Z.Z.Z.Z.Z.Z.Z.Z.Z.Z.Z.Z.Z.Z.Z.Z.Z.Z.Z.Z.Z.Z.Z.Z.Z.Z.Z.Z.Z.Z.Z.Z.Z.Z.Z.Z.Z.Z.Z.Z.Z.Z.Z.Z.Z.",
"Z.Z.Z.Z.Z.Z.Z.Z.Z.Z.Z.Z.Z.Z.Z.Z.Z.Z.Z.Z.Z.Z.Z.Z.Z.Z.Z.Z.Z.Z.Z.Z.Z.Z.Z.Z.Z.Z.Z.Z.Z.Z.Z.Z.Z.Z.Z.Z.Z.Z.Z.Z.Z.Z.Z.Z.Z.Z.Z.Z.Z.Z.Z.Z.",
"Z.Z.Z.Z.Z.Z.Z.Z.Z.Z.Z.Z.Z.Z.Z.Z.Z.Z.Z.Z.Z.Z.Z.Z.Z.Z.Z.Z.Z.Z.Z.Z.Z.Z.Z.Z.Z.Z.Z.Z.Z.Z.Z.Z.Z.Z.Z.Z.Z.Z.Z.Z.Z.Z.Z.Z.Z.Z.Z.Z.Z.Z.Z.Z.",
"Z.Z.Z.Z.Z.Z.Z.Z.Z.Z.Z.Z.Z.Z.Z.Z.Z.Z.Z.Z.Z.Z.Z.Z.Z.Z.Z.Z.Z.Z.Z.Z.Z.Z.Z.Z.Z.Z.Z.Z.Z.Z.Z.Z.Z.Z.Z.Z.Z.Z.Z.Z.Z.Z.Z.Z.Z.Z.Z.Z.Z.Z.Z.Z.",
"Z.Z.Z.Z.Z.Z.Z.Z.Z.Z.Z.Z.Z.Z.Z.Z.Z.Z.Z.Z.Z.Z.Z.Z.Z.Z.Z.Z.Z.Z.Z.Z.Z.Z.Z.Z.Z.Z.Z.Z.Z.Z.Z.Z.Z.Z.Z.Z.Z.Z.Z.Z.Z.Z.Z.Z.Z.Z.Z.Z.Z.Z.Z.Z.",
"Z.Z.Z.Z.Z.Z.Z.Z.Z.Z.Z.Z.Z.Z.Z.Z.Z.Z.Z.Z.Z.Z.Z.Z.Z.Z.Z.Z.Z.Z.Z.Z.Z.Z.Z.Z.Z.Z.Z.Z.Z.Z.Z.Z.Z.Z.Z.Z.Z.Z.Z.Z.Z.Z.Z.Z.Z.Z.Z.Z.Z.Z.Z.Z.",
"Z.Z.Z.Z.Z.Z.Z.Z.Z.Z.Z.Z.Z.Z.Z.Z.Z.Z.Z.Z.Z.Z.Z.Z.Z.Z.Z.Z.Z.Z.Z.Z.Z.Z.Z.Z.Z.Z.Z.Z.Z.Z.Z.Z.Z.Z.Z.Z.Z.Z.Z.Z.Z.Z.Z.Z.Z.Z.Z.Z.Z.Z.Z.Z."
};
