/* XPM */
const static char *search_page[] = {
/* columns rows colors chars-per-pixel */
"64 64 99 2 ",
"   c #131E44",
".  c #121F4D",
"X  c #0F1E51",
"o  c #111F53",
"O  c #0F265F",
"+  c #112156",
"@  c #10265D",
"#  c #10285E",
"$  c #0F2C66",
"%  c #092B69",
"&  c #132B64",
"*  c #0E326D",
"=  c #0E3674",
"-  c #0D3C7B",
";  c #113C77",
":  c #12417F",
">  c #1F477E",
",  c #767574",
"<  c #787776",
"1  c #797877",
"2  c #7C7B7A",
"3  c #807E7E",
"4  c #81807E",
"5  c #0C3F81",
"6  c #0E4284",
"7  c #0D478B",
"8  c #0D488E",
"9  c #124987",
"0  c #0D4D93",
"q  c #0D4F98",
"w  c #0C539C",
"e  c #335483",
"r  c #235992",
"t  c #31679C",
"y  c #0B55A3",
"u  c #0D58A4",
"i  c #0B5CAB",
"p  c #1560A5",
"a  c #0F63B5",
"s  c #1C6FB4",
"d  c #2967A0",
"f  c #377CB7",
"g  c #4C658A",
"h  c #6D7A93",
"j  c #4F8EBE",
"k  c #6592B1",
"l  c #6898B8",
"z  c #779BBF",
"x  c #6FA5C9",
"c  c #848383",
"v  c #888786",
"b  c #898887",
"n  c #8C8B8B",
"m  c #908F8E",
"M  c #91908F",
"N  c #949393",
"B  c #999696",
"V  c #9A9999",
"C  c #8B9CA9",
"Z  c #98A6B4",
"A  c #9DABB5",
"S  c #A6A5A4",
"D  c #ADACAB",
"F  c #B0AEAE",
"G  c #AEB3B5",
"H  c #B6B6B6",
"J  c #B8B7B7",
"K  c #BBB8B7",
"L  c #B5B7B8",
"P  c #BCBBBB",
"I  c #C2BFBE",
"U  c #C1C1BE",
"Y  c #93AEC9",
"T  c #8AB6D1",
"R  c #B5BAC1",
"E  c #C4C3C3",
"W  c #C8C7C7",
"Q  c #C9C8C7",
"!  c #CCCBCB",
"~  c #D0CFCF",
"^  c #D3D1CF",
"/  c #D5D4D4",
"(  c #D9D7D7",
")  c #D9D9D7",
"_  c #DCDCDB",
"`  c #E0DFDF",
"'  c #E1E0DF",
"]  c #EBE2DD",
"[  c #E5E5E4",
"{  c #E8E7E7",
"}  c #E7E9E6",
"|  c #E8E9E7",
" . c #ECEBEA",
".. c #F0F0EF",
"X. c #F4F4F3",
"o. c #F7F9F7",
"O. c #F9F9F7",
"+. c #FDFDFD",
"@. c None",
/* pixels */
"@.@.@.@.@.@.@.@.@.@.@.@.@.@.@.@.@.@.@.@.@.@.@.@.@.@.@.@.@.@.@.@.@.@.@.@.@.@.@.@.@.@.@.@.@.@.@.@.@.@.@.@.@.@.@.@.@.@.@.@.@.@.@.@.",
"@.@.@.@.@.@.@.@.@.@.@.@.@.@.@.@.@.@.@.@.@.@.@.@.@.@.@.@.@.@.@.@.@.@.@.@.@.@.@.@.@.@.@.@.@.@.@.@.@.@.@.@.@.@.@.@.@.@.@.@.@.@.@.@.",
"@.@.@.@.@.@.@.@.@.@.@.@.@.@.@.@.@.@.@.@.@.@.@.@.@.@.@.@.@.@.@.@.@.@.@.@.@.@.@.@.@.@.@.@.@.@.@.@.@.@.@.@.@.@.@.@.@.@.@.@.@.@.@.@.",
"@.@.@.@.@.@.@.@.@.@.@.@.@.@.@.@.@.@.@.@.@.@.@.@.@.@.@.@.@.@.@.@.@.@.@.@.@.@.@.@.@.@.@.@.@.@.@.@.@.@.@.@.@.@.@.@.@.@.@.@.@.@.@.@.",
"@.@.@.@.@.@.@.@.@.@.@.@.@.@.@.@.@.@.@.@.@.@.@.@.@.@.@.@.@.@.@.@.@.@.@.@.@.@.@.@.@.@.@.@.@.@.@.@.@.@.@.@.@.@.@.@.@.@.@.@.@.@.@.@.",
"@.@.@.@.@.@.@.@.@.@.@.@.@. .[ [ [ } [ [ } [ [ [ [ } [ [ { [ { { { [ [ ! @.@.@.@.@.@.@.@.@.@.@.@.@.@.@.@.@.@.@.@.@.@.@.@.@.@.@.@.",
"@.@.@.@.@.@.@.@.@.@.@.@. ... .X.X. . .X.X. .X. .X.X. .X.X.......X... .K v @.@.@.@.@.@.@.@.@.@.@.@.@.@.@.@.@.@.@.@.@.@.@.@.@.@.@.",
"@.@.@.@.@.@.@.@.@.@.@. .| [ [ [ [ [  .[ [  .} [ [ { { { [ { { { { { [ D v n @.@.@.@.@.@.@.@.@.@.@.@.@.@.@.@.@.@.@.@.@.@.@.@.@.@.",
"@.@.@.@.@.@.@.@.@.@.[  .[ [ [ | } [ } [ [ } { {  .[ { [ [  .} }  .{ [ D 3 n n @.@.@.@.@.@.@.@.@.@.@.@.@.@.@.@.@.@.@.@.@.@.@.@.@.",
"@.@.@.@.@.@.@.@.@.@.[ | [ [ | [ [ [ [  .[ { { [ [ [  .} [ } }  .[  .[ D 2 v m m @.@.@.@.@.@.@.@.@.@.@.@.@.@.@.@.@.@.@.@.@.@.@.@.",
"@.@.@.@.@.@.@.@.@.@.[ [ [ [ | | } } } [  .[  .[  .[ [  . .[ [ [ | | [ D 2 v v m n @.@.@.@.@.@.@.@.@.@.@.@.@.@.@.@.@.@.@.@.@.@.@.",
"@.@.@.@.@.@.@.@.@.@.[ [ }  .+.+.+.+.+.+.+.+.+.+.+.+.+.+.+.+.+.+. .[ [ D 2 3 v v N N @.@.@.@.@.@.@.@.@.@.@.@.@.@.@.@.@.@.@.@.@.@.",
"@.@.@.@.@.@.@.@.@.@.[ [ [ [ +.+.+.+.+.+.+.+.+.+.+.+.+.+.+.+.+.+. .{ ' D < 3 4 v v N N @.@.@.@.@.@.@.@.@.@.@.@.@.@.@.@.@.@.@.@.@.",
"@.@.@.@.@.@.@.@.@.@.[ { | [ / / ( ( / ( / ( / ( ( ( ( ( ( / ( / [  .{ F < 2 3 v v n N N @.@.@.@.@.@.@.@.@.@.@.@.@.@.@.@.@.@.@.@.",
"@.@.@.@.@.@.@.@.@.@.[ { [ } | }  .} [  .}  . . . . .[ }  . . . . .{ { E 2 < 3 4 v v v N N @.@.@.@.@.@.@.@.@.@.@.@.@.@.@.@.@.@.@.",
"@.@.@.@.@.@.@.@.@.@.[ { | | [ [ [ [ [ [ [ [ [ [ [ {  .[ { { { { { { { _ B , 3 3 v v v n N N @.@.@.@.@.@.@.@.@.@.@.@.@.@.@.@.@.@.",
"@.@.@.@.@.@.@.@.@.@.[ } [  .o.o.o.o.o.o.o.o.o.o.o.o.o.o.o.o.+.X. ...{ { ! M < 2 3 3 v v m N N @.@.@.@.@.@.@.@.@.@.@.@.@.@.@.@.@.",
"@.@.@.@.@.@.@.@.@.@.[  .[  .+.+.+.+.+.+.+.+.+.+.+.+.+.+.+.+.+.+...{ { { { ^ D N n m m B N V S S @.@.@.@.@.@.@.@.@.@.@.@.@.@.@.@.",
"@.@.@.@.@.@.@.@.@.@.[ |  .[ / ) _ _ ( _ ( _ _ _ _ _ _ _ _ ( _ ( ` { { { | { [ ( / / / / / / ( [ @.@.@.@.@.@.@.@.@.@.@.@.@.@.@.@.",
"@.@.@.@.@.@.@.@.@.@.[ | } [ [ [ [ [ [ [ [ [ [ [ [ [ [ [ { { { [ { {  .{ | | { | { { { { | | | ..@.@.@.@.@.@.@.@.@.@.@.@.@.@.@.@.",
"@.@.@.@.@.@.@.@.@.@.[ { [ [ [ [ [ [ { { [ { { [ |  .{ { [  .[  .{ { { {  .[ | | { { { { [ | { ..@.@.@.@.@.@.@.@.@.@.@.@.@.@.@.@.",
"@.@.@.@.@.@.@.@.@.@.[  .| } X.X.X.X.X.X.X.X.X.X.X.X.X.X.X.X.X.X.X.X.X.X.X.X.X.X.X.X.X... .} |  .@.@.@.@.@.@.@.@.@.@.@.@.@.@.@.@.",
"@.@.@.@.@.@.@.@.@.@.[ [ [ ..+.+.+.+.+.+.+.+.+.+.+.+.+.+.+.+.+.+.+.+.+.+.+.+.+.+.+.+.+.+.+.[ | ..@.@.@.@.@.@.@.@.@.@.@.@.@.@.@.@.",
"@.@.@.@.@.@.@.@.@.@.[ } [ ' [ [ [ [ [ [ [ [ [ [ [ [ [  .[ [ ` ` [ [ {  .[ [ [ [ [ [ [ { _ | |  .@.@.@.@.@.@.@.@.@.@.@.@.@.@.@.@.",
"@.@.@.@.@.@.@.@.@.@.[ | | [ [ ' ' _ ' ' ` ` ` ` [ [ / W R P L L L K E ~ _ ` ` ` _ [ _ ` [ } [ ..@.@.@.@.@.@.@.@.@.@.@.@.@.@.@.@.",
"@.@.@.@.@.@.@.@.@.@.[ [ [ [ [ [ [ } [ } } } [  .` E K E ~ ~ ~ / / ~ Q K I / {  . .[ [ [ } [ } ..@.@.@.@.@.@.@.@.@.@.@.@.@.@.@.@.",
"@.@.@.@.@.@.@.@.@.@.[ [ [ }  . . . . . . . . .~ P E / ~ W W W W E ! ! / ~ K I [ X. . . . .} [ ..@.@.@.@.@.@.@.@.@.@.@.@.@.@.@.@.",
"@.@.@.@.@.@.@.@.@.@.[ [ [  .+.+.+.+.+.+.+.+.~ P ~ ~ W E W E U U E E W E W / E K  .+.+.+.X.[  . .@.@.@.@.@.@.@.@.@.@.@.@.@.@.@.@.",
"@.@.@.@.@.@.@.@.@.@.[ [ [ _  .X.X.X.....X.~ K / W E W U P U W W W K K E W W ~ W K  .X...[ [ | ..@.@.@.@.@.@.@.@.@.@.@.@.@.@.@.@.",
"@.@.@.@.@.@.@.@.@.@.' [ [ [ / / / / / / E K ~ W E E P ~  .+.+.+.+.+.` R K W U ~ Q K ^ / ' [ |  .@.@.@.@.@.@.@.@.@.@.@.@.@.@.@.@.",
"@.@.@.@.@.@.@.@.@.@.[ [ ' [ [ [ |  .| [ K ! E E E K  .+.+.+.+.+.+.+.+.+.~ P W W ! R !  . .[ {  .@.@.@.@.@.@.@.@.@.@.@.@.@.@.@.@.",
"@.@.@.@.@.@.@.@.@.@._ [ [ ` [ [ [ [  .Q I ! E E K X.+.+.+.+.+.o.+.+.+.+.+.~ P W E ! K ' } [ }  .@.@.@.@.@.@.@.@.@.@.@.@.@.@.@.@.",
"@.@.@.@.@.@.@.@.@.@.` ` ` [ O.+.+.+.X.K W E ! K [ +.+.+.o.+.X.+.o.+.o.o.o.+.W I E W K ( o.[ [  .@.@.@.@.@.@.@.@.@.@.@.@.@.@.@.@.",
"@.@.@.@.@.@.@.@.@.@.` [ ` [ +.+.+.+.[ R E E I W +.X.X.X.X.X.+.o.X.X.o.o.o.o.{ P E U W E  .[ [  .@.@.@.@.@.@.@.@.@.@.@.@.@.@.@.@.",
"@.@.@.@.@.@.@.@.@.@.` ' ' _ ! / ~ / U U E W K [ +.X.+.X.X.o.X.o.X.X.o.o...o.o.E E E E K / [ ` } @.@.@.@.@.@.@.@.@.@.@.@.@.@.@.@.",
"@.@.@.@.@.@.@.@.@.@._ ` ` ` [ ` ` [ U U U W I ..X.X.X.X.X.X.X.X.X.o.X.X.o.o.o.~ E E E E ) [ ` } @.@.@.@.@.@.@.@.@.@.@.@.@.@.@.@.",
"@.@.@.@.@.@.@.@.@.@._ ` _ _ ` ` ` _ U K U W R O.o.X.X.X.X.X.X.X.X.X.o.......o.( U W I R ^ [ ' { @.@.@.@.@.@.@.@.@.@.@.@.@.@.@.@.",
"@.@.@.@.@.@.@.@.@.@._ _ _ [ ..X.X.X.E R U W R X.+. .X.X.X.X. .X...........o.+.( K W K K / ' ' | @.@.@.@.@.@.@.@.@.@.@.@.@.@.@.@.",
"@.@.@.@.@.@.@.@.@.@._ _ _  .+.+.+.+.! K E W K  .+.X. .X.X. .X.X...........o.o.~ R E K K [ ' ` ' @.@.@.@.@.@.@.@.@.@.@.@.@.@.@.@.",
"@.@.@.@.@.@.@.@.@.@._ _ _ / _ _ _ _ E K U W K _ +.+.X. .X. . . .........X.+.o.I W W K K / ` ` { @.@.@.@.@.@.@.@.@.@.@.@.@.@.@.@.",
"@.@.@.@.@.@.@.@.@.@._ _ _ _ / ( _ _ ! K K E E E X.+.+.X. . . . . . ...X.+.+.[ K W U K E ' ` ( ' @.@.@.@.@.@.@.@.@.@.@.@.@.@.@.@.",
"@.@.@.@.@.@.@.@.@.@.( _ ( ( _ _ _ _ / P U E ! K _ +.+.+.+.X.X.X.X.o.o.+.+...U U E U K l T ] ` ' @.@.@.@.@.@.@.@.@.@.@.@.@.@.@.@.",
"@.@.@.@.@.@.@.@.@.@./ ( ( _ ` [ [ [  .! L U E E K [ o.+.+.+.+.+.+.+.+.+.X.! K ! E K P s a x ` [ @.@.@.@.@.@.@.@.@.@.@.@.@.@.@.@.",
"@.@.@.@.@.@.@.@.@.@./ / / [ +.+.+.+.+.X.K K E W E K ` X.+.+.+.+.+.o.o. .! K ! E R I k i i i j ` @.@.@.@.@.@.@.@.@.@.@.@.@.@.@.@.",
"@.@.@.@.@.@.@.@.@.@./ / / (  . .X. . .X.~ L R E W E K Q [  .......[ / K E ! E R U A p y y u y f @.@.@.@.@.@.@.@.@.@.@.@.@.@.@.@.",
"@.@.@.@.@.@.@.@.@.@.~ ~ ~ ~ ~ ! ! ~ ~ ! / U K I I W Q I K K I E K K K E E E U I L t w w w w w w w @.@.@.@.@.@.@.@.@.@.@.@.@.@.@.",
"@.@.@.@.@.@.@.@.@.@.~ ~ ~ ~ ~ / ( ( ( _ _ / E L R E E Q W W E E W W W E E K E G t 8 0 0 0 0 0 0 q 0 @.@.@.@.@.@.@.@.@.@.@.@.@.@.",
"@.@.@.@.@.@.@.@.@.@.W Q ! ! ~ / / / ( / _ ( _ ! K K K R U E E I E E E R K K C r 7 7 7 7 7 7 7 7 7 0 7 @.@.@.@.@.@.@.@.@.@.@.@.@.",
"@.@.@.@.@.@.@.@.@.@.! ! W / +.+.o.o.+.o.o.+.o.+...! I H P K R I I K P K K ` z - 6 6 6 6 6 6 6 6 6 6 6 6 9 @.@.@.@.@.@.@.@.@.@.@.",
"@.@.@.@.@.@.@.@.@.@.E E E / X.+.o.+.+.o.o.o.o.o.o.o.{ ( W R P K K K ! [ X.+.+.Y : = - - - - - - - - - - 5 - @.@.@.@.@.@.@.@.@.@.",
"@.@.@.@.@.@.@.@.@.@.E E E E E E W W Q W ! Q ! ! ! ! ! ~ ~ W E I W ~ ~ ! ! ! ! / Z > = = ; * = = = = ; = = - ; @.@.@.@.@.@.@.@.@.",
"@.@.@.@.@.@.@.@.@.@.K E E E E E W W Q ! ! ! ~ ! ! ~ ~ ! ~ ~ ~ ~ ~ ~ ~ ! / ! ! ! ~ P e % * * * * * * * * * * * @.@.@.@.@.@.@.@.@.",
"@.@.@.@.@.@.@.@.@.@.K ! K R E E E W E W W W Q ! ! ! ! ! ~ ! ~ ~ ~ ~ ! ~ ! ! Q ! W ! E g $ $ & $ & $ $ $ $ $ $ @.@.@.@.@.@.@.@.@.",
"@.@.@.@.@.@.@.@.@.@.@.I ! U I U I E E E E W W W Q Q Q ~ Q Q Q ~ W W W W ! ! E W E E W ! h & O O # # & + + O & @.@.@.@.@.@.@.@.@.",
"@.@.@.@.@.@.@.@.@.@.@.@.L K E W W W Q ! Q ! ! ~ ! ~ ~ ~ ~ ~ ~ ~ ~ ~ ~ ~ ~ ! ! ! ! ! ! ! W h + + + + + O O + + @.@.@.@.@.@.@.@.@.",
"@.@.@.@.@.@.@.@.@.@.@.@.@.@.@.@.@.@.@.@.@.@.@.@.@.@.@.@.@.@.@.@.@.@.@.@.@.@.@.@.@.@.@.@.@.@.@.. + + o o + X @.@.@.@.@.@.@.@.@.@.",
"@.@.@.@.@.@.@.@.@.@.@.@.@.@.@.@.@.@.@.@.@.@.@.@.@.@.@.@.@.@.@.@.@.@.@.@.@.@.@.@.@.@.@.@.@.@.@.@.  o o + o @.@.@.@.@.@.@.@.@.@.@.",
"@.@.@.@.@.@.@.@.@.@.@.@.@.@.@.@.@.@.@.@.@.@.@.@.@.@.@.@.@.@.@.@.@.@.@.@.@.@.@.@.@.@.@.@.@.@.@.@.@.@.@.@.@.@.@.@.@.@.@.@.@.@.@.@.",
"@.@.@.@.@.@.@.@.@.@.@.@.@.@.@.@.@.@.@.@.@.@.@.@.@.@.@.@.@.@.@.@.@.@.@.@.@.@.@.@.@.@.@.@.@.@.@.@.@.@.@.@.@.@.@.@.@.@.@.@.@.@.@.@.",
"@.@.@.@.@.@.@.@.@.@.@.@.@.@.@.@.@.@.@.@.@.@.@.@.@.@.@.@.@.@.@.@.@.@.@.@.@.@.@.@.@.@.@.@.@.@.@.@.@.@.@.@.@.@.@.@.@.@.@.@.@.@.@.@.",
"@.@.@.@.@.@.@.@.@.@.@.@.@.@.@.@.@.@.@.@.@.@.@.@.@.@.@.@.@.@.@.@.@.@.@.@.@.@.@.@.@.@.@.@.@.@.@.@.@.@.@.@.@.@.@.@.@.@.@.@.@.@.@.@.",
"@.@.@.@.@.@.@.@.@.@.@.@.@.@.@.@.@.@.@.@.@.@.@.@.@.@.@.@.@.@.@.@.@.@.@.@.@.@.@.@.@.@.@.@.@.@.@.@.@.@.@.@.@.@.@.@.@.@.@.@.@.@.@.@.",
"@.@.@.@.@.@.@.@.@.@.@.@.@.@.@.@.@.@.@.@.@.@.@.@.@.@.@.@.@.@.@.@.@.@.@.@.@.@.@.@.@.@.@.@.@.@.@.@.@.@.@.@.@.@.@.@.@.@.@.@.@.@.@.@.",
"@.@.@.@.@.@.@.@.@.@.@.@.@.@.@.@.@.@.@.@.@.@.@.@.@.@.@.@.@.@.@.@.@.@.@.@.@.@.@.@.@.@.@.@.@.@.@.@.@.@.@.@.@.@.@.@.@.@.@.@.@.@.@.@."
};
