/* XPM */
const static char *search[] = {
/* columns rows colors chars-per-pixel */
"64 64 78 1 ",
"  c #131D3F",
". c #151F44",
"X c #101F4D",
"o c #0F1F55",
"O c #111F53",
"+ c #11204F",
"@ c #0F2154",
"# c #0F245C",
"$ c #122255",
"% c #11255B",
"& c #0F2A63",
"* c #0F2E69",
"= c #112B63",
"- c #1A2F62",
"; c #102E68",
": c #0F306B",
"> c #113067",
", c #0E3471",
"< c #0E3875",
"1 c #0E3C7A",
"2 c #143A74",
"3 c #123E78",
"4 c #0D3E80",
"5 c #0D4283",
"6 c #0B4389",
"7 c #0D488C",
"8 c #104384",
"9 c #154989",
"0 c #0D4C92",
"q c #0D4F98",
"w c #0D539B",
"e c #2A5F95",
"r c #3C6F9E",
"t c #0C57A1",
"y c #0D5AA4",
"u c #0D5DAA",
"i c #1359A0",
"p c #0C5FB0",
"a c #1862A6",
"s c #0E62B1",
"d c #0D66B9",
"f c #0D68BB",
"g c #1069B9",
"h c #2F6EA4",
"j c #3F74A2",
"k c #2D77B1",
"l c #2878B8",
"z c #7196B1",
"x c #7E9FB5",
"c c #9AA6B1",
"v c #AFAEAE",
"b c #B0AFAF",
"n c #A4ACB4",
"m c #A2ACB8",
"M c #B5B4B4",
"N c #B9B7B7",
"B c #BCB9B7",
"V c #BAB7B8",
"C c #BDBCBC",
"Z c #C1BFBE",
"A c #C3C1BF",
"S c #C4C3C3",
"D c #C8C7C7",
"F c #C8C8C7",
"G c #CACACA",
"H c #D0CFCF",
"J c #D0D0CF",
"K c #D4D4D3",
"L c #DCDCDB",
"P c #E5E5E5",
"I c #EEEEED",
"U c #F0EFEF",
"Y c #EFF0EF",
"T c #F0F0EF",
"R c #F4F4F4",
"E c #F9F9F7",
"W c #FCFCFC",
"Q c None",
/* pixels */
"QQQQQQQQQQQQQQQQQQQQQQQQQQQQQQQQQQQQQQQQQQQQQQQQQQQQQQQQQQQQQQQQ",
"QQQQQQQQQQQQQQQQQQQQQQQQQQQQQQQQQQQQQQQQQQQQQQQQQQQQQQQQQQQQQQQQ",
"QQQQQQQQQQQQQQQQQQQQQQQQQQQQQQQQQQQQQQQQQQQQQQQQQQQQQQQQQQQQQQQQ",
"QQQQQQQQQQQQQQQQQQQQQQQQQQQQQQQQQQQQQQQQQQQQQQQQQQQQQQQQQQQQQQQQ",
"QQQQQQQQQQQQQQQQQQQQQQQQQQQQQQQQQQQQQQQQQQQQQQQQQQQQQQQQQQQQQQQQ",
"QQQQQQQQQQQQQQQQQQQQQQQQQQQQQQQQQQQQQQQQQQQQQQQQQQQQQQQQQQQQQQQQ",
"QQQQQQQQQQQQQQQQQQQQQQQQQQQQQQQQQQQQQQQQQQQQQQQQQQQQQQQQQQQQQQQQ",
"QQQQQQQQQQQQQQQQQQQQQQQQQQQQQQQQQQQQQQQQQQQQQQQQQQQQQQQQQQQQQQQQ",
"QQQQQQQQQQQQQQQQQQQQQQQQQQQQQQQQQQQQQQQQQQQQQQQQQQQQQQQQQQQQQQQQ",
"QQQQQQQQQQQQQQQQQQQQQQQQQQQQQQQQQQQQQQQQQQQQQQQQQQQQQQQQQQQQQQQQ",
"QQQQQQQQQQQQQQQQQQQBNNVCBBMMMQQQQQQQQQQQQQQQQQQQQQQQQQQQQQQQQQQQ",
"QQQQQQQQQQQQQQQQCNSSHJKKKKKHGSNNQQQQQQQQQQQQQQQQQQQQQQQQQQQQQQQQ",
"QQQQQQQQQQQQQQMVSHKLKKHGJJKKKKHGBNQQQQQQQQQQQQQQQQQQQQQQQQQQQQQQ",
"QQQQQQQQQQQQQBZGKKHSSSSSSSSSGGKKGSBQQQQQQQQQQQQQQQQQQQQQQQQQQQQQ",
"QQQQQQQQQQQQVSJKHSSSSGSGGGSGSSSGKKSNQQQQQQQQQQQQQQQQQQQQQQQQQQQQ",
"QQQQQQQQQQQBSKKSSSGSSBMMMMBCGGSSSHKSBQQQQQQQQQQQQQQQQQQQQQQQQQQQ",
"QQQQQQQQQQBSKGSSFGBvZKPPIPKSMNSGSSGKSVQQQQQQQQQQQQQQQQQQQQQQQQQQ",
"QQQQQQQQQNSKGSSFSvGYWWWWWWWWRHMBGSSGKSNQQQQQQQQQQQQQQQQQQQQQQQQQ",
"QQQQQQQQQZGJSSGCNPWWWWWWWWWWWWUBVGSZGJSNQQQQQQQQQQQQQQQQQQQQQQQQ",
"QQQQQQQQMFJSSGBVRWWWWWWWEWWEWWWWCVHSCHSNQQQQQQQQQQQQQQQQQQQQQQQQ",
"QQQQQQQMSJSSFZNYWWWWWWWRWEWWEWWWWVCFSSHSNQQQQQQQQQQQQQQQQQQQQQQQ",
"QQQQQQQMFGZSGvPWRWRRRWRWEERWEWRWWYvFSSFGNQQQQQQQQQQQQQQQQQQQQQQQ",
"QQQQQQQZGSSFCSWYRWRWWRWREEERRRERRWHVHSCHSQQQQQQQQQQQQQQQQQQQQQQQ",
"QQQQQQBSGZSFMPWWWRWRRRWRRERWRERWRWRvSSSGSNQQQQQQQQQQQQQQQQQQQQQQ",
"QQQQQQVFSSFSVWYRRRRWRRRWRERRRRERWRWCCFSZFNQQQQQQQQQQQQQQQQQQQQQQ",
"QQQQQQNFZZFCSWYWRRRRRRRRRRRRRRRRRRWKNFSCSNQQQQQQQQQQQQQQQQQQQQQQ",
"QQQQQQVSZSFVKWWYRRRRRRRRRRRRRRRRRRWLMGSSSCQQQQQQQQQQQQQQQQQQQQQQ",
"QQQQQQVSCSFNLWYYRRRRRRRRRRRRTRRRRRWPMGSCSSQQQQQQQQQQQQQQQQQQQQQQ",
"QQQQQQBZZSGMLWWYRIRRIRURRRURRURRYRWPMGSSCSQQQQQQQQQQQQQQQQQQQQQQ",
"QQQQQQVZCSGMKRWYIRIRRIYRRUYRRUUYRWWLMSSCCBQQQQQQQQQQQQQQQQQQQQQQ",
"QQQQQQNBZSGCSRWWIIYIIRIYYUUUIURYRWRGCGSSCBQQQQQQQQQQQQQQQQQQQQQQ",
"QQQQQQMSCSFSMYWWWIIRIUYYIYYYYIIRWWRCCSSCCNQQQQQQQQQQQQQQQQQQQQQQ",
"QQQQQQNSCSSGMLRWWWTTIIIIIIIIIIWWWRPvGSSCZBQQQQQQQQQQQQQQQQQQQQQQ",
"QQQQQQQCCCSGBBYRWWWRIIIIIIIIYWWWWYSBGSSBSmQQQQQQQQQQQQQQQQQQQQQQ",
"QQQQQQQNCCSSGMKYWWWWWEERTTWWWWWWYLvFSSCCBlQQQQQQQQQQQQQQQQQQQQQQ",
"QQQQQQQQSCCSGSvPIWWWWWWWWWWWWWWIPMSFSSBZxdfdQQQQQQQQQQQQQQQQQQQQ",
"QQQQQQQQNZCSSGSnLIRWWWWWWWWWWRIPNCGSSZBBkssdgQQQQQQQQQQQQQQQQQQQ",
"QQQQQQQQQCCCSSGSbJIIRRWWWWWRIYLvCGSSBCZzuuuussQQQQQQQQQQQQQQQQQQ",
"QQQQQQQQQBSCCSSGSbMKPIIIIIIPLBmSFSSCBZmayuwuwuuQQQQQQQQQQQQQQQQQ",
"QQQQQQQQQQNZCCSSGGAMMBFHGGAMvZGGSSZCBMhtwywywwwwiQQQQQQQQQQQQQQQ",
"QQQQQQQQQQQCSCZSSSFFFZVVVVCFFGSSZZCCMjqqqwqqwwqwwwQQQQQQQQQQQQQQ",
"QQQQQQQQQQQQCZCCZSSSFFFFFFFFSSSZCCCNr000000000000w0QQQQQQQQQQQQQ",
"QQQQQQQQQQQQQBCCBBZZSSSSFSZZSZCCBSce00777077677797q0QQQQQQQQQQQQ",
"QQQQQQQQQQQQQQQBSZZZCCZZZZZCCCZSBm9655555555666655555QQQQQQQQQQQ",
"QQQQQQQQQQQQQQQQQVCSZCCCZCZZSBVMQQQ55544555155155554555QQQQQQQQQ",
"QQQQQQQQQQQQQQQQQQQQMCMMMVVVBQQQQQQQ34111111111111111141QQQQQQQQ",
"QQQQQQQQQQQQQQQQQQQQQQQQQQQQQQQQQQQQQ311<<<<<<<<<<<<<<<13QQQQQQQ",
"QQQQQQQQQQQQQQQQQQQQQQQQQQQQQQQQQQQQQQQ,,:<::<:<,,:,,,:<,QQQQQQQ",
"QQQQQQQQQQQQQQQQQQQQQQQQQQQQQQQQQQQQQQQQ::******:*:*:::**2QQQQQQ",
"QQQQQQQQQQQQQQQQQQQQQQQQQQQQQQQQQQQQQQQQQ>**%*******%*****QQQQQQ",
"QQQQQQQQQQQQQQQQQQQQQQQQQQQQQQQQQQQQQQQQQQ=**%*#*%#%#*#*%%QQQQQQ",
"QQQQQQQQQQQQQQQQQQQQQQQQQQQQQQQQQQQQQQQQQQQQ#%%%#%%%%%%%#-QQQQQQ",
"QQQQQQQQQQQQQQQQQQQQQQQQQQQQQQQQQQQQQQQQQQQQQ$$$#+$$$$$$#QQQQQQQ",
"QQQQQQQQQQQQQQQQQQQQQQQQQQQQQQQQQQQQQQQQQQQQQQ$O++OOOOOO$QQQQQQQ",
"QQQQQQQQQQQQQQQQQQQQQQQQQQQQQQQQQQQQQQQQQQQQQQQ+#XOOO$O+QQQQQQQQ",
"QQQQQQQQQQQQQQQQQQQQQQQQQQQQQQQQQQQQQQQQQQQQQQQQ XXOOX.QQQQQQQQQ",
"QQQQQQQQQQQQQQQQQQQQQQQQQQQQQQQQQQQQQQQQQQQQQQQQQQQQQQQQQQQQQQQQ",
"QQQQQQQQQQQQQQQQQQQQQQQQQQQQQQQQQQQQQQQQQQQQQQQQQQQQQQQQQQQQQQQQ",
"QQQQQQQQQQQQQQQQQQQQQQQQQQQQQQQQQQQQQQQQQQQQQQQQQQQQQQQQQQQQQQQQ",
"QQQQQQQQQQQQQQQQQQQQQQQQQQQQQQQQQQQQQQQQQQQQQQQQQQQQQQQQQQQQQQQQ",
"QQQQQQQQQQQQQQQQQQQQQQQQQQQQQQQQQQQQQQQQQQQQQQQQQQQQQQQQQQQQQQQQ",
"QQQQQQQQQQQQQQQQQQQQQQQQQQQQQQQQQQQQQQQQQQQQQQQQQQQQQQQQQQQQQQQQ",
"QQQQQQQQQQQQQQQQQQQQQQQQQQQQQQQQQQQQQQQQQQQQQQQQQQQQQQQQQQQQQQQQ",
"QQQQQQQQQQQQQQQQQQQQQQQQQQQQQQQQQQQQQQQQQQQQQQQQQQQQQQQQQQQQQQQQ"
};
