/* XPM */
const static char *zoom_in[] = {
/* columns rows colors chars-per-pixel */
"64 64 174 2 ",
"   c #2B741E",
".  c #31791D",
"X  c #2E7421",
"o  c #357C21",
"O  c #337626",
"+  c #417D32",
"@  c #0F1D4F",
"#  c #111E4D",
"$  c #0F1E52",
"%  c #111F52",
"&  c #13214A",
"*  c #0D255B",
"=  c #0E285D",
"-  c #112256",
";  c #11265C",
":  c #11285D",
">  c #0F2E67",
",  c #0D2E6B",
"<  c #102A61",
"1  c #0F316C",
"2  c #0F3572",
"3  c #0C3876",
"4  c #0E3B7B",
"5  c #103975",
"6  c #3B851F",
"7  c #3F8A1F",
"8  c #37831D",
"9  c #3B8321",
"0  c #428C1D",
"q  c #4A961C",
"w  c #539C1E",
"e  c #56A11C",
"r  c #5EA91D",
"t  c #59A41D",
"y  c #63AE1B",
"u  c #65AE10",
"i  c #6FB414",
"p  c #67B219",
"a  c #6DB61A",
"s  c #71B614",
"d  c #74BA15",
"f  c #7CBD15",
"g  c #74BA1A",
"h  c #7ABC19",
"j  c #75B71C",
"k  c #428C21",
"l  c #44892A",
"z  c #4A9223",
"x  c #4E9920",
"c  c #519B22",
"v  c #599B28",
"b  c #4C8939",
"n  c #518C35",
"m  c #56A022",
"M  c #5BA322",
"N  c #6BAC29",
"B  c #6AAD29",
"V  c #6FB126",
"C  c #76B326",
"Z  c #7DAE39",
"A  c #6AA435",
"S  c #58854C",
"D  c #5D994D",
"F  c #579646",
"G  c #5F865A",
"H  c #5E9951",
"J  c #649A48",
"K  c #62885E",
"L  c #75A554",
"P  c #6EA658",
"I  c #6C8C66",
"U  c #7A9471",
"Y  c #78946B",
"T  c #75AB60",
"R  c #82BF15",
"E  c #87BC1A",
"W  c #8AB924",
"Q  c #83B625",
"!  c #8DB433",
"~  c #86C30E",
"^  c #84C211",
"/  c #89C211",
"(  c #8EC622",
")  c #8AAD48",
"_  c #8EB043",
"`  c #92B04A",
"'  c #8DAA5F",
"]  c #84A855",
"[  c #84997D",
"{  c #8DAA61",
"}  c #99AC6C",
"|  c #8CA478",
" . c #97AA78",
".. c #97CB55",
"X. c #9DCF5A",
"o. c #9ACD57",
"O. c #92CA45",
"+. c #A0D05C",
"@. c #9BCC69",
"#. c #B2DA63",
"$. c #A7D471",
"%. c #0B3F82",
"&. c #0E4284",
"*. c #0D468A",
"=. c #0D4B8E",
"-. c #124B8B",
";. c #0C4F96",
":. c #0D539C",
">. c #185897",
",. c #205F9B",
"<. c #0B57A2",
"1. c #0D59A2",
"2. c #0C5CA9",
"3. c #105DA9",
"4. c #196BAF",
"5. c #0C62B2",
"6. c #1469B2",
"7. c #4B83AE",
"8. c #5B92B5",
"9. c #6886A1",
"0. c #879A83",
"q. c #919F8F",
"w. c #91BC84",
"e. c #9CA698",
"r. c #96A589",
"t. c #A3AB8D",
"y. c #A3AD86",
"u. c #A4AA98",
"i. c #809CAF",
"p. c #91A1AE",
"a. c #9DA9B3",
"s. c #ABADA5",
"d. c #ABACA9",
"f. c #AFB1AB",
"g. c #AEB0A6",
"h. c #B0B3AD",
"j. c #A2ADB5",
"k. c #ABB0B5",
"l. c #B6B5B5",
"z. c #B9B6B6",
"x. c #B8B9B6",
"c. c #BAB6BC",
"v. c #BDBCBC",
"b. c #C1BEBE",
"n. c #C4BCB7",
"m. c #AFD58A",
"M. c #A7CC95",
"N. c #BFDDA4",
"B. c #B8C7B8",
"V. c #C0DEA5",
"C. c #C2DABC",
"Z. c #C2E0A6",
"A. c #CCE4BC",
"S. c #CDE5B7",
"D. c #D9EEB6",
"F. c #D9EDB7",
"G. c #BDBAC2",
"H. c #C2BDC5",
"J. c #C3BFC8",
"K. c #C3C3C3",
"L. c #C8C7C7",
"P. c #C8C8C7",
"I. c #C6C2CA",
"U. c #CAC6CC",
"Y. c #CBCACB",
"T. c #CBDFC8",
"R. c #D0D0CF",
"E. c #D5D4D3",
"W. c #D6E5D7",
"Q. c #E4F3CF",
"!. c #EDF5E9",
"~. c #F4FAE9",
"^. c #FFFFFF",
"/. c None",
/* pixels */
"/./././././././././././././././././././././././././././././././././././././././././././././././././././././././././././././././.",
"/./././././././././././././././././././././././././././././././././././././././././././././././././././././././././././././././.",
"/./././././././././././././././././././././././././././././././././././././././././././././././././././././././././././././././.",
"/./././././././././././././././././././././././././././././././././././././././././././././././././././././././././././././././.",
"/./././././././././././././././././././././././././././././././././././././././././././././././././././././././././././././././.",
"/./././././././././././././././././././././././././././././././././././././././././././././././././././././././././././././././.",
"/./././././././././././././././././././././././././././././././././././././././././././././././././././././././././././././././.",
"/./././././././././././././././././././././././././././././././././././././././././././././././././././././././././././././././.",
"/./././././././././././././././././././././././././././././././././././././././././././././././././././././././././././././././.",
"/./././././././././././././././././././././././././././././././././././././././././././././././././././././././././././././././.",
"/./././././././././././././././././././.x.x.x.x.x.x.x.x.x./././././././././././././././././././././././././././././././././././.",
"/././././././././././././././././.x.x.c.K.R.R.E.E.E.E.E.Y.c.l.x././././././././././././././././././././././././././././././././.",
"/./././././././././././././././.x.c.R.E.E.E.R.Y.Y.Y.Y.E.E.E.E.K.x.x././././././././././././././././././././././././././././././.",
"/./././././././././././././.x.x.Y.E.E.Y.K.K.K.K.K.K.K.K.K.P.R.E.E.c.x./././././././././././././././././././././././././././././.",
"/././././././././././././.k.c.E.E.K.K.K.K.Y.Y.U.Y.Y.U.P.I.K.K.K.Y.E.Y.x././././././././././././././././././././././././././././.",
"/./././././././././././.z.C.E.Y.K.K.K.Y.I.G.f.t.y.t.u.l.J.Y.P.K.K.K.E.Y.x./././././././././././././././././././././././././././.",
"/././././././././././.x.c.E.Y.H.K.P.I.f.} ! E / / / E W ` t.G.P.P.b.K.E.P.x././././././././././././././././././././././././././.",
"/./././././././././.x.c.E.Y.K.K.Y.c.} W ^ ~ / / ~ ~ ~ ~ / / _ s.U.P.b.K.E.K.x./././././././././././././././././././././././././.",
"/./././././././././.x.Y.Y.H.K.U.x.) ^ ^ ^ ~ ^ ( ( ( h ^ ^ ^ ^ Q e.P.P.K.K.R.c.c././././././././././././././././././././././././.",
"/././././././././.x.c.R.C.H.U.z.) ~ f ^ R f #.~.~.~.T.v ^ R ^ R h t.I.P.b.P.Y.l././././././././././././././././././././././././.",
"/././././././././.l.R.I.K.Y.H.' f R f R f f F.^.^.^.^.H s ^ ^ f f C g.Y.K.B.R.n.x./././././././././././././././././././././././.",
"/./././././././.l.n.Y.n.K.Y.u.h f f h f f f F.^.^.^.^.J i h h h h R ] H.Y.K.H.Y.x./././././././././././././././././././././././.",
"/./././././././.z.I.K.K.I.H.) d g h h g f d F.^.^.^.^.J i h h h h g h u.Y.K.c.Y.z./././././././././././././././././././././././.",
"/./././././././.l.J.C.K.Y.g.C g g d i d i i D.^.^.^.^.F y s s s g h f { I.K.K.K.K.x././././././././././././././././././././././.",
"/./././././././.c.H.n.I.I. .g g g O.X.X.X.o.Q.^.^.^.^.w...X.X.o.N j g Z c.P.K.b.K.x././././././././././././././././././././././.",
"/./././././././.C.H.C.I.I.{ a a ..^.^.^.^.^.^.^.^.^.^.^.^.^.^.^.B.w g V f.Y.b.b.K.x././././././././././././././././././././././.",
"/././././././.c.c.n.H.H.J.] a u $.^.^.^.^.^.^.^.^.^.^.^.^.^.^.^.W.z a V s.U.P.b.K.c././././././././././././././././././././././.",
"/././././././.z.C.n.I.I.K.] p y $.^.^.^.^.^.^.^.^.^.^.^.^.^.^.^.W.z a N s.U.b.b.b.x././././././././././././././././././././././.",
"/./././././././.c.z.K.I.I.] y r @.^.^.^.^.^.^.^.^.^.^.^.^.^.^.^.T.z B B h.Y.K.B.c.x././././././././././././././././././././././.",
"/./././././././.l.H.n.I.U.| r r B m.Z.Z.Z.N.!.^.^.^.^.C.N.V.Z.N.P w r A x.P.b.G.n.l././././././././././././././././././././././.",
"/./././././././.l.H.C.H.Y.u.M M M e e e e e S.^.^.^.^.F q t e e r M t P I.U.K.b.c.l././././././././././././././././././././././.",
"/./././././././.z.c.H.H.Y.z.J e m m m m m m S.^.^.^.^.D q M m m m m m r.U.K.b.b.l./././././././././././././././././././././././.",
"/./././././././.x.c.G.H.I.U.r.z c c x c c c S.^.^.^.^.H q c c c x q J x.P.K.n.c.l./././././././././././././././././././././././.",
"/././././././././.x.c.n.K.Y.z.J 0 z z z z k S.^.^.^.^.H 0 z z z z z e.Y.K.K.H.B.j.4././././././././././././././././././././././.",
"/././././././././.x.z.H.K.K.Y.d.n 9 k k k 9 M.^.^.^.!.b 6 k k k 9 U P.P.H.n.c.n.8.5.5./././././././././././././././././././././.",
"/./././././././././.c.z.C.K.K.Y.u.n 6 9 9 9 l P T T F 9 9 9 9 o Y K.Y.K.n.C.c.k.4.5.5.5.6./././././././././././././././././././.",
"/./././././././././.l.c.B.H.K.U.Y.d.S 9 . . . .   . . . . . l 0.K.U.K.K.G.c.n.7.3.2.1.2.2.3././././././././././././././././././.",
"/././././././././././.x.c.G.K.K.I.Y.H.0.S .           X + I d.U.U.K.K.B.z.n.i.2.1.1.1.1.1.<.1./././././././././././././././././.",
"/./././././././././././.l.n.c.K.K.K.Y.Y.n.a.[ I G I U q.h.U.Y.I.K.K.G.c.n.a.>.<.1.:.:.:.:.:.:.:././././././././././././././././.",
"/././././././././././././.z.B.G.K.K.K.I.Y.Y.U.I.I.U.U.Y.Y.P.K.I.C.c.c.n.j.,.;.;.;.;.;.;.;.;.;.;.;./././././././././././././././.",
"/./././././././././././././.l.c.c.C.C.H.H.K.K.K.I.P.I.H.H.K.K.n.n.z.n.p.>.*.;.=.=.=.=.=.-.=.=.=.=.=.=./././././././././././././.",
"/././././././././././././././.z.c.z.c.H.n.H.H.K.K.K.C.n.G.n.B.c.c.z.9.-.*.*.*.*.*.*.*.*.*.*.*.*.*.*.=.-././././././././././././.",
"/././././././././././././././././.x.l.z.n.z.c.C.G.c.C.c.G.c.x.x.z././.%.&.&.&.&.&.&.&.&.&.&.&.&.&.&.&.%.&./././././././././././.",
"/././././././././././././././././././.z.l.l.c.l.z.c.l.c.x.c././././././.4 4 %.4 %.4 4 4 %.4 4 4 4 4 %.4 4 4 /./././././././././.",
"/././././././././././././././././././././././././././././././././././././.4 3 4 4 4 4 4 4 5 4 4 4 4 5 4 4 4 3 /././././././././.",
"/./././././././././././././././././././././././././././././././././././././.4 2 2 2 2 2 2 2 2 2 2 2 2 2 2 2 2 2 /./././././././.",
"/./././././././././././././././././././././././././././././././././././././././.> 1 2 1 > 2 1 1 1 1 1 1 1 1 1 , /./././././././.",
"/././././././././././././././././././././././././././././././././././././././././.< < > > > > > 1 < 1 < > > , < , /././././././.",
"/./././././././././././././././././././././././././././././././././././././././././.< * : > < < < < < < < < < < * /././././././.",
"/././././././././././././././././././././././././././././././././././././././././././.; * ; ; * ; ; ; ; ; ; ; * : /././././././.",
"/./././././././././././././././././././././././././././././././././././././././././././.; % - - - - - - - - - % /./././././././.",
"/./././././././././././././././././././././././././././././././././././././././././././././.$ % % # % - % % @ - /./././././././.",
"/././././././././././././././././././././././././././././././././././././././././././././././.% $ % % % % $ % /././././././././.",
"/./././././././././././././././././././././././././././././././././././././././././././././././.& # % # # # /./././././././././.",
"/./././././././././././././././././././././././././././././././././././././././././././././././././././././././././././././././.",
"/./././././././././././././././././././././././././././././././././././././././././././././././././././././././././././././././.",
"/./././././././././././././././././././././././././././././././././././././././././././././././././././././././././././././././.",
"/./././././././././././././././././././././././././././././././././././././././././././././././././././././././././././././././.",
"/./././././././././././././././././././././././././././././././././././././././././././././././././././././././././././././././.",
"/./././././././././././././././././././././././././././././././././././././././././././././././././././././././././././././././.",
"/./././././././././././././././././././././././././././././././././././././././././././././././././././././././././././././././.",
"/./././././././././././././././././././././././././././././././././././././././././././././././././././././././././././././././.",
"/./././././././././././././././././././././././././././././././././././././././././././././././././././././././././././././././.",
"/./././././././././././././././././././././././././././././././././././././././././././././././././././././././././././././././."
};
