/* XPM */
const static char *zoom_out[] = {
/* columns rows colors chars-per-pixel */
"64 64 158 2 ",
"   c #2B741E",
".  c #327B1E",
"X  c #2E7421",
"o  c #357C22",
"O  c #337626",
"+  c #417D32",
"@  c #0F1D4F",
"#  c #111E4D",
"$  c #0F1E52",
"%  c #111F52",
"&  c #13214A",
"*  c #0D255B",
"=  c #0E285D",
"-  c #112256",
";  c #11265C",
":  c #11285D",
">  c #0F2E67",
",  c #0D2E6B",
"<  c #102A61",
"1  c #0F316C",
"2  c #0F3572",
"3  c #0C3876",
"4  c #0E3B7B",
"5  c #103975",
"6  c #3A861E",
"7  c #3C8422",
"8  c #49961E",
"9  c #539C1E",
"0  c #56A11C",
"q  c #59A41D",
"w  c #5EA91D",
"e  c #63AE1B",
"r  c #67B219",
"t  c #6DB61A",
"y  c #71B714",
"u  c #74BB15",
"i  c #7DBE16",
"p  c #71B719",
"a  c #74BA1A",
"s  c #79BC19",
"d  c #79B71E",
"f  c #428C22",
"g  c #4A9223",
"h  c #4E9920",
"j  c #509A22",
"k  c #4D8737",
"l  c #518C35",
"z  c #56A022",
"x  c #5BA422",
"c  c #6BAC29",
"v  c #6AAD29",
"b  c #6FB126",
"n  c #76B326",
"m  c #6AA435",
"M  c #7DAE39",
"N  c #58854C",
"B  c #5F865A",
"V  c #689C40",
"C  c #669647",
"Z  c #62885E",
"A  c #79A057",
"S  c #70AA50",
"D  c #6C8C66",
"F  c #78946B",
"G  c #7E9870",
"H  c #769071",
"J  c #82BF15",
"K  c #87BC1A",
"L  c #8AB924",
"P  c #83B625",
"I  c #8DB433",
"U  c #86C40E",
"Y  c #84C212",
"T  c #89C211",
"R  c #8AAD48",
"E  c #8EB043",
"W  c #92B04A",
"Q  c #80A752",
"!  c #8DAA5F",
"~  c #85A856",
"^  c #84997D",
"/  c #8DAA61",
"(  c #99AC6C",
")  c #8CA478",
"_  c #97AA78",
"`  c #92CA45",
"'  c #9DCF5A",
"]  c #99CD55",
"[  c #A0D05C",
"{  c #9BCC69",
"}  c #A7D471",
"|  c #0B3F82",
" . c #0E4284",
".. c #0D468A",
"X. c #0D4B8E",
"o. c #124B8B",
"O. c #0C4F96",
"+. c #0D539C",
"@. c #185897",
"#. c #205F9B",
"$. c #0B57A2",
"%. c #0D59A2",
"&. c #0C5CA9",
"*. c #105DA9",
"=. c #196BAF",
"-. c #0C62B2",
";. c #1469B2",
":. c #4B83AE",
">. c #5B92B5",
",. c #6886A1",
"<. c #829780",
"1. c #8B9C86",
"2. c #919F8F",
"3. c #96A589",
"4. c #9FA89E",
"5. c #99A391",
"6. c #A3AD86",
"7. c #A3AB8D",
"8. c #A3AA96",
"9. c #A8AE97",
"0. c #A4A99B",
"q. c #809CAF",
"w. c #91A1AE",
"e. c #9DA9B3",
"r. c #ABADA5",
"t. c #ABACA9",
"y. c #AFB1AB",
"u. c #AEB0A6",
"i. c #B0B3AD",
"p. c #A2ADB5",
"a. c #ABB0B5",
"s. c #B6B5B5",
"d. c #B9B6B6",
"f. c #B8B9B6",
"g. c #BAB6BC",
"h. c #BDBCBC",
"j. c #C1BEBE",
"k. c #C4BCB7",
"l. c #AFD58A",
"z. c #BFDDA3",
"x. c #BFC0BE",
"c. c #B1CEB2",
"v. c #C2E0A6",
"b. c #BDBAC2",
"n. c #C2BDC5",
"m. c #C3BFC8",
"M. c #C3C3C3",
"N. c #C8C7C7",
"B. c #C8C8C7",
"V. c #C6C2CA",
"C. c #CAC6CC",
"Z. c #CBCACB",
"A. c #CBDECE",
"S. c #D0D0CF",
"D. c #D5D4D3",
"F. c #D6E5D7",
"G. c #FFFFFF",
"H. c None",
/* pixels */
"H.H.H.H.H.H.H.H.H.H.H.H.H.H.H.H.H.H.H.H.H.H.H.H.H.H.H.H.H.H.H.H.H.H.H.H.H.H.H.H.H.H.H.H.H.H.H.H.H.H.H.H.H.H.H.H.H.H.H.H.H.H.H.H.",
"H.H.H.H.H.H.H.H.H.H.H.H.H.H.H.H.H.H.H.H.H.H.H.H.H.H.H.H.H.H.H.H.H.H.H.H.H.H.H.H.H.H.H.H.H.H.H.H.H.H.H.H.H.H.H.H.H.H.H.H.H.H.H.H.",
"H.H.H.H.H.H.H.H.H.H.H.H.H.H.H.H.H.H.H.H.H.H.H.H.H.H.H.H.H.H.H.H.H.H.H.H.H.H.H.H.H.H.H.H.H.H.H.H.H.H.H.H.H.H.H.H.H.H.H.H.H.H.H.H.",
"H.H.H.H.H.H.H.H.H.H.H.H.H.H.H.H.H.H.H.H.H.H.H.H.H.H.H.H.H.H.H.H.H.H.H.H.H.H.H.H.H.H.H.H.H.H.H.H.H.H.H.H.H.H.H.H.H.H.H.H.H.H.H.H.",
"H.H.H.H.H.H.H.H.H.H.H.H.H.H.H.H.H.H.H.H.H.H.H.H.H.H.H.H.H.H.H.H.H.H.H.H.H.H.H.H.H.H.H.H.H.H.H.H.H.H.H.H.H.H.H.H.H.H.H.H.H.H.H.H.",
"H.H.H.H.H.H.H.H.H.H.H.H.H.H.H.H.H.H.H.H.H.H.H.H.H.H.H.H.H.H.H.H.H.H.H.H.H.H.H.H.H.H.H.H.H.H.H.H.H.H.H.H.H.H.H.H.H.H.H.H.H.H.H.H.",
"H.H.H.H.H.H.H.H.H.H.H.H.H.H.H.H.H.H.H.H.H.H.H.H.H.H.H.H.H.H.H.H.H.H.H.H.H.H.H.H.H.H.H.H.H.H.H.H.H.H.H.H.H.H.H.H.H.H.H.H.H.H.H.H.",
"H.H.H.H.H.H.H.H.H.H.H.H.H.H.H.H.H.H.H.H.H.H.H.H.H.H.H.H.H.H.H.H.H.H.H.H.H.H.H.H.H.H.H.H.H.H.H.H.H.H.H.H.H.H.H.H.H.H.H.H.H.H.H.H.",
"H.H.H.H.H.H.H.H.H.H.H.H.H.H.H.H.H.H.H.H.H.H.H.H.H.H.H.H.H.H.H.H.H.H.H.H.H.H.H.H.H.H.H.H.H.H.H.H.H.H.H.H.H.H.H.H.H.H.H.H.H.H.H.H.",
"H.H.H.H.H.H.H.H.H.H.H.H.H.H.H.H.H.H.H.H.H.H.H.H.H.H.H.H.H.H.H.H.H.H.H.H.H.H.H.H.H.H.H.H.H.H.H.H.H.H.H.H.H.H.H.H.H.H.H.H.H.H.H.H.",
"H.H.H.H.H.H.H.H.H.H.H.H.H.H.H.H.H.H.H.H.f.f.d.f.f.f.f.f.f.H.H.H.H.H.H.H.H.H.H.H.H.H.H.H.H.H.H.H.H.H.H.H.H.H.H.H.H.H.H.H.H.H.H.H.",
"H.H.H.H.H.H.H.H.H.H.H.H.H.H.H.H.H.f.f.g.M.Z.D.D.D.D.D.D.Z.g.d.f.H.H.H.H.H.H.H.H.H.H.H.H.H.H.H.H.H.H.H.H.H.H.H.H.H.H.H.H.H.H.H.H.",
"H.H.H.H.H.H.H.H.H.H.H.H.H.H.H.H.d.b.Z.D.D.D.S.Z.Z.Z.Z.D.D.D.D.N.f.f.H.H.H.H.H.H.H.H.H.H.H.H.H.H.H.H.H.H.H.H.H.H.H.H.H.H.H.H.H.H.",
"H.H.H.H.H.H.H.H.H.H.H.H.H.H.f.f.Z.D.D.Z.M.M.M.M.M.M.M.M.b.N.S.D.D.g.f.H.H.H.H.H.H.H.H.H.H.H.H.H.H.H.H.H.H.H.H.H.H.H.H.H.H.H.H.H.",
"H.H.H.H.H.H.H.H.H.H.H.H.H.f.g.D.D.N.x.M.M.Z.Z.Z.C.C.C.Z.Z.N.x.M.Z.D.Z.f.H.H.H.H.H.H.H.H.H.H.H.H.H.H.H.H.H.H.H.H.H.H.H.H.H.H.H.H.",
"H.H.H.H.H.H.H.H.H.H.H.H.f.x.D.Z.M.M.N.N.N.b.u.8.6.6.8.f.b.Z.Z.Z.M.M.D.Z.f.H.H.H.H.H.H.H.H.H.H.H.H.H.H.H.H.H.H.H.H.H.H.H.H.H.H.H.",
"H.H.H.H.H.H.H.H.H.H.H.f.g.D.Z.M.M.Z.N.t.( I K T T T Y P W 8.b.Z.N.x.M.D.N.f.H.H.H.H.H.H.H.H.H.H.H.H.H.H.H.H.H.H.H.H.H.H.H.H.H.H.",
"H.H.H.H.H.H.H.H.H.H.f.d.D.Z.x.M.Z.b.( K T T T T T T T T T T I u.N.N.M.M.D.M.f.H.H.H.H.H.H.H.H.H.H.H.H.H.H.H.H.H.H.H.H.H.H.H.H.H.",
"H.H.H.H.H.H.H.H.H.H.f.Z.Z.M.M.Z.f.R J U Y Y T T T T T T i T Y n 5.C.N.M.M.D.g.f.H.H.H.H.H.H.H.H.H.H.H.H.H.H.H.H.H.H.H.H.H.H.H.H.",
"H.H.H.H.H.H.H.H.H.f.j.S.M.M.Z.d.R i i J s Y i i s T s i T i i Y J 8.N.N.x.M.Z.f.H.H.H.H.H.H.H.H.H.H.H.H.H.H.H.H.H.H.H.H.H.H.H.H.",
"H.H.H.H.H.H.H.H.H.f.Z.M.M.Z.m.! i T s T Y J s Y i T s T i J s J i n u.C.M.x.Z.x.f.H.H.H.H.H.H.H.H.H.H.H.H.H.H.H.H.H.H.H.H.H.H.H.",
"H.H.H.H.H.H.H.H.d.g.Z.M.M.Z.8.s y s s s s s s s i i s s s i i s s i R m.C.M.M.Z.f.H.H.H.H.H.H.H.H.H.H.H.H.H.H.H.H.H.H.H.H.H.H.H.",
"H.H.H.H.H.H.H.H.f.N.M.M.B.m.R i s i s s s s s s s s s s s s s s s s n 9.Z.M.g.Z.d.H.H.H.H.H.H.H.H.H.H.H.H.H.H.H.H.H.H.H.H.H.H.H.",
"H.H.H.H.H.H.H.H.d.B.j.M.Z.r.n p p p y y y y y y y y y y y y y y s s y / N.M.M.M.M.f.H.H.H.H.H.H.H.H.H.H.H.H.H.H.H.H.H.H.H.H.H.H.",
"H.H.H.H.H.H.H.H.g.M.x.B.C._ p p p ` [ ' ' ' ' ' ' ' ' ' ' ' ' ] c p p M g.B.M.j.M.d.H.H.H.H.H.H.H.H.H.H.H.H.H.H.H.H.H.H.H.H.H.H.",
"H.H.H.H.H.H.H.H.x.M.x.B.N.! t t ] G.G.G.G.G.G.G.G.G.G.G.G.G.G.G.c.9 p b i.Z.M.j.M.f.H.H.H.H.H.H.H.H.H.H.H.H.H.H.H.H.H.H.H.H.H.H.",
"H.H.H.H.H.H.H.g.g.j.M.N.M.~ t r } G.G.G.G.G.G.G.G.G.G.G.G.G.G.G.F.g p b r.Z.M.g.M.f.H.H.H.H.H.H.H.H.H.H.H.H.H.H.H.H.H.H.H.H.H.H.",
"H.H.H.H.H.H.H.d.g.x.M.B.M.A r e } G.G.G.G.G.G.G.G.G.G.G.G.G.G.G.F.g b v r.Z.M.M.x.f.H.H.H.H.H.H.H.H.H.H.H.H.H.H.H.H.H.H.H.H.H.H.",
"H.H.H.H.H.H.H.H.x.x.M.B.M.~ e w { G.G.G.G.G.G.G.G.G.G.G.G.G.G.G.A.g e c u.Z.M.g.g.f.H.H.H.H.H.H.H.H.H.H.H.H.H.H.H.H.H.H.H.H.H.H.",
"H.H.H.H.H.H.H.H.f.x.M.B.C.) w x v l.v.v.v.v.v.v.v.v.v.v.v.v.v.z.S 0 x m f.Z.M.x.g.f.H.H.H.H.H.H.H.H.H.H.H.H.H.H.H.H.H.H.H.H.H.H.",
"H.H.H.H.H.H.H.H.f.g.M.M.Z.8.x x x 0 0 0 0 0 0 0 0 0 0 0 0 0 0 0 x x w A M.B.M.x.g.d.H.H.H.H.H.H.H.H.H.H.H.H.H.H.H.H.H.H.H.H.H.H.",
"H.H.H.H.H.H.H.H.f.g.x.M.C.g.V z z z z z z z z z z z z z z z z z z z j 3.Z.M.M.g.d.H.H.H.H.H.H.H.H.H.H.H.H.H.H.H.H.H.H.H.H.H.H.H.",
"H.H.H.H.H.H.H.H.f.g.g.M.B.Z.1.j 9 j j j j j j j j j j j j j j j j 9 C d.Z.M.g.x.g.H.H.H.H.H.H.H.H.H.H.H.H.H.H.H.H.H.H.H.H.H.H.H.",
"H.H.H.H.H.H.H.H.H.f.x.M.M.Z.g.C 6 g g g g g g g g g g g g g g g g g 5.Z.M.M.x.g.p.=.H.H.H.H.H.H.H.H.H.H.H.H.H.H.H.H.H.H.H.H.H.H.",
"H.H.H.H.H.H.H.H.H.d.g.x.M.M.Z.r.l 6 7 g f f 7 f f f f f f f f f 7 G M.N.M.x.g.k.>.-.-.H.H.H.H.H.H.H.H.H.H.H.H.H.H.H.H.H.H.H.H.H.",
"H.H.H.H.H.H.H.H.H.H.d.j.x.M.B.Z.8.l 6 7 7 7 7 7 7 7 7 7 7 7 6 6 F M.Z.M.x.x.g.s.=.-.-.&.;.H.H.H.H.H.H.H.H.H.H.H.H.H.H.H.H.H.H.H.",
"H.H.H.H.H.H.H.H.H.H.f.d.x.x.M.B.Z.t.N o . o o o o o o o o . + ^ N.B.B.x.g.g.k.:.&.*.&.&.%.*.H.H.H.H.H.H.H.H.H.H.H.H.H.H.H.H.H.H.",
"H.H.H.H.H.H.H.H.H.H.H.f.g.x.M.M.Z.Z.x.1.N O           X + D t.C.N.N.x.x.x.k.q.%.%.%.$.%.%.$.%.H.H.H.H.H.H.H.H.H.H.H.H.H.H.H.H.H.",
"H.H.H.H.H.H.H.H.H.H.H.H.f.g.x.x.M.N.Z.Z.j.0.^ D Z Z H 2.f.M.Z.M.M.x.x.g.g.e.#.+.+.+.+.+.+.$.+.+.H.H.H.H.H.H.H.H.H.H.H.H.H.H.H.H.",
"H.H.H.H.H.H.H.H.H.H.H.H.H.f.g.g.b.x.N.N.C.C.C.C.N.C.C.Z.Z.B.M.M.j.j.f.x.p.#.O.O.O.O.O.O.O.O.O.O.O.H.H.H.H.H.H.H.H.H.H.H.H.H.H.H.",
"H.H.H.H.H.H.H.H.H.H.H.H.H.H.f.g.g.M.x.M.M.M.N.N.Z.N.M.M.M.M.M.x.g.j.x.w.@...O.X.X.X.X.X.O...X.X.X.X.O.H.H.H.H.H.H.H.H.H.H.H.H.H.",
"H.H.H.H.H.H.H.H.H.H.H.H.H.H.H.g.f.g.x.g.x.x.M.x.x.M.M.x.M.b.x.g.g.f.,.o......................... .X. .X.H.H.H.H.H.H.H.H.H.H.H.H.",
"H.H.H.H.H.H.H.H.H.H.H.H.H.H.H.H.H.f.f.g.j.g.g.x.b.x.M.g.g.g.g.f.d.H.H.| .. . . . ... . ... . . . . . .|  .H.H.H.H.H.H.H.H.H.H.H.",
"H.H.H.H.H.H.H.H.H.H.H.H.H.H.H.H.H.H.H.d.f.d.f.f.f.f.f.d.f.f.H.H.H.H.H.H.4 | 5 4 5 5 | 5 5 | 4 4  .5 | 4 4 4 H.H.H.H.H.H.H.H.H.H.",
"H.H.H.H.H.H.H.H.H.H.H.H.H.H.H.H.H.H.H.H.H.H.H.H.H.H.H.H.H.H.H.H.H.H.H.H.H.5 3 4 5 | 2 3 4 4 2 4 5 3 5 4 4 3 3 H.H.H.H.H.H.H.H.H.",
"H.H.H.H.H.H.H.H.H.H.H.H.H.H.H.H.H.H.H.H.H.H.H.H.H.H.H.H.H.H.H.H.H.H.H.H.H.H.5 2 5 5 5 5 1 5 5 5 5 5 5 5 2 2 5 2 H.H.H.H.H.H.H.H.",
"H.H.H.H.H.H.H.H.H.H.H.H.H.H.H.H.H.H.H.H.H.H.H.H.H.H.H.H.H.H.H.H.H.H.H.H.H.H.H.H., , 1 1 1 1 1 1 1 1 , 1 1 1 1 1 H.H.H.H.H.H.H.H.",
"H.H.H.H.H.H.H.H.H.H.H.H.H.H.H.H.H.H.H.H.H.H.H.H.H.H.H.H.H.H.H.H.H.H.H.H.H.H.H.H.H.> < 1 < , 1 < 1 < 1 < > > , < , H.H.H.H.H.H.H.",
"H.H.H.H.H.H.H.H.H.H.H.H.H.H.H.H.H.H.H.H.H.H.H.H.H.H.H.H.H.H.H.H.H.H.H.H.H.H.H.H.H.H.< * : > < < : < < < : < < > * H.H.H.H.H.H.H.",
"H.H.H.H.H.H.H.H.H.H.H.H.H.H.H.H.H.H.H.H.H.H.H.H.H.H.H.H.H.H.H.H.H.H.H.H.H.H.H.H.H.H.H.: * : : * : : : * * : : $ : H.H.H.H.H.H.H.",
"H.H.H.H.H.H.H.H.H.H.H.H.H.H.H.H.H.H.H.H.H.H.H.H.H.H.H.H.H.H.H.H.H.H.H.H.H.H.H.H.H.H.H.H.: % - - % : % % - : - % H.H.H.H.H.H.H.H.",
"H.H.H.H.H.H.H.H.H.H.H.H.H.H.H.H.H.H.H.H.H.H.H.H.H.H.H.H.H.H.H.H.H.H.H.H.H.H.H.H.H.H.H.H.H.H.$ % % % % % % % # - H.H.H.H.H.H.H.H.",
"H.H.H.H.H.H.H.H.H.H.H.H.H.H.H.H.H.H.H.H.H.H.H.H.H.H.H.H.H.H.H.H.H.H.H.H.H.H.H.H.H.H.H.H.H.H.H.% % % % % % $ % H.H.H.H.H.H.H.H.H.",
"H.H.H.H.H.H.H.H.H.H.H.H.H.H.H.H.H.H.H.H.H.H.H.H.H.H.H.H.H.H.H.H.H.H.H.H.H.H.H.H.H.H.H.H.H.H.H.H.# # % # # # H.H.H.H.H.H.H.H.H.H.",
"H.H.H.H.H.H.H.H.H.H.H.H.H.H.H.H.H.H.H.H.H.H.H.H.H.H.H.H.H.H.H.H.H.H.H.H.H.H.H.H.H.H.H.H.H.H.H.H.H.H.H.H.H.H.H.H.H.H.H.H.H.H.H.H.",
"H.H.H.H.H.H.H.H.H.H.H.H.H.H.H.H.H.H.H.H.H.H.H.H.H.H.H.H.H.H.H.H.H.H.H.H.H.H.H.H.H.H.H.H.H.H.H.H.H.H.H.H.H.H.H.H.H.H.H.H.H.H.H.H.",
"H.H.H.H.H.H.H.H.H.H.H.H.H.H.H.H.H.H.H.H.H.H.H.H.H.H.H.H.H.H.H.H.H.H.H.H.H.H.H.H.H.H.H.H.H.H.H.H.H.H.H.H.H.H.H.H.H.H.H.H.H.H.H.H.",
"H.H.H.H.H.H.H.H.H.H.H.H.H.H.H.H.H.H.H.H.H.H.H.H.H.H.H.H.H.H.H.H.H.H.H.H.H.H.H.H.H.H.H.H.H.H.H.H.H.H.H.H.H.H.H.H.H.H.H.H.H.H.H.H.",
"H.H.H.H.H.H.H.H.H.H.H.H.H.H.H.H.H.H.H.H.H.H.H.H.H.H.H.H.H.H.H.H.H.H.H.H.H.H.H.H.H.H.H.H.H.H.H.H.H.H.H.H.H.H.H.H.H.H.H.H.H.H.H.H.",
"H.H.H.H.H.H.H.H.H.H.H.H.H.H.H.H.H.H.H.H.H.H.H.H.H.H.H.H.H.H.H.H.H.H.H.H.H.H.H.H.H.H.H.H.H.H.H.H.H.H.H.H.H.H.H.H.H.H.H.H.H.H.H.H.",
"H.H.H.H.H.H.H.H.H.H.H.H.H.H.H.H.H.H.H.H.H.H.H.H.H.H.H.H.H.H.H.H.H.H.H.H.H.H.H.H.H.H.H.H.H.H.H.H.H.H.H.H.H.H.H.H.H.H.H.H.H.H.H.H.",
"H.H.H.H.H.H.H.H.H.H.H.H.H.H.H.H.H.H.H.H.H.H.H.H.H.H.H.H.H.H.H.H.H.H.H.H.H.H.H.H.H.H.H.H.H.H.H.H.H.H.H.H.H.H.H.H.H.H.H.H.H.H.H.H.",
"H.H.H.H.H.H.H.H.H.H.H.H.H.H.H.H.H.H.H.H.H.H.H.H.H.H.H.H.H.H.H.H.H.H.H.H.H.H.H.H.H.H.H.H.H.H.H.H.H.H.H.H.H.H.H.H.H.H.H.H.H.H.H.H.",
"H.H.H.H.H.H.H.H.H.H.H.H.H.H.H.H.H.H.H.H.H.H.H.H.H.H.H.H.H.H.H.H.H.H.H.H.H.H.H.H.H.H.H.H.H.H.H.H.H.H.H.H.H.H.H.H.H.H.H.H.H.H.H.H."
};
