/* XPM */
const static char *diskette[] = {
/* columns rows colors chars-per-pixel */
"64 64 2 1 ",
"  c #010101",
". c None",
/* pixels */
"................................................................",
"................................................................",
"................................................................",
"................................................................",
"................................................................",
"................................................................",
"................................................................",
"................................................................",
".........                                         ..............",
"........                                           .............",
"........  ............  ..................  .....   ............",
"........  ............  ..................  ......   ...........",
"........  ............  ............    ..  .......   ..........",
"........  ............  ............    ..  ........   .........",
"........  ............  ............    ..  .........   ........",
"........  ............  ............    ..  ..........  ........",
"........  ............  ............    ..  ..........  ........",
"........  ............  ............    ..  ..........  ........",
"........  ............  ............    ..  ..........  ........",
"........  ............  ............    ..  ..........  ........",
"........  ............  ............    ..  ..........  ........",
"........  ............  ............    ..  ..........  ........",
"........  ............  ..................  ..........  ........",
"........  ............  ..................  ..........  ........",
"........  ............                      ..........  ........",
"........  .............                    ...........  ........",
"........  ............................................  ........",
"........  ............................................  ........",
"........  ............................................  ........",
"........  ............................................  ........",
"........  ............................................  ........",
"........  ............................................  ........",
"........  .......                              .......  ........",
"........  ......                                ......  ........",
"........  ......  ............................  ......  ........",
"........  ......  ............................  ......  ........",
"........  ......  ............................  ......  ........",
"........  ......  ............................  ......  ........",
"........  ......  ............................  ......  ........",
"........  ......  ............................  ......  ........",
"........  ......  ............................  ......  ........",
"........  ......  ............................  ......  ........",
"........  ......  ............................  ......  ........",
"........  ......  ............................  ......  ........",
"........  ......  ............................  ......  ........",
"........  ......  ............................  ......  ........",
"........  ......  ............................  ......  ........",
"........  ......  ............................  ......  ........",
"........  ......  ............................  ......  ........",
"........  ......  ............................  ......  ........",
"........  ......  ............................  ......  ........",
"........  ......  ............................  ......  ........",
"........  ......  ............................  ......  ........",
"........  ......  ............................  ......  ........",
"........                                                ........",
".........                                              .........",
"................................................................",
"................................................................",
"................................................................",
"................................................................",
"................................................................",
"................................................................",
"................................................................",
"................................................................"
};
